<svg width="240" height="240" viewBox="0 0 240 240" fill="none" xmlns="http://www.w3.org/2000/svg">
<g clip-path="url(#clip0_1_2)">
<path d="M175.796 62.2906C178.124 63.9039 179.346 66.6926 178.908 69.4812L164.158 165.356C163.812 167.592 162.452 169.551 160.47 170.657C158.488 171.763 156.114 171.902 154.017 171.026L124.909 158.926L115.667 176.096C114.469 178.332 111.911 179.461 109.445 178.839C106.979 178.216 105.25 176.004 105.25 173.469V151.344C105.25 150.122 105.665 148.924 106.425 147.956L144.522 98.9582C145.098 97.3219 143.024 95.6625 141.526 97.0223L100.272 134.335L92.8969 140.996C90.7766 142.909 87.7574 143.439 85.107 142.332L65.5172 134.174C62.9359 133.091 61.1844 130.648 61.023 127.836C60.8617 125.024 62.2906 122.374 64.7336 120.968L167.984 61.968C170.45 60.5621 173.492 60.7004 175.82 62.2906H175.796Z" fill="#7754BE"/>
</g>
<defs>
<clipPath id="clip0_1_2">
<rect width="118" height="118" fill="white" transform="translate(61 61)"/>
</clipPath>
</defs>
</svg>
