<svg width="36" height="36" viewBox="0 0 36 36" fill="none" xmlns="http://www.w3.org/2000/svg">
<path d="M9.42857 1H26.5714C27.4807 1 28.3528 1.35821 28.9958 1.99584C29.6388 2.63346 30 3.49826 30 4.4V31.6C30 32.5017 29.6388 33.3665 28.9958 34.0042C28.3528 34.6418 27.4807 35 26.5714 35H9.42857C8.51926 35 7.64719 34.6418 7.00421 34.0042C6.36122 33.3665 6 32.5017 6 31.6V4.4C6 3.49826 6.36122 2.63346 7.00421 1.99584C7.64719 1.35821 8.51926 1 9.42857 1ZM9.42857 4.4V11.2H26.5714V4.4H9.42857ZM9.42857 14.6V18H12.8571V14.6H9.42857ZM16.2857 14.6V18H19.7143V14.6H16.2857ZM23.1429 14.6V18H26.5714V14.6H23.1429ZM9.42857 21.4V24.8H12.8571V21.4H9.42857ZM16.2857 21.4V24.8H19.7143V21.4H16.2857ZM23.1429 21.4V24.8H26.5714V21.4H23.1429ZM9.42857 28.2V31.6H12.8571V28.2H9.42857ZM16.2857 28.2V31.6H19.7143V28.2H16.2857ZM23.1429 28.2V31.6H26.5714V28.2H23.1429Z" fill="#7B24FF"/>
</svg>
