<svg width="36" height="36" viewBox="0 0 36 36" fill="none" xmlns="http://www.w3.org/2000/svg">
<path d="M13 16.3V19.7H9.66667V16.3H13ZM19.6667 16.3V19.7H16.3333V16.3H19.6667ZM26.3333 16.3V19.7H23V16.3H26.3333ZM29.6667 4.4C30.5507 4.4 31.3986 4.75821 32.0237 5.39584C32.6488 6.03346 33 6.89826 33 7.8V31.6C33 32.5017 32.6488 33.3665 32.0237 34.0042C31.3986 34.6418 30.5507 35 29.6667 35H6.33333C5.44928 35 4.60143 34.6418 3.97631 34.0042C3.35119 33.3665 3 32.5017 3 31.6V7.8C3 6.89826 3.35119 6.03346 3.97631 5.39584C4.60143 4.75821 5.44928 4.4 6.33333 4.4H8V1H11.3333V4.4H24.6667V1H28V4.4H29.6667ZM29.6667 31.6V12.9H6.33333V31.6H29.6667Z" fill="#7B24FF"/>
</svg>
