<svg width="36" height="36" viewBox="0 0 36 36" fill="none" xmlns="http://www.w3.org/2000/svg">
<path d="M25.4311 31.5111L21.8578 25.3244C23.6 24.0444 24.8089 22.0533 25.0578 19.7778H32.2222C32.0754 22.1257 31.3857 24.4075 30.2072 26.4435C29.0288 28.4795 27.3939 30.2143 25.4311 31.5111ZM19.7778 9.16444V2C27.4222 2.46222 33.5378 8.57778 34 16.2222H26.8356C26.6364 14.4188 25.8288 12.7371 24.5459 11.4541C23.2629 10.1712 21.5812 9.36361 19.7778 9.16444ZM9.11117 18.8889C9.11117 20.0267 9.34228 21.1111 9.78673 22.0889L3.60007 25.6622C2.54072 23.562 1.9925 21.2412 2.00008 18.8889C2.00008 10.8356 8.2934 4.25778 16.2223 3.77778V10.9422C12.2223 11.3867 9.11117 14.7644 9.11117 18.8889ZM17.1112 34C11.8312 34 7.19118 31.3333 4.48896 27.2089L10.6756 23.6356C11.4158 24.6469 12.3847 25.4688 13.5031 26.0342C14.6216 26.5996 15.8579 26.8925 17.1112 26.8889C18.2489 26.8889 19.3334 26.6578 20.3111 26.2133L23.8845 32.4C21.84 33.4311 19.5467 34 17.1112 34Z" fill="#7B24FF"/>
</svg>
