<svg width="44" height="44" viewBox="0 0 44 44" fill="none" xmlns="http://www.w3.org/2000/svg">
<path d="M28.9462 17.0011C28.8076 17.0004 28.6703 17.0272 28.5423 17.0797C28.4143 17.1323 28.2982 17.2096 28.2009 17.3071L21.9147 23.5249L15.6285 17.3488C15.4303 17.2217 15.1947 17.1641 14.9594 17.1852C14.7241 17.2064 14.5028 17.305 14.331 17.4654C14.1591 17.6257 14.0467 17.8385 14.0117 18.0696C13.9766 18.3007 14.0211 18.5367 14.1378 18.7399L21.1694 25.6949C21.3671 25.8903 21.6352 26 21.9147 26C22.1942 26 22.4623 25.8903 22.66 25.6949L29.6915 18.7399C29.8891 18.5442 30 18.2791 30 18.0026C30 17.7262 29.8891 17.461 29.6915 17.2654C29.488 17.0836 29.2201 16.9886 28.9462 17.0011Z" fill="black"/>
</svg>
