<svg width="24" height="24" viewBox="0 0 24 24" fill="none" xmlns="http://www.w3.org/2000/svg">
<path d="M16.9497 16.9497C16.5592 17.3403 15.9261 17.3403 15.5355 16.9497L7.05025 8.46447C6.65972 8.07394 6.65972 7.44078 7.05025 7.05025V7.05025C7.44077 6.65973 8.07394 6.65973 8.46446 7.05025L16.9497 15.5355C17.3403 15.9261 17.3403 16.5592 16.9497 16.9497V16.9497Z" fill="black"/>
<path d="M7.05024 16.9497C6.65972 16.5592 6.65972 15.9261 7.05024 15.5355L15.5355 7.05025C15.926 6.65973 16.5592 6.65973 16.9497 7.05025V7.05025C17.3403 7.44078 17.3403 8.07394 16.9497 8.46447L8.46446 16.9497C8.07393 17.3403 7.44077 17.3403 7.05024 16.9497V16.9497Z" fill="black"/>
</svg>
