<svg width="71" height="71" viewBox="0 0 71 71" fill="none" xmlns="http://www.w3.org/2000/svg">
<path d="M53.4001 0H16.6472C7.44941 0 0 7.44941 0 16.6472V53.4001C0 62.5979 7.44941 70.0473 16.6472 70.0473H53.4001C62.5978 70.0473 70.0473 62.5979 70.0473 53.4001V16.6472C70.0093 7.44941 62.5598 0 53.4001 0ZM24.7427 49.5614C24.7427 51.8418 22.9563 53.6282 20.6759 53.6282C18.3955 53.6282 16.6091 51.8418 16.6091 49.5614V25.0848L24.7047 33.1803L24.7427 49.5614ZM49.3333 53.6282C47.0529 53.6282 45.2666 51.8418 45.2666 49.5614V33.2183L53.4001 25.0848V49.5614C53.4001 51.8418 51.6138 53.6282 49.3333 53.6282ZM52.2219 23.3364L40.7437 34.8146L35.0046 40.5537L29.2655 34.7766L17.8254 23.3364C16.2291 21.7401 16.2291 19.1936 17.8254 17.5973C19.4217 16.001 21.9682 16.001 23.5645 17.5973L35.0426 29.0755L46.5208 17.5973C48.1171 16.001 50.6636 16.001 52.2599 17.5973C53.8182 19.1936 53.8182 21.7401 52.2219 23.3364Z" fill="#0EC963"/>
<path d="M20.6088 53.5796C22.8892 53.5796 24.6755 51.7933 24.6755 49.5128L24.6375 33.1317L16.542 25.0362V49.5128C16.542 51.7933 18.3283 53.5796 20.6088 53.5796Z" fill="white"/>
<path d="M45.1994 49.5128C45.1994 51.7933 46.9858 53.5796 49.2662 53.5796C51.5466 53.5796 53.333 51.7933 53.333 49.5128V25.0362L45.1994 33.1697V49.5128Z" fill="white"/>
<path d="M40.6766 34.766L52.1547 23.2879C53.751 21.6916 53.751 19.1451 52.1927 17.5488C50.5964 15.9525 48.05 15.9525 46.4536 17.5488L34.9755 29.027L23.4973 17.5488C21.901 15.9525 19.3545 15.9525 17.7582 17.5488C16.1619 19.1451 16.1619 21.6916 17.7582 23.2879L29.1984 34.728L34.9375 40.5051L40.6766 34.766Z" fill="white"/>
</svg>
