<svg width="72" height="71" viewBox="0 0 72 71" fill="none" xmlns="http://www.w3.org/2000/svg">
<path d="M51.5783 0H20.4504C9.69437 0 0.990723 8.70365 0.990723 19.4597V50.5876C0.990723 61.3436 9.69437 70.0473 20.4504 70.0473H51.5783C62.3343 70.0473 71.038 61.3436 71.038 50.5876V19.4597C71 8.70365 62.2963 0 51.5783 0Z" fill="#0070A8"/>
<path d="M54.2768 18.3199C44.889 8.47605 29.2681 8.32402 19.6903 17.9018C11.9368 25.6553 10.5305 37.3995 15.5475 46.5973C15.6235 46.7873 15.6995 46.9393 15.7755 47.1294C15.8895 47.5094 15.8895 47.8895 15.8515 48.2696L15.0914 53.9707C15.0914 55.4909 16.3076 56.7072 17.8279 56.7072L23.643 55.947C24.1751 55.871 24.7072 55.985 25.1633 56.2511C34.247 61.23 45.8392 59.9378 53.5927 52.3744C63.0945 43.1386 63.3985 27.8597 54.2768 18.3199Z" fill="#FF672B"/>
<path d="M36.7933 60.0516C32.6886 60.0516 28.5458 59.0254 24.7451 56.973C24.441 56.8209 24.0989 56.7449 23.7569 56.7829L17.9418 57.5431C17.9038 57.5431 17.8658 57.5431 17.8278 57.5431C15.8134 57.5431 14.1791 55.9088 14.1791 53.9324C14.1791 53.8944 14.1791 53.8564 14.1791 53.8184L14.9392 48.1173C14.9772 47.8132 14.9772 47.5852 14.9012 47.3572C14.8632 47.2431 14.8252 47.0911 14.7492 47.0151C9.46617 37.3233 11.2145 25.123 19.044 17.3315C23.7949 12.5806 30.0661 9.99609 36.7553 9.99609C36.8693 9.99609 36.9454 9.99609 37.0594 9.99609C43.8627 10.0721 50.2099 12.8466 54.9228 17.7496C64.3866 27.6314 64.0825 43.4424 54.2386 52.9822C49.4117 57.6191 43.1785 60.0516 36.7933 60.0516ZM23.9849 54.9966C24.555 54.9966 25.1251 55.1486 25.6192 55.4147C34.6269 60.3556 45.649 58.8353 53.0224 51.69C62.1441 42.8343 62.4102 28.1635 53.6685 19.0038C49.2977 14.4429 43.4066 11.8584 37.0974 11.7824C30.7882 11.7064 24.8211 14.1389 20.3742 18.5857C13.1149 25.8451 11.4806 37.1712 16.3835 46.1789C16.4975 46.407 16.6115 46.635 16.6875 46.9011C16.8016 47.3572 16.8396 47.8513 16.7635 48.3834L16.0034 54.0084C16.0414 54.9966 16.8396 55.7567 17.7897 55.7948L23.5288 55.0346C23.6809 54.9966 23.8329 54.9966 23.9849 54.9966Z" fill="white"/>
<path d="M29.3441 40.6676C29.6482 39.9454 29.8762 39.4893 30.0282 38.9952C31.5105 35.2325 32.9928 31.5078 34.4751 27.7451C34.6651 27.251 34.8932 26.7569 35.1972 26.3769C35.8813 25.4647 37.0596 25.4647 37.7437 26.3389C38.0478 26.7189 38.2378 27.137 38.4278 27.5931C39.9861 31.4698 41.5064 35.3085 43.0267 39.1853C43.1787 39.5654 43.3688 39.9454 43.6348 40.5535C43.8629 40.0214 44.0149 39.6794 44.1289 39.3373C45.5352 35.2705 46.9034 31.2418 48.3477 27.175C48.8418 25.7687 50.02 25.3127 51.1982 25.9968C51.9584 26.4529 52.2624 27.137 52.0724 27.9732C51.9964 28.3152 51.8444 28.6193 51.7303 28.9613C49.678 34.6244 47.6636 40.2875 45.6112 45.9506C45.4592 46.3686 45.3071 46.7867 45.1171 47.1288C44.433 48.231 43.1027 48.345 42.3046 47.2808C42.0005 46.8627 41.7725 46.3686 41.6204 45.9126C40.1001 42.0738 38.6179 38.2351 37.1356 34.4344C36.9835 34.0543 36.7935 33.6742 36.5655 33.1041C36.2994 33.7122 36.1094 34.1303 35.9194 34.5484C34.3991 38.3871 32.9168 42.2259 31.3965 46.0266C31.2445 46.4447 31.0924 46.8627 30.8644 47.2048C30.1803 48.269 28.774 48.307 28.0519 47.2808C27.8238 46.9387 27.6718 46.5207 27.5198 46.1026C25.4294 40.3635 23.377 34.6244 21.2866 28.8853C21.2106 28.6573 21.0965 28.3912 21.0205 28.1632C20.7545 27.023 21.2106 26.1488 22.2748 25.8067C23.377 25.4647 24.2131 25.8448 24.5932 27.023C25.8474 30.6337 27.1017 34.2443 28.3179 37.817C28.622 38.6912 28.926 39.5273 29.3441 40.6676Z" fill="white"/>
</svg>
