<svg width="336" height="424" viewBox="0 0 336 424" fill="none" xmlns="http://www.w3.org/2000/svg">
<rect width="72" height="72" rx="36" fill="#AFBECC"/>
<path d="M43.744 32.9347H40.5565C40.4656 32.4119 40.2979 31.9489 40.0536 31.5455C39.8093 31.1364 39.5053 30.7898 39.1417 30.5057C38.7781 30.2216 38.3633 30.0085 37.8974 29.8665C37.4371 29.7188 36.94 29.6449 36.4059 29.6449C35.457 29.6449 34.6161 29.8835 33.8832 30.3608C33.1502 30.8324 32.5763 31.5256 32.1616 32.4403C31.7468 33.3494 31.5394 34.4602 31.5394 35.7727C31.5394 37.108 31.7468 38.233 32.1616 39.1477C32.582 40.0568 33.1559 40.7443 33.8832 41.2102C34.6161 41.6705 35.4542 41.9006 36.3974 41.9006C36.9201 41.9006 37.4087 41.8324 37.8633 41.696C38.3235 41.554 38.7354 41.3466 39.0991 41.0739C39.4684 40.8011 39.7781 40.4659 40.0281 40.0682C40.2837 39.6705 40.4599 39.2159 40.5565 38.7045L43.744 38.7216C43.6246 39.5511 43.3661 40.3295 42.9684 41.0568C42.5763 41.7841 42.0621 42.4261 41.4258 42.983C40.7894 43.5341 40.0451 43.9659 39.1928 44.2784C38.3406 44.5852 37.3945 44.7386 36.3548 44.7386C34.8207 44.7386 33.4513 44.3835 32.2468 43.6733C31.0423 42.9631 30.0934 41.9375 29.4002 40.5966C28.707 39.2557 28.3604 37.6477 28.3604 35.7727C28.3604 33.892 28.7099 32.2841 29.4087 30.9489C30.1076 29.608 31.0593 28.5824 32.2638 27.8722C33.4684 27.1619 34.832 26.8068 36.3548 26.8068C37.3263 26.8068 38.2298 26.9432 39.065 27.2159C39.9002 27.4886 40.6445 27.8892 41.2979 28.4176C41.9513 28.9403 42.4883 29.5824 42.9087 30.3438C43.3349 31.0994 43.6133 31.9631 43.744 32.9347Z" fill="#1F2D3A"/>
<rect x="88" width="72" height="72" rx="36" fill="#AFBECC"/>
<path d="M121.63 37.3835C121.63 35.2528 121.911 33.2955 122.473 31.5114C123.042 29.7216 123.885 28.0682 125.005 26.5511H127.911C127.479 27.1136 127.076 27.804 126.701 28.6222C126.326 29.4347 125.999 30.3267 125.721 31.2983C125.448 32.2642 125.232 33.267 125.073 34.3068C124.919 35.3466 124.843 36.3722 124.843 37.3835C124.843 38.7301 124.976 40.0937 125.243 41.4744C125.516 42.8551 125.882 44.1335 126.343 45.3097C126.809 46.4915 127.331 47.4574 127.911 48.2074H125.005C123.885 46.6903 123.042 45.0398 122.473 43.2557C121.911 41.4659 121.63 39.5085 121.63 37.3835Z" fill="#1F2D3A"/>
<rect x="176" width="72" height="72" rx="36" fill="#AFBECC"/>
<path d="M214.368 37.3835C214.368 39.5085 214.084 41.4659 213.516 43.2557C212.953 45.0398 212.113 46.6903 210.993 48.2074H208.087C208.525 47.6449 208.928 46.9574 209.297 46.1449C209.672 45.3324 209.996 44.4403 210.269 43.4688C210.547 42.4972 210.763 41.4915 210.917 40.4517C211.076 39.4119 211.155 38.3892 211.155 37.3835C211.155 36.0369 211.019 34.6733 210.746 33.2926C210.479 31.9119 210.113 30.6307 209.647 29.4489C209.186 28.267 208.667 27.3011 208.087 26.5511H210.993C212.113 28.0682 212.953 29.7216 213.516 31.5114C214.084 33.2955 214.368 35.2528 214.368 37.3835Z" fill="#1F2D3A"/>
<rect x="264" width="72" height="72" rx="36" fill="#AFBECC"/>
<path d="M304.037 43.5284L294.039 33.5483L295.966 31.6136L305.954 41.6108L304.037 43.5284ZM295.966 43.5284L294.039 41.6108L304.037 31.6136L305.954 33.5483L295.966 43.5284Z" fill="#1F2D3A"/>
<rect y="88" width="72" height="72" rx="36" fill="#263646"/>
<path d="M31.1474 132.5L38.5707 117.807V117.688H29.9542V115.045H41.8434V117.747L34.4286 132.5H31.1474Z" fill="white"/>
<rect x="88" y="88" width="72" height="72" rx="36" fill="#263646"/>
<path d="M124.01 132.739C122.743 132.739 121.618 132.526 120.635 132.099C119.657 131.673 118.89 131.091 118.333 130.352C117.782 129.608 117.51 128.764 117.515 127.821C117.51 127.088 117.669 126.415 117.993 125.801C118.316 125.188 118.754 124.676 119.305 124.267C119.862 123.852 120.481 123.588 121.163 123.474V123.355C120.265 123.156 119.538 122.699 118.981 121.983C118.43 121.261 118.157 120.429 118.163 119.486C118.157 118.588 118.407 117.787 118.913 117.082C119.419 116.378 120.112 115.824 120.993 115.42C121.873 115.011 122.879 114.807 124.01 114.807C125.129 114.807 126.126 115.011 127.001 115.42C127.882 115.824 128.575 116.378 129.081 117.082C129.592 117.787 129.848 118.588 129.848 119.486C129.848 120.429 129.566 121.261 129.004 121.983C128.447 122.699 127.728 123.156 126.848 123.355V123.474C127.529 123.588 128.143 123.852 128.689 124.267C129.24 124.676 129.677 125.188 130.001 125.801C130.331 126.415 130.495 127.088 130.495 127.821C130.495 128.764 130.217 129.608 129.66 130.352C129.103 131.091 128.336 131.673 127.359 132.099C126.387 132.526 125.271 132.739 124.01 132.739ZM124.01 130.301C124.663 130.301 125.231 130.19 125.714 129.969C126.197 129.741 126.572 129.423 126.839 129.014C127.106 128.605 127.243 128.134 127.248 127.599C127.243 127.043 127.098 126.551 126.814 126.125C126.535 125.693 126.152 125.355 125.663 125.111C125.18 124.866 124.629 124.744 124.01 124.744C123.385 124.744 122.828 124.866 122.339 125.111C121.85 125.355 121.464 125.693 121.18 126.125C120.902 126.551 120.765 127.043 120.771 127.599C120.765 128.134 120.896 128.605 121.163 129.014C121.43 129.418 121.805 129.733 122.288 129.96C122.777 130.187 123.35 130.301 124.01 130.301ZM124.01 122.349C124.544 122.349 125.015 122.241 125.424 122.026C125.839 121.81 126.166 121.509 126.404 121.122C126.643 120.736 126.765 120.29 126.771 119.784C126.765 119.284 126.646 118.847 126.413 118.472C126.18 118.091 125.856 117.798 125.441 117.594C125.027 117.384 124.549 117.278 124.01 117.278C123.458 117.278 122.973 117.384 122.552 117.594C122.137 117.798 121.814 118.091 121.581 118.472C121.353 118.847 121.243 119.284 121.248 119.784C121.243 120.29 121.356 120.736 121.589 121.122C121.828 121.503 122.154 121.804 122.569 122.026C122.99 122.241 123.47 122.349 124.01 122.349Z" fill="white"/>
<rect x="176" y="88" width="72" height="72" rx="36" fill="#263646"/>
<path d="M211.83 114.807C212.665 114.812 213.477 114.96 214.267 115.25C215.063 115.534 215.778 116 216.415 116.648C217.051 117.29 217.557 118.151 217.932 119.23C218.307 120.31 218.494 121.645 218.494 123.236C218.5 124.736 218.341 126.077 218.017 127.259C217.699 128.435 217.241 129.429 216.645 130.241C216.048 131.054 215.33 131.673 214.489 132.099C213.648 132.526 212.702 132.739 211.651 132.739C210.548 132.739 209.571 132.523 208.719 132.091C207.872 131.659 207.188 131.068 206.665 130.318C206.142 129.568 205.821 128.71 205.702 127.744H208.812C208.972 128.437 209.295 128.989 209.784 129.398C210.278 129.801 210.901 130.003 211.651 130.003C212.861 130.003 213.793 129.477 214.446 128.426C215.099 127.375 215.426 125.915 215.426 124.045H215.307C215.028 124.545 214.668 124.977 214.224 125.341C213.781 125.699 213.278 125.974 212.716 126.168C212.159 126.361 211.568 126.457 210.943 126.457C209.92 126.457 209 126.213 208.182 125.724C207.369 125.236 206.724 124.565 206.247 123.713C205.776 122.861 205.537 121.886 205.531 120.79C205.531 119.653 205.793 118.634 206.315 117.73C206.844 116.821 207.58 116.105 208.523 115.582C209.466 115.054 210.568 114.795 211.83 114.807ZM211.838 117.364C211.224 117.364 210.67 117.514 210.176 117.815C209.688 118.111 209.301 118.514 209.017 119.026C208.739 119.531 208.599 120.097 208.599 120.722C208.605 121.341 208.744 121.903 209.017 122.409C209.295 122.915 209.673 123.315 210.151 123.611C210.634 123.906 211.185 124.054 211.804 124.054C212.264 124.054 212.693 123.966 213.091 123.79C213.489 123.614 213.835 123.369 214.131 123.057C214.432 122.739 214.665 122.378 214.83 121.974C215 121.571 215.082 121.145 215.077 120.696C215.077 120.099 214.935 119.548 214.651 119.043C214.372 118.537 213.989 118.131 213.5 117.824C213.017 117.517 212.463 117.364 211.838 117.364Z" fill="white"/>
<rect x="264" y="88" width="72" height="72" rx="36" fill="#AFBECC"/>
<path d="M305.792 124.293V126.858H294.201V124.293H305.792ZM299.997 132.074C299.474 132.074 299.028 131.892 298.659 131.528C298.295 131.159 298.113 130.713 298.113 130.19C298.113 129.679 298.295 129.241 298.659 128.878C299.028 128.514 299.474 128.332 299.997 128.332C300.508 128.332 300.946 128.514 301.309 128.878C301.673 129.241 301.855 129.679 301.855 130.19C301.855 130.713 301.673 131.159 301.309 131.528C300.946 131.892 300.508 132.074 299.997 132.074ZM299.997 122.81C299.65 122.81 299.332 122.727 299.042 122.562C298.758 122.392 298.531 122.165 298.36 121.881C298.196 121.591 298.113 121.273 298.113 120.926C298.113 120.415 298.295 119.977 298.659 119.614C299.028 119.25 299.474 119.068 299.997 119.068C300.508 119.068 300.946 119.25 301.309 119.614C301.673 119.977 301.855 120.415 301.855 120.926C301.855 121.443 301.673 121.886 301.309 122.256C300.946 122.625 300.508 122.81 299.997 122.81Z" fill="#1F2D3A"/>
<rect y="176" width="72" height="72" rx="36" fill="#263646"/>
<path d="M29.2436 217.261V214.747L36.6499 203.045H38.7464V206.625H37.468L32.4822 214.526V214.662H42.8203V217.261H29.2436ZM37.5703 220.5V216.494L37.6044 215.369V203.045H40.5874V220.5H37.5703Z" fill="white"/>
<rect x="88" y="176" width="72" height="72" rx="36" fill="#263646"/>
<path d="M124.026 220.739C122.889 220.739 121.872 220.526 120.974 220.099C120.077 219.668 119.364 219.077 118.835 218.327C118.313 217.577 118.034 216.719 118 215.753H121.068C121.125 216.469 121.435 217.054 121.997 217.509C122.56 217.957 123.236 218.182 124.026 218.182C124.645 218.182 125.196 218.04 125.679 217.756C126.162 217.472 126.543 217.077 126.821 216.571C127.099 216.065 127.236 215.489 127.23 214.841C127.236 214.182 127.097 213.597 126.812 213.085C126.528 212.574 126.139 212.173 125.645 211.884C125.151 211.588 124.582 211.44 123.94 211.44C123.418 211.435 122.903 211.531 122.398 211.73C121.892 211.929 121.491 212.19 121.196 212.514L118.341 212.045L119.253 203.045H129.378V205.688H121.869L121.366 210.315H121.469C121.793 209.935 122.25 209.619 122.841 209.369C123.432 209.114 124.08 208.986 124.784 208.986C125.841 208.986 126.784 209.236 127.614 209.736C128.443 210.23 129.097 210.912 129.574 211.781C130.051 212.651 130.29 213.645 130.29 214.764C130.29 215.918 130.023 216.946 129.489 217.849C128.96 218.747 128.224 219.455 127.281 219.972C126.344 220.483 125.259 220.739 124.026 220.739Z" fill="white"/>
<rect x="176" y="176" width="72" height="72" rx="36" fill="#263646"/>
<path d="M212.162 220.739C211.327 220.733 210.511 220.588 209.716 220.304C208.92 220.014 208.205 219.545 207.568 218.898C206.932 218.244 206.426 217.378 206.051 216.298C205.676 215.213 205.491 213.869 205.497 212.267C205.497 210.773 205.656 209.44 205.974 208.27C206.293 207.099 206.75 206.111 207.347 205.304C207.943 204.491 208.662 203.872 209.503 203.446C210.349 203.02 211.295 202.807 212.341 202.807C213.438 202.807 214.409 203.023 215.256 203.455C216.108 203.886 216.795 204.477 217.318 205.227C217.841 205.972 218.165 206.812 218.29 207.75H215.179C215.02 207.08 214.693 206.545 214.199 206.148C213.71 205.744 213.091 205.543 212.341 205.543C211.131 205.543 210.199 206.068 209.545 207.119C208.898 208.17 208.571 209.614 208.565 211.449H208.685C208.963 210.949 209.324 210.52 209.767 210.162C210.21 209.804 210.71 209.528 211.267 209.335C211.83 209.136 212.423 209.037 213.048 209.037C214.071 209.037 214.989 209.281 215.801 209.77C216.619 210.259 217.267 210.932 217.744 211.79C218.222 212.642 218.457 213.619 218.452 214.722C218.457 215.869 218.196 216.901 217.668 217.815C217.139 218.724 216.403 219.44 215.46 219.963C214.517 220.486 213.418 220.744 212.162 220.739ZM212.145 218.182C212.764 218.182 213.318 218.031 213.807 217.73C214.295 217.429 214.682 217.023 214.966 216.511C215.25 216 215.389 215.426 215.384 214.79C215.389 214.165 215.253 213.599 214.974 213.094C214.702 212.588 214.324 212.187 213.841 211.892C213.358 211.597 212.807 211.449 212.188 211.449C211.727 211.449 211.298 211.537 210.901 211.713C210.503 211.889 210.156 212.134 209.861 212.446C209.565 212.753 209.332 213.111 209.162 213.52C208.997 213.923 208.912 214.355 208.906 214.815C208.912 215.423 209.054 215.983 209.332 216.494C209.611 217.006 209.994 217.415 210.483 217.722C210.972 218.028 211.526 218.182 212.145 218.182Z" fill="white"/>
<rect x="264" y="176" width="72" height="72" rx="36" fill="#AFBECC"/>
<path d="M298.659 219.469V207.673H301.335V219.469H298.659ZM294.099 214.909V212.233H305.895V214.909H294.099Z" fill="#1F2D3A"/>
<rect y="264" width="72" height="72" rx="36" fill="#263646"/>
<path d="M38.8849 291.045V308.5H35.723V294.122H35.6207L31.5384 296.73V293.832L35.8764 291.045H38.8849Z" fill="white"/>
<rect x="88" y="264" width="72" height="72" rx="36" fill="#263646"/>
<path d="M118.098 308.5V306.216L124.158 300.276C124.737 299.69 125.22 299.17 125.607 298.716C125.993 298.261 126.283 297.821 126.476 297.395C126.669 296.969 126.766 296.514 126.766 296.031C126.766 295.48 126.641 295.009 126.391 294.616C126.141 294.219 125.797 293.912 125.359 293.696C124.922 293.48 124.425 293.372 123.868 293.372C123.294 293.372 122.791 293.491 122.359 293.73C121.928 293.963 121.592 294.295 121.354 294.727C121.121 295.159 121.004 295.673 121.004 296.27H117.996C117.996 295.162 118.249 294.199 118.754 293.381C119.26 292.562 119.956 291.929 120.842 291.48C121.734 291.031 122.757 290.807 123.911 290.807C125.081 290.807 126.109 291.026 126.996 291.463C127.882 291.901 128.57 292.5 129.058 293.261C129.553 294.023 129.8 294.892 129.8 295.869C129.8 296.523 129.675 297.165 129.425 297.795C129.175 298.426 128.734 299.125 128.104 299.892C127.479 300.659 126.601 301.588 125.47 302.679L122.462 305.739V305.858H130.064V308.5H118.098Z" fill="white"/>
<rect x="176" y="264" width="72" height="72" rx="36" fill="#263646"/>
<path d="M211.999 308.739C210.772 308.739 209.681 308.528 208.726 308.108C207.777 307.687 207.027 307.102 206.476 306.352C205.925 305.602 205.632 304.736 205.598 303.753H208.803C208.831 304.224 208.988 304.636 209.272 304.989C209.556 305.335 209.934 305.605 210.405 305.798C210.877 305.991 211.405 306.088 211.99 306.088C212.615 306.088 213.169 305.98 213.652 305.764C214.135 305.543 214.513 305.236 214.786 304.844C215.059 304.452 215.192 304 215.186 303.489C215.192 302.96 215.056 302.494 214.777 302.091C214.499 301.687 214.096 301.372 213.567 301.145C213.044 300.918 212.414 300.804 211.675 300.804H210.132V298.366H211.675C212.283 298.366 212.814 298.261 213.269 298.051C213.729 297.841 214.09 297.545 214.351 297.165C214.613 296.778 214.74 296.332 214.735 295.827C214.74 295.332 214.63 294.903 214.402 294.54C214.181 294.17 213.865 293.884 213.456 293.679C213.053 293.474 212.578 293.372 212.033 293.372C211.499 293.372 211.005 293.469 210.55 293.662C210.096 293.855 209.729 294.131 209.451 294.489C209.172 294.841 209.025 295.261 209.007 295.75H205.965C205.988 294.773 206.269 293.915 206.809 293.176C207.354 292.432 208.081 291.852 208.99 291.438C209.9 291.017 210.919 290.807 212.05 290.807C213.215 290.807 214.226 291.026 215.084 291.463C215.948 291.895 216.615 292.477 217.087 293.21C217.559 293.943 217.794 294.753 217.794 295.639C217.8 296.622 217.51 297.446 216.925 298.111C216.346 298.776 215.584 299.21 214.641 299.415V299.551C215.868 299.722 216.809 300.176 217.462 300.915C218.121 301.648 218.448 302.56 218.442 303.651C218.442 304.628 218.164 305.503 217.607 306.276C217.056 307.043 216.294 307.645 215.323 308.082C214.357 308.52 213.249 308.739 211.999 308.739Z" fill="white"/>
<rect x="264" y="264" width="72" height="72" rx="36" fill="#AFBECC"/>
<path d="M303.93 299.96V302.5H296.072V299.96H303.93Z" fill="#1F2D3A"/>
<rect y="352" width="160" height="72" rx="36" fill="#263646"/>
<path d="M79.9989 396.832C78.5955 396.832 77.391 396.477 76.3853 395.767C75.3853 395.051 74.6154 394.02 74.0756 392.673C73.5415 391.321 73.2745 389.693 73.2745 387.79C73.2802 385.886 73.5501 384.267 74.0842 382.932C74.6239 381.591 75.3938 380.568 76.3938 379.864C77.3995 379.159 78.6012 378.807 79.9989 378.807C81.3967 378.807 82.5984 379.159 83.604 379.864C84.6097 380.568 85.3796 381.591 85.9137 382.932C86.4535 384.273 86.7234 385.892 86.7234 387.79C86.7234 389.699 86.4535 391.33 85.9137 392.682C85.3796 394.028 84.6097 395.057 83.604 395.767C82.604 396.477 81.4023 396.832 79.9989 396.832ZM79.9989 394.165C81.0898 394.165 81.9506 393.628 82.5813 392.554C83.2177 391.474 83.5359 389.886 83.5359 387.79C83.5359 386.403 83.391 385.239 83.1012 384.295C82.8114 383.352 82.4023 382.642 81.8739 382.165C81.3455 381.682 80.7205 381.44 79.9989 381.44C78.9137 381.44 78.0558 381.98 77.4251 383.06C76.7944 384.134 76.4762 385.71 76.4705 387.79C76.4648 389.182 76.604 390.352 76.8881 391.301C77.1779 392.25 77.587 392.966 78.1154 393.449C78.6438 393.926 79.2717 394.165 79.9989 394.165Z" fill="white"/>
<rect x="176" y="352" width="72" height="72" rx="36" fill="#263646"/>
<path d="M212.005 396.688C211.488 396.688 211.045 396.506 210.676 396.142C210.306 395.778 210.125 395.335 210.13 394.812C210.125 394.301 210.306 393.864 210.676 393.5C211.045 393.136 211.488 392.955 212.005 392.955C212.505 392.955 212.94 393.136 213.309 393.5C213.684 393.864 213.875 394.301 213.88 394.812C213.875 395.159 213.784 395.474 213.608 395.759C213.437 396.043 213.21 396.27 212.926 396.44C212.647 396.605 212.341 396.688 212.005 396.688Z" fill="white"/>
<rect x="264" y="352" width="72" height="72" rx="36" fill="#FF9100"/>
<path d="M294.329 388.165V385.531H305.673V388.165H294.329ZM294.329 393.619V390.986H305.673V393.619H294.329Z" fill="white"/>
</svg>
