<svg width="20" height="20" viewBox="0 0 18 18" fill="none" xmlns="http://www.w3.org/2000/svg">
<path d="M16.6198 9.80156C16.5115 9.6931 16.3758 9.61616 16.2272 9.579C16.0785 9.54184 15.9226 9.54586 15.776 9.59062C14.7523 9.89966 13.664 9.92523 12.627 9.66462C11.5899 9.40401 10.643 8.86698 9.88701 8.11073C9.13105 7.35448 8.59438 6.40733 8.33416 5.37018C8.07395 4.33303 8.09994 3.24472 8.40937 2.22117C8.45451 2.07457 8.45883 1.91844 8.42187 1.76957C8.38491 1.62069 8.30806 1.48471 8.1996 1.37625C8.09113 1.26778 7.95515 1.19094 7.80628 1.15398C7.65741 1.11702 7.50128 1.12134 7.35468 1.16648C5.81511 1.63968 4.46405 2.58648 3.49382 3.87211C2.64536 4.99984 2.12795 6.34171 1.99965 7.74713C1.87135 9.15255 2.13723 10.5659 2.76746 11.8287C3.39769 13.0914 4.36734 14.1535 5.56759 14.8958C6.76785 15.6382 8.15122 16.0313 9.56249 16.0312C11.2102 16.036 12.8139 15.5003 14.1279 14.5062C15.4128 13.535 16.3587 12.1832 16.8307 10.6432C16.8751 10.497 16.8789 10.3414 16.8417 10.1932C16.8046 10.045 16.7278 9.90959 16.6198 9.80156ZM13.1126 13.1583C11.9753 14.0145 10.567 14.4311 9.14694 14.3314C7.72688 14.2318 6.39059 13.6226 5.38398 12.616C4.37738 11.6094 3.76821 10.2731 3.66857 8.85305C3.56893 7.43299 3.98553 6.02472 4.84171 4.88742C5.29219 4.29146 5.85053 3.78536 6.48772 3.39539C6.47507 3.57539 6.46874 3.75609 6.46874 3.9375C6.47097 5.9508 7.27174 7.881 8.69536 9.30462C10.119 10.7282 12.0492 11.529 14.0625 11.5312C14.2439 11.5312 14.4246 11.5249 14.6046 11.5123C14.2148 12.1496 13.7086 12.7079 13.1126 13.1583Z" fill="#758195"/>
</svg>
