<svg width="20" height="20" viewBox="0 0 18 18" fill="none" xmlns="http://www.w3.org/2000/svg">
<path d="M16.5614 10.5616C16.1072 12.0445 15.1968 13.3463 13.9598 14.2819C12.8738 15.0992 11.5815 15.5977 10.228 15.7214C8.87439 15.8451 7.51313 15.5891 6.29697 14.9821C5.08081 14.3751 4.0579 13.4412 3.34304 12.2852C2.62818 11.1291 2.24967 9.79671 2.25 8.43749C2.24517 6.85101 2.76091 5.30674 3.71813 4.04156C4.65366 2.80461 5.95549 1.89424 7.43836 1.43999C7.5361 1.4099 7.64018 1.40702 7.73943 1.43166C7.83868 1.4563 7.92933 1.50753 8.00164 1.57984C8.07395 1.65215 8.12518 1.7428 8.14982 1.84205C8.17446 1.9413 8.17158 2.04538 8.14149 2.14312C7.81724 3.21569 7.79005 4.35613 8.06282 5.44293C8.3356 6.52973 8.89812 7.52216 9.69044 8.31448C10.4828 9.1068 11.4752 9.66932 12.562 9.94209C13.6488 10.2149 14.7892 10.1877 15.8618 9.86343C15.9595 9.83334 16.0636 9.83046 16.1629 9.8551C16.2621 9.87974 16.3528 9.93096 16.4251 10.0033C16.4974 10.0756 16.5486 10.1662 16.5733 10.2655C16.5979 10.3647 16.595 10.4688 16.5649 10.5666L16.5614 10.5616Z" fill="#758195"/>
</svg>
