<svg width="64" height="64" viewBox="0 0 64 64" fill="none" xmlns="http://www.w3.org/2000/svg">
<g clip-path="url(#clip0_234_4863)">
<g filter="url(#filter0_d_234_4863)">
<path d="M32 62C48.5685 62 62 48.5685 62 32C62 15.4315 48.5685 2 32 2C15.4315 2 2 15.4315 2 32C2 48.5685 15.4315 62 32 62Z" fill="black"/>
</g>
<path d="M32 62C48.5685 62 62 48.5685 62 32C62 15.4315 48.5685 2 32 2C15.4315 2 2 15.4315 2 32C2 48.5685 15.4315 62 32 62Z" stroke="#BABABA" stroke-opacity="0.5"/>
<path d="M32 62C48.5685 62 62 48.5685 62 32C62 15.4315 48.5685 2 32 2C15.4315 2 2 15.4315 2 32C2 48.5685 15.4315 62 32 62Z" fill="url(#paint0_linear_234_4863)"/>
<g filter="url(#filter1_d_234_4863)">
<path d="M4.375 32.0181C4.375 44.2501 12.2827 54.5813 23.2636 58.2443C24.6448 58.4865 25.1628 57.6572 25.1628 56.9321C25.1628 56.2749 25.1283 54.0984 25.1283 51.7832C18.1875 53.0609 16.3919 50.0891 15.8394 48.5346C15.5286 47.7399 14.1819 45.2866 13.0078 44.6299C12.0409 44.1114 10.6597 42.8332 12.9733 42.7987C15.1487 42.7642 16.7027 44.8026 17.2206 45.6319C19.7069 49.8128 23.678 48.6387 25.2664 47.9125C25.5081 46.1158 26.2333 44.9056 27.0275 44.215C20.8809 43.5244 14.4581 41.1402 14.4581 30.5672C14.4581 27.5603 15.5286 25.0725 17.2897 23.1377C17.0134 22.4471 16.0466 19.6134 17.5659 15.8117C17.5659 15.8117 19.8795 15.0866 25.1628 18.6454C27.3728 18.0239 29.7209 17.7126 32.0691 17.7126C34.4172 17.7126 36.7653 18.0239 38.9753 18.6454C44.2586 15.0521 46.5722 15.8123 46.5722 15.8123C48.0916 19.6128 47.1247 22.446 46.8484 23.1372C48.6095 25.072 49.68 27.5253 49.68 30.5662C49.68 41.1742 43.2227 43.5233 37.0761 44.215C38.0775 45.0788 38.9408 46.7374 38.9408 49.3288C38.9408 53.0263 38.9062 55.9976 38.9062 56.931C38.9062 57.6562 39.4242 58.5195 40.8055 58.2432C51.7173 54.5818 59.625 44.2161 59.625 32.0186C59.625 16.7446 47.2628 4.375 32 4.375C16.7372 4.375 4.375 16.7452 4.375 32.0181Z" fill="black"/>
</g>
<path d="M4.375 32.0181C4.375 44.2501 12.2827 54.5813 23.2636 58.2443C24.6448 58.4865 25.1628 57.6572 25.1628 56.9321C25.1628 56.2749 25.1283 54.0984 25.1283 51.7832C18.1875 53.0609 16.3919 50.0891 15.8394 48.5346C15.5286 47.7399 14.1819 45.2866 13.0078 44.6299C12.0409 44.1114 10.6597 42.8332 12.9733 42.7987C15.1487 42.7642 16.7027 44.8026 17.2206 45.6319C19.7069 49.8128 23.678 48.6387 25.2664 47.9125C25.5081 46.1158 26.2333 44.9056 27.0275 44.215C20.8809 43.5244 14.4581 41.1402 14.4581 30.5672C14.4581 27.5603 15.5286 25.0725 17.2897 23.1377C17.0134 22.4471 16.0466 19.6134 17.5659 15.8117C17.5659 15.8117 19.8795 15.0866 25.1628 18.6454C27.3728 18.0239 29.7209 17.7126 32.0691 17.7126C34.4172 17.7126 36.7653 18.0239 38.9753 18.6454C44.2586 15.0521 46.5722 15.8123 46.5722 15.8123C48.0916 19.6128 47.1247 22.446 46.8484 23.1372C48.6095 25.072 49.68 27.5253 49.68 30.5662C49.68 41.1742 43.2227 43.5233 37.0761 44.215C38.0775 45.0788 38.9408 46.7374 38.9408 49.3288C38.9408 53.0263 38.9062 55.9976 38.9062 56.931C38.9062 57.6562 39.4242 58.5195 40.8055 58.2432C51.7173 54.5818 59.625 44.2161 59.625 32.0186C59.625 16.7446 47.2628 4.375 32 4.375C16.7372 4.375 4.375 16.7452 4.375 32.0181Z" fill="url(#paint1_linear_234_4863)"/>
<g filter="url(#filter2_i_234_4863)">
<path d="M4.375 32.0181C4.375 44.2501 12.2827 54.5813 23.2636 58.2443C24.6448 58.4865 25.1628 57.6572 25.1628 56.9321C25.1628 56.2749 25.1283 54.0984 25.1283 51.7832C18.1875 53.0609 16.3919 50.0891 15.8394 48.5346C15.5286 47.7399 14.1819 45.2866 13.0078 44.6299C12.0409 44.1114 10.6597 42.8332 12.9733 42.7987C15.1487 42.7642 16.7027 44.8026 17.2206 45.6319C19.7069 49.8128 23.678 48.6387 25.2664 47.9125C25.5081 46.1158 26.2333 44.9056 27.0275 44.215C20.8809 43.5244 14.4581 41.1402 14.4581 30.5672C14.4581 27.5603 15.5286 25.0725 17.2897 23.1377C17.0134 22.4471 16.0466 19.6134 17.5659 15.8117C17.5659 15.8117 19.8795 15.0866 25.1628 18.6454C27.3728 18.0239 29.7209 17.7126 32.0691 17.7126C34.4172 17.7126 36.7653 18.0239 38.9753 18.6454C44.2586 15.0521 46.5722 15.8123 46.5722 15.8123C48.0916 19.6128 47.1247 22.446 46.8484 23.1372C48.6095 25.072 49.68 27.5253 49.68 30.5662C49.68 41.1742 43.2227 43.5233 37.0761 44.215C38.0775 45.0788 38.9408 46.7374 38.9408 49.3288C38.9408 53.0263 38.9062 55.9976 38.9062 56.931C38.9062 57.6562 39.4242 58.5195 40.8055 58.2432C51.7173 54.5818 59.625 44.2161 59.625 32.0186C59.625 16.7446 47.2628 4.375 32 4.375C16.7372 4.375 4.375 16.7452 4.375 32.0181Z" fill="url(#paint2_linear_234_4863)"/>
</g>
</g>
<defs>
<filter id="filter0_d_234_4863" x="-2" y="0" width="68" height="68" filterUnits="userSpaceOnUse" color-interpolation-filters="sRGB">
<feFlood flood-opacity="0" result="BackgroundImageFix"/>
<feColorMatrix in="SourceAlpha" type="matrix" values="0 0 0 0 0 0 0 0 0 0 0 0 0 0 0 0 0 0 127 0" result="hardAlpha"/>
<feOffset dy="2"/>
<feGaussianBlur stdDeviation="2"/>
<feComposite in2="hardAlpha" operator="out"/>
<feColorMatrix type="matrix" values="0 0 0 0 0 0 0 0 0 0 0 0 0 0 0 0 0 0 0.240942 0"/>
<feBlend mode="normal" in2="BackgroundImageFix" result="effect1_dropShadow_234_4863"/>
<feBlend mode="normal" in="SourceGraphic" in2="effect1_dropShadow_234_4863" result="shape"/>
</filter>
<filter id="filter1_d_234_4863" x="4.375" y="4.375" width="55.25" height="54.921" filterUnits="userSpaceOnUse" color-interpolation-filters="sRGB">
<feFlood flood-opacity="0" result="BackgroundImageFix"/>
<feColorMatrix in="SourceAlpha" type="matrix" values="0 0 0 0 0 0 0 0 0 0 0 0 0 0 0 0 0 0 127 0" result="hardAlpha"/>
<feOffset dy="1"/>
<feColorMatrix type="matrix" values="0 0 0 0 1 0 0 0 0 1 0 0 0 0 1 0 0 0 0.529297 0"/>
<feBlend mode="normal" in2="BackgroundImageFix" result="effect1_dropShadow_234_4863"/>
<feBlend mode="normal" in="SourceGraphic" in2="effect1_dropShadow_234_4863" result="shape"/>
</filter>
<filter id="filter2_i_234_4863" x="4.375" y="4.375" width="55.25" height="53.921" filterUnits="userSpaceOnUse" color-interpolation-filters="sRGB">
<feFlood flood-opacity="0" result="BackgroundImageFix"/>
<feBlend mode="normal" in="SourceGraphic" in2="BackgroundImageFix" result="shape"/>
<feColorMatrix in="SourceAlpha" type="matrix" values="0 0 0 0 0 0 0 0 0 0 0 0 0 0 0 0 0 0 127 0" result="hardAlpha"/>
<feOffset/>
<feGaussianBlur stdDeviation="1"/>
<feComposite in2="hardAlpha" operator="arithmetic" k2="-1" k3="1"/>
<feColorMatrix type="matrix" values="0 0 0 0 0.258824 0 0 0 0 0.137255 0 0 0 0 0.431373 0 0 0 0.70355 0"/>
<feBlend mode="normal" in2="shape" result="effect1_innerShadow_234_4863"/>
</filter>
<linearGradient id="paint0_linear_234_4863" x1="3002" y1="2" x2="3002" y2="6002" gradientUnits="userSpaceOnUse">
<stop stop-color="#FEFEFE"/>
<stop offset="1" stop-color="#E0E0E0"/>
</linearGradient>
<linearGradient id="paint1_linear_234_4863" x1="2766.88" y1="5396.47" x2="2766.88" y2="4.375" gradientUnits="userSpaceOnUse">
<stop stop-color="#492779"/>
<stop offset="1" stop-color="#892793"/>
</linearGradient>
<linearGradient id="paint2_linear_234_4863" x1="32" y1="4.375" x2="32" y2="58.296" gradientUnits="userSpaceOnUse">
<stop stop-color="#80268F"/>
<stop offset="1" stop-color="#482577"/>
</linearGradient>
<clipPath id="clip0_234_4863">
<rect width="64" height="64" fill="white"/>
</clipPath>
</defs>
</svg>
