<svg width="36" height="36" viewBox="0 0 40 40" fill="none" xmlns="http://www.w3.org/2000/svg">
<path fill-rule="evenodd" clip-rule="evenodd" d="M7 11.5C7 11.1022 7.1284 10.7206 7.35696 10.4393C7.58552 10.158 7.89552 10 8.21875 10H31.7812C32.1045 10 32.4145 10.158 32.643 10.4393C32.8716 10.7206 33 11.1022 33 11.5C33 11.8978 32.8716 12.2794 32.643 12.5607C32.4145 12.842 32.1045 13 31.7812 13H8.21875C7.89552 13 7.58552 12.842 7.35696 12.5607C7.1284 12.2794 7 11.8978 7 11.5ZM7 20C7 19.6022 7.1284 19.2206 7.35696 18.9393C7.58552 18.658 7.89552 18.5 8.21875 18.5H31.7812C32.1045 18.5 32.4145 18.658 32.643 18.9393C32.8716 19.2206 33 19.6022 33 20C33 20.3978 32.8716 20.7794 32.643 21.0607C32.4145 21.342 32.1045 21.5 31.7812 21.5H8.21875C7.89552 21.5 7.58552 21.342 7.35696 21.0607C7.1284 20.7794 7 20.3978 7 20ZM8.21875 27C7.89552 27 7.58552 27.158 7.35696 27.4393C7.1284 27.7206 7 28.1022 7 28.5C7 28.8978 7.1284 29.2794 7.35696 29.5607C7.58552 29.842 7.89552 30 8.21875 30H31.7812C32.1045 30 32.4145 29.842 32.643 29.5607C32.8716 29.2794 33 28.8978 33 28.5C33 28.1022 32.8716 27.7206 32.643 27.4393C32.4145 27.158 32.1045 27 31.7812 27H8.21875Z" fill="#758195"/>
</svg>
