<svg width="36" height="36" viewBox="0 0 40 40" fill="none" xmlns="http://www.w3.org/2000/svg">
<path d="M29.557 10.4582C29.4167 10.3175 29.25 10.206 29.0665 10.1298C28.8829 10.0537 28.6862 10.0145 28.4875 10.0145C28.2889 10.0145 28.0921 10.0537 27.9086 10.1298C27.7251 10.206 27.5584 10.3175 27.4181 10.4582L20 17.8611L12.5819 10.443C12.4415 10.3025 12.2748 10.1911 12.0913 10.1151C11.9078 10.0391 11.7111 10 11.5125 10C11.3138 10 11.1172 10.0391 10.9337 10.1151C10.7502 10.1911 10.5834 10.3025 10.443 10.443C10.3025 10.5834 10.1911 10.7502 10.1151 10.9337C10.0391 11.1172 10 11.3138 10 11.5125C10 11.7111 10.0391 11.9078 10.1151 12.0913C10.1911 12.2748 10.3025 12.4415 10.443 12.5819L17.8611 20L10.443 27.4181C10.3025 27.5585 10.1911 27.7252 10.1151 27.9087C10.0391 28.0922 10 28.2889 10 28.4875C10 28.6862 10.0391 28.8828 10.1151 29.0663C10.1911 29.2498 10.3025 29.4166 10.443 29.557C10.5834 29.6975 10.7502 29.8089 10.9337 29.8849C11.1172 29.9609 11.3138 30 11.5125 30C11.7111 30 11.9078 29.9609 12.0913 29.8849C12.2748 29.8089 12.4415 29.6975 12.5819 29.557L20 22.1389L27.4181 29.557C27.5585 29.6975 27.7252 29.8089 27.9087 29.8849C28.0922 29.9609 28.2889 30 28.4875 30C28.6862 30 28.8828 29.9609 29.0663 29.8849C29.2498 29.8089 29.4166 29.6975 29.557 29.557C29.6975 29.4166 29.8089 29.2498 29.8849 29.0663C29.9609 28.8828 30 28.6862 30 28.4875C30 28.2889 29.9609 28.0922 29.8849 27.9087C29.8089 27.7252 29.6975 27.5585 29.557 27.4181L22.1389 20L29.557 12.5819C30.1335 12.0055 30.1335 11.0346 29.557 10.4582Z" fill="#758195"/>
</svg>
