<svg width="24" height="24" viewBox="0 0 24 24" fill="none" xmlns="http://www.w3.org/2000/svg">
<path fill-rule="evenodd" clip-rule="evenodd" d="M12 20C12.5523 20 13 20.4477 13 21V23C13 23.5523 12.5523 24 12 24V24C11.4477 24 11 23.5523 11 23V21C11 20.4477 11.4477 20 12 20V20ZM16.9497 17.9497C17.3403 17.5592 17.9734 17.5592 18.3639 17.9497L19.7782 19.364C20.1687 19.7545 20.1687 20.3876 19.7782 20.7782V20.7782C19.3876 21.1687 18.7545 21.1687 18.364 20.7782L16.9497 19.3639C16.5592 18.9734 16.5592 18.3403 16.9497 17.9497V17.9497ZM5.63603 17.9497C6.02656 17.5592 6.65973 17.5592 7.05025 17.9497V17.9497C7.44077 18.3403 7.44078 18.9734 7.05025 19.3639L5.63603 20.7782C5.2455 21.1687 4.61234 21.1687 4.22181 20.7782V20.7782C3.83129 20.3876 3.83129 19.7545 4.22181 19.364L5.63603 17.9497ZM12 7.53219C15.0198 7.53219 17.4678 9.98019 17.4678 13C17.4678 16.0198 15.0198 18.4678 12 18.4678C11.2816 18.4692 10.57 18.3287 9.90595 18.0544C9.24194 17.7801 8.63863 17.3774 8.13062 16.8694C7.62261 16.3614 7.2199 15.7581 6.94559 15.0941C6.67129 14.4301 6.53078 13.7184 6.53214 13C6.53214 9.98019 8.98019 7.53219 12 7.53219ZM12 10.5322C12 9.97987 11.543 9.51763 11.0135 9.67451C9.57881 10.0996 8.53216 11.4282 8.53216 13.0038C8.53129 13.459 8.6203 13.9098 8.79407 14.3305C8.96784 14.7511 9.22296 15.1333 9.5448 15.4552C9.95765 15.868 10.4641 16.1657 11.0153 16.3274C11.5445 16.4828 12 16.0213 12 15.4697V10.5322ZM22 12C22.5523 12 23 12.4477 23 13V13C23 13.5523 22.5523 14 22 14H20C19.4477 14 19 13.5523 19 13V13C19 12.4477 19.4477 12 20 12H22ZM3.99998 12C4.55227 12 4.99998 12.4477 4.99998 13V13C4.99998 13.5523 4.55227 14 3.99998 14H2C1.44772 14 1 13.5523 1 13V13C1 12.4477 1.44772 12 2 12H3.99998ZM4.22181 5.22181C4.61234 4.83129 5.2455 4.83129 5.63603 5.22181L7.05025 6.63603C7.44078 7.02656 7.44077 7.65973 7.05025 8.05025V8.05025C6.65973 8.44077 6.02656 8.44078 5.63603 8.05025L4.22181 6.63603C3.83129 6.2455 3.83129 5.61234 4.22181 5.22181V5.22181ZM18.364 5.2218C18.7545 4.83128 19.3877 4.83129 19.7782 5.22182V5.22182C20.1687 5.61234 20.1687 6.24549 19.7782 6.63601L18.3639 8.05025C17.9734 8.44078 17.3403 8.44078 16.9497 8.05025V8.05025C16.5592 7.65973 16.5592 7.02656 16.9497 6.63603L18.364 5.2218ZM11.9999 2C12.5522 2 13 2.44772 13 3V4.99998C13 5.55227 12.5522 5.99998 11.9999 5.99998V5.99998C11.4477 5.99998 10.9999 5.55227 10.9999 4.99998V3C10.9999 2.44772 11.4477 2 11.9999 2V2Z" fill="#758195"/>
</svg>
