<svg width="64" height="64" viewBox="0 0 64 64" fill="none" xmlns="http://www.w3.org/2000/svg">
<g clip-path="url(#clip0_234_4879)">
<path d="M49 0H15C6.71573 0 0 6.71573 0 15V49C0 57.2843 6.71573 64 15 64H49C57.2843 64 64 57.2843 64 49V15C64 6.71573 57.2843 0 49 0Z" fill="#00005B"/>
<path d="M13.5 45.67V18.2033C13.5 18.0168 13.58 17.91 13.7668 17.91C14.22 17.91 14.6468 17.91 15.26 17.8832C15.9 17.8567 16.5668 17.8567 17.2868 17.83C18.0068 17.8032 18.78 17.8033 19.6068 17.7768C20.4333 17.75 21.2333 17.75 22.0333 17.75C24.22 17.75 26.0333 18.0167 27.5268 18.5767C28.8654 19.0313 30.086 19.7782 31.1 20.7633C31.9593 21.6254 32.6232 22.6621 33.0467 23.8032C33.4467 24.9232 33.66 26.07 33.66 27.27C33.66 29.5633 33.1268 31.4568 32.06 32.95C30.9933 34.4433 29.5 35.5633 27.7668 36.2033C25.9533 36.87 23.9533 37.11 21.7668 37.11C21.1268 37.11 20.7 37.11 20.4333 37.0832C20.1668 37.0567 19.7933 37.0568 19.2868 37.0568V45.6167C19.3133 45.8032 19.18 45.9633 18.9932 45.99H13.82C13.6067 45.99 13.5 45.8832 13.5 45.6432V45.67ZM19.3132 23.0833V32.0433C19.6867 32.07 20.0333 32.0967 20.3533 32.0967H21.7668C22.8068 32.0967 23.8468 31.9368 24.8333 31.6168C25.6868 31.3768 26.4333 30.87 27.02 30.2033C27.58 29.5368 27.8468 28.63 27.8468 27.4568C27.8718 26.6234 27.659 25.8001 27.2332 25.0833C26.78 24.39 26.14 23.8567 25.3668 23.5632C24.38 23.1632 23.3132 23.0033 22.22 23.03C21.5267 23.03 20.9132 23.03 20.4067 23.0567C19.8732 23.03 19.5 23.0568 19.3132 23.0833ZM37.5 24.6567H42.1668C42.4335 24.6567 42.6467 24.8433 42.7267 25.0833C42.8067 25.2968 42.86 25.51 42.8867 25.75C42.94 26.0168 42.9935 26.31 43.02 26.5767C43.0468 26.87 43.0735 27.19 43.0735 27.5368C43.8741 26.6019 44.8417 25.8242 45.9268 25.2432C47.1535 24.55 48.5667 24.2033 49.98 24.2033C50.1667 24.1768 50.3268 24.31 50.3535 24.4967V29.8032C50.3535 30.0167 50.22 30.0968 49.9268 30.0968C48.9668 30.07 47.98 30.15 47.0467 30.3633C46.2735 30.5233 45.5268 30.7633 44.8068 31.0833C44.3 31.3233 43.82 31.6432 43.4468 32.07V45.67C43.4468 45.9367 43.34 46.0433 43.1 46.0433H37.8467C37.6335 46.07 37.4467 45.9368 37.42 45.7233V30.8433C37.42 30.2033 37.42 29.5368 37.3935 28.8433C37.3668 28.15 37.3668 27.4568 37.34 26.7633C37.34 26.15 37.2868 25.5633 37.2335 24.95C37.2068 24.8168 37.2867 24.6832 37.42 24.6567C37.42 24.63 37.4735 24.63 37.5 24.6567Z" fill="#9999FF"/>
</g>
<defs>
<clipPath id="clip0_234_4879">
<rect width="64" height="64" fill="white"/>
</clipPath>
</defs>
</svg>
