<svg width="64" height="64" viewBox="0 0 64 64" fill="none" xmlns="http://www.w3.org/2000/svg">
<g clip-path="url(#clip0_234_4852)">
<path d="M9.81464 8.12844C9.30186 8.12844 8.83203 8.34475 8.51329 8.69922C8.22612 8.99936 8.0476 9.40765 8.03467 9.85165V9.96964C8.04036 10.1803 8.08175 10.3779 8.15575 10.5596C8.15885 10.5756 8.16558 10.5885 8.17127 10.6046C8.22922 10.7417 8.30218 10.869 8.3948 10.9875C8.42636 11.0325 8.46207 11.0739 8.50036 11.1117C8.50775 11.1223 8.51625 11.132 8.52571 11.1407L14.1994 17.8773L16.2479 20.3089L22.3815 27.5888L24.43 30.0168L29.9215 36.5371L31.9664 38.9651V55.997C33.1254 55.9999 34.2396 55.55 35.0716 54.7431C35.0752 54.7431 35.0752 54.7431 35.0752 54.7395L35.678 54.0217L50.4077 36.5371L55.4496 30.5498C55.4749 30.5245 55.4972 30.4955 55.52 30.467C55.6281 30.333 55.714 30.1824 55.7776 30.0168C55.8578 29.8192 55.8992 29.6023 55.8992 29.3721V9.90909C55.8992 9.43974 55.7171 9.00868 55.4175 8.69612C55.2519 8.51604 55.0505 8.37253 54.8262 8.27478C54.602 8.17702 54.3598 8.12718 54.1151 8.12844H9.81464Z" fill="black"/>
<path d="M9.81464 8.12844C9.30186 8.12844 8.83203 8.34475 8.51329 8.69922C8.22612 8.99936 8.0476 9.40765 8.03467 9.85165V9.96964C8.04036 10.1803 8.08175 10.3779 8.15575 10.5596C8.15885 10.5756 8.16558 10.5885 8.17127 10.6046C8.22922 10.7417 8.30218 10.869 8.3948 10.9875C8.42636 11.0325 8.46207 11.0739 8.50036 11.1117C8.50775 11.1223 8.51625 11.132 8.52571 11.1407L14.1994 17.8773L16.2479 20.3089L22.3815 27.5888L24.43 30.0168L29.9215 36.5371L31.9664 38.9651V55.997C33.1254 55.9999 34.2396 55.55 35.0716 54.7431C35.0752 54.7431 35.0752 54.7431 35.0752 54.7395L35.678 54.0217L50.4077 36.5371L55.4496 30.5498C55.4749 30.5245 55.4972 30.4955 55.52 30.467C55.6281 30.333 55.714 30.1824 55.7776 30.0168C55.8578 29.8192 55.8992 29.6023 55.8992 29.3721V9.90909C55.8992 9.43974 55.7171 9.00868 55.4175 8.69612C55.2519 8.51604 55.0505 8.37253 54.8262 8.27478C54.602 8.17702 54.3598 8.12718 54.1151 8.12844H9.81464Z" fill="url(#paint0_linear_234_4852)"/>
<path d="M31.967 48.715V55.997C30.8083 55.9981 29.6947 55.5482 28.8618 54.7426C28.8587 54.7426 28.8587 54.7426 28.8587 54.74L28.2559 54.0218L13.5262 36.5371L8.51329 30.5851C8.50048 30.5777 8.49034 30.5665 8.48432 30.553L8.40463 30.4609C8.39842 30.4542 8.39428 30.4479 8.38911 30.4412C8.29085 30.312 8.21221 30.1691 8.15575 30.0169C8.0812 29.831 8.0402 29.6334 8.03467 29.4332V29.3121C8.03467 29.2738 8.03777 29.235 8.0445 29.1967C8.07917 28.7951 8.25147 28.437 8.51329 28.1565C8.67944 27.9774 8.88078 27.8345 9.10471 27.7369C9.32864 27.6392 9.57033 27.5888 9.81464 27.5889H14.1647L16.2101 30.0169L21.7016 36.5371L30.706 47.2247L31.9633 48.7181L31.967 48.715Z" fill="#FCD1CA"/>
<path d="M31.967 38.9667V48.714L31.9638 48.7171L30.7075 47.2242L21.7032 36.5382L16.2106 30.0185L14.1647 27.5889L8.48018 20.8451C8.33994 20.6878 8.22948 20.5063 8.15419 20.3095C8.08071 20.1216 8.04027 19.9223 8.03467 19.7206V19.6005C8.04638 19.1708 8.2169 18.7606 8.51329 18.4491C8.67818 18.2681 8.87918 18.1237 9.10334 18.0252C9.32749 17.9267 9.5698 17.8764 9.81464 17.8773H14.2004L16.2494 20.3095L22.3826 27.5889L24.4285 30.0185L29.921 36.5377L31.967 38.9667Z" fill="#FF9D8D"/>
</g>
<defs>
<linearGradient id="paint0_linear_234_4852" x1="4847.33" y1="-636.56" x2="700.3" y2="3556.43" gradientUnits="userSpaceOnUse">
<stop stop-color="#FF6660"/>
<stop offset="1" stop-color="#FB4444"/>
</linearGradient>
<clipPath id="clip0_234_4852">
<rect width="48" height="48" fill="white" transform="translate(8 8)"/>
</clipPath>
</defs>
</svg>
