<svg width="64" height="64" viewBox="0 0 64 64" fill="none" xmlns="http://www.w3.org/2000/svg">
<path d="M58.0201 10.06L46.4881 4.50796C45.8369 4.19336 45.104 4.08942 44.3911 4.21056C43.6782 4.33171 43.0207 4.67194 42.5101 5.18396L4.76006 39.6C4.30204 40.0156 4.02787 40.5961 3.99787 41.2138C3.96786 41.8316 4.18447 42.4359 4.60006 42.894C4.64939 42.9473 4.70072 42.9986 4.75406 43.048L7.83606 45.848C8.23878 46.2145 8.75717 46.4284 9.30119 46.4525C9.8452 46.4766 10.3805 46.3094 10.8141 45.98L56.2841 11.5C56.6275 11.2393 57.0369 11.0798 57.4661 11.0392C57.8953 10.9986 58.3273 11.0787 58.7135 11.2703C59.0997 11.4619 59.4248 11.7576 59.6521 12.1239C59.8794 12.4903 59.9999 12.9128 60.0001 13.344V13.21C59.9995 12.5519 59.8135 11.9072 59.4633 11.3501C59.1131 10.7929 58.6129 10.3458 58.0201 10.06Z" fill="#0065A9"/>
<path d="M58.0201 53.94L46.4881 59.494C45.8366 59.8072 45.104 59.9103 44.3915 59.7892C43.6789 59.6681 43.0215 59.3288 42.5101 58.818L4.76006 24.4C4.30204 23.9844 4.02787 23.4039 3.99787 22.7862C3.96786 22.1684 4.18447 21.5641 4.60006 21.106C4.64939 21.0527 4.70072 21.0014 4.75406 20.952L7.83606 18.152C8.23919 17.784 8.75877 17.5691 9.30412 17.545C9.84948 17.5209 10.386 17.689 10.8201 18.02L56.2841 52.5C56.6275 52.7607 57.0369 52.9202 57.4661 52.9608C57.8953 53.0014 58.3273 52.9213 58.7135 52.7297C59.0997 52.5381 59.4248 52.2424 59.6521 51.8761C59.8794 51.5097 59.9999 51.0872 60.0001 50.656V50.8C59.9977 51.4564 59.8107 52.0989 59.4606 52.6542C59.1105 53.2094 58.6113 53.655 58.0201 53.94Z" fill="#007ACC"/>
<path d="M46.488 59.494C45.8365 59.8071 45.1039 59.9102 44.3914 59.7891C43.6788 59.668 43.0214 59.3287 42.51 58.818C42.7972 59.1014 43.1616 59.2938 43.5577 59.371C43.9538 59.4482 44.3639 59.4068 44.7365 59.252C45.1092 59.0972 45.4278 58.8358 45.6526 58.5007C45.8773 58.1655 45.9982 57.7715 46 57.368V6.63197C46.0003 6.22654 45.8803 5.83014 45.6551 5.49298C45.43 5.15581 45.1099 4.89306 44.7353 4.73799C44.3607 4.58293 43.9485 4.54253 43.5509 4.62193C43.1533 4.70132 42.7883 4.89692 42.502 5.18397C43.0124 4.67162 43.6697 4.33102 44.3826 4.20951C45.0956 4.088 45.8286 4.19162 46.48 4.50597L58.01 10.05C58.6046 10.3343 59.1069 10.7809 59.459 11.3382C59.811 11.8954 59.9985 12.5408 60 13.2V50.8C59.9996 51.4586 59.8135 52.1038 59.4629 52.6614C59.1123 53.219 58.6114 53.6663 58.018 53.952L46.488 59.494Z" fill="#1F9CF0"/>
</svg>
