<svg width="1500" height="377" viewBox="0 0 1500 377" fill="none" xmlns="http://www.w3.org/2000/svg">
<path d="M177.041 105.526C177.041 104.614 177.78 103.875 178.692 103.875H223.275C224.187 103.875 224.926 104.614 224.926 105.526V309.451C224.926 310.363 224.187 311.102 223.275 311.102H178.692C177.78 311.102 177.041 310.363 177.041 309.451V105.526Z" fill="#646464"/>
<path d="M212.559 157.085L209.806 146.677C209.054 143.834 206.482 141.854 203.541 141.854H195.671H184.392C181.451 141.854 178.879 143.834 178.127 146.677L175.374 157.085C173.22 165.229 173.22 173.793 175.374 181.937L178.127 192.346C178.879 195.189 181.451 197.169 184.392 197.169H195.671H203.541C206.482 197.169 209.054 195.189 209.806 192.346L212.559 181.937C214.713 173.793 214.713 165.229 212.559 157.085Z" fill="#1A1A1A"/>
<path d="M206.711 156.962L203.737 145.834C202.979 142.999 200.411 141.027 197.477 141.027H189.069H180.547C177.613 141.027 175.045 142.999 174.287 145.834L171.313 156.962C169.115 165.184 169.115 173.838 171.313 182.059L174.287 193.187C175.045 196.022 177.613 197.994 180.547 197.994H189.069H197.477C200.411 197.994 202.979 196.022 203.737 193.187L206.711 182.059C208.908 173.838 208.908 165.184 206.711 156.962Z" fill="#3A3A3A"/>
<path d="M205.886 156.962L202.912 145.834C202.154 142.999 199.586 141.027 196.652 141.027H188.244H179.722C176.787 141.027 174.219 142.999 173.462 145.834L170.488 156.962C168.29 165.184 168.29 173.838 170.488 182.059L173.462 193.187C174.219 196.022 176.787 197.994 179.722 197.994H188.244H196.652C199.586 197.994 202.154 196.022 202.912 193.187L205.886 182.059C208.083 173.838 208.083 165.184 205.886 156.962Z" fill="#2C2C2C"/>
<path d="M187.456 194.909H190.417C193.074 194.909 195.402 193.125 196.092 190.559C198.107 183.062 198.107 175.166 196.092 167.67C195.402 165.103 193.074 163.319 190.417 163.319H187.456H184.431C181.773 163.319 179.446 165.103 178.756 167.67C176.74 175.166 176.74 183.062 178.756 190.559C179.446 193.125 181.773 194.909 184.431 194.909H187.456Z" fill="#1A1A1A"/>
<path d="M193.444 172.814L193.308 172.304C192.915 170.826 191.578 169.798 190.049 169.798H188.287C187.09 169.798 186.043 170.603 185.735 171.76L185.455 172.814C184.359 176.935 184.41 181.277 185.602 185.371L185.689 185.669C186.025 186.824 187.084 187.618 188.287 187.618H190.301C191.688 187.618 192.909 186.702 193.297 185.371C194.489 181.277 194.54 176.935 193.444 172.814Z" fill="#4B4B4B"/>
<path d="M178.919 200.579C165.959 275.909 162.16 310.761 187.447 307.527C212.733 304.293 193.141 239.798 193.141 197.994" stroke="#282828" stroke-width="4.22871"/>
<path d="M181.812 175.025L187.054 171.531C187.559 171.194 188.154 171.014 188.761 171.014C189.928 171.014 190.994 171.673 191.515 172.716L191.837 173.358C192.131 173.947 192.284 174.596 192.284 175.255V181.734C192.284 182.405 192.109 183.065 191.776 183.649L191.317 184.452C190.913 185.158 190.162 185.594 189.349 185.594C188.43 185.594 187.601 186.149 187.252 187L181.563 200.869C181.438 201.173 181.119 201.35 180.795 201.296L177.152 200.689C176.781 200.627 176.524 200.285 176.568 199.911L178.972 179.653C179.195 177.769 180.234 176.077 181.812 175.025Z" fill="#F1F1F1"/>
<rect x="179.518" y="158.365" width="14.8609" height="3.30242" rx="1.65121" fill="#248EFF"/>
<path opacity="0.35" d="M217.496 103.875H224.927V311.102H217.496V103.875Z" fill="black"/>
<mask id="mask0_4619_27601" style="mask-type:alpha" maskUnits="userSpaceOnUse" x="168" y="141" width="40" height="57">
<path d="M205.886 156.962L202.912 145.834C202.154 142.999 199.586 141.027 196.652 141.027H188.244H179.722C176.787 141.027 174.219 142.999 173.462 145.834L170.488 156.962C168.29 165.184 168.29 173.838 170.488 182.059L173.462 193.187C174.219 196.022 176.787 197.994 179.722 197.994H188.244H196.652C199.586 197.994 202.154 196.022 202.912 193.187L205.886 182.059C208.083 173.838 208.083 165.184 205.886 156.962Z" fill="#2C2C2C"/>
</mask>
<g mask="url(#mask0_4619_27601)">
<rect opacity="0.08" x="193.966" y="125.341" width="5.83422" height="61.9205" transform="rotate(30 193.966 125.341)" fill="white"/>
</g>
<path d="M287.672 121.213H335.557V311.102H287.672V121.213Z" fill="#FA7030"/>
<path d="M287.672 105.495C287.672 104.6 288.397 103.875 289.292 103.875H333.937C334.832 103.875 335.557 104.6 335.557 105.495V121.213H287.672V105.495Z" fill="#EFEFEF"/>
<path d="M322.65 157.006L319.928 146.769C319.173 143.93 316.603 141.954 313.665 141.954H305.775H297.774C294.837 141.954 292.267 143.93 291.512 146.769L288.79 157.006C286.614 165.189 286.614 173.799 288.79 181.982L291.512 192.219C292.267 195.058 294.837 197.034 297.774 197.034H305.775H313.665C316.603 197.034 319.173 195.058 319.928 192.219L322.65 181.982C324.825 173.799 324.825 165.189 322.65 157.006Z" fill="#CACACA"/>
<path d="M318.599 157.006L315.877 146.769C315.122 143.93 312.552 141.954 309.615 141.954H301.724H293.723C290.786 141.954 288.216 143.93 287.461 146.769L284.739 157.006C282.563 165.189 282.563 173.799 284.739 181.982L287.461 192.219C288.216 195.058 290.786 197.034 293.723 197.034H301.724H309.615C312.552 197.034 315.122 195.058 315.877 192.219L318.599 181.982C320.774 173.799 320.774 165.189 318.599 157.006Z" fill="#EFEFEF"/>
<path d="M311.304 159.834L310.199 155.679C309.443 152.841 306.874 150.865 303.936 150.865H298.877H293.732C290.795 150.865 288.225 152.841 287.47 155.679L286.364 159.834C284.185 168.022 284.185 176.638 286.364 184.827L287.47 188.981C288.225 191.82 290.795 193.795 293.732 193.795H298.877H303.936C306.874 193.795 309.443 191.82 310.199 188.981L311.304 184.827C313.483 176.638 313.483 168.022 311.304 159.834Z" fill="#2C2C2C"/>
<path d="M296.435 188.124H299.396C302.054 188.124 304.381 186.34 305.071 183.773C307.087 176.277 307.087 168.381 305.071 160.885C304.381 158.318 302.054 156.534 299.396 156.534H296.435H293.41C290.752 156.534 288.425 158.318 287.735 160.885C285.72 168.381 285.72 176.277 287.735 183.773C288.425 186.34 290.752 188.124 293.41 188.124H296.435Z" fill="#1A1A1A"/>
<path d="M302.425 166.03L302.289 165.519C301.896 164.042 300.558 163.014 299.03 163.014H297.267C296.07 163.014 295.023 163.819 294.715 164.975L294.435 166.03C293.339 170.151 293.39 174.493 294.583 178.586L294.669 178.885C295.006 180.04 296.064 180.834 297.267 180.834H299.282C300.669 180.834 301.889 179.918 302.277 178.586C303.469 174.493 303.521 170.151 302.425 166.03Z" fill="#4B4B4B"/>
<path d="M287.899 193.795C274.939 269.125 271.14 303.977 296.426 300.743C321.712 297.509 302.884 238.839 302.884 197.035" stroke="#696969" stroke-width="4.22871"/>
<path d="M290.793 168.24L296.034 164.746C296.54 164.408 297.134 164.229 297.742 164.229C298.908 164.229 299.974 164.887 300.496 165.93L300.817 166.573C301.111 167.162 301.265 167.811 301.265 168.47V174.948C301.265 175.62 301.089 176.28 300.756 176.864L300.297 177.667C299.894 178.373 299.143 178.809 298.33 178.809C297.41 178.809 296.582 179.364 296.233 180.215L290.543 194.083C290.418 194.388 290.1 194.565 289.775 194.511L286.133 193.904C285.762 193.842 285.505 193.5 285.549 193.126L287.952 172.868C288.176 170.984 289.214 169.292 290.793 168.24Z" fill="#F1F1F1"/>
<rect x="292.76" y="151.674" width="9.72001" height="1.62" rx="0.81" fill="#53BDFF"/>
<path opacity="0.35" d="M328.127 103.875H335.557V311.102H328.127V103.875Z" fill="black"/>
<rect width="108.98" height="231.995" transform="matrix(-1 0 0 1 502.4 65.8975)" fill="#EFEFEF"/>
<rect x="415.642" y="159.191" width="30.5474" height="15.6865" rx="1.65121" fill="#313131"/>
<path d="M463.559 72.915H399.987C399.303 72.915 398.749 73.4694 398.749 74.1533V289.637C398.749 290.32 399.303 290.875 399.987 290.875H463.559C464.242 290.875 464.797 290.32 464.797 289.637V74.1533C464.797 73.4694 464.243 72.915 463.559 72.915Z" stroke="black" stroke-opacity="0.2" stroke-width="0.825606"/>
<path d="M393.382 244.063V297.892H502.362V213.681L393.382 244.063Z" fill="#7A3A9C"/>
<rect x="399.98" y="297.893" width="67.6997" height="13.2097" fill="#414141"/>
<rect x="467.681" y="297.893" width="31.373" height="13.2097" fill="#333333"/>
<path opacity="0.25" d="M494.96 97.4992L489.153 82.7266H480.064V97.4992H494.96Z" fill="black"/>
<path opacity="0.6" d="M489.152 82.8222L494.932 97.2703V74.1533L489.152 82.8222Z" fill="black"/>
<path opacity="0.4" d="M494.96 74.1533L489.153 82.7259H480.064V74.1533H494.96Z" fill="black"/>
<path d="M411.626 212.03H414.325C416.758 212.03 418.888 210.397 419.519 208.047C421.36 201.192 421.36 193.972 419.519 187.117C418.888 184.767 416.758 183.134 414.325 183.134H411.626H408.87C406.437 183.134 404.306 184.767 403.675 187.117C401.834 193.972 401.834 201.192 403.675 208.047C404.306 210.397 406.437 212.03 408.87 212.03H411.626Z" fill="#2C2C2C"/>
<path d="M431.497 212.03H434.196C436.629 212.03 438.759 210.397 439.39 208.047C441.231 201.192 441.231 193.972 439.39 187.117C438.759 184.767 436.629 183.134 434.196 183.134H431.497H428.741C426.308 183.134 424.177 184.767 423.546 187.117C421.705 193.972 421.705 201.192 423.546 208.047C424.177 210.397 426.308 212.03 428.741 212.03H431.497Z" fill="#2C2C2C"/>
<path d="M451.255 212.03H453.953C456.387 212.03 458.517 210.397 459.148 208.047C460.989 201.192 460.989 193.972 459.148 187.117C458.517 184.767 456.387 183.134 453.953 183.134H451.255H448.499C446.065 183.134 443.935 184.767 443.304 187.117C441.463 193.972 441.463 201.192 443.304 208.047C443.935 210.397 446.065 212.03 448.499 212.03H451.255Z" fill="#2C2C2C"/>
<path d="M409.554 207.901H411.433C413.264 207.901 414.866 206.668 415.334 204.898C416.672 199.832 416.672 194.505 415.334 189.439C414.866 187.669 413.264 186.436 411.433 186.436H409.554H407.632C405.801 186.436 404.2 187.669 403.732 189.439C402.393 194.505 402.393 199.832 403.732 204.898C404.2 206.668 405.801 207.901 407.632 207.901H409.554Z" fill="#1A1A1A"/>
<path d="M429.425 207.901H431.304C433.135 207.901 434.737 206.668 435.205 204.898C436.543 199.832 436.543 194.505 435.205 189.439C434.737 187.669 433.135 186.436 431.304 186.436H429.425H427.503C425.672 186.436 424.071 187.669 423.603 189.439C422.264 194.505 422.264 199.832 423.603 204.898C424.071 206.668 425.672 207.901 427.503 207.901H429.425Z" fill="#1A1A1A"/>
<path d="M449.184 207.901H451.063C452.894 207.901 454.496 206.668 454.963 204.898C456.302 199.832 456.302 194.505 454.963 189.439C454.496 187.669 452.894 186.436 451.063 186.436H449.184H447.262C445.431 186.436 443.83 187.669 443.362 189.439C442.023 194.505 442.023 199.832 443.362 204.898C443.83 206.668 445.431 207.901 447.262 207.901H449.184Z" fill="#1A1A1A"/>
<path d="M415.71 153.932L423.116 123.757L446.223 123.575V153.932H415.71Z" fill="#313131"/>
<path d="M425.162 146.286L428.596 131.577H445.125L441.973 146.286H425.162Z" fill="#7D7D7D"/>
<path opacity="0.1" d="M423.114 123.757L415.71 153.932V112.665L423.114 123.757Z" fill="black"/>
<path opacity="0.15" d="M415.71 112.665L423.116 123.757L446.223 123.575V112.665H415.71Z" fill="black"/>
<path d="M485.437 84.4736C485.437 161.063 471.016 299.722 530.878 308.477C542.848 310.227 499.508 311.102 464.835 311.102C379.806 311.102 379.756 292.573 398.337 219.047" stroke="#262633" stroke-width="4.12803" stroke-linecap="round"/>
<path d="M402.005 192.897L407.289 190.25C407.961 189.914 408.703 189.738 409.455 189.738H410.077C411.066 189.738 412.008 190.162 412.663 190.903C413.222 191.534 413.53 192.348 413.53 193.191V200.645C413.53 201.432 413.325 202.205 412.934 202.888L412.397 203.829C411.924 204.656 411.044 205.167 410.092 205.167C409.015 205.167 408.044 205.817 407.636 206.814L400.97 223.06C400.824 223.416 400.451 223.624 400.071 223.561L395.804 222.85C395.369 222.777 395.068 222.376 395.12 221.938L397.867 198.79C398.167 196.255 399.722 194.041 402.005 192.897Z" fill="#D9D9D9"/>
<path d="M485.437 84.4736C485.437 161.063 471.055 299.722 530.879 308.477C542.841 310.227 499.529 311.102 464.878 311.102C379.902 311.102 411.138 260.913 418.151 221.524" stroke="#262633" stroke-width="4.12803" stroke-linecap="round"/>
<path d="M430.305 189.738C431.293 189.738 432.234 190.162 432.889 190.902C433.448 191.534 433.757 192.348 433.757 193.191V200.468C433.757 201.344 433.38 202.177 432.722 202.756C432.166 203.245 431.442 203.516 430.701 203.516C429.408 203.516 428.236 204.316 427.78 205.526L421.186 223.034C421.047 223.403 420.667 223.622 420.278 223.558L416.031 222.85C415.904 222.828 415.789 222.777 415.69 222.706L411.189 222.031C409.659 221.801 408.581 220.407 408.745 218.868L410.68 200.684L410.704 200.508C410.851 199.638 411.388 198.878 412.169 198.452L420.871 193.706C420.943 193.667 421.017 193.633 421.092 193.603C421.447 193.337 421.827 193.1 422.231 192.897L427.515 190.251C428.188 189.914 428.93 189.738 429.681 189.738H430.305ZM414.715 201.766L412.974 218.125L415.749 218.541L417.949 200L414.715 201.766Z" fill="#3D4A55"/>
<path d="M485.437 84.4736C485.437 161.063 470.881 299.722 530.873 308.477C542.869 310.227 499.435 311.102 464.687 311.102C413.806 311.102 430.52 260.5 437.553 221.111" stroke="#262633" stroke-width="4.12803" stroke-linecap="square"/>
<path d="M441.634 192.897L446.918 190.25C447.59 189.914 448.332 189.738 449.084 189.738H449.706C450.695 189.738 451.636 190.162 452.292 190.903C452.851 191.534 453.159 192.348 453.159 193.191V200.468C453.159 201.344 452.782 202.177 452.125 202.756C451.568 203.245 450.845 203.515 450.104 203.515C448.811 203.515 447.639 204.316 447.183 205.526L440.589 223.034C440.45 223.403 440.069 223.623 439.68 223.558L435.433 222.85C434.998 222.777 434.697 222.376 434.749 221.938L437.495 198.79C437.796 196.255 439.351 194.041 441.634 192.897Z" fill="#098AF5"/>
<path d="M441.261 195.518L432.559 200.264C432.321 200.394 432.162 200.632 432.133 200.901L430.199 219.086C430.152 219.526 430.46 219.925 430.897 219.99L438.371 221.111" stroke="#098AF5" stroke-width="4.12803" stroke-linecap="round"/>
<rect opacity="0.2" width="30.5474" height="231.995" transform="matrix(-1 0 0 1 502.4 65.8975)" fill="black"/>
<rect width="82.5606" height="245.205" transform="matrix(-1 0 0 1 668.311 65.8975)" fill="#F7F7F7"/>
<path opacity="0.8" d="M604.137 160.443L611.942 115.837H648.972V160.443H604.137Z" fill="black"/>
<path d="M615.478 139.376L618.27 122.864H643.549L640.692 139.376H615.478Z" fill="#7D7D7D"/>
<path opacity="0.1" d="M611.983 116.057L604.134 160.445V105.241L611.983 116.057Z" fill="black"/>
<path opacity="0.15" d="M604.137 105.241L611.942 115.839H648.972V105.241H604.137Z" fill="black"/>
<rect width="54.49" height="245.205" transform="matrix(-1 0 0 1 722.801 65.8975)" fill="#E2E2E2"/>
<rect width="41.2803" height="223.739" rx="1.65121" transform="matrix(-1 0 0 1 716.195 74.1533)" fill="#18A1E5"/>
<rect width="33.0391" height="2.23237" rx="1.11618" transform="matrix(-1 0 0 1 712.094 144.924)" fill="black" fill-opacity="0.25"/>
<rect width="33.0391" height="2.23237" rx="1.11618" transform="matrix(-1 0 0 1 712.094 151.62)" fill="black" fill-opacity="0.25"/>
<rect width="33.0391" height="2.23237" rx="1.11618" transform="matrix(-1 0 0 1 712.094 158.317)" fill="black" fill-opacity="0.25"/>
<rect width="33.0391" height="2.23237" rx="1.11618" transform="matrix(-1 0 0 1 712.094 165.015)" fill="black" fill-opacity="0.25"/>
<rect width="33.0391" height="2.23237" rx="1.11618" transform="matrix(-1 0 0 1 712.094 171.712)" fill="black" fill-opacity="0.25"/>
<rect width="33.0391" height="2.67884" rx="1.33942" transform="matrix(-1 0 0 1 712.094 178.409)" fill="black" fill-opacity="0.25"/>
<rect width="33.0391" height="2.67884" rx="1.33942" transform="matrix(-1 0 0 1 712.094 185.553)" fill="black" fill-opacity="0.25"/>
<rect width="33.0391" height="2.67884" rx="1.33942" transform="matrix(-1 0 0 1 712.094 192.695)" fill="black" fill-opacity="0.25"/>
<rect width="33.0391" height="2.23237" rx="1.11618" transform="matrix(-1 0 0 1 712.094 199.839)" fill="black" fill-opacity="0.25"/>
<path d="M613.588 213.132H616.257C618.663 213.132 620.769 211.517 621.393 209.193C623.214 202.414 623.214 195.275 621.393 188.497C620.769 186.173 618.663 184.558 616.257 184.558H613.588H610.863C608.457 184.558 606.35 186.173 605.726 188.497C603.905 195.275 603.905 202.414 605.726 209.193C606.35 211.517 608.457 213.132 610.863 213.132H613.588Z" fill="#26292E"/>
<path d="M633.24 213.132H635.908C638.314 213.132 640.421 211.517 641.045 209.193C642.866 202.414 642.866 195.275 641.045 188.497C640.421 186.173 638.314 184.558 635.908 184.558H633.24H630.514C628.108 184.558 626.001 186.173 625.377 188.497C623.556 195.275 623.556 202.414 625.377 209.193C626.001 211.517 628.108 213.132 630.514 213.132H633.24Z" fill="#26292E"/>
<path d="M611.541 209.051H613.399C615.21 209.051 616.793 207.832 617.256 206.081C618.58 201.071 618.58 195.804 617.256 190.794C616.793 189.044 615.21 187.824 613.399 187.824H611.541H609.64C607.829 187.824 606.246 189.044 605.783 190.794C604.46 195.804 604.46 201.071 605.783 206.081C606.246 207.832 607.829 209.051 609.64 209.051H611.541Z" fill="#1A1A1A"/>
<path d="M631.19 209.051H633.049C634.859 209.051 636.443 207.832 636.905 206.081C638.229 201.071 638.229 195.804 636.905 190.794C636.443 189.044 634.859 187.824 633.049 187.824H631.19H629.29C627.479 187.824 625.895 189.044 625.433 190.794C624.109 195.804 624.109 201.071 625.433 206.081C625.895 207.832 627.479 209.051 629.29 209.051H631.19Z" fill="#1A1A1A"/>
<path d="M695.556 109.654C695.556 179.623 672.318 299.848 731.514 308.505C743.35 310.237 700.493 311.102 666.206 311.102C582.123 311.102 582.708 292.634 601.082 219.927" stroke="#262633" stroke-width="4.95364" stroke-linecap="round"/>
<path d="M601.082 219.927C599.804 224.983 598.613 229.777 597.529 234.321" stroke="#03ABFF" stroke-width="4.95364" stroke-linecap="square"/>
<rect x="628.603" y="185.105" width="7.14358" height="1.7859" rx="0.892948" fill="#008CFF"/>
<rect x="608.957" y="185.105" width="7.14358" height="1.7859" rx="0.892948" fill="#008CFF"/>
<path d="M612.057 191.089C613.01 191.089 613.917 191.498 614.548 192.211C615.087 192.819 615.384 193.604 615.384 194.416V201.428C615.384 202.272 615.021 203.074 614.387 203.632C613.851 204.104 613.154 204.364 612.44 204.364C611.194 204.364 610.065 205.136 609.626 206.302L603.292 223.118C603.146 223.505 602.748 223.735 602.34 223.667L601.211 223.479C601.08 223.483 600.948 223.477 600.814 223.457L593.678 222.387C592.075 222.146 590.945 220.685 591.117 219.072L592.969 201.652L592.995 201.469C593.149 200.557 593.713 199.761 594.531 199.314L602.883 194.759L603.083 194.662C603.279 194.58 603.482 194.529 603.686 194.507C603.972 194.313 604.273 194.136 604.587 193.979L609.371 191.582C610.018 191.258 610.733 191.089 611.458 191.089H612.057ZM597.199 202.786L595.548 218.293L598.053 218.669L600.128 201.188L597.199 202.786Z" fill="#343840"/>
<path d="M660.055 74.5664H592.355C591.672 74.5664 591.117 75.1207 591.117 75.8047V296.241C591.117 296.925 591.672 297.479 592.355 297.479H660.055C660.739 297.479 661.293 296.925 661.293 296.241V75.8047C661.293 75.1635 660.806 74.6358 660.182 74.5723L660.055 74.5664Z" stroke="black" stroke-opacity="0.2" stroke-width="0.825606"/>
<path opacity="0.25" d="M702.976 117.085L698.92 107.178H690.592V117.085H702.976Z" fill="black"/>
<path opacity="0.6" d="M698.849 107.171L702.977 116.983V101.398L698.849 107.171Z" fill="black"/>
<path opacity="0.4" d="M702.976 101.398L698.92 107.178H690.592V101.398H702.976Z" fill="black"/>
<path d="M695.556 109.654C695.556 184.616 672.357 299.848 731.515 308.505C743.344 310.237 700.513 311.102 666.249 311.102C582.219 311.102 613.107 261.471 620.042 222.521" stroke="#262633" stroke-width="4.95364" stroke-linecap="square"/>
<path d="M620.666 221.111C619.388 226.168 618.196 230.962 617.113 235.505" stroke="#03ABFF" stroke-width="4.95364" stroke-linecap="square"/>
<path d="M632.059 191.089C633.036 191.089 633.967 191.508 634.615 192.24C635.168 192.864 635.473 193.669 635.473 194.503V201.699C635.473 202.565 635.1 203.389 634.45 203.961C633.9 204.445 633.184 204.713 632.451 204.713C631.173 204.713 630.014 205.505 629.564 206.701L623.064 223.959C622.914 224.356 622.504 224.592 622.086 224.522L620.928 224.329C620.794 224.334 620.658 224.328 620.522 224.308L613.198 223.209C611.553 222.962 610.394 221.462 610.569 219.808L612.472 201.93L612.497 201.741C612.655 200.806 613.234 199.989 614.073 199.531L622.646 194.855L622.85 194.757C623.05 194.672 623.259 194.619 623.467 194.597C623.761 194.397 624.069 194.216 624.392 194.055L629.302 191.596C629.967 191.263 630.7 191.089 631.443 191.089H632.059ZM616.812 203.093L615.118 219.008L617.688 219.394L619.815 201.453L616.812 203.093Z" fill="#3B3F45"/>
<rect x="792.356" y="88.1416" width="11.0797" height="222.444" fill="#B1B1B1"/>
<rect x="883.554" y="88.1416" width="11.0797" height="222.444" fill="#B1B1B1"/>
<rect x="792.411" y="78.2559" width="102.16" height="9.88639" fill="#B1B1B1"/>
<rect x="797.763" y="65.8975" width="123.581" height="12.358" fill="#5B5B5B"/>
<rect x="887.983" y="65.8975" width="37.4862" height="12.358" fill="#414141"/>
<rect x="894.57" y="78.3799" width="35.5011" height="9.90727" fill="#747474"/>
<rect x="894.57" y="88.2871" width="35.5011" height="222.088" fill="#747474"/>
<rect x="901.122" y="93.1426" width="23.9426" height="189.889" fill="#353535"/>
<rect x="901.122" y="93.1426" width="3.30242" height="189.889" fill="#2C2C2C"/>
<rect x="803.489" y="88.0547" width="80.1145" height="222.444" fill="#484848"/>
<rect x="810.948" y="197.716" width="65.9098" height="4.11933" fill="#2D2D2D"/>
<rect x="810.948" y="226.14" width="65.9098" height="4.11933" fill="#2D2D2D"/>
<rect x="810.948" y="207.189" width="65.9098" height="4.11933" fill="#2D2D2D"/>
<rect x="810.948" y="216.666" width="65.9098" height="4.11933" fill="#2D2D2D"/>
<path d="M814.243 157.837V117.309C814.243 116.898 814.576 116.564 814.988 116.564H838.94C839.087 116.564 839.231 116.608 839.353 116.689L847.011 121.795C847.133 121.876 847.276 121.92 847.423 121.92H878.379C878.79 121.92 879.123 122.253 879.123 122.664V157.837C879.123 158.248 878.79 158.582 878.379 158.582H814.988C814.576 158.582 814.243 158.248 814.243 157.837Z" fill="#1E8F33"/>
<path d="M811.359 157.837V117.309C811.359 116.898 811.693 116.564 812.104 116.564H836.056C836.203 116.564 836.347 116.608 836.469 116.689L844.127 121.795C844.249 121.876 844.393 121.92 844.54 121.92H875.495C875.906 121.92 876.239 122.253 876.239 122.664V157.837C876.239 158.248 875.906 158.582 875.495 158.582H812.104C811.693 158.582 811.359 158.248 811.359 157.837Z" fill="#4CC261"/>
<rect x="815.893" y="130.982" width="24.7162" height="16.4773" fill="#383838"/>
<rect x="818.98" y="133.454" width="18.5371" height="11.5341" fill="#7D7D7D"/>
<rect x="803.121" y="168.468" width="80.7395" height="19.3609" fill="#B1B1B1"/>
<path d="M818.867 172.66C821.898 172.66 824.356 175.117 824.356 178.148C824.356 181.18 821.899 183.638 818.867 183.638C815.836 183.637 813.379 181.18 813.379 178.148C813.379 175.117 815.836 172.66 818.867 172.66Z" fill="#3F3F3F" stroke="#4CC261" stroke-width="2.29283"/>
<path d="M837.628 172.661C840.659 172.661 843.117 175.118 843.117 178.149C843.117 181.181 840.659 183.639 837.628 183.639C834.597 183.638 832.14 181.181 832.14 178.149C832.14 175.118 834.597 172.661 837.628 172.661Z" fill="#3F3F3F" stroke="#4CC261" stroke-width="2.29283"/>
<rect x="786.362" y="290.462" width="105.678" height="20.6402" fill="#848484"/>
<rect x="892.04" y="290.462" width="44.5827" height="20.6402" fill="#616161"/>
<rect width="101.55" height="231.995" transform="matrix(-1 0 0 1 1091.1 65.8975)" fill="#EFEFEF"/>
<path d="M1002.67 176.529C1002.67 176.073 1003.04 175.703 1003.5 175.703H1052.21V235.147C1052.21 235.603 1051.84 235.972 1051.38 235.972H1003.5C1003.04 235.972 1002.67 235.603 1002.67 235.147V176.529Z" fill="#4ABDD4"/>
<path d="M1002.67 122.865C1002.67 122.409 1003.04 122.039 1003.5 122.039H1052.21V175.703C1052.21 176.159 1051.84 176.529 1051.38 176.529H1003.5C1003.04 176.529 1002.67 176.159 1002.67 175.703V122.865Z" fill="#4A4A4A"/>
<rect x="1072.02" y="181.482" width="18.9889" height="116.41" fill="#FFBB45"/>
<rect width="4.95364" height="116.41" transform="matrix(-1 0 0 1 1072.85 181.482)" fill="#D73248"/>
<rect x="1011.82" y="132.771" width="29.7218" height="19.8145" rx="0.825606" fill="#171717"/>
<rect x="1015.15" y="136.074" width="23.117" height="13.2097" rx="0.825606" fill="#7D7D7D"/>
<path d="M1059.76 72.915H996.189C995.505 72.915 994.951 73.4694 994.951 74.1533V289.637C994.951 290.32 995.506 290.875 996.189 290.875H1059.76C1060.44 290.875 1061 290.32 1061 289.637V74.1533C1061 73.4694 1060.44 72.915 1059.76 72.915Z" stroke="black" stroke-opacity="0.2" stroke-width="0.825606"/>
<rect x="996.183" y="297.893" width="67.6997" height="13.2097" fill="#9C9C9C"/>
<rect x="1063.77" y="297.893" width="23.117" height="13.2097" fill="#828282"/>
<path opacity="0.25" d="M1087.01 100.802L1081.2 86.0293H1072.11V100.802H1087.01Z" fill="black"/>
<path opacity="0.6" d="M1081.2 86.1249L1086.98 100.573V77.4561L1081.2 86.1249Z" fill="black"/>
<path opacity="0.4" d="M1087.01 77.4561L1081.2 86.0287H1072.11V77.4561H1087.01Z" fill="black"/>
<path d="M1014.43 212.03H1017.13C1019.56 212.03 1021.69 210.397 1022.33 208.047C1024.17 201.192 1024.17 193.972 1022.33 187.117C1021.69 184.767 1019.56 183.134 1017.13 183.134H1014.43H1011.68C1009.24 183.134 1007.11 184.767 1006.48 187.117C1004.64 193.972 1004.64 201.192 1006.48 208.047C1007.11 210.397 1009.24 212.03 1011.68 212.03H1014.43Z" fill="#1C1C1C"/>
<path d="M1038.74 212.03H1041.44C1043.87 212.03 1046 210.397 1046.63 208.047C1048.47 201.192 1048.47 193.972 1046.63 187.117C1046 184.767 1043.87 183.134 1041.44 183.134H1038.74H1035.98C1033.55 183.134 1031.42 184.767 1030.79 187.117C1028.95 193.972 1028.95 201.192 1030.79 208.047C1031.42 210.397 1033.55 212.03 1035.98 212.03H1038.74Z" fill="#1C1C1C"/>
<path d="M1012.36 207.901H1014.24C1016.07 207.901 1017.67 206.668 1018.14 204.898C1019.48 199.832 1019.48 194.505 1018.14 189.439C1017.67 187.669 1016.07 186.436 1014.24 186.436H1012.36H1010.44C1008.61 186.436 1007.01 187.669 1006.54 189.439C1005.2 194.505 1005.2 199.832 1006.54 204.898C1007.01 206.668 1008.61 207.901 1010.44 207.901H1012.36Z" fill="#1A1A1A"/>
<path d="M1036.67 207.901H1038.55C1040.38 207.901 1041.98 206.668 1042.45 204.898C1043.79 199.832 1043.79 194.505 1042.45 189.439C1041.98 187.669 1040.38 186.436 1038.55 186.436H1036.67H1034.75C1032.92 186.436 1031.31 187.669 1030.85 189.439C1029.51 194.505 1029.51 199.832 1030.85 204.898C1031.31 206.668 1032.92 207.901 1034.75 207.901H1036.67Z" fill="#1A1A1A"/>
<path d="M1077.89 88.1885C1077.89 164.777 1067.22 299.721 1127.08 308.476C1139.05 310.227 1095.71 311.102 1061.04 311.102C976.009 311.102 982.564 292.572 1001.14 219.047" stroke="#262633" stroke-width="4.12803" stroke-linecap="square"/>
<path d="M1004.81 192.897L1010.1 190.25C1010.77 189.914 1011.51 189.738 1012.26 189.738H1012.88C1013.87 189.738 1014.81 190.162 1015.47 190.903C1016.03 191.534 1016.34 192.348 1016.34 193.191V200.645C1016.34 201.432 1016.13 202.205 1015.74 202.888L1015.2 203.829C1014.73 204.656 1013.85 205.167 1012.9 205.167C1011.82 205.167 1010.85 205.817 1010.44 206.814L1003.78 223.06C1003.63 223.416 1003.26 223.624 1002.88 223.561L998.611 222.85C998.176 222.777 997.875 222.376 997.927 221.938L1000.67 198.79C1000.97 196.255 1002.53 194.041 1004.81 192.897Z" fill="#D9D9D9"/>
<path d="M1077.89 88.1885C1077.89 164.777 1067.26 299.721 1127.08 308.476C1139.04 310.227 1095.73 311.102 1061.08 311.102C976.104 311.102 1018.9 260.912 1025.91 221.524" stroke="#262633" stroke-width="4.12803" stroke-linecap="square"/>
<path d="M1037.55 189.738C1038.54 189.738 1039.48 190.162 1040.13 190.902C1040.69 191.534 1041 192.348 1041 193.191V200.468C1041 201.344 1040.62 202.177 1039.97 202.756C1039.41 203.245 1038.69 203.516 1037.95 203.516C1036.65 203.516 1035.48 204.316 1035.02 205.526L1028.43 223.034C1028.29 223.403 1027.91 223.622 1027.52 223.558L1023.27 222.85C1023.15 222.828 1023.03 222.776 1022.93 222.706L1018.43 222.031C1016.9 221.801 1015.82 220.407 1015.99 218.868L1017.92 200.684L1017.95 200.508C1018.09 199.638 1018.63 198.878 1019.41 198.452L1028.11 193.706C1028.19 193.667 1028.26 193.633 1028.33 193.604C1028.69 193.338 1029.07 193.1 1029.48 192.897L1034.76 190.251C1035.43 189.914 1036.17 189.738 1036.93 189.738H1037.55ZM1021.96 201.766L1020.22 218.125L1022.99 218.541L1025.19 200L1021.96 201.766Z" fill="#3D4A55"/>
<path opacity="0.2" d="M1091.1 65.8975H1067.98V297.893H1091.1V65.8975Z" fill="black"/>
<rect x="1011.84" y="155.889" width="29.7218" height="15.6865" rx="0.825606" fill="#171717"/>
<rect width="120.538" height="231.995" transform="matrix(-1 0 0 1 1302.49 65.8975)" fill="#EFEFEF"/>
<rect width="23.9313" height="2.23237" rx="1.11618" transform="matrix(-1 0 0 1 1299.12 144.924)" fill="black" fill-opacity="0.25"/>
<rect width="23.9313" height="2.23237" rx="1.11618" transform="matrix(-1 0 0 1 1299.12 151.62)" fill="black" fill-opacity="0.25"/>
<rect width="23.9313" height="2.23237" rx="1.11618" transform="matrix(-1 0 0 1 1299.12 158.317)" fill="black" fill-opacity="0.25"/>
<rect width="23.9313" height="2.23237" rx="1.11618" transform="matrix(-1 0 0 1 1299.12 165.015)" fill="black" fill-opacity="0.25"/>
<rect width="23.9313" height="2.23237" rx="1.11618" transform="matrix(-1 0 0 1 1299.12 171.712)" fill="black" fill-opacity="0.25"/>
<rect width="23.9313" height="2.67884" rx="1.33942" transform="matrix(-1 0 0 1 1299.12 178.409)" fill="black" fill-opacity="0.25"/>
<rect width="23.9313" height="2.67884" rx="1.33942" transform="matrix(-1 0 0 1 1299.12 185.553)" fill="black" fill-opacity="0.25"/>
<rect width="23.9313" height="2.67884" rx="1.33942" transform="matrix(-1 0 0 1 1299.12 192.695)" fill="black" fill-opacity="0.25"/>
<rect width="23.9313" height="2.23237" rx="1.11618" transform="matrix(-1 0 0 1 1299.12 199.839)" fill="black" fill-opacity="0.25"/>
<path d="M1206.65 66.7231C1206.65 66.2671 1207.02 65.8975 1207.48 65.8975H1259.49V225.239C1259.49 226.151 1258.75 226.891 1257.84 226.891H1208.3C1207.39 226.891 1206.65 226.151 1206.65 225.239V66.7231Z" fill="#393939"/>
<rect x="1234.79" y="72.502" width="17.3377" height="1.65121" rx="0.825606" fill="#2FD951"/>
<rect x="1214.98" y="72.502" width="17.3377" height="1.65121" rx="0.825606" fill="#2FD951"/>
<rect x="1215.8" y="127.818" width="36.3267" height="23.9426" rx="0.825606" fill="#171717"/>
<rect x="1219.92" y="131.946" width="28.0706" height="15.6865" rx="0.825606" fill="#7D7D7D"/>
<rect x="1215.73" y="155.062" width="36.3267" height="15.6865" rx="0.825606" fill="#171717"/>
<rect x="1188.49" y="297.893" width="79.2582" height="13.2097" fill="#414141"/>
<rect x="1267.77" y="297.893" width="31.373" height="13.2097" fill="#333333"/>
<path opacity="0.25" d="M1289.27 123.918L1283.46 109.146H1276.03V123.918H1289.27Z" fill="black"/>
<path opacity="0.6" d="M1283.46 109.242L1289.24 123.69V100.573L1283.46 109.242Z" fill="black"/>
<path opacity="0.4" d="M1289.27 100.573L1283.46 109.146H1276.03V100.573H1289.27Z" fill="black"/>
<path d="M1224.1 209.553H1226.8C1229.23 209.553 1231.36 207.92 1231.99 205.57C1233.83 198.715 1233.83 191.496 1231.99 184.641C1231.36 182.291 1229.23 180.657 1226.8 180.657H1224.1H1221.34C1218.91 180.657 1216.78 182.291 1216.15 184.641C1214.31 191.496 1214.31 198.715 1216.15 205.57C1216.78 207.92 1218.91 209.553 1221.34 209.553H1224.1Z" fill="#2C2C2C"/>
<path d="M1243.97 209.553H1246.67C1249.1 209.553 1251.23 207.92 1251.86 205.57C1253.71 198.715 1253.71 191.496 1251.86 184.641C1251.23 182.291 1249.1 180.657 1246.67 180.657H1243.97H1241.21C1238.78 180.657 1236.65 182.291 1236.02 184.641C1234.18 191.496 1234.18 198.715 1236.02 205.57C1236.65 207.92 1238.78 209.553 1241.21 209.553H1243.97Z" fill="#2C2C2C"/>
<path d="M1222.03 205.425H1223.91C1225.74 205.425 1227.34 204.192 1227.81 202.421C1229.15 197.355 1229.15 192.028 1227.81 186.962C1227.34 185.192 1225.74 183.959 1223.91 183.959H1222.03H1220.11C1218.28 183.959 1216.67 185.192 1216.21 186.962C1214.87 192.028 1214.87 197.355 1216.21 202.421C1216.67 204.192 1218.28 205.425 1220.11 205.425H1222.03Z" fill="#1A1A1A"/>
<path d="M1241.9 205.425H1243.78C1245.61 205.425 1247.21 204.192 1247.68 202.421C1249.02 197.355 1249.02 192.028 1247.68 186.962C1247.21 185.192 1245.61 183.959 1243.78 183.959H1241.9H1239.98C1238.15 183.959 1236.55 185.192 1236.08 186.962C1234.74 192.028 1234.74 197.355 1236.08 202.421C1236.55 204.192 1238.15 205.425 1239.98 205.425H1241.9Z" fill="#1A1A1A"/>
<path d="M1280.13 110.893C1280.13 187.482 1271.11 299.721 1330.97 308.476C1342.94 310.227 1299.6 311.102 1264.93 311.102C1179.9 311.102 1192.2 292.572 1210.78 219.047" stroke="#262633" stroke-width="4.12803" stroke-linecap="square"/>
<path d="M1214.48 190.421L1219.76 187.774C1220.44 187.437 1221.18 187.262 1221.93 187.262H1222.55C1223.54 187.262 1224.48 187.686 1225.14 188.426C1225.7 189.057 1226 189.871 1226 190.714V198.168C1226 198.955 1225.8 199.728 1225.41 200.412L1224.87 201.352C1224.4 202.179 1223.52 202.69 1222.57 202.69C1221.49 202.69 1220.52 203.341 1220.11 204.337L1213.45 220.583C1213.3 220.94 1212.93 221.148 1212.55 221.084L1208.28 220.373C1207.84 220.301 1207.54 219.899 1207.59 219.462L1210.34 196.314C1210.64 193.778 1212.2 191.564 1214.48 190.421Z" fill="#D3D3D3"/>
<path d="M1280.13 110.893C1280.13 187.482 1271.14 299.721 1330.97 308.476C1342.93 310.227 1299.62 311.102 1264.97 311.102C1179.99 311.102 1223.58 259.261 1230.59 219.873" stroke="#262633" stroke-width="4.12803" stroke-linecap="square"/>
<path d="M1242.78 187.262C1243.77 187.262 1244.71 187.686 1245.36 188.426C1245.92 189.057 1246.23 189.871 1246.23 190.714V197.991C1246.23 198.867 1245.85 199.701 1245.2 200.279C1244.64 200.769 1243.92 201.039 1243.18 201.039C1241.88 201.039 1240.71 201.84 1240.25 203.05L1233.66 220.558C1233.52 220.927 1233.14 221.146 1232.75 221.081L1228.5 220.373C1228.38 220.352 1228.26 220.3 1228.16 220.229L1223.66 219.555C1222.13 219.325 1221.05 217.93 1221.22 216.392L1223.15 198.207L1223.18 198.031C1223.32 197.161 1223.86 196.401 1224.64 195.976L1233.34 191.229C1233.42 191.19 1233.49 191.157 1233.56 191.127C1233.92 190.861 1234.3 190.624 1234.7 190.421L1239.99 187.773C1240.66 187.437 1241.4 187.262 1242.16 187.262H1242.78ZM1227.19 199.289L1225.45 215.648L1228.22 216.064L1230.42 197.523L1227.19 199.289Z" fill="#838383"/>
<rect opacity="0.35" width="30.5474" height="231.995" transform="matrix(-1 0 0 1 1302.42 65.8975)" fill="black"/>
</svg>
