<svg width="126" height="246" viewBox="0 0 126 246" fill="none" xmlns="http://www.w3.org/2000/svg">
<g clip-path="url(#clip0_1544_25515)">
<rect x="15.0811" y="246.47" width="148.979" height="61.4266" transform="rotate(-90 15.0811 246.47)" fill="url(#paint0_linear_1544_25515)"/>
<g clip-path="url(#clip1_1544_25515)">
<rect x="47.3896" y="231.512" width="21.5392" height="17.1516" rx="2.39324" transform="rotate(-90 47.3896 231.512)" fill="url(#paint1_linear_1544_25515)"/>
<path d="M64.5412 224.711L47.3896 224.711M60.9514 224.731L60.9514 231.512M56.1649 224.731L56.1649 231.512M51.3784 224.731L51.3784 231.512" stroke="#B1B0AE" stroke-width="0.398874"/>
<path d="M64.5412 216.953L47.3896 216.953M60.9514 216.933L60.9514 210.152M56.1649 216.933L56.1649 210.152M51.3784 216.933L51.3784 210.152" stroke="#B1B0AE" stroke-width="0.398874"/>
</g>
<rect x="47.5891" y="231.313" width="21.1403" height="16.7527" rx="2.19381" transform="rotate(-90 47.5891 231.313)" stroke="url(#paint2_linear_1544_25515)" stroke-width="0.398874"/>
<g filter="url(#filter0_b_1544_25515)">
<rect x="76.5078" y="245.872" width="148.979" height="32.5082" transform="rotate(-90 76.5078 245.872)" fill="white" fill-opacity="0.4"/>
</g>
<path d="M94.1902 235.513C94.1902 235.756 94.0406 235.903 93.7851 235.903L90.002 235.903C89.7434 235.903 89.5876 235.744 89.5876 235.485C89.5876 235.308 89.6499 235.199 89.8275 235.068L92.791 232.974L92.791 232.946L89.9927 232.946C89.7371 232.946 89.5876 232.799 89.5876 232.559C89.5876 232.316 89.7371 232.173 89.9927 232.173L93.7882 232.173C94.0437 232.173 94.1902 232.319 94.1902 232.581C94.1902 232.765 94.131 232.871 93.9502 232.999L90.9836 235.099L90.9836 235.127L93.7851 235.127C94.0406 235.127 94.1902 235.273 94.1902 235.513ZM94.1902 230.568C94.1902 231.207 93.7882 231.671 93.193 231.671C92.6072 231.671 92.255 231.219 92.2052 230.415L92.1553 229.54L91.9185 229.54C91.5726 229.54 91.3731 229.773 91.3731 230.157C91.3731 230.459 91.476 230.655 91.7595 230.848C91.8655 230.929 91.9154 231.032 91.9154 231.163C91.9154 231.353 91.7907 231.49 91.6037 231.49C91.5321 231.49 91.4635 231.472 91.3918 231.437C91.0085 231.269 90.7655 230.758 90.7655 230.125C90.7655 229.306 91.1986 228.773 91.8624 228.773L93.81 228.773C94.0593 228.773 94.1995 228.932 94.1995 229.15C94.1995 229.362 94.0718 229.508 93.8412 229.521L93.6106 229.521L93.6106 229.536C93.9689 229.727 94.1902 230.141 94.1902 230.568ZM93.6043 230.331C93.6043 229.895 93.3114 229.54 92.9125 229.54L92.6601 229.54L92.7069 230.306C92.7318 230.68 92.9001 230.895 93.1618 230.895C93.4329 230.895 93.6043 230.668 93.6043 230.331ZM93.3208 227.932L91.4323 227.932L91.4323 228.14C91.4323 228.334 91.317 228.452 91.1301 228.452C90.9462 228.452 90.834 228.334 90.834 228.14L90.834 227.932L90.3946 227.932C90.1454 227.932 89.9895 227.782 89.9895 227.542C89.9895 227.305 90.1454 227.156 90.3946 227.156L90.834 227.156L90.834 226.797C90.834 226.604 90.9462 226.486 91.1301 226.486C91.317 226.486 91.4323 226.604 91.4323 226.797L91.4323 227.156L93.1525 227.156C93.4018 227.156 93.5109 227.068 93.5295 226.844L93.5358 226.788C93.5545 226.582 93.6417 226.476 93.8225 226.476C94.05 226.476 94.1715 226.676 94.1715 227.031L94.1715 227.062C94.1715 227.639 93.8848 227.932 93.3208 227.932ZM94.1995 225.591C94.1995 225.819 94.0531 225.981 93.7913 225.981L89.9771 225.981C89.7309 225.981 89.5782 225.834 89.5782 225.598C89.5782 225.358 89.7309 225.214 89.9771 225.214L91.4012 225.214L91.4012 225.199C90.9992 225.021 90.7717 224.656 90.7717 224.155C90.7717 223.426 91.2516 222.999 92.0088 222.999L93.7913 222.999C94.0531 222.999 94.1995 223.161 94.1995 223.388C94.1995 223.616 94.0531 223.775 93.7913 223.775L92.1678 223.775C91.7066 223.775 91.4292 224.005 91.4292 224.454C91.4292 224.921 91.7533 225.205 92.2394 225.205L93.7913 225.205C94.0531 225.205 94.1995 225.364 94.1995 225.591ZM94.1902 221.406C94.1902 222.045 93.7882 222.509 93.193 222.509C92.6072 222.509 92.255 222.058 92.2052 221.254L92.1553 220.378L91.9185 220.378C91.5726 220.378 91.3731 220.612 91.3731 220.995C91.3731 221.297 91.476 221.494 91.7595 221.687C91.8655 221.768 91.9154 221.871 91.9154 222.001C91.9154 222.192 91.7907 222.329 91.6037 222.329C91.5321 222.329 91.4635 222.31 91.3918 222.276C91.0085 222.107 90.7655 221.596 90.7655 220.964C90.7655 220.144 91.1986 219.611 91.8624 219.611L93.81 219.611C94.0593 219.611 94.1995 219.77 94.1995 219.988C94.1995 220.2 94.0718 220.347 93.8412 220.359L93.6106 220.359L93.6106 220.375C93.9689 220.565 94.1902 220.979 94.1902 221.406ZM93.6043 221.169C93.6043 220.733 93.3114 220.378 92.9125 220.378L92.6601 220.378L92.7069 221.144C92.7318 221.518 92.9001 221.733 93.1618 221.733C93.4329 221.733 93.6043 221.506 93.6043 221.169ZM95.312 218.599C95.312 218.826 95.1656 218.985 94.9038 218.985L91.1675 218.985C90.9119 218.985 90.7686 218.829 90.7686 218.608C90.7686 218.387 90.9119 218.228 91.1675 218.228L91.4043 218.228L91.4043 218.212C91.021 218.025 90.7779 217.651 90.7779 217.171C90.7779 216.333 91.4292 215.8 92.4856 215.8C93.5389 215.8 94.1902 216.33 94.1902 217.159C94.1902 217.639 93.9596 218.013 93.5888 218.193L93.5888 218.209L94.9038 218.209C95.1656 218.209 95.312 218.371 95.312 218.599ZM93.5545 217.408C93.5545 216.906 93.14 216.595 92.4856 216.595C91.8343 216.595 91.4168 216.906 91.4168 217.408C91.4168 217.891 91.8437 218.212 92.4856 218.215C93.1338 218.212 93.5545 217.891 93.5545 217.408ZM94.2026 213.84C94.2026 214.809 93.5576 215.439 92.4856 215.439C91.4199 215.439 90.7655 214.803 90.7655 213.84C90.7655 212.877 91.4168 212.242 92.4856 212.242C93.5576 212.242 94.2026 212.871 94.2026 213.84ZM93.5888 213.84C93.5888 213.348 93.1899 213.03 92.4856 213.03C91.7845 213.03 91.3825 213.348 91.3825 213.84C91.3825 214.329 91.7845 214.65 92.4856 214.65C93.1899 214.65 93.5888 214.332 93.5888 213.84ZM94.1995 211.357C94.1995 211.584 94.0531 211.743 93.7913 211.743L91.1612 211.743C90.9213 211.743 90.7686 211.603 90.7686 211.372C90.7686 211.145 90.9213 210.989 91.1612 210.989L91.3918 210.989L91.3918 210.973C90.9992 210.796 90.7717 210.453 90.7717 209.945C90.7717 209.216 91.2391 208.801 92.0026 208.801L93.7913 208.801C94.0531 208.801 94.1995 208.96 94.1995 209.188C94.1995 209.415 94.0531 209.577 93.7913 209.577L92.1584 209.577C91.691 209.577 91.4292 209.795 91.4292 210.238C91.4292 210.683 91.7502 210.967 92.2239 210.967L93.7913 210.967C94.0531 210.967 94.1995 211.129 94.1995 211.357ZM95.3806 206.754C95.3775 207.386 95.1344 207.873 94.7791 208.094C94.7012 208.141 94.6264 208.159 94.5454 208.159C94.374 208.159 94.2463 208.032 94.2463 207.835C94.2463 207.726 94.2837 207.648 94.3772 207.552C94.6358 207.293 94.7604 207.062 94.7636 206.748C94.7698 206.221 94.4738 205.906 94.0344 205.906L93.5077 205.906L93.5077 205.922C93.863 206.093 94.1029 206.483 94.1029 206.956C94.1029 207.785 93.461 208.315 92.4451 208.315C91.4105 208.315 90.7779 207.792 90.7779 206.941C90.7779 206.47 91.021 206.106 91.3949 205.916L91.3949 205.903L91.1643 205.903C90.9088 205.903 90.7686 205.735 90.7686 205.514C90.7686 205.289 90.9088 205.127 91.1643 205.127L94.0313 205.127C94.8633 205.127 95.3868 205.735 95.3806 206.754ZM93.4984 206.72C93.4984 206.224 93.0964 205.9 92.4513 205.9C91.8094 205.9 91.3918 206.224 91.3918 206.72C91.3918 207.209 91.8032 207.52 92.4513 207.52C93.1057 207.52 93.4984 207.209 93.4984 206.72ZM94.1902 202.75C94.1902 202.993 94.0406 203.139 93.7851 203.139L90.002 203.139C89.7434 203.139 89.5876 202.98 89.5876 202.722C89.5876 202.544 89.6499 202.435 89.8275 202.304L92.791 200.21L92.791 200.182L89.9927 200.182C89.7371 200.182 89.5876 200.035 89.5876 199.795C89.5876 199.552 89.7371 199.409 89.9927 199.409L93.7882 199.409C94.0437 199.409 94.1902 199.555 94.1902 199.817C94.1902 200.001 94.131 200.107 93.9502 200.235L90.9836 202.335L90.9836 202.363L93.7851 202.363C94.0406 202.363 94.1902 202.51 94.1902 202.75ZM94.1715 198.15C94.1715 198.402 93.9752 198.599 93.7228 198.599C93.4735 198.599 93.274 198.402 93.274 198.15C93.274 197.901 93.4735 197.704 93.7228 197.704C93.9752 197.704 94.1715 197.901 94.1715 198.15Z" fill="#3F3F3F"/>
<path d="M29.7499 124.765L29.7499 127.854L33.2066 127.854L33.2066 129.779L24.3554 129.779L24.3554 124.183L26.1496 124.183L26.1496 127.854L28.0036 127.854L28.0036 124.765L29.7499 124.765Z" fill="#FBFBFB"/>
<path d="M33.2066 121.259L33.2066 123.089L24.188 123.089L24.188 121.259L33.2066 121.259Z" fill="#FBFBFB"/>
<path d="M26.2931 118.984C26.2931 119.566 25.8266 120.029 25.2406 120.029C24.6545 120.029 24.1999 119.566 24.1999 118.984C24.1999 118.413 24.6545 117.95 25.2406 117.95C25.8266 117.95 26.2931 118.413 26.2931 118.984ZM33.2066 119.887L27.2261 119.887L27.2261 118.057L33.2066 118.057L33.2066 119.887Z" fill="#FBFBFB"/>
<path d="M33.2066 114.854L33.2066 116.684L27.2261 116.684L27.2261 114.961L27.8481 114.843C27.3337 114.474 27.0347 113.797 27.0347 113.025C27.0347 111.611 27.9437 110.791 29.5106 110.791L33.2066 110.791L33.2066 112.621L29.9532 112.621C29.1997 112.621 28.7092 113.037 28.7093 113.666C28.7093 114.391 29.1877 114.854 29.9293 114.854L33.2066 114.854Z" fill="#FBFBFB"/>
<path d="M33.2066 107.079L33.2066 108.908L28.7571 108.908L28.7571 110.037L27.2261 110.037L27.2261 108.908L25.3721 108.908L25.3721 107.079L27.2261 107.079L27.2261 105.95L28.7571 105.95L28.7571 107.079L33.2066 107.079Z" fill="#FBFBFB"/>
<path d="M33.3621 104.347C33.3621 104.953 32.8717 105.44 32.2856 105.44C31.6875 105.44 31.1971 104.953 31.1971 104.347C31.1971 103.764 31.6875 103.254 32.2856 103.254C32.8717 103.254 33.3621 103.764 33.3621 104.347Z" fill="#FBFBFB"/>
<path d="M83.6353 119.393L83.6353 112.715L95.7171 112.715L95.7171 119.393L83.6353 119.393Z" fill="#838486"/>
<path d="M89.6762 118.969C87.2215 118.969 85.0442 117.824 83.6353 116.065C82.6107 117.358 81.9917 118.99 81.9917 120.771C81.9917 124.99 85.4283 128.403 89.6762 128.403C93.924 128.403 97.3607 124.99 97.3607 120.771C97.3607 118.99 96.7417 117.358 95.717 116.065C94.3296 117.824 92.131 118.969 89.6762 118.969Z" fill="#636365"/>
<path d="M89.6762 103.705C93.924 103.705 97.3607 107.118 97.3607 111.337C97.3607 113.118 96.7417 114.75 95.717 116.043C94.3083 114.263 92.131 113.139 89.6762 113.139C87.2215 113.139 85.0442 114.284 83.6353 116.043C82.6107 114.75 81.9917 113.118 81.9917 111.337C81.9917 107.118 85.4497 103.705 89.6762 103.705Z" fill="#B0B1B2"/>
<path d="M97.4604 120.771C97.4604 118.99 96.8494 117.356 95.8355 116.054C96.8494 114.752 97.4604 113.118 97.4604 111.337C97.4604 107.062 93.9784 103.605 89.6762 103.605C85.3955 103.605 81.892 107.062 81.892 111.337C81.892 113.118 82.5031 114.752 83.5168 116.054C82.5031 117.356 81.892 118.99 81.892 120.771C81.892 125.046 85.3739 128.503 89.6762 128.503C93.9784 128.503 97.4604 125.046 97.4604 120.771Z" stroke="url(#paint3_linear_1544_25515)" stroke-width="0.199437"/>
<path d="M83.6353 119.393L83.6353 112.715L95.7171 112.715L95.7171 119.393L83.6353 119.393Z" fill="#838486"/>
<path d="M89.6762 118.969C87.2215 118.969 85.0442 117.824 83.6353 116.065C82.6107 117.358 81.9917 118.99 81.9917 120.771C81.9917 124.99 85.4283 128.403 89.6762 128.403C93.924 128.403 97.3607 124.99 97.3607 120.771C97.3607 118.99 96.7417 117.358 95.717 116.065C94.3296 117.824 92.131 118.969 89.6762 118.969Z" fill="#636365"/>
<path d="M89.6762 103.705C93.924 103.705 97.3607 107.118 97.3607 111.337C97.3607 113.118 96.7417 114.75 95.717 116.043C94.3083 114.263 92.131 113.139 89.6762 113.139C87.2215 113.139 85.0442 114.284 83.6353 116.043C82.6107 114.75 81.9917 113.118 81.9917 111.337C81.9917 107.118 85.4497 103.705 89.6762 103.705Z" fill="#B0B1B2"/>
<path d="M102.872 125.231L101.466 125.231C100.927 125.231 100.576 125.554 100.576 126.107C100.576 126.384 100.67 126.684 100.974 126.891C100.717 127.053 100.576 127.283 100.576 127.629C100.576 127.86 100.646 128.09 100.904 128.275L100.623 128.275L100.623 128.759L102.872 128.759L102.872 128.275L101.63 128.275C101.232 128.275 101.045 128.067 101.045 127.744C101.045 127.422 101.255 127.26 101.63 127.26L102.872 127.26L102.872 126.776L101.63 126.776C101.232 126.776 101.045 126.546 101.045 126.246C101.045 125.923 101.255 125.762 101.63 125.762L102.872 125.762L102.872 125.231V125.231ZM100.623 118.06L100.623 118.844L99.9438 118.844L99.9438 119.328L100.623 119.328L100.623 119.766L101.068 119.766L101.068 119.328L102.099 119.328C102.614 119.328 102.919 119.121 102.919 118.567C102.919 118.36 102.848 118.129 102.755 117.968L102.333 118.106C102.427 118.245 102.45 118.406 102.45 118.521C102.45 118.752 102.31 118.844 102.075 118.844L101.068 118.844L101.068 118.06L100.623 118.06V118.06ZM100.576 113.956C100.576 114.233 100.717 114.417 100.904 114.532L100.623 114.532L100.623 115.017L102.872 115.017L102.872 114.532L101.607 114.532C101.232 114.532 101.021 114.371 101.021 114.071C101.021 113.979 101.045 113.864 101.068 113.771L100.6 113.633C100.576 113.725 100.576 113.864 100.576 113.956L100.576 113.956ZM100.81 120.158C100.646 120.389 100.576 120.712 100.576 121.058C100.576 121.611 100.857 121.98 101.302 121.98C101.677 121.98 101.888 121.703 101.958 121.219L101.982 120.989C102.028 120.735 102.099 120.597 102.216 120.597C102.38 120.597 102.497 120.781 102.497 121.104C102.497 121.427 102.38 121.68 102.263 121.842L102.637 122.072C102.825 121.819 102.919 121.473 102.919 121.127C102.919 120.481 102.614 120.112 102.192 120.112C101.794 120.112 101.583 120.412 101.513 120.873L101.49 121.104C101.466 121.311 101.419 121.473 101.279 121.473C101.115 121.473 101.021 121.311 101.021 121.058C101.021 120.781 101.138 120.504 101.209 120.366L100.81 120.158V120.158ZM100.576 107.292C100.576 107.569 100.717 107.753 100.904 107.869L100.623 107.869L100.623 108.353L102.872 108.353L102.872 107.869L101.607 107.869C101.232 107.869 101.021 107.707 101.021 107.408C101.021 107.315 101.045 107.2 101.068 107.108L100.6 106.969C100.576 107.062 100.576 107.2 100.576 107.292V107.292ZM101.747 113.472C102.427 113.472 102.919 113.011 102.919 112.296C102.919 111.973 102.848 111.742 102.661 111.512L102.263 111.742C102.403 111.927 102.473 112.111 102.473 112.319C102.473 112.711 102.192 112.988 101.747 112.988C101.326 112.988 101.045 112.711 101.021 112.319C101.021 112.111 101.091 111.927 101.232 111.742L100.834 111.512C100.646 111.742 100.576 111.973 100.576 112.296C100.576 113.011 101.068 113.472 101.747 113.472ZM101.747 108.998L100.623 108.998L100.623 109.483L100.904 109.483C100.693 109.644 100.576 109.875 100.576 110.174C100.576 110.797 101.068 111.281 101.747 111.281C102.427 111.281 102.919 110.797 102.919 110.174C102.919 109.852 102.801 109.621 102.591 109.483L102.872 109.483L102.872 108.998L101.747 108.998V108.998ZM101.747 110.774C101.349 110.774 101.021 110.52 101.021 110.105C101.021 109.713 101.326 109.437 101.747 109.437C102.146 109.437 102.473 109.713 102.473 110.105C102.45 110.52 102.146 110.774 101.747 110.774V110.774ZM100.576 116.561C100.576 117.207 101.045 117.668 101.747 117.668C102.45 117.668 102.919 117.207 102.919 116.538C102.919 116.216 102.825 115.893 102.614 115.639L102.263 115.87C102.403 116.054 102.497 116.285 102.497 116.515C102.497 116.815 102.356 117.115 101.958 117.184L101.958 115.547L101.771 115.547C101.045 115.524 100.576 115.939 100.576 116.562L100.576 116.561ZM100.998 116.561C100.998 116.262 101.185 116.054 101.537 116.008L101.537 117.161C101.232 117.115 100.998 116.907 100.998 116.561ZM101.747 104.548L99.7329 104.548L99.7329 105.033L100.904 105.033C100.693 105.194 100.576 105.425 100.576 105.724C100.576 106.347 101.068 106.831 101.747 106.831C102.427 106.831 102.919 106.347 102.919 105.724C102.919 105.401 102.801 105.171 102.591 105.033L102.872 105.033L102.872 104.548L101.747 104.548V104.548ZM101.747 106.324C101.349 106.324 101.021 106.07 101.021 105.655C101.021 105.263 101.326 104.986 101.747 104.986C102.146 104.986 102.473 105.263 102.473 105.655C102.45 106.07 102.146 106.324 101.747 106.324V106.324ZM101.747 122.51L100.623 122.51L100.623 122.995L100.904 122.995C100.693 123.156 100.576 123.387 100.576 123.686C100.576 124.309 101.068 124.793 101.747 124.793C102.427 124.793 102.919 124.309 102.919 123.686C102.919 123.363 102.801 123.133 102.591 122.995L102.872 122.995L102.872 122.51L101.747 122.51V122.51ZM101.747 124.309C101.349 124.309 101.021 124.055 101.021 123.64C101.021 123.248 101.326 122.972 101.747 122.972C102.146 122.972 102.473 123.248 102.473 123.64C102.45 124.055 102.146 124.309 101.747 124.309V124.309Z" fill="black"/>
</g>
<rect x="15.2805" y="245.672" width="148.601" height="93.5202" rx="3.7893" transform="rotate(-90 15.2805 245.672)" stroke="url(#paint4_linear_1544_25515)" stroke-width="0.398874"/>
<defs>
<filter id="filter0_b_1544_25515" x="64.5416" y="84.926" width="56.4407" height="172.912" filterUnits="userSpaceOnUse" color-interpolation-filters="sRGB">
<feFlood flood-opacity="0" result="BackgroundImageFix"/>
<feGaussianBlur in="BackgroundImageFix" stdDeviation="10"/>
<feComposite in2="SourceAlpha" operator="in" result="effect1_backgroundBlur_1544_25515"/>
<feBlend mode="normal" in="SourceGraphic" in2="effect1_backgroundBlur_1544_25515" result="shape"/>
</filter>
<linearGradient id="paint0_linear_1544_25515" x1="89.5707" y1="246.47" x2="89.5707" y2="307.896" gradientUnits="userSpaceOnUse">
<stop stop-color="#4E7AEC"/>
<stop offset="0.0001" stop-color="#4E7AEC"/>
<stop offset="1" stop-color="#4551DF"/>
</linearGradient>
<linearGradient id="paint1_linear_1544_25515" x1="51.9667" y1="229.1" x2="71.5163" y2="251.969" gradientUnits="userSpaceOnUse">
<stop stop-color="white"/>
<stop offset="1" stop-color="#D9D9D9"/>
</linearGradient>
<linearGradient id="paint2_linear_1544_25515" x1="58.1592" y1="231.512" x2="58.1592" y2="248.664" gradientUnits="userSpaceOnUse">
<stop stop-color="#B1B0AE"/>
<stop offset="1" stop-color="#727272"/>
</linearGradient>
<linearGradient id="paint3_linear_1544_25515" x1="81.9917" y1="116.054" x2="97.3607" y2="116.054" gradientUnits="userSpaceOnUse">
<stop stop-color="white"/>
<stop offset="0.177083" stop-color="#A9A9A9"/>
<stop offset="0.333333" stop-color="#9F9F9F"/>
<stop offset="0.484375" stop-color="white"/>
<stop offset="0.682292" stop-color="#8C8C8C"/>
<stop offset="0.84375" stop-color="white"/>
<stop offset="1" stop-color="#272727"/>
</linearGradient>
<linearGradient id="paint4_linear_1544_25515" x1="89.5811" y1="245.872" x2="89.5811" y2="339.791" gradientUnits="userSpaceOnUse">
<stop stop-color="#9F9F9F"/>
<stop offset="1" stop-color="#D8D8D8"/>
</linearGradient>
<clipPath id="clip0_1544_25515">
<rect x="15.0811" y="245.872" width="149" height="93.9191" rx="3.98874" transform="rotate(-90 15.0811 245.872)" fill="white"/>
</clipPath>
<clipPath id="clip1_1544_25515">
<rect x="47.3896" y="231.512" width="21.5392" height="17.1516" rx="2.39324" transform="rotate(-90 47.3896 231.512)" fill="white"/>
</clipPath>
</defs>
</svg>
