<svg width="439" height="295" viewBox="0 0 439 295" fill="none" xmlns="http://www.w3.org/2000/svg">
<g clip-path="url(#clip0_852_28951)">
<rect x="21.0942" y="245.521" width="8.83019" height="17.7753" fill="#FF2574"/>
<rect x="-2.45288" y="256.533" width="8.83019" height="3.33287" fill="#4E7AEC"/>
<rect x="9.3208" y="254.311" width="8.83019" height="3.33287" fill="#4E7AEC"/>
<rect x="34.3396" y="233.301" width="8.83019" height="24.441" fill="#4E7AEC"/>
<rect x="47.585" y="222.191" width="8.83019" height="24.441" fill="#4E7AEC"/>
<rect x="131.472" y="128.871" width="8.83019" height="24.441" fill="#4E7AEC"/>
<rect x="59.3584" y="183.962" width="8.83019" height="50.0377" fill="#FF2574"/>
<rect x="143.245" y="107.763" width="8.83019" height="31.1068" fill="#4E7AEC"/>
<rect x="205.057" y="86.6545" width="8.83019" height="26.663" fill="#4E7AEC"/>
<rect x="216.83" y="2.22192" width="8.83019" height="84.4327" fill="#4E7AEC"/>
<rect x="228.604" width="8.83019" height="25.552" fill="#FF2574"/>
<rect x="240.377" y="13.3315" width="8.83019" height="56.6588" fill="#FF2574"/>
<rect x="252.151" y="61.103" width="8.83019" height="18.8863" fill="#FF2574"/>
<rect x="263.925" y="71.1013" width="8.83019" height="124.427" fill="#FF2574"/>
<rect x="277.17" y="183.308" width="8.83019" height="328.843" fill="#FF2574"/>
<rect x="191.811" y="112.207" width="8.83019" height="11.1096" fill="#4E7AEC"/>
<rect x="180.038" y="133.925" width="8.83019" height="16.1887" fill="#FF2574"/>
<rect x="155.019" y="131.093" width="8.83019" height="2.22191" fill="#4E7AEC"/>
<rect x="168.264" y="114.792" width="8.83019" height="41.1054" fill="#FF2574"/>
<rect x="84.3774" y="181.019" width="8.83019" height="30.9057" fill="#4E7AEC"/>
<rect x="118.226" y="149.979" width="8.83019" height="16.6643" fill="#4E7AEC"/>
<rect x="96.1509" y="157.756" width="8.83019" height="16.6643" fill="#4E7AEC"/>
<rect width="8.83019" height="20.6038" transform="matrix(1 0 0 -1 71.1321 216.34)" fill="#FF2574"/>
<path d="M176.518 271.175L68.6713 294.702L64.8315 290.837L136.886 248.626L176.518 271.175Z" fill="#C9D8FE"/>
<path d="M109.643 232.67L101.653 188.342C99.6136 177.029 110.535 167.721 121.382 171.527L157.719 184.28C169.451 188.398 177.736 198.939 178.965 211.312L182.597 247.88C183.828 260.273 171.053 269.259 159.806 263.911L118.519 244.281C113.862 242.067 110.557 237.744 109.643 232.67Z" fill="#F54C00"/>
<path d="M108.491 233.438L100.501 189.11C98.462 177.797 109.384 168.488 120.231 172.295L156.568 185.048C168.3 189.166 176.585 199.707 177.814 212.08L181.446 248.648C182.677 261.041 169.901 270.027 158.654 264.679L117.367 245.049C112.71 242.835 109.406 238.512 108.491 233.438Z" fill="#DD4400"/>
<mask id="mask0_852_28951" style="mask-type:alpha" maskUnits="userSpaceOnUse" x="56" y="190" width="115" height="105">
<path d="M58.1239 277.501L110.854 197.41C111.582 196.303 112.421 195.267 113.499 194.496C120.468 189.51 136.071 185.591 153.803 203.039C176.077 225.869 171.643 244.325 165.376 252.632C164.186 254.21 162.468 255.268 160.645 256.032L72.1126 293.188C69.2926 294.371 66.0936 294.933 63.3273 293.629C58.6973 291.447 56.7871 287.579 56.2072 284.298C55.7822 281.893 56.7809 279.541 58.1239 277.501Z" fill="#FD5104"/>
</mask>
<g mask="url(#mask0_852_28951)">
<path d="M58.1239 277.501L110.854 197.41C111.582 196.303 112.421 195.267 113.499 194.496C120.468 189.51 136.071 185.591 153.803 203.039C176.077 225.869 171.643 244.325 165.376 252.632C164.186 254.21 162.468 255.268 160.645 256.032L72.1126 293.188C69.2926 294.371 66.0936 294.933 63.3273 293.629C58.6973 291.447 56.7871 287.579 56.2072 284.298C55.7822 281.893 56.7809 279.541 58.1239 277.501Z" fill="#FD5104"/>
<path d="M100.432 212.447C106.063 206.687 121.703 200.198 139.213 220.318C161.099 245.468 147.66 261.019 146.124 262.555C144.895 263.784 134.733 268.187 129.805 270.234C134.925 264.795 140.556 249.462 122.126 231.645C106.552 216.591 94.9993 221.678 89.321 228.095L86.8005 231.645C87.4354 230.495 88.2793 229.273 89.321 228.095L100.432 212.447Z" fill="white"/>
<path d="M81.5339 241.138C85.2709 237.311 96.4842 233.145 108.103 246.514C120.578 260.869 114.213 273.555 112.816 276.201C112.977 276.216 112.934 276.357 112.636 276.656C112.492 276.799 112.587 276.636 112.816 276.201C111.743 276.098 101.589 281.615 98.7434 282.799C102.141 279.185 105.878 268.996 93.6476 257.158C83.2922 247.134 75.616 250.548 71.8563 254.825L70.2068 257.158C70.6234 256.401 71.1756 255.599 71.8563 254.825L81.5339 241.138Z" fill="white"/>
</g>
<ellipse cx="62.8512" cy="286.623" rx="3.39916" ry="5.91159" transform="rotate(-35.6011 62.8512 286.623)" fill="#8E2C00"/>
</g>
<defs>
<clipPath id="clip0_852_28951">
<rect width="439" height="295" fill="white"/>
</clipPath>
</defs>
</svg>
