<svg width="540" height="330" viewBox="0 0 540 330" fill="none" xmlns="http://www.w3.org/2000/svg">
<g clip-path="url(#clip0_851_25550)">
<path d="M457.838 331.327C457.838 331.327 510.718 267.208 488.587 191.744C468.813 124.068 379.29 80.2321 331.67 113.782C308.723 130.028 290.128 64.8511 213.757 41.0106C157.249 23.3224 73.7112 62.9285 94.9357 184.054C111.081 276.148 31.0808 230.293 48.4958 332L457.838 331.327Z" fill="#E9EFFF"/>
<path d="M256.769 76.4898C251.192 82.0818 244.75 84.6826 242.329 82.2985C239.951 79.9143 242.545 73.4121 248.122 67.8202C253.699 62.2283 260.141 59.6274 262.562 62.0116C264.94 64.3957 262.346 70.8979 256.769 76.4898Z" fill="#071A2E"/>
<path d="M286.86 317.462L284.957 370.997L284.309 390.59L282.969 428H248.857L247.301 384.001L244.923 317.462H286.86Z" fill="#FFB398"/>
<path d="M338.264 317.289L336.362 369.263L335.497 391.891L334.2 427.783H298.878L297.538 391.674L296.76 370.173L294.814 317.289H338.264Z" fill="#FFB398"/>
<path d="M354.044 153.779C354.044 153.996 354.001 154.213 353.958 154.43C352.747 163.099 344.576 169.558 335.713 166.48C330.742 164.747 320.625 163.793 309.6 163.273C289.583 162.319 266.67 162.839 266.67 162.839C266.67 162.839 263.254 162.146 258.628 161.192C252.662 160.022 244.75 158.374 239.649 157.291H239.605C236.579 156.64 234.59 156.164 234.59 156.034C234.59 155.99 234.504 155.773 234.374 155.47C233.25 152.912 228.797 141.729 236.579 123.392C245.355 102.759 253.354 86.5465 255.083 64.699C255.169 63.6153 274.841 49.9607 274.841 49.9607L290.491 46.6228C290.491 46.6228 300.651 46.5795 301.04 47.2731C301.04 47.2731 310.162 51.6512 315.999 86.0696C319.76 108.09 333.768 124.866 347.862 138.651C352.834 143.419 354.563 148.924 354.044 153.779Z" fill="#071A2E"/>
<path d="M281.715 141.685L278.213 159.501L258.628 161.235L252.446 161.799L239.649 157.334H239.605L234.374 155.513C233.25 152.956 228.797 141.772 236.579 123.436C233.12 131.499 246.479 135.443 252.402 119.665C258.325 103.886 269.091 82.0383 269.091 82.0383L281.715 141.685Z" fill="#02090F"/>
<path d="M252.186 178.835C252.057 185.467 251.754 192.143 251.365 198.775C250.37 216.244 248.641 233.67 246.479 251.009C244.707 262.67 232.212 266.962 223.652 262.107C220.928 260.633 218.637 258.205 217.167 254.824L192.87 198.515C186.817 183.126 210.985 170.685 219.026 185.034L220.755 154.43C221.231 145.673 228.667 138.955 237.444 139.431C245.788 139.865 252.273 146.757 252.402 155.037C252.489 163.013 252.402 170.945 252.186 178.835Z" fill="#7799F2"/>
<path d="M299.44 116.24C299.44 117.627 289.929 118.754 278.17 118.754C266.41 118.754 256.899 117.627 256.899 116.24C256.899 114.853 266.41 113.726 278.17 113.726C289.929 113.726 299.44 114.81 299.44 116.24Z" fill="#02090F"/>
<path d="M347.905 162.926C347.819 190.842 334.071 241.039 330.136 255.344C329.401 255.431 328.666 255.518 327.932 255.561C303.505 257.902 290.751 249.059 265.589 252.873C258.715 248.452 251.062 239.089 249.16 229.595C248.771 227.775 248.425 225.954 248.036 224.134C247.777 222.746 247.474 221.359 247.215 220.015C245.615 212.083 240.211 201.766 234.677 190.972C234.59 190.799 234.504 190.582 234.417 190.409C233.596 188.848 232.775 187.244 231.996 185.64C230.915 183.473 229.835 181.306 228.797 179.138C225.079 171.422 222.009 163.836 220.885 157.204C218.767 144.72 233.25 137.784 240.081 135.617C242.416 134.88 244.75 134.229 247.128 133.623C250.673 132.756 254.262 132.019 257.85 131.455C277.046 128.421 296.63 129.548 313.016 133.189C315.437 133.709 317.815 134.316 320.106 134.966C320.755 135.14 321.403 135.357 322.052 135.53C339.778 140.818 347.949 149.098 347.905 162.926Z" fill="#7799F2"/>
<path d="M365.761 371.214C365.761 378.583 355.86 385.302 325.164 387.903C316.691 388.64 306.661 389.03 294.815 389.03C250.76 389.03 219.069 377.933 221.966 368.006C221.966 368.006 238.568 290.76 250.241 248.972C251.235 245.504 252.143 242.253 253.051 239.349C253.397 238.135 253.743 237.008 254.089 235.924C254.478 234.624 255.299 233.54 256.423 232.63C263.859 226.518 285.563 228.208 303.677 230.982C314.097 232.543 323.349 234.494 327.931 235.534C329.92 235.967 331.087 236.271 331.087 236.271L365.761 371.214Z" fill="#26457A"/>
<path d="M286.903 233.41C301.205 233.41 312.8 222.755 312.8 209.612C312.8 196.469 301.205 185.814 286.903 185.814C272.6 185.814 261.006 196.469 261.006 209.612C261.006 222.755 272.6 233.41 286.903 233.41Z" fill="#C78430"/>
<path d="M298.187 146.844L264.075 147.971L263.557 118.624V117.107L263.427 111.038L263.384 107.917L263.038 87.4134L297.149 86.2864L298.187 146.844Z" fill="#FFB398"/>
<path d="M277.391 108.524C277.391 108.524 270.863 115.85 263.557 117.107L263.427 111.038L263.384 107.917L277.391 108.524Z" fill="#B35844"/>
<path d="M193.907 196.607C193.907 196.607 201.69 206.664 214.876 203.413C228.019 200.205 229.575 187.461 223.22 183.126C216.908 178.791 205.148 183.776 205.148 183.776L193.907 196.607Z" fill="#FFB398"/>
<path d="M272.506 110.345C261.957 111.038 252.878 103.019 252.186 92.4852L250.889 72.285C250.068 59.4106 259.752 48.3135 272.592 47.4465L294.901 45.9727L297.236 82.0816C298.187 96.7333 287.119 109.391 272.506 110.345Z" fill="#FFB398"/>
<path d="M208.304 190.582C202.511 189.368 193.907 187.981 189.411 187.201C188.979 187.157 188.633 187.244 188.633 187.244C188.633 187.287 188.936 186.984 188.936 186.724C188.979 186.594 189.195 186.637 189.282 186.507C189.368 186.247 189.584 187.287 189.627 187.374C190.276 189.845 190.881 192.316 191.4 194.83C191.919 197.258 190.492 199.642 188.157 200.422C187.595 200.595 186.99 200.335 186.731 199.815C185.174 196.434 183.791 192.923 182.494 189.455C181.932 188.284 182.191 186.724 182.494 185.423C183.099 181.912 186.99 180.135 189.973 180.525C196.026 181.305 202.122 181.999 208.218 182.563C208.866 182.606 209.342 183.213 209.255 183.863L208.304 190.582Z" fill="#FFB398"/>
<path d="M203.721 198.905C196.674 196.651 189.584 194.657 182.494 192.663C183.099 192.836 183.056 192.793 183.402 192.576C183.575 192.403 184.483 191.319 184.31 191.015L184.439 191.622C184.828 195.567 185.218 199.642 185.39 203.63C185.477 205.147 184.353 206.447 182.883 206.664C181.413 206.881 179.943 205.971 179.597 204.497C178.905 201.809 178.3 199.078 177.781 196.347L177.046 192.749L177.176 193.356C176.873 192.489 176.917 191.319 177.349 190.192C178.516 186.724 182.451 185.597 184.439 186.334C190.492 187.808 196.545 189.282 202.684 190.582C204.327 190.929 205.364 192.576 204.932 194.223L203.721 198.905Z" fill="#FFB398"/>
<path d="M266.54 40.0773L246.133 49.874L245.269 56.5496L250.111 61.1879L261.481 67.43C272.16 54.3389 282.709 54.729 286.643 57.1999C293.647 61.578 291.831 81.9516 291.831 81.9516C301.905 76.3164 306.358 62.7484 306.358 62.7484V53.862C304.845 50.2208 302.424 46.9697 299.44 44.2821C290.491 36.2627 277.391 34.8756 266.54 40.0773Z" fill="#071A2E"/>
<path d="M267.621 200.595C267.621 209.959 262.389 218.021 254.823 221.879C252.791 222.92 250.5 223.7 248.122 224.047C246.998 224.22 245.874 224.307 244.707 224.307C243.583 224.307 242.459 224.22 241.378 224.047C240.989 224.003 240.556 223.917 240.167 223.83C229.618 221.663 221.707 212.039 221.707 200.509C221.707 195.654 223.09 191.189 225.511 187.418C226.289 185.814 227.63 182.866 228.84 179.051C230.18 174.933 231.348 169.818 231.521 164.356C231.65 161.235 232.731 158.721 234.374 156.684C239.692 150.008 250.63 148.491 250.63 148.491L250.241 175.453V177.404C260.184 180.092 267.621 189.412 267.621 200.595Z" fill="#658DC9"/>
<path d="M320.106 259.332C319.933 259.332 319.76 259.246 319.674 259.072C317.469 254.391 310.941 248.582 292.393 247.281C291.961 247.238 291.658 247.238 291.529 247.195C291.269 247.151 291.096 246.935 291.14 246.675C291.183 246.415 291.399 246.241 291.658 246.284C291.788 246.284 292.048 246.328 292.437 246.328C311.459 247.628 318.204 253.74 320.495 258.639C320.625 258.855 320.495 259.159 320.279 259.246C320.236 259.332 320.193 259.332 320.106 259.332Z" fill="#C73112"/>
<path d="M286.687 233.627C279.164 233.627 270.95 231.503 265.632 225.434C264.465 224.09 263.47 222.573 262.649 220.926C261.265 218.065 260.444 215.074 260.271 212.039C260.141 209.872 260.357 207.661 260.876 205.494C260.919 205.234 261.179 205.104 261.438 205.147C261.698 205.19 261.827 205.45 261.784 205.71C261.309 207.791 261.092 209.915 261.222 211.996C261.395 214.9 262.173 217.761 263.513 220.535C264.292 222.139 265.243 223.57 266.367 224.827C275.965 235.837 296.717 233.367 302.553 228.858C302.769 228.685 303.029 228.728 303.202 228.945C303.375 229.162 303.331 229.422 303.115 229.595C300.262 231.763 293.777 233.627 286.687 233.627Z" fill="#340000"/>
<path d="M276.7 77.0534C277.175 78.4405 276.743 79.871 275.705 80.2178C274.668 80.5646 273.457 79.6976 272.981 78.3105C272.506 76.9233 272.938 75.4928 273.976 75.146C275.013 74.7993 276.224 75.6662 276.7 77.0534Z" fill="#340000"/>
<path d="M258.023 77.5735C258.498 78.9606 258.066 80.3911 257.028 80.7379C255.991 81.0847 254.78 80.2177 254.305 78.8306C253.829 77.4434 254.261 76.0129 255.299 75.6662C256.337 75.3194 257.547 76.143 258.023 77.5735Z" fill="#340000"/>
<path d="M263.773 87.3701C262.735 87.3701 261.827 86.8933 261.179 86.113C260.487 85.246 260.314 84.1623 260.617 83.122L262.433 76.9232C262.519 76.6631 262.778 76.5331 262.995 76.6198C263.254 76.7065 263.384 76.9665 263.297 77.1833L261.481 83.3821C261.265 84.119 261.395 84.9426 261.87 85.5495C262.346 86.1564 263.081 86.5031 263.859 86.4598L265.848 86.3731C266.064 86.3297 266.324 86.5465 266.324 86.8066C266.324 87.0667 266.151 87.2834 265.891 87.2834L263.902 87.3701C263.902 87.3701 263.859 87.3701 263.773 87.3701Z" fill="#B35844"/>
<path d="M272.333 63.8321C274.624 64.9592 277.002 64.569 279.683 64.8291C282.709 65.0892 285.563 66.9098 286.989 69.5541C287.249 69.9875 286.687 70.4644 286.298 70.1609C284.136 68.9038 281.931 67.8201 279.467 67.7768C276.786 67.6901 273.414 67.9502 270.993 66.1729C269.609 65.2192 270.863 63.0952 272.333 63.8321Z" fill="#340000"/>
<path d="M251.365 198.775C250.37 216.244 248.641 233.67 246.479 251.009C244.707 262.67 232.212 266.961 223.652 262.106C224.517 262.323 235.844 264.404 237.054 245.461C238.308 225.694 226.116 196.867 226.116 196.867L243.583 192.099L251.365 198.775Z" fill="#658DC9"/>
<path d="M259.536 67.1264C256.337 68.6003 253.137 69.2505 250.241 71.4179C249.938 71.6347 249.462 71.3746 249.506 70.9844C249.592 68.7303 251.538 66.823 253.613 66.3028C254.348 65.7393 261.265 65.3492 259.536 67.1264Z" fill="#340000"/>
<path d="M219.977 198.992L197.928 196.911L198.966 196.824L179.597 200.335C175.274 201.202 171.988 197.388 175.447 196.304L197.409 189.542C197.755 189.455 198.101 189.455 198.447 189.455L220.583 190.149C226.506 190.539 225.943 199.382 219.977 198.992Z" fill="#FFB398"/>
<path d="M327.931 218.065V255.518C307.612 257.468 295.377 251.703 277.391 251.876H277.348C273.717 251.876 269.826 252.18 265.632 252.83C264.292 251.963 262.908 250.923 261.525 249.666C258.369 246.891 255.342 243.25 253.051 239.262C251.192 236.098 249.808 232.716 249.203 229.335C249.117 228.902 249.03 228.468 248.987 227.992C248.684 225.824 246.912 224.307 244.707 224.307C244.707 224.307 244.707 224.307 244.664 224.307C243.54 224.307 238.524 224.307 235.023 222.14C230.613 219.322 228.365 216.461 226.851 209.569C223.306 193.4 233.12 184.817 239 170.035C240.167 167.131 244.707 175.28 244.707 175.28L310.941 177.838L310.897 183.386C310.811 191.536 313.016 199.425 317.166 206.187C319.89 210.782 323.565 214.814 327.931 218.065Z" fill="#26457A"/>
<path d="M365.761 371.214C365.761 378.583 355.86 385.302 325.164 387.903C350.326 385.128 343.409 363.671 336.362 315.815C331.131 280.269 317.901 295.398 289.454 259.159C286.427 255.301 282.147 252.743 277.305 251.92C270.604 250.879 265.416 250.186 261.481 249.709C254.953 248.972 251.754 248.842 250.198 248.929C251.192 245.461 252.1 242.21 253.008 239.305C251.149 236.141 249.765 232.76 249.16 229.379C251.711 230.636 254.132 231.719 256.423 232.586C274.495 239.522 284.655 234.927 298.187 233.15C300.175 232.89 301.991 232.11 303.634 230.939C310.638 226.084 314.832 214.51 317.08 206.231C319.847 210.782 323.522 214.814 327.888 218.065V235.534C329.877 235.968 331.044 236.271 331.044 236.271L365.761 371.214Z" fill="#162847"/>
<path d="M259.493 71.288C259.363 71.3747 259.147 71.4181 259.017 71.3314C258.974 71.3314 255.991 69.6841 253.483 70.9846C251.019 72.2417 250.587 74.6258 250.587 74.7125C250.543 74.9726 250.327 75.146 250.068 75.1027C249.808 75.0593 249.636 74.8426 249.679 74.5825C249.679 74.4524 250.154 71.6348 253.051 70.161C255.991 68.6438 259.32 70.4644 259.45 70.5078C259.666 70.6378 259.752 70.8979 259.622 71.1146C259.579 71.2013 259.536 71.2447 259.493 71.288Z" fill="#340000"/>
<path d="M257.85 131.455C254.434 139.778 248.122 158.461 243.539 192.186L234.763 190.972L234.417 190.929C234.417 190.755 234.46 190.582 234.504 190.409C238.395 162.232 243.41 144.199 247.171 133.622C250.673 132.712 254.261 132.019 257.85 131.455Z" fill="#26457A"/>
<path d="M353.439 227.992C353.309 233.887 352.92 240.519 352.531 246.501C352.315 251.399 351.105 255.821 348.208 260.199C341.853 269.909 327.931 273.334 317.858 267.395L316.864 266.788L316.561 266.571L306.747 259.939C291.875 249.796 272.333 236.574 256.769 225.911C259.363 226.171 263.859 222.616 267.577 217.198C271.209 211.909 272.895 206.491 271.858 204.107C287.551 213.513 306.098 224.437 321.187 233.367V232.933C320.971 224.307 320.538 214.294 320.236 207.228V207.184C320.236 206.447 320.193 205.797 320.149 205.147C319.587 189.889 318.377 174.63 317.123 159.371C316.345 151.049 322.484 143.679 330.785 142.986C338.437 142.336 345.225 147.581 346.695 154.95C348.338 162.926 349.721 170.989 350.715 179.095C352.747 195.35 353.915 211.649 353.439 227.992Z" fill="#7799F2"/>
<path d="M258.066 70.681C250.197 76.7931 239.692 77.4 235.368 71.7647C231.045 66.1295 233.034 59.3238 240.945 53.2117C248.814 47.143 259.622 44.0653 263.946 49.7005C268.269 55.3358 265.934 64.6123 258.066 70.681Z" fill="#071A2E"/>
<path d="M282.407 75.406C282.234 75.3626 282.104 75.2326 282.061 75.0592C282.061 75.0158 281.369 71.678 278.775 70.5943C276.181 69.5106 274.062 70.7677 274.062 70.7677C273.846 70.8978 273.544 70.8111 273.414 70.5943C273.284 70.3776 273.371 70.0741 273.587 69.9441C273.673 69.9007 276.138 68.4269 279.164 69.7274C282.19 71.0278 282.969 74.7124 282.969 74.8858C283.012 75.1459 282.839 75.3626 282.623 75.4493C282.579 75.4493 282.493 75.4493 282.407 75.406Z" fill="#340000"/>
<path d="M255.775 196.564C255.775 196.564 255.775 196.564 255.775 196.608C255.645 196.564 255.559 196.477 255.472 196.477C255.645 196.477 255.775 196.521 255.775 196.564Z" fill="#FFB398"/>
<path d="M330.309 239.739C327.759 240.736 323.781 236.444 321.144 233.02C320.928 224.394 320.495 214.38 320.193 207.314C320.798 211.519 322.398 218.151 326.678 221.143C333.163 225.737 334.46 238.135 330.309 239.739Z" fill="#658DC9"/>
<path d="M322.052 135.487C318.463 144.72 312.8 163.013 308.606 194.007L299.44 192.75C303.634 162.102 309.168 143.376 313.016 133.189C315.437 133.709 317.815 134.316 320.106 134.966C320.755 135.097 321.403 135.27 322.052 135.487Z" fill="#26457A"/>
<path d="M300.089 123.956V157.811H257.59V123.956C257.59 125.343 267.102 126.47 278.861 126.47C290.621 126.47 300.089 125.343 300.089 123.956Z" fill="#7799F2"/>
<path d="M298.187 86.2864C297.884 86.5031 295.722 98.6406 291.745 107.917C285.908 121.398 274.581 136.96 292.783 140.862C310.984 144.763 316.302 132.669 333.292 139.908C333.292 139.908 306.747 95.3895 306.358 94.9127C305.969 94.4358 298.187 86.2864 298.187 86.2864Z" fill="#071A2E"/>
<path d="M330.352 245.938C330.179 245.938 330.006 245.807 329.92 245.634C325.683 234.45 316.474 231.156 316.388 231.156C316.129 231.069 315.999 230.809 316.085 230.549C316.172 230.289 316.431 230.159 316.691 230.245C316.777 230.289 326.418 233.67 330.785 245.287C330.871 245.504 330.741 245.807 330.525 245.894C330.439 245.938 330.396 245.938 330.352 245.938Z" fill="#340000"/>
<path d="M321.144 233.887C320.884 233.887 320.711 233.713 320.668 233.453L318.766 189.238C318.593 185.554 319.068 181.912 320.106 178.401L321.619 173.416C321.706 173.156 321.965 173.026 322.181 173.113C322.441 173.199 322.57 173.459 322.484 173.676L320.971 178.661C319.933 182.086 319.501 185.597 319.63 189.195L321.533 233.41C321.619 233.67 321.403 233.887 321.144 233.887Z" fill="#340000"/>
<path d="M245.874 76.2729C236.363 76.2729 232.774 67.7333 232.731 67.6466C232.645 67.4299 232.731 67.1265 232.991 67.0398C233.207 66.9531 233.509 67.0398 233.596 67.2998C233.769 67.69 237.444 76.403 247.69 75.2759C252.532 74.7124 256.596 70.811 260.919 66.6063C265.848 61.838 271.468 56.4195 279.121 55.5525C291.745 54.122 295.766 61.1444 296.155 63.1384C296.284 63.832 295.982 64.0054 295.809 64.0487C295.549 64.1354 295.29 63.962 295.247 63.7453C295.204 63.6153 295.247 63.4852 295.29 63.3985C295.247 63.0084 294.728 61.4912 293.085 59.9307C290.967 57.8933 286.816 55.5959 279.25 56.4628C271.901 57.2864 266.626 62.3582 261.568 67.2565C257.115 71.548 252.964 75.5793 247.776 76.1429C247.085 76.2296 246.479 76.2729 245.874 76.2729Z" fill="#02090F"/>
<path d="M289.367 76.4464C285.563 80.8245 285.26 86.8499 288.762 89.8843C292.264 92.962 298.143 91.8783 301.991 87.5435C305.796 83.1653 306.098 77.14 302.597 74.1056C299.095 71.0279 293.172 72.0682 289.367 76.4464Z" fill="#FFB398"/>
<path d="M301.732 82.0384C301.689 82.0384 301.645 82.0384 301.602 81.995C301.343 81.9083 301.213 81.6483 301.3 81.3882C301.386 81.1714 301.386 80.0877 300.738 79.0474C300.132 78.0504 299.095 77.4868 297.711 77.3134C294.08 76.88 292.177 80.5212 292.134 80.5645C292.004 80.7813 291.745 80.868 291.529 80.7813C291.313 80.6512 291.226 80.3912 291.313 80.1744C291.399 80.001 293.561 75.9263 297.798 76.4465C299.916 76.7066 300.997 77.7469 301.516 78.6139C302.294 79.871 302.337 81.2581 302.164 81.7349C302.121 81.9083 301.948 82.0384 301.732 82.0384Z" fill="#B35844"/>
<path d="M248.814 249.232V249.449C248.814 249.493 248.727 249.362 248.814 249.232Z" fill="#162847"/>
<path d="M217.124 177.404C216.864 177.448 209.688 169.905 202.424 170.382C194.988 170.859 193.605 181.522 189.109 186.984C187.206 189.282 189.8 191.319 194.988 188.198C200.522 184.86 204.543 179.181 204.543 179.181L217.124 177.404Z" fill="#FFB398"/>
<path d="M247.733 206.187C242.848 201.809 236.406 197.084 230.872 193.66C226.722 191.059 220.972 192.013 218.334 192.706C217.037 193.053 215.222 192.619 214.097 191.926C212.93 191.232 212.8 189.802 214.616 189.152C218.075 187.981 223.652 185.597 225.771 184.643C230.353 182.563 232.904 183.776 236.622 185.814C243.323 189.455 248.468 192.489 254.996 196.261C262.605 201.202 254.694 211.996 247.733 206.187Z" fill="#FFB398"/>
<path d="M212.022 214.857L233.985 210.739C236.319 210.305 237.53 207.705 236.406 205.624L211.979 161.495C210.985 159.718 208.953 158.808 206.964 159.198L186.125 163.706C183.445 164.27 182.061 167.304 183.445 169.732L207.742 212.863C208.563 214.337 210.293 215.16 212.022 214.857Z" fill="#071A2E"/>
<path d="M210.855 215.117L232.818 210.999C235.152 210.566 236.363 207.965 235.239 205.884L210.768 161.799C209.774 160.022 207.742 159.111 205.753 159.501L184.915 163.966C182.234 164.53 180.851 167.564 182.234 169.992L206.532 213.123C207.396 214.64 209.126 215.464 210.855 215.117Z" fill="#071A2E"/>
<path d="M242.286 221.793L225.684 226.041C223.609 226.648 220.366 227.255 217.945 226.778L215.87 226.474C213.146 226.084 207.266 225.477 204.629 224.394C202.986 223.743 204.11 220.406 207.958 220.449C211.892 220.492 215.005 219.539 218.723 219.755C220.539 219.885 221.62 219.452 223.566 218.802L239.778 213.34C245.528 211.563 248.079 220.145 242.286 221.793Z" fill="#FFB398"/>
<path d="M245.485 222.963L229.964 227.731C228.667 228.078 228.235 227.905 227.327 227.948C226.333 227.948 217.383 224.654 217.383 224.654C213.536 224.437 214.66 220.102 218.507 219.842C221.663 219.625 224.733 220.796 227.846 220.492L227.5 220.579L242.632 214.597C248.295 212.56 251.235 221.013 245.485 222.963Z" fill="#FFB398"/>
<path d="M233.293 212.256L210.725 214.857L210.466 214.9C210.25 214.944 210.034 214.9 209.861 214.9L190.492 211.823C186.644 211.302 189.584 207.184 194.642 207.314L210.509 207.444L209.644 207.488L231.996 203.5C237.919 202.633 239.216 211.389 233.293 212.256Z" fill="#FFB398"/>
<path d="M232.774 217.718L213.189 223.05L212.973 223.093C212.671 223.18 211.936 223.483 210.812 223.267L192.264 221.099C188.633 220.882 191.27 217.241 196.112 217.415L211.46 216.244L230.353 209.785C235.714 208.225 238.135 216.114 232.774 217.718Z" fill="#FFB398"/>
<path d="M267.577 217.241C263.859 222.66 259.363 226.214 256.769 225.911C256.25 225.564 255.688 225.174 255.169 224.827C254.391 224.307 253.613 223.787 252.878 223.266C252.878 223.266 252.878 223.266 252.835 223.266C251.365 222.183 249.462 221.879 247.733 222.4L232.515 226.951L225.814 204.627C225.814 204.627 233.553 203.456 234.979 199.468C235.714 197.388 230.267 193.096 230.267 193.096C230.267 193.096 239.605 194.223 246.998 195.177C249.246 194.613 252.013 194.873 255.083 196.217C255.126 196.217 255.256 196.304 255.472 196.391C255.558 196.434 255.645 196.477 255.775 196.521C258.887 197.951 271.209 203.716 271.814 204.107C272.852 206.577 271.209 211.953 267.577 217.241Z" fill="#FFB398"/>
<path d="M215.178 222.963C214.962 222.963 214.789 222.833 214.746 222.616C214.66 222.356 214.833 222.096 215.092 222.053L228.105 218.585C228.365 218.498 228.624 218.672 228.667 218.932C228.754 219.192 228.581 219.452 228.321 219.495L215.308 222.963C215.265 222.963 215.222 222.963 215.178 222.963Z" fill="#B35844"/>
<path d="M211.893 215.204C211.676 215.204 211.504 215.074 211.46 214.814C211.417 214.554 211.59 214.337 211.806 214.25L225.987 211.389C226.246 211.346 226.462 211.519 226.549 211.736C226.592 211.996 226.419 212.213 226.203 212.3L212.022 215.161C211.936 215.204 211.893 215.204 211.893 215.204Z" fill="#B35844"/>
<path d="M222.787 227.168C222.571 227.168 222.355 226.994 222.312 226.778C222.269 226.518 222.441 226.301 222.701 226.257C223.004 226.171 228.148 224.697 231.521 223.743C231.78 223.657 232.039 223.83 232.083 224.047C232.169 224.307 231.996 224.567 231.78 224.61C229.186 225.347 223.09 227.124 222.874 227.168C222.831 227.168 222.831 227.168 222.787 227.168Z" fill="#B35844"/>
<path d="M186.774 180.916C186.774 180.916 179.597 183.95 183.488 191.449" stroke="#B35844" stroke-width="0.75" stroke-miterlimit="10" stroke-linecap="round"/>
<path d="M268.658 93.3955C268.658 93.3955 274.106 89.9277 277.391 92.5286" stroke="#340000" stroke-width="0.75" stroke-miterlimit="10" stroke-linecap="round"/>
<path d="M328.561 55.3538H325.127L323.933 58.1898L328.561 60.5781L329.904 56.9957L328.561 55.3538Z" fill="#4E7AEC"/>
<path d="M324.68 42.5169H321.097L319.754 38.1882L322.142 31.4712L335.278 28.4858L343.189 34.755L341.248 44.1589L333.337 46.3979L329.158 53.2641L326.769 51.4729L329.158 44.1589L337.183 38.7822L333.337 33.5609L324.083 36.6955L324.68 42.5169Z" fill="#4E7AEC"/>
<path d="M217.123 61.8648L214.706 63.2604L215.018 65.7428L219.247 65.5433L218.737 62.4748L217.123 61.8648Z" fill="#4E7AEC"/>
<path d="M209.172 54.4039L206.65 55.8602L203.944 53.3584L202.895 47.658L210.93 40.2161L219.049 41.4143L221.506 48.8245L216.846 53.6171L216.694 60.1507L214.284 59.8604L212.993 53.7396L216.458 46.6915L211.627 44.5784L206.385 50.5477L209.172 54.4039Z" fill="#4E7AEC"/>
<path d="M337.368 92.1353L334.89 91.4712L333.479 93.2875L336.357 95.9066L338.02 93.5804L337.368 92.1353Z" fill="#4E7AEC"/>
<path d="M337.049 82.118L334.463 81.425L334.331 78.0403L337.354 73.6534L347.414 74.0391L351.912 80.095L348.692 86.5081L342.548 86.5941L338.203 90.7423L336.826 88.9873L339.964 84.1694L346.798 81.8404L345.031 77.3274L337.744 77.8001L337.049 82.118Z" fill="#4E7AEC"/>
<rect x="108" y="43.6775" width="13.6774" height="49.0108" fill="#FF2574"/>
<rect x="113.699" y="30" width="2.27957" height="76.3656" fill="#FF2574"/>
<rect x="129.378" y="92.6882" width="13.6774" height="29.6344" fill="#4E7AEC"/>
<rect x="135.077" y="59.6345" width="2.27957" height="76.3656" fill="#4E7AEC"/>
<rect x="150.756" y="60.7742" width="13.6774" height="22.7957" fill="#FF2574"/>
<rect x="156.455" y="39.1182" width="2.27957" height="76.3656" fill="#FF2574"/>
<path d="M389.818 117.727L394.943 126.25H395.125L400.273 117.727H405.08L397.909 129.364L405.193 141H400.307L395.125 132.534H394.943L389.761 141H384.898L392.25 129.364L384.989 117.727H389.818ZM416.276 141H408.389V117.727H416.435C418.745 117.727 420.73 118.193 422.389 119.125C424.056 120.049 425.336 121.379 426.23 123.114C427.124 124.848 427.571 126.924 427.571 129.341C427.571 131.765 427.12 133.848 426.219 135.591C425.325 137.333 424.033 138.67 422.344 139.602C420.662 140.534 418.639 141 416.276 141ZM412.605 137.352H416.071C417.692 137.352 419.045 137.057 420.128 136.466C421.211 135.867 422.026 134.977 422.571 133.795C423.116 132.606 423.389 131.121 423.389 129.341C423.389 127.561 423.116 126.083 422.571 124.909C422.026 123.727 421.219 122.845 420.151 122.261C419.09 121.67 417.772 121.375 416.196 121.375H412.605V137.352Z" fill="#9EB8F9"/>
<path d="M462.065 169.545V187H459.253L451.028 175.111H450.884V187H447.722V169.545H450.551L458.767 181.443H458.92V169.545H462.065ZM465.511 187V169.545H472.056C473.397 169.545 474.522 169.795 475.431 170.295C476.346 170.795 477.036 171.483 477.502 172.358C477.974 173.227 478.21 174.216 478.21 175.324C478.21 176.443 477.974 177.437 477.502 178.307C477.031 179.176 476.335 179.861 475.414 180.361C474.494 180.855 473.36 181.102 472.013 181.102H467.675V178.503H471.587C472.371 178.503 473.013 178.366 473.513 178.094C474.013 177.821 474.383 177.446 474.621 176.969C474.866 176.491 474.988 175.943 474.988 175.324C474.988 174.705 474.866 174.159 474.621 173.688C474.383 173.216 474.011 172.849 473.505 172.588C473.005 172.321 472.36 172.188 471.57 172.188H468.673V187H465.511Z" fill="#9EB8F9"/>
<path d="M379.273 206.261V202.727H397.841V206.261H390.648V226H386.466V206.261H379.273ZM410.659 202.727V226H406.443V206.83H406.307L400.864 210.307V206.443L406.648 202.727H410.659Z" fill="#9EB8F9"/>
</g>
<defs>
<clipPath id="clip0_851_25550">
<rect width="540" height="330" fill="white"/>
</clipPath>
</defs>
</svg>
