<svg width="540" height="330" viewBox="0 0 540 330" fill="none" xmlns="http://www.w3.org/2000/svg">
<g clip-path="url(#clip0_807_31548)">
<path d="M43.5878 339.236C43.5878 339.236 -20.1513 266.422 6.52508 180.727C30.3589 103.874 138.267 54.0941 195.665 92.1931C223.325 110.642 245.738 36.6276 337.793 9.55438C405.906 -10.5322 506.598 34.4442 481.015 171.993C461.554 276.575 557.983 224.502 536.992 340L43.5878 339.236Z" fill="#E9EFFF"/>
<path d="M208.084 330.4H167.701L158.102 275.674H157.992H157.33L150.048 330.4H109.886L109.666 278.212V277.991L109.445 262.545L109.114 243.236L108.893 231.982H196.609L198.043 245.663L198.485 249.746H198.595L208.084 330.4Z" fill="#071A2E"/>
<path d="M158.433 263.207C157.109 263.207 155.675 263.207 154.241 263.207C123.788 262.986 109.114 257.359 107.459 256.587L107.9 244.34C108.011 244.45 122.685 250.739 153.248 251.291C182.266 251.842 197.933 244.56 198.154 244.56L199.809 256.145C199.257 256.476 184.803 262.876 158.433 263.207Z" fill="#4E7AEC"/>
<path d="M204.994 198.55C205.656 205.612 205.987 212.453 205.987 218.631C205.987 234.63 203.67 246.767 199.698 250.959C199.698 250.959 187.341 258.352 150.6 257.028C115.513 255.704 108.783 250.297 108.783 250.297C101.832 243.677 99.8458 218.962 105.252 188.841C107.459 176.373 105.804 166.554 103.156 158.168C99.5148 146.914 93.8877 138.087 92.8947 128.488C91.6811 116.903 101.501 107.856 111.21 103.001C115.734 100.684 120.368 98.8083 125.112 97.2636C126.988 96.7119 128.864 96.1603 130.739 95.6086C145.524 91.8572 160.971 91.8572 175.756 95.3879C177.742 95.8293 179.728 96.3809 181.714 97.0429C186.017 98.3669 195.616 101.677 201.133 105.428C211.063 112.269 215.917 121.537 216.469 134.557C217.131 152.1 202.788 176.594 204.994 198.55Z" fill="#7799F2"/>
<path d="M176.087 97.3739C176.087 104.215 165.936 109.842 153.358 109.842C140.78 109.842 130.629 104.215 130.629 97.3739C130.629 96.8223 130.739 96.2706 130.85 95.6086C132.063 95.2776 133.277 95.0569 134.491 94.7259C146.848 92.0779 159.647 92.0779 172.115 94.5053C173.328 94.7259 174.652 95.0569 175.866 95.2776C175.976 96.0499 176.087 96.7119 176.087 97.3739Z" fill="#4E7AEC"/>
<path d="M172.115 95.4983C172.115 101.236 163.729 105.87 153.248 105.87C142.876 105.87 134.38 101.236 134.38 95.4983C134.38 95.2776 134.38 95.0569 134.38 94.8363C146.738 92.1883 159.537 92.1883 172.004 94.6156C172.115 94.9466 172.115 95.1673 172.115 95.4983Z" fill="#FFB398"/>
<path d="M146.407 79.3896L162.074 78.9482V33.4905L138.683 34.8145C132.284 34.9248 129.857 39.0072 130.629 45.8479L132.284 65.4874C132.394 76.0795 139.014 78.2862 146.407 79.3896Z" fill="#071A2E"/>
<path d="M164.722 64.2737H140.559V101.346H164.722V64.2737Z" fill="#FFB398"/>
<path d="M150.048 87.5544C150.048 87.5544 156.999 91.4161 164.722 91.7471V87.3337L150.048 87.5544Z" fill="#340000"/>
<path d="M156.227 89.0989H160.088C167.481 89.0989 173.549 83.0305 173.549 75.6381V42.2068H140.559V73.4314C140.559 82.0375 147.51 89.0989 156.227 89.0989Z" fill="#FFB398"/>
<path d="M141.221 71.7764C141.221 71.7764 145.304 69.9008 143.869 63.06C142.435 56.109 144.862 52.9093 146.738 52.9093C148.614 52.9093 137.028 40.6622 136.697 40.9932C136.256 41.3242 135.373 50.0406 135.373 50.0406L135.925 63.06L138.132 71.7764H141.221Z" fill="#071A2E"/>
<path d="M143.538 78.7713C145.58 76.429 144.779 72.3876 141.747 69.7445C138.716 67.1014 134.603 66.8575 132.561 69.1998C130.518 71.5421 131.32 75.5836 134.351 78.2267C137.382 80.8698 141.495 81.1136 143.538 78.7713Z" fill="#FFB398"/>
<path d="M151.924 66.9219C151.482 68.0253 151.813 69.1286 152.586 69.4596C153.358 69.7906 154.351 69.1286 154.792 68.0253C155.234 66.9219 154.903 65.8186 154.13 65.4876C153.248 65.1566 152.255 65.8186 151.924 66.9219Z" fill="#340000"/>
<path d="M165.826 66.9219C165.384 68.0253 165.715 69.1286 166.488 69.4596C167.26 69.7906 168.253 69.1286 168.694 68.0253C169.136 66.9219 168.805 65.8186 168.032 65.4876C167.26 65.1566 166.267 65.8186 165.826 66.9219Z" fill="#340000"/>
<path d="M127.65 127.275L127.209 130.916C126.657 133.453 125.443 137.536 124.892 140.184C122.133 150.114 119.706 160.044 117.499 170.084C114.851 182.111 112.755 194.358 111.21 206.495L110.99 207.708C110.879 208.15 110.879 208.481 110.769 208.812C109.776 213.115 107.569 216.425 104.7 218.632C101.501 221.059 97.6391 222.273 93.7774 222.273C89.9157 222.273 86.1643 221.059 83.075 218.632C79.8753 216.094 77.4479 212.342 76.6756 207.267C76.6756 206.936 76.5652 206.605 76.5652 206.164C76.3446 204.288 76.1239 202.523 76.0136 200.647C75.0206 187.076 76.5652 173.394 79.4339 160.265C82.6336 146.142 87.2677 132.46 93.9981 119.772L95.5427 117.014C100.066 108.739 110.548 105.649 118.823 110.283C125.223 113.704 128.422 120.544 127.65 127.275Z" fill="#7799F2"/>
<path d="M205.987 218.631C205.987 234.63 203.67 246.767 199.698 250.959C199.698 250.959 187.341 258.352 150.6 257.028C115.513 255.704 108.783 250.297 108.783 250.297C101.832 243.677 99.8458 218.962 105.252 188.841C107.459 176.373 113.748 177.146 114.189 164.568L113.307 148.128C113.307 148.128 125.554 171.85 121.582 185.09C117.61 198.33 106.135 223.486 119.375 237.94C132.615 252.394 183.259 248.973 191.423 235.623C199.588 222.272 186.348 197.999 187.341 197.778C188.003 197.447 197.381 208.37 205.987 218.631Z" fill="#4E7AEC"/>
<path d="M231.364 209.253C231.254 209.694 231.254 210.136 231.144 210.577V210.687C231.144 210.798 231.144 210.908 231.144 211.018C229.599 220.507 220.662 226.906 211.173 225.362C210.511 225.251 209.739 225.141 209.187 224.92C207.642 224.479 206.208 223.817 204.884 222.934C200.029 219.955 196.94 214.659 196.719 208.812C196.057 202.743 195.285 196.565 194.182 190.055C191.975 177.587 188.996 165.009 185.796 152.541C185.576 151.879 185.465 151.107 185.245 150.445C183.7 144.266 181.162 135.219 179.838 129.04C176.197 109.29 202.346 100.022 212.056 117.234C223.089 138.529 229.93 161.478 232.026 185.531C232.468 193.255 232.468 201.199 231.364 209.253Z" fill="#7799F2"/>
<path d="M144.973 189.393C138.463 196.013 134.491 199.433 127.098 205.06C122.354 208.591 118.603 211.018 114.741 213.335C111.762 215.101 108.562 216.645 104.811 218.631C104.039 218.962 103.266 219.404 102.494 219.845C99.4045 221.39 96.5358 222.162 93.7774 222.383C89.4744 222.603 85.8334 221.169 83.075 218.742C80.2063 216.204 78.2203 212.673 77.448 208.812C76.5653 204.398 77.3376 199.654 80.2063 195.682C87.9297 184.759 103.708 175.711 117.499 170.195C121.471 168.65 125.223 167.326 128.643 166.443C135.373 163.906 141.001 167.988 144.311 173.725C147.179 178.801 149.055 185.2 144.973 189.393Z" fill="#7799F2"/>
<path d="M224.744 219.404C222.427 222.273 219.228 224.369 215.587 225.031C213.38 225.472 211.173 225.362 209.077 224.81C207.642 224.479 206.318 223.928 204.994 223.266C202.677 221.942 200.581 220.176 198.926 218.08C191.423 208.922 184.472 197.668 179.397 187.076C177.08 182.001 175.976 176.705 173.99 171.739C172.115 166.995 173.549 161.589 177.521 158.389C179.066 157.175 180.831 155.851 182.817 154.527C183.921 153.865 184.803 153.203 185.796 152.652C186.679 152.1 187.451 151.659 188.113 151.217C193.189 148.128 199.809 149.342 203.45 153.976C211.063 163.575 218.897 175.491 223.31 185.421C225.737 191.158 227.834 196.896 229.047 203.185C230.151 208.812 228.385 214.991 224.744 219.404Z" fill="#7799F2"/>
<path d="M114.41 162.14L113.748 171.629C111.983 172.401 109.997 173.284 108.011 174.277C98.1908 178.911 91.2397 184.207 87.2677 187.848C85.1714 187.628 82.9647 186.524 82.8543 183.214C82.744 175.16 93.7774 174.498 104.039 170.084C113.858 165.892 113.969 152.21 113.858 151.217C114.52 157.948 114.41 162.14 114.41 162.14Z" fill="#4E7AEC"/>
<path d="M115.293 213.777C112.314 215.542 110.438 216.425 106.687 218.411C108.893 217.308 97.7494 222.273 93.7774 222.273C89.4744 222.493 85.8333 221.059 83.075 218.632C79.8753 216.094 77.4479 212.343 76.6756 207.267C76.6756 206.936 76.5652 206.605 76.5652 206.164C76.7859 206.936 77.1169 207.819 77.4479 208.702C78.9926 211.791 81.9716 214.66 88.04 214.77C96.7564 214.88 105.363 210.467 110.769 208.812C113.638 207.929 115.182 208.039 116.175 209.695C116.837 210.688 116.506 212.563 115.293 213.777Z" fill="#4E7AEC"/>
<path d="M82.744 192.703C82.6336 192.703 82.6336 192.703 82.5233 192.593C82.413 192.482 82.413 192.262 82.5233 192.151C82.6336 192.041 84.068 190.276 86.9367 187.628C91.019 183.987 97.8598 178.691 107.79 174.057C112.534 171.85 116.065 170.305 119.044 169.092C130.188 164.458 135.704 164.016 138.021 167.547C138.132 167.657 138.021 167.878 137.911 167.988C137.801 168.099 137.58 167.988 137.47 167.878C135.373 164.678 130.188 165.12 119.265 169.643C116.286 170.857 112.865 172.402 108.121 174.608C98.3011 179.242 91.4604 184.538 87.378 188.179C84.5093 190.827 83.075 192.593 82.9646 192.593C82.8543 192.593 82.744 192.703 82.744 192.703Z" fill="#4E7AEC"/>
<path d="M93.3361 222.714C92.8947 222.714 92.4534 222.714 92.1224 222.603C91.9017 222.603 91.7914 222.383 91.7914 222.272C91.7914 222.052 92.012 221.941 92.1224 221.941C105.142 223.597 140.78 197.227 144.752 190.055C148.724 182.883 145.193 179.242 145.193 179.132C145.083 179.021 145.083 178.801 145.193 178.69C145.304 178.58 145.524 178.58 145.635 178.69C145.635 178.69 149.496 182.773 145.304 190.386C141.442 197.447 107.459 222.714 93.3361 222.714Z" fill="#4E7AEC"/>
<path d="M101.721 177.477C92.8947 175.381 85.392 177.477 85.2817 177.477C85.061 177.477 84.9507 177.477 84.8403 177.256C84.8403 177.036 84.8403 176.925 85.061 176.815C85.1713 176.815 92.8947 174.608 101.721 176.815C101.942 176.815 102.052 177.036 101.942 177.256C102.052 177.367 101.832 177.477 101.721 177.477Z" fill="#4E7AEC"/>
<path d="M221.324 191.71C220 187.848 216.469 177.808 211.835 167.547C215.035 174.939 222.979 176.153 225.186 182.331C226.841 186.855 224.082 189.944 221.324 191.71Z" fill="#4E7AEC"/>
<path d="M113.638 171.96C113.417 171.96 113.307 171.739 113.307 171.629L114.079 162.14C114.079 162.14 114.189 157.837 113.417 151.327V151.217C112.755 145.149 111.541 139.191 109.886 133.564C105.583 118.338 95.9841 116.02 95.8738 116.02C95.6531 116.02 95.5428 115.8 95.6531 115.689C95.6531 115.469 95.8738 115.358 95.9841 115.469C96.0944 115.469 106.025 117.786 110.548 133.453C112.203 139.08 113.307 145.038 114.079 151.217V151.327C114.851 157.837 114.741 162.14 114.741 162.251L113.969 171.739C113.969 171.85 113.858 171.96 113.638 171.96Z" fill="#4E7AEC"/>
<path d="M114.41 155.851C114.189 155.851 114.079 155.631 114.079 155.52C115.072 150.004 117.61 135.44 117.72 134.888C117.72 134.667 117.83 134.557 118.051 134.557C118.272 134.557 118.382 134.667 118.382 134.888C118.382 135.44 115.403 152.21 114.741 155.631C114.631 155.741 114.52 155.851 114.41 155.851Z" fill="#4E7AEC"/>
<path d="M221.876 193.696C221.765 193.696 221.655 193.586 221.545 193.475L220.993 191.82C219.669 187.959 216.028 177.808 211.504 167.657C210.401 165.12 209.077 162.472 207.863 160.044C201.574 147.687 194.182 149.011 191.092 149.673C190.32 149.783 189.989 149.893 189.658 149.783C189.437 149.783 189.437 149.562 189.437 149.342C189.437 149.121 189.658 149.121 189.879 149.121C189.989 149.121 190.541 149.121 190.982 149.011C194.292 148.349 201.905 146.914 208.525 159.824C209.849 162.361 211.063 164.899 212.166 167.437C216.8 177.587 220.331 187.738 221.655 191.71L222.207 193.365C222.207 193.475 222.096 193.586 221.876 193.696Z" fill="#4E7AEC"/>
<path d="M231.144 210.687C231.144 210.798 231.144 210.908 231.144 211.018C229.599 220.507 220.662 226.906 211.173 225.362C210.511 225.251 209.739 225.141 209.187 224.92C207.753 224.589 206.429 224.038 205.105 223.376L204.884 223.045L204.663 222.714C204.222 222.493 199.478 217.749 201.353 213.335C203.891 207.377 212.938 208.701 220.331 216.645C222.096 218.521 223.641 219.404 224.965 219.514C228.496 219.735 230.371 214.439 231.144 210.687Z" fill="#4E7AEC"/>
<path d="M152.917 178.801L146.628 183.214C146.517 183.214 146.517 183.324 146.407 183.324C145.083 183.655 141.663 180.787 138.573 176.484C135.373 172.07 133.608 167.878 134.491 166.885L134.601 166.774L140.89 162.471C140.89 162.471 140.78 162.471 140.78 162.582C139.897 163.575 141.663 167.767 144.862 172.181C147.952 176.484 151.372 179.352 152.696 179.021C152.806 178.911 152.917 178.801 152.917 178.801Z" fill="#4E7AEC"/>
<path d="M153.248 178.139C153.248 178.47 153.137 178.69 152.917 178.801C152.806 178.801 152.806 178.911 152.696 178.911C152.034 179.132 150.71 178.359 149.165 176.925C147.841 175.711 146.297 174.056 144.862 172.07C142.545 168.871 140.89 165.781 140.559 163.906C140.449 163.243 140.449 162.692 140.78 162.471L140.89 162.361C141 162.25 141.111 162.25 141.221 162.25C141.552 162.25 141.993 162.361 142.435 162.581C144.09 163.464 146.517 165.892 148.945 169.091C150.931 171.739 152.365 174.387 152.917 176.263C153.248 177.035 153.358 177.697 153.248 178.139Z" fill="#340000"/>
<path d="M187.451 145.811C187.562 146.362 187.01 147.355 186.017 148.459C185.245 149.342 184.141 150.335 182.928 151.328C182.155 151.99 181.162 152.652 180.279 153.314C175.756 156.293 171.453 157.837 170.46 156.955L170.349 156.844C170.239 156.734 170.239 156.624 170.239 156.513C170.129 155.079 173.218 151.99 177.521 149.121C177.742 149.011 177.852 148.9 178.073 148.79C180.5 147.245 182.707 146.142 184.472 145.59C185.465 145.259 186.238 145.149 186.789 145.259C187.12 145.259 187.341 145.369 187.451 145.59C187.341 145.7 187.341 145.811 187.451 145.811Z" fill="#340000"/>
<path d="M212.607 225.252C198.816 225.252 188.003 204.398 180.831 190.386C178.956 186.635 177.19 183.435 175.866 181.118C170.018 171.85 171.122 165.892 171.673 164.237C172.004 163.023 172.556 162.14 173.108 161.92C173.218 161.809 173.439 161.92 173.549 162.03C173.659 162.14 173.549 162.361 173.439 162.471C173.108 162.582 172.666 163.244 172.335 164.347C171.894 165.892 170.791 171.739 176.528 180.677C177.963 182.994 179.618 186.193 181.604 189.945C188.665 203.736 199.367 224.369 212.828 224.369C213.159 224.369 213.49 224.369 213.821 224.369C214.042 224.369 214.152 224.479 214.152 224.7C214.152 224.921 214.042 225.031 213.821 225.031C213.269 225.252 212.938 225.252 212.607 225.252Z" fill="#4E7AEC"/>
<path d="M225.186 187.186C225.075 187.186 224.965 187.076 224.855 186.966C224.524 186.193 220.883 179.684 215.035 175.712C214.924 175.601 214.814 175.381 214.924 175.27C215.035 175.16 215.255 175.05 215.366 175.16C221.986 179.573 225.406 186.635 225.406 186.745C225.517 186.855 225.406 187.076 225.186 187.186Z" fill="#4E7AEC"/>
<path d="M200.471 150.997C200.36 150.997 200.14 150.886 200.14 150.666C200.14 150.555 199.698 144.708 200.14 129.702C200.581 115.8 206.318 112.6 207.422 112.159C207.863 111.938 208.084 111.938 208.194 112.049C208.304 112.159 208.304 112.38 208.194 112.49C208.084 112.6 207.973 112.6 207.973 112.6C207.642 112.711 201.243 115.028 200.802 129.702C200.36 144.708 200.802 150.445 200.802 150.555C200.802 150.776 200.691 150.997 200.471 150.997Z" fill="#4E7AEC"/>
<path d="M149.496 65.9288C149.386 65.9288 149.276 65.9288 149.276 65.8185C149.165 65.7082 149.165 65.4875 149.276 65.3772C149.386 65.2668 151.813 63.2808 154.682 63.5015C154.903 63.5015 155.013 63.7221 155.013 63.8325C155.013 64.0531 154.903 64.1635 154.682 64.1635C152.144 63.9428 149.827 65.9288 149.827 65.9288C149.717 65.9288 149.607 65.9288 149.496 65.9288Z" fill="#340000"/>
<path d="M170.57 66.3702C170.46 66.3702 170.349 66.3702 170.349 66.2598C169.798 65.2668 168.474 64.1635 165.715 64.1635H165.605C165.384 64.1635 165.274 64.0531 165.274 63.8325C165.274 63.6118 165.495 63.5015 165.605 63.5015H165.715C168.805 63.5015 170.239 64.8255 170.901 65.9288C171.011 66.0392 170.901 66.2598 170.791 66.3702C170.68 66.3702 170.57 66.3702 170.57 66.3702Z" fill="#340000"/>
<path d="M160.53 73.7626C160.419 73.7626 160.309 73.7626 160.088 73.7626L158.323 73.5419C158.102 73.5419 157.992 73.3212 158.102 73.2109C158.213 73.1005 158.323 72.8799 158.433 72.9902L160.199 73.2109C160.861 73.3212 161.633 73.1005 162.074 72.5489C162.516 71.9972 162.736 71.3352 162.626 70.5629L161.523 65.3771C161.523 65.1565 161.633 65.0461 161.743 65.0461C161.964 65.0461 162.074 65.1565 162.074 65.2668L163.178 70.4525C163.398 71.3352 163.067 72.3282 162.516 72.9902C161.964 73.5419 161.302 73.7626 160.53 73.7626Z" fill="#B35844"/>
<path d="M161.964 79.7204C161.633 80.9341 159.426 81.4858 157.109 80.8238C154.682 80.1617 153.027 78.6171 153.358 77.4034C153.689 76.1897 155.896 75.638 158.213 76.3C160.64 76.9621 162.295 78.5067 161.964 79.7204Z" fill="#340000"/>
<path d="M185.796 153.424L178.735 149.231L175.866 147.576C173.88 145.259 171.673 142.942 169.467 140.735L169.025 141.728C168.584 142.832 168.253 143.714 167.812 144.487C167.812 144.597 167.701 144.708 167.701 144.708C167.26 145.701 166.819 146.694 166.157 148.018C164.943 150.666 161.081 150.224 161.854 148.238C162.185 146.804 162.626 145.259 162.957 143.825C163.288 142.832 163.509 141.728 163.84 140.735C164.171 139.742 164.502 138.749 164.833 137.756C165.164 136.874 165.826 136.101 166.598 135.66C168.474 134.557 171.122 134.557 172.777 136.212C177.742 140.956 182.486 145.259 185.576 151.769C185.796 152.321 185.907 152.872 185.796 153.424Z" fill="#FFB398"/>
<path d="M167.481 136.212C166.708 136.653 176.528 146.914 176.197 147.797C175.866 148.79 170.901 144.266 170.57 145.259L163.619 140.515C162.957 141.839 162.405 142.722 161.854 143.604C161.412 144.487 160.861 145.259 160.088 146.473C158.985 148.349 154.682 148.68 155.454 146.473C155.785 145.48 156.337 144.156 156.778 142.832C157.551 140.735 158.433 138.749 158.875 137.867C159.868 134.777 164.943 134.115 167.481 136.212Z" fill="#FFB398"/>
<path d="M187.341 145.59L191.423 151.99C191.423 152.1 191.534 152.1 191.534 152.21C191.865 153.534 188.775 156.734 184.362 159.713C179.838 162.692 175.535 164.237 174.542 163.354C174.542 163.354 174.542 163.244 174.432 163.244L170.349 156.734C170.349 156.734 170.349 156.844 170.46 156.844C171.453 157.837 175.756 156.293 180.28 153.203C184.693 150.335 187.782 147.025 187.451 145.701C187.341 145.811 187.341 145.701 187.341 145.59Z" fill="#5C2D17"/>
<path d="M167.481 144.376L167.812 144.487C167.812 144.597 167.701 144.707 167.701 144.707C167.591 144.597 167.481 144.487 167.481 144.376Z" fill="#FFB398"/>
<path d="M134.822 76.19C134.711 76.19 134.601 76.19 134.601 76.0797C134.491 75.9693 132.836 73.4316 134.049 71.0043C135.263 68.6873 137.911 70.1216 139.235 70.7836L139.456 70.8939C139.566 71.0043 139.676 71.1146 139.566 71.3353C139.456 71.4456 139.345 71.5559 139.125 71.4456L138.904 71.3353C137.249 70.4526 135.484 69.7906 134.601 71.3353C133.498 73.4316 135.153 75.6383 135.153 75.7486C135.263 75.859 135.263 76.0797 135.042 76.19C134.932 76.19 134.822 76.19 134.822 76.19Z" fill="#B35844"/>
<path d="M142.766 168.981C142.545 168.65 142.325 168.319 142.104 167.878C142.325 168.209 142.545 168.54 142.766 168.981Z" fill="#FFB398"/>
<path d="M142.214 140.735V157.948L163.619 178.028V154.637L142.214 140.735Z" fill="#944422"/>
<path d="M197.823 160.596V181.118L163.619 178.029V154.638L197.823 160.596Z" fill="#AD5E3D"/>
<path d="M167.812 144.487C167.812 144.597 167.701 144.707 167.701 144.707C167.591 144.597 167.481 144.487 167.481 144.376L167.812 144.487Z" fill="#FFB398"/>
<path d="M197.823 160.596L163.619 154.637L142.214 140.735L156.889 142.832C156.337 144.156 155.896 145.48 155.565 146.473C154.792 148.679 159.095 148.348 160.199 146.473C160.971 145.259 161.412 144.376 161.964 143.604L163.067 143.825C162.626 145.259 162.295 146.804 161.964 148.238C161.302 150.334 165.053 150.665 166.267 148.017C166.929 146.693 167.37 145.7 167.812 144.707C167.812 144.597 167.922 144.487 167.922 144.487L171.563 145.038L175.866 147.576L178.735 149.231L185.796 153.424L197.823 160.596Z" fill="#340000"/>
<path d="M157.771 157.947L157.22 175.601C157.22 175.601 155.234 175.932 152.917 176.373C151.703 176.594 150.269 176.815 149.055 177.035C147.731 175.822 146.186 174.167 144.752 172.181C143.98 171.077 143.207 169.974 142.656 168.981C142.435 168.65 142.214 168.209 141.994 167.878C141.221 166.333 140.67 165.009 140.449 164.126L141.883 163.133C141.883 162.912 141.883 162.692 141.883 162.581C142.325 158.389 143.207 154.196 144.642 150.114C145.966 146.473 145.524 141.508 145.193 137.425C145.083 134.998 148.724 137.094 149.276 139.411C150.048 142.39 150.931 145.369 150.6 148.79V148.679C150.82 148.569 149.386 156.844 157.771 157.947Z" fill="#FFB398"/>
<path d="M153.468 156.955C164.943 159.051 174.873 160.375 186.458 160.375C190.761 160.375 192.527 163.906 189.989 163.906C180.721 164.237 170.68 164.237 161.523 163.464C158.544 163.133 155.565 162.802 152.475 162.361C150.931 162.14 149.938 160.706 150.158 159.272C150.379 157.727 151.924 156.624 153.468 156.955Z" fill="#FFB398"/>
<path d="M152.806 162.361C164.722 163.906 174.652 164.568 186.679 165.23C190.43 165.45 192.968 168.76 189.327 168.981C176.859 169.533 164.612 168.54 152.144 167.326C148.945 166.664 149.496 161.92 152.806 162.361Z" fill="#FFB398"/>
<path d="M153.468 166.885C163.619 167.767 170.129 168.209 180.28 168.981C183.369 169.202 187.01 172.622 184.141 172.512C178.955 172.401 173.77 172.512 168.584 172.291C163.398 172.07 158.213 171.85 153.027 171.408C151.813 171.298 150.82 170.195 150.931 168.981C151.041 167.657 152.255 166.664 153.468 166.885Z" fill="#FFB398"/>
<path d="M153.468 170.967C162.736 171.739 168.694 172.181 178.073 172.291C180.5 172.291 182.707 175.932 179.728 175.932C170.239 176.153 162.626 176.373 153.137 176.042C149.717 175.711 150.048 170.746 153.468 170.967Z" fill="#FFB398"/>
<path d="M180.721 164.899C173.549 164.899 166.929 164.237 166.819 164.126C166.598 164.126 166.488 163.906 166.488 163.795C166.488 163.575 166.598 163.464 166.819 163.464C166.929 163.464 180.5 164.899 189.768 163.685C189.989 163.685 190.099 163.795 190.099 163.906C190.099 164.126 189.989 164.237 189.879 164.237C187.12 164.788 183.921 164.899 180.721 164.899Z" fill="#B35844"/>
<path d="M174.652 169.643C170.349 169.643 166.819 169.533 166.708 169.312C166.598 169.202 166.598 168.981 166.819 168.871C166.929 168.76 167.039 168.76 167.15 168.871C168.143 168.981 184.252 169.312 190.099 168.54C190.32 168.54 190.43 168.65 190.43 168.76C190.43 168.981 190.32 169.091 190.21 169.091C187.562 169.422 180.39 169.643 174.652 169.643Z" fill="#B35844"/>
<path d="M170.791 173.174C168.474 173.174 166.929 173.174 166.819 173.174C166.598 173.174 166.488 173.063 166.488 172.843C166.488 172.622 166.598 172.512 166.819 172.512C166.929 172.512 179.838 172.622 184.362 172.181C184.583 172.181 184.693 172.291 184.693 172.512C184.693 172.732 184.583 172.843 184.362 172.843C181.604 173.063 175.094 173.174 170.791 173.174Z" fill="#B35844"/>
<path d="M163.398 142.611C163.178 142.611 163.067 142.39 163.067 142.28C163.067 142.059 164.281 135.881 167.37 134.998C167.591 134.998 167.701 134.998 167.812 135.219C167.812 135.439 167.812 135.55 167.591 135.66C164.833 136.432 163.729 142.39 163.729 142.501C163.619 142.501 163.509 142.611 163.398 142.611Z" fill="#B35844"/>
<path d="M175.314 147.466C175.204 147.466 175.094 147.466 175.094 147.356C173.88 145.811 169.246 140.736 169.246 140.736C169.136 140.625 169.136 140.405 169.246 140.294C169.356 140.184 169.577 140.184 169.687 140.294C169.908 140.515 174.321 145.37 175.535 146.914C175.645 147.025 175.645 147.245 175.425 147.356L175.314 147.466Z" fill="#B35844"/>
<path d="M157.992 275.564V275.674H157.33L150.048 330.4H146.738L150.158 272.695C152.144 273.357 157.109 275.012 157.992 275.564Z" fill="#02090F"/>
<path d="M158.213 276.006C158.102 276.006 157.992 276.005 157.992 275.895C157.992 275.895 157.992 275.895 157.882 275.895C156.999 275.454 152.475 273.909 150.048 273.137C149.496 272.916 149.165 272.806 149.165 272.806C148.945 272.695 148.945 272.585 148.945 272.364C149.055 272.144 149.165 272.144 149.386 272.144C149.386 272.144 149.717 272.254 150.269 272.475C150.931 272.695 157.109 274.681 158.213 275.343C158.323 275.454 158.433 275.454 158.544 275.564C158.654 275.675 158.544 275.895 158.433 276.006C158.323 276.006 158.213 276.006 158.213 276.006Z" fill="#02090F"/>
<path d="M146.186 60.9637C149.607 59.5294 154.13 58.757 156.999 56.5504C157.771 55.8884 159.095 56.771 158.764 57.764C158.102 60.3017 155.234 61.5154 152.917 62.0671C151.813 62.2877 145.414 63.5014 145.635 61.6257C145.635 61.2947 145.855 61.0741 146.186 60.9637Z" fill="#02090F"/>
<path d="M173.77 61.8464C170.46 62.2877 166.157 61.8464 164.391 58.6467C164.06 57.8744 163.95 56.6607 164.943 56.44C165.384 56.3297 165.936 56.771 166.377 56.9917C167.812 57.8744 170.018 58.757 171.673 59.4191C172.446 59.7501 173.218 59.9707 173.88 60.3017C174.652 60.6327 174.542 61.7361 173.77 61.8464Z" fill="#02090F"/>
<path d="M154.903 45.9582C162.074 51.0335 166.377 57.3226 164.612 59.8603C162.736 62.398 155.454 60.412 148.283 55.2262C141.111 50.1509 136.808 43.8618 138.573 41.3241C140.449 38.7864 147.731 40.8828 154.903 45.9582Z" fill="#071A2E"/>
<path d="M182.126 54.0535C184.845 47.9263 176.979 38.4912 164.558 32.9796C152.136 27.468 139.863 27.9671 137.144 34.0942C134.425 40.2214 142.291 49.6565 154.712 55.1681C167.134 60.6797 179.407 60.1806 182.126 54.0535Z" fill="#071A2E"/>
<path d="M186.017 148.569C185.245 149.452 184.141 150.445 182.928 151.438L181.162 150.445L177.962 148.9L177.521 148.68C177.521 148.68 175.756 143.273 174.873 140.515C174.873 140.515 171.673 142.501 170.018 143.604C167.812 144.928 165.164 144.266 166.046 142.611C166.598 141.398 172.446 136.653 173.218 136.322C174.983 135.55 177.3 135.991 178.404 137.646C180.831 140.956 182.928 143.494 184.362 145.701C185.024 146.694 185.576 147.576 186.017 148.569Z" fill="#FFB398"/>
<path d="M171.673 32.2768C171.894 33.8214 168.253 35.5868 163.619 36.3591C158.985 37.0211 155.013 36.3591 154.682 34.9248C154.461 33.3801 158.102 31.6147 162.736 30.8424C167.37 30.0701 171.342 30.7321 171.673 32.2768Z" fill="#071A2E"/>
<path d="M160.419 61.1845C156.778 61.1845 151.041 57.9848 143.538 51.8061C142.104 50.5924 140.669 50.0408 139.676 50.1511C138.794 50.2614 138.352 50.8131 138.352 50.8131C138.242 50.9234 138.021 51.0338 137.911 50.9234C137.801 50.8131 137.69 50.5924 137.801 50.4821C137.801 50.4821 138.352 49.7098 139.566 49.5994C140.89 49.4891 142.324 50.0408 143.979 51.3648C153.358 59.1985 158.213 60.7432 160.64 60.6329C162.847 60.5225 164.281 59.8605 164.943 58.6468C165.495 57.5435 165.274 55.9988 164.391 54.5645C164.281 54.4541 164.391 54.2335 164.502 54.1231C164.612 54.0128 164.833 54.1231 164.943 54.2335C166.046 55.8885 166.267 57.6538 165.495 58.9778C164.943 59.9708 163.729 61.1845 160.64 61.2949C160.64 61.1845 160.53 61.1845 160.419 61.1845Z" fill="#02090F"/>
<path d="M175.314 39.89C175.204 39.89 175.204 39.8901 175.094 39.7797C167.701 33.4907 157.33 30.7323 157.22 30.622C156.999 30.622 156.999 30.4013 156.999 30.1806C156.999 29.96 157.22 29.96 157.44 29.96C157.551 29.96 168.032 32.7183 175.535 39.228C175.645 39.3384 175.645 39.5591 175.535 39.6694C175.535 39.8901 175.425 39.89 175.314 39.89Z" fill="#02090F"/>
<path d="M136.477 39.1177C136.256 39.0073 136.146 38.897 136.146 38.6763C136.146 38.566 136.146 38.3453 136.146 38.0143C136.146 36.4696 136.146 32.8286 139.345 30.9529C139.456 30.8426 139.676 30.9529 139.787 31.0633C139.897 31.1736 139.787 31.3943 139.676 31.5046C136.808 33.2699 136.808 36.4696 136.808 38.0143C136.808 38.4557 136.808 38.6763 136.697 38.897C136.808 39.0073 136.697 39.1177 136.477 39.1177Z" fill="#02090F"/>
<path d="M198.043 174.387C196.278 174.387 194.733 173.946 193.74 173.505L195.837 168.871L194.733 171.188L195.726 168.871C196.057 168.981 199.147 170.195 201.684 167.767C202.236 167.216 203.008 167.105 203.67 167.547L205.325 168.76C206.098 169.312 206.208 170.415 205.546 171.077C203.229 173.615 200.471 174.387 198.043 174.387Z" fill="#AD5E3D"/>
<path d="M203.56 169.753C204.001 170.636 203.67 171.739 202.788 172.291C201.905 172.843 200.802 172.512 200.25 171.739C199.809 170.857 200.14 169.753 201.022 169.202C201.905 168.65 203.008 168.871 203.56 169.753Z" fill="white"/>
<path d="M176.859 147.024C176.749 147.024 176.528 146.914 176.528 146.804C176.087 144.928 175.535 141.949 175.314 140.735C174.211 141.397 171.342 143.383 169.467 144.045C167.922 144.597 166.708 144.707 165.936 144.156C165.495 143.825 165.384 143.383 165.384 142.832C165.495 141.949 167.37 140.184 170.901 137.315C171.563 136.763 172.335 136.212 172.446 135.991C172.556 135.881 172.556 135.77 172.777 135.77C172.997 135.77 173.108 135.991 173.108 136.101C173.108 136.322 172.997 136.322 171.342 137.756C169.798 139.08 166.157 142.059 166.046 142.832C166.046 143.163 166.157 143.383 166.377 143.604C166.929 143.935 168.032 143.935 169.246 143.494C171.342 142.611 175.314 139.963 175.314 139.963C175.425 139.853 175.535 139.853 175.645 139.963C175.756 139.963 175.866 140.073 175.866 140.184C175.866 140.184 176.749 144.266 177.19 146.693C177.301 146.804 177.19 147.024 176.859 147.024C176.969 147.024 176.969 147.024 176.859 147.024Z" fill="#B35844"/>
<path d="M395.983 84.6856C398.521 91.5264 393.666 99.4704 385.391 102.56C377.006 105.649 368.289 102.56 365.752 95.8294C363.214 88.9887 368.069 81.0446 376.344 77.9552C384.729 74.8659 393.445 77.9552 395.983 84.6856Z" fill="#071A2E"/>
<path d="M381.419 132.571C370.165 138.418 357.476 132.791 357.476 120.985C357.476 116.903 358.359 112.269 360.786 108.076C362.993 104.215 366.634 100.794 372.041 98.1463C375.02 96.7119 377.999 95.7189 380.867 95.1672C389.142 93.5122 396.535 95.6086 399.072 100.794C402.493 107.745 392.783 126.723 381.419 132.571Z" fill="#071A2E"/>
<path d="M345.891 165.561C343.133 172.401 340.154 177.808 338.499 178.801C338.278 179.021 338.058 179.021 337.837 179.021C336.623 178.47 338.168 171.739 341.368 163.795C344.567 155.851 348.098 149.893 349.422 150.335C350.746 150.776 349.091 157.617 345.891 165.561Z" fill="#340000"/>
<path d="M381.419 132.571C370.165 138.418 357.476 132.791 357.476 120.985C357.476 116.903 358.359 112.269 360.786 108.076C360.345 109.952 360.124 112.49 361.117 114.145C362.883 117.234 371.268 115.469 377.557 107.745C381.198 103.332 381.309 98.5876 380.757 95.1672C389.032 93.5122 396.424 95.6086 398.962 100.794C402.493 107.745 392.783 126.723 381.419 132.571Z" fill="#02090F"/>
<path d="M397.086 198.882C393.887 199.985 390.577 199.213 387.487 197.999C385.722 197.227 383.626 196.234 381.419 195.13C380.536 194.689 379.654 194.248 378.661 193.696C377.888 193.255 377.006 192.813 376.123 192.262C375.902 192.151 375.682 192.041 375.461 191.931C374.909 191.6 374.247 191.269 373.696 190.938C373.475 190.827 373.365 190.717 373.144 190.607C369.503 188.51 365.31 185.862 359.021 181.78C355.49 179.463 339.933 168.76 339.933 168.76L348.981 157.175C349.312 158.499 360.897 162.913 370.055 166.554C371.82 167.216 373.365 168.098 374.799 168.871C379.874 171.408 383.405 173.284 385.612 174.718C388.48 176.484 389.473 177.256 389.584 177.035L397.086 198.882Z" fill="#FFB398"/>
<path d="M389.363 103.884L378.661 116.241L382.633 124.516L389.363 105.539V103.884Z" fill="#7799F2"/>
<path d="M320.845 184.759C320.183 184.759 319.632 184.649 319.08 184.649C318.308 184.538 317.646 184.428 316.873 184.318C315.329 184.097 313.894 183.766 312.35 183.435C310.695 183.104 309.26 182.883 307.936 181.78C307.164 181.118 306.612 180.566 305.95 179.904C304.847 178.58 303.854 177.256 302.861 175.822C302.42 175.16 302.64 174.277 303.302 173.836C303.854 173.505 304.626 173.615 305.068 174.056C306.171 175.16 307.274 176.263 308.488 177.256C309.04 177.808 309.591 178.249 310.143 178.58C310.364 178.801 310.695 178.911 310.915 179.021C310.915 179.021 310.805 178.911 310.695 178.911C310.695 178.911 310.805 178.911 310.915 178.911L311.467 179.021L320.735 180.125H321.066C322.28 180.235 323.162 181.449 323.052 182.663C322.942 183.766 322.059 184.428 321.066 184.649C320.956 184.759 320.845 184.759 320.845 184.759Z" fill="#FFB398"/>
<path d="M350.525 157.727C353.946 158.941 344.898 171.188 344.898 171.188C339.713 169.643 332.1 169.533 329.01 168.209C327.686 167.657 326.693 166.664 325.81 165.561L320.183 157.727C320.183 157.727 325.038 147.245 329.01 146.914C337.175 146.363 345.56 156.072 350.525 157.727Z" fill="#FFB398"/>
<path d="M389.363 164.568C389.363 164.568 382.853 195.792 382.412 195.792C382.302 195.682 375.02 193.034 366.414 189.834C360.455 187.627 353.946 185.31 348.65 183.324C342.581 181.118 338.168 179.463 338.168 179.463L338.499 178.58C340.044 177.587 343.133 172.181 345.891 165.34C349.091 157.396 350.636 150.665 349.422 150.114L362.662 154.858L389.363 164.568Z" fill="#5C81BF"/>
<path d="M366.413 189.945C360.455 187.738 353.946 185.421 348.65 183.435C347.988 181.449 349.974 180.677 352.291 178.911C363.765 170.416 362.662 154.969 362.662 154.969L366.413 189.945Z" fill="#26457A"/>
<path d="M383.957 111.938L381.198 283.618C376.564 282.736 372.041 282.294 367.848 282.184C355.27 281.632 345.671 283.398 344.567 283.618C344.457 283.618 344.457 283.618 344.457 283.618L359.352 191.931L364.207 136.874C364.427 134.115 365.42 129.15 367.186 124.406C369.944 117.234 376.564 112.49 383.957 111.938Z" fill="#7799F2"/>
<path d="M409.885 105.429C409.665 106.532 406.024 107.415 401.169 107.635C400.176 107.746 399.072 107.746 397.969 107.746C396.866 107.746 395.762 107.746 394.769 107.635C389.915 107.415 386.274 106.532 386.053 105.539V105.429C386.053 104.215 391.349 103.112 397.969 103.112C404.589 103.112 409.885 104.215 409.885 105.429Z" fill="#340000"/>
<path d="M384.398 192.041L381.529 195.02C380.647 194.579 379.764 194.137 378.771 193.586C377.999 193.144 377.116 192.703 376.233 192.151C376.013 192.041 375.792 191.931 375.571 191.82C375.02 191.489 374.358 191.158 373.806 190.827C373.585 190.717 373.475 190.607 373.254 190.496C369.613 188.4 365.421 185.752 359.131 181.67C363.986 181.118 370.165 179.022 372.923 172.402C373.475 170.967 374.247 169.753 374.909 168.65C379.985 171.188 383.515 173.064 385.722 174.498C385.06 182.442 384.398 192.041 384.398 192.041Z" fill="#340000"/>
<path d="M386.715 80.0515C383.957 81.0445 381.198 81.7065 378.55 81.8168C371.268 82.3685 365.089 79.9412 363.434 75.1968C362.662 73.1004 362.883 70.6731 363.876 68.3561C365.862 63.6117 371.158 58.9776 378.219 56.44C388.701 52.5783 399.183 54.7849 401.61 61.2947C403.817 67.8044 397.197 76.1898 386.715 80.0515Z" fill="#071A2E"/>
<path d="M436.145 113.373H426.656C420.477 117.014 410.106 114.586 402.272 109.069C400.728 107.966 399.293 106.863 398.08 105.539C389.473 96.9327 388.811 79.1689 395.542 72.5488C402.272 65.8184 412.644 67.8044 421.47 75.9692C427.759 81.8169 431.29 89.6506 432.283 96.712C432.504 98.2567 432.614 99.8014 432.504 101.346V101.456C432.504 102.118 432.393 102.78 432.393 103.442C432.283 105.208 432.393 107.635 433.166 109.069C434.048 110.945 435.262 112.159 435.814 112.821C435.924 113.152 436.035 113.262 436.145 113.373Z" fill="#071A2E"/>
<path d="M378.55 81.9273C371.268 82.479 365.089 80.0516 363.434 75.3072C362.662 73.2109 362.883 70.7835 363.876 68.4665C363.876 68.4665 363.214 72.4385 366.855 72.4385C370.496 72.4385 376.013 63.5015 376.013 63.5015L378.55 81.9273Z" fill="#02090F"/>
<path d="M344.567 155.079L341.147 175.601L313.894 179.242L316.542 155.52L344.567 155.079Z" fill="#944422"/>
<path d="M288.297 147.024L286.09 167.878L314.005 179.242L316.653 154.858L288.297 147.024Z" fill="#AD5E3D"/>
<path d="M325.59 181.78C325.479 181.78 325.259 181.89 325.148 181.89H324.817H324.376H323.493L321.838 182.001L318.528 182.111C316.211 182.111 314.115 182.111 311.688 182.111C311.467 182.111 311.467 182.111 310.915 182.001C310.805 182.001 310.695 181.89 310.584 181.89H310.474L310.253 181.78L309.481 181.449L307.936 180.787L304.847 179.573C302.751 178.69 298.999 177.146 297.013 175.932C294.586 174.498 298.006 173.615 299.661 174.167C301.758 174.718 303.964 175.38 306.061 176.042L309.26 177.035L310.805 177.477L311.577 177.697L311.798 177.808C311.688 177.808 311.467 177.697 311.798 177.808C313.894 177.808 316.211 177.587 318.308 177.477L324.486 177.146H325.038C326.362 177.035 327.465 178.028 327.465 179.352C327.576 180.566 326.693 181.559 325.59 181.78Z" fill="#FFB398"/>
<path d="M344.567 155.079L317.756 148.128L288.186 147.024L316.322 157.948L344.567 155.079Z" fill="#340000"/>
<path d="M288.518 165.45L295.248 168.099L295.579 165.34L288.849 162.692L288.518 165.45Z" fill="#7D4229"/>
<path d="M407.127 85.2371H388.37V117.565H407.127V85.2371Z" fill="#FFB398"/>
<path d="M397.859 96.7122C397.859 96.7122 396.094 101.677 388.37 103.553V96.9328L397.859 96.7122Z" fill="#340000"/>
<path d="M406.796 100.133H389.253C380.426 100.133 373.254 92.9609 373.254 84.1342V69.7907C373.254 63.5016 378.33 58.4263 384.619 58.4263H406.796V100.133Z" fill="#FFB398"/>
<path d="M434.931 132.24C432.283 147.135 427.318 167.326 425.332 183.876C416.395 187.958 371.268 186.414 369.172 181.669C369.172 181.669 370.386 146.252 369.282 134.998C368.731 128.93 378.44 112.6 384.508 111.938C400.176 110.173 407.127 114.917 423.677 119.33C430.297 120.985 436.145 125.509 434.931 132.24Z" fill="#FBFBFB"/>
<path d="M409.885 105.539C409.113 110.283 408.451 115.028 407.679 119.662C401.39 121.648 394.659 121.648 388.37 119.662C387.598 114.917 386.825 110.283 386.163 105.539C386.384 106.532 390.025 107.415 394.88 107.635C396.976 107.856 399.183 107.856 401.279 107.635C406.134 107.415 409.665 106.532 409.885 105.539Z" fill="#FBFBFB"/>
<path d="M420.257 74.9762C417.388 81.9273 406.244 78.6172 397.638 78.6172C386.605 78.6172 377.668 70.3422 377.668 60.1914C377.668 59.9707 377.668 59.8604 377.668 59.6397C377.778 56.44 380.095 54.123 383.184 53.2403C388.37 51.5853 394.99 49.9303 402.603 50.482C405.031 50.7027 407.789 52.468 409.554 54.3437C415.623 60.7431 414.299 68.3562 420.257 74.9762Z" fill="#071A2E"/>
<path d="M340.485 175.932L337.947 189.062L313.122 183.435L318.087 174.829H316.763L313.122 171.077C313.122 171.077 317.315 170.636 319.08 168.65C320.735 166.774 319.852 163.244 319.632 162.692C317.866 158.941 316.211 157.948 316.211 157.948L314.336 157.175C315.108 156.293 316.211 155.741 317.425 155.741C318.087 155.741 318.749 155.962 319.411 156.293C322.831 158.279 326.693 161.258 327.355 161.699C333.313 166.223 335.52 169.974 336.733 171.85C337.506 173.063 337.727 174.387 337.506 175.711L340.485 175.932Z" fill="#FFB398"/>
<path d="M330.996 173.174C330.886 173.394 330.555 173.615 330.445 173.725C330.334 173.836 330.224 173.946 330.114 173.946C330.003 174.056 329.783 174.167 329.672 174.167C329.452 174.277 329.231 174.277 329.121 174.387C326.803 175.16 324.376 175.38 321.949 175.601C319.521 175.822 316.984 176.042 314.556 176.153L312.019 176.263C311.026 176.263 309.922 176.484 309.04 176.153H308.819H308.709L291.166 171.519C288.738 170.857 291.165 169.422 293.814 169.864C297.013 170.195 300.103 170.415 303.302 170.746C305.068 170.857 306.943 171.077 308.709 171.188C312.129 171.519 315.549 170.967 318.97 170.526C320.625 170.305 322.169 170.084 323.714 169.864C324.486 169.753 325.259 169.643 326.031 169.422C326.362 169.312 326.803 169.312 327.024 169.202C327.134 169.202 327.134 169.202 327.245 169.091C328.238 168.429 329.452 168.429 330.445 169.202C331.658 170.084 331.989 171.85 330.996 173.174Z" fill="#FFB398"/>
<path d="M327.134 179.021C326.914 179.132 326.693 179.132 326.472 179.132H326.252H326.141H325.59H324.597L322.611 179.242H318.749C316.101 179.242 313.563 179.242 310.915 179.242H309.922H309.702H309.26C308.819 179.242 308.709 179.132 308.488 179.132C307.826 178.911 307.164 178.801 306.502 178.58L302.751 177.366C300.323 176.484 296.02 174.718 293.593 173.725C291.827 172.732 294.475 171.298 296.241 171.739C298.779 172.401 301.316 172.953 303.854 173.505L307.605 174.387C308.267 174.498 308.819 174.718 309.371 174.718C309.481 174.718 309.702 174.829 309.591 174.718H309.702H309.922H310.805L318.528 174.387L322.39 174.277L324.266 174.167H325.148H325.59H325.7C325.59 174.167 325.59 174.167 325.479 174.277C326.803 173.836 328.238 174.498 328.679 175.822C329.12 177.146 328.458 178.58 327.134 179.021Z" fill="#FFB398"/>
<path d="M372.372 204.398L367.848 282.074C355.27 281.522 345.671 283.287 344.567 283.508C346.112 280.529 347.877 276.447 349.422 271.261C352.291 261.882 361.117 204.95 361.117 204.398H372.372Z" fill="#26457A"/>
<path d="M416.064 82.8099C415.954 82.8099 415.843 82.8099 415.843 82.6995C415.733 82.5892 415.733 82.3685 415.843 82.2582C417.388 80.8239 418.602 77.9552 418.05 75.5278C417.498 73.5418 415.843 72.2178 413.195 71.4454C409.665 70.4524 406.686 71.2248 403.817 71.9971C400.507 72.8798 397.197 73.7625 393.004 71.8868C389.915 70.5628 387.818 68.2457 386.715 65.2667C385.722 62.5084 385.943 59.9707 386.163 59.5293C386.274 59.419 386.384 59.3087 386.605 59.419C386.715 59.5293 386.825 59.6397 386.715 59.8603C386.605 60.1913 386.274 62.6187 387.377 65.2667C388.37 68.0251 390.356 70.0111 393.225 71.3351C397.197 73.1004 400.286 72.2178 403.596 71.3351C406.575 70.5628 409.554 69.7904 413.306 70.7834C417.057 71.7764 418.271 73.8728 418.712 75.3071C419.374 77.9552 418.05 81.0445 416.395 82.6995C416.174 82.6995 416.064 82.8099 416.064 82.8099Z" fill="#02090F"/>
<path d="M409.885 212.122L409.775 212.453L406.244 252.725L402.493 295.866L399.404 330.4H348.65L364.428 230.768L368.179 207.046L386.163 209.253L409.885 212.122Z" fill="#071A2E"/>
<path d="M402.493 218.411C402.493 218.411 385.943 215.432 377.337 218.411C370.606 220.838 365.972 227.9 364.427 230.768L368.179 207.046L386.163 209.253L402.493 218.411Z" fill="#02090F"/>
<path d="M462.294 330.4H408.12L402.382 295.866L389.253 216.646L409.665 212.453L432.504 207.819L448.282 273.026L457.219 309.657L462.294 330.4Z" fill="#071A2E"/>
<path d="M462.294 330.4H450.709C449.054 322.235 445.523 301.934 440.117 293.879C433.607 284.06 414.078 285.935 414.078 285.935L418.491 276.998L438.793 271.812L448.502 273.137L457.439 309.768L462.294 330.4Z" fill="#02090F"/>
<path d="M387.487 79.2793C387.598 80.3827 386.936 81.2653 386.163 81.3757C385.391 81.3757 384.729 80.6033 384.619 79.5C384.508 78.3966 385.17 77.514 385.943 77.4036C386.825 77.2933 387.487 78.176 387.487 79.2793Z" fill="#340000"/>
<path d="M376.785 80.1619C376.895 81.2652 376.233 82.1479 375.461 82.2582C374.689 82.2582 374.027 81.4859 373.916 80.3825C373.806 79.2792 374.468 78.3965 375.24 78.2862C376.123 78.1759 376.785 79.0585 376.785 80.1619Z" fill="#340000"/>
<path d="M435.372 163.464C430.518 196.013 428.311 210.908 417.498 217.639C414.519 219.514 411.099 220.397 407.679 220.397C405.913 220.397 404.258 220.176 402.603 219.735L330.776 200.757C330.665 200.757 330.665 200.757 330.555 200.757C328.569 200.206 328.79 192.813 330.996 184.318C333.313 175.822 336.734 169.312 338.72 169.864H338.83L386.494 182.442L399.183 185.752C399.624 183.325 400.176 180.566 400.617 177.587C401.61 171.629 402.603 164.899 403.486 158.72C405.472 145.37 409.554 130.916 412.644 115.138L431.952 126.392C437.469 129.702 437.248 150.445 435.372 163.464Z" fill="#7799F2"/>
<path d="M462.515 280.088C462.515 280.088 462.515 284.391 441.551 285.825C437.027 286.156 432.835 286.266 428.863 286.266H428.752C412.864 286.377 402.493 284.722 402.493 284.722C402.493 284.722 399.845 262.876 397.528 233.306C397.307 230.879 397.086 228.451 396.976 225.914L396.535 211.68L394.769 160.265L403.927 129.261L409.554 107.194L416.616 114.366C418.271 114.807 420.367 115.469 422.794 116.352C431.842 119.662 441.882 129.481 441.882 146.363V169.533V195.572V195.903L442.986 200.647L462.515 280.088Z" fill="#7799F2"/>
<path d="M439.014 119.882C439.014 121.868 438.241 123.744 436.917 125.399C436.917 125.399 436.917 125.399 436.807 125.509C436.696 125.62 436.476 125.951 436.145 126.282C436.145 126.282 436.145 126.282 436.145 126.392C435.924 126.723 435.593 127.054 435.262 127.385C435.041 127.606 434.931 127.826 434.71 128.047C433.276 129.702 433.717 131.578 433.938 132.35C433.938 132.35 433.938 132.35 433.938 132.46C433.938 132.571 434.048 132.681 434.048 132.791C434.048 132.791 434.048 132.791 434.048 132.902C435.924 138.198 435.041 143.384 431.511 145.37C427.318 147.797 421.139 144.708 417.609 138.639C417.388 138.198 417.057 137.646 416.836 137.205C415.292 133.784 412.864 130.805 409.665 128.819C408.892 128.378 408.12 127.826 407.458 127.275C406.686 126.833 406.024 126.282 405.472 125.73C401.61 121.979 401.169 116.241 402.162 109.29C402.603 106.422 403.155 103.443 403.927 100.353C406.244 89.7611 408.782 84.0237 409.334 83.9133L421.25 108.297H421.36C422.684 108.297 424.008 108.408 425.222 108.628C429.414 109.29 433.055 110.945 435.483 113.262C435.593 113.373 435.814 113.483 435.924 113.704C436.917 114.807 437.689 115.91 438.241 117.234C438.351 117.676 438.572 118.117 438.572 118.558C438.903 118.779 439.014 119.331 439.014 119.882Z" fill="#071A2E"/>
<path d="M432.835 179.794C432.835 179.794 429.414 211.46 424.008 222.383C417.609 235.182 403.706 234.299 397.748 233.306C397.528 230.879 397.417 228.451 397.197 225.914L396.976 218.301L399.514 218.963C399.514 218.963 411.761 222.604 419.595 216.866C425.994 212.232 428.863 197.668 428.863 197.668L432.835 179.794Z" fill="#658DC9"/>
<path d="M400.838 192.262C395.762 187.407 393.445 184.759 386.605 182.332C386.605 182.332 397.638 183.987 400.838 187.407L403.486 176.705C403.486 176.705 403.707 184.428 406.024 187.628C409.444 192.593 405.803 197.116 400.838 192.262Z" fill="#658DC9"/>
<path d="M387.046 111.497L370.937 154.086L367.848 200.978L357.476 204.398L364.979 144.266L370.055 121.206L382.302 112.048L387.046 111.497Z" fill="#7799F2"/>
<path d="M408.01 220.397C403.265 220.397 399.293 219.293 399.293 219.183L396.755 218.521L348.539 205.722C348.319 205.722 348.319 205.502 348.319 205.281C348.319 205.06 348.539 205.06 348.76 205.06L399.403 218.521C399.514 218.521 411.54 222.052 419.264 216.535C425.442 212.011 428.311 197.668 428.311 197.447L436.255 162.912C436.807 159.933 438.462 157.506 440.117 157.506C440.338 157.506 440.448 157.616 440.448 157.837C440.448 158.058 440.338 158.168 440.117 158.168C439.013 158.168 437.469 160.154 436.917 163.023L428.973 197.557C428.863 198.109 425.994 212.342 419.595 216.976C416.174 219.735 411.761 220.397 408.01 220.397Z" fill="#4E7AEC"/>
<path d="M366.744 177.477C366.524 177.477 366.413 177.366 366.413 177.146L365.531 150.334C365.531 150.224 365.531 150.224 365.531 150.114L380.426 124.406L378.219 116.241C378.219 116.131 378.219 116.02 378.33 115.91L383.736 109.731C383.846 109.621 384.067 109.621 384.177 109.731C384.288 109.842 384.288 110.062 384.177 110.173L378.881 116.241L381.088 124.296C381.088 124.406 381.088 124.516 381.088 124.516L366.082 150.224L366.965 176.925C367.075 177.256 366.965 177.477 366.744 177.477Z" fill="#4E7AEC"/>
<path d="M399.183 186.414C398.962 186.414 398.852 186.193 398.852 186.083L403.155 161.147L406.465 131.468C406.465 131.357 406.465 131.357 406.575 131.247L409.554 128.378C409.665 128.268 409.885 128.268 409.996 128.378C410.106 128.488 410.106 128.709 409.996 128.819L407.127 131.578L403.817 161.147L399.514 186.193C399.514 186.304 399.403 186.414 399.183 186.414Z" fill="#4E7AEC"/>
<path d="M405.031 195.351C404.92 195.351 404.7 195.241 404.7 195.13C403.265 186.745 394.769 184.428 394.659 184.318C394.438 184.318 394.438 184.097 394.438 183.876C394.438 183.656 394.659 183.656 394.88 183.656C394.99 183.656 403.927 186.083 405.362 194.91C405.472 195.13 405.362 195.351 405.031 195.351C405.141 195.351 405.141 195.351 405.031 195.351Z" fill="#340000"/>
<path d="M462.515 280.088C462.515 280.088 462.515 284.391 441.551 285.825C437.027 286.156 432.835 286.266 428.863 286.266C430.738 286.156 445.965 284.17 446.737 265.524C447.399 247.98 440.558 206.715 439.234 195.682C439.234 195.572 438.793 192.151 439.124 186.193C439.455 181.007 441.441 175.711 441.993 169.533V195.572V195.903L443.096 200.647L462.515 280.088Z" fill="#658DC9"/>
<path d="M400.838 187.738C400.727 187.738 400.727 187.738 400.838 187.738C400.617 187.738 400.507 187.517 400.507 187.296L411.43 144.045C411.43 143.825 411.651 143.825 411.871 143.825C412.092 143.825 412.092 144.045 412.092 144.266L401.169 187.517C401.058 187.627 400.948 187.738 400.838 187.738Z" fill="#4E7AEC"/>
<path d="M402.493 295.865L399.514 330.4H388.26V234.52C388.26 234.52 393.335 241.14 393.445 240.919L402.493 295.865Z" fill="#02090F"/>
<path d="M433.938 132.35C433.938 132.46 434.048 132.571 434.048 132.681C434.048 132.571 434.048 132.46 433.938 132.35Z" fill="#071A2E"/>
<path d="M436.807 125.509C436.586 125.73 436.365 125.951 436.145 126.282C436.476 125.951 436.696 125.62 436.807 125.509Z" fill="#071A2E"/>
<path d="M412.423 86.6716C409.223 89.43 404.81 89.5403 402.603 86.8923C400.396 84.2442 401.279 80.0515 404.589 77.2932C407.789 74.5348 412.202 74.4245 414.409 77.0725C416.616 79.6102 415.733 83.9132 412.423 86.6716Z" fill="#FFB398"/>
<path d="M442.434 197.999C442.323 197.999 442.323 197.999 442.213 197.999C442.213 197.999 436.917 194.468 434.931 194.027C434.71 194.027 434.6 193.806 434.71 193.696C434.71 193.475 434.931 193.365 435.041 193.475C437.138 193.917 442.323 197.337 442.544 197.558C442.654 197.668 442.765 197.889 442.654 197.999C442.654 197.889 442.544 197.999 442.434 197.999Z" fill="#4E7AEC"/>
<path d="M405.03 311.754C404.92 311.754 404.7 311.643 404.7 311.533L393.004 241.029L385.832 232.092C385.722 231.982 385.722 231.761 385.832 231.651C385.943 231.541 386.163 231.541 386.274 231.651L393.445 240.588L393.556 240.698L405.251 311.312C405.472 311.643 405.361 311.754 405.03 311.754C405.141 311.754 405.141 311.754 405.03 311.754Z" fill="#071A2E"/>
<path d="M382.853 222.714C382.633 222.714 382.522 222.603 382.522 222.383V214.439C382.522 214.218 382.633 214.108 382.853 214.108C383.074 214.108 383.184 214.218 383.184 214.439V222.383C383.184 222.493 383.074 222.714 382.853 222.714Z" fill="#071A2E"/>
<path d="M373.144 82.1481C372.041 81.9274 366.855 80.9344 363.986 77.2934C363.876 77.183 363.876 76.9624 363.986 76.852C364.097 76.7417 364.317 76.7417 364.428 76.852C367.186 80.2724 372.151 81.2654 373.144 81.4861C373.254 81.4861 373.475 81.5964 373.475 81.8171C373.475 81.9274 373.365 82.1481 373.144 82.1481Z" fill="#02090F"/>
<path d="M358.138 115.028C357.918 114.917 357.807 114.807 357.807 114.586C362 101.898 372.041 97.4845 375.02 96.4915H375.13C375.24 96.3812 375.461 96.4915 375.571 96.7122C375.682 96.8225 375.571 97.0432 375.351 97.1535H375.24C372.371 98.1465 362.552 102.45 358.469 114.807C358.469 114.917 358.249 115.028 358.138 115.028Z" fill="#02090F"/>
<path d="M408.23 235.733C408.12 235.733 408.12 235.733 408.01 235.623C407.899 235.623 407.899 235.513 407.899 235.402L407.127 228.782C407.127 228.672 407.237 228.451 407.348 228.451L429.083 225.803C429.194 225.803 429.194 225.803 429.304 225.914C429.414 225.914 429.414 226.024 429.414 226.134L430.187 232.754C430.187 232.865 430.076 233.085 429.966 233.085L408.23 235.733ZM407.679 229.003L408.451 235.071L429.525 232.423L428.752 226.355L407.679 229.003Z" fill="#340000"/>
<path d="M382.302 91.9678C382.191 91.9678 382.191 91.9678 382.081 91.8575C381.971 91.7471 381.971 91.5265 382.081 91.4162C382.302 91.1955 386.163 87.0028 389.804 88.5475C389.915 88.6578 390.025 88.7681 390.025 88.9888C389.915 89.0991 389.804 89.2095 389.584 89.2095C386.384 87.8855 382.633 91.8575 382.522 91.9678C382.412 91.9678 382.302 91.9678 382.302 91.9678Z" fill="#AD4F39"/>
<path d="M382.522 86.8922L381.088 86.6715C380.316 86.5612 379.764 86.1199 379.323 85.5682C378.881 84.9062 378.771 84.2442 378.992 83.4718L379.985 79.9411C379.985 79.7205 380.205 79.7205 380.426 79.7205C380.647 79.7205 380.647 79.9411 380.647 80.1618L379.654 83.6925C379.543 84.2442 379.543 84.7958 379.874 85.2372C380.205 85.6785 380.647 86.0095 381.198 86.1199L382.633 86.3405C382.853 86.3405 382.964 86.5612 382.853 86.6715C382.743 86.7819 382.633 86.8922 382.522 86.8922Z" fill="#B35844"/>
<path d="M413.637 81.1549C413.416 81.0446 413.306 80.9342 413.306 80.7136C413.416 80.3826 413.306 79.6102 412.864 79.0586C412.533 78.5069 411.761 77.9552 410.327 77.9552C407.789 77.9552 405.803 80.2722 405.803 80.2722C405.693 80.3826 405.472 80.3826 405.362 80.2722C405.251 80.1619 405.251 79.9412 405.362 79.8309C405.472 79.7206 407.568 77.2932 410.437 77.2932C412.092 77.2932 412.975 78.0655 413.526 78.6172C414.078 79.3896 414.299 80.2722 414.078 80.8239C413.857 81.0446 413.747 81.1549 413.637 81.1549Z" fill="#B35844"/>
<path d="M371.489 74.2038C371.048 72.2177 372.151 69.6801 374.358 69.4594C374.909 69.3491 375.461 69.2387 375.902 68.9077C376.013 68.7974 376.233 68.5767 376.233 68.687C376.344 68.1354 376.895 67.694 377.447 67.8044C379.433 68.356 377.557 71.1144 376.564 71.4454C376.123 71.6661 375.682 71.7764 375.24 71.8867C374.909 71.8867 374.137 71.9971 373.916 72.2177C373.254 72.6591 372.923 73.5418 372.703 74.4244C372.592 74.9761 371.599 74.8658 371.489 74.2038Z" fill="#02090F"/>
<path d="M383.184 79.9414H383.074C382.964 79.8311 382.853 79.7207 382.964 79.5001C382.964 79.5001 384.839 75.7487 388.149 76.852C388.37 76.9624 388.37 77.0727 388.37 77.2934C388.26 77.514 388.149 77.514 387.929 77.514C385.17 76.6314 383.626 79.7207 383.515 79.8311C383.405 79.8311 383.295 79.9414 383.184 79.9414Z" fill="#340000"/>
<path d="M372.703 78.8377C372.482 78.7274 372.372 78.6171 372.372 78.3964C372.372 78.2861 373.144 76.1897 374.689 75.7484C376.675 75.1967 377.888 76.962 377.888 77.0724C377.999 77.1827 377.999 77.4034 377.778 77.5137C377.668 77.624 377.447 77.624 377.337 77.4034C377.337 77.293 376.344 75.969 374.799 76.3C373.585 76.631 373.034 78.5067 372.923 78.5067C372.923 78.7274 372.813 78.8377 372.703 78.8377Z" fill="#340000"/>
<path d="M312.791 160.595L290.283 151.879L290.393 150.886L312.901 159.602L312.791 160.595Z" fill="#7D4229"/>
<path d="M312.35 164.016L289.841 155.189L290.062 154.196L312.46 162.912L312.35 164.016Z" fill="#7D4229"/>
<path d="M434.159 132.681C436.035 137.977 435.152 143.163 431.621 145.149C427.428 147.576 421.25 144.487 417.719 138.418C417.498 137.977 417.167 137.425 416.947 136.984C415.402 133.564 412.975 130.585 409.775 128.599C409.003 128.157 408.23 127.606 407.568 127.054C406.796 126.613 406.134 126.061 405.582 125.509C406.024 125.84 408.672 128.047 416.174 130.805C420.919 132.571 424.118 140.625 429.745 139.08C434.821 137.646 430.297 130.033 435.262 127.275C435.042 127.495 434.931 127.716 434.711 127.937C433.276 129.592 433.717 131.467 433.938 132.24C433.938 132.24 433.938 132.24 433.938 132.35C434.048 132.46 434.048 132.571 434.159 132.681Z" fill="#02090F"/>
<path d="M438.462 116.903C437.91 115.8 436.586 114.366 433.166 113.373C428.863 112.159 425.222 110.283 425.332 108.297C425.332 107.635 425.773 106.973 426.766 106.311C430.518 103.663 432.173 97.0432 432.283 96.7122C432.504 98.2568 432.614 99.8015 432.504 101.346V101.457C432.504 102.119 432.393 102.781 432.393 103.443C432.283 105.208 432.393 107.635 433.166 109.07C434.048 110.945 435.262 112.159 435.814 112.821C435.924 112.931 436.145 113.042 436.255 113.262C437.138 114.476 437.91 115.579 438.462 116.903Z" fill="#02090F"/>
<path d="M334.086 147.687C332.651 147.135 330.555 146.694 329.01 146.363C327.355 146.032 325.7 146.142 324.156 146.694C321.176 147.797 316.322 149.562 314.998 149.893C314.005 150.114 312.901 150.335 312.129 150.555C311.246 150.776 310.915 151.879 311.577 152.431C312.35 153.203 313.894 153.865 316.763 153.645C322.611 153.203 325.259 151.769 325.259 151.769C325.259 151.769 327.466 150.776 331.769 151.879C331.769 151.879 336.954 151.328 340.485 151.438C340.485 151.328 335.851 148.238 334.086 147.687Z" fill="#FFB398"/>
<path d="M313.343 176.704C313.343 176.704 312.791 176.594 308.929 176.153C304.957 175.601 295.468 173.063 292.6 172.291H292.489C292.269 172.291 292.269 172.07 292.269 171.85C292.269 171.629 292.489 171.629 292.71 171.629H292.82C295.579 172.401 305.068 174.939 309.04 175.491C313.674 176.042 313.674 176.042 313.784 176.373H313.122H313.453L313.343 176.704Z" fill="#B35844"/>
<path d="M313.122 179.794L308.819 179.132C304.075 178.359 296.462 175.27 295.027 174.718C294.917 174.608 294.807 174.498 294.807 174.277C294.917 174.167 295.027 174.056 295.138 174.056H295.248C296.682 174.718 304.185 177.808 308.819 178.47L313.122 179.021C313.343 179.021 313.453 179.242 313.343 179.352C313.453 179.683 313.343 179.794 313.122 179.794Z" fill="#B35844"/>
<path d="M313.122 181.89L310.033 181.449C307.054 180.787 303.082 179.242 302.971 179.242C302.861 179.132 302.751 179.021 302.751 178.801C302.861 178.69 302.971 178.58 303.192 178.58C303.192 178.58 307.164 180.125 310.143 180.676L313.232 181.118C313.453 181.118 313.563 181.338 313.453 181.449C313.453 181.78 313.343 181.89 313.122 181.89Z" fill="#B35844"/>
</g>
<defs>
<clipPath id="clip0_807_31548">
<rect width="540" height="330" fill="white"/>
</clipPath>
</defs>
</svg>
