<svg width="540" height="330" viewBox="0 0 540 330" fill="none" xmlns="http://www.w3.org/2000/svg">
<g clip-path="url(#clip0_904_30371)">
<path d="M79.0676 347.316C79.0676 347.316 21.9385 282.109 45.8484 205.367C67.2106 136.544 163.928 91.9649 215.374 126.083C240.166 142.605 260.254 76.3232 342.763 52.0786C403.812 34.0906 494.062 74.368 471.132 197.546C453.689 291.201 540.118 244.569 521.304 348L79.0676 347.316Z" fill="#E9EFFF"/>
<path d="M256.499 178C256.499 178 193.956 102.14 194 87.6885C194.022 77.5946 203.53 74.1039 212.311 83.4641C221.069 92.8021 270 149.653 270 149.653L256.499 178Z" fill="#FCB59F"/>
<path d="M314.841 182.857C314.841 182.857 325.188 175.056 322.084 163.864C318.98 152.672 320.785 107.839 337.846 113.49C337.846 113.49 340.421 113.845 340.95 116.349C341.456 118.853 341.984 141.237 344.054 145.403C346.123 149.57 351.296 161.803 351.803 164.396C352.309 166.989 360.586 205.772 355.677 223.967C350.768 242.184 344.296 264.035 346.123 270.528C347.928 277.022 370.162 321.788 382.556 341.823C394.95 361.857 390.041 364.45 390.041 364.45C390.041 364.45 313.696 400.928 307.334 376.683C300.884 351.973 293.113 333.49 264.429 317.356C235.745 301.222 217.143 265.054 219.212 246.594C221.282 228.133 208.382 211.49 208.382 211.49C208.382 211.49 194.953 210.714 191.057 202.647C187.182 194.58 188.217 179.222 199.07 175.588C199.07 175.588 190.792 168.296 192.091 158.678C193.39 149.06 200.104 141.503 217.165 144.118C234.226 146.711 314.841 182.857 314.841 182.857Z" fill="#FCB59F"/>
<path d="M327.415 117C327.415 117 323.081 151.112 329.052 168.697C335.001 186.282 311 196 311 196L313.605 181.875C313.605 181.875 322.966 178.371 320.545 164.312C318.193 150.693 317.663 138.772 327.415 117Z" fill="#EC9776"/>
<path d="M263.128 316C263.128 316 239.829 272.313 251.423 271.549C263.017 270.763 267 260 267 260L221 262.074C221.022 262.052 228.943 295.783 263.128 316Z" fill="#EC9776"/>
<path d="M248.546 39.1464L318.882 51.031C328.949 52.7351 335.756 62.3181 334.06 72.4321L303.198 256.853C301.502 266.967 291.964 273.806 281.897 272.102L211.56 260.217C201.493 258.513 194.687 248.93 196.383 238.816L227.244 54.395C228.941 44.2588 238.479 37.4423 248.546 39.1464Z" fill="#333F5E"/>
<path d="M222.002 53.5096L191.14 237.931C189.444 248.045 196.251 257.628 206.318 259.332L276.654 271.217C286.721 272.921 296.259 266.082 297.955 255.968L328.817 71.5468C330.513 61.4327 323.706 51.8498 313.64 50.1457L243.303 38.2611C233.214 36.557 223.676 43.3734 222.002 53.5096ZM227.222 54.5277C228.478 47.0694 235.483 42.0455 242.907 43.307L252.577 44.9448C253.789 45.1439 254.604 46.2948 254.405 47.512L253.833 50.9203C253.458 53.1998 254.978 55.3687 257.269 55.7449L294.761 62.0745C297.03 62.4507 299.189 60.9237 299.563 58.622L300.136 55.2138C300.334 53.9965 301.48 53.1777 302.691 53.3768L312.362 55.0146C319.785 56.2761 324.786 63.3139 323.53 70.7722L292.713 254.928C291.457 262.386 284.452 267.41 277.028 266.148L207.573 254.419C200.15 253.157 195.149 246.12 196.405 238.661L227.222 54.5277Z" fill="#071A2E"/>
<path d="M227.222 54.5278C228.478 47.0695 235.483 42.0456 242.906 43.3071L252.577 44.9449C253.788 45.144 254.604 46.2949 254.405 47.5121L253.833 50.9203C253.458 53.1999 254.978 55.3688 257.269 55.745L294.761 62.0746C297.03 62.4508 299.189 60.9238 299.563 58.6221L300.136 55.2138C300.334 53.9966 301.48 53.1778 302.691 53.3769L312.362 55.0147C319.785 56.2762 324.786 63.3139 323.53 70.7722L292.713 254.928C291.457 262.386 284.452 267.41 277.028 266.149L207.573 254.419C200.15 253.157 195.149 246.12 196.405 238.661L227.222 54.5278Z" fill="#FBFBFB"/>
<path d="M271.984 53.6425L283.791 55.6343C284.408 55.745 284.981 55.3245 285.091 54.7048L285.135 54.395C285.245 53.7753 284.827 53.1999 284.21 53.0892L272.403 51.0974C271.786 50.9867 271.213 51.4072 271.103 52.0269L271.059 52.3368C270.971 52.9786 271.389 53.554 271.984 53.6425Z" fill="#1F3853"/>
<path d="M267.248 52.8456L267.556 52.8899C268.173 53.0006 268.746 52.5801 268.856 51.9604L268.9 51.6505C269.01 51.0309 268.592 50.4554 267.975 50.3448L267.667 50.3005C267.05 50.1899 266.477 50.6104 266.367 51.23L266.323 51.5399C266.235 52.1596 266.653 52.7571 267.248 52.8456Z" fill="#1F3853"/>
<g clip-path="url(#clip1_904_30371)">
<path d="M244.859 163.696C242.414 163.275 240.09 164.935 239.669 167.38C239.248 169.825 240.882 172.167 243.327 172.588C245.773 173.009 248.118 171.353 248.539 168.908C248.96 166.462 247.304 164.117 244.859 163.696ZM237.647 125.829L236.881 130.275L241.327 131.041L246.424 149.293L242.485 154.222C242.022 154.783 241.696 155.483 241.562 156.261C241.14 158.706 242.796 161.051 245.242 161.473L271.919 166.068L272.685 161.621L246.941 157.187C246.63 157.134 246.428 156.847 246.481 156.536L246.594 156.281L249.219 153.002L265.781 155.854C267.448 156.141 269.072 155.483 270.066 154.235L280.509 141.178C280.751 140.87 280.909 140.505 280.968 140.118C281.026 139.731 280.983 139.335 280.843 138.97C280.703 138.604 280.471 138.282 280.169 138.033C279.867 137.784 279.505 137.618 279.12 137.55L246.24 131.887L244.916 127.081L237.647 125.829ZM267.09 167.525C264.644 167.104 262.321 168.764 261.9 171.209C261.479 173.654 263.113 175.996 265.558 176.417C268.003 176.838 270.349 175.182 270.77 172.737C271.191 170.291 269.535 167.946 267.09 167.525Z" fill="#C9D8FE"/>
</g>
<path d="M206.125 151.381L207.015 145.102C207.015 145.102 196.046 140.421 186.835 150.353C177.623 160.285 185.945 174.09 189.883 174.09C193.799 174.09 185.678 180.937 185.678 180.937C185.678 180.937 175.487 191.438 185.188 204.105C194.889 216.772 204.011 208.109 204.011 208.109C204.011 208.109 213.712 195.901 205.079 186.079C196.446 176.256 206.459 172.383 206.459 172.383C206.459 172.383 213.712 168.38 209.885 155.954C206.036 143.505 206.125 151.381 206.125 151.381Z" fill="#FCB59F"/>
<path d="M279.363 252.781L253.766 248.466C251.52 248.089 250 245.943 250.374 243.685L251.299 238.13C251.674 235.873 253.81 234.346 256.057 234.722L281.654 239.038C283.901 239.414 285.421 241.561 285.047 243.818L284.121 249.373C283.747 251.63 281.632 253.157 279.363 252.781Z" fill="#3541CA"/>
<path d="M404.865 105.972L406.228 106.047C408.32 93.8124 413.811 83.7106 419.432 74.9744C425.464 65.6022 438.818 52.4512 458.988 48.4479C467.298 46.8017 473.779 46.7642 476.991 46.8952L477.234 45.2864C434.634 40.2542 417.079 63.9186 409.87 83.1494C405.238 95.4586 404.865 105.972 404.865 105.972Z" fill="#7799F2"/>
<path d="M355 94.9161L404.846 105.972C406.228 98.2272 409.422 90.4825 412.26 84.6834C415.099 78.8655 417.602 74.9931 417.602 74.9931C437.473 44.0891 477.215 45.2864 477.215 45.2864L436.408 21.173C415.211 19.7139 399.057 27.6457 386.936 38.8138C363.217 60.701 355 94.9161 355 94.9161Z" fill="#9EB8F9"/>
<path d="M358.885 92.5028C360.098 80.9232 371.659 61.3182 372.144 60.57C378.214 50.7675 385.33 42.7235 393.286 36.6811C399.654 31.836 406.564 28.2442 413.829 25.9994C426.23 22.1832 435.232 23.6236 435.624 23.6984L435.755 23.7171L468.792 42.7796L466.495 43.0415C451.629 44.6877 439.079 48.9342 429.162 55.65C421.244 61.0002 414.987 67.9405 410.561 76.2651C402.997 90.4825 402.549 102.698 402.549 102.829L358.885 92.5028ZM402.624 95.4024C403.389 90.576 405.164 83.2241 409.198 75.6104C413.736 67.0426 420.16 59.9152 428.266 54.4153C436.931 48.5413 447.558 44.5193 459.921 42.4241C461.285 42.1997 461.602 40.3851 460.407 39.6929L437.51 26.4858C435.829 25.513 433.943 24.9705 432.001 24.9144C428.303 24.8021 421.86 25.0827 414.165 27.4585C407.087 29.6473 400.326 33.1642 394.126 37.8971C386.338 43.8272 379.372 51.7215 373.396 61.3556C373.358 61.3931 370.464 65.995 367.438 71.9438C363.46 79.7634 361.107 86.3482 360.621 90.9876L401.727 101.276C401.764 99.9295 402.026 99.1625 402.624 95.4024Z" fill="#7799F2"/>
<path d="M407.068 41.5824C399.673 40.5161 391.138 43.7898 390.055 51.1978C388.99 58.6057 392.669 63.7128 400.065 64.7978C407.461 65.8641 415.771 62.5155 416.855 55.0888C417.919 47.6809 414.464 42.6487 407.068 41.5824Z" fill="#7799F2"/>
<path d="M149.43 212.373L110.081 246.114L65.0955 193.516L46.1448 171.352L85.5181 137.62L120.894 179.01L149.43 212.373Z" fill="#9EB8F9"/>
<path d="M141.383 211.867L110.82 238.059L53.3702 170.863L83.9334 144.671L141.383 211.867ZM113.785 233.918L136.842 214.172C138.405 212.829 138.596 210.478 137.252 208.911L86.2853 149.325C84.9269 147.723 82.5196 147.534 80.9289 148.909L57.9782 168.57C56.3974 169.921 56.2213 172.306 57.5725 173.891L108.56 233.529C109.873 235.068 112.214 235.245 113.785 233.918Z" fill="#7799F2"/>
<path d="M89.1518 198.416C85.2611 193.859 85.7844 187.029 90.3315 183.139C94.8786 179.249 101.701 179.781 105.592 184.338C109.482 188.895 108.959 195.725 104.412 199.615C99.8822 203.498 93.0425 202.973 89.1518 198.416Z" fill="#7799F2"/>
<path d="M175.193 132.737L124.235 135.955C124.04 128.097 122.073 119.95 120.165 113.778C118.25 107.59 116.376 103.384 116.376 103.384C101.465 69.786 62 64.8298 62 64.8298L106.03 47.3243C127.199 49.1466 141.96 59.4965 152.236 72.4002C172.326 97.6682 175.193 132.737 175.193 132.737Z" fill="#9EB8F9"/>
<path d="M126.992 133.217C127.019 133.085 128.432 120.956 123.143 105.739C120.037 96.8235 114.919 89.0101 107.909 82.4924C99.1402 74.328 87.3668 68.1949 72.9442 64.2716L70.72 63.6625L106.284 49.9277L106.426 49.9304C106.811 49.9352 115.931 49.8977 127.614 55.5625C134.457 58.8963 140.749 63.5044 146.29 69.2871C153.214 76.486 159.017 85.5354 163.525 96.1619C163.881 96.9865 172.312 118.135 171.742 129.759L126.992 133.217ZM128.03 131.804L170.235 127.989C170.464 123.352 169.137 116.479 166.406 108.138C164.327 101.794 162.153 96.8017 162.131 96.7497C157.7 86.3138 152.01 77.4409 145.243 70.3801C139.818 64.7322 133.702 60.2134 127.03 56.9515C119.784 53.4186 113.455 52.1379 109.803 51.6861C107.869 51.4435 105.932 51.6871 104.119 52.385L79.4774 61.894C78.1904 62.3979 78.2443 64.214 79.5516 64.6512C91.4561 68.6303 101.342 74.2392 109.008 81.3783C116.189 88.0687 121.44 96.1105 124.628 105.275C127.458 113.414 128.071 120.961 128.101 125.837C128.068 129.668 128.215 130.477 128.03 131.804Z" fill="#7799F2"/>
<path d="M131.895 72.0181C124.419 71.9317 120.235 76.3625 120.157 83.8474C120.079 91.3323 127.787 95.9498 135.256 96.0189C142.732 96.1053 147.156 91.6175 147.234 84.1326C147.318 76.665 139.371 72.1045 131.895 72.0181Z" fill="#7799F2"/>
<path d="M494.136 141.384L468.933 185.811C462.263 181.658 454.386 178.833 448.171 177.044C441.955 175.255 437.4 174.503 437.4 174.503C401.177 168.546 375.428 198.841 375.428 198.841L384.897 152.373C398.011 135.649 414.745 128.987 431.138 127.466C463.256 124.528 494.136 141.384 494.136 141.384Z" fill="#9EB8F9"/>
<path d="M468.148 181.987C468.045 181.898 458.688 174.049 443.087 170.131C433.952 167.839 424.613 167.826 415.324 170.106C403.714 172.967 392.15 179.442 380.947 189.37L379.225 190.9L387.21 153.587L387.288 153.468C387.503 153.149 392.459 145.477 403.6 138.832C410.134 134.935 417.436 132.211 425.288 130.737C435.108 128.892 445.83 129.006 457.174 131.059C458.049 131.202 480.346 135.767 489.747 142.625L468.148 181.987ZM467.554 180.363L487.464 142.957C483.702 140.21 477.249 137.548 468.762 135.257C462.333 133.518 456.966 132.582 456.914 132.571C445.766 130.545 435.246 130.434 425.63 132.213C417.948 133.642 410.823 136.294 404.446 140.089C397.542 144.206 393.009 148.806 390.614 151.626C389.349 153.103 388.496 154.869 388.087 156.769L382.553 182.617C382.274 183.963 383.826 184.936 384.895 184.08C394.734 176.297 404.843 171.11 414.999 168.62C424.516 166.28 434.109 166.305 443.497 168.678C451.846 170.792 458.478 174.41 462.583 177.066C465.786 179.128 466.54 179.462 467.554 180.363Z" fill="#7799F2"/>
<path d="M438.23 138.095C432.012 133.915 423.859 138.068 419.692 144.284C415.525 150.5 416.952 156.43 423.17 160.61C429.389 164.789 437.451 160.875 441.618 154.659C445.76 148.437 444.449 142.274 438.23 138.095Z" fill="#7799F2"/>
<path d="M347.956 22.3416C351.847 25.9002 354.386 29.7698 355.89 34.316C356.089 34.9234 355.915 35.5877 355.456 35.9767C354.972 36.3841 354.316 36.4671 353.753 36.1758C353.372 35.9736 353.134 35.6619 352.991 35.2771C352.376 33.431 351.557 31.6647 350.528 30.0205C349.659 28.6344 348.664 27.3817 347.532 26.1963C346.759 25.3821 345.932 24.6466 345.058 23.9477C343.461 22.6993 341.77 21.6747 339.925 20.844C338.425 20.1676 336.878 19.6784 335.29 19.3342C334.246 19.1066 333.747 18.0071 334.256 17.0872C334.593 16.4881 335.252 16.2121 335.922 16.3459C337.842 16.7782 339.697 17.3737 341.5 18.1986C343.061 18.9047 344.539 19.7501 345.929 20.7769C346.754 21.3617 347.526 22.0252 347.956 22.3416Z" fill="#7799F2"/>
<path d="M344.203 27.4859C346.957 30.052 348.921 33.0699 350.089 36.5817C350.288 37.189 350.174 37.7324 349.727 38.1876C349.327 38.6064 348.817 38.7306 348.279 38.5717C347.741 38.4128 347.401 38.0657 347.214 37.5245C346.848 36.4 346.367 35.3245 345.796 34.2797C344.526 32.0224 342.844 30.1177 340.769 28.5895C338.657 27.0133 336.304 25.9633 333.738 25.3789C333.153 25.2565 332.727 24.8979 332.523 24.3328C332.337 23.7916 332.47 23.2722 332.851 22.8295C333.25 22.4107 333.724 22.2385 334.286 22.3792C336.247 22.8172 338.115 23.4789 339.901 24.4305C341.47 25.2451 342.92 26.3016 344.203 27.4859Z" fill="#7799F2"/>
<path d="M340.25 32.0231C342.092 33.6916 343.597 35.9593 344.51 38.6411C344.727 39.2724 344.553 39.9367 344.07 40.3441C343.586 40.7514 342.912 40.8105 342.349 40.5191C342.01 40.3227 341.748 40.0292 341.629 39.6262C341.102 38.0929 340.34 36.6999 339.304 35.4415C337.395 33.1406 334.989 31.675 332.092 31.0026C331.675 30.9031 331.354 30.7306 331.122 30.3767C330.743 29.8309 330.742 29.1859 331.116 28.6347C331.442 28.12 332.077 27.8623 332.7 28.0326C333.557 28.2133 334.36 28.4728 335.158 28.7745C336.912 29.4852 338.518 30.4984 340.25 32.0231Z" fill="#7799F2"/>
<path d="M336.174 36.1993C337.585 37.5515 338.558 39.1238 339.06 41.0189C339.229 41.6868 339.013 42.3453 338.469 42.723C337.925 43.1006 337.22 43.0695 336.673 42.6515C336.4 42.4424 336.223 42.1604 336.159 41.8293C335.784 40.4457 335.079 39.2753 333.955 38.3491C333.008 37.5542 331.913 37.0617 330.67 36.8717C329.681 36.7161 329.093 35.7981 329.385 34.8918C329.607 34.191 330.307 33.7701 331.049 33.8491C332.4 34.0323 333.669 34.5054 334.797 35.2388C335.275 35.5186 335.725 35.859 336.174 36.1993Z" fill="#7799F2"/>
<path d="M166.9 51.5742C166.795 50.044 167.204 48.2668 168.21 46.3757C169.335 44.2612 171.023 42.2763 173.062 40.5545L173.569 39.644L178.26 36.7066L179.257 36.6392C181.723 35.5405 184.3 34.8551 186.693 34.7666C188.834 34.6882 190.611 35.097 191.932 35.9027L192.648 35.8622L194.518 38.8479C195.693 40.7839 195.588 43.5211 193.974 46.5728C190.708 52.7362 182.417 57.9266 175.473 58.1553C172.049 58.2579 169.585 57.1663 168.383 55.2469L166.497 52.2346L166.9 51.5742Z" fill="#FF9D08"/>
<path d="M166.975 44.4029C170.24 38.2395 178.531 33.049 185.475 32.8204C192.419 32.5917 195.397 37.4068 192.131 43.5702C188.865 49.7336 180.575 54.9241 173.63 55.1527C166.686 55.3814 163.709 50.5663 166.975 44.4029Z" fill="#FFDC4C"/>
<path d="M175.417 37.2622C178.749 35.176 182.336 33.9697 185.533 33.8606C188.45 33.7784 190.667 34.6535 191.719 36.3329C192.787 38.039 192.579 40.4329 191.194 43.081C189.699 45.9092 187.047 48.6083 183.689 50.7112C180.356 52.7974 176.77 54.0036 173.573 54.1128C170.629 54.2117 168.412 53.3366 167.36 51.6571C166.292 49.951 166.5 47.5572 167.885 44.9091C169.406 42.0641 172.058 39.3651 175.417 37.2622Z" fill="#FF9D08"/>
<path d="M175.278 38.1656C178.61 36.0794 182.196 34.8731 185.393 34.764C188.337 34.6651 190.555 35.5402 191.606 37.2197C192.674 38.9258 192.466 41.3196 191.081 43.9677C189.586 46.796 186.935 49.495 183.576 51.5979C180.244 53.6841 176.657 54.8904 173.46 54.9995C170.516 55.0984 168.299 54.2233 167.247 52.5439C166.179 50.8378 166.387 48.4439 167.772 45.7958C169.267 42.9676 171.945 40.2518 175.278 38.1656Z" fill="#FFDC4C"/>
<path d="M456.683 93.0977C458.104 92.5206 459.92 92.3539 462.03 92.7186C464.391 93.1273 466.804 94.1119 469.076 95.5113L470.099 95.7077L474.354 99.2478L474.73 100.174C476.543 102.174 477.999 104.407 478.831 106.654C479.573 108.662 479.74 110.478 479.387 111.985L479.649 112.653L477.396 115.361C475.924 117.082 473.291 117.837 469.888 117.256C463.013 116.078 455.493 109.823 453.108 103.297C451.941 100.076 452.209 97.3942 453.657 95.6533L455.93 92.9211L456.683 93.0977Z" fill="#FF9D08"/>
<path d="M463.519 90.9294C470.394 92.1074 477.914 98.3629 480.299 104.888C482.685 111.414 479.04 115.746 472.165 114.568C465.29 113.39 457.77 107.135 455.385 100.609C452.999 94.0834 456.644 89.7513 463.519 90.9294Z" fill="#FFDC4C"/>
<path d="M472.939 96.7202C475.961 99.2345 478.227 102.265 479.329 105.268C480.318 108.013 480.179 110.393 478.912 111.917C477.624 113.464 475.285 114.014 472.337 113.525C469.184 112.988 465.791 111.312 462.745 108.777C459.723 106.263 457.457 103.233 456.355 100.23C455.342 97.4641 455.481 95.0841 456.748 93.5608C458.035 92.0134 460.374 91.4637 463.323 91.9525C466.5 92.5095 469.892 94.1858 472.939 96.7202Z" fill="#FF9D08"/>
<path d="M472.037 96.8698C475.059 99.384 477.325 102.414 478.427 105.418C479.44 108.183 479.301 110.563 478.034 112.086C476.747 113.634 474.408 114.184 471.459 113.695C468.306 113.158 464.914 111.482 461.867 108.947C458.845 106.433 456.579 103.403 455.477 100.399C454.464 97.6338 454.603 95.2538 455.87 93.7305C457.158 92.1831 459.497 91.6334 462.445 92.1222C465.598 92.6591 469.015 94.3555 472.037 96.8698Z" fill="#FFDC4C"/>
<path d="M73.692 119.657C74.4154 118.305 75.7049 117.015 77.5605 115.946C79.6363 114.751 82.1209 113.964 84.7628 113.587L85.6749 113.084L91.2103 113.084L92.091 113.556C94.7643 113.933 97.3119 114.719 99.3877 115.914C101.243 116.984 102.533 118.273 103.225 119.657L103.854 120.003L103.854 123.526C103.822 125.79 102.281 128.055 99.2933 129.784C93.2547 133.275 83.4733 133.275 77.4661 129.784C74.5097 128.055 73 125.822 73 123.557L73 120.003L73.692 119.657Z" fill="#FF9D08"/>
<path d="M77.5605 113.618C83.5992 110.127 93.3805 110.127 99.3877 113.618C105.395 117.109 105.363 122.771 99.3248 126.262C93.2862 129.753 83.5048 129.753 77.4976 126.262C71.4904 122.771 71.5219 117.109 77.5605 113.618Z" fill="#FFDC4C"/>
<path d="M88.5056 112.046C92.437 112.046 96.1168 112.927 98.8845 114.531C101.401 116.009 102.816 117.927 102.816 119.909C102.816 121.922 101.369 123.84 98.7902 125.35C96.0224 126.954 92.3426 127.834 88.3798 127.834C84.4484 127.834 80.7686 126.954 78.0009 125.35C75.4533 123.872 74.038 121.953 74.038 119.972C74.038 117.959 75.4847 116.04 78.0638 114.531C80.8629 112.927 84.5427 112.046 88.5056 112.046Z" fill="#FF9D08"/>
<path d="M87.908 112.738C91.8394 112.738 95.5192 113.618 98.2869 115.222C100.834 116.701 102.25 118.619 102.25 120.6C102.25 122.613 100.803 124.532 98.224 126.042C95.4563 127.646 91.7765 128.526 87.8136 128.526C83.8822 128.526 80.2024 127.646 77.4347 126.042C74.8871 124.563 73.4718 122.645 73.4718 120.663C73.4718 118.651 74.9186 116.732 77.4976 115.222C80.2653 113.618 83.9766 112.738 87.908 112.738Z" fill="#FFDC4C"/>
</g>
<defs>
<clipPath id="clip0_904_30371">
<rect width="540" height="330" fill="white"/>
</clipPath>
<clipPath id="clip1_904_30371">
<rect width="54.1395" height="54.1395" fill="white" transform="translate(236.19 121) rotate(9.7728)"/>
</clipPath>
</defs>
</svg>
