<svg width="453" height="269" viewBox="0 0 453 269" fill="none" xmlns="http://www.w3.org/2000/svg">
<path d="M1 223.794C1.65687 229.224 6.39836 251.744 9.23178 264.859C9.62905 266.697 11.2546 268 13.1358 268H17.9547C19.9781 268 21.6828 266.489 21.9258 264.48L28.8152 207.531C29.1402 204.844 32.1759 203.436 34.4369 204.923V204.923C36.6917 206.405 39.7197 205.009 40.0565 202.332L46.0737 154.505C46.6743 149.732 53.6427 149.887 54.0295 154.683L58.8801 214.827C58.9163 215.276 59.0281 215.715 59.2107 216.127L65.7364 230.839C67.0262 233.747 71.0295 234.058 72.754 231.386L77.215 224.471C77.5035 224.024 77.6999 223.524 77.7927 223L91.5449 145.276C92.324 140.873 98.6411 140.871 99.4222 145.274L100.949 153.88C101.743 158.352 108.194 158.251 108.846 153.756L113.14 124.181C113.247 123.439 113.561 122.742 114.046 122.17L131.51 101.546C131.848 101.148 132.104 100.687 132.265 100.189L135.113 91.3606C136.232 87.8924 141.027 87.6049 142.552 90.9145L146.961 100.481C147.102 100.787 147.204 101.111 147.264 101.443L159.485 169.038C160.226 173.133 165.95 173.515 167.228 169.554L174.801 146.079C175.334 144.427 176.872 143.307 178.608 143.307H181.533C183.347 143.307 184.933 144.526 185.399 146.279L205.109 220.389L209.477 230.897C210.935 234.404 216.001 234.095 217.023 230.437L234.56 167.633C235.622 163.829 240.968 163.703 242.209 167.452L246.754 181.177C247.857 184.509 252.411 184.905 254.074 181.814L256.11 178.026C257.358 175.705 260.471 175.204 262.384 177.016L263.875 178.429C266.191 180.622 270.016 179.356 270.566 176.214L291.46 56.7809C291.53 56.3817 291.66 55.9955 291.846 55.6355L297.578 44.5296C298.264 43.1997 299.636 42.3643 301.132 42.3643H317.655C318.647 42.3643 319.603 41.9962 320.338 41.3314L332.526 30.3116C333.132 29.7642 333.555 29.0446 333.74 28.2495L336.919 14.5641C337.566 11.7763 341.333 11.2989 342.656 13.837V13.837C343.734 15.9068 346.632 16.0737 347.942 14.1413L355.224 3.39104C356.484 1.53136 359.028 1.07343 360.857 2.377L382.513 17.8086C383.074 18.2089 383.523 18.7476 383.815 19.3725L404.566 63.7718C404.695 64.0489 404.856 64.3102 405.045 64.5506L411.482 72.7362C413.505 75.3085 417.592 74.496 418.477 71.3457L422.22 58.024C423.109 54.8603 427.222 54.0588 429.234 56.6572L436.875 66.5269C437.925 67.882 439.72 68.4182 441.341 67.8601L452 64.1888" stroke="white" stroke-width="2" stroke-linecap="round"/>
</svg>
