<svg width="205" height="78" viewBox="0 0 205 78" fill="none" xmlns="http://www.w3.org/2000/svg">
<path d="M59.6665 0.106848C43.3166 0.213696 29.9394 1.60274 19.4288 4.27397C7.11327 7.3726 0 14.4247 0 23.9342C0 29.4904 1.80486 33.1233 5.52075 34.8329C9.44897 36.2219 12.634 35.5808 14.8635 33.9781C11.36 29.4904 11.4662 18.1644 22.72 15.8137L26.0112 15.1726C24.7372 21.263 23.5693 29.4904 22.6138 39.6411L17.0931 40.4959C16.3499 42.3123 16.2437 43.8082 16.5622 44.9836C17.3054 47.5479 19.1103 49.0438 21.9768 49.4712C21.446 57.6986 21.1275 66.2466 21.1275 75.3288C22.72 77.1452 24.9495 78 27.7099 78C32.806 78 34.717 75.2219 35.0355 69.2384C35.5663 60.1562 35.991 53.4247 36.5219 48.8301C40.1316 48.6164 48.3065 48.4027 61.1529 48.0822L61.5775 47.5479C62.1084 46.8 62.7454 45.1973 62.7454 43.4877C62.7454 38.252 59.4542 36.4356 52.9779 36.5425C48.7312 36.6493 43.6351 37.0767 37.7959 37.611C38.9637 28.8493 40.5563 20.8356 42.3611 13.463C50.5361 12.9288 59.5604 12.7151 69.2217 12.8219L69.6463 12.1808C70.1772 11.326 70.9204 9.18904 70.9204 7.3726C70.9204 1.70959 67.4168 0 59.6665 0.106848Z" fill="white"/>
<path d="M82.6727 78C88.6181 78 93.5018 75.4356 97.4301 70.2C100.297 66.4603 101.677 63.0411 101.677 59.9425C101.677 57.5918 100.721 55.989 98.9164 55.2411C97.1115 54.3863 95.2005 54.4931 93.3957 55.6685L92.7587 58.4466C92.2278 60.263 91.3785 62.1863 90.2106 64.0027C89.0428 65.8192 87.6626 66.7808 86.2824 66.7808C83.6282 66.7808 82.4603 65.0712 82.5665 61.652C82.885 52.7836 83.7344 44.4493 85.0084 36.6493C86.0701 29.5973 88.6181 18.2712 92.6525 2.67123L91.8031 2.03014C90.6353 1.17534 87.8749 0 85.0084 0C79.9123 0 77.0458 2.45753 75.6656 8.44109C71.1003 27.4603 68.7646 45.0904 68.7646 61.4384C68.7646 72.6575 74.2854 78 82.6727 78Z" fill="white"/>
<path d="M96.3344 15.2795C96.3344 20.4082 99.7317 23.8274 105.359 23.8274C110.986 23.8274 114.383 19.4466 114.383 14.211C114.383 9.08219 110.986 5.66301 105.359 5.66301C99.7317 5.66301 96.3344 10.0438 96.3344 15.2795ZM107.27 78C112.472 78 117.037 75.4356 120.965 70.2C123.832 66.4603 125.212 63.0411 125.212 59.9425C125.212 57.5918 124.257 55.989 122.452 55.2411C120.647 54.3863 118.736 54.4931 116.931 55.6685L116.294 58.4466C115.763 60.263 114.914 62.1863 113.746 64.0027C112.578 65.8192 111.198 66.7808 109.818 66.7808C107.164 66.7808 105.996 65.0712 106.102 61.652C106.208 56.4164 107.057 49.8986 107.482 46.8C107.694 45.1973 108.119 42.9534 108.65 39.9616L109.605 34.726L108.968 34.0849C108.119 33.2301 105.465 32.0548 102.386 32.0548C97.1837 32.0548 94.211 34.8329 93.4678 40.2822C92.7246 45.9452 92.3 52.9973 92.3 61.4384C92.3 72.5507 98.3516 78 107.27 78Z" fill="white"/>
<path d="M165.522 58.4466C165.097 60.263 164.248 62.1863 163.08 64.0027C161.912 65.8192 160.532 66.7808 159.152 66.7808C156.71 66.7808 155.861 65.2849 156.498 62.2931C160.744 42.9534 157.772 32.0548 145.35 32.0548C140.679 32.0548 136.326 33.9781 132.398 37.9315C132.504 34.1918 129.531 32.0548 125.603 32.0548C120.613 32.0548 117.853 35.0466 117.109 40.9233C116.154 48.4027 115.729 60.263 115.835 76.3973C117.64 77.4658 119.339 78 120.931 78C125.497 78 128.788 75.1151 129.106 70.3068C129.637 62.8274 130.168 56.5233 130.699 51.3945C133.778 47.0137 136.963 44.8767 140.042 44.8767C144.182 44.8767 144.819 48.6164 143.439 66.7808C142.696 74.9014 148.641 78 155.542 78C161.488 78 166.371 75.4356 170.3 70.2C173.166 66.4603 174.546 63.0411 174.546 59.9425C174.546 57.5918 173.591 55.989 171.68 55.2411C169.875 54.3863 168.07 54.4931 166.265 55.6685L165.522 58.4466Z" fill="white"/>
<path d="M196.507 56.737C195.976 59.7288 193.215 66.7808 186.208 66.7808C181.749 66.7808 179.52 64.3233 179.52 59.5151C179.52 55.0274 180.263 49.6849 181.855 43.5945L192.578 42.2055C193.321 40.1753 193.534 38.3589 193.109 36.863C192.26 33.5507 189.712 31.8411 185.359 31.8411L187.376 25.9644L188.862 21.6904L188.119 21.0493C187.164 20.1945 184.403 19.0192 181.431 19.0192C176.441 19.0192 173.574 21.6904 171.769 27.2466C171.451 28.2082 170.708 30.7726 170.283 31.7342C169.009 31.6274 167.098 31.6274 164.444 31.6274L164.125 32.1616C163.594 32.9096 163.064 34.726 163.064 36.4356C163.064 40.1753 164.444 42.4192 167.31 43.274C166.249 48.6164 165.718 54.1726 165.718 59.8356C165.718 71.8027 172.619 78 183.342 78C190.986 78 196.825 75.4356 200.753 70.2C203.62 66.4603 205 63.0411 205 59.9425C205 57.5918 204.044 55.989 202.133 55.2411C200.329 54.3863 198.524 54.4931 196.719 55.6685L196.507 56.737Z" fill="white"/>
</svg>
