<svg width="360" height="360" viewBox="0 0 360 360" fill="none" xmlns="http://www.w3.org/2000/svg">
<g clip-path="url(#clip0_811_31982)">
<rect x="23" y="25" width="311" height="311" rx="155.5" fill="#ECF4FA"/>
<path d="M115.16 184.238C115.16 184.238 122.311 216.189 117.092 227.575C111.874 238.943 105.373 320.816 105.373 320.816H97.2905L41.7331 166.621C41.7331 166.621 35.8295 123.654 51.6252 122.595C67.4209 121.536 108.676 161.854 108.676 161.854L115.16 184.238Z" fill="#EC9776"/>
<path d="M89.9285 147.256C89.9285 147.256 117.567 146.638 120.659 153.893C123.751 161.148 129.532 177.936 126.633 183.32C123.751 188.704 119.412 189.957 114.668 188.086C109.924 186.215 106.409 173.999 106.831 170.892C107.253 167.786 96.7282 160.53 94.04 158.041C91.3517 155.552 89.9285 147.256 89.9285 147.256Z" fill="#FCB59F"/>
<path d="M87.2402 128.279C87.2402 128.279 83.7261 142.79 87.2402 144.449C90.7543 146.108 106.427 153.575 115.493 150.045C124.577 146.514 126.422 141.024 124.155 139.63C121.889 138.235 100.436 128.491 97.1323 128.279C93.8467 128.085 87.2402 128.279 87.2402 128.279Z" fill="#FCB59F"/>
<path d="M244.214 139.577C244.214 139.577 194.402 79.3461 194.437 67.8719C194.454 59.8577 202.027 57.0862 209.02 64.5179C215.996 71.932 254.967 117.07 254.967 117.07L244.214 139.577Z" fill="#FCB59F"/>
<path d="M291.214 143.99C291.214 143.99 299.472 137.776 296.995 128.861C294.517 119.947 295.958 84.2357 309.575 88.7371C309.575 88.7371 311.631 89.0196 312.053 91.0143C312.457 93.0091 312.878 110.838 314.53 114.157C316.182 117.476 320.311 127.22 320.715 129.285C321.119 131.35 327.725 162.242 323.807 176.735C319.889 191.246 314.723 208.651 316.182 213.823C317.622 218.996 335.368 254.654 345.261 270.612C355.153 286.57 351.234 288.635 351.234 288.635C351.234 288.635 290.301 317.691 285.223 298.379C280.075 278.697 273.872 263.974 250.978 251.123C228.084 238.272 213.237 209.463 214.889 194.759C216.54 180.054 206.244 166.797 206.244 166.797C206.244 166.797 195.526 166.179 192.416 159.753C189.324 153.328 190.15 141.095 198.812 138.2C198.812 138.2 192.205 132.392 193.242 124.731C194.279 117.07 199.638 111.05 213.255 113.133C226.872 115.198 291.214 143.99 291.214 143.99Z" fill="#FCB59F"/>
<path d="M249.731 250.223C249.731 250.223 231.229 214.9 240.436 214.282C249.643 213.647 252.805 204.944 252.805 204.944L216.277 206.621C216.294 206.603 222.584 233.877 249.731 250.223Z" fill="#EC9776"/>
<path d="M238.011 29.1421L294.113 38.6215C302.143 39.9808 307.572 47.6243 306.219 55.6916L281.603 202.791C280.25 210.858 272.642 216.312 264.613 214.953L208.511 205.474C200.481 204.114 195.052 196.471 196.405 188.404L221.021 41.3047C222.374 33.2198 229.982 27.7828 238.011 29.1421Z" fill="#ABC3FF"/>
<path d="M216.839 40.5987L192.223 187.698C190.87 195.765 196.299 203.408 204.329 204.768L260.431 214.247C268.461 215.606 276.069 210.152 277.422 202.084L302.038 54.9855C303.39 46.9183 297.961 39.2747 289.932 37.9155L233.83 28.436C225.782 27.0768 218.174 32.5138 216.839 40.5987ZM221.003 41.4107C222.005 35.4617 227.592 31.4546 233.513 32.4608L241.227 33.7671C242.193 33.926 242.843 34.8439 242.685 35.8148L242.228 38.5333C241.929 40.3515 243.142 42.0815 244.969 42.3816L274.874 47.4302C276.684 47.7303 278.405 46.5123 278.704 44.6764L279.161 41.9579C279.319 40.987 280.233 40.3339 281.199 40.4927L288.912 41.799C294.834 42.8052 298.822 48.4187 297.821 54.3677L273.24 201.255C272.238 207.204 266.651 211.211 260.73 210.205L205.33 200.849C199.409 199.843 195.421 194.229 196.422 188.28L221.003 41.4107Z" fill="#071A2E"/>
<path d="M221.003 41.4107C222.005 35.4618 227.592 31.4547 233.513 32.4609L241.227 33.7672C242.193 33.926 242.843 34.844 242.685 35.8149L242.228 38.5334C241.929 40.3516 243.142 42.0815 244.969 42.3816L274.874 47.4303C276.684 47.7304 278.405 46.5123 278.704 44.6765L279.161 41.958C279.319 40.9871 280.233 40.3339 281.199 40.4928L288.912 41.7991C294.834 42.8053 298.822 48.4188 297.821 54.3677L273.24 201.255C272.238 207.204 266.651 211.211 260.73 210.205L205.33 200.849C199.409 199.843 195.421 194.229 196.422 188.28L221.003 41.4107Z" fill="#FBFBFB"/>
<path d="M256.706 40.7046L266.124 42.2933C266.616 42.3815 267.073 42.0461 267.16 41.5519L267.196 41.3047C267.283 40.8105 266.95 40.3515 266.458 40.2632L257.04 38.6745C256.548 38.5862 256.091 38.9216 256.003 39.4159L255.968 39.6631C255.898 40.175 256.232 40.6339 256.706 40.7046Z" fill="#FBFBFB"/>
<path d="M252.928 40.0691L253.174 40.1044C253.666 40.1926 254.123 39.8572 254.211 39.363L254.246 39.1158C254.334 38.6215 254 38.1626 253.508 38.0743L253.262 38.039C252.77 37.9507 252.314 38.2861 252.226 38.7804L252.191 39.0276C252.12 39.5218 252.454 39.9984 252.928 40.0691Z" fill="#FBFBFB"/>
<path d="M204.223 118.5L204.926 113.433C204.926 113.433 196.264 109.656 188.99 117.67C181.716 125.684 188.287 136.823 191.397 136.823C194.49 136.823 188.076 142.348 188.076 142.348C188.076 142.348 180.029 150.821 187.69 161.042C195.35 171.263 202.554 164.273 202.554 164.273C202.554 164.273 210.215 154.423 203.398 146.497C196.58 138.571 204.487 135.446 204.487 135.446C204.487 135.446 210.215 132.216 207.193 122.189C204.153 112.145 204.223 118.5 204.223 118.5Z" fill="#FCB59F"/>
<path d="M184.949 121.377L68.0359 143.566C65.9275 143.972 63.8893 142.578 63.4852 140.442L49.9385 68.3485C49.5343 66.2302 50.9224 64.1825 53.0484 63.7764L169.944 41.6048C172.052 41.1988 174.09 42.5934 174.495 44.7293L188.041 116.822C188.445 118.941 187.057 120.988 184.949 121.377Z" fill="#4E7AEC"/>
<path d="M302.231 90.9438C302.231 90.9438 298.928 118.27 303.478 132.357C308.011 146.444 289.721 154.228 289.721 154.228L291.706 142.913C291.706 142.913 298.84 140.106 296.995 128.844C295.203 117.935 294.799 108.385 302.231 90.9438Z" fill="#EC9776"/>
<path d="M64.9435 176.312C64.9435 176.312 69.3361 148.121 67.7021 125.755C66.0329 103.371 69.6875 96.5397 74.4315 96.5397C79.1755 96.5397 90.3151 90.9438 91.545 136.435C91.545 136.435 92.9858 165.967 107.218 185.65C121.45 205.333 108.869 242.226 108.869 242.226L103.089 320.833H44.316C44.316 320.833 52.9781 286.57 50.9224 272.077C48.8667 257.567 30.5057 205.968 20.8069 192.711C11.108 179.454 14.2004 168.88 14.2004 168.88L29.6623 124.537C29.6623 124.537 36.0579 105.684 54.4189 105.472C56.5801 105.454 57.0369 106.531 57.0369 106.531L60.7969 125.49C60.7969 125.49 60.3401 128.191 58.3371 127.838C58.3371 127.838 60.1995 139.435 56.0705 142.348C51.9415 145.243 43.0685 155.199 45.3526 161.007C47.6368 166.815 64.9435 176.312 64.9435 176.312Z" fill="#FCB59F"/>
<path d="M71.5324 100.123C71.5324 100.123 68.932 118.905 74.7127 122.771C80.4933 126.637 72.8326 127.184 72.8326 127.184C72.8326 127.184 64.7854 113.927 71.5324 100.123Z" fill="#EC9776"/>
<path d="M172.193 80.8288C172.737 83.8651 172.544 86.5659 171.631 89.2138C171.508 89.5669 171.191 89.814 170.84 89.8317C170.471 89.8493 170.137 89.6551 169.979 89.3197C169.873 89.0902 169.873 88.8608 169.944 88.6313C170.313 87.5545 170.559 86.4424 170.664 85.3126C170.752 84.3594 170.734 83.4238 170.629 82.4705C170.559 81.8174 170.436 81.1819 170.278 80.5464C169.979 79.399 169.557 78.3222 168.995 77.2807C168.538 76.4333 167.993 75.6566 167.379 74.9329C166.974 74.4563 167.133 73.7678 167.695 73.5207C168.064 73.3618 168.468 73.4677 168.731 73.7678C169.469 74.6504 170.119 75.586 170.664 76.6099C171.139 77.4925 171.525 78.4104 171.806 79.3813C171.982 79.9462 172.105 80.5287 172.193 80.8288Z" fill="white"/>
<path d="M168.626 81.888C168.995 84.0592 168.837 86.1599 168.134 88.2076C168.011 88.5606 167.765 88.7725 167.396 88.8254C167.062 88.8784 166.781 88.7548 166.588 88.49C166.395 88.2252 166.359 87.9428 166.465 87.6251C166.693 86.9719 166.851 86.3011 166.957 85.6127C167.168 84.1122 167.062 82.6294 166.641 81.1819C166.219 79.6991 165.498 78.3751 164.515 77.1924C164.286 76.9276 164.216 76.6099 164.321 76.2745C164.427 75.9567 164.673 75.7625 165.006 75.6919C165.34 75.639 165.621 75.7272 165.832 75.992C166.588 76.8923 167.22 77.8632 167.712 78.94C168.152 79.8756 168.45 80.8818 168.626 81.888Z" fill="white"/>
<path d="M165.182 82.594C165.446 84.0239 165.34 85.6126 164.813 87.1837C164.69 87.5544 164.374 87.8015 164.005 87.8192C163.636 87.8368 163.302 87.625 163.144 87.2896C163.056 87.0778 163.039 86.8483 163.127 86.6188C163.425 85.7185 163.566 84.8006 163.531 83.8473C163.46 82.0997 162.863 80.564 161.756 79.2224C161.598 79.0282 161.51 78.834 161.528 78.5869C161.545 78.1985 161.774 77.8984 162.143 77.7749C162.476 77.6513 162.863 77.7572 163.091 78.0573C163.425 78.4457 163.706 78.8517 163.97 79.2753C164.532 80.2286 164.919 81.2701 165.182 82.594Z" fill="white"/>
<path d="M161.809 83.0884C161.984 84.2181 161.879 85.2949 161.44 86.3541C161.282 86.7248 160.948 86.9543 160.561 86.9366C160.175 86.919 159.858 86.6542 159.753 86.2658C159.7 86.0716 159.718 85.8775 159.806 85.7009C160.122 84.9242 160.21 84.1299 160.017 83.3002C159.858 82.5941 159.525 81.9762 159.015 81.4467C158.611 81.023 158.664 80.3875 159.12 80.0698C159.472 79.8226 159.946 79.8756 160.263 80.1757C160.825 80.7406 161.246 81.4114 161.51 82.1528C161.633 82.4529 161.721 82.7706 161.809 83.0884Z" fill="white"/>
<path d="M279.758 103.689L220.564 93.6976C218.772 93.3975 217.559 91.6852 217.858 89.8846L223.973 53.3085C224.271 51.5079 225.976 50.2899 227.768 50.59L286.962 60.5814C288.754 60.8815 289.967 62.5937 289.668 64.3943L283.554 100.953C283.255 102.771 281.551 103.989 279.758 103.689Z" fill="#EAEAEA"/>
<path d="M271.711 151.704L212.517 141.713C210.725 141.413 209.512 139.7 209.811 137.9L215.925 101.324C216.224 99.5229 217.928 98.3049 219.721 98.605L278.915 108.596C280.707 108.896 281.92 110.609 281.621 112.409L275.524 148.985C275.208 150.786 273.521 152.004 271.711 151.704Z" fill="#EAEAEA"/>
<path d="M262.592 199.542L242.175 196.1C240.383 195.8 239.171 194.088 239.47 192.287L240.208 187.856C240.506 186.056 242.211 184.838 244.003 185.138L264.42 188.58C266.212 188.88 267.424 190.593 267.125 192.393L266.387 196.824C266.089 198.625 264.402 199.843 262.592 199.542Z" fill="#F31F6C"/>
<path d="M240.577 79.8403L228.189 77.7573C226.397 77.4572 225.185 75.7449 225.484 73.9443L228.172 57.8628C228.471 56.0622 230.175 54.8442 231.967 55.1443L244.354 57.2273C246.146 57.5274 247.359 59.2397 247.06 61.0403L244.372 77.1218C244.091 78.9223 242.386 80.1404 240.577 79.8403Z" fill="#E0E0E0"/>
<path d="M231.44 128.138L219.053 126.055C217.261 125.755 216.048 124.042 216.347 122.242L219.035 106.16C219.334 104.36 221.038 103.142 222.83 103.442L235.218 105.525C237.01 105.825 238.222 107.537 237.923 109.338L235.235 125.419C234.936 127.237 233.232 128.456 231.44 128.138Z" fill="#E0E0E0"/>
</g>
<g clip-path="url(#clip1_811_31982)">
<path d="M115.037 184.204C115.037 184.204 122.162 215.99 116.963 227.317C111.764 238.626 105.287 320.076 105.287 320.076H97.2342L41.8826 166.678C41.8826 166.678 36.0009 123.933 51.7381 122.88C67.4753 121.826 108.578 161.936 108.578 161.936L115.037 184.204Z" fill="#EC9776"/>
<path d="M89.8995 147.413C89.8995 147.413 117.435 146.798 120.516 154.016C123.597 161.233 129.356 177.934 126.468 183.291C123.597 188.647 119.273 189.894 114.547 188.032C109.82 186.171 106.319 174.018 106.74 170.927C107.16 167.837 96.674 160.619 93.9957 158.143C91.3174 155.667 89.8995 147.413 89.8995 147.413Z" fill="#FCB59F"/>
<path d="M87.2212 128.534C87.2212 128.534 83.7201 142.97 87.2212 144.62C90.7222 146.271 106.337 153.7 115.37 150.187C124.42 146.675 126.258 141.214 124 139.826C121.741 138.439 100.368 128.745 97.0766 128.534C93.8031 128.341 87.2212 128.534 87.2212 128.534Z" fill="#FCB59F"/>
<path d="M243.613 139.773C243.613 139.773 193.986 79.8541 194.021 68.4392C194.038 60.4664 201.583 57.7092 208.55 65.1026C215.499 72.4783 254.326 117.383 254.326 117.383L243.613 139.773Z" fill="#FCB59F"/>
<path d="M290.439 144.164C290.439 144.164 298.667 137.982 296.199 129.114C293.73 120.245 295.166 84.7186 308.732 89.1968C308.732 89.1968 310.78 89.4778 311.201 91.4622C311.603 93.4466 312.023 111.184 313.669 114.485C315.314 117.787 319.428 127.481 319.831 129.535C320.233 131.59 326.815 162.322 322.912 176.74C319.008 191.176 313.861 208.491 315.314 213.637C316.75 218.782 334.43 254.256 344.285 270.131C354.141 286.007 350.237 288.062 350.237 288.062C350.237 288.062 289.529 316.968 284.47 297.755C279.341 278.175 273.162 263.528 250.352 250.744C227.543 237.959 212.751 209.299 214.397 194.67C216.042 180.042 205.784 166.853 205.784 166.853C205.784 166.853 195.106 166.238 192.007 159.846C188.927 153.454 189.749 141.284 198.379 138.404C198.379 138.404 191.797 132.626 192.83 125.004C193.863 117.383 199.202 111.394 212.769 113.467C226.335 115.521 290.439 144.164 290.439 144.164Z" fill="#FCB59F"/>
<path d="M249.11 249.848C249.11 249.848 230.677 214.708 239.849 214.093C249.022 213.461 252.173 204.803 252.173 204.803L215.78 206.472C215.797 206.454 222.064 233.586 249.11 249.848Z" fill="#EC9776"/>
<path d="M237.433 29.9096L293.328 39.34C301.328 40.6922 306.737 48.2963 305.389 56.3218L280.864 202.661C279.516 210.686 271.936 216.113 263.936 214.76L208.042 205.33C200.042 203.978 194.633 196.374 195.981 188.348L220.506 42.0093C221.854 33.9662 229.434 28.5573 237.433 29.9096Z" fill="#ABC3FF"/>
<path d="M216.34 41.3069L191.815 187.646C190.467 195.671 195.876 203.275 203.876 204.628L259.77 214.058C267.77 215.41 275.35 209.984 276.698 201.958L301.223 55.6194C302.57 47.5939 297.161 39.9898 289.161 38.6376L233.267 29.2072C225.25 27.8549 217.67 33.2638 216.34 41.3069ZM220.488 42.1148C221.486 36.1966 227.053 32.2102 232.952 33.2112L240.637 34.5107C241.6 34.6687 242.247 35.5819 242.09 36.5478L241.635 39.2523C241.337 41.0611 242.545 42.7821 244.366 43.0806L274.159 48.1032C275.963 48.4017 277.678 47.19 277.976 45.3636L278.431 42.6592C278.588 41.6933 279.499 41.0435 280.461 41.2016L288.146 42.5011C294.045 43.5021 298.019 49.0866 297.021 55.0048L272.531 201.133C271.534 207.051 265.967 211.037 260.068 210.036L204.874 200.729C198.975 199.728 195.001 194.143 195.999 188.225L220.488 42.1148Z" fill="#071A2E"/>
<path d="M220.488 42.1148C221.486 36.1966 227.053 32.2102 232.952 33.2112L240.637 34.5107C241.6 34.6688 242.247 35.582 242.09 36.5478L241.635 39.2523C241.337 41.0611 242.545 42.7821 244.366 43.0807L274.159 48.1032C275.963 48.4017 277.678 47.19 277.976 45.3636L278.431 42.6592C278.588 41.6933 279.499 41.0435 280.461 41.2016L288.146 42.5011C294.045 43.5021 298.019 49.0866 297.021 55.0048L272.531 201.133C271.534 207.051 265.967 211.038 260.068 210.037L204.874 200.729C198.975 199.728 195.001 194.143 195.999 188.225L220.488 42.1148Z" fill="#FBFBFB"/>
<path d="M256.059 41.4123L265.442 42.9928C265.932 43.0806 266.387 42.7469 266.475 42.2552L266.51 42.0093C266.597 41.5176 266.265 41.061 265.774 40.9732L256.392 39.3927C255.902 39.3049 255.446 39.6386 255.359 40.1303L255.324 40.3761C255.254 40.8854 255.586 41.342 256.059 41.4123Z" fill="#FBFBFB"/>
<path d="M252.295 40.78L252.541 40.8152C253.031 40.903 253.486 40.5693 253.573 40.0776L253.608 39.8317C253.696 39.34 253.363 38.8834 252.873 38.7956L252.628 38.7605C252.138 38.6727 251.683 39.0064 251.595 39.4981L251.56 39.7439C251.49 40.2356 251.823 40.7098 252.295 40.78Z" fill="#FBFBFB"/>
<path d="M203.771 118.805L204.471 113.765C204.471 113.765 195.841 110.007 188.594 117.98C181.347 125.953 187.894 137.034 190.992 137.034C194.073 137.034 187.684 142.531 187.684 142.531C187.684 142.531 179.666 150.96 187.299 161.128C194.931 171.296 202.108 164.342 202.108 164.342C202.108 164.342 209.74 154.543 202.948 146.658C196.156 138.773 204.034 135.664 204.034 135.664C204.034 135.664 209.74 132.45 206.729 122.476C203.701 112.483 203.771 118.805 203.771 118.805Z" fill="#FCB59F"/>
<path d="M184.568 121.668L68.088 143.742C65.9873 144.146 63.9567 142.759 63.5541 140.634L50.0576 68.9135C49.655 66.8062 51.0379 64.769 53.156 64.3651L169.618 42.3081C171.719 41.9041 173.75 43.2915 174.152 45.4164L187.649 117.137C188.051 119.244 186.668 121.281 184.568 121.668Z" fill="#4E7AEC"/>
<path d="M301.415 91.392C301.415 91.392 298.124 118.577 302.658 132.591C307.174 146.605 288.951 154.349 288.951 154.349L290.929 143.093C290.929 143.093 298.037 140.3 296.199 129.096C294.413 118.243 294.01 108.743 301.415 91.392Z" fill="#EC9776"/>
<path d="M65.007 176.319C65.007 176.319 69.3833 148.273 67.7553 126.023C66.0924 103.755 69.7334 96.959 74.4598 96.959C79.1863 96.959 90.2846 91.392 91.5099 136.648C91.5099 136.648 92.9454 166.028 107.125 185.609C121.304 205.19 108.77 241.893 108.77 241.893L103.011 320.094H44.4559C44.4559 320.094 53.086 286.007 51.0378 271.589C48.9897 257.154 30.6968 205.822 21.0339 192.633C11.371 179.445 14.4519 168.925 14.4519 168.925L29.8565 124.811C29.8565 124.811 36.2284 106.056 54.5214 105.845C56.6745 105.827 57.1297 106.899 57.1297 106.899L60.8758 125.76C60.8758 125.76 60.4207 128.446 58.4251 128.095C58.4251 128.095 60.2806 139.633 56.1669 142.531C52.0532 145.411 43.213 155.315 45.4887 161.093C47.7644 166.871 65.007 176.319 65.007 176.319Z" fill="#FCB59F"/>
<path d="M71.5715 100.524C71.5715 100.524 68.9807 119.209 74.7399 123.055C80.4991 126.901 72.8669 127.445 72.8669 127.445C72.8669 127.445 64.8495 114.257 71.5715 100.524Z" fill="#EC9776"/>
<path d="M171.859 81.3293C172.402 84.3498 172.209 87.0367 171.299 89.6709C171.176 90.0221 170.861 90.268 170.511 90.2856C170.143 90.3031 169.811 90.1099 169.653 89.7763C169.548 89.548 169.548 89.3197 169.618 89.0914C169.986 88.0201 170.231 86.9138 170.336 85.7898C170.423 84.8415 170.406 83.9108 170.301 82.9625C170.231 82.3127 170.108 81.6805 169.951 81.0483C169.653 79.9068 169.233 78.8355 168.673 77.7994C168.218 76.9565 167.675 76.1838 167.062 75.4638C166.66 74.9896 166.817 74.3047 167.378 74.0589C167.745 73.9008 168.148 74.0062 168.41 74.3047C169.146 75.1828 169.793 76.1135 170.336 77.1321C170.809 78.0102 171.194 78.9234 171.474 79.8892C171.649 80.4512 171.771 81.0307 171.859 81.3293Z" fill="white"/>
<path d="M168.305 82.383C168.673 84.543 168.515 86.6328 167.815 88.6699C167.693 89.0212 167.448 89.2319 167.08 89.2846C166.747 89.3373 166.467 89.2143 166.275 88.9509C166.082 88.6875 166.047 88.4065 166.152 88.0904C166.38 87.4406 166.537 86.7733 166.642 86.0884C166.852 84.5957 166.747 83.1206 166.327 81.6805C165.907 80.2054 165.189 78.8883 164.209 77.7117C163.981 77.4482 163.911 77.1321 164.016 76.7985C164.122 76.4824 164.367 76.2892 164.699 76.2189C165.032 76.1663 165.312 76.2541 165.522 76.5175C166.275 77.4131 166.905 78.379 167.395 79.4502C167.833 80.381 168.13 81.382 168.305 82.383Z" fill="white"/>
<path d="M164.874 83.0854C165.137 84.5079 165.032 86.0884 164.507 87.6514C164.384 88.0202 164.069 88.266 163.701 88.2836C163.334 88.3012 163.001 88.0904 162.844 87.7568C162.756 87.546 162.739 87.3177 162.826 87.0894C163.124 86.1938 163.264 85.2806 163.229 84.3323C163.159 82.5937 162.564 81.0659 161.461 79.7312C161.303 79.5381 161.216 79.3449 161.233 79.099C161.251 78.7127 161.478 78.4141 161.846 78.2912C162.179 78.1683 162.564 78.2736 162.791 78.5722C163.124 78.9585 163.404 79.3624 163.666 79.7839C164.227 80.7322 164.612 81.7683 164.874 83.0854Z" fill="white"/>
<path d="M161.513 83.5772C161.688 84.7011 161.583 85.7724 161.146 86.826C160.988 87.1948 160.655 87.4231 160.27 87.4056C159.885 87.388 159.57 87.1246 159.465 86.7382C159.413 86.5451 159.43 86.3519 159.518 86.1763C159.833 85.4036 159.92 84.6133 159.728 83.7879C159.57 83.0855 159.238 82.4708 158.73 81.944C158.327 81.5225 158.38 80.8903 158.835 80.5742C159.185 80.3283 159.658 80.381 159.973 80.6796C160.533 81.2415 160.953 81.9089 161.216 82.6464C161.338 82.945 161.426 83.2611 161.513 83.5772Z" fill="white"/>
<path d="M279.026 104.071L220.051 94.1316C218.265 93.833 217.057 92.1296 217.355 90.3383L223.447 53.9512C223.744 52.1599 225.442 50.9482 227.228 51.2467L286.203 61.1865C287.989 61.485 289.196 63.1885 288.899 64.9797L282.807 101.349C282.509 103.158 280.811 104.37 279.026 104.071Z" fill="#EAEAEA"/>
<path d="M271.009 151.838L212.033 141.898C210.248 141.6 209.04 139.896 209.338 138.105L215.429 101.718C215.727 99.9268 217.425 98.715 219.211 99.0136L278.186 108.953C279.971 109.252 281.179 110.955 280.881 112.747L274.807 149.134C274.492 150.925 272.812 152.137 271.009 151.838Z" fill="#EAEAEA"/>
<path d="M261.923 199.429L241.582 196.005C239.797 195.706 238.589 194.003 238.886 192.212L239.622 187.804C239.919 186.013 241.617 184.801 243.403 185.099L263.744 188.524C265.529 188.822 266.737 190.526 266.44 192.317L265.704 196.725C265.407 198.516 263.726 199.728 261.923 199.429Z" fill="#F31F6C"/>
<path d="M239.989 80.346L227.648 78.2737C225.863 77.9752 224.655 76.2717 224.952 74.4805L227.631 58.4821C227.928 56.6908 229.626 55.4791 231.412 55.7776L243.753 57.8499C245.538 58.1484 246.746 59.8519 246.449 61.6431L243.77 77.6415C243.49 79.4328 241.792 80.6445 239.989 80.346Z" fill="#E0E0E0"/>
<path d="M230.887 128.394L218.545 126.322C216.76 126.023 215.552 124.32 215.85 122.528L218.528 106.53C218.825 104.739 220.523 103.527 222.309 103.825L234.65 105.898C236.436 106.196 237.644 107.9 237.346 109.691L234.668 125.689C234.37 127.498 232.672 128.71 230.887 128.394Z" fill="#E0E0E0"/>
</g>
<defs>
<clipPath id="clip0_811_31982">
<rect x="23" y="25" width="311" height="311" rx="155.5" fill="white"/>
</clipPath>
<clipPath id="clip1_811_31982">
<rect width="337" height="192" fill="white" transform="translate(14 29)"/>
</clipPath>
</defs>
</svg>
