<svg width="540" height="330" viewBox="0 0 540 330" fill="none" xmlns="http://www.w3.org/2000/svg">
<g clip-path="url(#clip0_819_22877)">
<path d="M310.67 24L220.278 24C207.305 24 196.825 34.4274 196.825 47.3345V282.078C196.825 294.954 207.305 305.413 220.278 305.413H310.67C323.611 305.413 334.123 294.986 334.123 282.078V47.3345C334.123 34.4274 323.611 24 310.67 24Z" fill="#989898"/>
<path d="M316.253 24L225.861 24C212.92 24 202.408 34.4274 202.408 47.3345V282.078C202.408 294.954 212.888 305.413 225.861 305.413H316.253C329.194 305.413 339.706 294.986 339.706 282.078V47.3345C339.706 34.4274 329.194 24 316.253 24Z" fill="black"/>
<path d="M317.412 24L227.02 24C214.079 24 203.567 34.4274 203.567 47.3345V282.078C203.567 294.954 214.047 305.413 227.02 305.413H317.412C330.353 305.413 340.865 294.986 340.865 282.078V47.3345C340.865 34.4274 330.353 24 317.412 24ZM334.123 281.888C334.123 291.361 326.391 299.055 316.869 299.055H227.595C218.073 299.055 210.341 291.361 210.341 281.888V47.5253C210.341 38.0516 218.073 30.3582 227.595 30.3582H240.024C241.59 30.3582 242.836 31.598 242.836 33.1558V37.4793C242.836 40.3723 245.201 42.7566 248.14 42.7566H296.324C299.232 42.7566 301.628 40.4041 301.628 37.4793V33.1558C301.628 31.598 302.874 30.3582 304.44 30.3582H316.869C326.391 30.3582 334.123 38.0516 334.123 47.5253V281.888Z" fill="black"/>
<path d="M334.007 282.229C334.007 291.703 326.274 299.396 316.753 299.396H227.478C217.956 299.396 210.224 291.703 210.224 282.229V47.8666C210.224 38.393 217.956 30.6996 227.478 30.6996H239.908C241.473 30.6996 242.719 31.9394 242.719 33.4972V37.8207C242.719 40.7137 245.084 43.098 248.023 43.098H296.207C299.115 43.098 301.511 40.7455 301.511 37.8207V33.4972C301.511 31.9394 302.757 30.6996 304.323 30.6996H316.753C326.274 30.6996 334.007 38.393 334.007 47.8666V282.229Z" fill="#1D1D1D"/>
<path d="M219.646 65.2987C219.745 67.1486 221.276 68.3181 223.544 68.3181C225.968 68.3181 227.492 67.1203 227.492 65.2066C227.492 63.7111 226.62 62.8676 224.522 62.3715L223.395 62.095C222.077 61.769 221.538 61.3437 221.538 60.6208C221.538 59.7136 222.382 59.0898 223.615 59.0898C224.848 59.0898 225.692 59.7065 225.784 60.7271H227.329C227.279 58.9623 225.798 57.7503 223.636 57.7503C221.453 57.7503 219.915 58.9623 219.915 60.7271C219.915 62.1518 220.787 63.0306 222.665 63.4842L223.991 63.8032C225.316 64.1292 225.876 64.6041 225.876 65.3979C225.876 66.3123 224.947 66.9785 223.657 66.9785C222.311 66.9785 221.326 66.3123 221.212 65.2987H219.646ZM235.409 66.773H230.504V63.5976H235.147V62.2793H230.504V59.2883H235.409V57.9204H228.917V68.148H235.409V66.773ZM241.164 68.148V59.2883H244.29V57.9204H236.444V59.2883H239.577V68.148H241.164Z" fill="white"/>
<path d="M274.757 69.3812H276.19V59.9403H274.744L272.258 61.7068V63.1461L274.725 61.3927H274.757V69.3812ZM279.187 71.3243L280.076 67.8698H278.65L278.061 71.3243H279.187ZM285.212 69.5644C287.214 69.5644 288.66 68.1904 288.66 66.2996C288.66 64.507 287.326 63.1788 285.526 63.1788C284.349 63.1788 283.348 63.7938 282.936 64.7098H282.909C282.916 62.3349 283.78 60.9871 285.265 60.9871C286.128 60.9871 286.835 61.4909 287.064 62.2629H288.529C288.242 60.7581 286.946 59.7571 285.278 59.7571C282.916 59.7571 281.503 61.6283 281.503 64.7883C281.503 65.894 281.699 66.823 282.085 67.5754C282.7 68.8512 283.819 69.5644 285.212 69.5644ZM285.199 68.3278C284.074 68.3278 283.204 67.438 283.204 66.3193C283.204 65.2005 284.061 64.3761 285.212 64.3761C286.37 64.3761 287.201 65.2005 287.201 66.3454C287.201 67.4511 286.311 68.3278 285.199 68.3278ZM293.312 69.5578C295.406 69.5578 296.884 68.4325 296.884 66.8296C296.884 65.6323 296.04 64.664 294.784 64.4023V64.3696C295.831 64.0686 296.498 63.2574 296.498 62.2563C296.498 60.8104 295.17 59.7636 293.312 59.7636C291.46 59.7636 290.119 60.817 290.119 62.2498C290.119 63.2639 290.793 64.0817 291.84 64.3696V64.4023C290.59 64.664 289.74 65.6258 289.74 66.8296C289.74 68.426 291.205 69.5578 293.312 69.5578ZM293.312 68.3802C292.108 68.3802 291.251 67.6866 291.251 66.7249C291.251 65.7566 292.108 65.0566 293.312 65.0566C294.516 65.0566 295.366 65.7501 295.366 66.7249C295.366 67.6866 294.516 68.3802 293.312 68.3802ZM293.312 63.8789C292.285 63.8789 291.572 63.2639 291.572 62.4068C291.572 61.5432 292.285 60.9282 293.312 60.9282C294.333 60.9282 295.052 61.5432 295.052 62.4068C295.052 63.2639 294.326 63.8789 293.312 63.8789ZM301.595 69.5578C303.688 69.5578 305.167 68.4325 305.167 66.8296C305.167 65.6323 304.323 64.664 303.067 64.4023V64.3696C304.114 64.0686 304.781 63.2574 304.781 62.2563C304.781 60.8104 303.453 59.7636 301.595 59.7636C299.743 59.7636 298.402 60.817 298.402 62.2498C298.402 63.2639 299.076 64.0817 300.123 64.3696V64.4023C298.873 64.664 298.023 65.6258 298.023 66.8296C298.023 68.426 299.488 69.5578 301.595 69.5578ZM301.595 68.3802C300.391 68.3802 299.534 67.6866 299.534 66.7249C299.534 65.7566 300.391 65.0566 301.595 65.0566C302.799 65.0566 303.649 65.7501 303.649 66.7249C303.649 67.6866 302.799 68.3802 301.595 68.3802ZM301.595 63.8789C300.568 63.8789 299.855 63.2639 299.855 62.4068C299.855 61.5432 300.568 60.9282 301.595 60.9282C302.615 60.9282 303.335 61.5432 303.335 62.4068C303.335 63.2639 302.609 63.8789 301.595 63.8789ZM307.326 69.4531C307.804 69.4531 308.183 69.0737 308.183 68.5961C308.183 68.1185 307.804 67.739 307.326 67.739C306.848 67.739 306.469 68.1185 306.469 68.5961C306.469 69.0737 306.848 69.4531 307.326 69.4531ZM313.182 69.5578C315.445 69.5578 316.774 67.6539 316.774 64.6444C316.774 61.6544 315.439 59.7636 313.182 59.7636C310.931 59.7636 309.577 61.661 309.577 64.6509C309.577 67.6605 310.918 69.5578 313.182 69.5578ZM313.182 68.3278C311.834 68.3278 311.062 66.9277 311.062 64.6509C311.062 62.4068 311.847 60.9936 313.182 60.9936C314.516 60.9936 315.295 62.4003 315.295 64.6509C315.295 66.9343 314.529 68.3278 313.182 68.3278ZM321.53 69.5578C323.794 69.5578 325.122 67.6539 325.122 64.6444C325.122 61.6544 323.787 59.7636 321.53 59.7636C319.279 59.7636 317.925 61.661 317.925 64.6509C317.925 67.6605 319.266 69.5578 321.53 69.5578ZM321.53 68.3278C320.182 68.3278 319.41 66.9277 319.41 64.6509C319.41 62.4068 320.195 60.9936 321.53 60.9936C322.865 60.9936 323.643 62.4003 323.643 64.6509C323.643 66.9343 322.878 68.3278 321.53 68.3278Z" fill="#19FF12"/>
<path d="M281.854 76.4596H283.228V75.8217H281.854V74.3758H281.206V75.8217H279.832V76.4596H281.206V77.935H281.854V76.4596ZM285.694 78.1018C286.826 78.1018 287.49 77.1499 287.49 75.6451C287.49 74.1501 286.823 73.2047 285.694 73.2047C284.569 73.2047 283.892 74.1534 283.892 75.6484C283.892 77.1531 284.562 78.1018 285.694 78.1018ZM285.694 77.4868C285.02 77.4868 284.634 76.7868 284.634 75.6484C284.634 74.5263 285.027 73.8197 285.694 73.8197C286.362 73.8197 286.751 74.523 286.751 75.6484C286.751 76.79 286.368 77.4868 285.694 77.4868ZM288.517 78.0495C288.756 78.0495 288.946 77.8597 288.946 77.6209C288.946 77.3821 288.756 77.1924 288.517 77.1924C288.279 77.1924 288.089 77.3821 288.089 77.6209C288.089 77.8597 288.279 78.0495 288.517 78.0495ZM289.809 78.0135H290.578L292.629 73.9277V73.2931H289.417V73.9113H291.906V73.9277L289.809 78.0135ZM294.939 78.1018C296.071 78.1018 296.735 77.1499 296.735 75.6451C296.735 74.1501 296.067 73.2047 294.939 73.2047C293.813 73.2047 293.136 74.1534 293.136 75.6484C293.136 77.1531 293.807 78.1018 294.939 78.1018ZM294.939 77.4868C294.265 77.4868 293.879 76.7868 293.879 75.6484C293.879 74.5263 294.271 73.8197 294.939 73.8197C295.606 73.8197 295.995 74.523 295.995 75.6484C295.995 76.79 295.613 77.4868 294.939 77.4868ZM298.998 76.1587C298.998 77.2971 299.299 78.2196 299.944 79.021H300.565C300.094 78.4715 299.725 77.2317 299.725 76.1554C299.725 75.0792 300.094 73.8426 300.565 73.2931H299.944C299.299 74.0912 298.998 75.0137 298.998 76.1587ZM303.091 76.4596H304.465V75.8217H303.091V74.3758H302.443V75.8217H301.069V76.4596H302.443V77.935H303.091V76.4596ZM306.931 78.1018C308.063 78.1018 308.727 77.1499 308.727 75.6451C308.727 74.1501 308.06 73.2047 306.931 73.2047C305.806 73.2047 305.129 74.1534 305.129 75.6484C305.129 77.1531 305.799 78.1018 306.931 78.1018ZM306.931 77.4868C306.257 77.4868 305.871 76.7868 305.871 75.6484C305.871 74.5263 306.264 73.8197 306.931 73.8197C307.599 73.8197 307.988 74.523 307.988 75.6484C307.988 76.79 307.605 77.4868 306.931 77.4868ZM309.754 78.0495C309.993 78.0495 310.183 77.8597 310.183 77.6209C310.183 77.3821 309.993 77.1924 309.754 77.1924C309.516 77.1924 309.326 77.3821 309.326 77.6209C309.326 77.8597 309.516 78.0495 309.754 78.0495ZM312.682 78.1018C313.814 78.1018 314.478 77.1499 314.478 75.6451C314.478 74.1501 313.811 73.2047 312.682 73.2047C311.557 73.2047 310.88 74.1534 310.88 75.6484C310.88 77.1531 311.55 78.1018 312.682 78.1018ZM312.682 77.4868C312.008 77.4868 311.622 76.7868 311.622 75.6484C311.622 74.5263 312.015 73.8197 312.682 73.8197C313.349 73.8197 313.739 74.523 313.739 75.6484C313.739 76.79 313.356 77.4868 312.682 77.4868ZM317.38 78.0135H318.083V77.0812H318.731V76.4662H318.083V73.2931H317.023C315.96 74.8305 315.423 75.6778 315.018 76.44V77.0812H317.38V78.0135ZM315.702 76.4596C316.078 75.7759 316.555 75.0399 317.373 73.859H317.386V76.476H315.702V76.4596ZM321.132 74.4151C321.132 73.6889 320.729 73.2244 320.111 73.2244C319.49 73.2244 319.087 73.6889 319.087 74.4151C319.087 75.1413 319.49 75.6058 320.111 75.6058C320.729 75.6058 321.132 75.1413 321.132 74.4151ZM320.111 75.1446C319.849 75.1446 319.686 74.8665 319.686 74.4118C319.686 73.9604 319.849 73.6823 320.111 73.6823C320.37 73.6823 320.533 73.9604 320.533 74.4118C320.533 74.8665 320.37 75.1446 320.111 75.1446ZM320.082 78.0135L321.753 75.7269L323.53 73.2931H322.885L321.259 75.5175L319.434 78.0135H320.082ZM323.876 76.8784C323.876 76.1489 323.477 75.6843 322.856 75.6843C322.234 75.6843 321.835 76.1489 321.835 76.8784C321.835 77.6046 322.234 78.0691 322.856 78.0691C323.477 78.0691 323.876 77.6046 323.876 76.8784ZM322.856 77.6046C322.594 77.6046 322.434 77.3298 322.434 76.8751C322.434 76.4204 322.594 76.1456 322.856 76.1456C323.117 76.1456 323.278 76.4204 323.278 76.8751C323.278 77.3298 323.117 77.6046 322.856 77.6046ZM325.725 76.1587C325.725 74.7226 325.26 73.8852 324.779 73.2931H324.158C324.482 73.6692 324.998 74.7422 324.998 76.1554C324.998 77.5686 324.485 78.6416 324.158 79.021H324.779C325.26 78.4257 325.725 77.5882 325.725 76.1587Z" fill="#19FF12"/>
<rect x="219.157" y="74.2467" width="8.93274" height="3.34978" rx="1.67489" fill="#19FF12"/>
<rect x="235.906" y="87.6458" width="14.5157" height="3.34978" rx="1.67489" fill="#19FF12"/>
<rect x="262.704" y="87.6458" width="14.5157" height="3.34978" rx="1.67489" fill="#19FF12"/>
<rect x="235.906" y="95.4619" width="14.5157" height="3.34978" rx="1.67489" fill="#FC0317"/>
<rect x="262.704" y="95.4619" width="14.5157" height="3.34978" rx="1.67489" fill="#FC0317"/>
<rect x="219.157" y="87.6458" width="8.93274" height="3.34978" rx="1.67489" fill="#C8C8C8"/>
<rect x="279.453" y="194.839" width="14.5157" height="3.34978" rx="1.67489" fill="#19FF12"/>
<rect x="311.834" y="194.839" width="14.5157" height="3.34978" rx="1.67489" fill="#19FF12"/>
<rect x="219.157" y="194.839" width="23.4484" height="3.34978" rx="1.67489" fill="#C8C8C8"/>
<rect x="273.87" y="202.655" width="20.0987" height="3.34978" rx="1.67489" fill="#19FF12"/>
<rect x="311.834" y="202.655" width="14.5157" height="3.34978" rx="1.67489" fill="#19FF12"/>
<rect x="219.157" y="202.655" width="29.0314" height="3.34978" rx="1.67489" fill="#C8C8C8"/>
<rect x="311.834" y="265.184" width="14.5157" height="3.34978" rx="1.67489" fill="#19FF12"/>
<rect x="219.157" y="265.184" width="29.0314" height="3.34978" rx="1.67489" fill="#C8C8C8"/>
<rect x="283.919" y="87.6458" width="8.93274" height="3.34978" rx="1.67489" fill="#C8C8C8"/>
<rect x="309.601" y="87.6458" width="16.7489" height="3.34978" rx="1.67489" fill="white"/>
<rect x="233.672" y="172.507" width="6.69955" height="1.11659" rx="0.558296" transform="rotate(90 233.672 172.507)" fill="#9EB8F9"/>
<rect x="235.906" y="169.157" width="10.0493" height="1.11659" rx="0.558296" transform="rotate(90 235.906 169.157)" fill="#9EB8F9"/>
<rect x="238.139" y="171.39" width="7.81614" height="1.11659" rx="0.558296" transform="rotate(90 238.139 171.39)" fill="#9EB8F9"/>
<rect x="247.072" y="171.39" width="7.81614" height="1.11659" rx="0.558296" transform="rotate(90 247.072 171.39)" fill="#9EB8F9"/>
<rect x="240.372" y="166.924" width="12.2825" height="1.11659" rx="0.558296" transform="rotate(90 240.372 166.924)" fill="#9EB8F9"/>
<rect x="242.605" y="175.857" width="3.34978" height="1.11659" rx="0.558296" transform="rotate(90 242.605 175.857)" fill="#9EB8F9"/>
<rect x="244.838" y="172.507" width="6.69955" height="1.11659" rx="0.558296" transform="rotate(90 244.838 172.507)" fill="#9EB8F9"/>
<rect width="6.69955" height="1.11659" rx="0.558296" transform="matrix(4.37114e-08 1 1 -4.37114e-08 261.587 172.507)" fill="#9EB8F9"/>
<rect width="10.0493" height="1.11659" rx="0.558296" transform="matrix(4.37114e-08 1 1 -4.37114e-08 259.354 169.157)" fill="#9EB8F9"/>
<rect width="7.81614" height="1.11659" rx="0.558296" transform="matrix(4.37114e-08 1 1 -4.37114e-08 257.121 171.39)" fill="#9EB8F9"/>
<rect width="7.81614" height="1.11659" rx="0.558296" transform="matrix(4.37114e-08 1 1 -4.37114e-08 248.188 171.39)" fill="#9EB8F9"/>
<rect width="12.2825" height="1.11659" rx="0.558296" transform="matrix(4.37114e-08 1 1 -4.37114e-08 254.888 166.924)" fill="#9EB8F9"/>
<rect width="3.34978" height="1.11659" rx="0.558296" transform="matrix(4.37114e-08 1 1 -4.37114e-08 252.655 175.857)" fill="#9EB8F9"/>
<rect width="6.69955" height="1.11659" rx="0.558296" transform="matrix(4.37114e-08 1 1 -4.37114e-08 250.421 172.507)" fill="#9EB8F9"/>
<rect x="264.937" y="172.507" width="6.69955" height="1.11659" rx="0.558296" transform="rotate(90 264.937 172.507)" fill="#9EB8F9"/>
<rect x="267.17" y="169.157" width="10.0493" height="1.11659" rx="0.558296" transform="rotate(90 267.17 169.157)" fill="#9EB8F9"/>
<rect x="269.403" y="171.39" width="7.81614" height="1.11659" rx="0.558296" transform="rotate(90 269.403 171.39)" fill="#9EB8F9"/>
<rect x="278.336" y="171.39" width="7.81614" height="1.11659" rx="0.558296" transform="rotate(90 278.336 171.39)" fill="#9EB8F9"/>
<rect x="271.637" y="166.924" width="12.2825" height="1.11659" rx="0.558296" transform="rotate(90 271.637 166.924)" fill="#9EB8F9"/>
<rect x="273.87" y="175.857" width="3.34978" height="1.11659" rx="0.558296" transform="rotate(90 273.87 175.857)" fill="#9EB8F9"/>
<rect x="276.103" y="172.507" width="6.69955" height="1.11659" rx="0.558296" transform="rotate(90 276.103 172.507)" fill="#9EB8F9"/>
<rect x="293.968" y="171.39" width="7.81614" height="1.11659" rx="0.558296" transform="rotate(90 293.968 171.39)" fill="#9EB8F9"/>
<rect x="287.269" y="166.924" width="12.2825" height="1.11659" rx="0.558296" transform="rotate(90 287.269 166.924)" fill="#9EB8F9"/>
<rect x="289.502" y="175.857" width="3.34978" height="1.11659" rx="0.558296" transform="rotate(90 289.502 175.857)" fill="#9EB8F9"/>
<rect x="291.735" y="172.507" width="6.69955" height="1.11659" rx="0.558296" transform="rotate(90 291.735 172.507)" fill="#9EB8F9"/>
<rect width="6.69955" height="1.11659" rx="0.558296" transform="matrix(4.37114e-08 1 1 -4.37114e-08 308.484 172.507)" fill="#9EB8F9"/>
<rect width="10.0493" height="1.11659" rx="0.558296" transform="matrix(4.37114e-08 1 1 -4.37114e-08 306.251 169.157)" fill="#9EB8F9"/>
<rect width="7.81614" height="1.11659" rx="0.558296" transform="matrix(4.37114e-08 1 1 -4.37114e-08 304.018 171.39)" fill="#9EB8F9"/>
<rect width="7.81614" height="1.11659" rx="0.558296" transform="matrix(4.37114e-08 1 1 -4.37114e-08 295.085 171.39)" fill="#9EB8F9"/>
<rect width="12.2825" height="1.11659" rx="0.558296" transform="matrix(4.37114e-08 1 1 -4.37114e-08 301.785 166.924)" fill="#9EB8F9"/>
<rect width="3.34978" height="1.11659" rx="0.558296" transform="matrix(4.37114e-08 1 1 -4.37114e-08 299.551 175.857)" fill="#9EB8F9"/>
<rect width="6.69955" height="1.11659" rx="0.558296" transform="matrix(4.37114e-08 1 1 -4.37114e-08 297.318 172.507)" fill="#9EB8F9"/>
<rect x="311.834" y="172.507" width="6.69955" height="1.11659" rx="0.558296" transform="rotate(90 311.834 172.507)" fill="#9EB8F9"/>
<rect x="314.067" y="169.157" width="10.0493" height="1.11659" rx="0.558296" transform="rotate(90 314.067 169.157)" fill="#9EB8F9"/>
<rect x="316.3" y="171.39" width="7.81614" height="1.11659" rx="0.558296" transform="rotate(90 316.3 171.39)" fill="#9EB8F9"/>
<rect x="325.233" y="171.39" width="7.81614" height="1.11659" rx="0.558296" transform="rotate(90 325.233 171.39)" fill="#9EB8F9"/>
<rect x="318.533" y="166.924" width="12.2825" height="1.11659" rx="0.558296" transform="rotate(90 318.533 166.924)" fill="#9EB8F9"/>
<rect x="320.767" y="175.857" width="3.34978" height="1.11659" rx="0.558296" transform="rotate(90 320.767 175.857)" fill="#9EB8F9"/>
<rect x="323" y="172.507" width="6.69955" height="1.11659" rx="0.558296" transform="rotate(90 323 172.507)" fill="#9EB8F9"/>
<rect x="219.157" y="95.4619" width="8.93274" height="3.34978" rx="1.67489" fill="#C8C8C8"/>
<rect x="219.157" y="116.677" width="8.93274" height="2.23318" rx="1.11659" fill="#C8C8C8"/>
<rect x="219.157" y="124.717" width="8.93274" height="2.23318" rx="1.11659" fill="#C8C8C8"/>
<rect x="219.157" y="132.756" width="8.93274" height="2.23318" rx="1.11659" fill="#C8C8C8"/>
<rect x="219.157" y="140.796" width="8.93274" height="2.23318" rx="1.11659" fill="#C8C8C8"/>
<rect x="219.157" y="148.835" width="8.93274" height="2.23318" rx="1.11659" fill="#C8C8C8"/>
<rect x="219.157" y="156.874" width="8.93274" height="2.23318" rx="1.11659" fill="#C8C8C8"/>
<rect x="283.919" y="95.4619" width="8.93274" height="3.34978" rx="1.67489" fill="#C8C8C8"/>
<rect x="302.901" y="95.4619" width="23.4484" height="3.34978" rx="1.67489" fill="white"/>
<rect x="230.323" y="74.2467" width="8.93274" height="3.34978" rx="1.67489" fill="#FFFF13"/>
<rect x="241.489" y="74.2467" width="8.93274" height="3.34978" rx="1.67489" fill="#FC0317"/>
<g clip-path="url(#clip1_819_22877)">
<path d="M232.556 148.881H234.79H236.177H237.564H238.869H241.397L242.703 138.587H244.008L245.241 149.058L246.464 143.819H248.02H249.392L250.911 138.393H252.023H253.469L255.221 130.076L256.525 135.612L257.916 130.076L259.136 135.612L260.362 130.076L261.746 138.668H263.214L265.921 149.058H269.257L271.1 140.467L272.036 144.236H274.26L275.431 140.467L276.706 144.236H278.074L279.597 140.467H281.154H281.71H284.926H286.313H287.269" stroke="white" stroke-width="1.11659" stroke-linecap="round"/>
</g>
<path d="M232.556 160.224H231.439V161.341H232.556V160.224ZM326.35 159.108H232.556V161.341H326.35V159.108ZM233.672 160.224V116.677H231.439V160.224H233.672Z" fill="#F8F8F8" mask="url(#path-74-inside-1_819_22877)"/>
<line x1="210.224" y1="186.743" x2="334.166" y2="186.743" stroke="#3C3C3C" stroke-width="0.558296"/>
<line x1="210.224" y1="222.753" x2="334.166" y2="222.753" stroke="#777777" stroke-width="6.69955"/>
<line x1="210.224" y1="243.969" x2="334.166" y2="243.969" stroke="#777777" stroke-width="4.46637"/>
<rect x="311.834" y="232.803" width="14.5157" height="3.34978" rx="1.67489" fill="#FC0317"/>
<rect x="219.157" y="232.803" width="29.0314" height="3.34978" rx="1.67489" fill="#C8C8C8"/>
<rect x="307.368" y="254.018" width="18.9821" height="3.34978" rx="1.67489" fill="#FC0317"/>
<rect x="219.157" y="254.018" width="21.2152" height="3.34978" rx="1.67489" fill="#C8C8C8"/>
<mask id="mask0_819_22877" style="mask-type:alpha" maskUnits="userSpaceOnUse" x="210" y="30" width="125" height="270">
<path d="M334.007 282.229C334.007 291.703 326.274 299.396 316.753 299.396H227.478C217.956 299.396 210.224 291.703 210.224 282.229V47.8666C210.224 38.393 217.956 30.6996 227.478 30.6996H239.908C241.473 30.6996 242.719 31.9394 242.719 33.4972V37.8207C242.719 40.7137 245.084 43.098 248.023 43.098H296.207C299.115 43.098 301.511 40.7455 301.511 37.8207V33.4972C301.511 31.9394 302.757 30.6996 304.323 30.6996H316.753C326.274 30.6996 334.007 38.393 334.007 47.8666V282.229Z" fill="black"/>
</mask>
<g mask="url(#mask0_819_22877)">
<line x1="210.224" y1="291.424" x2="334.166" y2="291.424" stroke="#525252" stroke-width="16.7489"/>
</g>
<path d="M278.111 37.0661H263.349C262.455 37.0661 261.72 36.3349 261.72 35.4447C261.72 34.5546 262.455 33.8234 263.349 33.8234H278.111C279.006 33.8234 279.741 34.5546 279.741 35.4447C279.741 36.3349 279.006 37.0661 278.111 37.0661Z" fill="#808080"/>
<path d="M284.214 37.0661C283.319 37.0661 282.584 36.3349 282.584 35.4447C282.584 34.5546 283.319 33.8234 284.214 33.8234C285.109 33.8234 285.844 34.5546 285.844 35.4447C285.844 36.3349 285.109 37.0661 284.214 37.0661Z" fill="#808080"/>
</g>
<defs>
<clipPath id="clip0_819_22877">
<rect width="144.04" height="281.381" fill="white" transform="translate(196.825 24)"/>
</clipPath>
<clipPath id="clip1_819_22877">
<path d="M232.556 116.677H326.35V160.224H232.556V116.677Z" fill="white"/>
</clipPath>
</defs>
</svg>
