<svg width="439" height="295" viewBox="0 0 439 295" fill="none" xmlns="http://www.w3.org/2000/svg">
<path d="M146.563 95.5618L146.562 237.714C146.562 248.547 155.201 257.298 165.895 257.298L399.667 257.298C410.335 257.298 419 248.547 419 237.714L419 95.5618C419 84.7556 410.361 75.9772 399.667 75.9772L165.895 75.9772C155.202 75.9772 146.563 84.7556 146.563 95.5618Z" fill="#1D1D1D"/>
<line x1="150.207" y1="113.79" x2="414.444" y2="113.79" stroke="#525252" stroke-width="13.6674"/>
<line x1="150.207" y1="247.731" x2="414.444" y2="247.731" stroke="#525252" stroke-width="13.6674"/>
<line x1="150.207" y1="193.061" x2="414.444" y2="193.061" stroke="#525252" stroke-width="13.6674"/>
<path d="M146.562 91.4707L146.562 241.349C146.562 251.909 155.071 260.488 165.604 260.488L399.68 260.488C410.186 260.488 418.721 251.935 418.721 241.35L418.721 91.4707C418.721 80.9109 410.212 72.3326 399.68 72.3326L165.604 72.3327C155.071 72.3327 146.562 80.9109 146.562 91.4707ZM399.524 77.8342C407.255 77.8342 413.533 84.144 413.533 91.9139L413.533 240.88C413.533 248.65 407.255 254.96 399.524 254.96L165.76 254.96C158.029 254.96 151.751 248.65 151.751 240.88L151.751 194.291C151.751 193.013 152.763 191.997 154.034 191.997L157.562 191.997C159.923 191.997 161.868 190.067 161.868 187.668L161.868 145.126C161.868 142.753 159.949 140.798 157.562 140.798L154.034 140.798C152.763 140.798 151.751 139.781 151.751 138.503L151.751 91.9139C151.751 84.144 158.029 77.8342 165.76 77.8342L399.524 77.8342Z" fill="black"/>
<rect x="283.237" y="89.6448" width="11.8451" height="2.73349" rx="1.36674" fill="#7799F2"/>
<rect x="279.592" y="188.05" width="11.8451" height="2.73349" rx="1.36674" fill="#7799F2"/>
<rect x="396.221" y="89.6448" width="11.8451" height="2.73349" rx="1.36674" fill="#7799F2"/>
<rect x="305.105" y="89.6448" width="7.28929" height="2.73349" rx="1.36674" fill="#7799F2"/>
<rect x="297.815" y="188.05" width="7.28929" height="2.73349" rx="1.36674" fill="#7799F2"/>
<rect x="328.795" y="96.0227" width="7.28929" height="2.73349" rx="1.36674" fill="#7799F2"/>
<rect x="283.237" y="96.0227" width="11.8451" height="2.73349" rx="1.36674" fill="#FC0317"/>
<rect x="279.592" y="194.428" width="11.8451" height="2.73349" rx="1.36674" fill="#FC0317"/>
<rect x="234.034" y="192.606" width="14.5786" height="4.55581" rx="2.2779" fill="#FC0317"/>
<rect x="181.187" y="188.961" width="45.5581" height="8.20046" rx="1.82232" fill="#7D7D7D"/>
<rect x="300.549" y="109.69" width="64.6925" height="8.20046" rx="1.82232" fill="#7D7D7D"/>
<rect x="169.342" y="109.69" width="59.2255" height="8.20046" rx="1.82232" fill="#7D7D7D"/>
<rect x="396.221" y="96.0227" width="11.8451" height="2.73349" rx="1.36674" fill="#FC0317"/>
<rect x="305.105" y="96.0227" width="7.28929" height="2.73349" rx="1.36674" fill="#FC0317"/>
<rect x="297.815" y="194.428" width="7.28929" height="2.73349" rx="1.36674" fill="#FC0317"/>
<rect x="364.33" y="96.0227" width="7.28929" height="2.73349" rx="1.36674" fill="#FCE303"/>
<rect x="344.285" y="96.0227" width="7.28929" height="2.73349" rx="1.36674" fill="#FC0317"/>
<rect x="269.569" y="89.6448" width="7.28929" height="2.73349" rx="1.36674" fill="#C8C8C8"/>
<rect x="265.925" y="188.05" width="7.28929" height="2.73349" rx="1.36674" fill="#C8C8C8"/>
<rect x="234.034" y="188.05" width="7.28929" height="2.73349" rx="1.36674" fill="#C8C8C8"/>
<rect x="331.529" y="188.05" width="7.28929" height="2.73349" rx="1.36674" fill="#C8C8C8"/>
<rect x="383.465" y="188.05" width="7.28929" height="2.73349" rx="1.36674" fill="#C8C8C8"/>
<rect x="398.954" y="188.05" width="7.28929" height="2.73349" rx="1.36674" fill="#C8C8C8"/>
<rect x="341.551" y="188.05" width="15.4897" height="2.73349" rx="1.36674" fill="#FCE303"/>
<rect x="382.553" y="89.6448" width="7.28929" height="2.73349" rx="1.36674" fill="#C8C8C8"/>
<rect x="312.394" y="134.292" width="11.8451" height="2.73349" rx="1.36674" fill="#7799F2"/>
<rect x="199.41" y="134.292" width="11.8451" height="2.73349" rx="1.36674" fill="#FCE303"/>
<rect x="219.456" y="134.292" width="7.28929" height="2.73349" rx="1.36674" fill="#FCE303"/>
<rect x="246.791" y="134.292" width="16.4009" height="2.73349" rx="1.36674" fill="#FCE303"/>
<rect x="346.107" y="134.292" width="18.2232" height="2.73349" rx="1.36674" fill="#FCE303"/>
<rect x="289.615" y="134.292" width="11.8451" height="2.73349" rx="1.36674" fill="#FC0317"/>
<rect x="169.342" y="134.292" width="14.5786" height="2.73349" rx="1.36674" fill="#C8C8C8"/>
<rect x="382.553" y="134.292" width="7.28929" height="2.73349" rx="1.36674" fill="#C8C8C8"/>
<rect x="398.043" y="134.292" width="7.28929" height="2.73349" rx="1.36674" fill="#C8C8C8"/>
<rect x="312.394" y="174.383" width="11.8451" height="2.73349" rx="1.36674" fill="#7799F2"/>
<rect x="199.41" y="174.383" width="11.8451" height="2.73349" rx="1.36674" fill="#FCE303"/>
<rect x="219.456" y="174.383" width="7.28929" height="2.73349" rx="1.36674" fill="#FCE303"/>
<rect x="246.791" y="174.383" width="16.4009" height="2.73349" rx="1.36674" fill="#FCE303"/>
<rect x="346.107" y="174.383" width="18.2232" height="2.73349" rx="1.36674" fill="#FCE303"/>
<rect x="289.615" y="174.383" width="11.8451" height="2.73349" rx="1.36674" fill="#FC0317"/>
<rect x="169.342" y="174.383" width="14.5786" height="2.73349" rx="1.36674" fill="#C8C8C8"/>
<rect x="382.553" y="174.383" width="7.28929" height="2.73349" rx="1.36674" fill="#C8C8C8"/>
<rect x="398.043" y="174.383" width="7.28929" height="2.73349" rx="1.36674" fill="#C8C8C8"/>
<rect x="312.394" y="154.337" width="11.8451" height="2.73349" rx="1.36674" fill="#7799F2"/>
<rect x="199.41" y="154.337" width="11.8451" height="2.73349" rx="1.36674" fill="#FC0317"/>
<rect x="219.456" y="154.337" width="7.28929" height="2.73349" rx="1.36674" fill="#FC0317"/>
<rect x="246.791" y="154.337" width="16.4009" height="2.73349" rx="1.36674" fill="#FC0317"/>
<rect x="346.107" y="154.337" width="18.2232" height="2.73349" rx="1.36674" fill="#FC0317"/>
<rect x="289.615" y="154.337" width="11.8451" height="2.73349" rx="1.36674" fill="#FC0317"/>
<rect x="169.342" y="154.337" width="14.5786" height="2.73349" rx="1.36674" fill="#C8C8C8"/>
<rect x="382.553" y="154.337" width="7.28929" height="2.73349" rx="1.36674" fill="#C8C8C8"/>
<rect x="398.043" y="154.337" width="7.28929" height="2.73349" rx="1.36674" fill="#C8C8C8"/>
<rect x="312.394" y="164.36" width="11.8451" height="2.73349" rx="1.36674" fill="#7799F2"/>
<rect x="199.41" y="164.36" width="11.8451" height="2.73349" rx="1.36674" fill="#FC0317"/>
<rect x="219.456" y="164.36" width="7.28929" height="2.73349" rx="1.36674" fill="#FC0317"/>
<rect x="246.791" y="164.36" width="16.4009" height="2.73349" rx="1.36674" fill="#C8C8C8"/>
<rect x="346.107" y="164.36" width="18.2232" height="2.73349" rx="1.36674" fill="#FC0317"/>
<rect x="289.615" y="164.36" width="11.8451" height="2.73349" rx="1.36674" fill="#FC0317"/>
<rect x="169.342" y="164.36" width="14.5786" height="2.73349" rx="1.36674" fill="#C8C8C8"/>
<rect x="382.553" y="164.36" width="7.28929" height="2.73349" rx="1.36674" fill="#C8C8C8"/>
<rect x="398.043" y="164.36" width="7.28929" height="2.73349" rx="1.36674" fill="#C8C8C8"/>
<rect x="312.394" y="144.314" width="11.8451" height="2.73349" rx="1.36674" fill="#7799F2"/>
<rect x="199.41" y="144.314" width="11.8451" height="2.73349" rx="1.36674" fill="#7799F2"/>
<rect x="219.456" y="144.314" width="7.28929" height="2.73349" rx="1.36674" fill="#7799F2"/>
<rect x="246.791" y="144.314" width="16.4009" height="2.73349" rx="1.36674" fill="#7799F2"/>
<rect x="346.107" y="144.314" width="18.2232" height="2.73349" rx="1.36674" fill="#7799F2"/>
<rect x="341.551" y="194.428" width="18.2232" height="2.73349" rx="1.36674" fill="#7799F2"/>
<rect x="289.615" y="144.314" width="11.8451" height="2.73349" rx="1.36674" fill="#7799F2"/>
<rect x="174.809" y="208.095" width="16.4009" height="2.73349" rx="1.36674" fill="#FCE303"/>
<rect x="274.125" y="208.095" width="18.2232" height="2.73349" rx="1.36674" fill="#FCE303"/>
<rect x="240.412" y="208.095" width="11.8451" height="2.73349" rx="1.36674" fill="#7799F2"/>
<rect x="217.633" y="208.095" width="11.8451" height="2.73349" rx="1.36674" fill="#7799F2"/>
<rect x="174.809" y="215.385" width="16.4009" height="2.73349" rx="1.36674" fill="#FCE303"/>
<rect x="274.125" y="215.385" width="18.2232" height="2.73349" rx="1.36674" fill="#FCE303"/>
<rect x="240.412" y="215.385" width="11.8451" height="2.73349" rx="1.36674" fill="#7799F2"/>
<rect x="217.633" y="215.385" width="11.8451" height="2.73349" rx="1.36674" fill="#7799F2"/>
<rect x="174.809" y="222.674" width="16.4009" height="2.73349" rx="1.36674" fill="#FCE303"/>
<rect x="274.125" y="222.674" width="18.2232" height="2.73349" rx="1.36674" fill="#C8C8C8"/>
<rect x="316.95" y="208.095" width="18.2232" height="2.73349" rx="1.36674" fill="#C8C8C8"/>
<rect x="356.13" y="208.095" width="3.64465" height="2.73349" rx="1.36674" fill="#C8C8C8"/>
<rect x="393.488" y="208.095" width="11.8451" height="2.73349" rx="1.36674" fill="#FF2574"/>
<rect x="316.95" y="222.674" width="18.2232" height="2.73349" rx="1.36674" fill="#C8C8C8"/>
<rect x="356.13" y="222.674" width="3.64465" height="2.73349" rx="1.36674" fill="#C8C8C8"/>
<rect x="393.488" y="222.674" width="11.8451" height="2.73349" rx="1.36674" fill="#FF2574"/>
<rect x="240.412" y="222.674" width="11.8451" height="2.73349" rx="1.36674" fill="#FC0317"/>
<rect x="217.633" y="222.674" width="11.8451" height="2.73349" rx="1.36674" fill="#FC0317"/>
<rect x="174.809" y="229.964" width="16.4009" height="2.73349" rx="1.36674" fill="#FCE303"/>
<rect x="274.125" y="229.964" width="18.2232" height="2.73349" rx="1.36674" fill="#C8C8C8"/>
<rect x="316.95" y="215.385" width="18.2232" height="2.73349" rx="1.36674" fill="#C8C8C8"/>
<rect x="356.13" y="215.385" width="3.64465" height="2.73349" rx="1.36674" fill="#C8C8C8"/>
<rect x="393.488" y="215.385" width="11.8451" height="2.73349" rx="1.36674" fill="#FF2574"/>
<rect x="316.95" y="229.964" width="18.2232" height="2.73349" rx="1.36674" fill="#C8C8C8"/>
<rect x="356.13" y="229.964" width="3.64465" height="2.73349" rx="1.36674" fill="#C8C8C8"/>
<rect x="393.488" y="229.964" width="11.8451" height="2.73349" rx="1.36674" fill="#FF2574"/>
<rect x="240.412" y="229.964" width="11.8451" height="2.73349" rx="1.36674" fill="#FC0317"/>
<rect x="217.633" y="229.964" width="11.8451" height="2.73349" rx="1.36674" fill="#FC0317"/>
<rect x="169.342" y="144.314" width="14.5786" height="2.73349" rx="1.36674" fill="#7799F2"/>
<rect x="382.553" y="144.314" width="7.28929" height="2.73349" rx="1.36674" fill="#7799F2"/>
<rect x="383.465" y="194.428" width="7.28929" height="2.73349" rx="1.36674" fill="#7799F2"/>
<rect x="398.954" y="194.428" width="7.28929" height="2.73349" rx="1.36674" fill="#7799F2"/>
<rect x="398.043" y="144.314" width="7.28929" height="2.73349" rx="1.36674" fill="#7799F2"/>
<rect x="398.043" y="126.091" width="7.28929" height="2.73349" rx="1.36674" fill="#C8C8C8"/>
<rect x="382.553" y="126.091" width="7.28929" height="2.73349" rx="1.36674" fill="#C8C8C8"/>
<rect x="346.107" y="126.091" width="7.28929" height="2.73349" rx="1.36674" fill="#C8C8C8"/>
<rect x="312.394" y="126.091" width="7.28929" height="2.73349" rx="1.36674" fill="#C8C8C8"/>
<rect x="289.615" y="126.091" width="7.28929" height="2.73349" rx="1.36674" fill="#C8C8C8"/>
<rect x="246.791" y="126.091" width="7.28929" height="2.73349" rx="1.36674" fill="#C8C8C8"/>
<rect x="219.456" y="126.091" width="7.28929" height="2.73349" rx="1.36674" fill="#C8C8C8"/>
<rect x="199.41" y="126.091" width="7.28929" height="2.73349" rx="1.36674" fill="#C8C8C8"/>
<rect x="169.342" y="126.091" width="14.5786" height="2.73349" rx="1.36674" fill="#C8C8C8"/>
<rect x="328.795" y="89.6448" width="7.28929" height="2.73349" rx="1.36674" fill="#C8C8C8"/>
<rect x="364.33" y="89.6448" width="7.28929" height="2.73349" rx="1.36674" fill="#C8C8C8"/>
<rect x="344.285" y="89.6448" width="13.6674" height="2.73349" rx="1.36674" fill="#4E7AEC"/>
<rect x="269.569" y="96.0227" width="7.28929" height="2.73349" rx="1.36674" fill="#C8C8C8"/>
<rect x="265.925" y="194.428" width="7.28929" height="2.73349" rx="1.36674" fill="#C8C8C8"/>
<rect x="331.529" y="194.428" width="7.28929" height="2.73349" rx="1.36674" fill="#C8C8C8"/>
<rect x="382.553" y="96.0227" width="7.28929" height="2.73349" rx="1.36674" fill="#C8C8C8"/>
<rect x="287.793" y="112.424" width="7.28929" height="2.73349" rx="1.36674" fill="#C8C8C8"/>
<rect x="274.125" y="112.424" width="7.28929" height="2.73349" rx="1.36674" fill="#C8C8C8"/>
<path d="M169.741 95.5861C169.822 97.0956 171.071 98.0499 172.922 98.0499C174.9 98.0499 176.143 97.0725 176.143 95.5109C176.143 94.2905 175.432 93.6022 173.72 93.1974L172.8 92.9718C171.725 92.7058 171.285 92.3587 171.285 91.7688C171.285 91.0285 171.973 90.5195 172.98 90.5195C173.986 90.5195 174.674 91.0227 174.75 91.8556H176.01C175.97 90.4154 174.761 89.4264 172.997 89.4264C171.216 89.4264 169.961 90.4154 169.961 91.8556C169.961 93.0181 170.672 93.7353 172.205 94.1054L173.286 94.3657C174.368 94.6318 174.825 95.0193 174.825 95.667C174.825 96.4131 174.067 96.9568 173.014 96.9568C171.916 96.9568 171.112 96.4131 171.019 95.5861H169.741ZM182.604 96.7891H178.602V94.198H182.39V93.1222H178.602V90.6815H182.604V89.5652H177.306V97.9111H182.604V96.7891ZM187.3 97.9111V90.6815H189.851V89.5652H183.448V90.6815H186.005V97.9111H187.3Z" fill="white"/>
<path d="M202.868 97.8223H204.037V90.1183H202.857L200.828 91.5598V92.6916L202.841 91.3035H202.868V97.8223ZM205.318 99.3705H206.13L206.909 96.637H205.756L205.318 99.3705ZM210.983 97.9504C212.606 97.9504 213.797 96.8453 213.797 95.3077V95.297C213.797 93.8395 212.734 92.7664 211.261 92.7664C210.214 92.7664 209.435 93.3109 209.13 94.005H209.104C209.104 93.9356 209.104 93.8662 209.109 93.7968C209.157 92.2699 209.696 90.9939 211.02 90.9939C211.757 90.9939 212.259 91.3569 212.478 91.9335L212.494 91.9869H213.695L213.679 91.9228C213.433 90.775 212.403 89.9902 211.031 89.9902C209.104 89.9902 207.956 91.5064 207.956 94.0744V94.0851C207.956 96.8559 209.408 97.9504 210.983 97.9504ZM209.339 95.313V95.3077C209.339 94.3947 210.049 93.7381 210.983 93.7381C211.923 93.7381 212.606 94.4001 212.606 95.329V95.3397C212.606 96.2366 211.88 96.9467 210.967 96.9467C210.054 96.9467 209.339 96.226 209.339 95.313ZM217.747 97.9504C219.456 97.9504 220.657 97.0375 220.657 95.7348V95.7241C220.657 94.7524 219.963 93.9836 218.959 93.7647V93.7381C219.819 93.4925 220.379 92.8518 220.379 92.035V92.0243C220.379 90.8497 219.28 89.9902 217.747 89.9902C216.215 89.9902 215.121 90.8497 215.121 92.0243V92.035C215.121 92.8518 215.681 93.4925 216.541 93.7381V93.7647C215.537 93.9836 214.838 94.7524 214.838 95.7241V95.7348C214.838 97.0375 216.044 97.9504 217.747 97.9504ZM217.747 93.3376C216.893 93.3376 216.306 92.8411 216.306 92.1417V92.1311C216.306 91.4263 216.893 90.9352 217.747 90.9352C218.601 90.9352 219.194 91.4263 219.194 92.1311V92.1417C219.194 92.8411 218.607 93.3376 217.747 93.3376ZM217.747 96.9947C216.765 96.9947 216.066 96.4342 216.066 95.6547V95.644C216.066 94.8592 216.76 94.2933 217.747 94.2933C218.735 94.2933 219.429 94.8592 219.429 95.644V95.6547C219.429 96.4342 218.73 96.9947 217.747 96.9947ZM224.496 97.9504C226.204 97.9504 227.405 97.0375 227.405 95.7348V95.7241C227.405 94.7524 226.711 93.9836 225.707 93.7647V93.7381C226.567 93.4925 227.128 92.8518 227.128 92.035V92.0243C227.128 90.8497 226.028 89.9902 224.496 89.9902C222.963 89.9902 221.869 90.8497 221.869 92.0243V92.035C221.869 92.8518 222.429 93.4925 223.289 93.7381V93.7647C222.285 93.9836 221.586 94.7524 221.586 95.7241V95.7348C221.586 97.0375 222.792 97.9504 224.496 97.9504ZM224.496 93.3376C223.641 93.3376 223.054 92.8411 223.054 92.1417V92.1311C223.054 91.4263 223.641 90.9352 224.496 90.9352C225.35 90.9352 225.942 91.4263 225.942 92.1311V92.1417C225.942 92.8411 225.355 93.3376 224.496 93.3376ZM224.496 96.9947C223.513 96.9947 222.814 96.4342 222.814 95.6547V95.644C222.814 94.8592 223.508 94.2933 224.496 94.2933C225.483 94.2933 226.177 94.8592 226.177 95.644V95.6547C226.177 96.4342 225.478 96.9947 224.496 96.9947ZM228.959 97.9023C229.349 97.9023 229.658 97.5927 229.658 97.203C229.658 96.8079 229.349 96.5036 228.959 96.5036C228.564 96.5036 228.254 96.8079 228.254 97.203C228.254 97.5927 228.564 97.9023 228.959 97.9023ZM233.534 97.9504C235.371 97.9504 236.476 96.4182 236.476 93.973V93.9623C236.476 91.5171 235.371 89.9902 233.534 89.9902C231.692 89.9902 230.593 91.5171 230.593 93.9623V93.973C230.593 96.4182 231.692 97.9504 233.534 97.9504ZM233.534 96.952C232.434 96.952 231.799 95.8202 231.799 93.973V93.9623C231.799 92.115 232.434 90.9939 233.534 90.9939C234.629 90.9939 235.269 92.115 235.269 93.9623V93.973C235.269 95.8202 234.629 96.952 233.534 96.952ZM240.357 97.9504C242.194 97.9504 243.299 96.4182 243.299 93.973V93.9623C243.299 91.5171 242.194 89.9902 240.357 89.9902C238.515 89.9902 237.416 91.5171 237.416 93.9623V93.973C237.416 96.4182 238.515 97.9504 240.357 97.9504ZM240.357 96.952C239.257 96.952 238.622 95.8202 238.622 93.973V93.9623C238.622 92.115 239.257 90.9939 240.357 90.9939C241.452 90.9939 242.092 92.115 242.092 93.9623V93.973C242.092 95.8202 241.452 96.952 240.357 96.952Z" fill="#7799F2"/>
<g clip-path="url(#clip0_851_24717)">
<path d="M111.9 32.2415H38.138C27.5521 32.2415 19 40.7504 19 51.2829V242.839C19 253.345 27.5521 261.88 38.138 261.88H111.9C122.46 261.88 131.038 253.371 131.038 242.839V51.2829C131.038 40.7504 122.46 32.2415 111.9 32.2415Z" fill="#989898"/>
<path d="M116.456 32.2415H42.6937C32.1339 32.2415 23.5557 40.7504 23.5557 51.2829V242.839C23.5557 253.345 32.1078 261.88 42.6937 261.88H116.456C127.016 261.88 135.594 253.371 135.594 242.839V51.2829C135.594 40.7504 127.016 32.2415 116.456 32.2415Z" fill="black"/>
<path d="M117.402 32.2415H43.6395C33.0797 32.2415 24.5015 40.7504 24.5015 51.2829V242.839C24.5015 253.345 33.0536 261.88 43.6395 261.88H117.402C127.962 261.88 136.54 253.371 136.54 242.839V51.2829C136.54 40.7504 127.962 32.2415 117.402 32.2415ZM131.038 242.683C131.038 250.414 124.728 256.692 116.959 256.692H44.1088C36.3389 256.692 30.0291 250.414 30.0291 242.683V51.4385C30.0291 43.7078 36.3389 37.4299 44.1088 37.4299H54.2515C55.5291 37.4299 56.5459 38.4416 56.5459 39.7128V43.2409C56.5459 45.6016 58.4754 47.5472 60.8742 47.5472H100.193C102.566 47.5472 104.521 45.6275 104.521 43.2409V39.7128C104.521 38.4416 105.538 37.4299 106.816 37.4299H116.959C124.728 37.4299 131.038 43.7078 131.038 51.4385V242.683Z" fill="black"/>
<path d="M130.943 242.962C130.943 250.692 124.633 256.97 116.864 256.97H44.0138C36.2439 256.97 29.9341 250.692 29.9341 242.962V51.7172C29.9341 43.9865 36.2439 37.7085 44.0138 37.7085H54.1565C55.4341 37.7085 56.4509 38.7202 56.4509 39.9914V43.5195C56.4509 45.8802 58.3804 47.8259 60.7792 47.8259H100.098C102.471 47.8259 104.426 45.9062 104.426 43.5195V39.9914C104.426 38.7202 105.443 37.7085 106.721 37.7085H116.864C124.633 37.7085 130.943 43.9865 130.943 51.7172V242.962Z" fill="#222222"/>
<path d="M40.8382 67.9816C42.8163 67.9816 44.0193 67.0157 44.0193 65.4946V65.4888C44.0193 64.199 43.279 63.4992 41.5554 63.1348L40.6416 62.9439C39.6005 62.7184 39.1262 62.3367 39.1262 61.712V61.7062C39.1262 60.9775 39.7856 60.4859 40.8209 60.4801C41.8099 60.4801 42.4808 60.9486 42.5965 61.7236L42.6023 61.8045H43.8631L43.8573 61.7062C43.7706 60.3066 42.5791 59.358 40.8382 59.358C39.0742 59.358 37.8191 60.3355 37.8133 61.7583V61.7641C37.8133 63.0018 38.6057 63.7537 40.2425 64.1007L41.1505 64.2916C42.2552 64.5345 42.7122 64.8988 42.7122 65.5698V65.5755C42.7122 66.3564 42.0065 66.8595 40.8903 66.8595C39.774 66.8595 39.0048 66.3795 38.8891 65.6102L38.8775 65.5351H37.6167L37.6225 65.6218C37.7266 67.0909 38.9643 67.9816 40.8382 67.9816ZM45.1876 67.8428H50.4855V66.7265H46.4832V64.1354H50.2715V63.0481H46.4832V60.6131H50.4855V59.4968H45.1876V67.8428ZM53.8863 67.8428H55.1819V60.6131H57.7325V59.4968H51.3299V60.6131H53.8863V67.8428Z" fill="white"/>
<path d="M82.5945 68.665H83.7637V60.9611H82.5838L80.555 62.4026V63.5344L82.5678 62.1463H82.5945V68.665ZM85.045 70.2133H85.8565L86.636 67.4798H85.4828L85.045 70.2133ZM90.7095 68.7932C92.3325 68.7932 93.5231 67.688 93.5231 66.1504V66.1398C93.5231 64.6823 92.4606 63.6092 90.9871 63.6092C89.9407 63.6092 89.1612 64.1537 88.8569 64.8478H88.8302C88.8302 64.7784 88.8302 64.709 88.8356 64.6396C88.8836 63.1126 89.4229 61.8367 90.7469 61.8367C91.4836 61.8367 91.9855 62.1997 92.2044 62.7763L92.2204 62.8297H93.4216L93.4056 62.7656C93.16 61.6178 92.1296 60.833 90.7576 60.833C88.8302 60.833 87.6824 62.3492 87.6824 64.9172V64.9279C87.6824 67.6987 89.1346 68.7932 90.7095 68.7932ZM89.0651 66.1558V66.1504C89.0651 65.2375 89.7752 64.5808 90.7095 64.5808C91.6491 64.5808 92.3325 65.2428 92.3325 66.1718V66.1825C92.3325 67.0794 91.6064 67.7895 90.6935 67.7895C89.7806 67.7895 89.0651 67.0687 89.0651 66.1558ZM97.4738 68.7932C99.1822 68.7932 100.383 67.8802 100.383 66.5776V66.5669C100.383 65.5952 99.6894 64.8264 98.6857 64.6075V64.5808C99.5453 64.3352 100.106 63.6946 100.106 62.8777V62.8671C100.106 61.6925 99.0061 60.833 97.4738 60.833C95.9416 60.833 94.8471 61.6925 94.8471 62.8671V62.8777C94.8471 63.6946 95.4077 64.3352 96.2672 64.5808V64.6075C95.2635 64.8264 94.5642 65.5952 94.5642 66.5669V66.5776C94.5642 67.8802 95.7707 68.7932 97.4738 68.7932ZM97.4738 64.1804C96.6196 64.1804 96.0323 63.6839 96.0323 62.9845V62.9738C96.0323 62.2691 96.6196 61.7779 97.4738 61.7779C98.328 61.7779 98.9206 62.2691 98.9206 62.9738V62.9845C98.9206 63.6839 98.3334 64.1804 97.4738 64.1804ZM97.4738 67.8375C96.4915 67.8375 95.7921 67.2769 95.7921 66.4975V66.4868C95.7921 65.702 96.4861 65.1361 97.4738 65.1361C98.4615 65.1361 99.1556 65.702 99.1556 66.4868V66.4975C99.1556 67.2769 98.4562 67.8375 97.4738 67.8375ZM104.222 68.7932C105.931 68.7932 107.132 67.8802 107.132 66.5776V66.5669C107.132 65.5952 106.438 64.8264 105.434 64.6075V64.5808C106.294 64.3352 106.854 63.6946 106.854 62.8777V62.8671C106.854 61.6925 105.754 60.833 104.222 60.833C102.69 60.833 101.595 61.6925 101.595 62.8671V62.8777C101.595 63.6946 102.156 64.3352 103.016 64.5808V64.6075C102.012 64.8264 101.312 65.5952 101.312 66.5669V66.5776C101.312 67.8802 102.519 68.7932 104.222 68.7932ZM104.222 64.1804C103.368 64.1804 102.781 63.6839 102.781 62.9845V62.9738C102.781 62.2691 103.368 61.7779 104.222 61.7779C105.076 61.7779 105.669 62.2691 105.669 62.9738V62.9845C105.669 63.6839 105.082 64.1804 104.222 64.1804ZM104.222 67.8375C103.24 67.8375 102.54 67.2769 102.54 66.4975V66.4868C102.54 65.702 103.234 65.1361 104.222 65.1361C105.21 65.1361 105.904 65.702 105.904 66.4868V66.4975C105.904 67.2769 105.204 67.8375 104.222 67.8375ZM108.685 68.7451C109.075 68.7451 109.385 68.4355 109.385 68.0457C109.385 67.6507 109.075 67.3463 108.685 67.3463C108.29 67.3463 107.981 67.6507 107.981 68.0457C107.981 68.4355 108.29 68.7451 108.685 68.7451ZM113.261 68.7932C115.097 68.7932 116.202 67.2609 116.202 64.8157V64.8051C116.202 62.3599 115.097 60.833 113.261 60.833C111.419 60.833 110.319 62.3599 110.319 64.8051V64.8157C110.319 67.2609 111.419 68.7932 113.261 68.7932ZM113.261 67.7948C112.161 67.7948 111.526 66.663 111.526 64.8157V64.8051C111.526 62.9578 112.161 61.8367 113.261 61.8367C114.355 61.8367 114.996 62.9578 114.996 64.8051V64.8157C114.996 66.663 114.355 67.7948 113.261 67.7948ZM120.084 68.7932C121.92 68.7932 123.025 67.2609 123.025 64.8157V64.8051C123.025 62.3599 121.92 60.833 120.084 60.833C118.242 60.833 117.142 62.3599 117.142 64.8051V64.8157C117.142 67.2609 118.242 68.7932 120.084 68.7932ZM120.084 67.7948C118.984 67.7948 118.349 66.663 118.349 64.8157V64.8051C118.349 62.9578 118.984 61.8367 120.084 61.8367C121.178 61.8367 121.819 62.9578 121.819 64.8051V64.8157C121.819 66.663 121.178 67.7948 120.084 67.7948Z" fill="#7799F2"/>
<path d="M86.733 75.1187H87.8595V76.1972H88.38V75.1187H89.5092V74.5982H88.38V73.5197H87.8595V74.5982H86.733V75.1187ZM91.5219 76.4855C92.4402 76.4855 92.9928 75.7193 92.9928 74.4967V74.4914C92.9928 73.2688 92.4402 72.5053 91.5219 72.5053C90.601 72.5053 90.0511 73.2688 90.0511 74.4914V74.4967C90.0511 75.7193 90.601 76.4855 91.5219 76.4855ZM91.5219 75.9863C90.972 75.9863 90.6544 75.4204 90.6544 74.4967V74.4914C90.6544 73.5678 90.972 73.0072 91.5219 73.0072C92.0692 73.0072 92.3895 73.5678 92.3895 74.4914V74.4967C92.3895 75.4204 92.0692 75.9863 91.5219 75.9863ZM93.7242 76.4614C93.9191 76.4614 94.0739 76.3066 94.0739 76.1117C94.0739 75.9142 93.9191 75.762 93.7242 75.762C93.5267 75.762 93.3719 75.9142 93.3719 76.1117C93.3719 76.3066 93.5267 76.4614 93.7242 76.4614ZM94.7066 76.4214H95.3339L97.0076 73.0873V72.5694H94.3862V73.0739H96.4177V73.0873L94.7066 76.4214ZM98.8949 76.4855C99.8132 76.4855 100.366 75.7193 100.366 74.4967V74.4914C100.366 73.2688 99.8132 72.5053 98.8949 72.5053C97.9739 72.5053 97.424 73.2688 97.424 74.4914V74.4967C97.424 75.7193 97.9739 76.4855 98.8949 76.4855ZM98.8949 75.9863C98.345 75.9863 98.0273 75.4204 98.0273 74.4967V74.4914C98.0273 73.5678 98.345 73.0072 98.8949 73.0072C99.4421 73.0072 99.7624 73.5678 99.7624 74.4914V74.4967C99.7624 75.4204 99.4421 75.9863 98.8949 75.9863ZM102.982 77.3557H103.489C103.099 76.9019 102.803 75.8581 102.803 74.9612C102.803 74.0616 103.099 73.0232 103.489 72.5694H102.982C102.451 73.2288 102.21 74.0056 102.21 74.9612C102.21 75.9142 102.448 76.6937 102.982 77.3557ZM103.897 75.1187H105.024V76.1972H105.544V75.1187H106.674V74.5982H105.544V73.5197H105.024V74.5982H103.897V75.1187ZM108.686 76.4855C109.605 76.4855 110.157 75.7193 110.157 74.4967V74.4914C110.157 73.2688 109.605 72.5053 108.686 72.5053C107.765 72.5053 107.215 73.2688 107.215 74.4914V74.4967C107.215 75.7193 107.765 76.4855 108.686 76.4855ZM108.686 75.9863C108.136 75.9863 107.819 75.4204 107.819 74.4967V74.4914C107.819 73.5678 108.136 73.0072 108.686 73.0072C109.234 73.0072 109.554 73.5678 109.554 74.4914V74.4967C109.554 75.4204 109.234 75.9863 108.686 75.9863ZM110.889 76.4614C111.083 76.4614 111.238 76.3066 111.238 76.1117C111.238 75.9142 111.083 75.762 110.889 75.762C110.691 75.762 110.536 75.9142 110.536 76.1117C110.536 76.3066 110.691 76.4614 110.889 76.4614ZM113.176 76.4855C114.095 76.4855 114.647 75.7193 114.647 74.4967V74.4914C114.647 73.2688 114.095 72.5053 113.176 72.5053C112.255 72.5053 111.705 73.2688 111.705 74.4914V74.4967C111.705 75.7193 112.255 76.4855 113.176 76.4855ZM113.176 75.9863C112.626 75.9863 112.309 75.4204 112.309 74.4967V74.4914C112.309 73.5678 112.626 73.0072 113.176 73.0072C113.724 73.0072 114.044 73.5678 114.044 74.4914V74.4967C114.044 75.4204 113.724 75.9863 113.176 75.9863ZM117.012 76.4214H117.586V75.6553H118.117V75.1534H117.586V72.5694H116.721L115.085 75.1347V75.6553H117.012V76.4214ZM115.64 75.1614V75.1454L117.002 73.0419H117.018V75.1614H115.64ZM119.329 74.4994C119.839 74.4994 120.149 74.123 120.149 73.5171V73.5144C120.149 72.9138 119.839 72.5374 119.329 72.5374C118.819 72.5374 118.507 72.9138 118.507 73.5144V73.5171C118.507 74.123 118.819 74.4994 119.329 74.4994ZM119.583 76.4214L122.039 72.5694H121.548L119.089 76.4214H119.583ZM119.329 74.1364C119.086 74.1364 118.948 73.9095 118.948 73.5197V73.5171C118.948 73.1247 119.086 72.9004 119.329 72.9004C119.572 72.9004 119.711 73.1247 119.711 73.5171V73.5197C119.711 73.9095 119.572 74.1364 119.329 74.1364ZM121.796 76.4534C122.306 76.4534 122.615 76.077 122.615 75.4737V75.4711C122.615 74.8678 122.306 74.4914 121.796 74.4914C121.286 74.4914 120.976 74.8678 120.976 75.4711V75.4737C120.976 76.077 121.286 76.4534 121.796 76.4534ZM121.796 76.0904C121.553 76.0904 121.414 75.8635 121.414 75.4737V75.4711C121.414 75.0787 121.553 74.8571 121.796 74.8571C122.039 74.8571 122.178 75.0787 122.178 75.4711V75.4737C122.178 75.8635 122.039 76.0904 121.796 76.0904ZM123.462 77.3557C123.993 76.6937 124.233 75.9142 124.233 74.9612C124.233 74.0082 123.993 73.2314 123.462 72.5694H122.954C123.344 73.0232 123.64 74.0616 123.64 74.9612C123.64 75.8581 123.344 76.9019 122.954 77.3557H123.462Z" fill="#7799F2"/>
<rect x="37.2234" y="73.2437" width="7.28929" height="2.73348" rx="1.36674" fill="#7799F2"/>
<rect x="50.8909" y="84.1777" width="11.8451" height="2.73348" rx="1.36674" fill="#7799F2"/>
<rect x="72.7588" y="84.1777" width="11.8451" height="2.73348" rx="1.36674" fill="#7799F2"/>
<rect x="50.8909" y="90.5559" width="11.8451" height="2.73348" rx="1.36674" fill="#FC0317"/>
<rect x="72.7588" y="90.5559" width="11.8451" height="2.73348" rx="1.36674" fill="#FC0317"/>
<rect x="37.2234" y="84.1777" width="7.28929" height="2.73348" rx="1.36674" fill="#C8C8C8"/>
<rect x="86.426" y="171.649" width="11.8451" height="2.73348" rx="1.36674" fill="#7799F2"/>
<rect x="112.85" y="171.649" width="11.8451" height="2.73348" rx="1.36674" fill="#7799F2"/>
<rect x="37.2234" y="171.649" width="19.1344" height="2.73348" rx="1.36674" fill="#C8C8C8"/>
<rect x="81.8704" y="178.027" width="16.4009" height="2.73348" rx="1.36674" fill="#7799F2"/>
<rect x="112.85" y="178.027" width="11.8451" height="2.73348" rx="1.36674" fill="#7799F2"/>
<rect x="37.2234" y="178.027" width="23.6902" height="2.73348" rx="1.36674" fill="#C8C8C8"/>
<rect x="112.85" y="229.052" width="11.8451" height="2.73348" rx="1.36674" fill="#7799F2"/>
<rect x="37.2234" y="229.052" width="23.6902" height="2.73348" rx="1.36674" fill="#C8C8C8"/>
<rect x="90.0708" y="84.1777" width="7.28929" height="2.73348" rx="1.36674" fill="#C8C8C8"/>
<rect x="111.028" y="84.1777" width="13.6674" height="2.73348" rx="1.36674" fill="white"/>
<rect x="49.0684" y="153.426" width="5.46697" height="0.911161" rx="0.455581" transform="rotate(90 49.0684 153.426)" fill="#9EB8F9"/>
<rect x="50.8909" y="150.692" width="8.20045" height="0.911161" rx="0.455581" transform="rotate(90 50.8909 150.692)" fill="#9EB8F9"/>
<rect x="52.7131" y="152.515" width="6.37813" height="0.911161" rx="0.455581" transform="rotate(90 52.7131 152.515)" fill="#9EB8F9"/>
<rect x="60.0024" y="152.515" width="6.37813" height="0.911161" rx="0.455581" transform="rotate(90 60.0024 152.515)" fill="#9EB8F9"/>
<rect x="54.5354" y="148.87" width="10.0228" height="0.911161" rx="0.455581" transform="rotate(90 54.5354 148.87)" fill="#9EB8F9"/>
<rect x="56.3577" y="156.159" width="2.73348" height="0.911162" rx="0.455581" transform="rotate(90 56.3577 156.159)" fill="#9EB8F9"/>
<rect x="58.1802" y="153.426" width="5.46697" height="0.911161" rx="0.455581" transform="rotate(90 58.1802 153.426)" fill="#9EB8F9"/>
<rect width="5.46697" height="0.911161" rx="0.455581" transform="matrix(4.37114e-08 1 1 -4.37114e-08 71.8474 153.426)" fill="#9EB8F9"/>
<rect width="8.20045" height="0.911161" rx="0.455581" transform="matrix(4.37114e-08 1 1 -4.37114e-08 70.0251 150.692)" fill="#9EB8F9"/>
<rect width="6.37813" height="0.911161" rx="0.455581" transform="matrix(4.37114e-08 1 1 -4.37114e-08 68.2029 152.515)" fill="#9EB8F9"/>
<rect width="6.37813" height="0.911161" rx="0.455581" transform="matrix(4.37114e-08 1 1 -4.37114e-08 60.9136 152.515)" fill="#9EB8F9"/>
<rect width="10.0228" height="0.911161" rx="0.455581" transform="matrix(4.37114e-08 1 1 -4.37114e-08 66.3806 148.87)" fill="#9EB8F9"/>
<rect width="2.73348" height="0.911162" rx="0.455581" transform="matrix(4.37114e-08 1 1 -4.37114e-08 64.5581 156.159)" fill="#9EB8F9"/>
<rect width="5.46697" height="0.911161" rx="0.455581" transform="matrix(4.37114e-08 1 1 -4.37114e-08 62.7358 153.426)" fill="#9EB8F9"/>
<rect x="74.5811" y="153.426" width="5.46697" height="0.911161" rx="0.455581" transform="rotate(90 74.5811 153.426)" fill="#9EB8F9"/>
<rect x="76.4033" y="150.692" width="8.20045" height="0.911161" rx="0.455581" transform="rotate(90 76.4033 150.692)" fill="#9EB8F9"/>
<rect x="78.2256" y="152.515" width="6.37813" height="0.911161" rx="0.455581" transform="rotate(90 78.2256 152.515)" fill="#9EB8F9"/>
<rect x="85.5149" y="152.515" width="6.37813" height="0.911161" rx="0.455581" transform="rotate(90 85.5149 152.515)" fill="#9EB8F9"/>
<rect x="80.0479" y="148.87" width="10.0228" height="0.911161" rx="0.455581" transform="rotate(90 80.0479 148.87)" fill="#9EB8F9"/>
<rect x="81.8704" y="156.159" width="2.73348" height="0.911162" rx="0.455581" transform="rotate(90 81.8704 156.159)" fill="#9EB8F9"/>
<rect x="83.6926" y="153.426" width="5.46697" height="0.911161" rx="0.455581" transform="rotate(90 83.6926 153.426)" fill="#9EB8F9"/>
<rect x="98.2712" y="152.515" width="6.37813" height="0.911161" rx="0.455581" transform="rotate(90 98.2712 152.515)" fill="#9EB8F9"/>
<rect x="92.8042" y="148.87" width="10.0228" height="0.911161" rx="0.455581" transform="rotate(90 92.8042 148.87)" fill="#9EB8F9"/>
<rect x="94.6265" y="156.159" width="2.73348" height="0.911162" rx="0.455581" transform="rotate(90 94.6265 156.159)" fill="#9EB8F9"/>
<rect x="96.449" y="153.426" width="5.46697" height="0.911161" rx="0.455581" transform="rotate(90 96.449 153.426)" fill="#9EB8F9"/>
<rect width="5.46697" height="0.911161" rx="0.455581" transform="matrix(4.37114e-08 1 1 -4.37114e-08 110.116 153.426)" fill="#9EB8F9"/>
<rect width="8.20045" height="0.911161" rx="0.455581" transform="matrix(4.37114e-08 1 1 -4.37114e-08 108.294 150.692)" fill="#9EB8F9"/>
<rect width="6.37813" height="0.911161" rx="0.455581" transform="matrix(4.37114e-08 1 1 -4.37114e-08 106.472 152.515)" fill="#9EB8F9"/>
<rect width="6.37813" height="0.911161" rx="0.455581" transform="matrix(4.37114e-08 1 1 -4.37114e-08 99.1824 152.515)" fill="#9EB8F9"/>
<rect width="10.0228" height="0.911161" rx="0.455581" transform="matrix(4.37114e-08 1 1 -4.37114e-08 104.649 148.87)" fill="#9EB8F9"/>
<rect width="2.73348" height="0.911162" rx="0.455581" transform="matrix(4.37114e-08 1 1 -4.37114e-08 102.827 156.159)" fill="#9EB8F9"/>
<rect width="5.46697" height="0.911161" rx="0.455581" transform="matrix(4.37114e-08 1 1 -4.37114e-08 101.005 153.426)" fill="#9EB8F9"/>
<rect x="112.85" y="153.426" width="5.46697" height="0.911161" rx="0.455581" transform="rotate(90 112.85 153.426)" fill="#9EB8F9"/>
<rect x="114.672" y="150.692" width="8.20045" height="0.911161" rx="0.455581" transform="rotate(90 114.672 150.692)" fill="#9EB8F9"/>
<rect x="116.494" y="152.515" width="6.37813" height="0.911161" rx="0.455581" transform="rotate(90 116.494 152.515)" fill="#9EB8F9"/>
<rect x="123.784" y="152.515" width="6.37813" height="0.911161" rx="0.455581" transform="rotate(90 123.784 152.515)" fill="#9EB8F9"/>
<rect x="118.317" y="148.87" width="10.0228" height="0.911161" rx="0.455581" transform="rotate(90 118.317 148.87)" fill="#9EB8F9"/>
<rect x="120.139" y="156.159" width="2.73348" height="0.911162" rx="0.455581" transform="rotate(90 120.139 156.159)" fill="#9EB8F9"/>
<rect x="121.961" y="153.426" width="5.46697" height="0.911161" rx="0.455581" transform="rotate(90 121.961 153.426)" fill="#9EB8F9"/>
<rect x="37.2234" y="90.5559" width="7.28929" height="2.73348" rx="1.36674" fill="#C8C8C8"/>
<rect x="37.2234" y="107.868" width="7.28929" height="1.82232" rx="0.911162" fill="#C8C8C8"/>
<rect x="37.2234" y="114.428" width="7.28929" height="1.82232" rx="0.911162" fill="#C8C8C8"/>
<rect x="37.2234" y="120.989" width="7.28929" height="1.82232" rx="0.911162" fill="#C8C8C8"/>
<rect x="37.2234" y="127.549" width="7.28929" height="1.82232" rx="0.911162" fill="#C8C8C8"/>
<rect x="37.2234" y="134.109" width="7.28929" height="1.82232" rx="0.911162" fill="#C8C8C8"/>
<rect x="37.2234" y="140.67" width="7.28929" height="1.82232" rx="0.911162" fill="#C8C8C8"/>
<rect x="90.0708" y="90.5559" width="7.28929" height="2.73348" rx="1.36674" fill="#C8C8C8"/>
<rect x="105.561" y="90.5559" width="19.1344" height="2.73348" rx="1.36674" fill="white"/>
<rect x="46.335" y="73.2437" width="7.28929" height="2.73348" rx="1.36674" fill="#FFFF13"/>
<rect x="55.4465" y="73.2437" width="7.28929" height="2.73348" rx="1.36674" fill="#FC0317"/>
<g clip-path="url(#clip1_851_24717)">
<path d="M48.1572 134.147H49.9804H51.112H52.2436H53.3087H55.3722L56.4372 125.747H57.5023L58.5084 134.292L59.5065 130.016H60.7767H61.8956L63.1356 125.588H64.0429H65.2224L66.6521 118.802L67.7169 123.319L68.8516 118.802L69.847 123.319L70.8476 118.802L71.977 125.812H73.1752L75.3841 134.292H78.106L79.6103 127.281L80.3742 130.356H82.1888L83.1444 127.281L84.1849 130.356H85.301L86.5438 127.281H87.814H88.2677H90.8925H92.0241H92.8042" stroke="white" stroke-width="0.911162" stroke-linecap="round"/>
</g>
<path d="M48.1572 143.403H47.2461V144.314H48.1572V143.403ZM124.695 142.492H48.1572V144.314H124.695V142.492ZM49.0684 143.403V107.868H47.2461V143.403H49.0684Z" fill="#F8F8F8" mask="url(#path-200-inside-1_851_24717)"/>
<line x1="29.9341" y1="165.043" x2="131.073" y2="165.043" stroke="#3C3C3C" stroke-width="0.455581"/>
<line x1="29.9341" y1="194.428" x2="131.073" y2="194.428" stroke="#777777" stroke-width="5.46697"/>
<line x1="29.9341" y1="211.74" x2="131.073" y2="211.74" stroke="#777777" stroke-width="3.64465"/>
<rect x="112.85" y="202.629" width="11.8451" height="2.73348" rx="1.36674" fill="#FC0317"/>
<rect x="37.2234" y="202.629" width="23.6902" height="2.73348" rx="1.36674" fill="#C8C8C8"/>
<rect x="109.205" y="219.941" width="15.4897" height="2.73348" rx="1.36674" fill="#FC0317"/>
<rect x="37.2234" y="219.941" width="17.3121" height="2.73348" rx="1.36674" fill="#C8C8C8"/>
<mask id="mask0_851_24717" style="mask-type:alpha" maskUnits="userSpaceOnUse" x="29" y="37" width="102" height="220">
<path d="M130.943 242.962C130.943 250.692 124.633 256.97 116.864 256.97H44.0138C36.2439 256.97 29.9341 250.692 29.9341 242.962V51.7172C29.9341 43.9865 36.2439 37.7085 44.0138 37.7085H54.1565C55.4341 37.7085 56.4509 38.7202 56.4509 39.9914V43.5195C56.4509 45.8802 58.3804 47.8259 60.7792 47.8259H100.098C102.471 47.8259 104.426 45.9062 104.426 43.5195V39.9914C104.426 38.7202 105.443 37.7085 106.721 37.7085H116.864C124.633 37.7085 130.943 43.9865 130.943 51.7172V242.962Z" fill="black"/>
</mask>
<g mask="url(#mask0_851_24717)">
<line x1="29.9341" y1="250.465" x2="131.073" y2="250.465" stroke="#525252" stroke-width="13.6674"/>
</g>
<path d="M85.3313 42.9037H73.2853C72.5553 42.9037 71.9556 42.307 71.9556 41.5806C71.9556 40.8542 72.5553 40.2576 73.2853 40.2576H85.3313C86.0614 40.2576 86.6611 40.8542 86.6611 41.5806C86.6611 42.307 86.0614 42.9037 85.3313 42.9037Z" fill="#808080"/>
<path d="M90.3112 42.9037C89.5811 42.9037 88.9814 42.307 88.9814 41.5806C88.9814 40.8542 89.5811 40.2576 90.3112 40.2576C91.0413 40.2576 91.641 40.8542 91.641 41.5806C91.641 42.307 91.0413 42.9037 90.3112 42.9037Z" fill="#808080"/>
</g>
<path d="M155.238 159.66L155.238 171.706C155.238 172.436 154.642 173.036 153.915 173.036C153.189 173.036 152.592 172.436 152.592 171.706L152.592 159.66C152.592 158.93 153.189 158.33 153.915 158.33C154.642 158.33 155.238 158.93 155.238 159.66Z" fill="#454545"/>
<defs>
<clipPath id="clip0_851_24717">
<rect width="117.54" height="229.613" fill="white" transform="translate(19 32.2415)"/>
</clipPath>
<clipPath id="clip1_851_24717">
<path d="M48.1572 107.868H124.695V143.403H48.1572V107.868Z" fill="white"/>
</clipPath>
</defs>
</svg>
