<svg width="439" height="295" viewBox="0 0 439 295" fill="none" xmlns="http://www.w3.org/2000/svg">
<path d="M146.563 95.5618L146.562 237.714C146.562 248.547 155.201 257.298 165.895 257.298L399.667 257.298C410.335 257.298 419 248.547 419 237.714L419 95.5618C419 84.7556 410.361 75.9772 399.667 75.9772L165.895 75.9772C155.202 75.9772 146.563 84.7556 146.563 95.5618Z" fill="#1D1D1D"/>
<line x1="150.207" y1="113.79" x2="414.444" y2="113.79" stroke="#525252" stroke-width="13.6674"/>
<line x1="150.207" y1="247.731" x2="414.444" y2="247.731" stroke="#525252" stroke-width="13.6674"/>
<line x1="150.207" y1="193.061" x2="414.444" y2="193.061" stroke="#525252" stroke-width="13.6674"/>
<path d="M146.562 91.4707L146.562 241.349C146.562 251.909 155.071 260.488 165.604 260.488L399.68 260.488C410.186 260.488 418.721 251.935 418.721 241.35L418.721 91.4707C418.721 80.9109 410.212 72.3326 399.68 72.3326L165.604 72.3327C155.071 72.3327 146.562 80.9109 146.562 91.4707ZM399.524 77.8342C407.255 77.8342 413.533 84.144 413.533 91.9139L413.533 240.88C413.533 248.65 407.255 254.96 399.524 254.96L165.76 254.96C158.029 254.96 151.751 248.65 151.751 240.88L151.751 194.291C151.751 193.013 152.763 191.997 154.034 191.997L157.562 191.997C159.923 191.997 161.868 190.067 161.868 187.668L161.868 145.126C161.868 142.753 159.949 140.798 157.562 140.798L154.034 140.798C152.763 140.798 151.751 139.781 151.751 138.503L151.751 91.9139C151.751 84.144 158.029 77.8342 165.76 77.8342L399.524 77.8342Z" fill="black"/>
<rect x="283.237" y="89.6448" width="11.8451" height="2.73349" rx="1.36674" fill="#19FF12"/>
<rect x="279.592" y="188.05" width="11.8451" height="2.73349" rx="1.36674" fill="#19FF12"/>
<rect x="396.221" y="89.6448" width="11.8451" height="2.73349" rx="1.36674" fill="#19FF12"/>
<rect x="305.105" y="89.6448" width="7.28929" height="2.73349" rx="1.36674" fill="#19FF12"/>
<rect x="297.815" y="188.05" width="7.28929" height="2.73349" rx="1.36674" fill="#19FF12"/>
<rect x="328.795" y="96.0227" width="7.28929" height="2.73349" rx="1.36674" fill="#19FF12"/>
<rect x="283.237" y="96.0227" width="11.8451" height="2.73349" rx="1.36674" fill="#FC0317"/>
<rect x="279.592" y="194.428" width="11.8451" height="2.73349" rx="1.36674" fill="#FC0317"/>
<rect x="234.034" y="192.606" width="14.5786" height="4.55581" rx="2.2779" fill="#FC0317"/>
<rect x="181.187" y="188.961" width="45.5581" height="8.20046" rx="1.82232" fill="#7D7D7D"/>
<rect x="300.549" y="109.69" width="64.6925" height="8.20046" rx="1.82232" fill="#7D7D7D"/>
<rect x="169.342" y="109.69" width="59.2255" height="8.20046" rx="1.82232" fill="#7D7D7D"/>
<rect x="396.221" y="96.0227" width="11.8451" height="2.73349" rx="1.36674" fill="#FC0317"/>
<rect x="305.105" y="96.0227" width="7.28929" height="2.73349" rx="1.36674" fill="#FC0317"/>
<rect x="297.815" y="194.428" width="7.28929" height="2.73349" rx="1.36674" fill="#FC0317"/>
<rect x="364.33" y="96.0227" width="7.28929" height="2.73349" rx="1.36674" fill="#FCE303"/>
<rect x="344.285" y="96.0227" width="7.28929" height="2.73349" rx="1.36674" fill="#FC0317"/>
<rect x="269.569" y="89.6448" width="7.28929" height="2.73349" rx="1.36674" fill="#C8C8C8"/>
<rect x="265.925" y="188.05" width="7.28929" height="2.73349" rx="1.36674" fill="#C8C8C8"/>
<rect x="234.034" y="188.05" width="7.28929" height="2.73349" rx="1.36674" fill="#C8C8C8"/>
<rect x="331.529" y="188.05" width="7.28929" height="2.73349" rx="1.36674" fill="#C8C8C8"/>
<rect x="383.465" y="188.05" width="7.28929" height="2.73349" rx="1.36674" fill="#C8C8C8"/>
<rect x="398.954" y="188.05" width="7.28929" height="2.73349" rx="1.36674" fill="#C8C8C8"/>
<rect x="341.551" y="188.05" width="15.4897" height="2.73349" rx="1.36674" fill="#FCE303"/>
<rect x="382.553" y="89.6448" width="7.28929" height="2.73349" rx="1.36674" fill="#C8C8C8"/>
<rect x="312.394" y="134.292" width="11.8451" height="2.73349" rx="1.36674" fill="#19FF12"/>
<rect x="199.41" y="134.292" width="11.8451" height="2.73349" rx="1.36674" fill="#FCE303"/>
<rect x="219.456" y="134.292" width="7.28929" height="2.73349" rx="1.36674" fill="#FCE303"/>
<rect x="246.791" y="134.292" width="16.4009" height="2.73349" rx="1.36674" fill="#FCE303"/>
<rect x="346.107" y="134.292" width="18.2232" height="2.73349" rx="1.36674" fill="#FCE303"/>
<rect x="289.615" y="134.292" width="11.8451" height="2.73349" rx="1.36674" fill="#FC0317"/>
<rect x="169.342" y="134.292" width="14.5786" height="2.73349" rx="1.36674" fill="#C8C8C8"/>
<rect x="382.553" y="134.292" width="7.28929" height="2.73349" rx="1.36674" fill="#C8C8C8"/>
<rect x="398.043" y="134.292" width="7.28929" height="2.73349" rx="1.36674" fill="#C8C8C8"/>
<rect x="312.394" y="174.383" width="11.8451" height="2.73349" rx="1.36674" fill="#19FF12"/>
<rect x="199.41" y="174.383" width="11.8451" height="2.73349" rx="1.36674" fill="#FCE303"/>
<rect x="219.456" y="174.383" width="7.28929" height="2.73349" rx="1.36674" fill="#FCE303"/>
<rect x="246.791" y="174.383" width="16.4009" height="2.73349" rx="1.36674" fill="#FCE303"/>
<rect x="346.107" y="174.383" width="18.2232" height="2.73349" rx="1.36674" fill="#FCE303"/>
<rect x="289.615" y="174.383" width="11.8451" height="2.73349" rx="1.36674" fill="#FC0317"/>
<rect x="169.342" y="174.383" width="14.5786" height="2.73349" rx="1.36674" fill="#C8C8C8"/>
<rect x="382.553" y="174.383" width="7.28929" height="2.73349" rx="1.36674" fill="#C8C8C8"/>
<rect x="398.043" y="174.383" width="7.28929" height="2.73349" rx="1.36674" fill="#C8C8C8"/>
<rect x="312.394" y="154.337" width="11.8451" height="2.73349" rx="1.36674" fill="#19FF12"/>
<rect x="199.41" y="154.337" width="11.8451" height="2.73349" rx="1.36674" fill="#FC0317"/>
<rect x="219.456" y="154.337" width="7.28929" height="2.73349" rx="1.36674" fill="#FC0317"/>
<rect x="246.791" y="154.337" width="16.4009" height="2.73349" rx="1.36674" fill="#FC0317"/>
<rect x="346.107" y="154.337" width="18.2232" height="2.73349" rx="1.36674" fill="#FC0317"/>
<rect x="289.615" y="154.337" width="11.8451" height="2.73349" rx="1.36674" fill="#FC0317"/>
<rect x="169.342" y="154.337" width="14.5786" height="2.73349" rx="1.36674" fill="#C8C8C8"/>
<rect x="382.553" y="154.337" width="7.28929" height="2.73349" rx="1.36674" fill="#C8C8C8"/>
<rect x="398.043" y="154.337" width="7.28929" height="2.73349" rx="1.36674" fill="#C8C8C8"/>
<rect x="312.394" y="164.36" width="11.8451" height="2.73349" rx="1.36674" fill="#19FF12"/>
<rect x="199.41" y="164.36" width="11.8451" height="2.73349" rx="1.36674" fill="#FC0317"/>
<rect x="219.456" y="164.36" width="7.28929" height="2.73349" rx="1.36674" fill="#FC0317"/>
<rect x="246.791" y="164.36" width="16.4009" height="2.73349" rx="1.36674" fill="#C8C8C8"/>
<rect x="346.107" y="164.36" width="18.2232" height="2.73349" rx="1.36674" fill="#FC0317"/>
<rect x="289.615" y="164.36" width="11.8451" height="2.73349" rx="1.36674" fill="#FC0317"/>
<rect x="169.342" y="164.36" width="14.5786" height="2.73349" rx="1.36674" fill="#C8C8C8"/>
<rect x="382.553" y="164.36" width="7.28929" height="2.73349" rx="1.36674" fill="#C8C8C8"/>
<rect x="398.043" y="164.36" width="7.28929" height="2.73349" rx="1.36674" fill="#C8C8C8"/>
<rect x="312.394" y="144.314" width="11.8451" height="2.73349" rx="1.36674" fill="#19FF12"/>
<rect x="199.41" y="144.314" width="11.8451" height="2.73349" rx="1.36674" fill="#19FF12"/>
<rect x="219.456" y="144.314" width="7.28929" height="2.73349" rx="1.36674" fill="#19FF12"/>
<rect x="246.791" y="144.314" width="16.4009" height="2.73349" rx="1.36674" fill="#19FF12"/>
<rect x="346.107" y="144.314" width="18.2232" height="2.73349" rx="1.36674" fill="#19FF12"/>
<rect x="341.551" y="194.428" width="18.2232" height="2.73349" rx="1.36674" fill="#19FF12"/>
<rect x="289.615" y="144.314" width="11.8451" height="2.73349" rx="1.36674" fill="#19FF12"/>
<rect x="174.809" y="208.095" width="16.4009" height="2.73349" rx="1.36674" fill="#FCE303"/>
<rect x="274.125" y="208.095" width="18.2232" height="2.73349" rx="1.36674" fill="#FCE303"/>
<rect x="240.412" y="208.095" width="11.8451" height="2.73349" rx="1.36674" fill="#19FF12"/>
<rect x="217.633" y="208.095" width="11.8451" height="2.73349" rx="1.36674" fill="#19FF12"/>
<rect x="174.809" y="215.385" width="16.4009" height="2.73349" rx="1.36674" fill="#FCE303"/>
<rect x="274.125" y="215.385" width="18.2232" height="2.73349" rx="1.36674" fill="#FCE303"/>
<rect x="240.412" y="215.385" width="11.8451" height="2.73349" rx="1.36674" fill="#19FF12"/>
<rect x="217.633" y="215.385" width="11.8451" height="2.73349" rx="1.36674" fill="#19FF12"/>
<rect x="174.809" y="222.674" width="16.4009" height="2.73349" rx="1.36674" fill="#FCE303"/>
<rect x="274.125" y="222.674" width="18.2232" height="2.73349" rx="1.36674" fill="#C8C8C8"/>
<rect x="316.95" y="208.095" width="18.2232" height="2.73349" rx="1.36674" fill="#C8C8C8"/>
<rect x="356.13" y="208.095" width="3.64465" height="2.73349" rx="1.36674" fill="#C8C8C8"/>
<rect x="393.488" y="208.095" width="11.8451" height="2.73349" rx="1.36674" fill="#FF2574"/>
<rect x="316.95" y="222.674" width="18.2232" height="2.73349" rx="1.36674" fill="#C8C8C8"/>
<rect x="356.13" y="222.674" width="3.64465" height="2.73349" rx="1.36674" fill="#C8C8C8"/>
<rect x="393.488" y="222.674" width="11.8451" height="2.73349" rx="1.36674" fill="#FF2574"/>
<rect x="240.412" y="222.674" width="11.8451" height="2.73349" rx="1.36674" fill="#FC0317"/>
<rect x="217.633" y="222.674" width="11.8451" height="2.73349" rx="1.36674" fill="#FC0317"/>
<rect x="174.809" y="229.964" width="16.4009" height="2.73349" rx="1.36674" fill="#FCE303"/>
<rect x="274.125" y="229.964" width="18.2232" height="2.73349" rx="1.36674" fill="#C8C8C8"/>
<rect x="316.95" y="215.385" width="18.2232" height="2.73349" rx="1.36674" fill="#C8C8C8"/>
<rect x="356.13" y="215.385" width="3.64465" height="2.73349" rx="1.36674" fill="#C8C8C8"/>
<rect x="393.488" y="215.385" width="11.8451" height="2.73349" rx="1.36674" fill="#FF2574"/>
<rect x="316.95" y="229.964" width="18.2232" height="2.73349" rx="1.36674" fill="#C8C8C8"/>
<rect x="356.13" y="229.964" width="3.64465" height="2.73349" rx="1.36674" fill="#C8C8C8"/>
<rect x="393.488" y="229.964" width="11.8451" height="2.73349" rx="1.36674" fill="#FF2574"/>
<rect x="240.412" y="229.964" width="11.8451" height="2.73349" rx="1.36674" fill="#FC0317"/>
<rect x="217.633" y="229.964" width="11.8451" height="2.73349" rx="1.36674" fill="#FC0317"/>
<rect x="169.342" y="144.314" width="14.5786" height="2.73349" rx="1.36674" fill="#19FF12"/>
<rect x="382.553" y="144.314" width="7.28929" height="2.73349" rx="1.36674" fill="#19FF12"/>
<rect x="383.465" y="194.428" width="7.28929" height="2.73349" rx="1.36674" fill="#19FF12"/>
<rect x="398.954" y="194.428" width="7.28929" height="2.73349" rx="1.36674" fill="#19FF12"/>
<rect x="398.043" y="144.314" width="7.28929" height="2.73349" rx="1.36674" fill="#19FF12"/>
<rect x="398.043" y="126.091" width="7.28929" height="2.73349" rx="1.36674" fill="#C8C8C8"/>
<rect x="382.553" y="126.091" width="7.28929" height="2.73349" rx="1.36674" fill="#C8C8C8"/>
<rect x="346.107" y="126.091" width="7.28929" height="2.73349" rx="1.36674" fill="#C8C8C8"/>
<rect x="312.394" y="126.091" width="7.28929" height="2.73349" rx="1.36674" fill="#C8C8C8"/>
<rect x="289.615" y="126.091" width="7.28929" height="2.73349" rx="1.36674" fill="#C8C8C8"/>
<rect x="246.791" y="126.091" width="7.28929" height="2.73349" rx="1.36674" fill="#C8C8C8"/>
<rect x="219.456" y="126.091" width="7.28929" height="2.73349" rx="1.36674" fill="#C8C8C8"/>
<rect x="199.41" y="126.091" width="7.28929" height="2.73349" rx="1.36674" fill="#C8C8C8"/>
<rect x="169.342" y="126.091" width="14.5786" height="2.73349" rx="1.36674" fill="#C8C8C8"/>
<rect x="328.795" y="89.6448" width="7.28929" height="2.73349" rx="1.36674" fill="#C8C8C8"/>
<rect x="364.33" y="89.6448" width="7.28929" height="2.73349" rx="1.36674" fill="#C8C8C8"/>
<rect x="344.285" y="89.6448" width="13.6674" height="2.73349" rx="1.36674" fill="#4E7AEC"/>
<rect x="269.569" y="96.0227" width="7.28929" height="2.73349" rx="1.36674" fill="#C8C8C8"/>
<rect x="265.925" y="194.428" width="7.28929" height="2.73349" rx="1.36674" fill="#C8C8C8"/>
<rect x="331.529" y="194.428" width="7.28929" height="2.73349" rx="1.36674" fill="#C8C8C8"/>
<rect x="382.553" y="96.0227" width="7.28929" height="2.73349" rx="1.36674" fill="#C8C8C8"/>
<rect x="287.793" y="112.424" width="7.28929" height="2.73349" rx="1.36674" fill="#C8C8C8"/>
<rect x="274.125" y="112.424" width="7.28929" height="2.73349" rx="1.36674" fill="#C8C8C8"/>
<path d="M169.741 95.5861C169.822 97.0956 171.071 98.0499 172.922 98.0499C174.9 98.0499 176.143 97.0725 176.143 95.5109C176.143 94.2905 175.432 93.6022 173.72 93.1974L172.8 92.9718C171.725 92.7058 171.285 92.3587 171.285 91.7688C171.285 91.0285 171.973 90.5195 172.98 90.5195C173.986 90.5195 174.674 91.0227 174.75 91.8556H176.01C175.97 90.4154 174.761 89.4264 172.997 89.4264C171.216 89.4264 169.961 90.4154 169.961 91.8556C169.961 93.0181 170.672 93.7353 172.205 94.1054L173.286 94.3657C174.368 94.6318 174.825 95.0193 174.825 95.667C174.825 96.4131 174.067 96.9568 173.014 96.9568C171.916 96.9568 171.112 96.4131 171.019 95.5861H169.741ZM182.604 96.7891H178.602V94.198H182.39V93.1222H178.602V90.6815H182.604V89.5652H177.306V97.9111H182.604V96.7891ZM187.3 97.9111V90.6815H189.851V89.5652H183.448V90.6815H186.005V97.9111H187.3Z" fill="white"/>
<path d="M202.868 97.8223H204.037V90.1183H202.857L200.828 91.5598V92.7344L202.841 91.3035H202.868V97.8223ZM206.482 99.4079L207.208 96.589H206.045L205.564 99.4079H206.482ZM211.399 97.9718C213.033 97.9718 214.213 96.8506 214.213 95.3077C214.213 93.8448 213.124 92.761 211.656 92.761C210.695 92.761 209.878 93.2629 209.541 94.0103H209.52C209.525 92.0723 210.23 90.9725 211.442 90.9725C212.147 90.9725 212.723 91.3836 212.91 92.0136H214.106C213.871 90.7857 212.814 89.9688 211.453 89.9688C209.525 89.9688 208.372 91.4957 208.372 94.0744C208.372 94.9767 208.532 95.7348 208.847 96.3487C209.349 97.3898 210.262 97.9718 211.399 97.9718ZM211.389 96.9627C210.47 96.9627 209.76 96.2366 209.76 95.3237C209.76 94.4107 210.46 93.7381 211.399 93.7381C212.344 93.7381 213.022 94.4107 213.022 95.345C213.022 96.2473 212.296 96.9627 211.389 96.9627ZM218.009 97.9664C219.717 97.9664 220.924 97.0481 220.924 95.7401C220.924 94.7631 220.235 93.973 219.21 93.7594V93.7327C220.064 93.4871 220.609 92.8251 220.609 92.0083C220.609 90.8284 219.525 89.9742 218.009 89.9742C216.498 89.9742 215.404 90.8337 215.404 92.0029C215.404 92.8305 215.953 93.4978 216.808 93.7327V93.7594C215.788 93.973 215.094 94.7578 215.094 95.7401C215.094 97.0428 216.29 97.9664 218.009 97.9664ZM218.009 97.0054C217.027 97.0054 216.327 96.4395 216.327 95.6547C216.327 94.8645 217.027 94.2933 218.009 94.2933C218.991 94.2933 219.685 94.8592 219.685 95.6547C219.685 96.4395 218.991 97.0054 218.009 97.0054ZM218.009 93.3323C217.171 93.3323 216.589 92.8305 216.589 92.1311C216.589 91.4263 217.171 90.9245 218.009 90.9245C218.842 90.9245 219.429 91.4263 219.429 92.1311C219.429 92.8305 218.836 93.3323 218.009 93.3323ZM224.768 97.9664C226.476 97.9664 227.683 97.0481 227.683 95.7401C227.683 94.7631 226.994 93.973 225.969 93.7594V93.7327C226.823 93.4871 227.368 92.8251 227.368 92.0083C227.368 90.8284 226.284 89.9742 224.768 89.9742C223.257 89.9742 222.162 90.8337 222.162 92.0029C222.162 92.8305 222.712 93.4978 223.567 93.7327V93.7594C222.547 93.973 221.853 94.7578 221.853 95.7401C221.853 97.0428 223.049 97.9664 224.768 97.9664ZM224.768 97.0054C223.785 97.0054 223.086 96.4395 223.086 95.6547C223.086 94.8645 223.785 94.2933 224.768 94.2933C225.75 94.2933 226.444 94.8592 226.444 95.6547C226.444 96.4395 225.75 97.0054 224.768 97.0054ZM224.768 93.3323C223.93 93.3323 223.348 92.8305 223.348 92.1311C223.348 91.4263 223.93 90.9245 224.768 90.9245C225.601 90.9245 226.188 91.4263 226.188 92.1311C226.188 92.8305 225.595 93.3323 224.768 93.3323ZM229.445 97.881C229.834 97.881 230.144 97.5713 230.144 97.1816C230.144 96.7919 229.834 96.4822 229.445 96.4822C229.055 96.4822 228.745 96.7919 228.745 97.1816C228.745 97.5713 229.055 97.881 229.445 97.881ZM234.223 97.9664C236.07 97.9664 237.154 96.4128 237.154 93.9569C237.154 91.5171 236.065 89.9742 234.223 89.9742C232.386 89.9742 231.281 91.5224 231.281 93.9623C231.281 96.4182 232.376 97.9664 234.223 97.9664ZM234.223 96.9627C233.123 96.9627 232.493 95.8202 232.493 93.9623C232.493 92.1311 233.134 90.9779 234.223 90.9779C235.312 90.9779 235.947 92.1257 235.947 93.9623C235.947 95.8255 235.323 96.9627 234.223 96.9627ZM241.035 97.9664C242.883 97.9664 243.966 96.4128 243.966 93.9569C243.966 91.5171 242.877 89.9742 241.035 89.9742C239.199 89.9742 238.094 91.5224 238.094 93.9623C238.094 96.4182 239.188 97.9664 241.035 97.9664ZM241.035 96.9627C239.935 96.9627 239.305 95.8202 239.305 93.9623C239.305 92.1311 239.946 90.9779 241.035 90.9779C242.124 90.9779 242.76 92.1257 242.76 93.9623C242.76 95.8255 242.135 96.9627 241.035 96.9627Z" fill="#19FF12"/>
<g clip-path="url(#clip0_851_24717)">
<path d="M111.9 32.2415H38.138C27.5521 32.2415 19 40.7504 19 51.2829V242.839C19 253.345 27.5521 261.88 38.138 261.88H111.9C122.46 261.88 131.038 253.371 131.038 242.839V51.2829C131.038 40.7504 122.46 32.2415 111.9 32.2415Z" fill="#989898"/>
<path d="M116.456 32.2415H42.6937C32.1339 32.2415 23.5557 40.7504 23.5557 51.2829V242.839C23.5557 253.345 32.1078 261.88 42.6937 261.88H116.456C127.016 261.88 135.594 253.371 135.594 242.839V51.2829C135.594 40.7504 127.016 32.2415 116.456 32.2415Z" fill="black"/>
<path d="M117.402 32.2415H43.6395C33.0797 32.2415 24.5015 40.7504 24.5015 51.2829V242.839C24.5015 253.345 33.0536 261.88 43.6395 261.88H117.402C127.962 261.88 136.54 253.371 136.54 242.839V51.2829C136.54 40.7504 127.962 32.2415 117.402 32.2415ZM131.038 242.683C131.038 250.414 124.728 256.692 116.959 256.692H44.1088C36.3389 256.692 30.0291 250.414 30.0291 242.683V51.4385C30.0291 43.7078 36.3389 37.4299 44.1088 37.4299H54.2515C55.5291 37.4299 56.5459 38.4416 56.5459 39.7128V43.2409C56.5459 45.6016 58.4754 47.5472 60.8742 47.5472H100.193C102.566 47.5472 104.521 45.6275 104.521 43.2409V39.7128C104.521 38.4416 105.538 37.4299 106.816 37.4299H116.959C124.728 37.4299 131.038 43.7078 131.038 51.4385V242.683Z" fill="black"/>
<path d="M130.943 242.962C130.943 250.692 124.633 256.97 116.864 256.97H44.0138C36.2439 256.97 29.9341 250.692 29.9341 242.962V51.7172C29.9341 43.9865 36.2439 37.7085 44.0138 37.7085H54.1565C55.4341 37.7085 56.4509 38.7202 56.4509 39.9914V43.5195C56.4509 45.8802 58.3804 47.8259 60.7792 47.8259H100.098C102.471 47.8259 104.426 45.9062 104.426 43.5195V39.9914C104.426 38.7202 105.443 37.7085 106.721 37.7085H116.864C124.633 37.7085 130.943 43.9865 130.943 51.7172V242.962Z" fill="#222222"/>
<path d="M37.6225 65.5177C37.7034 67.0273 38.9527 67.9816 40.8035 67.9816C42.7816 67.9816 44.0251 67.0041 44.0251 65.4425C44.0251 64.2222 43.3137 63.5339 41.6017 63.129L40.6821 62.9035C39.6063 62.6374 39.1667 62.2904 39.1667 61.7004C39.1667 60.9601 39.855 60.4512 40.8614 60.4512C41.8677 60.4512 42.556 60.9543 42.6312 61.7872H43.892C43.8516 60.347 42.6428 59.358 40.8787 59.358C39.0973 59.358 37.8422 60.347 37.8422 61.7872C37.8422 62.9497 38.5536 63.6669 40.0863 64.0371L41.1679 64.2973C42.2495 64.5634 42.7064 64.9509 42.7064 65.5987C42.7064 66.3448 41.9487 66.8885 40.8961 66.8885C39.7972 66.8885 38.9932 66.3448 38.9007 65.5177H37.6225ZM50.4855 66.7207H46.4832V64.1296H50.2715V63.0538H46.4832V60.6131H50.4855V59.4968H45.1876V67.8428H50.4855V66.7207ZM55.1819 67.8428V60.6131H57.7325V59.4968H51.3299V60.6131H53.8863V67.8428H55.1819Z" fill="white"/>
<path d="M82.5945 68.665H83.7637V60.9611H82.5838L80.555 62.4026V63.5771L82.5678 62.1463H82.5945V68.665ZM86.2089 70.2507L86.935 67.4318H85.7711L85.2906 70.2507H86.2089ZM91.1259 68.8145C92.7596 68.8145 93.9395 67.6934 93.9395 66.1504C93.9395 64.6876 92.8504 63.6038 91.3822 63.6038C90.4212 63.6038 89.6044 64.1057 89.268 64.8531H89.2467C89.252 62.9151 89.9567 61.8153 91.1687 61.8153C91.8734 61.8153 92.45 62.2264 92.6368 62.8564H93.8327C93.5978 61.6285 92.5407 60.8116 91.1793 60.8116C89.252 60.8116 88.0988 62.3385 88.0988 64.9172C88.0988 65.8194 88.259 66.5776 88.574 67.1915C89.0758 68.2326 89.9888 68.8145 91.1259 68.8145ZM91.1153 67.8055C90.197 67.8055 89.4869 67.0794 89.4869 66.1665C89.4869 65.2535 90.1863 64.5808 91.1259 64.5808C92.0709 64.5808 92.7489 65.2535 92.7489 66.1878C92.7489 67.0901 92.0229 67.8055 91.1153 67.8055ZM97.7354 68.8092C99.4438 68.8092 100.65 67.8909 100.65 66.5829C100.65 65.6059 99.9617 64.8157 98.9367 64.6022V64.5755C99.7909 64.3299 100.335 63.6679 100.335 62.851C100.335 61.6712 99.2517 60.8169 97.7354 60.8169C96.2245 60.8169 95.1301 61.6765 95.1301 62.8457C95.1301 63.6732 95.68 64.3406 96.5342 64.5755V64.6022C95.5145 64.8157 94.8204 65.6005 94.8204 66.5829C94.8204 67.8856 96.0163 68.8092 97.7354 68.8092ZM97.7354 67.8482C96.7531 67.8482 96.0537 67.2823 96.0537 66.4975C96.0537 65.7073 96.7531 65.1361 97.7354 65.1361C98.7178 65.1361 99.4118 65.702 99.4118 66.4975C99.4118 67.2823 98.7178 67.8482 97.7354 67.8482ZM97.7354 64.1751C96.8972 64.1751 96.3153 63.6732 96.3153 62.9738C96.3153 62.2691 96.8972 61.7673 97.7354 61.7673C98.5683 61.7673 99.1556 62.2691 99.1556 62.9738C99.1556 63.6732 98.5629 64.1751 97.7354 64.1751ZM104.494 68.8092C106.203 68.8092 107.409 67.8909 107.409 66.5829C107.409 65.6059 106.721 64.8157 105.696 64.6022V64.5755C106.55 64.3299 107.094 63.6679 107.094 62.851C107.094 61.6712 106.011 60.8169 104.494 60.8169C102.983 60.8169 101.889 61.6765 101.889 62.8457C101.889 63.6732 102.439 64.3406 103.293 64.5755V64.6022C102.273 64.8157 101.579 65.6005 101.579 66.5829C101.579 67.8856 102.775 68.8092 104.494 68.8092ZM104.494 67.8482C103.512 67.8482 102.813 67.2823 102.813 66.4975C102.813 65.7073 103.512 65.1361 104.494 65.1361C105.477 65.1361 106.171 65.702 106.171 66.4975C106.171 67.2823 105.477 67.8482 104.494 67.8482ZM104.494 64.1751C103.656 64.1751 103.074 63.6732 103.074 62.9738C103.074 62.2691 103.656 61.7673 104.494 61.7673C105.327 61.7673 105.915 62.2691 105.915 62.9738C105.915 63.6732 105.322 64.1751 104.494 64.1751ZM109.171 68.7238C109.561 68.7238 109.871 68.4141 109.871 68.0244C109.871 67.6346 109.561 67.325 109.171 67.325C108.781 67.325 108.472 67.6346 108.472 68.0244C108.472 68.4141 108.781 68.7238 109.171 68.7238ZM113.949 68.8092C115.797 68.8092 116.88 67.2556 116.88 64.7997C116.88 62.3599 115.791 60.8169 113.949 60.8169C112.113 60.8169 111.008 62.3652 111.008 64.8051C111.008 67.2609 112.102 68.8092 113.949 68.8092ZM113.949 67.8055C112.85 67.8055 112.22 66.663 112.22 64.8051C112.22 62.9738 112.86 61.8206 113.949 61.8206C115.039 61.8206 115.674 62.9685 115.674 64.8051C115.674 66.6683 115.049 67.8055 113.949 67.8055ZM120.762 68.8092C122.609 68.8092 123.693 67.2556 123.693 64.7997C123.693 62.3599 122.604 60.8169 120.762 60.8169C118.925 60.8169 117.82 62.3652 117.82 64.8051C117.82 67.2609 118.915 68.8092 120.762 68.8092ZM120.762 67.8055C119.662 67.8055 119.032 66.663 119.032 64.8051C119.032 62.9738 119.673 61.8206 120.762 61.8206C121.851 61.8206 122.486 62.9685 122.486 64.8051C122.486 66.6683 121.862 67.8055 120.762 67.8055Z" fill="#19FF12"/>
<path d="M88.3854 75.1534H89.5065V74.6329H88.3854V73.453H87.8568V74.6329H86.7357V75.1534H87.8568V76.3573H88.3854V75.1534ZM91.5193 76.4935C92.4429 76.4935 92.9848 75.7167 92.9848 74.4887C92.9848 73.2688 92.4402 72.4973 91.5193 72.4973C90.601 72.4973 90.0484 73.2715 90.0484 74.4914C90.0484 75.7193 90.5957 76.4935 91.5193 76.4935ZM91.5193 75.9916C90.9694 75.9916 90.6544 75.4204 90.6544 74.4914C90.6544 73.5758 90.9747 72.9992 91.5193 72.9992C92.0638 72.9992 92.3815 73.5731 92.3815 74.4914C92.3815 75.423 92.0692 75.9916 91.5193 75.9916ZM93.823 76.4508C94.0179 76.4508 94.1727 76.2959 94.1727 76.1011C94.1727 75.9062 94.0179 75.7514 93.823 75.7514C93.6281 75.7514 93.4733 75.9062 93.4733 76.1011C93.4733 76.2959 93.6281 76.4508 93.823 76.4508ZM94.8774 76.4214H95.5047L97.1784 73.0873V72.5694H94.5571V73.0739H96.5885V73.0873L94.8774 76.4214ZM99.0631 76.4935C99.9867 76.4935 100.529 75.7167 100.529 74.4887C100.529 73.2688 99.984 72.4973 99.0631 72.4973C98.1448 72.4973 97.5922 73.2715 97.5922 74.4914C97.5922 75.7193 98.1394 76.4935 99.0631 76.4935ZM99.0631 75.9916C98.5132 75.9916 98.1982 75.4204 98.1982 74.4914C98.1982 73.5758 98.5185 72.9992 99.0631 72.9992C99.6076 72.9992 99.9253 73.5731 99.9253 74.4914C99.9253 75.423 99.613 75.9916 99.0631 75.9916ZM102.376 74.9078C102.376 75.8368 102.621 76.5896 103.147 77.2436H103.654C103.27 76.7951 102.968 75.7834 102.968 74.9052C102.968 74.0269 103.27 73.0179 103.654 72.5694H103.147C102.621 73.2208 102.376 73.9735 102.376 74.9078ZM105.715 75.1534H106.836V74.6329H105.715V73.453H105.187V74.6329H104.066V75.1534H105.187V76.3573H105.715V75.1534ZM108.849 76.4935C109.773 76.4935 110.315 75.7167 110.315 74.4887C110.315 73.2688 109.77 72.4973 108.849 72.4973C107.931 72.4973 107.378 73.2715 107.378 74.4914C107.378 75.7193 107.926 76.4935 108.849 76.4935ZM108.849 75.9916C108.299 75.9916 107.984 75.4204 107.984 74.4914C107.984 73.5758 108.305 72.9992 108.849 72.9992C109.394 72.9992 109.711 73.5731 109.711 74.4914C109.711 75.423 109.399 75.9916 108.849 75.9916ZM111.153 76.4508C111.348 76.4508 111.503 76.2959 111.503 76.1011C111.503 75.9062 111.348 75.7514 111.153 75.7514C110.958 75.7514 110.803 75.9062 110.803 76.1011C110.803 76.2959 110.958 76.4508 111.153 76.4508ZM113.542 76.4935C114.466 76.4935 115.007 75.7167 115.007 74.4887C115.007 73.2688 114.463 72.4973 113.542 72.4973C112.624 72.4973 112.071 73.2715 112.071 74.4914C112.071 75.7193 112.618 76.4935 113.542 76.4935ZM113.542 75.9916C112.992 75.9916 112.677 75.4204 112.677 74.4914C112.677 73.5758 112.997 72.9992 113.542 72.9992C114.087 72.9992 114.404 73.5731 114.404 74.4914C114.404 75.423 114.092 75.9916 113.542 75.9916ZM117.375 76.4214H117.949V75.6606H118.478V75.1588H117.949V72.5694H117.084C116.217 73.824 115.779 74.5154 115.448 75.1374V75.6606H117.375V76.4214ZM116.006 75.1534C116.313 74.5955 116.703 73.9949 117.37 73.0312H117.381V75.1668H116.006V75.1534ZM120.437 73.485C120.437 72.8924 120.109 72.5134 119.604 72.5134C119.097 72.5134 118.769 72.8924 118.769 73.485C118.769 74.0776 119.097 74.4567 119.604 74.4567C120.109 74.4567 120.437 74.0776 120.437 73.485ZM119.604 74.0803C119.391 74.0803 119.257 73.8534 119.257 73.4824C119.257 73.114 119.391 72.8871 119.604 72.8871C119.815 72.8871 119.949 73.114 119.949 73.4824C119.949 73.8534 119.815 74.0803 119.604 74.0803ZM119.58 76.4214L120.944 74.5555L122.394 72.5694H121.868L120.541 74.3846L119.052 76.4214H119.58ZM122.677 75.4951C122.677 74.8998 122.351 74.5208 121.844 74.5208C121.337 74.5208 121.011 74.8998 121.011 75.4951C121.011 76.0877 121.337 76.4668 121.844 76.4668C122.351 76.4668 122.677 76.0877 122.677 75.4951ZM121.844 76.0877C121.63 76.0877 121.5 75.8635 121.5 75.4924C121.5 75.1214 121.63 74.8971 121.844 74.8971C122.057 74.8971 122.188 75.1214 122.188 75.4924C122.188 75.8635 122.057 76.0877 121.844 76.0877ZM124.185 74.9078C124.185 73.736 123.806 73.0526 123.413 72.5694H122.906C123.171 72.8764 123.592 73.752 123.592 74.9052C123.592 76.0583 123.173 76.9339 122.906 77.2436H123.413C123.806 76.7577 124.185 76.0744 124.185 74.9078Z" fill="#19FF12"/>
<rect x="37.2234" y="73.2437" width="7.28929" height="2.73348" rx="1.36674" fill="#19FF12"/>
<rect x="50.8909" y="84.1777" width="11.8451" height="2.73348" rx="1.36674" fill="#19FF12"/>
<rect x="72.7588" y="84.1777" width="11.8451" height="2.73348" rx="1.36674" fill="#19FF12"/>
<rect x="50.8909" y="90.5559" width="11.8451" height="2.73348" rx="1.36674" fill="#FC0317"/>
<rect x="72.7588" y="90.5559" width="11.8451" height="2.73348" rx="1.36674" fill="#FC0317"/>
<rect x="37.2234" y="84.1777" width="7.28929" height="2.73348" rx="1.36674" fill="#C8C8C8"/>
<rect x="86.426" y="171.649" width="11.8451" height="2.73348" rx="1.36674" fill="#19FF12"/>
<rect x="112.85" y="171.649" width="11.8451" height="2.73348" rx="1.36674" fill="#19FF12"/>
<rect x="37.2234" y="171.649" width="19.1344" height="2.73348" rx="1.36674" fill="#C8C8C8"/>
<rect x="81.8704" y="178.027" width="16.4009" height="2.73348" rx="1.36674" fill="#19FF12"/>
<rect x="112.85" y="178.027" width="11.8451" height="2.73348" rx="1.36674" fill="#19FF12"/>
<rect x="37.2234" y="178.027" width="23.6902" height="2.73348" rx="1.36674" fill="#C8C8C8"/>
<rect x="112.85" y="229.052" width="11.8451" height="2.73348" rx="1.36674" fill="#19FF12"/>
<rect x="37.2234" y="229.052" width="23.6902" height="2.73348" rx="1.36674" fill="#C8C8C8"/>
<rect x="90.0708" y="84.1777" width="7.28929" height="2.73348" rx="1.36674" fill="#C8C8C8"/>
<rect x="111.028" y="84.1777" width="13.6674" height="2.73348" rx="1.36674" fill="white"/>
<rect x="49.0684" y="153.426" width="5.46697" height="0.911161" rx="0.455581" transform="rotate(90 49.0684 153.426)" fill="#9EB8F9"/>
<rect x="50.8909" y="150.692" width="8.20045" height="0.911161" rx="0.455581" transform="rotate(90 50.8909 150.692)" fill="#9EB8F9"/>
<rect x="52.7131" y="152.515" width="6.37813" height="0.911161" rx="0.455581" transform="rotate(90 52.7131 152.515)" fill="#9EB8F9"/>
<rect x="60.0024" y="152.515" width="6.37813" height="0.911161" rx="0.455581" transform="rotate(90 60.0024 152.515)" fill="#9EB8F9"/>
<rect x="54.5354" y="148.87" width="10.0228" height="0.911161" rx="0.455581" transform="rotate(90 54.5354 148.87)" fill="#9EB8F9"/>
<rect x="56.3577" y="156.159" width="2.73348" height="0.911162" rx="0.455581" transform="rotate(90 56.3577 156.159)" fill="#9EB8F9"/>
<rect x="58.1802" y="153.426" width="5.46697" height="0.911161" rx="0.455581" transform="rotate(90 58.1802 153.426)" fill="#9EB8F9"/>
<rect width="5.46697" height="0.911161" rx="0.455581" transform="matrix(4.37114e-08 1 1 -4.37114e-08 71.8474 153.426)" fill="#9EB8F9"/>
<rect width="8.20045" height="0.911161" rx="0.455581" transform="matrix(4.37114e-08 1 1 -4.37114e-08 70.0251 150.692)" fill="#9EB8F9"/>
<rect width="6.37813" height="0.911161" rx="0.455581" transform="matrix(4.37114e-08 1 1 -4.37114e-08 68.2029 152.515)" fill="#9EB8F9"/>
<rect width="6.37813" height="0.911161" rx="0.455581" transform="matrix(4.37114e-08 1 1 -4.37114e-08 60.9136 152.515)" fill="#9EB8F9"/>
<rect width="10.0228" height="0.911161" rx="0.455581" transform="matrix(4.37114e-08 1 1 -4.37114e-08 66.3806 148.87)" fill="#9EB8F9"/>
<rect width="2.73348" height="0.911162" rx="0.455581" transform="matrix(4.37114e-08 1 1 -4.37114e-08 64.5581 156.159)" fill="#9EB8F9"/>
<rect width="5.46697" height="0.911161" rx="0.455581" transform="matrix(4.37114e-08 1 1 -4.37114e-08 62.7358 153.426)" fill="#9EB8F9"/>
<rect x="74.5811" y="153.426" width="5.46697" height="0.911161" rx="0.455581" transform="rotate(90 74.5811 153.426)" fill="#9EB8F9"/>
<rect x="76.4033" y="150.692" width="8.20045" height="0.911161" rx="0.455581" transform="rotate(90 76.4033 150.692)" fill="#9EB8F9"/>
<rect x="78.2256" y="152.515" width="6.37813" height="0.911161" rx="0.455581" transform="rotate(90 78.2256 152.515)" fill="#9EB8F9"/>
<rect x="85.5149" y="152.515" width="6.37813" height="0.911161" rx="0.455581" transform="rotate(90 85.5149 152.515)" fill="#9EB8F9"/>
<rect x="80.0479" y="148.87" width="10.0228" height="0.911161" rx="0.455581" transform="rotate(90 80.0479 148.87)" fill="#9EB8F9"/>
<rect x="81.8704" y="156.159" width="2.73348" height="0.911162" rx="0.455581" transform="rotate(90 81.8704 156.159)" fill="#9EB8F9"/>
<rect x="83.6926" y="153.426" width="5.46697" height="0.911161" rx="0.455581" transform="rotate(90 83.6926 153.426)" fill="#9EB8F9"/>
<rect x="98.2712" y="152.515" width="6.37813" height="0.911161" rx="0.455581" transform="rotate(90 98.2712 152.515)" fill="#9EB8F9"/>
<rect x="92.8042" y="148.87" width="10.0228" height="0.911161" rx="0.455581" transform="rotate(90 92.8042 148.87)" fill="#9EB8F9"/>
<rect x="94.6265" y="156.159" width="2.73348" height="0.911162" rx="0.455581" transform="rotate(90 94.6265 156.159)" fill="#9EB8F9"/>
<rect x="96.449" y="153.426" width="5.46697" height="0.911161" rx="0.455581" transform="rotate(90 96.449 153.426)" fill="#9EB8F9"/>
<rect width="5.46697" height="0.911161" rx="0.455581" transform="matrix(4.37114e-08 1 1 -4.37114e-08 110.116 153.426)" fill="#9EB8F9"/>
<rect width="8.20045" height="0.911161" rx="0.455581" transform="matrix(4.37114e-08 1 1 -4.37114e-08 108.294 150.692)" fill="#9EB8F9"/>
<rect width="6.37813" height="0.911161" rx="0.455581" transform="matrix(4.37114e-08 1 1 -4.37114e-08 106.472 152.515)" fill="#9EB8F9"/>
<rect width="6.37813" height="0.911161" rx="0.455581" transform="matrix(4.37114e-08 1 1 -4.37114e-08 99.1824 152.515)" fill="#9EB8F9"/>
<rect width="10.0228" height="0.911161" rx="0.455581" transform="matrix(4.37114e-08 1 1 -4.37114e-08 104.649 148.87)" fill="#9EB8F9"/>
<rect width="2.73348" height="0.911162" rx="0.455581" transform="matrix(4.37114e-08 1 1 -4.37114e-08 102.827 156.159)" fill="#9EB8F9"/>
<rect width="5.46697" height="0.911161" rx="0.455581" transform="matrix(4.37114e-08 1 1 -4.37114e-08 101.005 153.426)" fill="#9EB8F9"/>
<rect x="112.85" y="153.426" width="5.46697" height="0.911161" rx="0.455581" transform="rotate(90 112.85 153.426)" fill="#9EB8F9"/>
<rect x="114.672" y="150.692" width="8.20045" height="0.911161" rx="0.455581" transform="rotate(90 114.672 150.692)" fill="#9EB8F9"/>
<rect x="116.494" y="152.515" width="6.37813" height="0.911161" rx="0.455581" transform="rotate(90 116.494 152.515)" fill="#9EB8F9"/>
<rect x="123.784" y="152.515" width="6.37813" height="0.911161" rx="0.455581" transform="rotate(90 123.784 152.515)" fill="#9EB8F9"/>
<rect x="118.317" y="148.87" width="10.0228" height="0.911161" rx="0.455581" transform="rotate(90 118.317 148.87)" fill="#9EB8F9"/>
<rect x="120.139" y="156.159" width="2.73348" height="0.911162" rx="0.455581" transform="rotate(90 120.139 156.159)" fill="#9EB8F9"/>
<rect x="121.961" y="153.426" width="5.46697" height="0.911161" rx="0.455581" transform="rotate(90 121.961 153.426)" fill="#9EB8F9"/>
<rect x="37.2234" y="90.5559" width="7.28929" height="2.73348" rx="1.36674" fill="#C8C8C8"/>
<rect x="37.2234" y="107.868" width="7.28929" height="1.82232" rx="0.911162" fill="#C8C8C8"/>
<rect x="37.2234" y="114.428" width="7.28929" height="1.82232" rx="0.911162" fill="#C8C8C8"/>
<rect x="37.2234" y="120.989" width="7.28929" height="1.82232" rx="0.911162" fill="#C8C8C8"/>
<rect x="37.2234" y="127.549" width="7.28929" height="1.82232" rx="0.911162" fill="#C8C8C8"/>
<rect x="37.2234" y="134.109" width="7.28929" height="1.82232" rx="0.911162" fill="#C8C8C8"/>
<rect x="37.2234" y="140.67" width="7.28929" height="1.82232" rx="0.911162" fill="#C8C8C8"/>
<rect x="90.0708" y="90.5559" width="7.28929" height="2.73348" rx="1.36674" fill="#C8C8C8"/>
<rect x="105.561" y="90.5559" width="19.1344" height="2.73348" rx="1.36674" fill="white"/>
<rect x="46.335" y="73.2437" width="7.28929" height="2.73348" rx="1.36674" fill="#FFFF13"/>
<rect x="55.4465" y="73.2437" width="7.28929" height="2.73348" rx="1.36674" fill="#FC0317"/>
<g clip-path="url(#clip1_851_24717)">
<path d="M48.1572 134.147H49.9804H51.112H52.2436H53.3087H55.3722L56.4372 125.747H57.5023L58.5084 134.292L59.5065 130.016H60.7767H61.8956L63.1356 125.588H64.0429H65.2224L66.6521 118.802L67.7169 123.319L68.8516 118.802L69.847 123.319L70.8476 118.802L71.977 125.812H73.1752L75.3841 134.292H78.106L79.6103 127.281L80.3742 130.356H82.1888L83.1444 127.281L84.1849 130.356H85.301L86.5438 127.281H87.814H88.2677H90.8925H92.0241H92.8042" stroke="white" stroke-width="0.911162" stroke-linecap="round"/>
</g>
<path d="M48.1572 143.403H47.2461V144.314H48.1572V143.403ZM124.695 142.492H48.1572V144.314H124.695V142.492ZM49.0684 143.403V107.868H47.2461V143.403H49.0684Z" fill="#F8F8F8" mask="url(#path-200-inside-1_851_24717)"/>
<line x1="29.9341" y1="165.043" x2="131.073" y2="165.043" stroke="#3C3C3C" stroke-width="0.455581"/>
<line x1="29.9341" y1="194.428" x2="131.073" y2="194.428" stroke="#777777" stroke-width="5.46697"/>
<line x1="29.9341" y1="211.74" x2="131.073" y2="211.74" stroke="#777777" stroke-width="3.64465"/>
<rect x="112.85" y="202.629" width="11.8451" height="2.73348" rx="1.36674" fill="#FC0317"/>
<rect x="37.2234" y="202.629" width="23.6902" height="2.73348" rx="1.36674" fill="#C8C8C8"/>
<rect x="109.205" y="219.941" width="15.4897" height="2.73348" rx="1.36674" fill="#FC0317"/>
<rect x="37.2234" y="219.941" width="17.3121" height="2.73348" rx="1.36674" fill="#C8C8C8"/>
<mask id="mask0_851_24717" style="mask-type:alpha" maskUnits="userSpaceOnUse" x="29" y="37" width="102" height="220">
<path d="M130.943 242.962C130.943 250.692 124.633 256.97 116.864 256.97H44.0138C36.2439 256.97 29.9341 250.692 29.9341 242.962V51.7172C29.9341 43.9865 36.2439 37.7085 44.0138 37.7085H54.1565C55.4341 37.7085 56.4509 38.7202 56.4509 39.9914V43.5195C56.4509 45.8802 58.3804 47.8259 60.7792 47.8259H100.098C102.471 47.8259 104.426 45.9062 104.426 43.5195V39.9914C104.426 38.7202 105.443 37.7085 106.721 37.7085H116.864C124.633 37.7085 130.943 43.9865 130.943 51.7172V242.962Z" fill="black"/>
</mask>
<g mask="url(#mask0_851_24717)">
<line x1="29.9341" y1="250.465" x2="131.073" y2="250.465" stroke="#525252" stroke-width="13.6674"/>
</g>
<path d="M85.3313 42.9037H73.2853C72.5553 42.9037 71.9556 42.307 71.9556 41.5806C71.9556 40.8542 72.5553 40.2576 73.2853 40.2576H85.3313C86.0614 40.2576 86.6611 40.8542 86.6611 41.5806C86.6611 42.307 86.0614 42.9037 85.3313 42.9037Z" fill="#808080"/>
<path d="M90.3112 42.9037C89.5811 42.9037 88.9814 42.307 88.9814 41.5806C88.9814 40.8542 89.5811 40.2576 90.3112 40.2576C91.0413 40.2576 91.641 40.8542 91.641 41.5806C91.641 42.307 91.0413 42.9037 90.3112 42.9037Z" fill="#808080"/>
</g>
<path d="M155.239 159.66L155.239 171.706C155.239 172.436 154.642 173.036 153.916 173.036C153.189 173.036 152.593 172.436 152.593 171.706L152.593 159.66C152.593 158.93 153.189 158.33 153.916 158.33C154.642 158.33 155.239 158.93 155.239 159.66Z" fill="#454545"/>
<defs>
<clipPath id="clip0_851_24717">
<rect width="117.54" height="229.613" fill="white" transform="translate(19 32.2415)"/>
</clipPath>
<clipPath id="clip1_851_24717">
<path d="M48.1572 107.868H124.695V143.403H48.1572V107.868Z" fill="white"/>
</clipPath>
</defs>
</svg>
