<svg width="439" height="295" viewBox="0 0 439 295" fill="none" xmlns="http://www.w3.org/2000/svg">
<g clip-path="url(#clip0_926_29194)">
<path d="M208.788 167.59C208.788 167.59 138.537 98.1279 137.109 83.6767C136.103 73.5839 145.252 69.1257 154.983 77.5882C164.69 86.0307 219.397 137.877 219.397 137.877L208.788 167.59Z" fill="#FCB59F"/>
<path d="M256.421 154.768C256.421 154.768 265.97 145.916 261.726 135.044C257.483 124.172 254.72 79.1703 272.351 83.0814C272.351 83.0814 274.962 83.1735 275.745 85.6231C276.506 88.0749 279.315 110.397 281.808 114.351C284.301 118.305 290.719 130.007 291.489 132.548C292.26 135.088 304.486 173.015 301.432 191.704C298.381 210.415 294.137 232.918 296.625 239.223C299.091 245.531 325.879 288.017 340.31 306.782C354.741 325.546 350.098 328.639 350.098 328.639C350.098 328.639 277.495 372.883 268.665 349.294C259.7 325.25 250.048 307.565 219.73 294.359C189.412 281.153 167.131 246.893 167.319 228.227C167.506 209.562 152.915 194.238 152.915 194.238C152.915 194.238 139.412 194.831 134.695 187.164C130 179.495 129.469 164.036 139.948 159.297C139.948 159.297 130.931 152.852 131.249 143.104C131.568 133.357 137.51 125.118 154.831 125.994C172.15 126.848 256.421 154.768 256.421 154.768Z" fill="#FCB59F"/>
<path d="M218.291 293.138C218.291 293.138 185.073 253.401 196.586 251.456C261.137 263.473 252.37 231.698 252.37 231.698L170.683 243.522C170.703 243.498 182.058 276.411 218.291 293.138Z" fill="#EC9776"/>
<path d="M175.506 17.861L247.03 22.5753C257.267 23.2532 265.048 32.1394 264.383 42.4228L252.321 229.926C251.656 240.21 242.818 248.018 232.581 247.34L161.057 242.626C150.82 241.948 143.039 233.062 143.704 222.778L155.766 35.2748C156.428 24.9692 165.269 17.1832 175.506 17.861Z" fill="#989898"/>
<path d="M155.757 35.4097C156.252 27.8259 162.743 22.0901 170.293 22.5948L180.127 23.2467C181.358 23.3224 182.29 24.3898 182.216 25.6268L181.991 29.0922C181.849 31.4092 183.589 33.4225 185.918 33.5651L224.042 36.0727C226.349 36.2176 228.351 34.4711 228.491 32.132L228.716 28.6666C228.79 27.4296 229.852 26.4943 231.083 26.57L240.917 27.2219C248.467 27.7266 254.183 34.2525 253.688 41.8362L241.643 229.07C241.148 236.654 234.657 242.389 227.108 241.885L156.481 237.236C148.931 236.731 143.215 230.205 143.711 222.621L155.757 35.4097Z" fill="black"/>
<path d="M241.17 228.781C240.65 236.333 234.064 242.042 226.473 241.519L155.309 236.619C147.719 236.096 141.977 229.539 142.497 221.987L155.361 35.1673C155.88 27.6154 162.467 21.9071 170.057 22.4297L179.965 23.1119C181.213 23.1978 182.138 24.2545 182.053 25.4963L181.815 28.9428C181.657 31.2489 183.41 33.2793 185.754 33.4407L224.163 36.0853C226.481 36.2449 228.52 34.5011 228.681 32.1696L228.918 28.7231C229.004 27.4814 230.065 26.5615 231.313 26.6474L241.221 27.3296C248.811 27.8522 254.553 34.4093 254.033 41.9612L241.17 228.781Z" fill="#222222"/>
<path d="M161.928 49.3885C161.906 50.8723 163.065 51.8911 164.878 52.0159C166.815 52.1493 168.098 51.2759 168.204 49.7466C168.286 48.5515 167.636 47.8295 165.986 47.3176L165.101 47.0347C164.065 46.7016 163.658 46.3321 163.698 45.7544C163.748 45.0294 164.456 44.5773 165.442 44.6452C166.428 44.713 167.068 45.2522 167.085 46.0729L168.32 46.1579C168.377 44.7449 167.26 43.6948 165.533 43.5759C163.788 43.4557 162.492 44.3397 162.395 45.75C162.317 46.8885 162.965 47.6388 164.441 48.1047L165.483 48.4325C166.524 48.7659 166.945 49.1762 166.902 49.8106C166.851 50.5413 166.073 51.0226 165.042 50.9516C163.966 50.8775 163.215 50.2909 163.18 49.4747L161.928 49.3885ZM174.444 51.434L170.525 51.1641L170.699 48.6266L174.409 48.8821L174.482 47.8285L170.772 47.5731L170.937 45.1829L174.856 45.4527L174.931 44.3596L169.743 44.0023L169.18 52.1756L174.369 52.5328L174.444 51.434ZM178.968 52.8495L179.455 45.7694L181.953 45.9414L182.028 44.8482L175.758 44.4165L175.683 45.5097L178.187 45.682L177.699 52.7621L178.968 52.8495Z" fill="white"/>
<path d="M205.655 55.4733L206.8 55.5521L207.319 48.0076L206.164 47.928L204.08 49.2029L204.001 50.3531L206.068 49.0876L206.094 49.0894L205.655 55.4733ZM209.087 57.2698L209.989 54.5582L208.849 54.4797L208.188 57.2079L209.087 57.2698ZM214 56.195C215.6 56.3051 216.831 55.2867 216.935 53.7757C217.033 52.3431 216.04 51.2083 214.602 51.1093C213.661 51.0445 212.827 51.4809 212.447 52.1902L212.426 52.1888C212.562 50.2912 213.327 49.2617 214.513 49.3434C215.204 49.391 215.741 49.8324 215.881 50.462L217.052 50.5426C216.905 49.3242 215.925 48.453 214.592 48.3612C212.704 48.2313 211.472 49.6488 211.298 52.1741C211.237 53.0577 211.343 53.8109 211.61 54.4335C212.031 55.4868 212.886 56.1183 214 56.195ZM214.057 55.2061C213.158 55.1442 212.512 54.3852 212.573 53.4912C212.635 52.5971 213.365 51.9855 214.285 52.0489C215.211 52.1126 215.829 52.8171 215.766 53.732C215.705 54.6156 214.946 55.2673 214.057 55.2061ZM220.473 56.6354C222.146 56.7506 223.389 55.9327 223.478 54.6517C223.543 53.6949 222.922 52.8747 221.933 52.5964L221.935 52.5703C222.788 52.3874 223.366 51.7758 223.421 50.9758C223.5 49.8204 222.497 48.9108 221.012 48.8085C219.532 48.7066 218.402 49.4746 218.323 50.6196C218.268 51.43 218.761 52.1206 219.582 52.4083L219.58 52.4344C218.567 52.5748 217.834 53.2966 217.768 54.2586C217.68 55.5343 218.789 56.5195 220.473 56.6354ZM220.538 55.6943C219.576 55.628 218.929 55.0267 218.982 54.2581C219.035 53.4843 219.758 52.972 220.72 53.0383C221.682 53.1045 222.324 53.7055 222.27 54.4845C222.217 55.2531 221.5 55.7605 220.538 55.6943ZM220.785 52.0972C219.964 52.0406 219.428 51.5099 219.475 50.825C219.523 50.1349 220.127 49.6827 220.948 49.7392C221.763 49.7953 222.304 50.3264 222.257 51.0165C222.21 51.7015 221.596 52.153 220.785 52.0972ZM227.092 57.0911C228.765 57.2063 230.008 56.3884 230.097 55.1075C230.163 54.1507 229.541 53.3304 228.552 53.0522L228.554 53.026C229.407 52.8431 229.985 52.2315 230.04 51.4316C230.119 50.2761 229.116 49.3665 227.631 49.2643C226.151 49.1624 225.021 49.9304 224.943 51.0754C224.887 51.8858 225.38 52.5764 226.201 52.864L226.199 52.8902C225.186 53.0306 224.454 53.7523 224.387 54.7144C224.299 55.9901 225.408 56.9752 227.092 57.0911ZM227.157 56.15C226.195 56.0838 225.548 55.4824 225.601 54.7139C225.654 53.9401 226.378 53.4278 227.34 53.494C228.302 53.5603 228.943 54.1613 228.889 54.9403C228.837 55.7089 228.119 56.2163 227.157 56.15ZM227.404 52.5529C226.583 52.4964 226.047 51.9657 226.095 51.2808C226.142 50.5906 226.746 50.1384 227.567 50.1949C228.382 50.2511 228.924 50.7821 228.876 51.4723C228.829 52.1572 228.215 52.6087 227.404 52.5529ZM231.678 57.3228C232.059 57.3491 232.383 57.0668 232.41 56.6851C232.436 56.3034 232.154 55.9793 231.772 55.953C231.39 55.9267 231.066 56.2091 231.04 56.5908C231.014 56.9724 231.296 57.2966 231.678 57.3228ZM236.351 57.7287C238.16 57.8532 239.326 56.4049 239.492 53.9998C239.657 51.6104 238.694 50.026 236.89 49.9018C235.092 49.778 233.905 51.2197 233.74 53.6091C233.575 56.0141 234.542 57.6041 236.351 57.7287ZM236.419 56.7458C235.342 56.6716 234.802 55.5102 234.927 53.6908C235.051 51.8974 235.756 50.8113 236.823 50.8847C237.889 50.9582 238.434 52.1251 238.31 53.9237C238.184 55.7484 237.496 56.8199 236.419 56.7458ZM243.023 58.188C244.832 58.3126 245.998 56.8642 246.163 54.4592C246.328 52.0698 245.365 50.4854 243.562 50.3612C241.763 50.2373 240.576 51.679 240.412 54.0684C240.246 56.4735 241.214 58.0635 243.023 58.188ZM243.09 57.2051C242.013 57.1309 241.473 55.9696 241.599 54.1501C241.722 52.3568 242.427 51.2707 243.494 51.3441C244.561 51.4175 245.105 52.5845 244.981 54.383C244.856 56.2077 244.167 57.2793 243.09 57.2051Z" fill="#7799F2"/>
<path d="M210.881 62.0939L211.979 62.1695L212.014 61.6597L210.916 61.5841L210.996 60.4287L210.478 60.393L210.399 61.5485L209.301 61.4729L209.266 61.9827L210.364 62.0583L210.282 63.2373L210.8 63.2729L210.881 62.0939ZM213.86 63.6175C214.764 63.6798 215.347 62.9556 215.43 61.7531C215.513 60.5584 215.031 59.7662 214.129 59.7041C213.23 59.6422 212.637 60.363 212.554 61.5577C212.472 62.7602 212.955 63.5553 213.86 63.6175ZM213.894 63.1261C213.355 63.089 213.085 62.5083 213.148 61.5986C213.21 60.7019 213.562 60.1588 214.096 60.1956C214.629 60.2323 214.901 60.8158 214.839 61.715C214.776 62.6274 214.432 63.1631 213.894 63.1261ZM216.119 63.731C216.31 63.7442 216.472 63.603 216.485 63.4122C216.498 63.2213 216.357 63.0593 216.166 63.0461C215.975 63.033 215.813 63.1742 215.8 63.365C215.787 63.5558 215.928 63.7179 216.119 63.731ZM217.153 63.7734L217.768 63.8157L219.632 60.6634L219.667 60.1563L217.099 59.9795L217.065 60.4736L219.055 60.6106L219.054 60.6236L217.153 63.7734ZM221.248 64.1262C222.152 64.1885 222.735 63.4643 222.818 62.2618C222.9 61.0671 222.419 60.2749 221.517 60.2128C220.618 60.1508 220.024 60.8717 219.942 62.0664C219.859 63.2689 220.343 64.0639 221.248 64.1262ZM221.281 63.6347C220.743 63.5977 220.473 63.017 220.536 62.1072C220.597 61.2106 220.95 60.6675 221.483 60.7042C222.016 60.741 222.289 61.3244 222.227 62.2237C222.164 63.1361 221.82 63.6718 221.281 63.6347ZM224.599 62.7968C224.536 63.7065 224.726 64.4602 225.197 65.1362L225.693 65.1704C225.347 64.7053 225.12 63.6942 225.179 62.8341C225.238 61.974 225.602 61.0062 226.009 60.5929L225.512 60.5587C224.953 61.1611 224.662 61.8818 224.599 62.7968ZM227.852 63.2624L228.95 63.338L228.986 62.8283L227.888 62.7527L227.967 61.5972L227.45 61.5616L227.37 62.717L226.272 62.6414L226.237 63.1512L227.335 63.2268L227.254 64.4058L227.771 64.4414L227.852 63.2624ZM230.831 64.7861C231.736 64.8483 232.319 64.1242 232.402 62.9216C232.484 61.727 232.003 60.9347 231.101 60.8726C230.201 60.8107 229.608 61.5316 229.526 62.7263C229.443 63.9288 229.927 64.7238 230.831 64.7861ZM230.865 64.2946C230.327 64.2575 230.057 63.6768 230.119 62.7671C230.181 61.8704 230.534 61.3274 231.067 61.3641C231.6 61.4008 231.872 61.9843 231.811 62.8836C231.748 63.7959 231.404 64.3317 230.865 64.2946ZM233.09 64.8996C233.281 64.9127 233.443 64.7715 233.456 64.5807C233.469 64.3899 233.328 64.2278 233.137 64.2147C232.946 64.2015 232.784 64.3427 232.771 64.5335C232.758 64.7244 232.899 64.8864 233.09 64.8996ZM235.427 65.1025C236.331 65.1648 236.914 64.4406 236.997 63.2381C237.08 62.0434 236.598 61.2512 235.696 61.1891C234.797 61.1271 234.204 61.848 234.122 63.0427C234.039 64.2452 234.522 65.0402 235.427 65.1025ZM235.461 64.611C234.922 64.574 234.652 63.9933 234.715 63.0835C234.777 62.1869 235.129 61.6438 235.663 61.6805C236.196 61.7173 236.468 62.3007 236.406 63.2C236.343 64.1124 235.999 64.6481 235.461 64.611ZM239.186 65.2904L239.748 65.3291L239.799 64.584L240.317 64.6197L240.351 64.1282L239.833 64.0926L240.008 61.5568L239.161 61.4985C238.226 62.6687 237.751 63.3162 237.385 63.903L237.35 64.4154L239.237 64.5453L239.186 65.2904ZM237.93 63.9563C238.268 63.4307 238.691 62.8687 239.409 61.97L239.42 61.9707L239.276 64.0621L237.929 63.9694L237.93 63.9563ZM242.382 62.6212C242.422 62.0409 242.126 61.6475 241.632 61.6135C241.135 61.5793 240.788 61.9284 240.748 62.5087C240.708 63.0891 241.004 63.4824 241.501 63.5166C241.995 63.5507 242.342 63.2016 242.382 62.6212ZM241.526 63.148C241.317 63.1336 241.202 62.9024 241.227 62.5391C241.252 62.1783 241.398 61.9651 241.607 61.9795C241.813 61.9937 241.929 62.2249 241.904 62.5857C241.879 62.9491 241.733 63.1623 241.526 63.148ZM241.345 65.4391L242.807 63.7037L244.36 61.8565L243.845 61.8211L242.424 63.5092L240.827 65.4034L241.345 65.4391ZM244.44 64.7407C244.48 64.1578 244.187 63.7646 243.69 63.7304C243.193 63.6962 242.849 64.0455 242.809 64.6284C242.769 65.2088 243.062 65.6019 243.559 65.6361C244.056 65.6703 244.4 65.3211 244.44 64.7407ZM243.584 65.2649C243.375 65.2505 243.262 65.0221 243.287 64.6587C243.312 64.2954 243.456 64.0846 243.665 64.099C243.874 64.1134 243.987 64.3418 243.962 64.7052C243.937 65.0686 243.794 65.2793 243.584 65.2649ZM245.957 64.2673C246.036 63.1197 245.71 62.4249 245.359 61.9253L244.862 61.8911C245.1 62.2095 245.454 63.0954 245.376 64.2247C245.299 65.3541 244.829 66.1833 244.547 66.4685L245.044 66.5027C245.461 66.0534 245.878 65.4097 245.957 64.2673Z" fill="#7799F2"/>
<rect x="161.033" y="56.686" width="7.13752" height="2.67657" rx="1.33829" transform="rotate(3.9388 161.033 56.686)" fill="#7799F2"/>
<rect x="173.649" y="68.2864" width="11.5985" height="2.67657" rx="1.33829" transform="rotate(3.9388 173.649 68.2864)" fill="#7799F2"/>
<rect x="195.011" y="69.7571" width="11.5985" height="2.67657" rx="1.33829" transform="rotate(3.9388 195.011 69.7571)" fill="#7799F2"/>
<rect x="173.22" y="74.5168" width="11.5985" height="2.67657" rx="1.33829" transform="rotate(3.9388 173.22 74.5168)" fill="#FC0317"/>
<rect x="194.582" y="75.9878" width="11.5985" height="2.67657" rx="1.33829" transform="rotate(3.9388 194.582 75.9878)" fill="#FC0317"/>
<rect x="160.298" y="67.3669" width="7.13752" height="2.67657" rx="1.33829" transform="rotate(3.9388 160.298 67.3669)" fill="#C8C8C8"/>
<rect x="202.479" y="156.124" width="11.5985" height="2.67656" rx="1.33828" transform="rotate(3.9388 202.479 156.124)" fill="#7799F2"/>
<rect x="228.291" y="157.902" width="11.5985" height="2.67656" rx="1.33828" transform="rotate(3.9388 228.291 157.902)" fill="#7799F2"/>
<rect x="154.414" y="152.815" width="18.736" height="2.67656" rx="1.33828" transform="rotate(3.9388 154.414 152.815)" fill="#C8C8C8"/>
<rect x="197.599" y="162.049" width="16.0594" height="2.67658" rx="1.33829" transform="rotate(3.9388 197.599 162.049)" fill="#7799F2"/>
<rect x="227.862" y="164.132" width="11.5985" height="2.67658" rx="1.33829" transform="rotate(3.9388 227.862 164.132)" fill="#7799F2"/>
<rect x="153.985" y="159.045" width="23.1969" height="2.67658" rx="1.33829" transform="rotate(3.9388 153.985 159.045)" fill="#C8C8C8"/>
<rect x="224.431" y="213.977" width="11.5985" height="2.67656" rx="1.33828" transform="rotate(3.9388 224.431 213.977)" fill="#7799F2"/>
<rect x="150.554" y="208.89" width="23.1969" height="2.67656" rx="1.33828" transform="rotate(3.9388 150.554 208.89)" fill="#C8C8C8"/>
<rect x="211.923" y="70.9216" width="7.13752" height="2.67657" rx="1.33829" transform="rotate(3.9388 211.923 70.9216)" fill="#C8C8C8"/>
<rect x="232.395" y="72.3311" width="13.3828" height="2.67657" rx="1.33829" transform="rotate(3.9388 232.395 72.3311)" fill="white"/>
<rect x="167.211" y="135.81" width="5.35314" height="0.89219" rx="0.446095" transform="rotate(93.9388 167.211 135.81)" fill="#9EB8F9"/>
<rect x="169.175" y="133.262" width="8.02971" height="0.89219" rx="0.446095" transform="rotate(93.9388 169.175 133.262)" fill="#9EB8F9"/>
<rect x="170.833" y="135.165" width="6.24533" height="0.892188" rx="0.446094" transform="rotate(93.9388 170.833 135.165)" fill="#9EB8F9"/>
<rect x="177.953" y="135.656" width="6.24533" height="0.892192" rx="0.446096" transform="rotate(93.9388 177.953 135.656)" fill="#9EB8F9"/>
<rect x="172.858" y="131.727" width="9.81409" height="0.89219" rx="0.446095" transform="rotate(93.9388 172.858 131.727)" fill="#9EB8F9"/>
<rect x="174.148" y="138.97" width="2.67658" height="0.89219" rx="0.446095" transform="rotate(93.9388 174.148 138.97)" fill="#9EB8F9"/>
<rect x="176.112" y="136.423" width="5.35314" height="0.89219" rx="0.446095" transform="rotate(93.9388 176.112 136.423)" fill="#9EB8F9"/>
<rect width="5.35314" height="0.89219" rx="0.446095" transform="matrix(-0.0686908 0.997638 0.997638 0.0686908 189.463 137.342)" fill="#9EB8F9"/>
<rect width="8.02971" height="0.89219" rx="0.446095" transform="matrix(-0.0686908 0.997638 0.997638 0.0686908 187.867 134.55)" fill="#9EB8F9"/>
<rect width="6.24533" height="0.89219" rx="0.446095" transform="matrix(-0.0686908 0.997638 0.997638 0.0686908 185.964 136.207)" fill="#9EB8F9"/>
<rect width="6.24533" height="0.89219" rx="0.446095" transform="matrix(-0.0686908 0.997638 0.997638 0.0686908 178.844 135.717)" fill="#9EB8F9"/>
<rect width="9.81409" height="0.89219" rx="0.446095" transform="matrix(-0.0686908 0.997638 0.997638 0.0686908 184.429 132.524)" fill="#9EB8F9"/>
<rect width="2.67658" height="0.89219" rx="0.446095" transform="matrix(-0.0686908 0.997638 0.997638 0.0686908 182.159 139.522)" fill="#9EB8F9"/>
<rect width="5.35314" height="0.89219" rx="0.446095" transform="matrix(-0.0686908 0.997638 0.997638 0.0686908 180.562 136.729)" fill="#9EB8F9"/>
<rect x="192.134" y="137.526" width="5.35314" height="0.89219" rx="0.446095" transform="rotate(93.9388 192.134 137.526)" fill="#9EB8F9"/>
<rect x="194.098" y="134.978" width="8.02971" height="0.89219" rx="0.446095" transform="rotate(93.9388 194.098 134.978)" fill="#9EB8F9"/>
<rect x="195.755" y="136.881" width="6.24533" height="0.89219" rx="0.446095" transform="rotate(93.9388 195.755 136.881)" fill="#9EB8F9"/>
<rect x="202.876" y="137.371" width="6.24533" height="0.89219" rx="0.446095" transform="rotate(93.9388 202.876 137.371)" fill="#9EB8F9"/>
<rect x="197.781" y="133.443" width="9.81409" height="0.89219" rx="0.446095" transform="rotate(93.9388 197.781 133.443)" fill="#9EB8F9"/>
<rect x="199.07" y="140.687" width="2.67658" height="0.89219" rx="0.446095" transform="rotate(93.9388 199.07 140.687)" fill="#9EB8F9"/>
<rect x="201.035" y="138.139" width="5.35314" height="0.89219" rx="0.446095" transform="rotate(93.9388 201.035 138.139)" fill="#9EB8F9"/>
<rect x="215.337" y="138.229" width="6.24533" height="0.89219" rx="0.446095" transform="rotate(93.9388 215.337 138.229)" fill="#9EB8F9"/>
<rect x="210.242" y="134.301" width="9.81409" height="0.89219" rx="0.446095" transform="rotate(93.9388 210.242 134.301)" fill="#9EB8F9"/>
<rect x="211.532" y="141.544" width="2.67658" height="0.89219" rx="0.446095" transform="rotate(93.9388 211.532 141.544)" fill="#9EB8F9"/>
<rect x="213.496" y="138.997" width="5.35314" height="0.89219" rx="0.446095" transform="rotate(93.9388 213.496 138.997)" fill="#9EB8F9"/>
<rect width="5.35314" height="0.89219" rx="0.446095" transform="matrix(-0.0686908 0.997638 0.997638 0.0686908 226.847 139.916)" fill="#9EB8F9"/>
<rect width="8.02971" height="0.89219" rx="0.446095" transform="matrix(-0.0686908 0.997638 0.997638 0.0686908 225.25 137.123)" fill="#9EB8F9"/>
<rect width="6.24533" height="0.89219" rx="0.446095" transform="matrix(-0.0686908 0.997638 0.997638 0.0686908 223.348 138.781)" fill="#9EB8F9"/>
<rect width="6.24533" height="0.89219" rx="0.446095" transform="matrix(-0.0686908 0.997638 0.997638 0.0686908 216.227 138.29)" fill="#9EB8F9"/>
<rect width="9.81409" height="0.89219" rx="0.446095" transform="matrix(-0.0686908 0.997638 0.997638 0.0686908 221.813 135.098)" fill="#9EB8F9"/>
<rect width="2.67658" height="0.89219" rx="0.446095" transform="matrix(-0.0686908 0.997638 0.997638 0.0686908 219.542 142.096)" fill="#9EB8F9"/>
<rect width="5.35314" height="0.89219" rx="0.446095" transform="matrix(-0.0686908 0.997638 0.997638 0.0686908 217.946 139.303)" fill="#9EB8F9"/>
<rect x="229.517" y="140.1" width="5.35314" height="0.89219" rx="0.446095" transform="rotate(93.9388 229.517 140.1)" fill="#9EB8F9"/>
<rect x="231.481" y="137.552" width="8.02971" height="0.89219" rx="0.446095" transform="rotate(93.9388 231.481 137.552)" fill="#9EB8F9"/>
<rect x="233.138" y="139.455" width="6.24533" height="0.89219" rx="0.446095" transform="rotate(93.9388 233.138 139.455)" fill="#9EB8F9"/>
<rect x="240.259" y="139.945" width="6.24533" height="0.89219" rx="0.446095" transform="rotate(93.9388 240.259 139.945)" fill="#9EB8F9"/>
<rect x="235.164" y="136.017" width="9.81409" height="0.89219" rx="0.446095" transform="rotate(93.9388 235.164 136.017)" fill="#9EB8F9"/>
<rect x="236.454" y="143.26" width="2.67658" height="0.892183" rx="0.446092" transform="rotate(93.9388 236.454 143.26)" fill="#9EB8F9"/>
<rect x="238.418" y="140.713" width="5.35314" height="0.89219" rx="0.446095" transform="rotate(93.9388 238.418 140.713)" fill="#9EB8F9"/>
<rect x="159.869" y="73.5977" width="7.13752" height="2.67657" rx="1.33829" transform="rotate(3.9388 159.869 73.5977)" fill="#C8C8C8"/>
<rect x="158.71" y="90.6826" width="7.15537" height="1.78884" rx="0.894422" transform="rotate(3.9388 158.71 90.6826)" fill="#C8C8C8"/>
<rect x="158.268" y="97.1072" width="7.15537" height="1.78884" rx="0.894422" transform="rotate(3.9388 158.268 97.1072)" fill="#C8C8C8"/>
<rect x="157.826" y="103.532" width="7.15537" height="1.78884" rx="0.894422" transform="rotate(3.9388 157.826 103.532)" fill="#C8C8C8"/>
<rect x="157.383" y="109.957" width="7.15537" height="1.78884" rx="0.894422" transform="rotate(3.9388 157.383 109.957)" fill="#C8C8C8"/>
<rect x="156.941" y="116.381" width="7.15537" height="1.78884" rx="0.894422" transform="rotate(3.9388 156.941 116.381)" fill="#C8C8C8"/>
<rect x="156.499" y="122.806" width="7.15537" height="1.78884" rx="0.894422" transform="rotate(3.9388 156.499 122.806)" fill="#C8C8C8"/>
<rect x="211.494" y="77.1521" width="7.13752" height="2.67657" rx="1.33829" transform="rotate(3.9388 211.494 77.1521)" fill="#C8C8C8"/>
<rect x="226.625" y="78.1941" width="18.736" height="2.67657" rx="1.33829" transform="rotate(3.9388 226.625 78.1941)" fill="white"/>
<rect x="169.934" y="57.2988" width="7.13752" height="2.67657" rx="1.33829" transform="rotate(3.9388 169.934 57.2988)" fill="#FFFF13"/>
<rect x="178.835" y="57.9116" width="7.13752" height="2.67657" rx="1.33829" transform="rotate(3.9388 178.835 57.9116)" fill="#FC0317"/>
<g clip-path="url(#clip1_926_29194)">
<path d="M167.613 116.98L169.399 117.103L170.507 117.179L171.615 117.256L172.658 117.328L174.679 117.467L176.288 109.312L177.331 109.384L177.741 117.82L179.006 113.7L180.25 113.786L181.346 113.861L182.859 109.608L183.747 109.669L184.902 109.749L186.76 103.199L187.498 107.695L188.914 103.348L189.584 107.838L190.869 103.482L191.502 110.424L192.676 110.505L194.267 118.958L196.933 119.141L198.879 112.377L199.419 115.44L201.196 115.562L202.339 112.615L203.151 115.697L204.244 115.772L205.669 112.844L206.912 112.93L207.357 112.961L209.927 113.138L211.035 113.214L211.799 113.267" stroke="white" stroke-width="0.894422" stroke-linecap="round"/>
</g>
<path d="M166.995 125.958L166.103 125.896L166.042 126.789L166.934 126.85L166.995 125.958ZM241.824 130.214L167.057 125.066L166.934 126.85L241.701 131.998L241.824 130.214ZM167.888 126.019L170.278 91.3061L168.493 91.1832L166.103 125.896L167.888 126.019Z" fill="#F8F8F8" mask="url(#path-76-inside-1_926_29194)"/>
<line x1="147.717" y1="146.183" x2="246.763" y2="153.003" stroke="#3C3C3C" stroke-width="0.447211"/>
<line x1="145.735" y1="174.96" x2="244.782" y2="181.78" stroke="#777777" stroke-width="5.36653"/>
<line x1="144.568" y1="191.914" x2="243.614" y2="198.734" stroke="#777777" stroke-width="3.57769"/>
<rect x="226.208" y="188.164" width="11.5985" height="2.67658" rx="1.33829" transform="rotate(3.9388 226.208 188.164)" fill="#FC0317"/>
<rect x="152.331" y="183.078" width="23.1969" height="2.67658" rx="1.33829" transform="rotate(3.9388 152.331 183.078)" fill="#C8C8C8"/>
<rect x="221.483" y="204.831" width="15.1672" height="2.67656" rx="1.33828" transform="rotate(3.9388 221.483 204.831)" fill="#FC0317"/>
<rect x="151.166" y="199.989" width="16.9516" height="2.67656" rx="1.33828" transform="rotate(3.9388 151.166 199.989)" fill="#C8C8C8"/>
<mask id="mask0_926_29194" style="mask-type:alpha" maskUnits="userSpaceOnUse" x="142" y="22" width="113" height="220">
<path d="M241.17 228.781C240.65 236.333 234.064 242.041 226.474 241.519L155.309 236.619C147.719 236.096 141.977 229.539 142.497 221.987L155.361 35.167C155.881 27.6152 162.467 21.9068 170.057 22.4294L179.965 23.1116C181.213 23.1976 182.138 24.2543 182.053 25.496L181.815 28.9425C181.657 31.2486 183.411 33.2791 185.754 33.4404L224.163 36.085C226.481 36.2446 228.52 34.5008 228.681 32.1694L228.918 28.7229C229.004 27.4812 230.065 26.5612 231.313 26.6471L241.221 27.3293C248.811 27.852 254.553 34.4091 254.033 41.961L241.17 228.781Z" fill="black"/>
</mask>
<g mask="url(#mask0_926_29194)">
<line x1="141.957" y1="229.837" x2="241.003" y2="236.657" stroke="#525252" stroke-width="13.4163"/>
</g>
<path d="M150.434 34.9237L138.373 222.427C137.708 232.711 145.489 241.597 155.726 242.275L227.25 246.989C237.487 247.667 246.325 239.859 246.99 229.575L259.052 42.0718C259.717 31.7883 251.936 22.9021 241.699 22.2242L170.175 17.51C159.916 16.8343 151.075 24.6204 150.434 34.9237ZM155.757 35.4095C156.252 27.8258 162.743 22.0899 170.293 22.5946L180.127 23.2465C181.358 23.3222 182.29 24.3896 182.216 25.6266L181.991 29.0921C181.849 31.409 183.589 33.4223 185.918 33.565L224.042 36.0725C226.349 36.2174 228.351 34.4709 228.491 32.1319L228.716 28.6664C228.79 27.4294 229.852 26.4941 231.083 26.5698L240.917 27.2217C248.467 27.7264 254.183 34.2524 253.688 41.8361L241.643 229.07C241.148 236.653 234.657 242.389 227.108 241.885L156.481 237.235C148.931 236.731 143.215 230.205 143.711 222.621L155.757 35.4095Z" fill="#071A2E"/>
<path d="M150.434 34.9237L138.373 222.427C137.708 232.711 145.489 241.597 155.726 242.275L227.25 246.989C237.487 247.667 246.325 239.859 246.99 229.575L259.052 42.0718C259.717 31.7883 251.936 22.9021 241.699 22.2242L170.175 17.51C159.916 16.8343 151.075 24.6204 150.434 34.9237ZM155.757 35.4095C156.252 27.8258 162.743 22.0899 170.293 22.5946L180.127 23.2465C181.358 23.3222 182.29 24.3896 182.216 25.6266L181.991 29.0921C181.849 31.409 183.589 33.4223 185.918 33.565L224.042 36.0725C226.349 36.2174 228.351 34.4709 228.491 32.1319L228.716 28.6664C228.79 27.4294 229.852 26.4941 231.083 26.5698L240.917 27.2217C248.467 27.7264 254.183 34.2524 253.688 41.8361L241.643 229.07C241.148 236.653 234.657 242.389 227.108 241.885L156.481 237.235C148.931 236.731 143.215 230.205 143.711 222.621L155.757 35.4095Z" fill="#071A2E"/>
<path d="M200.438 30.045L212.458 30.5689C213.087 30.6029 213.606 30.1126 213.639 29.481L213.645 29.1666C213.678 28.535 213.189 28.0131 212.56 27.9791L200.54 27.4552C199.911 27.4213 199.392 27.9115 199.359 28.5431L199.353 28.8575C199.345 29.5084 199.834 30.0304 200.438 30.045Z" fill="#7F7F7F"/>
<path d="M195.616 29.8365L195.929 29.8425C196.558 29.8764 197.077 29.3862 197.11 28.7546L197.116 28.4402C197.149 27.8086 196.66 27.2866 196.031 27.2527L195.718 27.2467C195.09 27.2128 194.571 27.703 194.537 28.3346L194.532 28.649C194.521 29.2779 195.012 29.8219 195.616 29.8365Z" fill="#7F7F7F"/>
<path d="M144.535 134.38L144.785 128.013C144.785 128.013 133.343 124.45 125.146 135.318C116.95 146.185 126.675 159.137 130.612 158.736C134.527 158.337 127.106 166.01 127.106 166.01C127.106 166.01 117.989 177.545 128.977 189.22C139.965 200.894 148.202 191.304 148.202 191.304C148.202 191.304 156.656 178.112 147.025 169.172C137.394 160.232 147.009 155.341 147.009 155.341C147.009 155.341 153.852 150.6 148.76 138.568C143.644 126.516 144.535 134.38 144.535 134.38Z" fill="#FCB59F"/>
<path d="M262.282 87.6528C262.282 87.6528 261.424 122.195 269.185 139.166C276.923 156.139 256.428 167.958 256.428 167.958L257.445 153.279C257.445 153.279 264.086 149.457 260.234 135.649C256.495 122.275 254.751 110.411 262.282 87.6528Z" fill="#EC9776"/>
<path d="M377.011 58.744C377.438 58.744 377.758 58.8827 377.971 59.16C378.206 59.416 378.323 59.768 378.323 60.216C378.323 60.7067 378.195 61.2613 377.939 61.88C377.192 62.5627 376.35 63.4693 375.411 64.6C374.472 65.7307 373.363 67.1387 372.083 68.824C373.256 70.744 374.206 72.1947 374.931 73.176C375.656 74.136 376.35 74.7973 377.011 75.16C377.288 75.3093 377.619 75.4373 378.003 75.544C378.494 75.6933 378.856 75.8427 379.091 75.992C379.326 76.1413 379.443 76.3653 379.443 76.664C379.443 77.2613 379.166 77.7093 378.611 78.008C378.056 78.2853 377.384 78.424 376.595 78.424C375.571 78.424 374.558 77.8587 373.555 76.728C372.574 75.5973 371.39 73.912 370.003 71.672C368.659 73.4427 367.539 74.8827 366.643 75.992C365.747 77.08 364.936 77.9653 364.211 78.648C364.062 78.776 363.848 78.8827 363.571 78.968C363.294 79.032 363.059 79.064 362.867 79.064C362.398 79.064 361.992 78.872 361.651 78.488C361.331 78.104 361.16 77.7093 361.139 77.304C361.139 77.24 361.256 77.0267 361.491 76.664C361.726 76.3013 362.088 75.8853 362.579 75.416C363.112 75.0107 363.806 74.2853 364.659 73.24C365.534 72.1947 366.707 70.712 368.179 68.792L367.251 67.32C366.44 66.04 365.843 65.1227 365.459 64.568C365.075 64.0133 364.712 63.5973 364.371 63.32C364.03 63.0213 363.667 62.872 363.283 62.872C363.155 62.872 362.952 62.9147 362.675 63C362.419 63.064 362.206 63.096 362.035 63.096C361.8 63.096 361.587 63.0533 361.395 62.968C360.862 62.7333 360.595 62.3813 360.595 61.912C360.595 61.6987 360.638 61.5173 360.723 61.368C360.894 60.984 361.246 60.632 361.779 60.312C362.334 59.9707 363.08 59.8 364.019 59.8C364.894 59.8 365.651 60.024 366.291 60.472C366.931 60.92 367.518 61.528 368.051 62.296C368.606 63.064 369.363 64.2693 370.323 65.912C372.435 63.0533 373.928 61.1333 374.803 60.152C375.315 59.5547 375.72 59.1707 376.019 59C376.318 58.8293 376.648 58.744 377.011 58.744ZM382.601 77.496C382.601 76.792 382.643 76.0133 382.729 75.16C382.814 74.1787 382.857 72.9413 382.857 71.448C382.857 68.7173 382.739 66.0827 382.505 63.544C382.377 61.9653 382.313 60.8453 382.313 60.184C382.313 59.736 382.537 59.3627 382.985 59.064C383.433 58.744 383.891 58.584 384.361 58.584C384.659 58.584 385.022 58.6053 385.449 58.648C385.875 58.6907 386.185 58.712 386.377 58.712C391.177 58.712 394.707 60.0027 396.969 62.584C398.398 64.248 399.113 66.456 399.113 69.208C399.113 70.36 398.899 71.5227 398.473 72.696C398.067 73.848 397.481 74.7867 396.713 75.512C395.881 76.3227 395.091 76.9733 394.345 77.464C393.619 77.9333 392.627 78.328 391.369 78.648C390.131 78.968 388.542 79.128 386.601 79.128C385.363 79.128 384.382 78.9893 383.657 78.712C382.953 78.4347 382.601 78.0293 382.601 77.496ZM387.817 76.216C389.246 76.216 390.558 75.96 391.753 75.448C392.947 74.9147 393.907 74.1253 394.633 73.08C395.358 72.0133 395.721 70.712 395.721 69.176C395.721 67.6613 395.507 66.4027 395.081 65.4C394.654 64.376 393.918 63.544 392.873 62.904C392.083 62.4133 391.113 62.0613 389.961 61.848C388.809 61.6133 387.422 61.496 385.801 61.496C385.801 61.7093 385.822 62.2 385.865 62.968C385.907 63.6933 385.929 64.3013 385.929 64.792L385.961 65.496C386.089 67.7147 386.153 69.4747 386.153 70.776C386.153 72.824 386.035 74.5947 385.801 76.088C386.313 76.1733 386.985 76.216 387.817 76.216Z" fill="#B8B8B8"/>
<path d="M52.9 44.34C53.1667 44.34 53.3667 44.4267 53.5 44.6C53.6467 44.76 53.72 44.98 53.72 45.26C53.72 45.5667 53.64 45.9133 53.48 46.3C53.0133 46.7267 52.4867 47.2933 51.9 48C51.3133 48.7067 50.62 49.5867 49.82 50.64C50.5533 51.84 51.1467 52.7467 51.6 53.36C52.0533 53.96 52.4867 54.3733 52.9 54.6C53.0733 54.6933 53.28 54.7733 53.52 54.84C53.8267 54.9333 54.0533 55.0267 54.2 55.12C54.3467 55.2133 54.42 55.3533 54.42 55.54C54.42 55.9133 54.2467 56.1933 53.9 56.38C53.5533 56.5533 53.1333 56.64 52.64 56.64C52 56.64 51.3667 56.2867 50.74 55.58C50.1267 54.8733 49.3867 53.82 48.52 52.42C47.68 53.5267 46.98 54.4267 46.42 55.12C45.86 55.8 45.3533 56.3533 44.9 56.78C44.8067 56.86 44.6733 56.9267 44.5 56.98C44.3267 57.02 44.18 57.04 44.06 57.04C43.7667 57.04 43.5133 56.92 43.3 56.68C43.1 56.44 42.9933 56.1933 42.98 55.94C42.98 55.9 43.0533 55.7667 43.2 55.54C43.3467 55.3133 43.5733 55.0533 43.88 54.76C44.2133 54.5067 44.6467 54.0533 45.18 53.4C45.7267 52.7467 46.46 51.82 47.38 50.62L46.8 49.7C46.2933 48.9 45.92 48.3267 45.68 47.98C45.44 47.6333 45.2133 47.3733 45 47.2C44.7867 47.0133 44.56 46.92 44.32 46.92C44.24 46.92 44.1133 46.9467 43.94 47C43.78 47.04 43.6467 47.06 43.54 47.06C43.3933 47.06 43.26 47.0333 43.14 46.98C42.8067 46.8333 42.64 46.6133 42.64 46.32C42.64 46.1867 42.6667 46.0733 42.72 45.98C42.8267 45.74 43.0467 45.52 43.38 45.32C43.7267 45.1067 44.1933 45 44.78 45C45.3267 45 45.8 45.14 46.2 45.42C46.6 45.7 46.9667 46.08 47.3 46.56C47.6467 47.04 48.12 47.7933 48.72 48.82C50.04 47.0333 50.9733 45.8333 51.52 45.22C51.84 44.8467 52.0933 44.6067 52.28 44.5C52.4667 44.3933 52.6733 44.34 52.9 44.34ZM66.6134 52.96C66.6134 53.7067 66.3268 54.42 65.7534 55.1C65.1934 55.7667 64.4801 56.2933 63.6134 56.68C63.2401 56.8 62.7668 56.9 62.1934 56.98C61.6201 57.0467 61.0401 57.0867 60.4534 57.1C59.3068 57.1 58.2401 56.94 57.2534 56.62C57.0801 56.58 56.8801 56.4667 56.6534 56.28C56.4268 56.0933 56.3201 55.8467 56.3334 55.54V54.86C56.3334 54.1133 56.3134 53.3933 56.2734 52.7C56.2468 51.7933 56.2334 51.1 56.2334 50.62L56.2134 48.36C56.2134 47.56 56.2401 46.7533 56.2934 45.94C56.3068 45.5267 56.4601 45.18 56.7534 44.9C57.0601 44.6067 57.4401 44.4267 57.8934 44.36C58.0668 44.3467 58.3801 44.34 58.8334 44.34L60.7534 44.36C61.6734 44.36 62.4934 44.48 63.2134 44.72C63.9334 44.96 64.5534 45.3467 65.0734 45.88C65.2468 46.08 65.3868 46.3467 65.4934 46.68C65.6001 47 65.6534 47.3133 65.6534 47.62C65.6134 48.7 64.9934 49.58 63.7934 50.26C64.7534 50.38 65.4601 50.68 65.9134 51.16C66.3801 51.64 66.6134 52.24 66.6134 52.96ZM59.0534 49.78C59.1868 49.7667 59.4001 49.76 59.6934 49.76H60.5934C60.9934 49.76 61.2734 49.7467 61.4334 49.72C62.7934 49.4133 63.4734 48.8733 63.4734 48.1C63.4734 47.9 63.4401 47.6867 63.3734 47.46C63.3201 47.2333 63.2468 47.0733 63.1534 46.98C62.8068 46.6467 62.4801 46.4333 62.1734 46.34C61.8668 46.2333 61.4134 46.18 60.8134 46.18C59.6534 46.18 58.8201 46.24 58.3134 46.36L58.3334 49.8L59.0534 49.78ZM59.9734 55.42C61.3601 55.42 62.4468 55.2467 63.2334 54.9C64.0334 54.5533 64.4334 53.8733 64.4334 52.86C64.4334 52.46 64.1401 52.1333 63.5534 51.88C62.9668 51.6133 62.3268 51.48 61.6334 51.48C60.7801 51.48 60.1801 51.5 59.8334 51.54C59.5401 51.5667 59.3401 51.58 59.2334 51.58C59.0334 51.58 58.8934 51.5733 58.8134 51.56C58.7468 51.56 58.6668 51.56 58.5734 51.56C58.4934 51.5467 58.4068 51.5467 58.3134 51.56L58.3334 52.22C58.3468 52.38 58.3668 52.82 58.3934 53.54C58.4334 54.2467 58.4401 54.7467 58.4134 55.04C58.7201 55.1733 58.9868 55.2733 59.2134 55.34C59.4401 55.3933 59.6934 55.42 59.9734 55.42Z" fill="#B8B8B8"/>
<path d="M367.331 120.512C367.331 120.048 367.435 119.648 367.643 119.312C367.867 118.96 368.195 118.784 368.627 118.784C368.995 118.784 369.323 118.856 369.611 119C369.899 119.144 370.043 119.384 370.043 119.72C370.043 120.376 370.011 121.296 369.947 122.48C369.883 123.632 369.851 124.488 369.851 125.048C369.851 125.928 369.883 127.104 369.947 128.576C370.011 129.984 370.043 131.016 370.043 131.672C370.043 132.2 370.035 132.592 370.019 132.848C370.019 133.104 369.875 133.36 369.587 133.616C369.315 133.856 368.891 133.976 368.315 133.976C368.011 133.976 367.747 133.928 367.523 133.832C367.315 133.72 367.171 133.6 367.091 133.472C366.339 132.56 365.243 131.008 363.803 128.816C362.187 126.368 360.867 124.496 359.843 123.2C359.971 124.352 360.035 125.76 360.035 127.424C360.035 128.16 360.019 129.12 359.987 130.304C359.971 131.472 359.939 132.24 359.891 132.608C359.827 133.072 359.683 133.432 359.459 133.688C359.251 133.928 358.915 134.048 358.451 134.048C358.099 134.048 357.835 133.952 357.659 133.76C357.499 133.552 357.403 133.2 357.371 132.704C357.355 132.048 357.395 131.064 357.491 129.752C357.507 129.544 357.531 129.184 357.563 128.672C357.595 128.16 357.611 127.704 357.611 127.304C357.611 126.2 357.555 124.936 357.443 123.512C357.347 121.944 357.299 120.784 357.299 120.032C357.299 119.648 357.435 119.352 357.707 119.144C357.995 118.936 358.323 118.832 358.691 118.832C359.011 118.832 359.347 118.912 359.699 119.072C361.075 120.8 362.939 123.376 365.291 126.8L367.547 130.256C367.563 130 367.571 129.64 367.571 129.176C367.571 128.36 367.555 127.48 367.523 126.536C367.491 125.592 367.467 124.952 367.451 124.616C367.371 123.064 367.331 121.696 367.331 120.512ZM379.422 128.576C378.798 128.576 378.27 128.56 377.838 128.528C377.422 128.48 376.87 128.408 376.182 128.312L376.158 130.832C376.142 131.264 376.134 131.88 376.134 132.68C376.134 133.096 376.014 133.424 375.774 133.664C375.55 133.888 375.294 134 375.006 134C374.478 134 374.086 133.936 373.83 133.808C373.574 133.664 373.446 133.416 373.446 133.064C373.446 132.6 373.486 131.944 373.566 131.096C373.742 129.272 373.83 127.4 373.83 125.48C373.83 123.688 373.774 122 373.662 120.416C373.678 120.192 373.79 119.936 373.998 119.648C374.222 119.36 374.502 119.2 374.838 119.168C375.206 119.168 375.79 119.104 376.59 118.976C377.422 118.848 378.054 118.784 378.486 118.784C379.798 118.784 380.814 118.912 381.534 119.168C382.27 119.424 383.006 119.848 383.742 120.44C384.542 121.688 384.942 122.568 384.942 123.08C384.942 124.152 384.726 125.104 384.294 125.936C383.862 126.768 383.23 127.416 382.398 127.88C381.566 128.344 380.574 128.576 379.422 128.576ZM378.87 120.824C378.358 120.824 377.91 120.856 377.526 120.92C377.158 120.968 376.71 121.056 376.182 121.184C376.246 122.656 376.278 123.728 376.278 124.4C376.278 125.088 376.254 125.664 376.206 126.128C376.894 126.272 377.438 126.368 377.838 126.416C378.238 126.448 378.686 126.464 379.182 126.464C380.366 126.464 381.198 126.16 381.678 125.552C382.174 124.928 382.422 124.208 382.422 123.392C382.422 123.152 382.35 122.856 382.206 122.504C382.062 122.152 381.934 121.92 381.822 121.808C381.39 121.424 380.966 121.168 380.55 121.04C380.15 120.896 379.59 120.824 378.87 120.824Z" fill="#B8B8B8"/>
<path d="M81.504 104.656C81.504 105.408 81.328 106.056 80.976 106.6C80.64 107.128 80.08 107.616 79.296 108.064C78.768 108.384 78.152 108.624 77.448 108.784C76.744 108.944 76.032 109.024 75.312 109.024C74.576 109.024 73.664 108.784 72.576 108.304C71.792 107.92 71.168 107.464 70.704 106.936C70.256 106.408 70.032 105.832 70.032 105.208C70.032 104.776 70.128 104.464 70.32 104.272C70.512 104.064 70.824 103.96 71.256 103.96C71.48 103.96 71.712 104.056 71.952 104.248C72.192 104.424 72.336 104.6 72.384 104.776C72.608 105.432 73 105.936 73.56 106.288C74.12 106.624 74.816 106.792 75.648 106.792C76.608 106.792 77.408 106.616 78.048 106.264C78.704 105.912 79.032 105.44 79.032 104.848C79.032 104.272 78.68 103.76 77.976 103.312C77.272 102.864 76.552 102.552 75.816 102.376C74.76 102.088 73.824 101.744 73.008 101.344C72.16 100.928 71.528 100.416 71.112 99.808C70.696 99.2 70.488 98.56 70.488 97.888C70.488 97.264 70.704 96.632 71.136 95.992C71.568 95.336 72.08 94.864 72.672 94.576C72.992 94.416 73.536 94.248 74.304 94.072C75.088 93.88 75.656 93.784 76.008 93.784C76.472 93.784 76.984 93.84 77.544 93.952C78.104 94.064 78.56 94.224 78.912 94.432C79.616 94.832 80.136 95.192 80.472 95.512C80.808 95.832 80.976 96.232 80.976 96.712C80.976 97 80.864 97.256 80.64 97.48C80.432 97.704 80.064 97.816 79.536 97.816C79.408 97.816 79.28 97.76 79.152 97.648C79.024 97.536 78.864 97.368 78.672 97.144C78.416 96.808 78.168 96.584 77.928 96.472C77.688 96.392 77.336 96.304 76.872 96.208C76.424 96.112 76.024 96.064 75.672 96.064C75.288 96.064 74.888 96.144 74.472 96.304C74.056 96.464 73.704 96.696 73.416 97C73.144 97.288 73.008 97.624 73.008 98.008C73.008 98.328 73.152 98.608 73.44 98.848C73.744 99.072 74.104 99.256 74.52 99.4C75 99.592 75.52 99.76 76.08 99.904C76.816 100.128 77.416 100.336 77.88 100.528C78.36 100.704 78.824 100.928 79.272 101.2C80.056 101.664 80.624 102.144 80.976 102.64C81.328 103.12 81.504 103.792 81.504 104.656ZM90.1326 103.576C89.5086 103.576 88.9806 103.56 88.5486 103.528C88.1326 103.48 87.5806 103.408 86.8926 103.312L86.8686 105.832C86.8526 106.264 86.8446 106.88 86.8446 107.68C86.8446 108.096 86.7246 108.424 86.4846 108.664C86.2606 108.888 86.0046 109 85.7166 109C85.1886 109 84.7966 108.936 84.5406 108.808C84.2846 108.664 84.1566 108.416 84.1566 108.064C84.1566 107.6 84.1966 106.944 84.2766 106.096C84.4526 104.272 84.5406 102.4 84.5406 100.48C84.5406 98.688 84.4846 97 84.3726 95.416C84.3886 95.192 84.5006 94.936 84.7086 94.648C84.9326 94.36 85.2126 94.2 85.5486 94.168C85.9166 94.168 86.5006 94.104 87.3006 93.976C88.1326 93.848 88.7646 93.784 89.1966 93.784C90.5086 93.784 91.5246 93.912 92.2446 94.168C92.9806 94.424 93.7166 94.848 94.4526 95.44C95.2526 96.688 95.6526 97.568 95.6526 98.08C95.6526 99.152 95.4366 100.104 95.0046 100.936C94.5726 101.768 93.9406 102.416 93.1086 102.88C92.2766 103.344 91.2846 103.576 90.1326 103.576ZM89.5806 95.824C89.0686 95.824 88.6206 95.856 88.2366 95.92C87.8686 95.968 87.4206 96.056 86.8926 96.184C86.9566 97.656 86.9886 98.728 86.9886 99.4C86.9886 100.088 86.9646 100.664 86.9166 101.128C87.6046 101.272 88.1486 101.368 88.5486 101.416C88.9486 101.448 89.3966 101.464 89.8926 101.464C91.0766 101.464 91.9086 101.16 92.3886 100.552C92.8846 99.928 93.1326 99.208 93.1326 98.392C93.1326 98.152 93.0606 97.856 92.9166 97.504C92.7726 97.152 92.6446 96.92 92.5326 96.808C92.1006 96.424 91.6766 96.168 91.2606 96.04C90.8606 95.896 90.3006 95.824 89.5806 95.824Z" fill="#B8B8B8"/>
<path d="M53.416 150.544C53.3947 150.203 53.384 149.691 53.384 149.008V147.792C53.384 146.981 53.3627 146.373 53.32 145.968C53.2773 145.627 53.256 144.741 53.256 143.312C53.256 142.8 53.4053 142.405 53.704 142.128C54.024 141.829 54.4507 141.68 54.984 141.68C55.6667 141.68 56.1253 141.829 56.36 142.128C56.5947 142.427 56.712 142.917 56.712 143.6V144.816L56.68 148.336C56.6587 149.019 56.648 150.043 56.648 151.408L56.68 154.032C56.7013 154.437 56.712 155.003 56.712 155.728C56.712 156.304 56.7333 157.125 56.776 158.192C56.8187 159.173 56.84 159.909 56.84 160.4C56.84 160.805 56.7227 161.179 56.488 161.52C56.2747 161.861 55.976 162.032 55.592 162.032C54.0987 162.032 53.352 161.531 53.352 160.528C53.352 159.973 53.3733 159.355 53.416 158.672C53.4587 158.181 53.48 157.435 53.48 156.432C53.48 155.728 53.4587 154.715 53.416 153.392C52.4133 153.477 50.6853 153.52 48.232 153.52C46.696 153.52 45.5013 153.52 44.648 153.52C43.7947 153.499 43.176 153.445 42.792 153.36L42.76 157.04C42.76 157.275 42.8133 157.904 42.92 158.928C43.0267 159.611 43.08 160.208 43.08 160.72C43.08 161.04 42.888 161.349 42.504 161.648C42.1413 161.925 41.8 162.064 41.48 162.064C40.712 162.064 40.1893 161.883 39.912 161.52C39.6347 161.136 39.496 160.56 39.496 159.792L39.464 157.264C39.4427 156.965 39.432 156.549 39.432 156.016C39.432 155.227 39.4107 154.149 39.368 152.784C39.3253 151.547 39.304 150.651 39.304 150.096C39.304 149.264 39.3253 148.101 39.368 146.608C39.4107 145.2 39.432 144.155 39.432 143.472C39.432 142.789 39.6027 142.331 39.944 142.096C40.2853 141.861 40.6693 141.744 41.096 141.744C42.2907 141.744 42.888 142.139 42.888 142.928C42.888 144.336 42.856 145.68 42.792 146.96C42.7493 148.581 42.728 149.765 42.728 150.512C43.3467 150.661 43.9973 150.757 44.68 150.8C45.3627 150.843 46.3227 150.864 47.56 150.864C50.0773 150.864 52.0293 150.757 53.416 150.544Z" fill="#B8B8B8"/>
<path d="M315.331 97.512C315.331 97.048 315.435 96.648 315.643 96.312C315.867 95.96 316.195 95.784 316.627 95.784C316.995 95.784 317.323 95.856 317.611 96C317.899 96.144 318.043 96.384 318.043 96.72C318.043 97.376 318.011 98.296 317.947 99.48C317.883 100.632 317.851 101.488 317.851 102.048C317.851 102.928 317.883 104.104 317.947 105.576C318.011 106.984 318.043 108.016 318.043 108.672C318.043 109.2 318.035 109.592 318.019 109.848C318.019 110.104 317.875 110.36 317.587 110.616C317.315 110.856 316.891 110.976 316.315 110.976C316.011 110.976 315.747 110.928 315.523 110.832C315.315 110.72 315.171 110.6 315.091 110.472C314.339 109.56 313.243 108.008 311.803 105.816C310.187 103.368 308.867 101.496 307.843 100.2C307.971 101.352 308.035 102.76 308.035 104.424C308.035 105.16 308.019 106.12 307.987 107.304C307.971 108.472 307.939 109.24 307.891 109.608C307.827 110.072 307.683 110.432 307.459 110.688C307.251 110.928 306.915 111.048 306.451 111.048C306.099 111.048 305.835 110.952 305.659 110.76C305.499 110.552 305.403 110.2 305.371 109.704C305.355 109.048 305.395 108.064 305.491 106.752C305.507 106.544 305.531 106.184 305.563 105.672C305.595 105.16 305.611 104.704 305.611 104.304C305.611 103.2 305.555 101.936 305.443 100.512C305.347 98.944 305.299 97.784 305.299 97.032C305.299 96.648 305.435 96.352 305.707 96.144C305.995 95.936 306.323 95.832 306.691 95.832C307.011 95.832 307.347 95.912 307.699 96.072C309.075 97.8 310.939 100.376 313.291 103.8L315.547 107.256C315.563 107 315.571 106.64 315.571 106.176C315.571 105.36 315.555 104.48 315.523 103.536C315.491 102.592 315.467 101.952 315.451 101.616C315.371 100.064 315.331 98.696 315.331 97.512ZM333.206 98.112C333.446 98.4 333.614 98.632 333.71 98.808C333.806 98.984 333.854 99.152 333.854 99.312C333.854 99.504 333.726 99.728 333.47 99.984C333.23 100.24 332.99 100.368 332.75 100.368C332.43 100.368 332.174 100.32 331.982 100.224C331.79 100.128 331.63 99.976 331.502 99.768C331.198 99.288 330.846 98.864 330.446 98.496C330.046 98.112 329.51 97.92 328.838 97.92C328.182 97.92 327.446 98.072 326.63 98.376C325.814 98.68 325.214 99.056 324.83 99.504C323.966 100.56 323.534 101.96 323.534 103.704C323.534 105.096 323.966 106.288 324.83 107.28C325.742 108.304 326.894 108.816 328.286 108.816C328.926 108.816 329.622 108.704 330.374 108.48C331.142 108.24 331.75 107.856 332.198 107.328H332.174C332.462 107.024 332.822 106.872 333.254 106.872C333.51 106.872 333.75 106.984 333.974 107.208C334.214 107.432 334.334 107.656 334.334 107.88C334.334 108.12 334.294 108.336 334.214 108.528C334.15 108.704 334.022 108.904 333.83 109.128C333.174 109.848 332.334 110.352 331.31 110.64C330.302 110.912 329.15 111.048 327.854 111.048C326.782 111.048 325.75 110.792 324.758 110.28C323.782 109.768 322.974 109.12 322.334 108.336C322.014 107.872 321.702 107.208 321.398 106.344C321.11 105.464 320.966 104.752 320.966 104.208C320.966 102.816 321.174 101.496 321.59 100.248C322.022 98.984 322.662 97.976 323.51 97.224C324.07 96.712 324.878 96.328 325.934 96.072C326.99 95.816 327.958 95.688 328.838 95.688C329.542 95.688 330.142 95.792 330.638 96C331.15 96.192 331.59 96.456 331.958 96.792C332.326 97.112 332.742 97.552 333.206 98.112Z" fill="#B8B8B8"/>
<path d="M323.352 173.344C323.352 172.427 324.024 171.968 325.368 171.968C325.944 171.968 327.043 171.989 328.664 172.032C330.456 172.117 331.811 172.16 332.728 172.16C333.475 172.16 334.381 172.117 335.448 172.032C336.173 171.989 336.632 171.968 336.824 171.968C337.997 172.011 338.989 172.224 339.8 172.608C340.035 172.715 340.227 172.843 340.376 172.992C340.525 173.141 340.6 173.387 340.6 173.728C340.6 174.197 340.451 174.603 340.152 174.944C339.853 175.264 339.491 175.424 339.064 175.424C338.595 175.424 337.912 175.36 337.016 175.232C336.227 175.083 335.533 175.008 334.936 175.008C334.36 175.008 333.923 175.019 333.624 175.04C333.56 175.744 333.528 177.429 333.528 180.096C333.528 183.275 333.624 186.496 333.816 189.76L333.88 190.688C333.88 191.563 333.379 192 332.376 192C331.587 192 331.053 191.819 330.776 191.456C330.499 191.072 330.36 190.496 330.36 189.728C330.36 188.213 330.317 186.325 330.232 184.064C330.147 182.187 330.104 180.853 330.104 180.064C330.104 179.531 330.168 177.899 330.296 175.168L326.552 175.2C325.357 175.2 324.525 175.093 324.056 174.88C323.587 174.645 323.352 174.133 323.352 173.344ZM350.954 175.168C350.74 179.349 350.634 182.677 350.634 185.152C350.634 186.432 350.666 187.648 350.73 188.8C350.9 188.928 351.231 188.992 351.722 188.992L352.458 188.96C352.756 188.917 353.034 188.896 353.29 188.896C353.844 188.896 354.271 188.992 354.57 189.184C354.89 189.376 355.05 189.749 355.05 190.304C355.05 190.837 354.89 191.253 354.57 191.552C354.271 191.851 353.642 192 352.682 192C351.871 192 350.89 191.936 349.738 191.808C349.46 191.787 349.194 191.765 348.938 191.744C348.682 191.723 348.447 191.712 348.234 191.712C347.06 191.733 346.186 191.776 345.61 191.84C345.034 191.904 344.383 191.936 343.658 191.936C342.996 191.936 342.666 191.435 342.666 190.432C342.666 189.472 343.284 188.992 344.522 188.992C344.714 188.992 345.023 189.013 345.45 189.056C345.812 189.12 346.196 189.152 346.602 189.152C346.836 189.152 347.028 189.141 347.178 189.12C347.199 187.691 347.274 185.611 347.402 182.88C347.53 179.68 347.594 177.312 347.594 175.776C347.487 175.797 347.114 175.947 346.474 176.224C345.492 176.715 344.767 176.96 344.298 176.96C344.042 176.96 343.807 176.832 343.594 176.576C343.38 176.299 343.274 175.979 343.274 175.616C343.274 175.253 343.498 174.901 343.946 174.56C344.394 174.219 345.119 173.771 346.122 173.216C346.676 172.939 347.21 172.629 347.722 172.288C347.85 172.203 348.031 172.117 348.266 172.032C348.522 171.947 348.714 171.904 348.842 171.904C349.396 171.904 349.898 172.021 350.345 172.256C350.815 172.469 351.05 172.757 351.05 173.12L350.954 175.168Z" fill="#B8B8B8"/>
<path d="M295.835 43.008C295.835 42.32 296.339 41.976 297.347 41.976C297.779 41.976 298.603 41.992 299.819 42.024C301.163 42.088 302.179 42.12 302.867 42.12C303.427 42.12 304.107 42.088 304.907 42.024C305.451 41.992 305.795 41.976 305.939 41.976C306.819 42.008 307.563 42.168 308.171 42.456C308.347 42.536 308.491 42.632 308.603 42.744C308.715 42.856 308.771 43.04 308.771 43.296C308.771 43.648 308.659 43.952 308.435 44.208C308.211 44.448 307.939 44.568 307.619 44.568C307.267 44.568 306.755 44.52 306.083 44.424C305.491 44.312 304.971 44.256 304.523 44.256C304.091 44.256 303.763 44.264 303.539 44.28C303.491 44.808 303.467 46.072 303.467 48.072C303.467 50.456 303.539 52.872 303.683 55.32L303.731 56.016C303.731 56.672 303.355 57 302.603 57C302.011 57 301.611 56.864 301.403 56.592C301.195 56.304 301.091 55.872 301.091 55.296C301.091 54.16 301.059 52.744 300.995 51.048C300.931 49.64 300.899 48.64 300.899 48.048C300.899 47.648 300.947 46.424 301.043 44.376L298.235 44.4C297.339 44.4 296.715 44.32 296.363 44.16C296.011 43.984 295.835 43.6 295.835 43.008ZM313.608 54.504C314.152 54.536 314.512 54.552 314.688 54.552C315.232 54.552 315.712 54.544 316.128 54.528C316.56 54.512 316.928 54.496 317.232 54.48C318.016 54.432 318.72 54.408 319.344 54.408C319.952 54.408 320.4 54.568 320.688 54.888C320.976 55.208 321.12 55.632 321.12 56.16C321.12 56.416 320.952 56.624 320.616 56.784C320.28 56.928 319.936 57 319.584 57C319.28 57 318.648 56.968 317.688 56.904C316.536 56.808 315.632 56.76 314.976 56.76C314.624 56.76 314.208 56.784 313.728 56.832C313.536 56.848 313.304 56.864 313.032 56.88C312.76 56.896 312.456 56.904 312.12 56.904C311.48 56.904 310.992 56.816 310.656 56.64C310.32 56.464 310.152 56.144 310.152 55.68C310.152 55.28 310.312 54.872 310.632 54.456C310.952 54.04 311.4 53.544 311.976 52.968L312.552 52.392C312.808 52.12 313.28 51.656 313.968 51C315.104 49.976 315.984 49.072 316.608 48.288C317.248 47.504 317.568 46.728 317.568 45.96C317.568 45.464 317.328 45.064 316.848 44.76C316.384 44.44 315.848 44.28 315.24 44.28C314.312 44.28 313.64 44.488 313.224 44.904C312.824 45.304 312.624 45.888 312.624 46.656C312.624 46.848 312.512 47.024 312.288 47.184C312.08 47.328 311.816 47.4 311.496 47.4C311.048 47.4 310.736 47.24 310.56 46.92C310.384 46.6 310.296 46.208 310.296 45.744C310.296 45.008 310.52 44.36 310.968 43.8C311.416 43.224 312.024 42.776 312.792 42.456C313.576 42.136 314.44 41.976 315.384 41.976C316.056 41.976 316.752 42.144 317.472 42.48C318.208 42.8 318.816 43.24 319.296 43.8C319.792 44.344 320.04 44.944 320.04 45.6C320.04 46.592 319.792 47.536 319.296 48.432C318.8 49.328 318.216 50.128 317.544 50.832C316.888 51.52 316.032 52.336 314.976 53.28C314.464 53.712 314.008 54.12 313.608 54.504Z" fill="#B8B8B8"/>
</g>
<defs>
<clipPath id="clip0_926_29194">
<rect width="439" height="295" fill="white"/>
</clipPath>
<clipPath id="clip1_926_29194">
<path d="M169.385 91.2446L244.152 96.3926L241.762 131.106L166.995 125.958L169.385 91.2446Z" fill="white"/>
</clipPath>
</defs>
</svg>
