<svg width="439" height="295" viewBox="0 0 439 295" fill="none" xmlns="http://www.w3.org/2000/svg">
<g clip-path="url(#clip0_852_28559)">
<path d="M179.866 197.299C179.866 197.299 188.044 233.838 182.076 246.86C176.108 259.86 168.674 353.491 168.674 353.491H159.431L95.8943 177.151C95.8943 177.151 89.1428 128.014 107.207 126.803C125.271 125.591 172.451 171.7 172.451 171.7L179.866 197.299Z" fill="#EC9776"/>
<path d="M327.599 223.666L311.809 238.863L158.544 264.577L86.7245 55.4793L100.034 42.2946L327.599 223.666Z" fill="#DDCEA5"/>
<path d="M100.034 42.2941L174.394 249.308L326.955 222.36L252.523 15.2855L100.034 42.2941Z" fill="#F8E9C3"/>
<path d="M193.574 241.024C169.007 223.776 120.781 100.617 99.7386 41.1935L253.026 15.2852C256.168 39.421 308.333 158.645 336.428 215.249L193.574 241.024Z" fill="#FFF3D3"/>
<path fill-rule="evenodd" clip-rule="evenodd" d="M194.246 66.9308C193.815 67.7693 193.866 70.5256 194.354 72.8465L194.884 75.3639L194.966 73.4754C195.024 72.1398 195.223 71.6256 195.646 71.7178C195.976 71.7898 196.554 71.7891 196.932 71.7165C197.376 71.631 197.949 72.0574 198.553 72.923C199.066 73.6593 199.589 74.2421 199.713 74.2181C200.107 74.1424 198.751 71.6898 196.98 69.2719C195.238 66.8947 194.562 66.3156 194.246 66.9308ZM142.153 76.8447C142.454 77.9138 143.115 79.5791 143.623 80.5456C144.732 82.6592 145.775 83.3721 144.777 81.3347C144.413 80.5922 143.698 78.9464 143.187 77.6773C142.014 74.7613 141.434 74.2946 142.153 76.8447ZM175.776 70.5239C176.196 72.1227 176.136 72.3616 175.066 73.3531C173.769 74.5539 173.526 75.647 174.392 76.3849C175.08 76.9713 176.144 76.8149 176.98 76.0041C177.453 75.5463 177.713 75.5214 178.096 75.8979C178.697 76.4869 177.011 71.724 175.99 69.9491C175.336 68.8117 175.33 68.8285 175.776 70.5239ZM196.078 68.9088C197.116 70.5723 197.146 70.8078 196.336 70.9635C195.397 71.1441 194.964 70.5994 194.832 69.0734C194.691 67.4355 195.123 67.3789 196.078 68.9088ZM211.501 65.7072C211.652 66.5597 211.479 67.0063 210.88 67.316C210.064 67.7371 210.07 67.7459 211.261 67.8249C212.321 67.8946 212.555 68.1081 213.141 69.5412C213.509 70.4412 214.062 71.3494 214.371 71.5593C214.803 71.852 214.807 71.6625 214.389 70.7443C213.078 67.864 213.081 67.9675 214.285 67.5918C214.91 67.3966 215.371 67.0568 215.309 66.8363C215.246 66.6157 214.765 66.5743 214.238 66.7443C213.454 66.9974 213.099 66.824 212.287 65.7904L211.293 64.5274L211.501 65.7072ZM136.383 77.2888L135 77.7803L138.377 77.6183L139.183 79.6479C140.221 82.2623 140.914 83.4204 141.388 83.3294C141.617 83.2851 141.548 82.8305 141.21 82.1706C140.904 81.5731 140.31 80.2232 139.891 79.1707C139.156 77.3227 139.161 77.2505 140.056 77.0784C140.566 76.9804 141.031 76.6957 141.09 76.4458C141.201 75.9728 138.951 76.3756 136.383 77.2888ZM157.49 73.2333L155.926 73.7584L159.663 73.5236L160.661 76.111C161.6 78.5459 162.456 79.7586 162.782 79.1171C162.861 78.9613 162.553 78.1553 162.096 77.3261C161.639 76.4969 161.095 75.2169 160.886 74.4813C160.562 73.3373 160.635 73.1198 161.388 72.9749C161.873 72.8817 162.317 72.6011 162.376 72.3511C162.487 71.879 160.4 72.2557 157.49 73.2333ZM199.576 69.7495C200.931 73.2603 201.462 74.3155 201.839 74.2429C202.025 74.2071 201.985 73.7755 201.749 73.2842C201.513 72.793 200.92 71.3485 200.431 70.0744C199.941 68.8003 199.343 67.6733 199.102 67.5701C198.811 67.4459 198.972 68.1863 199.576 69.7495ZM169.077 72.1592C168.393 73.0343 168.355 75.4899 169.007 76.7093C169.586 77.7922 171.092 77.8687 171.884 76.8552C172.481 76.0914 172.562 76.0927 173.245 76.8775C173.872 77.5981 173.837 77.3528 172.989 75.0815C171.622 71.4223 170.379 70.4941 169.077 72.1592ZM201.882 68.2851C201.615 68.6431 201.522 69.7122 201.674 70.6607C201.897 72.0511 202.146 72.5259 202.959 73.1095C204.007 73.8611 206.008 73.7755 206.197 72.9708C206.262 72.6968 205.731 72.6266 204.861 72.794C204.068 72.9467 203.266 72.9057 203.079 72.703C202.893 72.5003 202.987 72.2869 203.289 72.2289C203.59 72.1709 204.054 71.6544 204.319 71.0811C205.377 68.7931 203.289 66.3972 201.882 68.2851ZM148.589 76.7385C148.652 76.9648 149.516 76.9938 150.509 76.803C151.501 76.6121 152.26 76.2708 152.197 76.0445C152.133 75.8181 151.269 75.7891 150.277 75.98C149.285 76.1708 148.525 76.5122 148.589 76.7385ZM171.329 72.9828C172.085 74.4271 171.693 76.4152 170.611 76.6234C169.824 76.7747 169.673 76.6264 169.385 75.4207C168.799 72.9713 170.322 71.0617 171.329 72.9828ZM203.819 69.2542C204.172 70.5081 203.503 71.661 202.74 71.1133C202.339 70.8256 202.232 70.4393 202.323 69.6066C202.48 68.1691 203.449 67.9407 203.819 69.2542ZM185.729 73.0356C184.923 74.2105 185.22 76.0144 186.256 76.2406C186.624 76.3209 187.332 76.0969 187.831 75.7433C188.896 74.9889 189.402 75.4189 190.539 78.04C191.421 80.0736 191.205 81.3602 189.85 82.1396C188.854 82.713 188.849 82.7391 189.757 82.6014C190.286 82.5208 190.988 82.049 191.318 81.5528C192.086 80.3938 191.416 78.0265 189.288 74.375C187.585 71.4538 186.972 71.2231 185.729 73.0356ZM163.829 74.5286C163.684 75.1434 166.159 78.2475 166.878 78.3523C167.297 78.4138 167.295 78.1765 166.869 77.3627C166.055 75.81 166.138 74.537 167.047 74.6259C167.518 74.6719 167.732 74.4863 167.628 74.1197C167.367 73.193 165.709 73.7349 165.713 74.7458C165.717 75.8743 165.302 75.9251 164.547 74.8881C164.199 74.4106 163.893 74.257 163.829 74.5286ZM178.73 73.0265C178.973 73.8886 179.512 74.9073 179.927 75.2908C180.671 75.9782 180.549 78.5435 180.328 77.7302C179.904 76.1745 178.916 71.3385 178.602 71.3988C178.43 71.432 178.487 72.1644 178.73 73.0265ZM206.031 68.9619C206.241 69.78 207.531 71.5793 208.404 72.2709C209.191 72.8951 209.213 72.8436 208.901 71.0916C208.612 69.4713 208.676 69.2531 209.446 69.202C210.553 69.1288 210.063 68.1623 208.933 68.1884C208.38 68.2012 208.068 68.5922 207.913 69.4693C207.79 70.1636 207.627 70.5371 207.552 70.2988C207.353 69.6728 205.881 68.3782 206.031 68.9619ZM181.64 74.6946C181.366 75.6135 181.328 75.6252 180.722 74.9796C180.192 74.4148 180.187 74.5256 180.691 75.6671C181.021 76.4156 181.561 77.2578 181.891 77.5384C182.386 77.9607 182.48 77.7617 182.434 76.3912C182.364 74.3519 183.177 74.0735 184.158 75.8004C184.555 76.4997 185.022 77.0442 185.195 77.0109C185.578 76.9373 184.455 74.5473 183.746 73.9275C182.974 73.2523 181.958 73.6226 181.64 74.6946ZM187.754 73.3466C188.168 74.0266 187.137 75.7918 186.419 75.6346C185.615 75.4595 185.46 74.8368 185.947 73.7393C186.368 72.7921 187.295 72.5908 187.754 73.3466ZM149.168 78.796C149.232 79.0223 150.005 79.0688 150.887 78.8993C151.768 78.7297 152.537 78.3866 152.596 78.1367C152.662 77.8568 152.003 77.817 150.878 78.0334C149.874 78.2265 149.105 78.5697 149.168 78.796ZM176.756 73.4736C177.231 73.9903 176.168 75.8494 175.408 75.8298C174.447 75.8052 174.316 74.7129 175.179 73.9201C176.093 73.0805 176.332 73.0124 176.756 73.4736ZM164.636 88.3232C164.575 88.5832 164.722 88.8806 164.964 88.9841C165.206 89.0873 165.664 90.0975 165.983 91.2287C166.706 93.7944 168.268 96.8173 168.948 96.9659C169.486 97.0836 171.567 94.8952 171.425 94.3612C171.294 93.8722 170.834 94.0918 170.147 94.971C169.284 96.0743 168.41 95.7944 167.983 94.2776C167.67 93.1661 167.749 93.0077 168.714 92.8221C169.309 92.7076 169.744 92.4287 169.68 92.2024C169.616 91.9761 168.987 91.902 168.281 92.0378L166.997 92.2847L166.234 88.7442L167.806 88.5876C168.767 88.4917 169.329 88.2572 169.252 87.984C169.183 87.7383 168.76 87.6053 168.313 87.6887C167.867 87.7721 166.881 87.8424 166.124 87.8453C165.328 87.8479 164.7 88.0497 164.636 88.3232ZM151.65 93.598C151.752 94.3606 151.972 95.6262 152.138 96.411C152.581 98.4961 151.867 98.5606 150.546 96.5551C149.911 95.5919 149.269 94.8274 149.118 94.8564C148.749 94.9273 148.714 96.0824 149.045 97.2564C149.382 98.4539 149.338 99.5859 148.951 99.6604C148.79 99.6914 148.108 98.798 147.435 97.6746C145.854 95.0353 145.008 94.3826 145.972 96.5462C146.836 98.4865 148.517 100.72 149.187 100.818C149.457 100.858 149.703 100.431 149.734 99.8694C149.932 96.2889 149.798 96.4894 150.921 98.0885C152.735 100.675 153.486 99.282 152.72 94.7525C152.311 92.3343 151.342 91.2887 151.65 93.598ZM211.772 84.5751C211.873 85.3376 212.093 86.6033 212.26 87.3881C212.703 89.4732 211.989 89.5377 210.667 87.5322C210.032 86.569 209.39 85.8045 209.24 85.8334C208.871 85.9044 208.836 87.0595 209.166 88.2335C209.504 89.4309 209.46 90.5629 209.073 90.6374C208.911 90.6684 208.229 89.775 207.556 88.6516C205.976 86.0124 205.129 85.3596 206.093 87.5232C206.957 89.4635 208.639 91.6974 209.309 91.7954C209.578 91.8351 209.824 91.4077 209.855 90.8465C210.053 87.266 209.92 87.4664 211.042 89.0656C212.857 91.6521 213.608 90.2591 212.842 85.7296C212.433 83.3114 211.464 82.2658 211.772 84.5751ZM242.267 77.962C242.228 78.7042 242.829 78.7487 243.001 78.0163C243.078 77.6896 243.313 77.6584 243.747 77.9167C244.284 78.2367 244.348 78.4908 244.173 79.6039C243.98 80.8248 244.289 81.6941 244.875 81.5813C245.014 81.5547 245.121 80.7333 245.113 79.7556C245.103 78.4033 244.961 77.8602 244.519 77.484C243.75 76.8286 242.309 77.1343 242.267 77.962ZM188.402 89.7586C189.045 91.3562 189.034 91.5406 188.257 92.0943C187.088 92.9277 186.478 94.0998 186.735 95.0149C187.032 96.068 188.088 96.2205 189.271 95.3822C189.915 94.9256 190.337 94.8211 190.493 95.079C190.625 95.2953 190.834 95.3587 190.958 95.2195C191.211 94.9371 188.546 88.5826 188.032 88.2415C187.852 88.1218 188.018 88.8048 188.402 89.7586ZM238.824 78.8412C238.872 79.1898 238.974 79.7559 239.05 80.099C239.126 80.4423 238.806 80.8648 238.338 81.0376C237.516 81.342 237.531 81.3633 238.806 81.686C239.854 81.9512 240.192 82.2609 240.456 83.1954C240.638 83.8419 241.143 84.6812 241.579 85.0607C242.334 85.718 242.346 85.6941 241.826 84.5538C241.526 83.8957 241.059 82.9605 240.788 82.476C240.343 81.678 240.42 81.5707 241.601 81.3435C242.319 81.2054 242.848 80.8872 242.777 80.6366C242.702 80.3683 242.34 80.3411 241.9 80.5703C240.909 81.0862 240.181 80.7316 239.388 79.3464C239.029 78.7201 238.775 78.4926 238.824 78.8412ZM140.268 95.7325C140.359 96.0953 140.836 96.6543 141.328 96.974C142.072 97.4581 142.301 97.9519 142.698 99.9226C143.05 101.666 143.231 102.108 143.386 101.599C143.501 101.218 143.429 100.305 143.225 99.5689C143.021 98.833 142.945 98.2128 143.058 98.1911C143.17 98.1696 143.956 98.5294 144.805 98.9913C145.653 99.4528 146.298 99.6583 146.239 99.4476C146.18 99.2369 145.528 98.7475 144.792 98.36C143.283 97.5665 142.945 96.8638 143.524 95.7259C143.742 95.2975 143.783 94.8485 143.615 94.7277C143.446 94.607 143.174 94.9613 143.009 95.5153C142.627 96.8018 141.972 96.9194 140.929 95.8894C140.305 95.2732 140.143 95.2347 140.268 95.7325ZM179.912 90.0772C181.267 93.588 181.669 97.2103 182.046 97.1377C182.233 97.1019 182.192 96.6702 181.956 96.179C181.72 95.6878 181.127 94.2432 180.638 92.9691C180.148 91.695 179.68 88.001 179.438 87.8978C179.148 87.7736 179.309 88.514 179.912 90.0772ZM214.817 84.99C214.134 85.865 214.096 88.3207 214.748 89.5401C215.327 90.623 216.832 90.6995 217.625 89.686C218.221 88.9222 218.303 88.9235 218.986 89.7083C219.613 90.4288 219.577 90.1836 218.729 87.9123C217.363 84.2531 216.12 83.3249 214.817 84.99ZM228.453 83.0655C228.013 84.167 227.994 84.9002 228.38 85.9635C229.086 87.9133 230.15 88.3347 231.317 87.1276C232.085 86.3334 232.258 86.2854 232.582 86.7757C233.472 88.1212 233.404 87.051 232.454 84.7299C230.953 81.0657 229.494 80.4585 228.453 83.0655ZM184.693 92.4917C185.032 93.6929 185.063 94.6205 184.783 95.1707C184.386 95.9497 184.296 95.9704 183.574 95.4522C183.108 95.1179 182.604 94.2202 182.324 93.2247C182.066 92.3075 181.742 91.683 181.605 91.8366C181.225 92.2614 181.82 93.9959 182.853 95.4781C183.849 96.9068 184.963 97.0652 185.439 95.8465C185.796 94.9359 185.565 92.1054 185.065 91.2429C184.348 90.0091 184.166 90.6211 184.693 92.4917ZM157.659 94.0811C157.722 94.3075 158.586 94.3365 159.578 94.1456C160.571 93.9548 161.33 93.6134 161.266 93.3871C161.203 93.1608 160.339 93.1318 159.346 93.3226C158.354 93.5135 157.595 93.8548 157.659 94.0811ZM176.174 90.9532C175.587 92.1064 175.751 92.8267 176.937 94.2987C177.926 95.5277 178.988 95.5629 179.587 94.387C180.193 93.1959 179.825 92.7591 179.022 93.7158C178.346 94.5199 178.235 94.5425 177.511 94.0233C176.444 93.2573 176.475 91.1686 177.561 90.7642C177.986 90.6056 178.191 90.3218 178.019 90.1338C177.501 89.5709 176.696 89.9289 176.174 90.9532ZM217.069 85.8136C217.826 87.2579 217.434 89.246 216.351 89.4542C215.565 89.6055 215.413 89.4572 215.126 88.2515C214.54 85.8021 216.062 83.8925 217.069 85.8136ZM231.061 83.8631C231.647 85.4903 231.246 86.8058 230.098 87.0267C229.552 87.1317 229.32 86.8696 229.022 85.8121C228.18 82.8234 230.044 81.0411 231.061 83.8631ZM171.466 91.7904C171.524 91.997 171.88 92.3497 172.257 92.5743C172.634 92.7989 173.116 93.5969 173.327 94.3479C173.539 95.0993 173.907 95.7968 174.145 95.8986C174.399 96.0075 174.422 95.5333 174.201 94.7477L173.824 93.412L175.24 94.3864C177.007 95.6027 176.923 94.9876 175.141 93.6555C174.016 92.815 173.861 92.5491 174.046 91.7817C174.275 90.8252 173.853 90.6544 173.41 91.5254C173.216 91.9053 172.895 91.9626 172.251 91.7326C171.761 91.5579 171.408 91.5838 171.466 91.7904ZM198.421 89.6618C197.614 90.8387 197.762 91.9955 198.798 92.6122C199.447 92.9988 199.992 92.8493 201.141 91.9689C202.154 91.1922 204.492 96.474 203.687 97.7236C203.478 98.048 202.895 98.558 202.39 98.8564L201.473 99.3994L202.491 99.2408C203.834 99.0315 204.825 97.0949 204.366 95.5751C204.175 94.945 203.273 93.1087 202.36 91.4948C200.489 88.1857 199.689 87.8134 198.421 89.6618ZM191.279 92.2422C191.522 93.1043 192.06 94.123 192.475 94.5064C193.22 95.1939 193.227 95.1921 193.006 94.3788C192.582 92.8231 191.464 90.5542 191.151 90.6145C190.978 90.6476 191.036 91.3801 191.279 92.2422ZM219.095 85.6443C219.317 86.4752 221.696 89.5105 222.069 89.4388C222.238 89.4062 222.205 88.5832 221.995 87.6093C221.655 86.0324 221.709 85.833 222.485 85.7813C223.59 85.7079 223.102 84.7419 221.973 84.7675C221.46 84.7794 221.117 85.139 221.006 85.7837L220.835 86.7815L219.886 85.9168C219.286 85.371 218.995 85.2705 219.095 85.6443ZM223.424 84.8115C223.646 85.6424 226.026 88.6777 226.399 88.606C226.568 88.5734 226.534 87.7504 226.325 86.7765C225.984 85.1996 226.038 85.0002 226.814 84.9485C227.92 84.8751 227.432 83.9091 226.302 83.9347C225.789 83.9466 225.446 84.3062 225.336 84.9509L225.164 85.9487L224.215 85.084C223.616 84.5382 223.324 84.4377 223.424 84.8115ZM194.317 91.3433C194.044 92.2621 194.005 92.2739 193.399 91.6282C192.869 91.0634 192.864 91.1742 193.368 92.3157C193.699 93.0642 194.239 93.9064 194.569 94.187C195.064 94.6093 195.158 94.4104 195.111 93.0398C195.041 91.0005 195.855 90.7221 196.836 92.4491C197.233 93.1479 197.699 93.6928 197.872 93.6595C198.255 93.5859 197.133 91.196 196.424 90.5762C195.652 89.9009 194.636 90.2712 194.317 91.3433ZM200.559 90.0814C200.799 90.934 199.818 92.5322 199.213 92.2734C198.576 92.0011 198.395 90.5806 198.926 90.0212C199.721 89.1833 200.312 89.2053 200.559 90.0814ZM234.756 83.5279C234.487 84.6481 234.156 84.7448 233.674 83.8444C233.431 83.3885 233.393 83.5142 233.561 84.2171C233.802 85.2172 235.2 86.9458 235.365 86.4464C235.408 86.3194 235.445 85.6294 235.449 84.9129C235.459 83.1723 236.262 83.1111 237.319 84.7702C238.163 86.0965 238.174 86.1 237.881 84.9587C237.243 82.4768 235.231 81.5548 234.756 83.5279ZM158.238 96.1386C158.302 96.365 159.075 96.4115 159.956 96.2419C160.838 96.0724 161.607 95.7293 161.666 95.4793C161.732 95.1994 161.072 95.1596 159.947 95.376C158.944 95.5691 158.174 95.9123 158.238 96.1386ZM189.494 92.9934C189.857 93.5911 188.447 95.1929 187.7 95.0298C186.912 94.8578 186.98 93.8183 187.827 93.0749C188.598 92.3987 189.117 92.3735 189.494 92.9934ZM245.818 84.0028C245.759 84.2528 245.973 84.4067 246.294 84.3449C246.616 84.2832 246.726 84.0668 246.539 83.864C246.353 83.6613 246.138 83.5074 246.063 83.5219C245.987 83.5365 245.877 83.7529 245.818 84.0028ZM167.895 108C171.024 115.66 171.443 116.231 172.922 114.843C173.897 113.928 174.579 112.516 173.991 112.629C173.785 112.669 173.216 113.116 172.728 113.623C171.708 114.683 171.417 114.58 170.853 112.961C170.489 111.919 170.569 111.755 171.588 111.437C173.081 110.971 172.469 110.319 170.835 110.634C169.573 110.876 169.573 110.876 169.191 109.106L168.81 107.336L170.382 107.179C171.343 107.084 171.905 106.849 171.828 106.576C171.759 106.33 171.336 106.197 170.889 106.281C170.442 106.364 169.442 106.434 168.668 106.437L167.259 106.442L167.895 108ZM150.743 111.115C150.582 111.432 150.558 112.079 150.692 112.552C151.121 114.077 153.41 118.087 154.152 118.615C154.793 119.071 154.947 118.957 155.554 117.579C156.325 115.829 156.238 115.105 155.163 114.334C154.753 114.039 154.354 113.467 154.278 113.063C154.041 111.807 153.808 111.392 153.034 110.835C152.141 110.195 151.15 110.316 150.743 111.115ZM236.48 97.1646C236.319 97.482 236.296 98.1285 236.429 98.6017C236.858 100.126 239.147 104.136 239.889 104.664C240.53 105.12 240.684 105.006 241.291 103.629C242.062 101.879 241.975 101.155 240.9 100.383C240.49 100.089 240.092 99.517 240.015 99.1122C239.778 97.8569 239.546 97.4413 238.771 96.885C237.878 96.245 236.887 96.3658 236.48 97.1646ZM258.621 92.6775C258.002 93.0173 257.515 95.146 257.813 96.206C257.929 96.6159 257.663 96.9074 257.07 97.0215C256.546 97.1222 256.293 97.3587 256.486 97.5677C256.672 97.7704 257.148 97.8739 257.545 97.7977C258.069 97.6968 258.67 98.2186 259.755 99.7186C261.189 101.702 262.297 102.67 262.024 101.702C261.952 101.446 261.251 100.51 260.466 99.6207L259.04 98.0042L260.481 97.3097C261.544 96.7967 261.667 96.6517 260.947 96.7558C259.404 96.9794 258.71 96.6869 258.43 95.696C258.063 94.3912 258.956 93.0334 260.163 93.0628C260.787 93.0776 261.052 92.9273 260.886 92.6517C260.596 92.1713 259.521 92.1838 258.621 92.6775ZM153.287 112.574C153.638 113.512 153.612 114.01 153.191 114.417C152.875 114.725 152.48 114.878 152.314 114.76C151.906 114.466 151.237 112.02 151.451 111.6C151.845 110.826 152.83 111.348 153.287 112.574ZM239.025 98.6239C239.375 99.5621 239.349 100.06 238.928 100.467C238.612 100.774 238.217 100.928 238.052 100.809C237.643 100.516 236.974 98.0696 237.188 97.6497C237.582 96.8755 238.567 97.3979 239.025 98.6239ZM191.276 108.279C191.669 109.806 191.613 110.13 190.861 110.666C188.873 112.083 188.676 114.265 190.521 114.425C191.072 114.473 191.882 114.213 192.32 113.848C192.949 113.323 193.211 113.284 193.565 113.662C194.224 114.364 193.632 112.589 192.111 109.3C190.946 106.781 190.864 106.683 191.276 108.279ZM215.57 103.099C215.721 103.952 215.548 104.398 214.949 104.708C214.133 105.129 214.139 105.138 215.33 105.217C216.391 105.287 216.625 105.5 217.21 106.933C217.578 107.833 218.131 108.741 218.44 108.951C218.872 109.244 218.876 109.054 218.458 108.136C217.147 105.256 217.15 105.359 218.354 104.984C218.979 104.789 219.44 104.449 219.378 104.228C219.316 104.008 218.834 103.966 218.307 104.136C217.523 104.389 217.168 104.216 216.356 103.182L215.362 101.919L215.57 103.099ZM265.367 93.5645C265.509 94.3726 265.326 94.8259 264.737 95.1306C263.932 95.5462 263.945 95.5619 265.166 95.6418C266.424 95.7245 266.729 96.0666 267.65 98.4229C267.86 98.9603 268.283 99.4415 268.591 99.4929C269.016 99.5634 269.019 99.3624 268.605 98.6565C268.305 98.1455 267.832 97.2344 267.553 96.6316C267.089 95.6265 267.14 95.5182 268.17 95.32C268.788 95.2012 269.235 94.8974 269.164 94.6443C269.093 94.3916 268.758 94.3328 268.42 94.514C267.506 95.004 266.446 94.4462 266.124 93.3059C265.738 91.9352 265.117 92.147 265.367 93.5645ZM145.369 113.839C145.461 114.201 145.938 114.76 146.429 115.08C147.173 115.564 147.403 116.058 147.8 118.029C148.151 119.772 148.332 120.214 148.487 119.705C148.603 119.324 148.53 118.411 148.326 117.675C148.122 116.939 148.047 116.319 148.159 116.297C148.271 116.276 149.057 116.635 149.906 117.097C150.754 117.559 151.4 117.764 151.34 117.554C151.281 117.343 150.63 116.854 149.893 116.466C148.385 115.673 148.046 114.97 148.625 113.832C148.844 113.404 148.884 112.955 148.716 112.834C148.548 112.713 148.275 113.067 148.11 113.621C147.728 114.908 147.073 115.026 146.03 113.995C145.407 113.379 145.244 113.341 145.369 113.839ZM181.907 109.067C181.719 109.436 184.198 115.248 184.684 115.578C184.917 115.736 184.635 114.647 184.03 113.054C182.917 110.124 182.126 108.637 181.907 109.067ZM209.625 104.813C209.072 105.899 209.015 106.594 209.373 107.868C210.215 110.853 212.247 111.365 213.499 108.907C214.787 106.377 213.234 102.851 211.021 103.277C210.647 103.349 210.018 104.04 209.625 104.813ZM220.073 104.398C220.331 105.773 220.809 107.16 221.229 107.754L221.944 108.767L221.766 107.64C221.38 105.197 223.281 104.584 223.944 106.937C224.235 107.968 224.385 108.138 224.612 107.692C224.98 106.968 223.931 105.208 222.85 104.737C222.291 104.493 221.943 104.576 221.521 105.054C220.974 105.673 220.935 105.617 220.65 103.809C220.468 102.659 220.21 101.943 219.992 101.985C219.794 102.023 219.831 103.109 220.073 104.398ZM270.302 92.9825C269.908 93.4861 269.801 94.2047 270.009 94.9445C270.356 96.1762 271.004 96.51 272.493 96.2237C273.568 96.0168 273.669 96.3097 273.008 97.7236C272.724 98.33 272.67 98.7923 272.889 98.7503C273.426 98.647 274.246 96.2915 273.929 95.7656C273.79 95.5343 273.013 95.3753 272.203 95.4118C270.44 95.4915 269.985 94.6043 271.231 93.5166C271.696 93.1101 271.933 92.6227 271.758 92.4329C271.317 91.9522 271.019 92.0646 270.302 92.9825ZM212.956 104.903C214.249 107.371 212.355 110.819 210.614 109.167C209.717 108.316 209.587 106.727 210.3 105.322C211.066 103.813 212.284 103.62 212.956 104.903ZM224.569 102.406C223.467 104.57 225.619 107.843 227.859 107.412C228.443 107.3 228.968 107.004 229.027 106.754C229.092 106.48 228.561 106.41 227.691 106.577C226.148 106.874 225.239 106.42 226.271 105.867C226.614 105.684 227.039 104.986 227.215 104.317C227.473 103.336 227.402 102.921 226.846 102.167C226.011 101.035 225.225 101.117 224.569 102.406ZM242.459 98.9012C242.17 99.5519 242.23 100.337 242.664 101.578C243.416 103.731 244.864 104.51 246.421 103.599C247.372 103.042 247.37 103.04 245.894 103.171C244.45 103.299 242.905 102.783 244.065 102.56C245.739 102.238 245.342 97.9109 243.643 97.9584C243.216 97.9702 242.684 98.3946 242.459 98.9012ZM252.166 97.1028C251.602 98.3752 252.243 100.676 253.422 101.606C254.382 102.362 255.911 102.285 256.627 101.445C256.941 101.076 256.652 101.018 255.542 101.226C253.749 101.563 253.151 101.13 254.201 100.254C255.502 99.1694 254.75 96.1789 253.164 96.13C252.857 96.1205 252.408 96.5582 252.166 97.1028ZM187.445 111.035C188.342 114.217 186.667 115.508 185.402 112.609C184.272 110.018 184.179 109.923 184.683 111.874C185.305 114.275 186.813 115.806 187.651 114.887C187.941 114.57 188.253 113.826 188.345 113.236C188.546 111.945 187.8 109.045 187.293 109.143C187.094 109.181 187.163 110.032 187.445 111.035ZM160.234 112.673C160.298 112.899 161.162 112.928 162.154 112.738C163.146 112.547 163.906 112.205 163.842 111.979C163.778 111.753 162.914 111.724 161.922 111.915C160.93 112.105 160.17 112.447 160.234 112.673ZM178.967 109.429C178.437 110.623 179.074 112.644 180.085 115.953C180.856 116.455 181.152 116.449 181.787 115.919C182.656 115.194 182.618 114.103 181.746 114.766C180.505 115.71 180.292 112.993 179.813 111.293C179.419 109.896 179.467 109.603 180 111.924C180.429 111.765 180.638 111.481 180.465 111.293C179.965 110.749 179.384 108.488 178.967 109.429ZM226.625 103.208C226.98 104.051 226.137 105.391 225.527 104.954C225.034 104.6 224.826 103.435 225.145 102.81C225.549 102.016 226.195 102.189 226.625 103.208ZM244.596 99.5124C244.94 100.247 244.253 101.768 243.688 101.526C243.123 101.285 242.833 100.029 243.183 99.3404C243.552 98.6167 244.216 98.6976 244.596 99.5124ZM254.14 98.0188C254.332 98.6977 254.42 99.2663 254.337 99.2823C254.254 99.2982 253.961 99.473 253.686 99.6709C253.3 99.9487 253.108 99.7547 252.845 98.8206C252.47 97.4894 252.584 97.0168 253.312 96.8768C253.605 96.8203 253.928 97.2645 254.14 98.0188ZM174.871 110.861C175.565 111.39 176.072 112.188 176.358 113.204C176.618 114.126 176.908 114.615 177.081 114.421C177.24 114.243 177.235 113.598 177.07 112.988L176.769 111.878L178.01 112.882C178.693 113.435 179.308 113.776 179.377 113.641C179.445 113.506 178.842 112.862 178.036 112.208C176.83 111.232 176.599 110.865 176.728 110.137C176.881 109.283 176.869 109.282 176.365 110.123C175.901 110.899 175.775 110.935 175.211 110.454C174.862 110.157 174.406 109.947 174.198 109.987C173.989 110.027 174.292 110.421 174.871 110.861ZM194.295 110.915C194.639 112.207 195.127 113.353 195.381 113.461C196.245 113.83 196.114 113.129 194.892 110.846L193.672 108.566L194.295 110.915ZM201.501 107.785C200.542 108.631 200.458 110.234 201.33 111.062C201.95 111.651 202.155 111.643 203.075 110.99C204.374 110.07 204.774 110.334 205.847 112.818C206.86 115.165 206.645 116.494 205.11 117.377L204.047 117.988L205.23 117.799C207.13 117.497 207.621 116.045 206.685 113.497C206.264 112.352 205.341 110.404 204.634 109.169C203.288 106.816 202.829 106.614 201.501 107.785ZM228.886 102.848C229.108 103.679 231.488 106.714 231.861 106.643C232.03 106.61 231.996 105.787 231.787 104.813C231.446 103.236 231.5 103.037 232.276 102.985C233.382 102.912 232.894 101.946 231.764 101.971C231.251 101.983 230.908 102.343 230.798 102.988L230.626 103.985L229.677 103.121C229.078 102.575 228.786 102.474 228.886 102.848ZM263.175 97.6652C263.69 99.4722 264.559 100.779 264.857 100.194C265.082 99.7532 263.586 96.2847 263.077 96.0672C262.846 95.9685 262.888 96.6596 263.175 97.6652ZM155.1 115.182C155.311 115.501 155.344 116.289 155.175 116.932C154.927 117.875 154.74 118.026 154.212 117.711C153.414 117.236 153.065 116.144 153.462 115.364C153.866 114.57 154.639 114.485 155.1 115.182ZM197.19 109.838C196.795 110.728 196.733 110.746 196.092 110.157C195.161 109.3 195.446 110.245 196.632 111.946C197.628 113.375 198.337 113.259 197.918 111.736C197.782 111.24 197.74 110.548 197.826 110.198C198.061 109.248 199.24 109.698 199.568 110.863C199.726 111.423 200.049 111.964 200.287 112.065C200.974 112.359 200.263 110.412 199.358 109.521C198.345 108.524 197.734 108.613 197.19 109.838ZM203.133 108.668C203.368 109.501 202.832 110.925 202.241 111.039C201.561 111.17 201.119 109.906 201.526 108.991C202.053 107.803 202.845 107.644 203.133 108.668ZM240.837 101.232C241.048 101.551 241.082 102.338 240.912 102.982C240.664 103.924 240.477 104.076 239.949 103.761C239.151 103.286 238.802 102.194 239.199 101.414C239.603 100.62 240.376 100.534 240.837 101.232ZM248.706 99.9091C248.356 100.765 248.286 100.786 247.668 100.217C246.721 99.3466 247.059 100.359 248.293 102.086L249.305 103.504L249.343 101.653C249.396 99.0967 250.636 99.0807 251.354 101.627C251.476 102.061 251.759 102.381 251.982 102.338C252.245 102.288 252.179 101.818 251.794 101.006C250.694 98.6791 249.399 98.219 248.706 99.9091ZM160.994 114.696C160.928 114.976 161.588 115.015 162.712 114.799C163.716 114.606 164.486 114.263 164.422 114.037C164.358 113.81 163.585 113.764 162.704 113.933C161.822 114.103 161.053 114.446 160.994 114.696ZM192.185 111.657C192.42 112.493 191.68 113.504 190.692 113.694C189.863 113.854 189.697 112.737 190.414 111.82C191.256 110.744 191.911 110.683 192.185 111.657ZM154.997 132.442C155.565 133.944 155.908 135.195 155.76 135.224C155.613 135.252 154.72 134.838 153.777 134.304C152.835 133.769 151.7 133.402 151.257 133.487C150.493 133.634 150.496 133.754 151.308 135.755C152.485 138.653 153.449 139.271 152.349 136.422C151.366 133.876 151.632 133.711 154.115 135.323C156.982 137.186 157.306 136.843 155.998 133.334C155.396 131.72 154.693 130.245 154.435 130.056C154.128 129.832 154.323 130.66 154.997 132.442ZM178.095 126.806C178.477 127.687 179.018 128.901 179.295 129.504C179.958 130.948 179.353 131.03 177.353 129.769C175.007 128.288 173.718 128.887 174.717 130.993C175.897 133.482 176.155 133.903 176.458 133.845C176.65 133.808 176.454 132.915 176.001 131.764C175.535 130.58 175.351 129.72 175.554 129.681C175.744 129.644 176.747 130.135 177.781 130.771C179.716 131.961 180.799 134.691 180.527 133.725C180.442 133.423 180.007 129.549 179.403 128.254C178.146 125.556 176.998 124.286 178.095 126.806ZM247.809 115.143C247.472 115.805 247.884 116.224 248.275 115.616C248.92 114.614 249.796 115.438 249.636 116.897C249.49 118.232 249.722 119.257 250.151 119.175C250.601 119.088 250.543 115.802 250.079 115.1C249.681 114.499 248.121 114.528 247.809 115.143ZM251.056 114.518C250.719 115.181 251.131 115.599 251.522 114.992C252.113 114.073 252.984 114.77 252.774 115.992C252.593 117.041 252.963 118.634 253.369 118.556C253.787 118.475 253.666 115.161 253.22 114.486C252.826 113.89 251.365 113.912 251.056 114.518ZM185.792 128.349C185.942 129.201 185.77 129.648 185.17 129.957C184.354 130.379 184.361 130.387 185.551 130.466C186.612 130.536 186.846 130.75 187.431 132.183C187.799 133.083 188.353 133.991 188.662 134.201C189.093 134.493 189.097 134.304 188.679 133.386C187.368 130.505 187.372 130.609 188.576 130.233C189.2 130.038 189.661 129.698 189.599 129.478C189.537 129.257 189.055 129.216 188.528 129.386C187.744 129.639 187.39 129.465 186.577 128.432L185.584 127.169L185.792 128.349ZM157.265 131.742C156.613 133.552 157.504 136.009 159.124 136.866C160.036 137.349 160.597 137.373 161.53 136.97C163.324 136.194 162.84 135.482 160.997 136.185C159.627 136.708 159.396 136.674 158.58 135.826C157.821 135.038 157.679 134.643 157.688 133.348C157.701 131.553 158.453 130.58 159.355 131.191C159.829 131.511 159.884 131.473 159.619 131.011C159.023 129.977 157.759 130.37 157.265 131.742ZM205.12 125.079C204.468 126.889 205.359 129.346 206.979 130.203C207.891 130.686 208.452 130.71 209.385 130.306C211.179 129.53 210.695 128.818 208.852 129.522C207.482 130.045 207.251 130.011 206.435 129.163C205.676 128.374 205.534 127.979 205.543 126.684C205.556 124.89 206.308 123.917 207.21 124.527C207.684 124.848 207.739 124.809 207.474 124.348C206.878 123.314 205.614 123.706 205.12 125.079ZM226.365 122.883C227.935 127.134 228.827 127.929 227.384 123.791C226.764 122.012 226.029 120.397 225.75 120.201C225.391 119.949 225.57 120.729 226.365 122.883ZM196.445 127.274C196.156 127.924 196.216 128.71 196.65 129.951C197.402 132.103 198.85 132.883 200.407 131.972C201.359 131.415 201.356 131.412 199.88 131.544C198.436 131.672 196.891 131.155 198.051 130.932C199.725 130.61 199.328 126.283 197.629 126.331C197.203 126.343 196.67 126.767 196.445 127.274ZM230.908 120.503C230.225 121.378 230.187 123.834 230.839 125.053C231.418 126.136 232.923 126.213 233.715 125.199C234.312 124.435 234.394 124.437 235.076 125.222C235.704 125.942 235.668 125.697 234.82 123.425C233.454 119.766 232.21 118.838 230.908 120.503ZM244.429 118.043C244.14 118.694 244.2 119.479 244.634 120.72C245.386 122.873 246.834 123.653 248.391 122.741C249.343 122.184 249.34 122.182 247.864 122.313C246.42 122.442 244.875 121.925 246.035 121.702C247.709 121.38 247.312 117.053 245.613 117.101C245.187 117.112 244.654 117.537 244.429 118.043ZM166.173 131.052C166.237 131.278 167.101 131.307 168.093 131.116C169.085 130.925 169.845 130.584 169.781 130.358C169.717 130.131 168.853 130.102 167.861 130.293C166.869 130.484 166.109 130.825 166.173 131.052ZM192.497 128.964C191.91 130.117 192.074 130.838 193.259 132.31C194.249 133.539 195.311 133.574 195.91 132.398C196.516 131.207 196.148 130.77 195.344 131.727C194.669 132.531 194.558 132.553 193.834 132.034C192.767 131.268 192.798 129.179 193.883 128.775C194.308 128.616 194.514 128.333 194.341 128.145C193.824 127.582 193.018 127.94 192.497 128.964ZM198.583 127.885C198.926 128.62 198.24 130.141 197.674 129.899C197.109 129.657 196.819 128.401 197.17 127.713C197.538 126.989 198.202 127.07 198.583 127.885ZM222.36 122.743C222.142 122.993 222.091 123.646 222.246 124.196C222.689 125.767 224.909 129.5 225.671 129.954C226.586 130.499 226.365 129.79 225.203 128.453C224.309 127.424 224.305 127.36 225.027 125.803C225.874 123.978 225.699 122.807 224.518 122.386C223.528 122.033 222.886 122.139 222.36 122.743ZM233.16 121.327C233.917 122.771 233.525 124.759 232.442 124.967C231.656 125.119 231.504 124.97 231.216 123.765C230.631 121.315 232.153 119.406 233.16 121.327ZM240.481 119.734C239.894 120.887 240.221 122.276 241.339 123.376C242.334 124.356 243.316 124.234 243.833 123.067C244.4 121.792 244.139 121.431 243.339 122.383C242.431 123.463 241.465 123.227 241.071 121.829C240.707 120.537 241.07 119.62 242.018 119.438C242.386 119.367 242.536 119.143 242.349 118.94C241.81 118.353 241.011 118.692 240.481 119.734ZM246.567 118.655C246.91 119.389 246.224 120.91 245.658 120.668C245.093 120.427 244.803 119.171 245.154 118.483C245.522 117.759 246.186 117.84 246.567 118.655ZM181.285 131.752C180.605 133.087 180.778 134.139 181.842 135.15C182.445 135.724 182.726 135.739 183.472 135.239C184.755 134.381 185.047 132.547 184.104 131.27C183.178 130.015 182.072 130.205 181.285 131.752ZM211.235 125.844C210.682 126.65 210.62 127.192 210.972 128.128C211.649 129.928 212.731 130.257 213.684 128.954C214.522 127.809 214.41 125.937 213.455 125.123C212.635 124.424 212.087 124.602 211.235 125.844ZM190.774 130.948C191.017 131.81 191.555 132.829 191.97 133.212C192.715 133.9 192.722 133.898 192.5 133.084C192.077 131.529 190.959 129.26 190.646 129.32C190.473 129.353 190.531 130.086 190.774 130.948ZM214.655 126.089C215.41 127.683 216.812 129.169 217.178 128.76C217.33 128.589 217.304 127.916 217.12 127.264C216.643 125.571 217.253 125.18 218.174 126.588C219.129 128.048 219.43 128.027 219.638 126.487C219.874 124.734 220.441 124.646 221.179 126.247C221.537 127.024 222.005 127.626 222.219 127.585C222.464 127.538 222.388 127.043 222.016 126.255C220.921 123.941 219.586 123.445 219.075 125.162C218.831 125.984 218.725 126.03 218.167 125.554C217.24 124.764 216.262 125.116 216.277 126.233C216.289 127.16 216.247 127.147 215.396 125.969C214.255 124.388 213.879 124.448 214.655 126.089ZM224.66 123.444C225.043 124.024 224.512 125.842 223.926 125.955C223.521 126.033 222.591 124.204 222.732 123.606C222.903 122.882 224.215 122.771 224.66 123.444ZM228.706 123.817C229.221 125.624 230.09 126.931 230.388 126.346C230.613 125.905 229.117 122.436 228.608 122.219C228.377 122.12 228.419 122.811 228.706 123.817ZM183.865 132.076C184.197 133.252 183.364 134.825 182.51 134.639C181.626 134.445 181.448 133.44 182.094 132.284C182.827 130.97 183.531 130.888 183.865 132.076ZM213.584 125.996C214.185 126.906 213.483 128.907 212.555 128.928C211.442 128.953 211.177 128.314 211.7 126.862C212.197 125.479 212.999 125.111 213.584 125.996ZM236.967 121.689C236.616 122.545 236.547 122.565 235.929 121.997C234.981 121.126 235.32 122.138 236.553 123.865L237.565 125.283L237.604 123.432C237.656 120.876 238.897 120.86 239.614 123.406C239.736 123.841 240.019 124.161 240.242 124.118C240.505 124.067 240.439 123.598 240.055 122.785C238.954 120.459 237.659 119.998 236.967 121.689ZM166.933 133.075C166.867 133.355 167.526 133.394 168.651 133.178C169.655 132.985 170.424 132.642 170.36 132.415C170.297 132.189 169.524 132.142 168.642 132.312C167.761 132.482 166.992 132.825 166.933 133.075ZM251.446 121.529C251.387 121.779 251.511 121.95 251.721 121.91C251.931 121.869 252.051 121.651 251.987 121.425C251.923 121.198 251.8 121.027 251.712 121.044C251.624 121.061 251.505 121.279 251.446 121.529ZM254.332 120.973C254.273 121.223 254.488 121.377 254.809 121.316C255.13 121.254 255.24 121.037 255.054 120.835C254.867 120.632 254.653 120.478 254.577 120.493C254.501 120.507 254.391 120.724 254.332 120.973ZM159.44 149.443C159.422 149.78 159.606 150.426 159.849 150.88C160.254 151.638 160.141 151.733 158.444 152.06C156.633 152.408 156.591 152.391 156.25 151.18C156.059 150.501 155.74 149.977 155.542 150.015C154.85 150.148 157.101 155.869 158.127 156.588C158.588 156.911 158.576 156.611 158.07 155.168L157.429 153.339L158.749 152.951C160.119 152.547 160.177 152.588 161.212 154.69C161.512 155.298 161.888 155.649 162.049 155.469C162.21 155.289 162.17 154.849 161.96 154.492C161.751 154.135 161.237 152.771 160.818 151.462C160.062 149.095 159.5 148.272 159.44 149.443ZM192.921 146.551C193.341 148.15 193.281 148.389 192.211 149.381C190.914 150.581 190.671 151.674 191.537 152.412C192.225 152.999 193.289 152.842 194.125 152.032C194.597 151.574 194.857 151.549 195.241 151.925C195.842 152.514 194.156 147.751 193.135 145.977C192.481 144.839 192.475 144.856 192.921 146.551ZM214.15 141.461C214.132 141.798 214.316 142.444 214.559 142.898C214.964 143.656 214.85 143.751 213.154 144.078C211.343 144.426 211.301 144.409 210.96 143.198C210.769 142.519 210.45 141.995 210.251 142.033C209.56 142.166 211.811 147.887 212.837 148.606C213.298 148.929 213.286 148.629 212.78 147.186L212.139 145.358L213.459 144.969C214.828 144.566 214.887 144.606 215.922 146.708C216.221 147.316 216.598 147.667 216.759 147.487C216.92 147.307 216.88 146.867 216.67 146.51C216.46 146.153 215.946 144.789 215.528 143.48C214.772 141.113 214.21 140.291 214.15 141.461ZM224.806 139.931C224.957 140.783 224.784 141.23 224.185 141.54C223.369 141.961 223.375 141.97 224.566 142.049C225.627 142.118 225.861 142.332 226.446 143.765C226.814 144.665 227.367 145.573 227.676 145.783C228.108 146.076 228.112 145.886 227.694 144.968C226.383 142.088 226.386 142.191 227.59 141.816C228.215 141.62 228.676 141.281 228.614 141.06C228.552 140.839 228.07 140.798 227.543 140.968C226.759 141.221 226.404 141.048 225.592 140.014L224.598 138.751L224.806 139.931ZM174.764 146.694L173.2 147.219L176.937 146.984L177.935 149.571C178.874 152.006 179.73 153.219 179.927 155.145C180.006 154.989 179.826 151.616 179.369 150.786C178.913 149.957 178.368 148.677 178.16 147.942C177.836 146.798 177.909 146.58 178.662 146.435C179.146 146.342 179.591 146.061 179.65 145.812C179.761 145.339 177.674 145.716 174.764 146.694ZM221.9 142.238C223.255 145.749 223.787 146.804 224.164 146.732C224.35 146.696 224.31 146.265 224.074 145.773C223.837 145.281 223.244 143.837 222.755 142.563C222.266 141.289 221.668 140.162 221.426 140.059C221.136 139.935 221.297 140.675 221.9 142.238ZM186.222 148.187C185.538 149.062 185.5 151.517 186.152 152.737C186.731 153.82 188.236 153.896 189.029 152.883C189.626 152.119 189.707 152.12 190.39 152.905C191.017 153.625 190.982 153.38 190.133 151.109C188.767 147.45 187.524 146.521 186.222 148.187ZM217.304 142.699C216.709 144.352 216.832 145.808 217.66 146.93C218.438 147.985 219.368 147.948 220.243 146.828C220.792 146.127 220.901 146.116 221.407 146.709C222.31 147.768 222.248 147.055 221.22 144.564C219.732 140.961 218.194 140.229 217.304 142.699ZM165.682 150.234C165.868 150.436 166.823 150.448 167.804 150.259C168.784 150.071 169.534 149.731 169.47 149.505C169.406 149.279 168.452 149.267 167.349 149.479C166.104 149.719 165.472 150.005 165.682 150.234ZM188.473 149.01C189.23 150.454 188.838 152.443 187.755 152.651C186.969 152.802 186.818 152.654 186.53 151.448C185.944 148.999 187.466 147.089 188.473 149.01ZM219.816 143.581C220.346 145.465 219.996 146.818 218.985 146.795C217.335 146.758 217.036 142.463 218.661 142.151C219.246 142.038 219.453 142.294 219.816 143.581ZM203.003 146.496C202.197 147.671 202.494 149.475 203.53 149.701C203.897 149.781 204.606 149.557 205.105 149.204C206.169 148.449 206.676 148.879 207.813 151.5C208.695 153.534 208.479 154.821 207.124 155.6C206.128 156.173 206.123 156.199 207.03 156.062C207.56 155.981 208.262 155.509 208.591 155.013C209.36 153.854 208.69 151.487 206.562 147.835C204.859 144.914 204.246 144.683 203.003 146.496ZM180.974 150.556C180.829 151.171 183.304 154.275 184.022 154.38C184.442 154.441 184.44 154.204 184.014 153.39C183.2 151.837 183.283 150.564 184.191 150.653C184.663 150.699 184.876 150.514 184.773 150.147C184.512 149.22 182.854 149.762 182.858 150.773C182.861 151.902 182.446 151.952 181.692 150.916C181.344 150.438 181.038 150.284 180.974 150.556ZM195.875 149.054C196.118 149.916 196.656 150.935 197.071 151.318C197.816 152.006 197.823 152.004 197.602 151.191C197.178 149.635 196.061 147.366 195.747 147.426C195.575 147.459 195.632 148.192 195.875 149.054ZM198.913 148.155C198.64 149.074 198.601 149.086 197.996 148.44C197.466 147.875 197.46 147.986 197.964 149.127C198.295 149.876 198.835 150.718 199.165 150.999C199.66 151.421 199.754 151.222 199.707 149.852C199.637 147.812 200.451 147.534 201.432 149.261C201.829 149.96 202.295 150.505 202.469 150.471C202.851 150.398 201.729 148.008 201.02 147.388C200.248 146.713 199.232 147.083 198.913 148.155ZM205.028 146.807C205.441 147.487 204.411 149.252 203.692 149.095C202.889 148.92 202.734 148.297 203.221 147.2C203.641 146.252 204.569 146.051 205.028 146.807ZM166.262 152.291C166.196 152.571 166.848 152.612 167.959 152.398C168.951 152.208 169.811 151.847 169.87 151.597C169.936 151.317 169.284 151.276 168.173 151.49C167.181 151.681 166.321 152.041 166.262 152.291ZM193.9 149.501C194.376 150.018 193.313 151.877 192.553 151.857C191.592 151.833 191.461 150.74 192.323 149.948C193.238 149.108 193.477 149.04 193.9 149.501ZM164.951 166.316C164.816 166.913 167.391 174.198 167.715 174.135C167.886 174.103 167.817 173.335 167.562 172.43C167.307 171.524 167.238 170.757 167.41 170.724C167.581 170.691 168.012 170.093 168.367 169.396C169.095 167.965 168.746 165.941 167.732 165.719C166.835 165.523 165.043 165.908 164.951 166.316ZM168.054 166.715C168.599 167.307 167.904 169.327 167.103 169.481C166.56 169.586 166.311 169.34 166.061 168.453C165.88 167.811 165.806 167.142 165.896 166.966C166.151 166.464 167.662 166.288 168.054 166.715ZM161.625 168.608C160.648 169.858 161.277 171.304 162.917 171.577C163.668 171.701 164.55 172.032 164.877 172.311C165.36 172.723 165.301 172.994 164.557 173.76C164.054 174.278 163.681 174.841 163.727 175.011C163.902 175.651 164.88 175.076 165.584 173.921C166.177 172.946 166.202 172.601 165.718 172.07C165.39 171.711 164.587 171.367 163.933 171.304C162.241 171.143 161.476 170.411 161.976 169.429C162.192 169.004 162.683 168.596 163.065 168.523C163.448 168.449 163.709 168.204 163.645 167.978C163.47 167.355 162.326 167.712 161.625 168.608ZM200.917 163.134C200.827 163.313 201.01 164.049 201.325 164.77C201.848 165.97 201.799 166.17 200.748 167.12C199.435 168.307 199.082 169.343 199.683 170.252C200.14 170.944 201.832 170.794 202.524 170C202.792 169.693 203.161 169.644 203.532 169.866C204.24 170.287 204.215 170.202 202.414 165.952C201.681 164.223 201.008 162.955 200.917 163.134ZM219.354 160.428C218.466 161.887 219.066 162.787 221.171 163.151C222.857 163.442 223.358 164.35 222.314 165.221C221.884 165.58 221.585 166.062 221.651 166.293C221.833 166.942 222.325 166.693 223.103 165.558C224.169 164.003 223.699 163.057 221.689 162.716C219.557 162.355 218.965 161.331 220.329 160.365C221.349 159.641 221.501 158.957 220.604 159.129C220.317 159.184 219.755 159.769 219.354 160.428ZM248.287 155.422C248.707 157.021 248.647 157.26 247.576 158.251C246.28 159.452 246.037 160.545 246.902 161.283C247.591 161.87 248.654 161.713 249.491 160.902C249.963 160.445 250.223 160.42 250.607 160.796C251.208 161.385 249.521 156.622 248.501 154.847C247.847 153.71 247.84 153.727 248.287 155.422ZM257.811 153.591C258.461 155.213 258.445 155.334 257.476 156.083C255.359 157.719 255.564 160.081 257.77 159.465C260.502 158.703 260.389 158.943 259.332 156.148C258.805 154.754 258.094 153.225 257.751 152.75C257.255 152.063 257.268 152.234 257.811 153.591ZM182.934 167.243L181.574 167.815L184.941 167.291L185.858 169.654C186.363 170.954 187.125 172.32 187.551 172.69C188.27 173.315 188.276 173.249 187.636 171.761C185.48 166.743 185.573 167.169 186.589 166.974C187.099 166.876 187.565 166.591 187.624 166.341C187.745 165.826 185.085 166.338 182.934 167.243ZM228.473 159.159C228.079 159.662 227.972 160.381 228.18 161.121C228.527 162.352 229.175 162.686 230.664 162.4C231.739 162.193 231.84 162.486 231.179 163.9C230.895 164.506 230.842 164.968 231.06 164.926C231.597 164.823 232.417 162.467 232.1 161.942C231.961 161.71 231.184 161.551 230.374 161.588C228.611 161.667 228.156 160.78 229.402 159.693C229.867 159.286 230.104 158.799 229.93 158.609C229.488 158.128 229.19 158.241 228.473 159.159ZM194.25 166.862C193.81 167.963 193.792 168.696 194.177 169.76C194.884 171.709 195.948 172.131 197.115 170.924C197.883 170.13 198.056 170.082 198.38 170.572C199.27 171.917 199.202 170.847 198.252 168.526C196.751 164.862 195.291 164.255 194.25 166.862ZM236.64 157.903C236.373 158.261 236.279 159.331 236.431 160.279C236.654 161.669 236.904 162.144 237.717 162.728C238.764 163.479 240.765 163.394 240.955 162.589C241.02 162.315 240.489 162.245 239.619 162.412C238.825 162.565 238.023 162.524 237.837 162.321C237.65 162.119 237.745 161.905 238.046 161.847C238.348 161.789 238.812 161.273 239.076 160.699C240.135 158.411 238.047 156.015 236.64 157.903ZM250.928 155.465C249.826 157.629 251.978 160.903 254.218 160.472C254.802 160.359 255.327 160.063 255.386 159.813C255.451 159.539 254.92 159.469 254.05 159.636C252.507 159.933 251.598 159.479 252.63 158.926C252.973 158.743 253.398 158.045 253.574 157.376C253.832 156.396 253.761 155.98 253.205 155.226C252.37 154.094 251.584 154.177 250.928 155.465ZM226.793 161.595C227.689 164.778 226.014 166.069 224.749 163.17C223.619 160.579 223.526 160.483 224.031 162.435C224.652 164.835 226.16 166.367 226.998 165.448C227.288 165.13 227.6 164.387 227.692 163.796C227.893 162.506 227.148 159.606 226.64 159.703C226.441 159.741 226.51 160.593 226.793 161.595ZM173.966 168.161C174.03 168.388 174.894 168.417 175.886 168.226C176.878 168.035 177.637 167.694 177.574 167.467C177.51 167.241 176.646 167.212 175.654 167.403C174.662 167.594 173.902 167.935 173.966 168.161ZM196.858 167.659C197.445 169.287 197.044 170.602 195.896 170.823C195.35 170.928 195.118 170.666 194.82 169.608C193.978 166.62 195.842 164.837 196.858 167.659ZM232.346 159.681C232.131 160.23 232.297 160.81 233.141 162.456C234.523 165.154 235.847 167.042 236.295 166.956C236.8 166.859 236.585 166.334 235.709 165.525C234.626 164.525 234.48 163.69 235.172 162.438C235.505 161.835 235.759 160.968 235.736 160.512C235.65 158.797 232.95 158.136 232.346 159.681ZM238.577 158.873C238.93 160.126 238.26 161.279 237.497 160.732C237.096 160.444 236.989 160.058 237.081 159.225C237.238 157.787 238.206 157.559 238.577 158.873ZM252.984 156.267C253.339 157.11 252.496 158.451 251.886 158.013C251.393 157.659 251.185 156.494 251.503 155.87C251.908 155.075 252.554 155.248 252.984 156.267ZM204.345 166.812C204.888 168.85 205.751 170.262 206.071 169.632C206.162 169.454 205.687 168.283 205.016 167.028L203.796 164.748L204.345 166.812ZM211.469 164.15C210.443 165.168 210.431 166.597 211.444 167.324C212.09 167.788 212.369 167.761 213.226 167.154C214.546 166.218 214.959 166.547 215.961 169.333C216.88 171.891 216.736 172.691 215.193 173.581C214.217 174.144 214.214 174.164 215.125 174.026C216.686 173.789 217.577 172.071 217.055 170.3C216.424 168.156 213.491 163.344 212.82 163.352C212.516 163.356 211.908 163.715 211.469 164.15ZM189.222 168.608C189.444 169.439 191.824 172.474 192.196 172.402C192.366 172.37 192.332 171.546 192.122 170.573C191.782 168.996 191.836 168.796 192.612 168.745C193.717 168.671 193.23 167.705 192.1 167.731C191.587 167.743 191.244 168.102 191.133 168.747L190.962 169.745L190.013 168.88C189.413 168.334 189.122 168.234 189.222 168.608ZM234.875 159.873C235.353 160.393 234.744 162.58 234.149 162.479C233.59 162.385 233.02 161.287 233.066 160.394C233.103 159.664 234.353 159.305 234.875 159.873ZM207.314 166.02C206.919 166.911 206.856 166.929 206.216 166.339C205.285 165.482 205.57 166.428 206.756 168.128C207.752 169.557 208.461 169.441 208.042 167.919C207.905 167.422 207.864 166.73 207.95 166.38C208.185 165.431 209.364 165.881 209.692 167.046C209.849 167.605 210.173 168.146 210.411 168.248C211.098 168.542 210.387 166.594 209.482 165.703C208.469 164.706 207.858 164.795 207.314 166.02ZM213.247 164.815C213.511 165.751 212.637 167.357 212.01 167.089C211.291 166.782 211.058 165.393 211.625 164.795C212.409 163.969 213.011 163.976 213.247 164.815ZM242.765 159.204C242.496 160.324 242.165 160.421 241.684 159.521C241.44 159.065 241.402 159.191 241.571 159.893C241.811 160.893 243.21 162.622 243.375 162.123C243.417 161.996 243.455 161.306 243.458 160.589C243.468 158.849 244.271 158.787 245.328 160.446C246.172 161.773 246.183 161.776 245.89 160.635C245.253 158.153 243.24 157.231 242.765 159.204ZM174.726 170.184C174.66 170.464 175.319 170.504 176.444 170.287C177.448 170.094 178.217 169.751 178.153 169.525C178.09 169.298 177.317 169.252 176.435 169.421C175.554 169.591 174.785 169.934 174.726 170.184ZM202.309 167.839C202.544 168.675 201.803 169.687 200.816 169.877C199.986 170.036 199.821 168.92 200.538 168.003C201.379 166.926 202.034 166.865 202.309 167.839ZM249.266 158.372C249.742 158.889 248.679 160.748 247.919 160.728C246.958 160.703 246.827 159.611 247.689 158.818C248.604 157.979 248.843 157.911 249.266 158.372ZM258.836 156.871C259.2 157.469 257.789 159.071 257.042 158.908C256.254 158.736 256.323 157.696 257.17 156.953C257.941 156.277 258.459 156.252 258.836 156.871ZM171.447 184.334C171.287 185.013 172.745 189.646 173.571 191.087C174.174 192.137 174.184 192.11 173.786 190.537C173.436 189.152 173.517 188.711 174.286 187.835C175.401 186.563 175.557 184.699 174.615 183.896C173.859 183.252 171.63 183.561 171.447 184.334ZM217.907 177.759C217.772 178.356 220.347 185.641 220.671 185.578C220.842 185.545 220.773 184.778 220.518 183.872C220.263 182.967 220.195 182.199 220.366 182.167C220.537 182.134 220.968 181.536 221.323 180.839C222.051 179.408 221.702 177.384 220.688 177.162C219.791 176.966 217.999 177.351 217.907 177.759ZM170.417 187.172C170.984 188.673 171.327 189.925 171.18 189.953C171.032 189.982 170.14 189.568 169.197 189.033C168.254 188.499 167.12 188.132 166.676 188.217C165.912 188.364 165.915 188.484 166.728 190.485C167.904 193.382 168.869 194.001 167.769 191.152C166.786 188.605 167.051 188.44 169.534 190.053C172.401 191.915 172.725 191.573 171.417 188.064C170.815 186.45 170.112 184.975 169.854 184.786C169.548 184.562 169.743 185.389 170.417 187.172ZM192.67 185.434C193.822 188.576 193.658 188.803 191.311 187.322C189.381 186.104 188.084 186.205 188.467 187.543C188.981 189.339 190.053 191.468 190.409 191.4C190.632 191.357 190.458 190.567 189.95 189.319C189.471 188.142 189.272 187.28 189.47 187.242C189.657 187.206 190.672 187.694 191.726 188.326C194.576 190.035 194.958 189.781 193.866 186.908C193.374 185.614 192.678 184.137 192.32 183.627C191.828 182.927 191.914 183.372 192.67 185.434ZM174.501 184.909C174.618 185.327 174.509 186.001 174.258 186.409C173.276 187.997 173.083 187.977 172.593 186.237C172.147 184.655 172.18 184.556 173.205 184.358C174.016 184.202 174.34 184.34 174.501 184.909ZM221.01 178.158C221.555 178.75 220.86 180.77 220.059 180.924C219.516 181.029 219.267 180.782 219.017 179.896C218.836 179.254 218.762 178.585 218.852 178.409C219.108 177.907 220.618 177.731 221.01 178.158ZM199.781 183.415C199.934 184.276 199.768 184.652 199.128 184.898C198.324 185.207 198.359 185.245 199.673 185.482C200.906 185.706 201.158 185.937 201.76 187.402C202.464 189.117 202.984 189.76 203.248 189.241C203.331 189.078 203.05 188.387 202.625 187.706C201.424 185.781 201.423 185.377 202.621 185.146C203.216 185.032 203.645 184.731 203.574 184.478C203.502 184.226 203.168 184.167 202.83 184.348C201.915 184.838 200.855 184.28 200.534 183.14C200.145 181.76 199.528 181.985 199.781 183.415ZM234.881 175.688C234.791 175.867 234.974 176.603 235.288 177.324C235.812 178.524 235.763 178.724 234.711 179.674C233.398 180.861 233.046 181.897 233.647 182.806C234.104 183.498 235.796 183.348 236.488 182.554C236.755 182.247 237.124 182.198 237.496 182.42C238.203 182.841 238.179 182.756 236.378 178.506C235.645 176.777 234.971 175.509 234.881 175.688ZM210.747 181.873C209.713 182.963 210.857 186.485 212.494 187.253C213.203 187.585 214.905 187.19 215.029 186.664C215.093 186.39 214.563 186.319 213.693 186.487C212.899 186.64 212.097 186.599 211.911 186.396C211.724 186.193 211.819 185.98 212.12 185.922C212.899 185.772 213.678 183.893 213.387 182.863C212.943 181.285 211.734 180.832 210.747 181.873ZM223.409 179.783C223.12 180.433 223.181 181.219 223.614 182.46C224.367 184.612 225.815 185.392 227.371 184.481C228.323 183.924 228.32 183.921 226.844 184.052C225.401 184.181 223.856 183.664 225.016 183.441C226.689 183.119 226.293 178.792 224.594 178.84C224.167 178.852 223.634 179.276 223.409 179.783ZM180.381 188.557C180.445 188.783 181.309 188.812 182.301 188.621C183.293 188.43 184.053 188.089 183.989 187.863C183.925 187.636 183.061 187.607 182.069 187.798C181.077 187.989 180.317 188.33 180.381 188.557ZM206.69 183.856C206.16 185.049 206.797 187.07 207.937 187.813C208.709 188.314 209.004 188.308 209.639 187.778C210.509 187.053 210.47 185.962 209.598 186.625C208.357 187.57 208.015 187.419 207.536 185.719C207.143 184.322 207.191 184.029 207.852 183.784C208.281 183.624 208.49 183.34 208.318 183.152C207.817 182.608 207.107 182.915 206.69 183.856ZM212.651 182.947C213.004 184.201 212.334 185.354 211.571 184.806C211.17 184.518 211.063 184.132 211.155 183.299C211.312 181.862 212.28 181.634 212.651 182.947ZM225.547 180.394C225.89 181.129 225.204 182.65 224.638 182.407C224.074 182.166 223.784 180.91 224.134 180.222C224.503 179.498 225.167 179.579 225.547 180.394ZM195.801 186.098C194.449 187.29 194.982 190.209 196.597 190.457C198.425 190.739 199.396 187.14 197.848 185.821C197.158 185.234 196.712 185.295 195.801 186.098ZM205.117 185.751C205.66 187.789 206.523 189.2 206.843 188.571C206.934 188.393 206.459 187.222 205.788 185.967L204.567 183.687L205.117 185.751ZM237.71 177.855C237.541 178.561 238.957 181.978 239.518 182.218C240.28 182.544 240.163 181.958 239.003 179.616C238.292 178.182 237.795 177.505 237.71 177.855ZM245.085 176.99C244.278 178.167 244.425 179.324 245.461 179.94C246.11 180.327 246.655 180.177 247.804 179.297C248.818 178.52 251.155 183.802 250.35 185.052C250.141 185.376 249.558 185.886 249.053 186.184L248.136 186.727L249.154 186.569C250.497 186.36 251.488 184.423 251.029 182.903C250.838 182.273 249.936 180.437 249.023 178.823C247.152 175.514 246.352 175.141 245.085 176.99ZM197.757 186.624C198.154 187.693 198.142 188.413 197.717 189.018C196.595 190.616 195.205 189.312 196.067 187.469C196.657 186.209 197.456 185.81 197.757 186.624ZM229.435 180.892C229.162 181.811 229.124 181.823 228.518 181.177C227.988 180.612 227.982 180.723 228.487 181.865C228.817 182.613 229.357 183.455 229.687 183.736C230.182 184.158 230.276 183.959 230.229 182.589C230.16 180.549 230.973 180.271 231.954 181.998C232.351 182.697 232.818 183.242 232.991 183.208C233.373 183.135 232.251 180.745 231.542 180.125C230.77 179.45 229.754 179.82 229.435 180.892ZM241.154 178.638C240.715 179.589 240.67 179.602 240.098 178.95C239.168 177.89 239.656 179.161 240.788 180.746L241.801 182.164L241.839 180.313C241.892 177.757 243.132 177.741 243.849 180.288C243.972 180.722 244.254 181.042 244.478 180.999C244.741 180.948 244.675 180.479 244.29 179.666C243.168 177.295 241.959 176.898 241.154 178.638ZM247.222 177.409C247.462 178.262 246.481 179.86 245.876 179.601C245.239 179.329 245.058 177.909 245.589 177.349C246.384 176.511 246.975 176.533 247.222 177.409ZM180.961 190.614C181.025 190.841 181.798 190.887 182.679 190.718C183.56 190.548 184.329 190.205 184.388 189.955C184.454 189.675 183.795 189.635 182.67 189.852C181.666 190.045 180.897 190.388 180.961 190.614ZM236.272 180.393C236.508 181.229 235.767 182.241 234.78 182.43C233.95 182.59 233.785 181.474 234.502 180.557C235.343 179.48 235.998 179.419 236.272 180.393Z" fill="#39210F"/>
<path d="M131.323 164.784L115.299 98.1851L143.934 180.277L131.323 164.784Z" fill="#FFF3D3"/>
<path d="M266.103 247.479L213.335 246.185L286.041 234.852L266.103 247.479Z" fill="#FFF3D3"/>
<ellipse cx="135.377" cy="44.4795" rx="4.35101" ry="2.08909" transform="rotate(20.4819 135.377 44.4795)" fill="#E9DAB2"/>
<ellipse cx="150.378" cy="41.4795" rx="4.35101" ry="2.08909" transform="rotate(20.4819 150.378 41.4795)" fill="#E9DAB2"/>
<ellipse cx="163.118" cy="39.2917" rx="4.11621" ry="1.97636" transform="rotate(20.4819 163.118 39.2917)" fill="#E9DAB2"/>
<ellipse cx="178.717" cy="37.0925" rx="4.11621" ry="1.97636" transform="rotate(20.4819 178.717 37.0925)" fill="#E9DAB2"/>
<ellipse cx="190.956" cy="34.9126" rx="4.11621" ry="1.97636" transform="rotate(20.4819 190.956 34.9126)" fill="#E9DAB2"/>
<ellipse cx="206.833" cy="32.4038" rx="4.11621" ry="1.97636" transform="rotate(20.4819 206.833 32.4038)" fill="#E9DAB2"/>
<ellipse cx="219.843" cy="30.5122" rx="4.11621" ry="1.97636" transform="rotate(20.4819 219.843 30.5122)" fill="#E9DAB2"/>
<ellipse cx="236.49" cy="28.2915" rx="4.11621" ry="1.97636" transform="rotate(20.4819 236.49 28.2915)" fill="#E9DAB2"/>
<path d="M163.19 41.1772C162.481 40.8856 162.171 40.0567 162.436 39.3376V39.3376C164.754 33.0539 161.919 27.272 157.637 25.6925C153.356 24.113 147.445 26.6687 145.127 32.9524C145.125 32.958 145.123 32.9635 145.121 32.969L142.019 33.3727C142.144 32.904 142.292 32.4359 142.464 31.9701C145.094 24.839 152.294 20.9273 158.545 23.2331C164.795 25.5388 167.73 33.1889 165.099 40.32C165.078 40.3789 165.056 40.4377 165.033 40.4962C164.766 41.1948 163.966 41.4967 163.275 41.2121L163.19 41.1772Z" fill="#6A6A6A"/>
<path d="M190.672 36.7432C189.948 36.4428 189.63 35.598 189.903 34.8638C189.908 34.8488 189.914 34.8338 189.919 34.8188C192.359 28.2043 189.751 22.2567 185.612 20.7299C181.473 19.203 175.627 22.0319 173.187 28.6464C173.185 28.6522 173.182 28.658 173.18 28.6639L170.139 29.1712C170.274 28.6792 170.432 28.1872 170.613 27.6968C173.382 20.1904 180.524 15.9121 186.567 18.141C192.609 20.3699 195.263 28.2619 192.494 35.7683C192.459 35.8613 192.424 35.9538 192.389 36.0458C192.125 36.7261 191.345 37.023 190.672 36.7432V36.7432Z" fill="#6A6A6A"/>
<path d="M219.031 31.7745C218.284 31.4655 217.952 30.5911 218.232 29.8326V29.8326C220.672 23.2182 217.917 17.2168 213.636 15.6374C209.354 14.0579 203.362 16.833 200.922 23.4474C200.92 23.4533 200.918 23.4591 200.916 23.4649L197.787 23.9403C197.921 23.4478 198.078 22.9555 198.259 22.4651C201.028 14.9587 208.34 10.7427 214.591 13.0485C220.841 15.3542 223.664 23.3086 220.895 30.815C220.865 30.8959 220.834 30.9764 220.804 31.0566C220.533 31.7583 219.726 32.062 219.031 31.7745V31.7745Z" fill="#6A6A6A"/>
<path d="M151.228 43.6217C150.481 43.3126 150.149 42.4383 150.429 41.6798V41.6798C152.869 35.0653 150.114 29.064 145.833 27.4845C141.551 25.905 135.559 28.6801 133.119 35.2946C133.117 35.3004 133.115 35.3063 133.113 35.3121L129.984 35.7874C130.118 35.2949 130.275 34.8026 130.456 34.3123C133.225 26.8059 140.537 22.5899 146.788 24.8957C153.038 27.2014 155.861 35.1557 153.092 42.6622C153.062 42.7431 153.032 42.8236 153.001 42.9037C152.73 43.6054 151.923 43.9092 151.228 43.6217V43.6217Z" fill="#6A6A6A"/>
<path d="M177.883 38.8824C177.159 38.5819 176.84 37.7371 177.114 37.0029C177.119 36.9879 177.125 36.9729 177.13 36.9579C179.57 30.3434 176.962 24.3959 172.823 22.869C168.684 21.3422 162.838 24.1711 160.398 30.7855C160.396 30.7914 160.393 30.7972 160.391 30.803L157.35 31.3103C157.485 30.8184 157.643 30.3263 157.823 29.8359C160.592 22.3295 167.735 18.0513 173.778 20.2802C179.82 22.5091 182.474 30.4011 179.705 37.9075C179.67 38.0005 179.635 38.093 179.6 38.185C179.336 38.8652 178.556 39.1622 177.883 38.8824V38.8824Z" fill="#6A6A6A"/>
<path d="M206.167 33.8867C205.458 33.5951 205.149 32.7662 205.414 32.0471V32.0471C207.732 25.7634 204.897 19.9814 200.615 18.402C196.333 16.8225 190.422 19.3782 188.104 25.6619C188.102 25.6674 188.1 25.673 188.098 25.6785L184.996 26.0822C185.121 25.6135 185.269 25.1454 185.441 24.6796C188.072 17.5485 195.271 13.6368 201.522 15.9425C207.773 18.2483 210.707 25.8984 208.077 33.0295C208.055 33.0884 208.033 33.1471 208.011 33.2057C207.744 33.9043 206.943 34.2061 206.252 33.9216L206.167 33.8867Z" fill="#6A6A6A"/>
<path d="M235.395 29.2391C234.648 28.9301 234.317 28.0557 234.596 27.2972V27.2972C237.036 20.6828 234.282 14.6814 230 13.102C225.718 11.5225 219.727 14.2976 217.287 20.912C217.285 20.9179 217.282 20.9237 217.28 20.9295L214.152 21.4049C214.286 20.9124 214.443 20.4201 214.624 19.9297C217.393 12.4233 224.705 8.20732 230.955 10.5131C237.206 12.8188 240.028 20.7732 237.259 28.2796C237.23 28.3605 237.199 28.441 237.168 28.5212C236.898 29.2229 236.09 29.5266 235.395 29.2391V29.2391Z" fill="#6A6A6A"/>
<path d="M135.896 45.6815C135.149 45.3724 134.817 44.4981 135.097 43.7396V43.7396C137.537 37.1252 134.782 31.1238 130.501 29.5443C126.219 27.9648 120.227 30.7399 117.787 37.3544C117.785 37.3602 117.783 37.3661 117.781 37.3719L114.652 37.8473C114.786 37.3548 114.943 36.8625 115.124 36.3721C117.893 28.8657 125.205 24.6497 131.456 26.9555C137.706 29.2612 140.529 37.2156 137.76 44.722C137.73 44.8029 137.699 44.8834 137.669 44.9636C137.398 45.6652 136.591 45.969 135.896 45.6815V45.6815Z" fill="#6A6A6A"/>
<path d="M122.438 188.234C122.438 188.234 127.462 155.994 125.593 130.416C123.684 104.818 127.864 97.0051 133.289 97.0051C138.714 97.0051 151.454 90.6056 152.86 142.63C152.86 142.63 154.508 176.404 170.784 198.913C187.06 221.422 172.673 263.615 172.673 263.615L166.062 353.511H98.8484C98.8484 353.511 108.755 314.327 106.404 297.752C104.053 281.158 83.0548 222.149 71.963 206.988C60.8713 191.827 64.4078 179.735 64.4078 179.735L82.0903 129.023C82.0903 129.023 89.9982 112.015 105.071 109L113.571 133.573C113.571 133.573 113.309 143.667 108.587 146.998C103.865 150.309 97.4218 164.089 100.034 170.731C102.646 177.373 122.438 188.234 122.438 188.234Z" fill="#FCB59F"/>
<path d="M377.011 58.744C377.438 58.744 377.758 58.8827 377.971 59.16C378.206 59.416 378.323 59.768 378.323 60.216C378.323 60.7067 378.195 61.2613 377.939 61.88C377.192 62.5627 376.35 63.4693 375.411 64.6C374.472 65.7307 373.363 67.1387 372.083 68.824C373.256 70.744 374.206 72.1947 374.931 73.176C375.656 74.136 376.35 74.7973 377.011 75.16C377.288 75.3093 377.619 75.4373 378.003 75.544C378.494 75.6933 378.856 75.8427 379.091 75.992C379.326 76.1413 379.443 76.3653 379.443 76.664C379.443 77.2613 379.166 77.7093 378.611 78.008C378.056 78.2853 377.384 78.424 376.595 78.424C375.571 78.424 374.558 77.8587 373.555 76.728C372.574 75.5973 371.39 73.912 370.003 71.672C368.659 73.4427 367.539 74.8827 366.643 75.992C365.747 77.08 364.936 77.9653 364.211 78.648C364.062 78.776 363.848 78.8827 363.571 78.968C363.294 79.032 363.059 79.064 362.867 79.064C362.398 79.064 361.992 78.872 361.651 78.488C361.331 78.104 361.16 77.7093 361.139 77.304C361.139 77.24 361.256 77.0267 361.491 76.664C361.726 76.3013 362.088 75.8853 362.579 75.416C363.112 75.0107 363.806 74.2853 364.659 73.24C365.534 72.1947 366.707 70.712 368.179 68.792L367.251 67.32C366.44 66.04 365.843 65.1227 365.459 64.568C365.075 64.0133 364.712 63.5973 364.371 63.32C364.03 63.0213 363.667 62.872 363.283 62.872C363.155 62.872 362.952 62.9147 362.675 63C362.419 63.064 362.206 63.096 362.035 63.096C361.8 63.096 361.587 63.0533 361.395 62.968C360.862 62.7333 360.595 62.3813 360.595 61.912C360.595 61.6987 360.638 61.5173 360.723 61.368C360.894 60.984 361.246 60.632 361.779 60.312C362.334 59.9707 363.08 59.8 364.019 59.8C364.894 59.8 365.651 60.024 366.291 60.472C366.931 60.92 367.518 61.528 368.051 62.296C368.606 63.064 369.363 64.2693 370.323 65.912C372.435 63.0533 373.928 61.1333 374.803 60.152C375.315 59.5547 375.72 59.1707 376.019 59C376.318 58.8293 376.648 58.744 377.011 58.744ZM382.601 77.496C382.601 76.792 382.643 76.0133 382.729 75.16C382.814 74.1787 382.857 72.9413 382.857 71.448C382.857 68.7173 382.739 66.0827 382.505 63.544C382.377 61.9653 382.313 60.8453 382.313 60.184C382.313 59.736 382.537 59.3627 382.985 59.064C383.433 58.744 383.891 58.584 384.361 58.584C384.659 58.584 385.022 58.6053 385.449 58.648C385.875 58.6907 386.185 58.712 386.377 58.712C391.177 58.712 394.707 60.0027 396.969 62.584C398.398 64.248 399.113 66.456 399.113 69.208C399.113 70.36 398.899 71.5227 398.473 72.696C398.067 73.848 397.481 74.7867 396.713 75.512C395.881 76.3227 395.091 76.9733 394.345 77.464C393.619 77.9333 392.627 78.328 391.369 78.648C390.131 78.968 388.542 79.128 386.601 79.128C385.363 79.128 384.382 78.9893 383.657 78.712C382.953 78.4347 382.601 78.0293 382.601 77.496ZM387.817 76.216C389.246 76.216 390.558 75.96 391.753 75.448C392.947 74.9147 393.907 74.1253 394.633 73.08C395.358 72.0133 395.721 70.712 395.721 69.176C395.721 67.6613 395.507 66.4027 395.081 65.4C394.654 64.376 393.918 63.544 392.873 62.904C392.083 62.4133 391.113 62.0613 389.961 61.848C388.809 61.6133 387.422 61.496 385.801 61.496C385.801 61.7093 385.822 62.2 385.865 62.968C385.907 63.6933 385.929 64.3013 385.929 64.792L385.961 65.496C386.089 67.7147 386.153 69.4747 386.153 70.776C386.153 72.824 386.035 74.5947 385.801 76.088C386.313 76.1733 386.985 76.216 387.817 76.216Z" fill="#B8B8B8"/>
<path d="M31.9 40.34C32.1667 40.34 32.3667 40.4267 32.5 40.6C32.6467 40.76 32.72 40.98 32.72 41.26C32.72 41.5667 32.64 41.9133 32.48 42.3C32.0133 42.7267 31.4867 43.2933 30.9 44C30.3133 44.7067 29.62 45.5867 28.82 46.64C29.5533 47.84 30.1467 48.7467 30.6 49.36C31.0533 49.96 31.4867 50.3733 31.9 50.6C32.0733 50.6933 32.28 50.7733 32.52 50.84C32.8267 50.9333 33.0533 51.0267 33.2 51.12C33.3467 51.2133 33.42 51.3533 33.42 51.54C33.42 51.9133 33.2467 52.1933 32.9 52.38C32.5533 52.5533 32.1333 52.64 31.64 52.64C31 52.64 30.3667 52.2867 29.74 51.58C29.1267 50.8733 28.3867 49.82 27.52 48.42C26.68 49.5267 25.98 50.4267 25.42 51.12C24.86 51.8 24.3533 52.3533 23.9 52.78C23.8067 52.86 23.6733 52.9267 23.5 52.98C23.3267 53.02 23.18 53.04 23.06 53.04C22.7667 53.04 22.5133 52.92 22.3 52.68C22.1 52.44 21.9933 52.1933 21.98 51.94C21.98 51.9 22.0533 51.7667 22.2 51.54C22.3467 51.3133 22.5733 51.0533 22.88 50.76C23.2133 50.5067 23.6467 50.0533 24.18 49.4C24.7267 48.7467 25.46 47.82 26.38 46.62L25.8 45.7C25.2933 44.9 24.92 44.3267 24.68 43.98C24.44 43.6333 24.2133 43.3733 24 43.2C23.7867 43.0133 23.56 42.92 23.32 42.92C23.24 42.92 23.1133 42.9467 22.94 43C22.78 43.04 22.6467 43.06 22.54 43.06C22.3933 43.06 22.26 43.0333 22.14 42.98C21.8067 42.8333 21.64 42.6133 21.64 42.32C21.64 42.1867 21.6667 42.0733 21.72 41.98C21.8267 41.74 22.0467 41.52 22.38 41.32C22.7267 41.1067 23.1933 41 23.78 41C24.3267 41 24.8 41.14 25.2 41.42C25.6 41.7 25.9667 42.08 26.3 42.56C26.6467 43.04 27.12 43.7933 27.72 44.82C29.04 43.0333 29.9733 41.8333 30.52 41.22C30.84 40.8467 31.0933 40.6067 31.28 40.5C31.4667 40.3933 31.6733 40.34 31.9 40.34ZM45.6134 48.96C45.6134 49.7067 45.3268 50.42 44.7534 51.1C44.1934 51.7667 43.4801 52.2933 42.6134 52.68C42.2401 52.8 41.7668 52.9 41.1934 52.98C40.6201 53.0467 40.0401 53.0867 39.4534 53.1C38.3068 53.1 37.2401 52.94 36.2534 52.62C36.0801 52.58 35.8801 52.4667 35.6534 52.28C35.4268 52.0933 35.3201 51.8467 35.3334 51.54V50.86C35.3334 50.1133 35.3134 49.3933 35.2734 48.7C35.2468 47.7933 35.2334 47.1 35.2334 46.62L35.2134 44.36C35.2134 43.56 35.2401 42.7533 35.2934 41.94C35.3068 41.5267 35.4601 41.18 35.7534 40.9C36.0601 40.6067 36.4401 40.4267 36.8934 40.36C37.0668 40.3467 37.3801 40.34 37.8334 40.34L39.7534 40.36C40.6734 40.36 41.4934 40.48 42.2134 40.72C42.9334 40.96 43.5534 41.3467 44.0734 41.88C44.2468 42.08 44.3868 42.3467 44.4934 42.68C44.6001 43 44.6534 43.3133 44.6534 43.62C44.6134 44.7 43.9934 45.58 42.7934 46.26C43.7534 46.38 44.4601 46.68 44.9134 47.16C45.3801 47.64 45.6134 48.24 45.6134 48.96ZM38.0534 45.78C38.1868 45.7667 38.4001 45.76 38.6934 45.76H39.5934C39.9934 45.76 40.2734 45.7467 40.4334 45.72C41.7934 45.4133 42.4734 44.8733 42.4734 44.1C42.4734 43.9 42.4401 43.6867 42.3734 43.46C42.3201 43.2333 42.2468 43.0733 42.1534 42.98C41.8068 42.6467 41.4801 42.4333 41.1734 42.34C40.8668 42.2333 40.4134 42.18 39.8134 42.18C38.6534 42.18 37.8201 42.24 37.3134 42.36L37.3334 45.8L38.0534 45.78ZM38.9734 51.42C40.3601 51.42 41.4468 51.2467 42.2334 50.9C43.0334 50.5533 43.4334 49.8733 43.4334 48.86C43.4334 48.46 43.1401 48.1333 42.5534 47.88C41.9668 47.6133 41.3268 47.48 40.6334 47.48C39.7801 47.48 39.1801 47.5 38.8334 47.54C38.5401 47.5667 38.3401 47.58 38.2334 47.58C38.0334 47.58 37.8934 47.5733 37.8134 47.56C37.7468 47.56 37.6668 47.56 37.5734 47.56C37.4934 47.5467 37.4068 47.5467 37.3134 47.56L37.3334 48.22C37.3468 48.38 37.3668 48.82 37.3934 49.54C37.4334 50.2467 37.4401 50.7467 37.4134 51.04C37.7201 51.1733 37.9868 51.2733 38.2134 51.34C38.4401 51.3933 38.6934 51.42 38.9734 51.42Z" fill="#B8B8B8"/>
<path d="M367.331 120.512C367.331 120.048 367.435 119.648 367.643 119.312C367.867 118.96 368.195 118.784 368.627 118.784C368.995 118.784 369.323 118.856 369.611 119C369.899 119.144 370.043 119.384 370.043 119.72C370.043 120.376 370.011 121.296 369.947 122.48C369.883 123.632 369.851 124.488 369.851 125.048C369.851 125.928 369.883 127.104 369.947 128.576C370.011 129.984 370.043 131.016 370.043 131.672C370.043 132.2 370.035 132.592 370.019 132.848C370.019 133.104 369.875 133.36 369.587 133.616C369.315 133.856 368.891 133.976 368.315 133.976C368.011 133.976 367.747 133.928 367.523 133.832C367.315 133.72 367.171 133.6 367.091 133.472C366.339 132.56 365.243 131.008 363.803 128.816C362.187 126.368 360.867 124.496 359.843 123.2C359.971 124.352 360.035 125.76 360.035 127.424C360.035 128.16 360.019 129.12 359.987 130.304C359.971 131.472 359.939 132.24 359.891 132.608C359.827 133.072 359.683 133.432 359.459 133.688C359.251 133.928 358.915 134.048 358.451 134.048C358.099 134.048 357.835 133.952 357.659 133.76C357.499 133.552 357.403 133.2 357.371 132.704C357.355 132.048 357.395 131.064 357.491 129.752C357.507 129.544 357.531 129.184 357.563 128.672C357.595 128.16 357.611 127.704 357.611 127.304C357.611 126.2 357.555 124.936 357.443 123.512C357.347 121.944 357.299 120.784 357.299 120.032C357.299 119.648 357.435 119.352 357.707 119.144C357.995 118.936 358.323 118.832 358.691 118.832C359.011 118.832 359.347 118.912 359.699 119.072C361.075 120.8 362.939 123.376 365.291 126.8L367.547 130.256C367.563 130 367.571 129.64 367.571 129.176C367.571 128.36 367.555 127.48 367.523 126.536C367.491 125.592 367.467 124.952 367.451 124.616C367.371 123.064 367.331 121.696 367.331 120.512ZM379.422 128.576C378.798 128.576 378.27 128.56 377.838 128.528C377.422 128.48 376.87 128.408 376.182 128.312L376.158 130.832C376.142 131.264 376.134 131.88 376.134 132.68C376.134 133.096 376.014 133.424 375.774 133.664C375.55 133.888 375.294 134 375.006 134C374.478 134 374.086 133.936 373.83 133.808C373.574 133.664 373.446 133.416 373.446 133.064C373.446 132.6 373.486 131.944 373.566 131.096C373.742 129.272 373.83 127.4 373.83 125.48C373.83 123.688 373.774 122 373.662 120.416C373.678 120.192 373.79 119.936 373.998 119.648C374.222 119.36 374.502 119.2 374.838 119.168C375.206 119.168 375.79 119.104 376.59 118.976C377.422 118.848 378.054 118.784 378.486 118.784C379.798 118.784 380.814 118.912 381.534 119.168C382.27 119.424 383.006 119.848 383.742 120.44C384.542 121.688 384.942 122.568 384.942 123.08C384.942 124.152 384.726 125.104 384.294 125.936C383.862 126.768 383.23 127.416 382.398 127.88C381.566 128.344 380.574 128.576 379.422 128.576ZM378.87 120.824C378.358 120.824 377.91 120.856 377.526 120.92C377.158 120.968 376.71 121.056 376.182 121.184C376.246 122.656 376.278 123.728 376.278 124.4C376.278 125.088 376.254 125.664 376.206 126.128C376.894 126.272 377.438 126.368 377.838 126.416C378.238 126.448 378.686 126.464 379.182 126.464C380.366 126.464 381.198 126.16 381.678 125.552C382.174 124.928 382.422 124.208 382.422 123.392C382.422 123.152 382.35 122.856 382.206 122.504C382.062 122.152 381.934 121.92 381.822 121.808C381.39 121.424 380.966 121.168 380.55 121.04C380.15 120.896 379.59 120.824 378.87 120.824Z" fill="#B8B8B8"/>
<path d="M60.504 100.656C60.504 101.408 60.328 102.056 59.976 102.6C59.64 103.128 59.08 103.616 58.296 104.064C57.768 104.384 57.152 104.624 56.448 104.784C55.744 104.944 55.032 105.024 54.312 105.024C53.576 105.024 52.664 104.784 51.576 104.304C50.792 103.92 50.168 103.464 49.704 102.936C49.256 102.408 49.032 101.832 49.032 101.208C49.032 100.776 49.128 100.464 49.32 100.272C49.512 100.064 49.824 99.96 50.256 99.96C50.48 99.96 50.712 100.056 50.952 100.248C51.192 100.424 51.336 100.6 51.384 100.776C51.608 101.432 52 101.936 52.56 102.288C53.12 102.624 53.816 102.792 54.648 102.792C55.608 102.792 56.408 102.616 57.048 102.264C57.704 101.912 58.032 101.44 58.032 100.848C58.032 100.272 57.68 99.76 56.976 99.312C56.272 98.864 55.552 98.552 54.816 98.376C53.76 98.088 52.824 97.744 52.008 97.344C51.16 96.928 50.528 96.416 50.112 95.808C49.696 95.2 49.488 94.56 49.488 93.888C49.488 93.264 49.704 92.632 50.136 91.992C50.568 91.336 51.08 90.864 51.672 90.576C51.992 90.416 52.536 90.248 53.304 90.072C54.088 89.88 54.656 89.784 55.008 89.784C55.472 89.784 55.984 89.84 56.544 89.952C57.104 90.064 57.56 90.224 57.912 90.432C58.616 90.832 59.136 91.192 59.472 91.512C59.808 91.832 59.976 92.232 59.976 92.712C59.976 93 59.864 93.256 59.64 93.48C59.432 93.704 59.064 93.816 58.536 93.816C58.408 93.816 58.28 93.76 58.152 93.648C58.024 93.536 57.864 93.368 57.672 93.144C57.416 92.808 57.168 92.584 56.928 92.472C56.688 92.392 56.336 92.304 55.872 92.208C55.424 92.112 55.024 92.064 54.672 92.064C54.288 92.064 53.888 92.144 53.472 92.304C53.056 92.464 52.704 92.696 52.416 93C52.144 93.288 52.008 93.624 52.008 94.008C52.008 94.328 52.152 94.608 52.44 94.848C52.744 95.072 53.104 95.256 53.52 95.4C54 95.592 54.52 95.76 55.08 95.904C55.816 96.128 56.416 96.336 56.88 96.528C57.36 96.704 57.824 96.928 58.272 97.2C59.056 97.664 59.624 98.144 59.976 98.64C60.328 99.12 60.504 99.792 60.504 100.656ZM69.1326 99.576C68.5086 99.576 67.9806 99.56 67.5486 99.528C67.1326 99.48 66.5806 99.408 65.8926 99.312L65.8686 101.832C65.8526 102.264 65.8446 102.88 65.8446 103.68C65.8446 104.096 65.7246 104.424 65.4846 104.664C65.2606 104.888 65.0046 105 64.7166 105C64.1886 105 63.7966 104.936 63.5406 104.808C63.2846 104.664 63.1566 104.416 63.1566 104.064C63.1566 103.6 63.1966 102.944 63.2766 102.096C63.4526 100.272 63.5406 98.4 63.5406 96.48C63.5406 94.688 63.4846 93 63.3726 91.416C63.3886 91.192 63.5006 90.936 63.7086 90.648C63.9326 90.36 64.2126 90.2 64.5486 90.168C64.9166 90.168 65.5006 90.104 66.3006 89.976C67.1326 89.848 67.7646 89.784 68.1966 89.784C69.5086 89.784 70.5246 89.912 71.2446 90.168C71.9806 90.424 72.7166 90.848 73.4526 91.44C74.2526 92.688 74.6526 93.568 74.6526 94.08C74.6526 95.152 74.4366 96.104 74.0046 96.936C73.5726 97.768 72.9406 98.416 72.1086 98.88C71.2766 99.344 70.2846 99.576 69.1326 99.576ZM68.5806 91.824C68.0686 91.824 67.6206 91.856 67.2366 91.92C66.8686 91.968 66.4206 92.056 65.8926 92.184C65.9566 93.656 65.9886 94.728 65.9886 95.4C65.9886 96.088 65.9646 96.664 65.9166 97.128C66.6046 97.272 67.1486 97.368 67.5486 97.416C67.9486 97.448 68.3966 97.464 68.8926 97.464C70.0766 97.464 70.9086 97.16 71.3886 96.552C71.8846 95.928 72.1326 95.208 72.1326 94.392C72.1326 94.152 72.0606 93.856 71.9166 93.504C71.7726 93.152 71.6446 92.92 71.5326 92.808C71.1006 92.424 70.6766 92.168 70.2606 92.04C69.8606 91.896 69.3006 91.824 68.5806 91.824Z" fill="#B8B8B8"/>
<path d="M32.416 146.544C32.3947 146.203 32.384 145.691 32.384 145.008V143.792C32.384 142.981 32.3627 142.373 32.32 141.968C32.2773 141.627 32.256 140.741 32.256 139.312C32.256 138.8 32.4053 138.405 32.704 138.128C33.024 137.829 33.4507 137.68 33.984 137.68C34.6667 137.68 35.1253 137.829 35.36 138.128C35.5947 138.427 35.712 138.917 35.712 139.6V140.816L35.68 144.336C35.6587 145.019 35.648 146.043 35.648 147.408L35.68 150.032C35.7013 150.437 35.712 151.003 35.712 151.728C35.712 152.304 35.7333 153.125 35.776 154.192C35.8187 155.173 35.84 155.909 35.84 156.4C35.84 156.805 35.7227 157.179 35.488 157.52C35.2747 157.861 34.976 158.032 34.592 158.032C33.0987 158.032 32.352 157.531 32.352 156.528C32.352 155.973 32.3733 155.355 32.416 154.672C32.4587 154.181 32.48 153.435 32.48 152.432C32.48 151.728 32.4587 150.715 32.416 149.392C31.4133 149.477 29.6853 149.52 27.232 149.52C25.696 149.52 24.5013 149.52 23.648 149.52C22.7947 149.499 22.176 149.445 21.792 149.36L21.76 153.04C21.76 153.275 21.8133 153.904 21.92 154.928C22.0267 155.611 22.08 156.208 22.08 156.72C22.08 157.04 21.888 157.349 21.504 157.648C21.1413 157.925 20.8 158.064 20.48 158.064C19.712 158.064 19.1893 157.883 18.912 157.52C18.6347 157.136 18.496 156.56 18.496 155.792L18.464 153.264C18.4427 152.965 18.432 152.549 18.432 152.016C18.432 151.227 18.4107 150.149 18.368 148.784C18.3253 147.547 18.304 146.651 18.304 146.096C18.304 145.264 18.3253 144.101 18.368 142.608C18.4107 141.2 18.432 140.155 18.432 139.472C18.432 138.789 18.6027 138.331 18.944 138.096C19.2853 137.861 19.6693 137.744 20.096 137.744C21.2907 137.744 21.888 138.139 21.888 138.928C21.888 140.336 21.856 141.68 21.792 142.96C21.7493 144.581 21.728 145.765 21.728 146.512C22.3467 146.661 22.9973 146.757 23.68 146.8C24.3627 146.843 25.3227 146.864 26.56 146.864C29.0773 146.864 31.0293 146.757 32.416 146.544Z" fill="#B8B8B8"/>
<path d="M315.331 97.512C315.331 97.048 315.435 96.648 315.643 96.312C315.867 95.96 316.195 95.784 316.627 95.784C316.995 95.784 317.323 95.856 317.611 96C317.899 96.144 318.043 96.384 318.043 96.72C318.043 97.376 318.011 98.296 317.947 99.48C317.883 100.632 317.851 101.488 317.851 102.048C317.851 102.928 317.883 104.104 317.947 105.576C318.011 106.984 318.043 108.016 318.043 108.672C318.043 109.2 318.035 109.592 318.019 109.848C318.019 110.104 317.875 110.36 317.587 110.616C317.315 110.856 316.891 110.976 316.315 110.976C316.011 110.976 315.747 110.928 315.523 110.832C315.315 110.72 315.171 110.6 315.091 110.472C314.339 109.56 313.243 108.008 311.803 105.816C310.187 103.368 308.867 101.496 307.843 100.2C307.971 101.352 308.035 102.76 308.035 104.424C308.035 105.16 308.019 106.12 307.987 107.304C307.971 108.472 307.939 109.24 307.891 109.608C307.827 110.072 307.683 110.432 307.459 110.688C307.251 110.928 306.915 111.048 306.451 111.048C306.099 111.048 305.835 110.952 305.659 110.76C305.499 110.552 305.403 110.2 305.371 109.704C305.355 109.048 305.395 108.064 305.491 106.752C305.507 106.544 305.531 106.184 305.563 105.672C305.595 105.16 305.611 104.704 305.611 104.304C305.611 103.2 305.555 101.936 305.443 100.512C305.347 98.944 305.299 97.784 305.299 97.032C305.299 96.648 305.435 96.352 305.707 96.144C305.995 95.936 306.323 95.832 306.691 95.832C307.011 95.832 307.347 95.912 307.699 96.072C309.075 97.8 310.939 100.376 313.291 103.8L315.547 107.256C315.563 107 315.571 106.64 315.571 106.176C315.571 105.36 315.555 104.48 315.523 103.536C315.491 102.592 315.467 101.952 315.451 101.616C315.371 100.064 315.331 98.696 315.331 97.512ZM333.206 98.112C333.446 98.4 333.614 98.632 333.71 98.808C333.806 98.984 333.854 99.152 333.854 99.312C333.854 99.504 333.726 99.728 333.47 99.984C333.23 100.24 332.99 100.368 332.75 100.368C332.43 100.368 332.174 100.32 331.982 100.224C331.79 100.128 331.63 99.976 331.502 99.768C331.198 99.288 330.846 98.864 330.446 98.496C330.046 98.112 329.51 97.92 328.838 97.92C328.182 97.92 327.446 98.072 326.63 98.376C325.814 98.68 325.214 99.056 324.83 99.504C323.966 100.56 323.534 101.96 323.534 103.704C323.534 105.096 323.966 106.288 324.83 107.28C325.742 108.304 326.894 108.816 328.286 108.816C328.926 108.816 329.622 108.704 330.374 108.48C331.142 108.24 331.75 107.856 332.198 107.328H332.174C332.462 107.024 332.822 106.872 333.254 106.872C333.51 106.872 333.75 106.984 333.974 107.208C334.214 107.432 334.334 107.656 334.334 107.88C334.334 108.12 334.294 108.336 334.214 108.528C334.15 108.704 334.022 108.904 333.83 109.128C333.174 109.848 332.334 110.352 331.31 110.64C330.302 110.912 329.15 111.048 327.854 111.048C326.782 111.048 325.75 110.792 324.758 110.28C323.782 109.768 322.974 109.12 322.334 108.336C322.014 107.872 321.702 107.208 321.398 106.344C321.11 105.464 320.966 104.752 320.966 104.208C320.966 102.816 321.174 101.496 321.59 100.248C322.022 98.984 322.662 97.976 323.51 97.224C324.07 96.712 324.878 96.328 325.934 96.072C326.99 95.816 327.958 95.688 328.838 95.688C329.542 95.688 330.142 95.792 330.638 96C331.15 96.192 331.59 96.456 331.958 96.792C332.326 97.112 332.742 97.552 333.206 98.112Z" fill="#B8B8B8"/>
<path d="M352.923 173.344C352.923 172.427 353.595 171.968 354.939 171.968C355.515 171.968 356.614 171.989 358.235 172.032C360.027 172.117 361.382 172.16 362.299 172.16C363.046 172.16 363.952 172.117 365.019 172.032C365.744 171.989 366.203 171.968 366.395 171.968C367.568 172.011 368.56 172.224 369.371 172.608C369.606 172.715 369.798 172.843 369.947 172.992C370.096 173.141 370.171 173.387 370.171 173.728C370.171 174.197 370.022 174.603 369.723 174.944C369.424 175.264 369.062 175.424 368.635 175.424C368.166 175.424 367.483 175.36 366.587 175.232C365.798 175.083 365.104 175.008 364.507 175.008C363.931 175.008 363.494 175.019 363.195 175.04C363.131 175.744 363.099 177.429 363.099 180.096C363.099 183.275 363.195 186.496 363.387 189.76L363.451 190.688C363.451 191.563 362.95 192 361.947 192C361.158 192 360.624 191.819 360.347 191.456C360.07 191.072 359.931 190.496 359.931 189.728C359.931 188.213 359.888 186.325 359.803 184.064C359.718 182.187 359.675 180.853 359.675 180.064C359.675 179.531 359.739 177.899 359.867 175.168L356.123 175.2C354.928 175.2 354.096 175.093 353.627 174.88C353.158 174.645 352.923 174.133 352.923 173.344ZM380.525 175.168C380.311 179.349 380.205 182.677 380.205 185.152C380.205 186.432 380.237 187.648 380.301 188.8C380.471 188.928 380.802 188.992 381.293 188.992L382.029 188.96C382.327 188.917 382.605 188.896 382.861 188.896C383.415 188.896 383.842 188.992 384.141 189.184C384.461 189.376 384.621 189.749 384.621 190.304C384.621 190.837 384.461 191.253 384.141 191.552C383.842 191.851 383.213 192 382.253 192C381.442 192 380.461 191.936 379.309 191.808C379.031 191.787 378.765 191.765 378.509 191.744C378.253 191.723 378.018 191.712 377.805 191.712C376.631 191.733 375.757 191.776 375.181 191.84C374.605 191.904 373.954 191.936 373.229 191.936C372.567 191.936 372.237 191.435 372.237 190.432C372.237 189.472 372.855 188.992 374.093 188.992C374.285 188.992 374.594 189.013 375.021 189.056C375.383 189.12 375.767 189.152 376.173 189.152C376.407 189.152 376.599 189.141 376.749 189.12C376.77 187.691 376.845 185.611 376.973 182.88C377.101 179.68 377.165 177.312 377.165 175.776C377.058 175.797 376.685 175.947 376.045 176.224C375.063 176.715 374.338 176.96 373.869 176.96C373.613 176.96 373.378 176.832 373.165 176.576C372.951 176.299 372.845 175.979 372.845 175.616C372.845 175.253 373.069 174.901 373.517 174.56C373.965 174.219 374.69 173.771 375.693 173.216C376.247 172.939 376.781 172.629 377.293 172.288C377.421 172.203 377.602 172.117 377.837 172.032C378.093 171.947 378.285 171.904 378.413 171.904C378.967 171.904 379.469 172.021 379.917 172.256C380.386 172.469 380.621 172.757 380.621 173.12L380.525 175.168Z" fill="#B8B8B8"/>
<path d="M295.835 43.008C295.835 42.32 296.339 41.976 297.347 41.976C297.779 41.976 298.603 41.992 299.819 42.024C301.163 42.088 302.179 42.12 302.867 42.12C303.427 42.12 304.107 42.088 304.907 42.024C305.451 41.992 305.795 41.976 305.939 41.976C306.819 42.008 307.563 42.168 308.171 42.456C308.347 42.536 308.491 42.632 308.603 42.744C308.715 42.856 308.771 43.04 308.771 43.296C308.771 43.648 308.659 43.952 308.435 44.208C308.211 44.448 307.939 44.568 307.619 44.568C307.267 44.568 306.755 44.52 306.083 44.424C305.491 44.312 304.971 44.256 304.523 44.256C304.091 44.256 303.763 44.264 303.539 44.28C303.491 44.808 303.467 46.072 303.467 48.072C303.467 50.456 303.539 52.872 303.683 55.32L303.731 56.016C303.731 56.672 303.355 57 302.603 57C302.011 57 301.611 56.864 301.403 56.592C301.195 56.304 301.091 55.872 301.091 55.296C301.091 54.16 301.059 52.744 300.995 51.048C300.931 49.64 300.899 48.64 300.899 48.048C300.899 47.648 300.947 46.424 301.043 44.376L298.235 44.4C297.339 44.4 296.715 44.32 296.363 44.16C296.011 43.984 295.835 43.6 295.835 43.008ZM313.608 54.504C314.152 54.536 314.512 54.552 314.688 54.552C315.232 54.552 315.712 54.544 316.128 54.528C316.56 54.512 316.928 54.496 317.232 54.48C318.016 54.432 318.72 54.408 319.344 54.408C319.952 54.408 320.4 54.568 320.688 54.888C320.976 55.208 321.12 55.632 321.12 56.16C321.12 56.416 320.952 56.624 320.616 56.784C320.28 56.928 319.936 57 319.584 57C319.28 57 318.648 56.968 317.688 56.904C316.536 56.808 315.632 56.76 314.976 56.76C314.624 56.76 314.208 56.784 313.728 56.832C313.536 56.848 313.304 56.864 313.032 56.88C312.76 56.896 312.456 56.904 312.12 56.904C311.48 56.904 310.992 56.816 310.656 56.64C310.32 56.464 310.152 56.144 310.152 55.68C310.152 55.28 310.312 54.872 310.632 54.456C310.952 54.04 311.4 53.544 311.976 52.968L312.552 52.392C312.808 52.12 313.28 51.656 313.968 51C315.104 49.976 315.984 49.072 316.608 48.288C317.248 47.504 317.568 46.728 317.568 45.96C317.568 45.464 317.328 45.064 316.848 44.76C316.384 44.44 315.848 44.28 315.24 44.28C314.312 44.28 313.64 44.488 313.224 44.904C312.824 45.304 312.624 45.888 312.624 46.656C312.624 46.848 312.512 47.024 312.288 47.184C312.08 47.328 311.816 47.4 311.496 47.4C311.048 47.4 310.736 47.24 310.56 46.92C310.384 46.6 310.296 46.208 310.296 45.744C310.296 45.008 310.52 44.36 310.968 43.8C311.416 43.224 312.024 42.776 312.792 42.456C313.576 42.136 314.44 41.976 315.384 41.976C316.056 41.976 316.752 42.144 317.472 42.48C318.208 42.8 318.816 43.24 319.296 43.8C319.792 44.344 320.04 44.944 320.04 45.6C320.04 46.592 319.792 47.536 319.296 48.432C318.8 49.328 318.216 50.128 317.544 50.832C316.888 51.52 316.032 52.336 314.976 53.28C314.464 53.712 314.008 54.12 313.608 54.504Z" fill="#B8B8B8"/>
</g>
<defs>
<clipPath id="clip0_852_28559">
<rect width="439" height="295" fill="white"/>
</clipPath>
</defs>
</svg>
