<svg width="36" height="36" viewBox="0 0 36 36" fill="none" xmlns="http://www.w3.org/2000/svg">
<path d="M21.6 5C22.0659 4.99999 22.5137 5.18066 22.8492 5.50401L23.0058 5.67502L29.664 14.0002H30.6C31.9774 14.0002 33.3027 14.5264 34.3049 15.4714C35.307 16.4163 35.9102 17.7085 35.991 19.0836L36 19.4004V26.6005C36 27.0779 35.8104 27.5358 35.4728 27.8734C35.1352 28.2109 34.6774 28.4006 34.2 28.4006H32.0922C31.7196 29.4533 31.0298 30.3647 30.1179 31.0093C29.206 31.6539 28.1167 32 27 32C25.8833 32 24.794 31.6539 23.8821 31.0093C22.9702 30.3647 22.2804 29.4533 21.9078 28.4006H14.0922C13.7196 29.4533 13.0298 30.3647 12.1179 31.0093C11.206 31.6539 10.1167 32 9 32C7.88328 32 6.794 31.6539 5.88208 31.0093C4.97017 30.3647 4.28043 29.4533 3.9078 28.4006H1.8C1.32261 28.4006 0.864773 28.2109 0.527208 27.8734C0.189642 27.5358 0 27.0779 0 26.6005V15.8003L0.0125999 15.5897L0.0270002 15.4889L0.0576001 15.3485L0.0791998 15.2837L0.1044 15.1937L3.7296 6.13223C3.86304 5.79821 4.09349 5.51183 4.39122 5.31002C4.68896 5.10821 5.04032 5.00023 5.4 5H21.6ZM9 24.8005C8.52261 24.8005 8.06477 24.9901 7.72721 25.3277C7.38964 25.6653 7.2 26.1231 7.2 26.6005C7.2 27.0779 7.38964 27.5358 7.72721 27.8734C8.06477 28.2109 8.52261 28.4006 9 28.4006C9.47739 28.4006 9.93523 28.2109 10.2728 27.8734C10.6104 27.5358 10.8 27.0779 10.8 26.6005C10.8 26.1231 10.6104 25.6653 10.2728 25.3277C9.93523 24.9901 9.47739 24.8005 9 24.8005ZM27 24.8005C26.5226 24.8005 26.0648 24.9901 25.7272 25.3277C25.3896 25.6653 25.2 26.1231 25.2 26.6005C25.2 27.0779 25.3896 27.5358 25.7272 27.8734C26.0648 28.2109 26.5226 28.4006 27 28.4006C27.4774 28.4006 27.9352 28.2109 28.2728 27.8734C28.6104 27.5358 28.8 27.0779 28.8 26.6005C28.8 26.1231 28.6104 25.6653 28.2728 25.3277C27.9352 24.9901 27.4774 24.8005 27 24.8005ZM16.2 8.60009H6.6168L4.4568 14.0002H16.2V8.60009ZM20.736 8.60009H19.8V14.0002H25.056L20.736 8.60009Z" fill="url(#paint0_linear_4533_33969)"/>
<defs>
<linearGradient id="paint0_linear_4533_33969" x1="18" y1="5" x2="18" y2="32" gradientUnits="userSpaceOnUse">
<stop stop-color="#FF6995"/>
<stop offset="1" stop-color="#ED1161"/>
</linearGradient>
</defs>
</svg>
