<svg width="36" height="36" viewBox="0 0 36 36" fill="none" xmlns="http://www.w3.org/2000/svg">
<path d="M13.8469 7.75L29.25 23.1531L25.3988 27.0044C24.3947 28.0486 23.1926 28.882 21.8626 29.456C20.5326 30.03 19.1014 30.3329 17.6529 30.3471C16.2044 30.3613 14.7676 30.0865 13.4266 29.5387C12.0856 28.991 10.8673 28.1812 9.84305 27.157C8.81875 26.1327 8.00903 24.9144 7.46126 23.5734C6.91348 22.2324 6.63866 20.7956 6.65287 19.3471C6.66707 17.8986 6.97003 16.4674 7.544 15.1374C8.11797 13.8074 8.95144 12.6053 9.99563 11.6012L13.8469 7.75ZM3 34L9.5625 27.4375ZM23.625 4L17.0625 10.5625ZM33 13.375L26.4375 19.9375Z" fill="url(#paint0_linear_4533_33971)"/>
<path d="M3 34L9.5625 27.4375M23.625 4L17.0625 10.5625M33 13.375L26.4375 19.9375M13.8469 7.75L29.25 23.1531L25.3988 27.0044C24.3947 28.0486 23.1926 28.882 21.8626 29.456C20.5326 30.03 19.1014 30.3329 17.6529 30.3471C16.2044 30.3613 14.7676 30.0865 13.4266 29.5387C12.0856 28.991 10.8673 28.1812 9.84305 27.157C8.81875 26.1327 8.00903 24.9144 7.46126 23.5734C6.91348 22.2324 6.63866 20.7956 6.65287 19.3471C6.66707 17.8986 6.97003 16.4674 7.544 15.1374C8.11797 13.8074 8.95144 12.6053 9.99563 11.6012L13.8469 7.75Z" stroke="url(#paint1_linear_4533_33971)" stroke-width="3" stroke-linecap="round" stroke-linejoin="round"/>
<defs>
<linearGradient id="paint0_linear_4533_33971" x1="18" y1="4" x2="18" y2="34" gradientUnits="userSpaceOnUse">
<stop stop-color="#FF6995"/>
<stop offset="1" stop-color="#ED1161"/>
</linearGradient>
<linearGradient id="paint1_linear_4533_33971" x1="18" y1="4" x2="18" y2="34" gradientUnits="userSpaceOnUse">
<stop stop-color="#FF6995"/>
<stop offset="1" stop-color="#ED1161"/>
</linearGradient>
</defs>
</svg>
