<svg width="36" height="36" viewBox="0 0 36 36" fill="none" xmlns="http://www.w3.org/2000/svg">
<path d="M18.8418 3C20.1818 3 21.4675 3.53981 22.415 4.5C23.3625 5.46013 23.8945 6.76234 23.8945 8.12012V14.9473C25.2346 14.9473 26.5202 15.4861 27.4678 16.4463C28.4153 17.4065 28.9473 18.7095 28.9473 20.0674V25.1865C28.9473 25.4128 29.0364 25.63 29.1943 25.79C29.3522 25.95 29.5659 26.0399 29.7891 26.04C30.0124 26.04 30.2268 25.9501 30.3848 25.79C30.5426 25.63 30.6318 25.4128 30.6318 25.1865V14.9473C29.7385 14.9473 28.8817 14.5873 28.25 13.9473C27.6183 13.3071 27.2627 12.4385 27.2627 11.5332V10.5352L26.0723 9.32715C25.7823 9.03333 25.6078 8.64221 25.582 8.22754C25.5563 7.81281 25.6813 7.40257 25.9326 7.07422L26.0723 6.91406C26.388 6.59422 26.8163 6.41419 27.2627 6.41406C27.7093 6.41406 28.1383 6.59411 28.4541 6.91406L33.5117 12.0371L33.6719 12.2285L33.7188 12.2969L33.793 12.4209L33.8809 12.6084L33.9326 12.7627L33.9668 12.8926L33.9863 13.0254L34 13.2402V25.1865C34 26.3181 33.5562 27.4039 32.7666 28.2041C31.977 29.0042 30.9057 29.4541 29.7891 29.4541C28.6726 29.454 27.602 29.004 26.8125 28.2041C26.0229 27.4039 25.5791 26.3181 25.5791 25.1865V20.0674C25.5791 19.6149 25.4016 19.1804 25.0859 18.8604C24.7701 18.5403 24.3412 18.3604 23.8945 18.3604V30.3066C24.3412 30.3066 24.7701 30.4866 25.0859 30.8066C25.4018 31.1267 25.5791 31.5611 25.5791 32.0137C25.5791 32.4663 25.4018 32.9007 25.0859 33.2207C24.7701 33.5408 24.3412 33.7207 23.8945 33.7207H3.68457C3.23793 33.7207 2.80901 33.5407 2.49316 33.2207C2.17733 32.9007 2.00001 32.4663 2 32.0137C2 31.561 2.17731 31.1267 2.49316 30.8066C2.80901 30.4866 3.2379 30.3066 3.68457 30.3066V8.12012C3.68461 6.7623 4.21659 5.46014 5.16406 4.5C6.11161 3.53981 7.39726 3 8.7373 3H18.8418ZM8.97656 24.2158L12.8691 25.2588L11.6523 29.7998L18.7539 24.0547L14.8623 23.0117L16.0791 18.4707L8.97656 24.2158ZM8.7373 6.41406C8.29071 6.41406 7.86173 6.59314 7.5459 6.91309C7.23009 7.23311 7.05278 7.66754 7.05273 8.12012V14.9473H20.5264V8.12012C20.5263 7.66754 20.349 7.23311 20.0332 6.91309C19.7174 6.5931 19.2884 6.41406 18.8418 6.41406H8.7373Z" fill="url(#paint0_linear_4537_1490)"/>
<defs>
<linearGradient id="paint0_linear_4537_1490" x1="18" y1="3" x2="18" y2="33.7207" gradientUnits="userSpaceOnUse">
<stop stop-color="#FF6995"/>
<stop offset="1" stop-color="#ED1161"/>
</linearGradient>
</defs>
</svg>
