<svg width="64" height="79" viewBox="0 0 64 79" fill="none" xmlns="http://www.w3.org/2000/svg">
<path d="M0 0H64V64H0V0Z" fill="#1A1A1A"/>
<path d="M32 79L0 64H32V79Z" fill="#393939"/>
<path d="M25.5 52C29.088 52 32 49.088 32 45.5V39H25.5C21.912 39 19 41.912 19 45.5C19 49.088 21.912 52 25.5 52Z" fill="#0ACF83"/>
<path d="M19 32.5C19 28.912 21.912 26 25.5 26H32V39H25.5C21.912 39 19 36.088 19 32.5Z" fill="#A259FF"/>
<path d="M19 19.5C19 15.912 21.912 13 25.5 13H32V26H25.5C21.912 26 19 23.088 19 19.5Z" fill="#F24E1E"/>
<path d="M32 13H38.5C42.088 13 45 15.912 45 19.5C45 23.088 42.088 26 38.5 26H32V13Z" fill="#FF7262"/>
<path d="M45 32.5C45 36.088 42.088 39 38.5 39C34.912 39 32 36.088 32 32.5C32 28.912 34.912 26 38.5 26C42.088 26 45 28.912 45 32.5Z" fill="#1ABCFE"/>
</svg>
