<svg width="1200" height="1200" viewBox="0 0 1200 1200" fill="none" xmlns="http://www.w3.org/2000/svg">
<g clip-path="url(#clip0_982_31635)">
<path d="M948.082 1156.04C954.504 1155.97 960.11 1155.89 964.799 1155.82C959.352 1155.89 953.777 1155.97 948.082 1156.04C819.525 1157.4 363.608 1155.2 377.522 1056.02H64.9846C55.5928 1083.15 75.4719 1147.93 140.849 1155.82C204.788 1163.54 695.098 1159.3 948.082 1156.04Z" fill="#ECECEC"/>
<path d="M347.757 1157.63L268.04 1167.7L299.474 964.649L404.542 988.71L347.757 1157.63Z" fill="#FFB395"/>
<path d="M531.537 641.949C518.223 645.192 479.452 661.24 445.968 672.539C359.987 701.554 281.068 916.818 267.84 970.97L402.977 994.971L394.107 1152.94L717.968 1302.11C850.66 1301.28 811.068 1284.75 892.915 1251.68C974.763 1218.61 1013.09 1154.57 1013.09 1065.41C1013.09 915.141 949.266 757.567 940.362 733.566C931.458 709.565 919.693 695.123 903.985 683.961C888.277 672.8 793.615 643.19 774.186 636.162C754.758 629.135 676.217 625.415 658.029 627.895C639.84 630.375 563.78 634.095 531.537 641.949Z" fill="#F5EBDF"/>
<mask id="mask0_982_31635" style="mask-type:alpha" maskUnits="userSpaceOnUse" x="267" y="627" width="747" height="676">
<path d="M531.537 641.949C518.223 645.192 479.452 661.24 445.968 672.539C359.987 701.554 281.068 916.818 267.84 970.97L401.934 1015.84L393.064 1158.81L717.968 1302.11C850.66 1301.28 811.068 1284.75 892.915 1251.68C974.763 1218.61 1013.09 1154.57 1013.09 1065.41C1013.09 915.141 949.266 757.567 940.362 733.566C931.458 709.565 919.693 695.123 903.985 683.961C888.277 672.8 793.615 643.19 774.186 636.162C754.758 629.135 676.217 625.415 658.029 627.895C639.84 630.375 563.78 634.095 531.537 641.949Z" fill="#EADACB"/>
</mask>
<g mask="url(#mask0_982_31635)">
<path d="M535.6 838.441C466.309 837.189 363.417 813.918 320.632 802.439C289.152 821.745 235.48 872.46 272.63 920.88C309.78 969.3 774.742 967.839 1002.58 961.056C1002.23 912.01 997.884 816.005 983.275 824.354C965.013 834.789 622.213 840.007 535.6 838.441Z" fill="#293F69"/>
<path d="M581.516 600.516C512.225 599.264 409.333 575.993 366.548 564.514C335.068 583.819 281.396 634.535 318.546 682.955C355.696 731.375 820.658 729.914 1048.5 723.131C1048.15 674.085 1043.8 578.08 1029.19 586.428C1010.93 596.864 668.129 602.081 581.516 600.516Z" fill="#293F69"/>
<path d="M564.819 1052.37C495.528 1051.11 392.636 1027.84 349.851 1016.36C318.371 1035.67 264.699 1086.38 301.849 1134.8C338.998 1183.22 803.961 1181.76 1031.8 1174.98C1031.45 1125.93 1027.1 1029.93 1012.49 1038.28C994.232 1048.71 651.432 1053.93 564.819 1052.37Z" fill="#293F69"/>
<path opacity="0.25" d="M419.153 1072.19L410.669 950.453C410.497 947.976 406.86 947.97 406.679 950.447L396.717 1087.32L419.153 1072.19Z" fill="black"/>
</g>
<path d="M902.578 1067.5L926.14 1151.43H706.113C663.503 1152.85 541.14 1154.83 530.288 1151.43C516.722 1147.19 537.831 1127.52 577.769 1120.19C609.077 1114.45 678.808 1107.85 695.679 1116.03L902.578 1067.5Z" fill="#FFB395"/>
<path d="M541.504 1093.21L465.589 867.042C464.795 863.69 463.207 856.985 471.464 854.18C479.327 851.509 482.213 857.716 483.805 861.446L560.722 1086.39C561.04 1087.33 561.184 1088.31 561.146 1089.3L560.271 1111.6C560.237 1112.48 559.156 1112.89 558.547 1112.25L543.286 1096.18C542.483 1095.33 541.875 1094.32 541.504 1093.21Z" fill="#FFBD12"/>
<mask id="mask1_982_31635" style="mask-type:alpha" maskUnits="userSpaceOnUse" x="463" y="852" width="99" height="261">
<path d="M541.501 1093.21L464.355 863.216C463.562 859.864 463.205 856.984 471.461 854.179C479.325 851.508 480.757 852.984 482.348 856.714L560.721 1086.39C561.039 1087.33 561.182 1088.31 561.143 1089.29L560.269 1111.6C560.234 1112.48 559.154 1112.89 558.545 1112.25L543.285 1096.18C542.481 1095.33 541.872 1094.32 541.501 1093.21Z" fill="#FFBD12"/>
</mask>
<g mask="url(#mask1_982_31635)">
<path d="M493.216 845.846L447.146 857.208L458.594 893.038L501.106 878.924L493.216 845.846Z" fill="#FF96D5"/>
<path d="M500.591 865.509L459.782 879.22L463.008 892.841L505.52 878.727L500.591 865.509Z" fill="#AEAEAE"/>
<path d="M569.878 1084.75L529.069 1098.46L532.296 1112.08L574.807 1097.97L569.878 1084.75Z" fill="#F5DAC6"/>
<path d="M576.982 1097.04L536.173 1110.75L539.399 1124.37L581.911 1110.26L576.982 1097.04Z" fill="#313131"/>
</g>
<path d="M349.859 1234.18C343.306 1245.99 310.161 1292.06 294.407 1313.62L267.361 1167.07C310.737 1130.93 400.406 1054.87 412.066 1039.72C426.641 1020.79 473.189 955.186 478.699 951.323C484.209 947.46 515.217 949.444 522.487 951.232C529.757 953.02 536.748 955.658 542.325 957.641C547.901 959.623 547.31 964.132 546.114 966.893C544.917 969.655 527.813 971.72 522.68 972.714C517.546 973.708 517.943 973.149 509.994 973.357C502.046 973.565 492.094 982.682 494.553 983.004C497.012 983.327 506.07 977.845 517.513 976.428C528.955 975.011 537.716 984.499 550.294 990.319C562.872 996.139 557.475 1015.03 561.23 1021.36C564.986 1027.68 556.251 1030.71 559.24 1036.52C562.23 1042.33 556.356 1055.32 548.871 1055.17C541.386 1055.02 516.646 1059.28 500.399 1075.08C484.151 1090.87 471.438 1098.79 462.703 1101.82C453.968 1104.84 439.159 1103.31 434.381 1104.77C429.604 1106.23 358.051 1219.41 349.859 1234.18Z" fill="#FFB395"/>
<path d="M594.464 774.263C568.585 769.254 560.204 724.348 559.508 706.434L735.341 674.606C738.124 679.128 738.367 699.859 712.905 727.826C681.077 762.784 626.813 780.524 594.464 774.263Z" fill="#293F69"/>
<path d="M710.558 660.513C702.525 646.569 693.436 579.243 689.896 547.322L661.632 554.351L558.049 658.802C562.139 676.838 574.49 719.823 591.176 747.479C607.862 775.136 666.146 736.529 692.977 713.856C702.185 701.885 718.591 674.457 710.558 660.513Z" fill="#FFB395"/>
<path fill-rule="evenodd" clip-rule="evenodd" d="M567.835 693.072C568.44 693.238 569.069 693.307 569.721 693.269C580.946 692.605 614.645 672.956 636.871 658.034C654.651 646.097 670.627 596.148 674.266 574.784L655.206 581.905L558.672 660.986C560.541 668.86 563.676 680.384 567.835 693.072Z" fill="#E19577"/>
<path d="M640.541 617.188C650.264 611.084 664.236 588.479 670.007 577.939C673.224 571.589 684.102 556.611 701.879 547.498C724.101 536.108 737.098 511.837 737.567 484.744C738.036 457.651 707.687 391.765 667.336 353.445C626.986 315.124 570.803 324.198 533.783 331.408C496.763 338.619 464.585 369.376 450.009 404.828C437.833 434.445 445.13 476.814 454.975 496.082C463.553 510.382 479.669 547.312 481.091 565.993C483.458 597.084 497.191 613.815 499.752 615.947C502.314 618.079 536.286 649.956 545.128 659.45C553.841 668.806 562.803 667.356 571.027 666.025L571.391 665.966C579.715 664.622 596.421 652.644 601.894 648.394C607.366 644.143 628.388 624.817 640.541 617.188Z" fill="#FFB395"/>
<path d="M608.375 447.16C584.819 435.132 582.742 428.157 570.747 425.578C564.583 424.252 517.602 421.498 507.334 430.629C498.16 438.787 491.01 453.052 474.069 458.498C457.129 463.944 469.227 502.23 452.725 505.306C436.224 508.381 418.021 478.556 423.889 467.097C429.758 455.638 416.23 441.771 405.484 427.301C393.94 411.756 400.61 392.161 405.883 379.938C411.558 366.784 432.476 355.442 437.481 338.127C442.486 320.813 472.247 315.432 478.975 313.36C485.702 311.288 498.753 299.625 511.566 288.385C521.204 279.93 544.238 276.621 559.863 278.286C575.488 279.95 601.007 302.191 609.709 307.766C618.411 313.341 628.681 300.679 648.948 304.138C665.171 306.906 693.184 330.416 697.235 341.259L697.242 341.277C701.29 352.114 705.483 363.337 705.514 375.233C705.537 384.137 720.41 383.243 728.912 394.188C745.97 410.321 759.191 501.586 742.212 513.659C721.292 528.534 696.671 586.793 692.518 580.401C689.196 575.288 686.775 556.364 685.979 547.542C750.138 506.699 716.921 464.859 706.713 464.701C696.546 464.543 688.893 474.886 687.198 478.61C685.502 482.334 681.721 486.393 681.721 486.393C679.652 489.519 675.902 495.115 672.613 493.872C668.503 492.319 668.065 466.341 657.823 454.281C647.582 442.222 637.82 462.195 608.375 447.16Z" fill="#081833"/>
<path d="M570.338 481.376C558.722 484.303 561.326 492.685 566.597 493.805C567.806 494.677 580.538 488.597 589.15 488.028C597.763 487.458 620.022 484.438 620.027 480.906C620.031 477.374 584.857 477.717 570.338 481.376Z" fill="#081833"/>
<path d="M505.72 503.308C502.854 505.085 482.379 507.762 472.04 508.83L472.037 508.83C467.489 509.647 462.941 510.463 461.49 510.123C460.039 509.782 457.478 507.65 471.371 501.136C485.265 494.622 503.746 495.661 507.18 496.585C510.613 497.508 509.303 501.087 505.72 503.308Z" fill="#081833"/>
<ellipse cx="498.865" cy="526.476" rx="7.44071" ry="9.50757" transform="rotate(-13.4296 498.865 526.476)" fill="black"/>
<ellipse cx="582.76" cy="513.818" rx="7.44071" ry="9.50757" transform="rotate(-13.4296 582.76 513.818)" fill="black"/>
<path d="M526.26 533.436C528.056 542.179 529.081 550.623 526.17 557.005C523.259 563.388 529.274 563.347 532.646 562.529" stroke="#B57463" stroke-width="6" stroke-linecap="round"/>
<path d="M541.535 589.539C549.36 589.937 567.867 587.639 579.301 575.258" stroke="#B57463" stroke-width="6" stroke-linecap="round"/>
<path d="M751.686 388.815C747.106 398.809 718.303 393.583 704.474 389.722C702.987 383.345 702.002 372.472 709.959 379.992C717.915 387.513 741.092 389.008 751.686 388.815Z" fill="#081833"/>
<path d="M395.322 363.035C395.655 379.552 430.08 363.185 447.251 352.937C451.928 341.305 458.184 321.854 445.789 337.11C433.393 352.365 406.979 360.749 395.322 363.035Z" fill="#081833"/>
<path d="M590.442 270.475C573.991 272 592.801 305.154 604.262 321.541C616.201 325.366 636.053 330.202 619.942 318.94C603.832 307.678 593.563 281.938 590.442 270.475Z" fill="#081833"/>
<path d="M844.393 1056.54C805.261 1156.34 351.837 1157.85 254.5 1170C8.97308 1200.64 1015.69 1164.23 1081.07 1156.34C1146.44 1148.45 1163.19 1107.15 1175.71 1060.71L844.393 1056.54Z" fill="#EBEBEB"/>
<path d="M204.427 1179.95C200.814 1179.91 197.499 1179.87 194.504 1179.82C197.766 1179.87 201.074 1179.91 204.427 1179.95C319.667 1181.19 738.273 1176.79 781.78 1080.02L1113.1 1084.19C1100.58 1130.63 1083.83 1171.93 1018.45 1179.82C953.938 1187.61 455.316 1183.23 204.427 1179.95Z" fill="#D3D3D3"/>
</g>
<defs>
<clipPath id="clip0_982_31635">
<rect width="1171" height="1032" fill="white" transform="translate(29 128)"/>
</clipPath>
</defs>
</svg>
