<svg width="1200" height="1200" viewBox="0 0 1200 1200" fill="none" xmlns="http://www.w3.org/2000/svg">
<g clip-path="url(#clip0_982_31457)">
<path d="M636.55 527.278C623.792 530.386 586.638 545.765 554.551 556.592C472.157 584.396 440.07 708.309 427.394 760.202C417.253 801.716 405.475 1043.7 400.854 1159.9C507.148 1160.16 713.478 1160.53 815.204 1159.9C942.361 1159.1 949.888 1162.67 1028.32 1130.98C1106.75 1099.29 1102.4 1020.85 1113.09 936.083C1123.79 851.311 1086.16 659.981 1082.99 637.402C1079.82 614.823 1063.18 600.562 1048.13 589.866C1033.07 579.171 887.695 528.467 869.077 521.733C850.459 514.999 775.195 511.433 757.765 513.81C740.336 516.187 667.448 519.752 636.55 527.278Z" fill="black"/>
<path d="M871.831 528.466C869.296 513.255 883.715 449.769 891.242 419.927L863.512 416.758L735.499 475.787C733.122 493.348 729.795 536.077 735.499 566.5C741.203 596.923 806.471 581.811 838.161 570.456C850.441 562.797 874.367 543.677 871.831 528.466Z" fill="#FFB395"/>
<path fill-rule="evenodd" clip-rule="evenodd" d="M732.789 509.831C733.277 510.183 733.818 510.456 734.416 510.641C744.716 513.81 781.556 507.471 806.512 501.53C826.477 496.776 857.568 457.295 867.999 439.337H848.501L735.323 477.956C734.361 485.651 733.311 497.047 732.789 509.831Z" fill="#E19577"/>
<path d="M823.505 466.093C834.28 463.874 854.403 448.267 863.118 440.74C868.135 436.119 882.924 426.321 901.938 424.103C925.706 421.33 945.512 403.9 955.019 379.737C964.526 355.573 959.377 286.25 936.005 238.319C912.633 190.387 859.156 179.692 823.505 173.75C787.854 167.808 748.654 184.627 723.681 211.564C702.818 234.068 695.16 274.549 697.536 295.148C700.442 310.861 702.525 349.417 697.536 366.664C689.235 395.368 695.952 414.992 697.536 417.765C699.121 420.538 718.927 460.547 723.681 472.035C728.365 483.355 736.896 485.059 744.725 486.622L745.072 486.691C752.994 488.276 772.008 483.126 778.347 481.146C784.685 479.165 810.037 468.866 823.505 466.093Z" fill="#FFB395"/>
<path d="M851.648 302.673C834.535 283.976 835.011 277.019 825.107 270.68C820.018 267.423 778.768 249.196 766.488 253.949C755.517 258.196 744.314 268.605 727.281 267.812C710.247 267.02 708.268 305.446 692.424 302.673C676.579 299.9 670.24 267.022 679.351 258.703C688.462 250.384 680.969 233.4 676.175 216.807C671.024 198.981 683.583 183.627 692.416 174.423C701.921 164.518 724.502 161.351 734.802 147.486C745.101 133.622 773.622 138.771 780.356 139.168C787.09 139.564 802.717 133.471 817.988 127.678C829.476 123.32 851.263 128.074 864.731 134.808C878.2 141.542 893.649 170.065 899.591 177.988C905.533 185.911 918.999 177.988 936.033 187.89C949.667 195.815 966.931 226.314 966.931 237.406V237.425C966.931 248.51 966.931 259.991 962.969 270.68C960.004 278.682 973.655 282.867 977.617 295.543C987.52 315.746 968.782 402.107 949.492 407.251C925.724 413.589 884.085 457.63 882.5 450.5C881.232 444.796 885.405 426.996 887.65 418.81C958.941 403.662 943.154 354.962 934.043 351.397C924.969 347.847 914.63 354.565 911.859 357.339C909.089 360.113 904.333 362.489 904.333 362.489C901.428 364.601 896.184 368.367 893.649 366.149C890.48 363.376 898.799 339.909 893.649 325.649C888.499 311.388 873.039 326.045 851.648 302.673Z" fill="#081833"/>
<path d="M618.328 1109.19L865.512 1050.56H888.092L889.676 1159.5H619.913L618.328 1109.19Z" fill="#FFB395"/>
<path d="M853.232 970.122H987.916L977.32 1151.64C977.011 1156.93 972.633 1161.06 967.337 1161.06H873.812C868.515 1161.06 864.138 1156.93 863.829 1151.64L853.232 970.122Z" fill="#EBEBEB"/>
<path fill-rule="evenodd" clip-rule="evenodd" d="M985.088 1018.56L978.972 1123.33C974.612 1124.45 970.043 1125.04 965.337 1125.04C934.927 1125.04 910.275 1100.38 910.275 1069.97C910.275 1039.56 934.927 1014.91 965.337 1014.91C972.298 1014.91 978.957 1016.2 985.088 1018.56Z" fill="#C8C8C8"/>
<path d="M853.472 1029.44C853.342 1027.14 855.167 1025.21 857.465 1025.21H983.683C985.981 1025.21 987.807 1027.14 987.677 1029.44L983.376 1105.42C983.256 1107.53 981.504 1109.19 979.383 1109.19H861.766C859.645 1109.19 857.892 1107.53 857.772 1105.42L853.472 1029.44Z" fill="#B88061"/>
<path d="M848.479 968.039C848.479 967.487 848.926 967.039 849.479 967.039H991.669C992.222 967.039 992.669 967.487 992.669 968.039V978.133C992.669 978.685 992.222 979.133 991.669 979.133H849.479C848.926 979.133 848.479 978.685 848.479 978.133V968.039Z" fill="#F3F3F3"/>
<path d="M853.891 959.767C853.99 959.306 854.397 958.977 854.869 958.977H986.28C986.751 958.977 987.159 959.306 987.257 959.767L988.949 967.659H852.2L853.891 959.767Z" fill="#F3F3F3"/>
<path d="M862.759 940.79C863.103 938.785 864.896 937.358 866.927 937.472L975.759 943.616C977.515 943.715 979.001 944.95 979.419 946.658L982.436 960.977H859.641L862.759 940.79Z" fill="#F3F3F3"/>
<path d="M806.028 320.632C794.62 319.365 794.145 327.762 798.502 330.536C799.295 331.724 812.763 330.536 820.686 332.912C828.608 335.289 849.603 340.043 850.791 336.874C851.98 333.705 820.289 322.217 806.028 320.632Z" fill="#081833"/>
<path d="M740.668 318.652C737.499 319.286 718.22 314.822 708.581 312.314L708.578 312.313C704.222 311.521 699.865 310.729 698.677 309.937C697.489 309.145 695.904 306.371 710.561 305.183C725.218 303.995 741.459 311.125 744.232 313.106C747.005 315.086 744.629 317.859 740.668 318.652Z" fill="#081833"/>
<ellipse cx="726.745" cy="337.151" rx="7.13031" ry="9.11096" transform="rotate(7.05456 726.745 337.151)" fill="black"/>
<ellipse cx="806.301" cy="353.922" rx="7.13031" ry="9.11096" transform="rotate(7.05456 806.301 353.922)" fill="black"/>
<path d="M749.003 352.585C747.683 361.036 745.771 368.96 741.018 373.713C736.264 378.467 741.678 380.448 744.979 380.844" stroke="#B57463" stroke-width="6" stroke-linecap="round"/>
<path d="M743.9 408.07C750.791 411.052 768.175 415.196 782.591 407.916" stroke="#B57463" stroke-width="6" stroke-linecap="round"/>
<path d="M708.089 677.293L687.256 449.698C687.256 446.397 687.256 439.794 695.575 439.002C703.497 438.248 704.818 444.674 705.478 448.503L727.517 675.189C727.612 676.17 727.525 677.161 727.261 678.11L721.563 698.561C721.325 699.413 720.18 699.56 719.735 698.795L709.141 680.587C708.555 679.579 708.196 678.454 708.089 677.293Z" fill="#EBEBEB"/>
<path fill-rule="evenodd" clip-rule="evenodd" d="M706.437 458.379L707.74 471.777L689.424 473.393L688.203 460.054L706.437 458.379Z" fill="#B6B6B6"/>
<path d="M562.871 843.444C558.118 855.486 532.369 903.391 520.089 925.838L476.119 789.966C512.827 750.222 588.54 666.771 597.731 650.925C609.218 631.119 645.266 562.985 650.02 558.627C654.773 554.27 684.483 552.289 691.613 553.082C698.743 553.874 722.907 553.478 728.453 554.666C733.999 555.854 733.999 560.212 733.207 562.985C732.414 565.758 722.907 568.927 718.154 570.511C713.4 572.096 690.029 574.473 682.502 575.661C674.976 576.849 666.657 586.752 669.034 586.752C671.41 586.752 679.333 580.414 690.029 577.641C700.724 574.869 710.231 582.791 722.907 586.752C735.583 590.714 732.81 609.332 737.168 614.878C741.525 620.423 733.603 624.385 737.168 629.534C740.733 634.684 736.772 647.756 729.641 648.548C722.511 649.341 699.536 656.471 686.067 673.505C672.599 690.538 661.507 699.649 653.585 703.61C645.662 707.572 631.402 707.968 627.044 709.948C622.687 711.929 568.813 828.391 562.871 843.444Z" fill="#F9AE90"/>
<rect x="586.242" y="1140.09" width="227.378" height="20.5987" fill="#CBCBCB"/>
<path d="M47.3556 782.828C42.6969 767.419 54.2306 751.883 70.3286 751.883H529.604C540.184 751.883 549.516 758.81 552.577 768.937L661.658 1129.74C666.316 1145.15 654.783 1160.69 638.685 1160.69H179.409C168.829 1160.69 159.498 1153.76 156.436 1143.63L47.3556 782.828Z" fill="#D9D9D9"/>
<path d="M905.029 148.275C895.09 151.767 897.543 179.711 900.012 193.247C905.966 195.227 916.255 197.123 909.779 188.869C903.302 180.615 903.914 158.368 905.029 148.275Z" fill="#081833"/>
</g>
<defs>
<clipPath id="clip0_982_31457">
<rect width="1077" height="1033" fill="white" transform="translate(38 126)"/>
</clipPath>
</defs>
</svg>
