<svg width="64" height="79" viewBox="0 0 64 79" fill="none" xmlns="http://www.w3.org/2000/svg">
<path d="M0 0H64V64H0V0Z" fill="#F7DF1E"/>
<path d="M32 79L0 64H32V79Z" fill="#D0BB0D"/>
<path d="M21.7585 18.8182H27.2301V37.0739C27.2301 38.7614 26.8509 40.2273 26.0923 41.4716C25.3423 42.7159 24.2983 43.6747 22.9602 44.348C21.6222 45.0213 20.0668 45.358 18.294 45.358C16.7173 45.358 15.2855 45.081 13.9986 44.527C12.7202 43.9645 11.706 43.1122 10.956 41.9702C10.206 40.8196 9.83523 39.375 9.84375 37.6364H15.3537C15.3707 38.3267 15.5114 38.919 15.7756 39.4134C16.0483 39.8991 16.419 40.2741 16.8878 40.5384C17.3651 40.794 17.9276 40.9219 18.5753 40.9219C19.2571 40.9219 19.8324 40.777 20.3011 40.4872C20.7784 40.1889 21.1406 39.7543 21.3878 39.1832C21.6349 38.6122 21.7585 37.9091 21.7585 37.0739V18.8182Z" fill="black"/>
<path d="M46.0099 26.348C45.9077 25.3168 45.4688 24.5156 44.6932 23.9446C43.9176 23.3736 42.8651 23.0881 41.5355 23.0881C40.6321 23.0881 39.8693 23.2159 39.2472 23.4716C38.625 23.7187 38.1477 24.0639 37.8153 24.5071C37.4915 24.9503 37.3295 25.4531 37.3295 26.0156C37.3125 26.4844 37.4105 26.8935 37.6236 27.2429C37.8452 27.5923 38.1477 27.8949 38.5312 28.1506C38.9148 28.3977 39.358 28.6151 39.8608 28.8026C40.3636 28.9815 40.9006 29.1349 41.4716 29.2628L43.8239 29.8253C44.9659 30.081 46.0142 30.4219 46.9688 30.848C47.9233 31.2741 48.75 31.7983 49.4489 32.4205C50.1477 33.0426 50.6889 33.7756 51.0724 34.6193C51.4645 35.4631 51.6648 36.4304 51.6733 37.5213C51.6648 39.1236 51.2557 40.5128 50.446 41.6889C49.6449 42.8565 48.4858 43.7642 46.9688 44.4119C45.4602 45.0511 43.6406 45.3707 41.5099 45.3707C39.3963 45.3707 37.5554 45.0469 35.9872 44.3991C34.4276 43.7514 33.2088 42.7926 32.331 41.5227C31.4616 40.2443 31.0057 38.6634 30.9631 36.7798H36.3196C36.3793 37.6577 36.6307 38.3906 37.0739 38.9787C37.5256 39.5582 38.1264 39.9972 38.8764 40.2955C39.6349 40.5852 40.4915 40.7301 41.446 40.7301C42.3835 40.7301 43.1974 40.5937 43.8878 40.321C44.5866 40.0483 45.1278 39.669 45.5114 39.1832C45.8949 38.6974 46.0866 38.1392 46.0866 37.5085C46.0866 36.9205 45.9119 36.4261 45.5625 36.0256C45.2216 35.625 44.7188 35.2841 44.054 35.0028C43.3977 34.7216 42.5923 34.4659 41.6378 34.2358L38.7869 33.5199C36.5795 32.983 34.8366 32.1435 33.5582 31.0014C32.2798 29.8594 31.6449 28.321 31.6534 26.3864C31.6449 24.8011 32.0668 23.4162 32.919 22.2315C33.7798 21.0469 34.9602 20.1222 36.4602 19.4574C37.9602 18.7926 39.6648 18.4602 41.5739 18.4602C43.517 18.4602 45.2131 18.7926 46.6619 19.4574C48.1193 20.1222 49.2528 21.0469 50.0625 22.2315C50.8722 23.4162 51.2898 24.7884 51.3153 26.348H46.0099Z" fill="black"/>
</svg>
