<svg width="64" height="79" viewBox="0 0 64 79" fill="none" xmlns="http://www.w3.org/2000/svg">
<path d="M0 0H60C62.2091 0 64 1.79086 64 4V60C64 62.2091 62.2091 64 60 64H0V0Z" fill="#F7DF1E"/>
<path d="M32 79L0 64H32V79Z" fill="#D0BB0D"/>
<path d="M29.2544 30.3059H33.9634V45.9088C33.9634 47.3511 33.637 48.604 32.9842 49.6675C32.3387 50.731 31.4402 51.5504 30.2886 52.1259C29.137 52.7013 27.7984 52.9891 26.2727 52.9891C24.9158 52.9891 23.6835 52.7523 22.5759 52.2789C21.4757 51.7981 20.6028 51.0697 19.9573 50.0936C19.3119 49.1102 18.9928 47.8755 19.0001 46.3895H23.7422C23.7568 46.9796 23.8779 47.4858 24.1052 47.9083C24.34 48.3235 24.659 48.644 25.0625 48.8698C25.4732 49.0884 25.9573 49.1976 26.5148 49.1976C27.1016 49.1976 27.5967 49.0738 28.0001 48.8261C28.4108 48.5712 28.7226 48.1997 28.9353 47.7116C29.148 47.2236 29.2544 46.6226 29.2544 45.9088V30.3059Z" fill="black"/>
<path d="M50.1259 36.7416C50.0379 35.8602 49.6602 35.1755 48.9927 34.6874C48.3252 34.1994 47.4193 33.9553 46.2751 33.9553C45.4976 33.9553 44.8411 34.0646 44.3057 34.2831C43.7702 34.4944 43.3595 34.7894 43.0734 35.1682C42.7947 35.547 42.6553 35.9767 42.6553 36.4575C42.6406 36.8581 42.725 37.2078 42.9084 37.5064C43.0991 37.8051 43.3595 38.0637 43.6895 38.2822C44.0196 38.4934 44.401 38.6792 44.8338 38.8394C45.2665 38.9924 45.7286 39.1235 46.2201 39.2328L48.2445 39.7135C49.2274 39.9321 50.1296 40.2234 50.9511 40.5877C51.7726 40.9519 52.4841 41.3998 53.0856 41.9316C53.687 42.4633 54.1528 43.0898 54.4829 43.8109C54.8203 44.5321 54.9927 45.3588 55 46.2912C54.9927 47.6607 54.6406 48.848 53.9438 49.8532C53.2543 50.8511 52.2567 51.6269 50.9511 52.1805C49.6528 52.7268 48.0868 53 46.2531 53C44.434 53 42.8497 52.7232 41.5 52.1696C40.1578 51.616 39.1089 50.7965 38.3534 49.7112C37.6052 48.6185 37.2128 47.2673 37.1761 45.6575H41.7861C41.8375 46.4078 42.0538 47.0342 42.4352 47.5368C42.824 48.0321 43.3411 48.4073 43.9866 48.6622C44.6394 48.9099 45.3766 49.0337 46.1981 49.0337C47.0049 49.0337 47.7054 48.9172 48.2995 48.6841C48.901 48.451 49.3668 48.1268 49.6968 47.7116C50.0269 47.2964 50.1919 46.8193 50.1919 46.2803C50.1919 45.7777 50.0416 45.3552 49.7408 45.0128C49.4475 44.6705 49.0147 44.3791 48.4426 44.1387C47.8778 43.8983 47.1846 43.6798 46.3631 43.4831L43.9096 42.8713C42.0098 42.4124 40.5098 41.6949 39.4096 40.7188C38.3093 39.7427 37.7629 38.4279 37.7702 36.7743C37.7629 35.4195 38.126 34.2358 38.8595 33.2233C39.6003 32.2108 40.6162 31.4204 41.9071 30.8523C43.1981 30.2841 44.6651 30 46.3081 30C47.9805 30 49.4401 30.2841 50.6871 30.8523C51.9413 31.4204 52.9169 32.2108 53.6137 33.2233C54.3105 34.2358 54.6699 35.4086 54.6919 36.7416H50.1259Z" fill="black"/>
</svg>
