<svg width="800" height="800" viewBox="0 0 800 800" fill="none" xmlns="http://www.w3.org/2000/svg">
<path fill-rule="evenodd" clip-rule="evenodd" d="M727.524 67.4941H72.4762L72.4762 731.506H727.524V67.4941ZM72.4762 33C53.4355 33 38 48.4435 38 67.4941V731.506C38 750.556 53.4355 766 72.4762 766H727.524C746.564 766 762 750.556 762 731.506V67.4941C762 48.4435 746.564 33 727.524 33H72.4762Z" fill="#CD0706"/>
<path d="M111.413 211.114C110.888 211.47 110.537 211.826 110.362 212.182C110.362 212.538 108.609 212.716 105.104 212.716C101.773 212.538 100.108 212.182 100.108 211.648C96.9532 213.072 94.3241 212.894 92.2208 211.114C90.1175 209.156 89.504 206.931 90.3804 204.439C91.2567 201.947 91.3444 198.387 90.6433 193.759C90.1175 189.131 90.5556 186.105 91.9579 184.681C91.9579 182.545 91.6073 178.985 90.9062 174C90.3804 169.016 90.2927 165.367 90.6433 163.053C91.1691 160.739 91.3444 158.158 91.1691 155.31C90.9938 152.462 91.2568 150.326 91.9579 148.902L90.9062 148.635C91.7826 148.635 92.8342 148.457 94.0612 148.101C96.3397 147.389 98.0049 147.3 99.0565 147.834C100.283 148.368 103.526 148.457 108.784 148.101C114.043 147.567 117.11 147.834 117.986 148.902C120.615 148.19 124.296 148.101 129.029 148.635C133.936 148.991 137.705 148.546 140.334 147.3C142.963 148.012 144.278 149.792 144.278 152.64C144.278 155.31 144.278 157.179 144.278 158.247C144.278 159.315 144.015 161.006 143.489 163.32C143.138 165.634 142.7 168.571 142.174 172.131C141.649 175.514 141.999 180.231 143.226 186.283C144.278 189.309 144.541 196.162 144.015 206.842C143.489 217.344 143.314 223.397 143.489 224.999C143.839 226.601 143.839 229.983 143.489 235.145C143.314 240.307 143.226 243.066 143.226 243.422C143.051 245.914 138.844 246.359 130.606 244.757C127.802 244.223 125.698 244.134 124.296 244.49C120.615 242.888 117.285 243.155 114.306 245.291C111.501 247.427 110.362 250.453 110.888 254.369C115.094 286.054 115.795 310.263 112.991 326.995C112.29 330.199 112.027 333.937 112.202 338.209C112.377 344.261 112.202 348.622 111.676 351.292C111.326 354.141 111.326 357.256 111.676 360.638C112.027 364.02 112.027 366.512 111.676 368.114C111.326 369.894 111.764 371.318 112.991 372.386C114.218 373.454 116.321 373.543 119.301 372.653C122.281 371.941 124.647 371.763 126.4 372.119C130.957 373.009 134.637 371.496 137.442 367.58C137.792 367.046 140.422 364.198 145.329 359.036C150.412 354.052 153.392 351.114 154.268 350.224C154.444 344.706 154.444 325.393 154.268 292.284C154.268 258.997 154.356 239.061 154.531 232.475C154.707 225.889 154.619 219.392 154.268 212.983C153.918 206.397 153.83 202.481 154.005 201.235C155.408 186.817 155.232 169.372 153.48 148.902C154.707 148.012 156.021 147.656 157.423 147.834C158.826 148.012 160.754 148.368 163.207 148.902C165.837 149.258 167.765 149.258 168.992 148.902C171.621 148.012 173.111 148.19 173.461 149.436C173.987 150.504 174.25 151.305 174.25 151.839C174.25 152.373 174.25 153.085 174.25 153.975C174.25 154.865 174.25 156.2 174.25 157.98C174.25 159.76 174.513 164.21 175.039 171.33C175.74 185.393 175.915 195.45 175.564 201.502C174.337 217.878 173.812 230.25 173.987 238.616C174.162 246.982 174.162 253.212 173.987 257.306C172.409 287.745 172.409 309.551 173.987 322.723C176.09 342.837 176.791 365.711 176.09 391.343C175.389 393.479 173.987 394.547 171.884 394.547C169.956 394.547 167.94 394.191 165.837 393.479C163.909 392.945 162.068 393.39 160.315 394.814C159.79 393.034 158.212 392.767 155.583 394.013L154.268 394.28C154.619 394.102 154.619 393.034 154.268 391.076C153.918 388.94 153.918 386.092 154.268 382.532C154.794 378.972 154.882 376.302 154.531 374.522C151.552 375.412 146.732 379.239 140.071 386.003C138.669 389.385 136.303 391.699 132.972 392.945C129.642 394.191 127.013 394.369 125.085 393.479C123.157 392.589 120.966 392.233 118.512 392.411C115.883 392.589 113.079 392.945 110.099 393.479C107.294 394.191 105.629 394.547 105.104 394.547L97.2161 395.081C94.0612 395.081 92.0455 394.369 91.1691 392.945C90.6433 391.877 90.468 390.542 90.6433 388.94C89.5916 386.626 89.504 382.443 90.3804 376.391C91.2567 370.339 91.3444 366.067 90.6433 363.575C89.9422 361.261 89.8545 357.345 90.3804 351.826C91.0815 346.486 91.0815 342.748 90.3804 340.612C89.8545 338.298 89.8545 334.56 90.3804 329.398C92.659 305.189 92.8342 283.384 90.9062 263.982C90.5556 260.065 90.5556 256.149 90.9062 252.233C91.2567 248.139 91.2567 244.935 90.9062 242.621C91.6073 242.087 91.7826 239.595 91.432 235.145C91.0815 230.517 90.9062 228.025 90.9062 227.669C91.0815 224.999 92.0455 223.397 93.7982 222.863C96.6027 222.151 98.9689 222.418 100.897 223.664C103.526 222.774 106.418 222.329 109.573 222.329L119.038 223.13C120.791 223.13 121.93 222.596 122.456 221.528C123.157 220.282 123.332 218.947 122.982 217.522C121.755 212.894 121.492 209.156 122.193 206.308C123.069 203.46 122.894 196.874 121.667 186.55C121.492 185.126 121.755 182.634 122.456 179.074C123.157 175.336 123.245 172.576 122.719 170.796C122.193 168.838 120.353 168.037 117.198 168.393C111.238 169.105 109.836 174.446 112.991 184.414C111.764 186.728 111.413 190.466 111.939 195.628C112.465 200.79 112.465 204.172 111.939 205.774C111.589 207.376 111.501 208.533 111.676 209.245C112.027 209.957 111.939 210.58 111.413 211.114ZM90.9062 148.635L89.8545 148.368C90.2051 148.546 90.5556 148.635 90.9062 148.635Z" fill="#CD0706"/>
<path d="M113.151 109.652C112.099 110.364 111.661 111.254 111.837 112.322C110.084 118.018 110.259 122.824 112.362 126.74C113.765 126.028 115.43 125.939 117.358 126.473C119.286 127.007 120.425 127.363 120.776 127.541C122.003 125.939 122.528 123.981 122.353 121.667C122.003 119.175 121.915 117.217 122.09 115.793C122.967 114.725 123.142 113.479 122.616 112.055C121.915 110.453 121.126 109.741 120.25 109.919C119.198 109.919 118.409 110.008 117.884 110.186C117.358 110.186 116.832 110.275 116.306 110.453C115.605 110.631 114.992 110.72 114.466 110.72C113.414 111.076 112.976 110.72 113.151 109.652ZM91.0664 95.5008C92.6439 95.3227 96.0618 94.9667 101.32 94.4327C106.578 93.7207 112.45 93.8097 118.935 94.6997C125.245 95.4118 130.854 95.4118 135.762 94.6997C140.669 93.9877 143.211 94.0767 143.386 94.9667C143.561 95.6788 143.474 96.9248 143.123 98.7048C142.773 100.485 142.773 103.066 143.123 106.448C143.474 109.83 143.386 115.704 142.86 124.07C141.984 126.206 142.422 127.541 144.175 128.075C145.928 128.431 147.418 128.253 148.644 127.541C149.696 126.651 150.923 126.295 152.325 126.473C153.552 126.473 154.253 125.85 154.429 124.604C155.13 120.154 154.867 116.683 153.64 114.191C152.238 111.521 152.501 110.008 154.429 109.652C156.181 109.296 158.81 109.652 162.316 110.72C165.821 111.788 168.889 111.966 171.518 111.254C173.972 110.364 175.199 110.097 175.199 110.453C175.199 110.809 175.111 111.61 174.936 112.856C174.585 114.102 174.585 115.081 174.936 115.793C175.286 116.505 175.549 117.395 175.725 118.463C175.725 119.531 175.637 120.51 175.462 121.4C175.286 122.112 175.023 123.18 174.673 124.604C174.322 125.85 174.147 126.829 174.147 127.541C174.147 128.253 174.322 129.589 174.673 131.547C175.199 134.395 175.199 137.243 174.673 140.091C173.621 141.515 171.606 142.227 168.626 142.227C165.646 142.227 161.965 142.494 157.584 143.028C153.202 143.562 147.418 143.74 140.231 143.562C132.87 143.384 126.472 143.117 121.039 142.761C111.749 142.049 101.583 142.405 90.5406 143.829C89.6642 143.473 89.5766 142.138 90.2777 139.824C90.8035 137.332 90.8911 135.463 90.5406 134.217C90.19 132.793 90.0148 131.814 90.0148 131.28C90.0148 130.746 90.19 129.5 90.5406 127.541C91.5922 122.201 91.3293 116.416 89.7518 110.186C89.5766 103.066 90.0148 98.1708 91.0664 95.5008Z" fill="#CD0706"/>
<path d="M226.73 153.441L228.307 131.814C228.307 129.678 228.22 124.96 228.044 117.662C227.869 110.186 227.781 105.024 227.781 102.176C226.73 99.5058 226.905 97.4588 228.307 96.0348C229.709 94.4327 231.813 93.6317 234.617 93.6317L259.594 94.1657C262.398 93.6317 266.167 93.7207 270.899 94.4327C275.807 95.1447 279.137 95.5008 280.89 95.5008L279.838 117.395C279.838 119.353 279.926 124.07 280.101 131.547C280.452 138.845 280.452 147.033 280.101 156.111C279.751 165.011 279.751 171.597 280.101 175.87C280.802 184.236 281.065 190.466 280.89 194.56C280.364 208.088 280.014 226.245 279.838 249.029C279.838 271.814 279.751 287.834 279.575 297.09C280.452 342.481 280.627 368.025 280.101 373.721C279.575 379.417 279.4 383.066 279.575 384.668C280.627 390.186 279.488 393.301 276.158 394.013C273.879 393.657 271.337 393.657 268.533 394.013C261.522 394.903 258.455 392.589 259.331 387.071C258.104 379.061 257.666 360.46 258.017 331.267C258.542 302.074 258.893 272.526 259.068 242.621C259.419 212.538 259.682 196.963 259.857 195.895C259.156 161.362 258.63 142.227 258.279 138.489C257.929 134.751 257.929 131.814 258.279 129.678C258.63 127.363 258.805 124.782 258.805 121.934C258.805 119.086 258.279 117.128 257.228 116.06C255.826 117.306 253.898 117.484 251.444 116.594C249.165 115.526 248.026 115.348 248.026 116.06C248.902 129.233 249.253 143.117 249.077 157.713C248.026 230.695 248.026 277.866 249.077 299.226C250.129 320.409 250.129 337.853 249.077 351.559C248.026 365.444 247.5 372.475 247.5 372.653C249.077 375.145 249.516 378.883 248.815 383.867C248.113 388.851 247.851 392.144 248.026 393.746C245.397 393.034 242.943 392.767 240.664 392.945C235.406 393.301 231.988 393.479 230.411 393.479C227.957 395.081 224.802 395.259 220.946 394.013C217.09 392.945 214.285 392.767 212.532 393.479C210.604 392.589 207.8 392.322 204.119 392.678C200.614 393.212 198.072 393.123 196.495 392.411C195.443 380.663 195.093 372.208 195.443 367.046C197.722 325.215 197.897 287.122 195.969 252.767C194.041 218.412 193.866 187.529 195.443 160.116C197.021 132.526 197.283 110.898 196.232 95.2337C197.108 95.4118 197.897 95.3227 198.598 94.9667C199.474 94.4327 200.088 94.1657 200.438 94.1657C200.789 93.9877 201.49 94.3437 202.542 95.2337C203.593 96.1238 205.521 96.2128 208.326 95.5008C211.306 94.6107 213.496 94.3437 214.899 94.6997C216.301 95.2337 216.827 97.0138 216.476 100.04C218.579 118.908 218.492 137.688 216.213 156.378C215.863 159.582 216.476 172.576 218.054 195.361C219.631 217.967 219.806 236.925 218.579 252.233C217.528 267.542 217.002 278.934 217.002 286.41C217.177 293.886 216.827 306.524 215.95 324.325C215.074 342.125 215.162 355.743 216.213 365.177C215.687 369.805 215.863 372.564 216.739 373.454L228.57 371.318C228.22 348.355 227.957 325.393 227.781 302.43C227.08 292.996 226.73 287.923 226.73 287.211C226.905 286.321 226.993 281.07 226.993 271.458C228.044 236.569 227.957 197.23 226.73 153.441Z" fill="#CD0706"/>
<path d="M362.553 178.807C361.502 179.875 359.749 180.231 357.295 179.875C355.017 179.519 353.527 179.697 352.826 180.409C353.001 183.435 353.089 187.618 353.089 192.958C353.089 198.298 353.527 202.481 354.403 205.507C353.527 208.711 353.527 231.229 354.403 273.06C355.455 314.713 355.367 337.319 354.14 340.879C352.913 344.439 352.65 347.465 353.351 349.957C355.279 356.544 354.228 360.282 350.196 361.172C341.608 363.13 334.071 363.397 327.586 361.973C326.184 361.795 325.132 361.706 324.431 361.706C323.029 361.35 322.328 362.062 322.328 363.842C322.328 365.8 322.24 367.402 322.065 368.648C322.065 370.072 322.152 370.873 322.328 371.051C323.73 372.297 326.096 372.742 329.426 372.386C340.293 371.496 347.83 371.407 352.037 372.119C356.419 373.009 359.661 373.098 361.765 372.386C363.868 371.496 364.569 369.182 363.868 365.444C363.342 361.706 363.254 357.434 363.605 352.627C364.306 345.685 364.832 295.043 365.183 200.701C364.657 198.031 364.481 194.293 364.657 189.487C365.007 184.681 364.306 181.121 362.553 178.807ZM378.065 158.247C382.272 157.535 384.638 158.692 385.164 161.718C385.515 164.032 385.339 166.791 384.638 169.995C384.112 173.021 383.937 175.959 384.112 178.807C384.288 181.655 384.813 196.785 385.69 224.198C386.566 251.61 386.654 267.542 385.953 271.992C387.004 307.77 386.829 329.487 385.427 337.141C384.025 344.617 383.937 349.334 385.164 351.292C386.391 353.429 386.566 357.256 385.69 362.774C384.813 368.47 384.375 371.852 384.375 372.92C384.551 374.166 384.989 376.48 385.69 379.862C386.741 386.092 385.865 390.631 383.061 393.479C379.555 394.903 376.575 395.437 374.122 395.081C371.843 394.903 368.776 394.458 364.92 393.746C361.239 393.034 358.172 392.856 355.718 393.212C353.264 393.568 348.882 393.39 342.572 392.678C336.262 392.144 332.231 392.144 330.478 392.678C328.9 393.212 326.534 393.568 323.379 393.746C320.224 393.924 317.946 394.102 316.544 394.28C311.986 394.458 308.306 394.102 305.501 393.212C304.274 393.746 303.31 394.013 302.609 394.013C300.856 394.013 300.068 392.767 300.243 390.275C300.243 389.563 300.331 388.406 300.506 386.804C300.681 385.38 300.769 378.26 300.769 365.444C301.295 363.664 301.295 361.439 300.769 358.769C300.418 356.099 300.418 353.963 300.769 352.361C299.191 349.512 299.191 346.308 300.769 342.748C302.346 339.188 305.063 338.387 308.919 340.345C315.755 339.633 322.591 339.9 329.426 341.146C330.127 340.612 331.091 319.43 332.318 277.599C332.494 276.353 333.107 270.568 334.159 260.243C335.21 249.919 335.123 236.035 333.896 218.59C332.669 200.968 332.231 191.534 332.581 190.288C333.983 185.838 333.282 182.723 330.478 180.943C327.849 178.985 324.519 178.718 320.487 180.142C318.209 179.43 315.579 179.341 312.6 179.875C304.537 181.655 300.593 179.519 300.769 173.466C301.119 167.414 301.47 162.43 301.82 158.514C302.171 154.598 301.733 151.839 300.506 150.237C300.331 147.923 300.331 143.74 300.506 137.688C300.681 131.636 300.681 127.452 300.506 125.138C299.98 108.406 300.068 99.1498 300.769 97.3698C302.346 93.8097 305.589 92.9197 310.497 94.6997C312.249 95.2337 314.265 95.5008 316.544 95.5008C318.822 95.5008 320.575 94.7887 321.802 93.3647C326.534 95.6788 332.494 96.2128 339.68 94.9667C347.042 93.7207 357.909 93.5427 372.281 94.4327C376.313 92.8307 379.906 93.2757 383.061 95.7678C386.391 98.0818 387.267 101.375 385.69 105.647C384.989 114.547 384.989 124.07 385.69 134.217C384.463 136.709 381.746 138.044 377.539 138.222C373.508 138.4 370.266 138.044 367.812 137.154C365.183 137.51 363.693 136.887 363.342 135.285C362.992 133.505 363.167 131.547 363.868 129.411C364.569 127.274 364.306 125.405 363.079 123.803C364.832 120.421 364.744 118.196 362.816 117.128C360.888 115.882 358.259 115.526 354.929 116.06C351.774 116.594 349.232 116.594 347.304 116.06C345.376 115.526 341.345 115.615 335.21 116.327C329.076 117.039 324.869 117.039 322.591 116.327C322.065 119.887 321.539 125.939 321.013 134.484C322.065 135.908 322.415 138.756 322.065 143.028C321.188 153.708 321.451 159.226 322.853 159.582C324.256 159.76 325.745 159.493 327.323 158.781C328.9 158.069 330.303 158.069 331.53 158.781C332.757 155.933 333.107 152.284 332.581 147.834C332.231 143.206 332.055 140.18 332.055 138.756C333.808 137.688 339.592 137.065 349.408 136.887C352.212 136.887 353.79 138.311 354.14 141.159C354.491 143.829 354.228 146.499 353.351 149.169C352.475 151.839 352.738 154.331 354.14 156.645C355.542 158.959 359.311 159.671 365.445 158.781C371.58 157.713 375.787 157.535 378.065 158.247Z" fill="#CD0706"/>
<path d="M425.813 126.473C428.267 128.966 428.354 134.217 426.076 142.227C427.127 143.651 427.653 144.719 427.653 145.431C427.653 146.677 426.076 147.567 422.921 148.101C419.941 148.457 418.101 148.813 417.4 149.169C416.699 147.745 415.384 147.389 413.456 148.101C409.249 149.525 406.795 148.368 406.094 144.63C405.744 142.672 405.744 140.892 406.094 139.29C406.445 137.688 406.182 136.264 405.306 135.018C406.182 133.772 406.533 131.636 406.357 128.609C406.357 125.405 406.62 123.091 407.146 121.667C406.445 120.777 406.094 119.709 406.094 118.463C406.27 117.039 406.182 115.704 405.831 114.458C405.656 113.212 405.569 111.076 405.569 108.05C405.569 103.422 405.393 98.8828 405.043 94.4327L406.883 95.7678C407.584 94.5217 408.285 93.8987 408.986 93.8987C410.038 93.8987 411.528 94.1657 413.456 94.6997C415.384 95.0557 421.168 95.0557 430.808 94.6997C431.685 93.9877 434.489 93.8987 439.221 94.4327C444.129 94.7887 446.934 95.0557 447.635 95.2337C448.862 95.4118 449.387 97.5478 449.212 101.642C449.037 105.558 449.037 108.317 449.212 109.919C448.336 122.379 448.248 130.034 448.949 132.882C448.949 141.604 448.336 149.881 447.109 157.713C448.686 166.613 448.862 174.268 447.635 180.676C445.356 179.43 443.516 178.896 442.114 179.074C440.887 179.252 438.959 179.697 436.329 180.409C433.876 180.943 431.948 180.943 430.545 180.409C428.442 179.519 427.215 180.053 426.865 182.011C426.865 182.545 426.865 183.435 426.865 184.681C427.04 185.749 427.127 186.372 427.127 186.55C429.055 221.261 429.231 241.553 427.653 247.427C428.004 252.945 427.916 256.95 427.39 259.442C427.04 261.934 426.952 275.107 427.127 298.959C427.478 322.812 427.478 335.984 427.127 338.476C427.127 342.926 427.215 348.355 427.39 354.764C427.215 362.062 426.777 367.402 426.076 370.784C427.829 372.564 430.545 373.454 434.226 373.454C437.907 373.454 439.046 371.585 437.644 367.847C437.118 366.779 437.118 363.664 437.644 358.502C438.17 353.34 438.17 349.601 437.644 347.287C437.118 344.795 437.118 330.466 437.644 304.299C438.17 276.353 438.257 260.955 437.907 258.107C436.68 250.809 436.505 246.626 437.381 245.558C438.257 244.49 439.221 244.045 440.273 244.223C446.408 244.757 452.017 244.312 457.1 242.888C458.326 243.6 458.94 244.935 458.94 246.893C458.94 248.851 458.677 251.165 458.151 253.835C456.924 262.023 457.362 295.043 459.466 352.895C457.888 360.905 457.45 367.135 458.151 371.585L468.142 372.653C468.317 366.423 468.755 347.198 469.457 314.98C470.683 242.532 470.771 198.298 469.719 182.278C468.843 166.079 468.317 156.289 468.142 152.907C468.142 147.033 468.492 137.599 469.194 124.604C470.07 111.61 470.333 104.312 469.982 102.71C469.632 100.93 469.544 99.1498 469.719 97.3698C470.07 95.5898 471.122 94.9667 472.874 95.5008C474.101 94.0767 476.468 93.7207 479.973 94.4327C483.479 94.9667 485.845 94.8777 487.072 94.1657C489.175 95.2337 490.227 97.8148 490.227 101.909C490.227 106.003 490.402 109.474 490.753 112.322C491.103 114.992 490.928 121.578 490.227 132.081C489.701 142.405 489.438 150.059 489.438 155.043C489.438 159.849 489.613 165.634 489.964 172.398C490.84 191.979 491.278 224.465 491.278 269.856C491.454 324.503 491.278 354.764 490.753 360.638C490.227 366.512 490.139 371.674 490.49 376.124C491.015 380.574 490.665 384.134 489.438 386.804C491.541 390.72 490.139 392.945 485.231 393.479C484.705 393.657 483.917 393.746 482.865 393.746C481.813 393.924 481.025 394.013 480.499 394.013C480.148 394.191 478.22 394.191 474.715 394.013C468.23 393.657 463.059 393.746 459.203 394.28C450.264 394.458 443.428 394.636 438.696 394.814C434.138 394.992 428.004 394.725 420.292 394.013C412.58 393.479 407.935 393.301 406.357 393.479C406.533 384.757 406.533 379.595 406.357 377.993C406.182 376.391 406.27 371.14 406.62 362.24C406.971 353.34 407.146 347.287 407.146 344.083C407.146 340.879 406.971 335.539 406.62 328.063C407.146 316.671 406.795 291.483 405.569 252.5C404.517 213.339 404.692 190.021 406.094 182.545C405.568 178.807 405.393 176.404 405.569 175.336C406.62 169.639 407.146 165.812 407.146 163.854C405.568 161.718 405.568 160.116 407.146 159.048C408.899 158.158 410.914 158.069 413.193 158.781C414.946 157.357 417.925 157.268 422.132 158.514C426.514 159.582 429.669 159.76 431.597 159.048C432.123 156.734 432.298 153.975 432.123 150.771C432.123 147.567 432.298 144.719 432.649 142.227C432.999 139.735 432.999 136.62 432.649 132.882C432.123 124.159 431.422 118.552 430.545 116.06C429.318 116.772 427.829 116.861 426.076 116.327C424.323 115.793 423.008 115.882 422.132 116.594C422.658 117.484 422.57 119.531 421.869 122.735C421.343 125.761 421.781 127.452 423.184 127.808L424.235 127.007C424.06 127.363 424.586 127.185 425.813 126.473Z" fill="#CD0706"/>
<path d="M596.078 98.7048C596.078 99.5948 595.815 111.521 595.289 134.484C594.939 157.268 594.764 172.22 594.764 179.341C594.764 186.283 594.588 238.527 594.238 336.073C594.413 358.146 594.939 370.962 595.815 374.522C594.939 376.658 594.764 379.15 595.289 381.998C597.042 389.83 595.64 393.746 591.083 393.746C582.669 393.924 574.957 393.835 567.946 393.479C561.111 393.123 555.502 393.034 551.12 393.212C547.439 394.814 540.779 395.081 531.138 394.013C521.674 392.945 515.013 392.767 511.157 393.479C509.404 349.156 509.755 316.226 512.209 294.687C511.508 263.358 511.332 220.193 511.683 165.189C510.631 154.509 510.105 141.07 510.105 124.871C510.281 108.495 510.368 98.7048 510.368 95.5008L512.209 95.7678C512.735 94.8777 515.802 94.5217 521.411 94.6997C527.019 94.6997 530.262 94.6107 531.138 94.4327C531.314 99.0608 531.577 105.914 531.927 114.992C532.979 141.337 532.804 162.43 531.401 178.273C531.927 190.021 532.102 202.748 531.927 216.454C531.927 230.161 531.927 247.694 531.927 269.055C531.927 290.237 532.015 307.325 532.19 320.32C532.541 333.136 532.891 350.313 533.242 371.852C536.221 373.098 540.954 373.187 547.439 372.119C553.924 371.229 559.095 371.496 562.951 372.92C566.982 374.522 570.05 373.721 572.153 370.517C575.834 365.177 576.535 343.282 574.256 304.833C573.38 287.033 573.117 267.631 573.468 246.626C573.993 225.444 573.906 211.559 573.205 204.973C572.679 198.209 573.029 187.173 574.256 171.864C572.854 157.98 572.679 139.379 573.73 116.06C572.153 116.772 570.488 116.861 568.735 116.327C567.158 115.793 565.755 115.704 564.528 116.06C563.477 116.238 563.039 117.929 563.214 121.133C563.564 124.159 563.564 129.143 563.214 136.086C563.039 142.85 563.564 148.19 564.791 152.106C564.441 157.09 564.353 163.676 564.528 171.864C564.704 179.875 564.178 186.194 562.951 190.822C566.106 190.11 568.034 191.089 568.735 193.759C569.611 196.251 569.787 199.277 569.261 202.837C568.735 206.397 568.91 209.423 569.787 211.915C568.209 211.737 565.58 211.826 561.899 212.182C552.785 212.716 546.387 212.182 542.707 210.58C542.882 200.078 542.619 193.314 541.918 190.288C543.145 186.728 543.758 182.99 543.758 179.074C543.758 174.98 543.408 169.817 542.707 163.587C542.006 157.179 541.743 153.174 541.918 151.572C542.093 149.792 542.444 147.389 542.97 144.363C543.495 140.803 543.495 135.196 542.97 127.541C542.444 119.887 542.006 115.259 541.655 113.657C541.48 111.877 541.743 109.563 542.444 106.715C541.392 102.977 541.217 99.8618 541.918 97.3698C542.619 94.6997 544.985 94.0767 549.017 95.5008C551.996 94.6107 556.378 94.5217 562.162 95.2337C567.946 95.9458 572.241 95.4117 575.045 93.6317C577.499 95.5898 580.391 96.1238 583.721 95.2337C592.31 93.2757 596.429 94.4327 596.078 98.7048Z" fill="#CD0706"/>
<path d="M675.375 189.487C673.973 190.733 672.921 191.356 672.22 191.356C666.612 191.178 659.425 191 650.661 190.822C648.909 191.712 646.805 191.89 644.352 191.356C641.898 190.644 639.882 190.555 638.304 191.089C636.727 191.445 636.201 192.869 636.727 195.361C637.954 202.481 638.217 211.114 637.516 221.261C636.815 231.229 636.464 255.793 636.464 294.954C636.639 334.115 636.639 356.811 636.464 363.041C634.711 366.779 635.15 369.627 637.779 371.585C640.408 373.721 643.563 374.166 647.244 372.92C646.192 364.554 646.28 356.811 647.506 349.69C648.733 342.57 648.733 325.66 647.506 298.959C646.455 272.081 646.367 257.039 647.244 253.835C648.12 250.453 648.208 245.736 647.506 239.684C646.805 233.454 646.63 229.36 646.981 227.402C647.507 225.266 647.594 223.13 647.244 220.994C647.068 218.68 647.419 216.454 648.295 214.318C649.172 212.538 650.661 211.826 652.765 212.182C657.147 212.716 663.807 212.538 672.746 211.648C674.499 213.072 676.164 213.161 677.742 211.915C679.319 210.491 680.02 208.533 679.845 206.041C678.443 204.261 678.004 202.303 678.53 200.167C680.108 193.937 679.056 190.377 675.375 189.487ZM618.849 394.013C617.271 394.013 616.483 393.123 616.483 391.343C616.483 389.563 616.483 387.961 616.483 386.537C616.483 385.291 616.22 383.689 615.694 381.731C615.168 379.595 615.168 375.59 615.694 369.716C616.22 363.842 616.483 360.015 616.483 358.235C616.483 356.455 616.307 352.004 615.957 344.884C615.606 337.764 615.431 323.079 615.431 300.828C615.606 278.578 615.957 265.673 616.483 262.112C617.008 258.374 616.833 253.568 615.957 247.694C615.256 241.642 615.168 237.192 615.694 234.344C616.921 227.758 617.184 220.816 616.483 213.517C615.431 201.235 615.256 192.424 615.957 187.084C616.658 181.566 616.57 177.561 615.694 175.069C613.941 170.084 617.797 168.126 627.262 169.194C629.19 169.55 632.433 169.728 636.99 169.728C641.547 169.55 644.877 169.55 646.981 169.728C647.156 169.016 647.244 166.702 647.244 162.786C647.244 158.692 647.594 155.755 648.295 153.975C647.594 151.839 647.594 150.504 648.295 149.97C649.172 149.258 650.486 148.813 652.239 148.635C653.992 148.279 655.306 147.656 656.183 146.766C658.461 147.834 660.214 148.368 661.441 148.368C662.668 148.368 664.07 148.368 665.647 148.368C667.4 148.368 668.364 148.635 668.54 149.169C668.89 149.525 669.065 150.949 669.065 153.441L668.277 164.121C668.277 166.969 668.89 168.749 670.117 169.461C671.519 169.995 673.623 170.173 676.427 169.995C679.231 169.639 681.072 169.55 681.948 169.728C682.825 169.728 684.402 169.639 686.681 169.461C688.959 169.105 691.413 168.927 694.042 168.927C696.671 168.927 698.687 170.084 700.089 172.398C699.739 180.231 699.563 186.194 699.563 190.288C699.563 194.204 699.826 200.078 700.352 207.91C701.229 223.753 701.404 248.317 700.878 281.604C701.754 310.975 701.754 335.005 700.878 353.696C700.002 372.386 699.826 382.977 700.352 385.469C701.053 388.139 701.491 389.83 701.667 390.542C701.667 393.212 699.914 394.458 696.408 394.28C695.883 394.28 694.831 394.28 693.253 394.28C692.202 392.856 690.712 392.411 688.784 392.945C687.031 393.657 685.103 394.013 683 394.013C681.072 394.013 680.02 392.856 679.845 390.542C679.67 388.406 679.757 384.49 680.108 378.794C680.458 373.276 680.546 369.182 680.371 366.512C680.371 363.842 680.108 358.146 679.582 349.423C679.056 340.701 678.706 325.482 678.53 303.765C678.53 281.871 678.53 267.542 678.53 260.777C678.53 254.013 678.706 247.961 679.056 242.621C680.809 239.417 680.458 236.747 678.004 234.611C677.654 234.433 677.303 234.433 676.953 234.611C676.953 234.433 677.04 234.344 677.216 234.344C677.391 234.344 677.566 234.433 677.742 234.611C674.937 231.763 672.133 231.674 669.328 234.344C668.277 237.904 667.838 240.752 668.014 242.888C668.189 245.024 668.54 247.961 669.065 251.699C669.591 255.259 669.766 258.107 669.591 260.243C669.416 262.379 669.328 265.228 669.328 268.788C669.504 272.17 669.504 284.274 669.328 305.1C669.328 325.749 669.153 337.319 668.803 339.811C669.679 343.371 669.679 348.444 668.803 355.031C667.926 361.617 667.751 366.601 668.277 369.983C668.978 373.365 669.153 377.103 668.803 381.197C668.627 385.291 668.978 388.495 669.854 390.809C669.153 393.479 667.663 394.814 665.385 394.814C663.106 394.992 660.477 394.636 657.497 393.746C654.693 392.856 652.502 392.5 650.924 392.678C649.347 393.034 644.527 393.212 636.464 393.212C628.401 393.212 622.53 393.479 618.849 394.013Z" fill="#CD0706"/>
<path d="M673.695 94.9667C676.675 94.9667 679.742 94.6107 682.897 93.8987C686.052 93.1867 688.681 93.1867 690.785 93.8987C693.414 94.7887 695.342 95.1447 696.569 94.9667L701.301 94.6997C701.827 96.4798 701.652 100.218 700.775 105.914C700.074 109.652 699.11 111.343 697.883 110.987C696.481 110.453 694.903 110.186 693.151 110.186C693.151 110.186 689.119 110.987 681.057 112.589C672.994 110.275 666.246 109.563 660.812 110.453C654.327 111.877 648.192 112.233 642.408 111.521C638.552 111.165 636.624 111.877 636.624 113.657C636.449 117.751 636.537 122.468 636.887 127.808C636.887 127.274 637.238 127.185 637.939 127.541C638.64 127.897 639.341 127.897 640.042 127.541C640.568 127.007 641.181 126.918 641.883 127.274C642.233 127.63 642.584 128.431 642.934 129.678C643.285 130.924 643.197 132.081 642.671 133.149C641.97 134.395 641.62 135.196 641.62 135.552C641.62 135.908 641.883 136.976 642.408 138.756C642.759 141.248 642.759 142.405 642.408 142.227C642.233 142.049 641.006 142.049 638.728 142.227C633.469 143.117 630.753 143.473 630.577 143.295C630.051 143.117 626.721 142.761 620.587 142.227C618.133 142.049 616.555 140.447 615.854 137.421C615.328 135.463 615.241 133.505 615.591 131.547C616.292 128.342 616.643 124.96 616.643 121.4C616.468 117.84 616.643 114.369 617.169 110.987C617.519 107.427 616.818 101.642 615.065 93.6317L617.169 94.6997C618.396 94.6997 620.499 94.7887 623.479 94.9667C626.283 95.1447 631.541 94.9667 639.253 94.4327C646.79 93.8987 650.909 93.6317 651.61 93.6317C658.446 94.5217 663.354 94.9667 666.334 94.9667C668.787 94.9667 671.241 94.9667 673.695 94.9667Z" fill="#CD0706"/>
<path d="M124.178 474.763C123.55 475.109 123.131 475.456 122.921 475.802C122.921 476.148 120.827 476.321 116.639 476.321C112.66 476.148 110.67 475.802 110.67 475.282C106.901 476.667 103.759 476.494 101.246 474.763C98.7331 472.859 98.0002 470.694 99.0473 468.271C100.094 465.847 100.199 462.384 99.3614 457.883C98.7331 453.381 99.2567 450.438 100.932 449.053C100.932 446.975 100.513 443.513 99.6755 438.665C99.0473 433.817 98.9426 430.268 99.3614 428.017C99.9897 425.766 100.199 423.256 99.9897 420.486C99.7802 417.716 100.094 415.638 100.932 414.253L99.6755 413.993C100.723 413.993 101.979 413.82 103.445 413.474C106.168 412.782 108.157 412.695 109.414 413.214C110.88 413.734 114.754 413.82 121.036 413.474C127.319 412.955 130.984 413.214 132.031 414.253C135.172 413.561 139.57 413.474 145.225 413.993C151.088 414.34 155.591 413.907 158.732 412.695C161.874 413.388 163.444 415.119 163.444 417.889C163.444 420.486 163.444 422.304 163.444 423.343C163.444 424.381 163.13 426.026 162.502 428.277C162.083 430.528 161.56 433.384 160.931 436.847C160.303 440.136 160.722 444.725 162.188 450.611C163.444 453.554 163.758 460.22 163.13 470.608C162.502 480.823 162.292 486.709 162.502 488.267C162.921 489.826 162.921 493.115 162.502 498.136C162.292 503.157 162.188 505.84 162.188 506.187C161.978 508.61 156.952 509.043 147.109 507.485C143.759 506.966 141.246 506.879 139.57 507.225C135.172 505.667 131.298 505.927 127.947 508.004C124.597 510.082 123.131 513.025 123.55 516.834C125.225 528.953 125.853 535.965 125.434 537.87C125.016 539.774 124.911 551.374 125.12 572.669C125.33 593.792 125.33 605.218 125.12 606.95C124.911 608.681 124.597 610.499 124.178 612.403C123.968 614.308 124.073 616.905 124.492 620.194C124.911 623.484 124.911 625.994 124.492 627.726C124.073 629.284 124.597 630.582 126.063 631.621C127.529 632.66 130.042 632.833 133.602 632.14C137.162 631.275 139.989 631.015 142.083 631.361C147.528 632.227 151.926 630.755 155.277 626.947C155.696 626.427 158.837 623.744 164.701 618.896C170.774 613.875 174.334 610.932 175.381 610.066C176.01 601.236 176.114 581.586 175.695 551.114C175.486 520.47 175.486 501.945 175.695 495.539C175.905 489.133 175.8 482.814 175.381 476.581C174.962 470.175 174.858 466.366 175.067 465.154C176.743 451.13 176.533 434.163 174.439 414.253C175.905 413.388 177.476 413.041 179.151 413.214C180.826 413.388 183.13 413.734 186.062 414.253C189.203 414.599 191.507 414.599 192.973 414.253C196.114 413.388 197.894 413.561 198.313 414.773C198.941 415.811 199.255 416.59 199.255 417.11C199.255 417.629 199.255 418.322 199.255 419.187C199.255 420.053 199.255 421.352 199.255 423.083C199.255 424.814 199.569 429.143 200.198 436.068C201.035 449.745 201.245 459.527 200.826 465.414C199.36 481.342 198.732 493.375 198.941 501.512C199.151 509.649 199.046 516.575 198.627 522.288C198.418 527.828 198.837 542.631 199.884 566.696C201.559 604.786 202.083 632.573 201.454 650.06C200.617 652.137 198.941 653.176 196.428 653.176C194.125 653.176 191.716 652.916 189.203 652.397C186.9 651.704 184.701 652.051 182.606 653.436C181.978 651.704 180.093 651.445 176.952 652.657L175.381 652.916C175.8 652.743 175.8 651.705 175.381 649.8C174.962 647.722 174.962 644.952 175.381 641.49C176.01 638.027 176.114 635.43 175.695 633.699C172.135 634.564 166.376 638.287 158.418 644.866C156.743 648.155 153.916 650.406 149.937 651.618C145.958 652.83 142.816 653.003 140.513 652.137C138.209 651.272 135.591 650.925 132.659 651.099C129.518 651.272 126.167 651.704 122.607 652.397C119.256 652.916 117.267 653.176 116.639 653.176L107.215 653.695C103.445 653.695 101.037 653.003 99.9897 651.618C99.3614 650.579 99.152 649.281 99.3614 647.722C98.1049 645.472 98.0002 641.403 99.0473 635.517C100.094 629.63 100.199 625.561 99.3614 623.311C98.5237 620.887 98.419 617.078 99.0473 611.884C99.885 606.517 99.885 602.708 99.0473 600.457C98.419 598.206 98.419 585.828 99.0473 563.32C99.6755 540.64 99.7802 527.828 99.3614 524.885C99.152 521.942 99.2567 518.566 99.6755 514.757C100.094 510.775 100.094 507.658 99.6755 505.407C100.513 504.888 100.723 502.464 100.304 498.136C99.885 493.634 99.6755 491.211 99.6755 490.864C99.885 488.267 101.037 486.709 103.131 486.19C106.482 485.497 109.309 485.757 111.613 486.969C114.754 486.103 118.209 485.67 121.979 485.67L133.288 486.449C135.382 486.449 136.743 485.93 137.371 484.891C138.209 483.679 138.418 482.381 138 480.996C136.534 476.494 136.22 472.859 137.057 470.088C138.104 467.318 137.895 460.912 136.429 450.871C136.22 449.486 136.534 447.062 137.371 443.599C138.209 439.963 138.314 437.28 137.685 435.548C137.057 433.644 134.858 432.865 131.089 433.211C123.968 433.904 122.293 439.098 126.063 448.793C124.597 451.044 124.178 454.68 124.806 459.7C125.434 464.721 125.434 468.011 124.806 469.569C124.387 471.127 124.283 472.253 124.492 472.945C124.911 473.638 124.806 474.244 124.178 474.763ZM99.6755 413.993L98.419 413.734C98.8378 413.907 99.2567 413.993 99.6755 413.993Z" fill="#CD0706"/>
<path d="M99.2387 669.018C99.6575 667.633 99.8669 665.642 99.8669 663.045C99.6575 660.448 99.7622 658.716 100.181 657.851C100.391 656.985 100.705 656.552 101.123 656.552C101.542 656.552 102.066 656.639 102.694 656.812C103.113 656.812 103.951 656.725 105.207 656.552C106.254 656.379 108.663 656.725 112.432 657.591C115.992 658.284 118.296 658.63 119.343 658.63C124.579 657.764 130.338 657.158 136.62 656.812C136.83 657.504 136.83 659.149 136.62 661.746C136.202 664.17 136.516 667.2 137.563 670.836C138.4 674.471 138.715 680.445 138.505 688.755C143.95 688.409 148.348 688.582 151.699 689.274C154.84 690.14 157.877 690.14 160.809 689.274C163.531 688.582 166.149 688.322 168.662 688.495C170.965 688.668 172.536 688.668 173.374 688.495C173.793 687.629 174.107 686.331 174.316 684.6C174.526 682.868 174.735 681.656 174.944 680.964C174.944 680.445 175.259 679.146 175.887 677.068C176.306 674.991 176.201 672.567 175.573 669.797C174.735 667.027 174.526 664.083 174.944 660.967C174.526 659.582 174.735 658.803 175.573 658.63C176.201 658.284 177.353 658.197 179.028 658.37C184.264 658.889 188.766 658.284 192.536 656.552C192.536 656.552 193.478 656.639 195.363 656.812C197.248 656.812 198.609 656.985 199.447 657.331C200.075 657.678 200.075 659.149 199.447 661.746C198.609 664.17 198.714 667.373 199.761 671.355C200.808 675.337 201.017 679.839 200.389 684.859C199.761 690.053 199.342 693.516 199.133 695.247C198.923 696.979 198.818 698.191 198.818 698.883C199.028 701.307 199.866 703.298 201.332 704.856C200.075 704.856 197.562 705.029 193.792 705.376C189.185 705.549 184.683 705.462 180.285 705.116C175.887 704.77 170.232 704.597 163.322 704.597C156.411 704.597 152.432 704.51 151.385 704.337C150.128 704.337 147.615 704.164 143.845 703.817C140.076 703.644 137.144 703.731 135.05 704.077C132.956 704.423 129.395 704.337 124.369 703.817C119.134 703.298 115.364 703.125 113.06 703.298C113.479 697.585 113.375 693.17 112.746 690.053C111.909 687.11 111.595 681.224 111.804 672.394C110.547 672.913 109.186 673.086 107.72 672.913C106.254 672.913 104.998 673 103.951 673.173C102.066 674.558 100.705 674.558 99.8669 673.173C99.0293 671.788 98.8198 670.403 99.2387 669.018Z" fill="#CD0706"/>
<path d="M230.232 412.695L266.985 413.734C271.383 412.176 274.21 412.262 275.467 413.993C276.933 415.725 277.247 418.062 276.409 421.005C275.781 423.949 275.886 426.546 276.723 428.796C276.514 431.74 274.838 433.557 271.697 434.25C268.765 434.769 264.996 434.856 260.388 434.51C255.781 433.99 252.744 433.817 251.279 433.99C250.86 464.981 250.546 484.718 250.336 493.202C250.336 501.512 250.336 517.96 250.336 542.544C250.336 567.129 250.336 584.356 250.336 594.224C251.174 596.302 251.383 607.642 250.964 628.245C250.546 648.675 250.336 659.842 250.336 661.746C251.383 664.343 251.488 667.546 250.65 671.355C249.813 675.164 249.813 678.453 250.65 681.224C251.488 683.994 253.896 684.773 257.875 683.561C273.372 682.695 286.671 682.868 297.77 684.08C301.749 680.791 302.691 673.606 300.597 662.525C299.76 658.543 299.76 654.561 300.597 650.579C303.529 644.866 301.121 641.923 293.372 641.749C291.697 641.749 289.498 641.836 286.775 642.009C281.331 643.567 277.456 642.615 275.153 639.152C273.058 635.517 273.477 631.967 276.409 628.505C274.943 623.657 276.304 621.06 280.493 620.714C282.378 620.714 284.472 620.8 286.775 620.973C294.105 621.839 298.608 622.185 300.283 622.012C307.403 620.8 312.011 620.194 314.105 620.194C323.738 619.329 327.717 621.493 326.042 626.687C324.576 638.287 324.681 649.54 326.356 660.448C325.728 667.2 325.623 672.913 326.042 677.588C326.67 682.436 326.984 685.379 326.984 686.418C326.356 689.361 326.251 692.391 326.67 695.507C327.089 698.623 326.565 701.047 325.1 702.779C323.634 704.51 320.702 704.683 316.304 703.298C311.697 705.202 305.937 705.722 299.027 704.856C292.325 703.991 287.927 703.471 285.833 703.298C275.362 704.683 265.414 704.943 255.991 704.077C241.122 704.423 231.174 704.25 226.148 703.558C226.148 697.844 225.939 684.773 225.52 664.343C225.31 643.914 225.415 630.236 225.834 623.311C226.462 616.385 226.253 605.392 225.206 590.329C224.368 575.093 224.473 559.165 225.52 542.544C226.567 525.924 226.672 504.196 225.834 477.36C224.996 450.524 224.682 434.077 224.891 428.017C225.31 421.784 225.31 416.937 224.891 413.474C228.452 412.955 230.232 412.695 230.232 412.695Z" fill="#CD0706"/>
<path d="M379.636 620.714L400.368 621.753C404.557 620.021 408.431 620.194 411.991 622.272C415.552 624.176 416.285 626.86 414.19 630.323C413.353 631.708 413.143 633.526 413.562 635.776C415.028 641.317 413.038 643.394 407.594 642.009C405.499 641.49 403.824 641.576 402.567 642.269C401.311 642.961 400.683 644 400.683 645.385L400.997 649.8C400.368 654.302 400.368 658.63 400.997 662.785C401.834 667.113 401.73 671.182 400.683 674.991C400.683 675.164 400.892 675.424 401.311 675.77C401.73 676.116 401.834 676.636 401.625 677.328C401.625 678.194 401.625 678.8 401.625 679.146C401.625 679.492 401.416 680.098 400.997 680.964C400.578 682.003 400.473 682.782 400.683 683.301C401.101 683.821 402.149 683.647 403.824 682.782C405.918 684.34 409.059 684.686 413.248 683.821C417.646 683.128 420.892 683.301 422.986 684.34C424.661 682.262 425.29 678.973 424.871 674.471C424.661 669.97 424.975 663.737 425.813 655.773C426.651 647.636 427.174 643.048 427.384 642.009C426.756 634.218 426.651 609.46 427.07 567.735C427.698 525.837 427.384 503.33 426.127 500.213C426.546 497.616 425.918 496.145 424.243 495.799C422.567 495.452 420.159 495.712 417.017 496.578C413.876 497.27 411.677 497.53 410.421 497.357C409.374 497.184 404.033 497.097 394.4 497.097C384.767 497.097 378.275 497.097 374.924 497.097C371.782 496.924 368.641 497.011 365.5 497.357C357.332 498.222 352.725 497.27 351.678 494.5C350.84 491.557 350.631 488.441 351.05 485.151C351.678 481.861 351.469 479.264 350.422 477.36C351.469 471.473 351.573 464.548 350.736 456.584C351.364 450.871 351.469 446.196 351.05 442.56C350.631 438.751 350.422 436.241 350.422 435.029C351.678 433.644 351.783 430.008 350.736 424.122C349.898 418.235 349.479 414.599 349.479 413.214L351.05 413.734C352.725 413.041 355.657 412.868 359.845 413.214C364.243 413.388 366.966 413.388 368.013 413.214C369.06 413.041 371.05 413.128 373.981 413.474C376.913 413.82 382.882 414.08 391.887 414.253C400.892 414.426 408.536 414.253 414.819 413.734C421.101 413.041 425.394 412.695 427.698 412.695C430.002 412.695 432.096 412.782 433.981 412.955C436.075 414.34 438.378 414.686 440.892 413.993C447.802 412.435 451.467 413.301 451.886 416.59C452.096 418.841 451.886 423.343 451.258 430.095C450.63 436.847 450.944 441.348 452.2 443.599C451.572 444.638 451.258 446.542 451.258 449.313C451.258 451.91 450.839 453.814 450.001 455.026C449.164 456.065 447.384 456.065 444.661 455.026C441.939 453.814 439.321 453.727 436.808 454.766C434.295 455.632 431.886 456.065 429.583 456.065C427.279 456.065 425.813 454.853 425.185 452.429C426.651 449.832 427.174 446.802 426.756 443.339C426.546 439.704 426.441 437.626 426.441 437.107C426.023 432.778 420.263 431.826 409.164 434.25C405.185 435.116 402.149 435.116 400.054 434.25C396.494 434.596 393.981 434.769 392.515 434.769L378.065 433.211C376.809 434.596 376.18 437.713 376.18 442.56C376.39 447.235 375.971 450.611 374.924 452.689C376.809 460.653 376.704 467.924 374.61 474.503C376.076 474.85 378.798 475.023 382.777 475.023C386.966 475.023 390.526 475.282 393.458 475.802C396.39 476.321 401.416 476.408 408.536 476.062C415.866 475.715 421.206 475.715 424.557 476.062C426.023 475.369 430.211 475.109 437.122 475.282C444.242 475.282 448.64 475.196 450.315 475.023C452.829 486.623 453.561 495.625 452.514 502.031C451.677 508.437 451.153 522.201 450.944 543.324C450.944 564.273 451.153 577.863 451.572 584.096C451.991 590.156 452.2 594.657 452.2 597.601C451.781 600.717 451.467 609.2 451.258 623.051C451.048 636.729 450.839 648.761 450.63 659.149C450.42 669.537 450.734 676.289 451.572 679.406C451.572 681.483 451.363 683.907 450.944 686.677C450.734 689.447 450.839 692.304 451.258 695.247C451.886 698.191 451.886 700.788 451.258 703.038C449.792 704.597 447.279 705.202 443.719 704.856C440.159 704.51 435.028 703.991 428.326 703.298C421.625 702.605 413.143 703.211 402.882 705.116C401.834 705.289 400.578 705.116 399.112 704.597C397.437 704.25 394.924 704.077 391.573 704.077C388.222 704.25 386.128 704.337 385.29 704.337C384.243 704.51 381.311 704.77 376.494 705.116C375.238 705.116 374.819 703.904 375.238 701.48C375.657 699.229 375.761 696.719 375.552 693.949C375.552 690.659 375.657 686.418 375.866 681.224C376.285 676.03 376.494 670.749 376.494 665.382C376.494 660.188 376.494 657.072 376.494 656.033C375.029 651.878 374.714 647.636 375.552 643.308C376.39 638.806 376.809 636.382 376.809 636.036C374.086 627.379 375.029 622.272 379.636 620.714Z" fill="#CD0706"/>
<path d="M499.111 526.703C498.483 527.049 498.064 527.395 497.855 527.742C497.855 528.088 495.761 528.261 491.572 528.261C487.593 528.088 485.604 527.742 485.604 527.222C481.834 528.607 478.693 528.434 476.18 526.703C473.667 524.798 472.934 522.634 473.981 520.21C475.028 517.786 475.133 514.324 474.295 509.822C473.667 505.321 474.19 502.378 475.866 500.993C475.866 498.915 475.447 495.452 474.609 490.605C473.981 485.757 473.876 482.208 474.295 479.957C474.923 477.706 475.133 475.196 474.923 472.426C474.714 469.656 475.028 467.578 475.866 466.193L474.609 465.933C475.656 465.933 476.913 465.76 478.379 465.414C481.101 464.721 483.091 464.635 484.347 465.154C485.813 465.674 489.687 465.76 495.97 465.414C502.253 464.894 505.918 465.154 506.965 466.193C510.106 465.5 514.504 465.414 520.158 465.933C526.022 466.28 530.525 465.847 533.666 464.635C536.807 465.327 538.378 467.059 538.378 469.829C538.378 472.426 538.378 474.244 538.378 475.282C538.378 476.321 538.064 477.966 537.436 480.217C537.017 482.467 536.493 485.324 535.865 488.787C535.237 492.076 535.655 496.664 537.121 502.551C538.378 505.494 538.692 512.16 538.064 522.548C537.436 532.762 537.226 538.649 537.436 540.207C537.854 541.765 537.854 545.055 537.436 550.076C537.226 555.097 537.121 557.78 537.121 558.126C536.912 560.55 531.886 560.983 522.043 559.425C518.692 558.905 516.179 558.819 514.504 559.165C510.106 557.607 506.127 557.867 502.567 559.944C499.216 562.022 497.855 564.965 498.483 568.774C503.509 599.592 504.347 623.138 500.996 639.412C500.159 642.528 499.844 646.164 500.054 650.319C500.263 656.206 500.054 660.448 499.426 663.045C499.007 665.815 499.007 668.845 499.426 672.134C499.844 675.424 499.844 677.847 499.426 679.406C499.007 681.137 499.53 682.522 500.996 683.561C502.462 684.6 504.975 684.686 508.535 683.821C512.096 683.128 514.923 682.955 517.017 683.301C522.462 684.167 526.86 682.695 530.211 678.886C530.629 678.367 533.771 675.597 539.634 670.576C545.708 665.728 549.268 662.872 550.315 662.006C550.524 656.639 550.524 637.854 550.315 605.651C550.315 573.275 550.42 553.885 550.629 547.479C550.838 541.073 550.734 534.753 550.315 528.521C549.896 522.115 549.791 518.306 550.001 517.094C551.676 503.07 551.467 486.103 549.373 466.193C550.839 465.327 552.409 464.981 554.085 465.154C555.76 465.327 558.064 465.674 560.995 466.193C564.137 466.539 566.44 466.539 567.906 466.193C571.048 465.327 572.828 465.5 573.247 466.712C573.875 467.751 574.189 468.53 574.189 469.05C574.189 469.569 574.189 470.262 574.189 471.127C574.189 471.993 574.189 473.291 574.189 475.023C574.189 476.754 574.503 481.082 575.131 488.008C575.969 501.685 576.178 511.467 575.76 517.354C574.294 533.282 573.665 545.315 573.875 553.452C574.084 561.589 574.084 567.649 573.875 571.631C571.99 601.236 571.99 622.445 573.875 635.257C576.388 654.821 577.226 677.068 576.388 702C575.55 704.077 573.875 705.116 571.362 705.116C569.058 705.116 566.65 704.77 564.137 704.077C561.833 703.558 559.634 703.991 557.54 705.376C556.912 703.644 555.027 703.385 551.886 704.597L550.315 704.856C550.734 704.683 550.734 703.644 550.315 701.74C549.896 699.662 549.896 696.892 550.315 693.429C550.943 689.967 551.048 687.37 550.629 685.639C547.069 686.504 541.31 690.226 533.352 696.806C531.676 700.095 528.849 702.346 524.87 703.558C520.891 704.77 517.75 704.943 515.446 704.077C513.143 703.211 510.525 702.865 507.593 703.038C504.452 703.211 501.101 703.558 497.541 704.077C494.19 704.77 492.201 705.116 491.572 705.116L482.148 705.635C478.379 705.635 475.97 704.943 474.923 703.558C474.295 702.519 474.086 701.22 474.295 699.662C473.039 697.411 472.934 693.343 473.981 687.456C475.028 681.57 475.133 677.415 474.295 674.991C473.457 672.74 473.353 668.931 473.981 663.564C474.819 658.37 474.819 654.734 473.981 652.657C473.353 650.406 473.353 646.77 473.981 641.749C476.703 618.203 476.913 596.995 474.609 578.123C474.19 574.314 474.19 570.505 474.609 566.696C475.028 562.714 475.028 559.598 474.609 557.347C475.447 556.828 475.656 554.404 475.237 550.076C474.819 545.574 474.609 543.15 474.609 542.804C474.819 540.207 475.97 538.649 478.065 538.13C481.415 537.437 484.243 537.697 486.546 538.909C489.687 538.043 493.143 537.61 496.913 537.61L508.221 538.389C510.316 538.389 511.677 537.87 512.305 536.831C513.143 535.619 513.352 534.321 512.933 532.936C511.467 528.434 511.153 524.798 511.991 522.028C513.038 519.258 512.829 512.852 511.363 502.81C511.153 501.425 511.467 499.002 512.305 495.539C513.143 491.903 513.247 489.22 512.619 487.488C511.991 485.584 509.792 484.805 506.022 485.151C498.902 485.844 497.227 491.037 500.996 500.733C499.53 502.984 499.111 506.619 499.74 511.64C500.368 516.661 500.368 519.951 499.74 521.509C499.321 523.067 499.216 524.192 499.426 524.885C499.844 525.577 499.74 526.183 499.111 526.703ZM474.609 465.933L473.353 465.674C473.771 465.847 474.19 465.933 474.609 465.933Z" fill="#CD0706"/>
<path d="M501.188 428.017C499.931 428.71 499.408 429.575 499.617 430.614C497.523 436.154 497.732 440.829 500.245 444.638C501.921 443.945 503.91 443.859 506.214 444.378C508.517 444.898 509.879 445.244 510.298 445.417C511.763 443.859 512.392 441.954 512.182 439.704C511.763 437.28 511.659 435.375 511.868 433.99C512.915 432.952 513.125 431.74 512.496 430.355C511.659 428.796 510.716 428.104 509.669 428.277C508.413 428.277 507.47 428.363 506.842 428.537C506.214 428.537 505.586 428.623 504.957 428.796C504.12 428.969 503.387 429.056 502.758 429.056C501.502 429.402 500.978 429.056 501.188 428.017ZM474.801 414.253C476.685 414.08 480.769 413.734 487.052 413.214C493.334 412.522 500.35 412.608 508.099 413.474C515.638 414.167 522.339 414.167 528.203 413.474C534.067 412.782 537.103 412.868 537.313 413.734C537.522 414.426 537.418 415.638 536.999 417.37C536.58 419.101 536.58 421.611 536.999 424.901C537.418 428.19 537.313 433.904 536.685 442.041C535.637 444.119 536.161 445.417 538.255 445.936C540.349 446.283 542.13 446.11 543.595 445.417C544.852 444.551 546.318 444.205 547.993 444.378C549.459 444.378 550.297 443.772 550.506 442.56C551.344 438.232 551.03 434.856 549.564 432.432C547.889 429.835 548.203 428.363 550.506 428.017C552.601 427.671 555.742 428.017 559.93 429.056C564.119 430.095 567.784 430.268 570.925 429.575C573.857 428.71 575.323 428.45 575.323 428.796C575.323 429.143 575.218 429.922 575.009 431.134C574.59 432.346 574.59 433.298 575.009 433.99C575.427 434.683 575.742 435.548 575.951 436.587C575.951 437.626 575.846 438.578 575.637 439.444C575.428 440.136 575.113 441.175 574.695 442.56C574.276 443.772 574.066 444.725 574.066 445.417C574.066 446.11 574.276 447.408 574.695 449.313C575.323 452.083 575.323 454.853 574.695 457.623C573.438 459.008 571.03 459.7 567.47 459.7C563.909 459.7 559.511 459.96 554.276 460.48C549.04 460.999 542.13 461.172 533.543 460.999C524.748 460.826 517.104 460.566 510.612 460.22C499.512 459.527 487.366 459.874 474.172 461.259C473.125 460.912 473.021 459.614 473.858 457.363C474.486 454.939 474.591 453.121 474.172 451.91C473.753 450.524 473.544 449.572 473.544 449.053C473.544 448.533 473.753 447.322 474.172 445.417C475.429 440.223 475.115 434.596 473.23 428.537C473.021 421.611 473.544 416.85 474.801 414.253Z" fill="#CD0706"/>
<path d="M636.893 470.608L638.777 449.572C638.777 447.495 638.673 442.907 638.463 435.808C638.254 428.537 638.149 423.516 638.149 420.746C636.893 418.149 637.102 416.158 638.777 414.773C640.453 413.214 642.966 412.435 646.317 412.435L676.159 412.955C679.51 412.435 684.012 412.522 689.667 413.214C695.531 413.907 699.51 414.253 701.604 414.253L700.347 435.548C700.347 437.453 700.452 442.041 700.661 449.313C701.08 456.411 701.08 464.375 700.661 473.205C700.243 481.861 700.243 488.267 700.661 492.423C701.499 500.56 701.813 506.619 701.604 510.601C700.976 523.76 700.557 541.419 700.347 563.58C700.347 585.741 700.243 601.323 700.033 610.326C701.08 654.475 701.29 679.319 700.661 684.859C700.033 690.4 699.824 693.949 700.033 695.507C701.29 700.874 699.928 703.904 695.949 704.597C693.227 704.25 690.19 704.25 686.84 704.597C678.463 705.462 674.798 703.211 675.845 697.844C674.379 690.053 673.856 671.961 674.274 643.567C674.903 615.174 675.321 586.434 675.531 557.347C675.95 528.088 676.264 512.939 676.473 511.9C675.636 478.312 675.007 459.7 674.588 456.065C674.17 452.429 674.17 449.572 674.588 447.495C675.007 445.244 675.217 442.733 675.217 439.963C675.217 437.193 674.589 435.289 673.332 434.25C671.657 435.462 669.353 435.635 666.421 434.769C663.699 433.731 662.337 433.557 662.337 434.25C663.384 447.062 663.803 460.566 663.594 474.763C662.337 545.747 662.337 591.627 663.594 612.403C664.85 633.006 664.85 649.973 663.594 663.304C662.337 676.809 661.709 683.647 661.709 683.821C663.594 686.244 664.117 689.88 663.28 694.728C662.442 699.576 662.128 702.779 662.337 704.337C659.196 703.644 656.264 703.385 653.542 703.558C647.259 703.904 643.175 704.077 641.29 704.077C638.359 705.635 634.589 705.808 629.982 704.597C625.374 703.558 622.024 703.385 619.929 704.077C617.626 703.211 614.275 702.952 609.877 703.298C605.689 703.817 602.652 703.731 600.767 703.038C599.511 691.612 599.092 683.388 599.511 678.367C602.233 637.681 602.443 600.63 600.139 567.216C597.836 533.801 597.626 503.763 599.511 477.1C601.396 450.265 601.71 429.229 600.453 413.993C601.5 414.167 602.443 414.08 603.281 413.734C604.328 413.214 605.061 412.955 605.479 412.955C605.898 412.782 606.736 413.128 607.992 413.993C609.249 414.859 611.553 414.946 614.903 414.253C618.464 413.388 621.081 413.128 622.757 413.474C624.432 413.993 625.06 415.725 624.642 418.668C627.155 437.02 627.05 455.286 624.327 473.465C623.908 476.581 624.641 489.22 626.526 511.381C628.411 533.368 628.62 551.807 627.155 566.696C625.898 581.586 625.27 592.666 625.27 599.938C625.479 607.209 625.06 619.502 624.013 636.815C622.966 654.128 623.071 667.373 624.327 676.549C623.699 681.05 623.908 683.734 624.956 684.6L639.092 682.522C638.673 660.188 638.359 637.854 638.149 615.52C637.311 606.344 636.893 601.409 636.893 600.717C637.102 599.851 637.207 594.744 637.207 585.395C638.463 551.461 638.359 513.198 636.893 470.608Z" fill="#CD0706"/>
</svg>
