<svg width="240" height="240" viewBox="0 0 77 85" fill="none" xmlns="http://www.w3.org/2000/svg">
<path d="M3.29954 15.6051C3.21958 15.6523 3.16628 15.6995 3.13963 15.7466C3.13963 15.7938 2.87311 15.8174 2.34006 15.8174C1.83367 15.7938 1.58048 15.7466 1.58048 15.6759C1.10074 15.8646 0.700958 15.841 0.381132 15.6051C0.0613063 15.3456 -0.0319762 15.0507 0.101284 14.7205C0.234545 14.3902 0.247871 13.9184 0.141263 13.305C0.0613064 12.6917 0.127937 12.2906 0.341154 12.1019C0.341154 11.8188 0.28785 11.347 0.181241 10.6865C0.101285 10.0259 0.0879585 9.54234 0.141263 9.23567C0.221219 8.92899 0.247871 8.58693 0.221219 8.20948C0.194567 7.83204 0.234545 7.54895 0.341154 7.36023L0.181241 7.32484C0.314502 7.32484 0.474414 7.30125 0.660979 7.25407C1.00746 7.15971 1.26065 7.14791 1.42057 7.21868C1.60713 7.28946 2.10019 7.30125 2.89976 7.25407C3.69932 7.1833 4.16574 7.21868 4.299 7.36023C4.69878 7.26587 5.25847 7.25407 5.97808 7.32484C6.72434 7.37202 7.29736 7.31305 7.69714 7.14791C8.09693 7.24227 8.29682 7.47818 8.29682 7.85563C8.29682 8.20948 8.29682 8.45718 8.29682 8.59873C8.29682 8.74027 8.25684 8.96438 8.17688 9.27105C8.12358 9.57773 8.05695 9.96697 7.97699 10.4388C7.89703 10.887 7.95034 11.5121 8.1369 12.3142C8.29682 12.7153 8.3368 13.6235 8.25684 15.0389C8.17688 16.4308 8.15023 17.2328 8.17688 17.4452C8.23019 17.6575 8.23019 18.1057 8.17688 18.7898C8.15023 19.4739 8.1369 19.8396 8.1369 19.8868C8.11025 20.217 7.4706 20.276 6.21795 20.0637C5.79152 19.9929 5.47169 19.9811 5.25847 20.0283C4.69878 19.816 4.19239 19.8514 3.7393 20.1345C3.31287 20.4176 3.13963 20.8186 3.21958 21.3376C3.85924 25.5367 3.96584 28.745 3.53941 30.9625C3.4328 31.3871 3.39282 31.8825 3.41948 32.4487C3.44613 33.2508 3.41948 33.8287 3.33952 34.1826C3.28622 34.56 3.28622 34.9729 3.33952 35.4211C3.39282 35.8693 3.39282 36.1996 3.33952 36.4119C3.28622 36.6478 3.35285 36.8365 3.53941 36.9781C3.72598 37.1196 4.0458 37.1314 4.49889 37.0134C4.95197 36.9191 5.31178 36.8955 5.5783 36.9427C6.27125 37.0606 6.83095 36.8601 7.25738 36.3411C7.31069 36.2703 7.71047 35.8929 8.45673 35.2088C9.22964 34.5482 9.68273 34.159 9.81599 34.041C9.84264 33.3097 9.84264 30.7502 9.81599 26.3623C9.81599 21.9509 9.82931 19.3088 9.85597 18.436C9.88262 17.5631 9.86929 16.7021 9.81599 15.8528C9.76268 14.9799 9.74936 14.461 9.77601 14.2958C9.98923 12.385 9.96258 10.0731 9.69605 7.36023C9.88262 7.24227 10.0825 7.19509 10.2957 7.21868C10.5089 7.24227 10.8021 7.28946 11.1752 7.36023C11.575 7.40741 11.8682 7.40741 12.0548 7.36023C12.4546 7.24227 12.6811 7.26587 12.7344 7.431C12.8144 7.57254 12.8543 7.6787 12.8543 7.74947C12.8543 7.82024 12.8543 7.9146 12.8543 8.03255C12.8543 8.15051 12.8543 8.32744 12.8543 8.56334C12.8543 8.79924 12.8943 9.38901 12.9743 10.3326C13.0809 12.1963 13.1075 13.5291 13.0542 14.3312C12.8677 16.5015 12.7877 18.1411 12.8144 19.2498C12.841 20.3586 12.841 21.1842 12.8144 21.7268C12.5745 25.7608 12.5745 28.6506 12.8144 30.3963C13.1342 33.062 13.2408 36.0934 13.1342 39.4904C13.0276 39.7735 12.8144 39.9151 12.4945 39.9151C12.2014 39.9151 11.8949 39.8679 11.575 39.7735C11.2819 39.7028 11.002 39.7617 10.7355 39.9505C10.6555 39.7146 10.4157 39.6792 10.0159 39.8443L9.81599 39.8797C9.86929 39.8561 9.86929 39.7146 9.81599 39.4551C9.76268 39.172 9.76268 38.7945 9.81599 38.3227C9.89595 37.8509 9.90927 37.4971 9.85597 37.2611C9.40288 37.3791 8.66995 37.8863 7.65717 38.7827C7.44395 39.2309 7.08414 39.5376 6.57775 39.7028C6.07136 39.8679 5.67158 39.8915 5.37841 39.7735C5.08523 39.6556 4.75208 39.6084 4.37895 39.632C3.97917 39.6556 3.55274 39.7028 3.09965 39.7735C2.67322 39.8679 2.42002 39.9151 2.34006 39.9151L1.14072 39.9858C0.660979 39.9858 0.35448 39.8915 0.221219 39.7028C0.141263 39.5612 0.114611 39.3843 0.141263 39.172C-0.0186501 38.8653 -0.0319762 38.3109 0.101284 37.5088C0.234545 36.7068 0.247871 36.1406 0.141263 35.8103C0.0346542 35.5037 0.0213281 34.9847 0.101284 34.2534C0.207893 33.5456 0.207893 33.0502 0.101284 32.7672C0.0213281 32.4605 0.0213281 31.9651 0.101284 31.281C0.447762 28.0727 0.474414 25.1828 0.181241 22.6115C0.127937 22.0925 0.127937 21.5735 0.181241 21.0545C0.234545 20.5119 0.234545 20.0873 0.181241 19.7806C0.28785 19.7098 0.314502 19.3796 0.261197 18.7898C0.207893 18.1765 0.181241 17.8462 0.181241 17.799C0.207893 17.4452 0.35448 17.2328 0.621001 17.1621C1.04744 17.0677 1.40724 17.1031 1.70041 17.2682C2.10019 17.1503 2.53995 17.0913 3.01969 17.0913L4.45891 17.1975C4.72543 17.1975 4.89867 17.1267 4.97863 16.9851C5.08523 16.82 5.11189 16.6431 5.05858 16.4544C4.87202 15.841 4.83204 15.3456 4.93865 14.9682C5.07191 14.5907 5.04526 13.7179 4.85869 12.3496C4.83204 12.1609 4.87202 11.8306 4.97863 11.3588C5.08523 10.8634 5.09856 10.4978 5.0186 10.2619C4.93865 10.0024 4.6588 9.8962 4.17906 9.94338C3.27289 10.0377 3.05967 10.7455 3.53941 12.0665C3.35285 12.3732 3.29954 12.8686 3.3795 13.5527C3.45945 14.2368 3.45945 14.6851 3.3795 14.8974C3.32619 15.1097 3.31287 15.263 3.33952 15.3574C3.39282 15.4518 3.3795 15.5343 3.29954 15.6051ZM0.181241 7.32484L0.0213281 7.28946C0.0746324 7.31305 0.127937 7.32484 0.181241 7.32484Z" fill="#1D1D1D"/>
<path d="M3.56377 2.15853C3.40386 2.25289 3.33723 2.37084 3.36388 2.51239C3.09736 3.26728 3.12401 3.90422 3.44384 4.42321C3.65705 4.32885 3.91025 4.31706 4.20342 4.38783C4.4966 4.4586 4.66984 4.50578 4.72314 4.52937C4.9097 4.31706 4.98966 4.05756 4.96301 3.75088C4.9097 3.42062 4.89638 3.16112 4.92303 2.9724C5.05629 2.83086 5.08294 2.66572 5.00299 2.477C4.89638 2.26469 4.77644 2.17032 4.64318 2.19391C4.48327 2.19391 4.36334 2.20571 4.28338 2.2293C4.20342 2.2293 4.12347 2.24109 4.04351 2.26469C3.9369 2.28828 3.84362 2.30007 3.76366 2.30007C3.60375 2.34725 3.53712 2.30007 3.56377 2.15853ZM0.205602 0.283085C0.445471 0.259495 0.965188 0.212314 1.76475 0.141543C2.56432 0.0471809 3.45716 0.0589761 4.44329 0.176928C5.40277 0.27129 6.25564 0.27129 7.0019 0.176928C7.74816 0.0825666 8.13461 0.0943618 8.16127 0.212314C8.18792 0.306676 8.17459 0.471809 8.12129 0.707713C8.06798 0.943618 8.06798 1.28568 8.12129 1.7339C8.17459 2.18212 8.16127 2.9606 8.08131 4.06935C7.94805 4.35244 8.01468 4.52937 8.2812 4.60014C8.54772 4.64732 8.77426 4.62373 8.96083 4.52937C9.12074 4.41142 9.30731 4.36424 9.52052 4.38783C9.70709 4.38783 9.8137 4.30526 9.84035 4.14013C9.94696 3.55036 9.90698 3.09035 9.72042 2.76008C9.5072 2.40623 9.54718 2.20571 9.84035 2.15853C10.1069 2.11135 10.5067 2.15853 11.0397 2.30007C11.5727 2.44161 12.0392 2.4652 12.4389 2.37084C12.8121 2.25289 12.9986 2.2175 12.9986 2.26469C12.9986 2.31187 12.9853 2.41802 12.9587 2.58316C12.9053 2.74829 12.9053 2.87804 12.9587 2.9724C13.012 3.06676 13.0519 3.18471 13.0786 3.32626C13.0786 3.4678 13.0653 3.59755 13.0386 3.7155C13.012 3.80986 12.972 3.9514 12.9187 4.14013C12.8654 4.30526 12.8387 4.43501 12.8387 4.52937C12.8387 4.62373 12.8654 4.80066 12.9187 5.06016C12.9986 5.4376 12.9986 5.81505 12.9187 6.1925C12.7588 6.38122 12.4523 6.47558 11.9992 6.47558C11.5461 6.47558 10.9864 6.51097 10.3201 6.58174C9.65379 6.65251 8.77426 6.6761 7.68153 6.65251C6.56214 6.62892 5.58933 6.59354 4.76312 6.54635C3.35055 6.45199 1.80473 6.49917 0.125646 6.6879C-0.0076149 6.64072 -0.0209409 6.46379 0.0856675 6.15711C0.165624 5.82685 0.17895 5.57915 0.125646 5.41401C0.0723414 5.22529 0.0456893 5.09554 0.0456893 5.02477C0.0456893 4.954 0.0723414 4.78887 0.125646 4.52937C0.285558 3.82166 0.24558 3.05497 0.00571117 2.2293C-0.0209409 1.28568 0.0456893 0.636942 0.205602 0.283085Z" fill="#1D1D1D"/>
<path d="M20.8344 7.96178L21.0742 5.09554C21.0742 4.81246 21.0609 4.18731 21.0342 3.2201C21.0076 2.2293 20.9943 1.54517 20.9943 1.16773C20.8344 0.81387 20.861 0.54258 21.0742 0.353857C21.2874 0.141543 21.6073 0.0353857 22.0337 0.0353857L25.8316 0.106157C26.2581 0.0353857 26.8311 0.0471809 27.5507 0.141543C28.297 0.235904 28.8033 0.283085 29.0699 0.283085L28.91 3.18471C28.91 3.44421 28.9233 4.06936 28.9499 5.06016C29.0032 6.02736 29.0032 7.11253 28.9499 8.31564C28.8966 9.49516 28.8966 10.368 28.9499 10.9342C29.0565 12.0429 29.0965 12.8686 29.0699 13.4112C28.9899 15.2041 28.9366 17.6103 28.91 20.6299C28.91 23.6494 28.8966 25.7726 28.87 26.9993C29.0032 33.0149 29.0299 36.4001 28.9499 37.155C28.87 37.9099 28.8433 38.3935 28.87 38.6058C29.0299 39.3371 28.8567 39.7499 28.3503 39.8443C28.0038 39.7971 27.6173 39.7971 27.1909 39.8443C26.1248 39.9623 25.6584 39.6556 25.7917 38.9243C25.6051 37.8627 25.5385 35.3975 25.5918 31.5287C25.6717 27.6598 25.725 23.7438 25.7517 19.7806C25.805 15.7938 25.845 13.7297 25.8716 13.5881C25.765 9.01156 25.685 6.47558 25.6317 5.98018C25.5784 5.48478 25.5784 5.09554 25.6317 4.81246C25.685 4.50578 25.7117 4.16372 25.7117 3.78627C25.7117 3.40882 25.6317 3.14933 25.4718 3.00778C25.2586 3.17292 24.9654 3.19651 24.5923 3.07856C24.2458 2.93701 24.0726 2.91342 24.0726 3.00778C24.2059 4.75348 24.2592 6.59354 24.2325 8.52795C24.0726 18.2 24.0726 24.4515 24.2325 27.2824C24.3924 30.0896 24.3924 32.4015 24.2325 34.218C24.0726 36.058 23.9926 36.9899 23.9926 37.0134C24.2325 37.3437 24.2991 37.8391 24.1925 38.4996C24.0859 39.1602 24.0459 39.5966 24.0726 39.8089C23.6728 39.7146 23.2997 39.6792 22.9532 39.7028C22.1536 39.7499 21.6339 39.7735 21.3941 39.7735C21.0209 39.9858 20.5412 40.0094 19.9548 39.8443C19.3685 39.7028 18.9421 39.6792 18.6755 39.7735C18.3824 39.6556 17.9559 39.6202 17.3962 39.6674C16.8632 39.7381 16.4767 39.7264 16.2369 39.632C16.0769 38.075 16.0236 36.9545 16.077 36.2703C16.4234 30.7266 16.4501 25.6782 16.1569 21.1253C15.8637 16.5723 15.8371 12.4794 16.077 8.84643C16.3168 5.1899 16.3568 2.32366 16.1969 0.2477C16.3301 0.27129 16.4501 0.259495 16.5567 0.212314C16.6899 0.141543 16.7832 0.106157 16.8365 0.106157C16.8898 0.0825666 16.9964 0.129747 17.1564 0.2477C17.3163 0.365652 17.6094 0.377447 18.0359 0.283085C18.489 0.165133 18.8221 0.129747 19.0353 0.176928C19.2486 0.2477 19.3285 0.483604 19.2752 0.884642C19.595 3.38523 19.5817 5.87403 19.2352 8.35103C19.1819 8.77565 19.2752 10.4978 19.5151 13.5173C19.7549 16.5133 19.7816 19.0257 19.595 21.0545C19.4351 23.0833 19.3552 24.5931 19.3552 25.5839C19.3818 26.5747 19.3285 28.2496 19.1953 30.6086C19.062 32.9677 19.0753 34.7724 19.2352 36.0226C19.1553 36.636 19.1819 37.0016 19.3152 37.1196L21.1142 36.8365C21.0609 33.7933 21.0209 30.7502 20.9943 27.707C20.8877 26.4567 20.8344 25.7844 20.8344 25.69C20.861 25.5721 20.8743 24.8761 20.8743 23.6023C21.0342 18.9785 21.0209 13.765 20.8344 7.96178Z" fill="#1D1D1D"/>
<path d="M41.4875 11.3234C41.3276 11.465 41.061 11.5121 40.6879 11.465C40.3414 11.4178 40.1149 11.4414 40.0083 11.5357C40.0349 11.9368 40.0483 12.4912 40.0483 13.1989C40.0483 13.9066 40.1149 14.461 40.2481 14.862C40.1149 15.2866 40.1149 18.2708 40.2481 23.8146C40.4081 29.3347 40.3947 32.3307 40.2082 32.8025C40.0216 33.2744 39.9816 33.6754 40.0882 34.0057C40.3814 34.8785 40.2215 35.3739 39.6085 35.4919C38.3025 35.7514 37.1565 35.7867 36.1704 35.598C35.9572 35.5744 35.7972 35.5626 35.6906 35.5626C35.4774 35.5155 35.3708 35.6098 35.3708 35.8457C35.3708 36.1052 35.3575 36.3175 35.3308 36.4827C35.3308 36.6714 35.3442 36.7775 35.3708 36.8011C35.584 36.9663 35.9438 37.0252 36.4502 36.9781C38.1027 36.8601 39.2487 36.8483 39.8883 36.9427C40.5547 37.0606 41.0477 37.0724 41.3675 36.9781C41.6874 36.8601 41.794 36.5534 41.6874 36.058C41.6074 35.5626 41.5941 34.9965 41.6474 34.3595C41.754 33.4395 41.834 26.728 41.8873 14.2251C41.8073 13.8712 41.7806 13.3758 41.8073 12.7389C41.8606 12.1019 41.754 11.6301 41.4875 11.3234ZM43.8462 8.59873C44.4858 8.50436 44.8456 8.6577 44.9256 9.05874C44.9789 9.36542 44.9523 9.73107 44.8456 10.1557C44.7657 10.5567 44.739 10.946 44.7657 11.3234C44.7923 11.7009 44.8723 13.7061 45.0056 17.339C45.1388 20.9719 45.1521 23.0833 45.0455 23.673C45.2054 28.4147 45.1788 31.2928 44.9656 32.3071C44.7524 33.2979 44.739 33.9231 44.9256 34.1826C45.1122 34.4657 45.1388 34.9729 45.0056 35.7042C44.8723 36.4591 44.8057 36.9073 44.8057 37.0488C44.8323 37.214 44.8989 37.5206 45.0056 37.9689C45.1655 38.7945 45.0322 39.3961 44.6058 39.7735C44.0727 39.9623 43.6196 40.033 43.2465 39.9858C42.9 39.9623 42.4336 39.9033 41.8473 39.8089C41.2876 39.7146 40.8212 39.691 40.448 39.7381C40.0749 39.7853 39.4086 39.7617 38.4491 39.6674C37.4897 39.5966 36.8767 39.5966 36.6101 39.6674C36.3703 39.7381 36.0105 39.7853 35.5307 39.8089C35.051 39.8325 34.7045 39.8561 34.4913 39.8797C33.7983 39.9033 33.2386 39.8561 32.8122 39.7381C32.6256 39.8089 32.4791 39.8443 32.3724 39.8443C32.1059 39.8443 31.986 39.6792 32.0126 39.3489C32.0126 39.2545 32.026 39.1012 32.0526 38.8889C32.0793 38.7002 32.0926 37.7565 32.0926 36.058C32.1726 35.8221 32.1726 35.5273 32.0926 35.1734C32.0393 34.8195 32.0393 34.5364 32.0926 34.3241C31.8527 33.9467 31.8527 33.5221 32.0926 33.0502C32.3325 32.5784 32.7456 32.4723 33.3319 32.7318C34.3714 32.6374 35.4108 32.6728 36.4502 32.8379C36.5568 32.7672 36.7034 29.9599 36.89 24.4161C36.9166 24.251 37.0099 23.4843 37.1698 22.1161C37.3297 20.7478 37.3164 18.9078 37.1298 16.5959C36.9433 14.2604 36.8767 13.0101 36.93 12.845C37.1432 12.2552 37.0366 11.8424 36.6101 11.6065C36.2103 11.347 35.704 11.3116 35.091 11.5004C34.7445 11.406 34.3447 11.3942 33.8916 11.465C32.6656 11.7009 32.0659 11.4178 32.0926 10.6157C32.1459 9.81363 32.1992 9.1531 32.2525 8.63411C32.3058 8.11512 32.2392 7.74947 32.0526 7.53716C32.026 7.23048 32.026 6.6761 32.0526 5.87403C32.0793 5.07195 32.0793 4.51757 32.0526 4.2109C31.9727 1.99339 31.986 0.76669 32.0926 0.530785C32.3325 0.0589761 32.8255 -0.0589761 33.5718 0.176928C33.8383 0.2477 34.1448 0.283085 34.4913 0.283085C34.8378 0.283085 35.1043 0.188724 35.2909 0C36.0105 0.306676 36.9166 0.377447 38.0094 0.212314C39.1288 0.0471809 40.7812 0.0235905 42.9667 0.141543C43.5797 -0.0707713 44.126 -0.0117952 44.6058 0.318471C45.1122 0.625147 45.2454 1.06157 45.0056 1.62774C44.8989 2.80726 44.8989 4.06936 45.0056 5.41401C44.819 5.74428 44.4059 5.92121 43.7662 5.9448C43.1532 5.96839 42.6602 5.92121 42.287 5.80326C41.8873 5.85044 41.6607 5.76787 41.6074 5.55556C41.5541 5.31965 41.5808 5.06016 41.6874 4.77707C41.794 4.49398 41.754 4.24628 41.5674 4.03397C41.834 3.58575 41.8206 3.29087 41.5275 3.14933C41.2343 2.98419 40.8345 2.93701 40.3281 3.00778C39.8484 3.07856 39.4619 3.07856 39.1687 3.00778C38.8756 2.93701 38.2626 2.94881 37.3297 3.04317C36.3969 3.13753 35.7573 3.13753 35.4108 3.04317C35.3308 3.51498 35.2509 4.31706 35.1709 5.4494C35.3308 5.63812 35.3841 6.01557 35.3308 6.58174C35.1976 7.99717 35.2375 8.72847 35.4508 8.77565C35.664 8.79924 35.8905 8.76386 36.1304 8.6695C36.3703 8.57513 36.5835 8.57513 36.77 8.6695C36.9566 8.29205 37.0099 7.80845 36.93 7.21868C36.8767 6.60533 36.85 6.20429 36.85 6.01557C37.1165 5.87403 37.996 5.79146 39.4886 5.76787C39.915 5.76787 40.1549 5.95659 40.2082 6.33404C40.2615 6.6879 40.2215 7.04175 40.0882 7.39561C39.955 7.74947 39.995 8.07974 40.2082 8.38641C40.4214 8.69309 40.9944 8.78745 41.9272 8.6695C42.8601 8.52795 43.4997 8.50436 43.8462 8.59873Z" fill="#1D1D1D"/>
<path d="M51.1066 4.38783C51.4797 4.71809 51.4931 5.41401 51.1466 6.47558C51.3065 6.66431 51.3865 6.80585 51.3865 6.90021C51.3865 7.06535 51.1466 7.1833 50.6668 7.25407C50.2138 7.30125 49.9339 7.34843 49.8273 7.39561C49.7207 7.20689 49.5208 7.15971 49.2276 7.25407C48.588 7.44279 48.2148 7.28945 48.1082 6.79405C48.0549 6.53456 48.0549 6.29865 48.1082 6.08634C48.1615 5.87403 48.1216 5.6853 47.9883 5.52017C48.1216 5.35504 48.1749 5.07195 48.1482 4.67091C48.1482 4.24628 48.1882 3.93961 48.2682 3.75088C48.1615 3.63293 48.1082 3.49139 48.1082 3.32626C48.1349 3.13753 48.1216 2.9606 48.0683 2.79547C48.0416 2.63034 48.0283 2.34725 48.0283 1.94621C48.0283 1.33286 48.0016 0.731304 47.9483 0.141543L48.2282 0.318471C48.3348 0.153338 48.4414 0.0707713 48.548 0.0707713C48.7079 0.0707713 48.9345 0.106157 49.2276 0.176928C49.5208 0.224109 50.4003 0.224109 51.8662 0.176928C51.9995 0.0825666 52.4259 0.0707713 53.1455 0.141543C53.8918 0.188724 54.3182 0.224109 54.4248 0.2477C54.6114 0.27129 54.6913 0.554375 54.6647 1.09696C54.638 1.61595 54.638 1.9816 54.6647 2.19391C54.5314 3.84525 54.5181 4.85964 54.6247 5.23708C54.6247 6.39302 54.5314 7.48997 54.3448 8.52795C54.5847 9.70748 54.6114 10.7219 54.4248 11.5711C54.0783 11.406 53.7985 11.3352 53.5853 11.3588C53.3987 11.3824 53.1055 11.4414 52.7057 11.5357C52.3326 11.6065 52.0394 11.6065 51.8262 11.5357C51.5064 11.4178 51.3198 11.4886 51.2665 11.7481C51.2665 11.8188 51.2665 11.9368 51.2665 12.1019C51.2932 12.2435 51.3065 12.326 51.3065 12.3496C51.5997 16.9498 51.6263 19.6391 51.3865 20.4176C51.4398 21.1489 51.4264 21.6796 51.3465 22.0099C51.2932 22.3402 51.2798 24.0859 51.3065 27.247C51.3598 30.4081 51.3598 32.1538 51.3065 32.4841C51.3065 33.0738 51.3198 33.7933 51.3465 34.6426C51.3198 35.6098 51.2532 36.3175 51.1466 36.7657C51.4131 37.0017 51.8262 37.1196 52.3859 37.1196C52.9456 37.1196 53.1188 36.8719 52.9056 36.3765C52.8257 36.235 52.8257 35.8221 52.9056 35.138C52.9856 34.4539 52.9856 33.9585 52.9056 33.6518C52.8257 33.3215 52.8257 31.4225 52.9056 27.9547C52.9856 24.251 52.9989 22.2104 52.9456 21.833C52.759 20.8658 52.7324 20.3114 52.8656 20.1699C52.9989 20.0283 53.1455 19.9693 53.3054 19.9929C54.2382 20.0637 55.0911 20.0047 55.864 19.816C56.0506 19.9104 56.1439 20.0873 56.1439 20.3468C56.1439 20.6063 56.1039 20.913 56.0239 21.2668C55.8374 22.352 55.904 26.728 56.2238 34.3949C55.9839 35.4565 55.9173 36.2821 56.0239 36.8719L57.5431 37.0134C57.5698 36.1878 57.6364 33.64 57.743 29.3701C57.9296 19.7688 57.9429 13.9066 57.783 11.7834C57.6497 9.63671 57.5698 8.33923 57.5431 7.89101C57.5431 7.11253 57.5964 5.86223 57.703 4.14013C57.8363 2.41802 57.8762 1.45081 57.8229 1.2385C57.7696 1.00259 57.7563 0.76669 57.783 0.530785C57.8363 0.294881 57.9962 0.212314 58.2627 0.283085C58.4493 0.0943618 58.8091 0.0471809 59.3421 0.141543C59.8752 0.212314 60.235 0.200519 60.4215 0.106157C60.7413 0.2477 60.9013 0.589761 60.9013 1.13234C60.9013 1.67492 60.9279 2.13494 60.9812 2.51239C61.0345 2.86624 61.0079 3.73909 60.9013 5.13093C60.8213 6.49917 60.7813 7.51356 60.7813 8.1741C60.7813 8.81104 60.808 9.57773 60.8613 10.4742C60.9946 13.0691 61.0612 17.3744 61.0612 23.39C61.0878 30.6322 61.0612 34.6426 60.9812 35.4211C60.9013 36.1996 60.8879 36.8837 60.9412 37.4735C61.0212 38.0632 60.9679 38.535 60.7813 38.8889C61.1012 39.4079 60.8879 39.7028 60.1417 39.7735C60.0617 39.7971 59.9418 39.8089 59.7819 39.8089C59.622 39.8325 59.502 39.8443 59.4221 39.8443C59.3688 39.8679 59.0756 39.8679 58.5425 39.8443C57.5564 39.7971 56.7702 39.8089 56.1838 39.8797C54.8246 39.9033 53.7851 39.9269 53.0655 39.9505C52.3726 39.974 51.4398 39.9387 50.2671 39.8443C49.0944 39.7735 48.3881 39.7499 48.1482 39.7735C48.1749 38.6176 48.1749 37.9335 48.1482 37.7212C48.1216 37.5088 48.1349 36.8129 48.1882 35.6334C48.2415 34.4539 48.2682 33.6518 48.2682 33.2272C48.2682 32.8025 48.2415 32.0948 48.1882 31.104C48.2682 29.5942 48.2148 26.2562 48.0283 21.0899C47.8684 15.9 47.895 12.8096 48.1082 11.8188C48.0283 11.3234 48.0016 11.005 48.0283 10.8634C48.1882 10.1085 48.2682 9.60132 48.2682 9.34182C48.0283 9.05874 48.0283 8.84643 48.2682 8.70488C48.5347 8.58693 48.8412 8.57513 49.1877 8.6695C49.4542 8.48077 49.9073 8.46898 50.5469 8.63411C51.2132 8.77565 51.693 8.79924 51.9861 8.70488C52.0661 8.39821 52.0927 8.03255 52.0661 7.60793C52.0661 7.1833 52.0927 6.80585 52.146 6.47558C52.1993 6.14532 52.1993 5.73248 52.146 5.23708C52.0661 4.08115 51.9595 3.33805 51.8262 3.00778C51.6396 3.10215 51.4131 3.11394 51.1466 3.04317C50.8801 2.9724 50.6802 2.98419 50.5469 3.07856C50.6269 3.19651 50.6135 3.4678 50.5069 3.89243C50.427 4.29347 50.4936 4.51758 50.7068 4.56476L50.8667 4.4586C50.8401 4.50578 50.92 4.48219 51.1066 4.38783Z" fill="#1D1D1D"/>
<path d="M76.9969 0.707713C76.9969 0.825666 76.9569 2.40623 76.8769 5.4494C76.8236 8.46898 76.797 10.4506 76.797 11.3942C76.797 12.3142 76.7703 19.238 76.717 32.1656C76.7437 35.0908 76.8236 36.7893 76.9569 37.2611C76.8236 37.5442 76.797 37.8745 76.8769 38.2519C77.1435 39.2899 76.9302 39.8089 76.2373 39.8089C74.958 39.8325 73.7853 39.8207 72.7192 39.7735C71.6798 39.7263 70.8269 39.7146 70.1606 39.7381C69.6009 39.9505 68.5881 39.9858 67.1222 39.8443C65.683 39.7028 64.6703 39.6792 64.0839 39.7735C63.8174 33.8995 63.8707 29.5353 64.2438 26.6808C64.1372 22.5289 64.1106 16.8082 64.1639 9.51875C64.0039 8.10333 63.924 6.32225 63.924 4.17551C63.9506 2.00519 63.964 0.707713 63.964 0.283085L64.2438 0.318471C64.3238 0.200519 64.7902 0.153338 65.6431 0.176928C66.4959 0.176928 66.989 0.165133 67.1222 0.141543C67.1489 0.754894 67.1889 1.66313 67.2422 2.86624C67.4021 6.35763 67.3754 9.1531 67.1622 11.2527C67.2422 12.8096 67.2688 14.4963 67.2422 16.3128C67.2422 18.1293 67.2422 20.4529 67.2422 23.2838C67.2422 26.0911 67.2555 28.3557 67.2822 30.0778C67.3355 31.7764 67.3888 34.0528 67.4421 36.9073C67.8952 37.0724 68.6148 37.0842 69.6009 36.9427C70.587 36.8247 71.3733 36.8601 71.9596 37.0488C72.5726 37.2611 73.039 37.155 73.3588 36.7304C73.9185 36.0226 74.0252 33.121 73.6787 28.0255C73.5454 25.6664 73.5054 23.0951 73.5587 20.3114C73.6387 17.5041 73.6254 15.6641 73.5188 14.7912C73.4388 13.8948 73.4921 12.4322 73.6787 10.4034C73.4655 8.56334 73.4388 6.09814 73.5987 3.00778C73.3588 3.10215 73.1056 3.11394 72.8391 3.04317C72.5993 2.9724 72.386 2.9606 72.1995 3.00778C72.0396 3.03138 71.9729 3.25548 71.9996 3.68011C72.0529 4.08115 72.0529 4.74168 71.9996 5.66171C71.9729 6.55815 72.0529 7.26587 72.2395 7.78485C72.1862 8.44539 72.1728 9.31824 72.1995 10.4034C72.2261 11.465 72.1462 12.3024 71.9596 12.9158C72.4393 12.8214 72.7325 12.9512 72.8391 13.305C72.9724 13.6353 72.999 14.0363 72.9191 14.5081C72.8391 14.9799 72.8658 15.381 72.999 15.7113C72.7592 15.6877 72.3594 15.6995 71.7997 15.7466C70.4138 15.8174 69.441 15.7466 68.8813 15.5343C68.9079 14.1425 68.868 13.246 68.7614 12.845C68.9479 12.3732 69.0412 11.8778 69.0412 11.3588C69.0412 10.8162 68.9879 10.1321 68.8813 9.30644C68.7747 8.45718 68.7347 7.9264 68.7614 7.71408C68.788 7.47818 68.8413 7.15971 68.9213 6.75867C69.0012 6.28686 69.0012 5.54376 68.9213 4.52937C68.8413 3.51498 68.7747 2.90163 68.7214 2.68931C68.6947 2.45341 68.7347 2.14673 68.8413 1.76928C68.6814 1.27388 68.6548 0.861051 68.7614 0.530785C68.868 0.176928 69.2278 0.0943618 69.8408 0.283085C70.2939 0.165133 70.9602 0.153338 71.8397 0.2477C72.7192 0.342061 73.3722 0.27129 73.7986 0.0353857C74.1717 0.294881 74.6115 0.365652 75.1179 0.2477C76.4239 -0.0117952 77.0502 0.141543 76.9969 0.707713Z" fill="#1D1D1D"/>
<path d="M11.5544 57.0697C11.2858 57.2391 11.0843 57.3238 10.95 57.3238C9.8754 57.2996 8.49862 57.2754 6.81962 57.2512C6.48382 57.3722 6.08086 57.3964 5.61074 57.3238C5.14062 57.227 4.75445 57.2149 4.45223 57.2875C4.15001 57.3359 4.04927 57.5295 4.15001 57.8684C4.38507 58.8365 4.43544 60.0103 4.30112 61.3899C4.1668 62.7453 4.09964 66.0853 4.09964 71.41C4.13322 76.7347 4.13322 79.8205 4.09964 80.6677C3.76384 81.1759 3.84779 81.5632 4.35149 81.8294C4.85519 82.1198 5.45963 82.1803 6.16481 82.0109C5.96333 80.8734 5.98012 79.8205 6.21518 78.8524C6.45024 77.8843 6.45024 75.585 6.21518 71.9545C6.0137 68.2999 5.99691 66.2547 6.16481 65.8191C6.33271 65.3592 6.3495 64.7178 6.21518 63.8949C6.08086 63.0478 6.04728 62.4911 6.11444 62.2249C6.21518 61.9345 6.23197 61.644 6.16481 61.3536C6.13123 61.039 6.19839 60.7364 6.36629 60.446C6.53419 60.204 6.81962 60.1071 7.22258 60.1555C8.06208 60.2282 9.33812 60.204 11.0507 60.0829C11.3865 60.2766 11.7055 60.2887 12.0077 60.1192C12.3099 59.9256 12.4443 59.6594 12.4107 59.3205C12.142 59.0785 12.0581 58.8123 12.1588 58.5218C12.4611 57.6747 12.2596 57.1907 11.5544 57.0697ZM0.724856 84.879C0.422636 84.879 0.271526 84.758 0.271526 84.5159C0.271526 84.2739 0.271526 84.0561 0.271526 83.8625C0.271526 83.693 0.221156 83.4752 0.120416 83.209C0.0196763 82.9185 0.0196763 82.374 0.120416 81.5753C0.221156 80.7766 0.271526 80.2562 0.271526 80.0142C0.271526 79.7721 0.237946 79.1671 0.170786 78.1989C0.103626 77.2308 0.0700463 75.2341 0.0700463 72.2087C0.103626 69.1833 0.170786 67.4286 0.271526 66.9445C0.372266 66.4362 0.338686 65.7828 0.170786 64.9841C0.0364663 64.1612 0.0196763 63.5561 0.120416 63.1688C0.355476 62.2733 0.405846 61.3294 0.271526 60.3371C0.0700463 58.6671 0.0364663 57.469 0.170786 56.7429C0.305106 55.9926 0.288316 55.448 0.120416 55.1092C-0.215383 54.4315 0.523376 54.1653 2.33669 54.3105C2.70607 54.3589 3.3273 54.3831 4.20038 54.3831C5.07346 54.3589 5.71148 54.3589 6.11444 54.3831C6.14802 54.2863 6.16481 53.9717 6.16481 53.4392C6.16481 52.8825 6.23197 52.4832 6.36629 52.2411C6.23197 51.9507 6.23197 51.7692 6.36629 51.6966C6.53419 51.5998 6.78604 51.5393 7.12184 51.5151C7.45764 51.4666 7.70949 51.3819 7.87739 51.2609C8.31393 51.4061 8.64973 51.4787 8.88479 51.4787C9.11985 51.4787 9.38849 51.4787 9.69071 51.4787C10.0265 51.4787 10.2112 51.5151 10.2448 51.5877C10.3119 51.6361 10.3455 51.8297 10.3455 52.1685L10.1944 53.6207C10.1944 54.008 10.3119 54.25 10.547 54.3468C10.8156 54.4194 11.2186 54.4436 11.7559 54.4194C12.2932 54.371 12.6457 54.3589 12.8136 54.3831C12.9815 54.3831 13.2838 54.371 13.7203 54.3468C14.1568 54.2984 14.627 54.2742 15.1307 54.2742C15.6344 54.2742 16.0205 54.4315 16.2892 54.7462C16.222 55.8111 16.1884 56.6219 16.1884 57.1786C16.1884 57.711 16.2388 58.5097 16.3395 59.5747C16.5074 61.7288 16.541 65.0688 16.4403 69.5947C16.6082 73.5883 16.6082 76.8557 16.4403 79.397C16.2724 81.9383 16.2388 83.3784 16.3395 83.7172C16.4739 84.0803 16.5578 84.3102 16.5914 84.407C16.5914 84.7701 16.2556 84.9395 15.584 84.9153C15.4832 84.9153 15.2818 84.9153 14.9796 84.9153C14.7781 84.7217 14.4926 84.6612 14.1233 84.7338C13.7875 84.8306 13.4181 84.879 13.0151 84.879C12.6457 84.879 12.4443 84.7217 12.4107 84.407C12.3771 84.1166 12.3939 83.5841 12.4611 82.8096C12.5282 82.0593 12.545 81.5027 12.5114 81.1396C12.5114 80.7766 12.4611 80.0021 12.3603 78.8161C12.2596 77.6302 12.1924 75.5608 12.1588 72.608C12.1588 69.6311 12.1588 67.6827 12.1588 66.763C12.1588 65.8433 12.1924 65.0204 12.2596 64.2943C12.5954 63.8586 12.5282 63.4956 12.0581 63.2051C11.9909 63.1809 11.9238 63.1809 11.8566 63.2051C11.8566 63.1809 11.8734 63.1688 11.907 63.1688C11.9406 63.1688 11.9741 63.1809 12.0077 63.2051C11.4704 62.8179 10.9332 62.8058 10.3959 63.1688C10.1944 63.6529 10.1105 64.0401 10.144 64.3306C10.1776 64.621 10.2448 65.0204 10.3455 65.5286C10.4463 66.0127 10.4798 66.3999 10.4463 66.6904C10.4127 66.9808 10.3959 67.3681 10.3959 67.8521C10.4295 68.312 10.4295 69.9578 10.3959 72.7896C10.3959 75.5971 10.3623 77.1703 10.2951 77.5092C10.463 77.9932 10.463 78.683 10.2951 79.5785C10.1272 80.474 10.0937 81.1517 10.1944 81.6116C10.3287 82.0714 10.3623 82.5797 10.2951 83.1364C10.2616 83.693 10.3287 84.1287 10.4966 84.4433C10.3623 84.8064 10.0769 84.9879 9.64034 84.9879C9.2038 85.0121 8.7001 84.9637 8.12924 84.8427C7.59196 84.7217 7.17221 84.6733 6.86999 84.6975C6.56777 84.7459 5.64432 84.7701 4.09964 84.7701C2.55496 84.7701 1.43003 84.8064 0.724856 84.879Z" fill="#1D1D1D"/>
<path d="M11.2325 44.2178C11.8034 44.2178 12.391 44.1694 12.9954 44.0726C13.5999 43.9758 14.1036 43.9758 14.5065 44.0726C15.0102 44.1936 15.3796 44.242 15.6147 44.2178L16.5213 44.1815C16.6221 44.4236 16.5885 44.9318 16.4206 45.7063C16.2863 46.2146 16.1016 46.4445 15.8665 46.3961C15.5979 46.3235 15.2957 46.2872 14.9599 46.2872C14.9599 46.2872 14.1875 46.3961 12.6429 46.6139C11.0982 46.2993 9.80535 46.2025 8.76437 46.3235C7.52191 46.5171 6.34661 46.5655 5.23847 46.4687C4.49972 46.4203 4.13034 46.5171 4.13034 46.7592C4.09676 47.3158 4.11355 47.9572 4.18071 48.6833C4.18071 48.6107 4.24787 48.5986 4.38219 48.647C4.51651 48.6954 4.65083 48.6954 4.78514 48.647C4.88588 48.5744 5.00341 48.5623 5.13773 48.6107C5.20489 48.6591 5.27205 48.768 5.33921 48.9374C5.40637 49.1068 5.38958 49.2642 5.28884 49.4094C5.15452 49.5788 5.08737 49.6877 5.08737 49.7361C5.08737 49.7845 5.13774 49.9298 5.23847 50.1718C5.30563 50.5106 5.30563 50.6679 5.23847 50.6437C5.20489 50.6195 4.96983 50.6195 4.5333 50.6437C3.5259 50.7648 3.00541 50.8132 2.97183 50.789C2.87109 50.7648 2.23307 50.7164 1.05777 50.6437C0.587649 50.6195 0.285429 50.4017 0.15111 49.9903C0.0503699 49.724 0.0335799 49.4578 0.10074 49.1916C0.23506 48.7559 0.302219 48.296 0.302219 47.812C0.268639 47.3279 0.302219 46.856 0.402959 46.3961C0.470119 45.912 0.335799 45.1254 0 44.0363L0.402959 44.1815C0.638019 44.1815 1.04098 44.1936 1.61184 44.2178C2.14912 44.242 3.15652 44.2178 4.63404 44.1452C6.07797 44.0726 6.8671 44.0363 7.00142 44.0363C8.31104 44.1573 9.25128 44.2178 9.82214 44.2178C10.2923 44.2178 10.7624 44.2178 11.2325 44.2178Z" fill="#1D1D1D"/>
<path d="M24.2783 52.7494C24.1776 52.7978 24.1104 52.8462 24.0768 52.8946C24.0768 52.943 23.741 52.9672 23.0694 52.9672C22.4314 52.943 22.1124 52.8946 22.1124 52.822C21.508 53.0156 21.0043 52.9914 20.6013 52.7494C20.1983 52.4832 20.0808 52.1806 20.2487 51.8418C20.4166 51.503 20.4334 51.0189 20.2991 50.3896C20.1983 49.7603 20.2823 49.3489 20.5509 49.1553C20.5509 48.8648 20.4838 48.3808 20.3495 47.7031C20.2487 47.0254 20.2319 46.5292 20.2991 46.2146C20.3998 45.8999 20.4334 45.549 20.3998 45.1617C20.3662 44.7745 20.4166 44.4841 20.5509 44.2904L20.3495 44.2541C20.5174 44.2541 20.7188 44.2299 20.9539 44.1815C21.3904 44.0847 21.7094 44.0726 21.9109 44.1452C22.146 44.2178 22.7672 44.2299 23.7746 44.1815C24.782 44.1089 25.3697 44.1452 25.5376 44.2904C26.0413 44.1936 26.7464 44.1815 27.6531 44.2541C28.5933 44.3025 29.3153 44.242 29.819 44.0726C30.3227 44.1694 30.5746 44.4115 30.5746 44.7987C30.5746 45.1617 30.5746 45.4159 30.5746 45.5611C30.5746 45.7063 30.5242 45.9362 30.4234 46.2509C30.3563 46.5655 30.2723 46.9649 30.1716 47.4489C30.0709 47.9088 30.138 48.5502 30.3731 49.3731C30.5746 49.7845 30.6249 50.7164 30.5242 52.1685C30.4234 53.5965 30.3899 54.4194 30.4234 54.6372C30.4906 54.8551 30.4906 55.3149 30.4234 56.0168C30.3899 56.7187 30.3731 57.0939 30.3731 57.1423C30.3395 57.4811 29.5336 57.5416 27.9553 57.3238C27.418 57.2512 27.0151 57.2391 26.7464 57.2875C26.0413 57.0697 25.42 57.106 24.8828 57.3964C24.3455 57.6868 24.1104 58.0983 24.1776 58.6308C24.4462 60.325 24.547 61.3052 24.4798 61.5714C24.4126 61.8377 24.3958 63.4593 24.4294 66.4362C24.463 69.389 24.463 70.9864 24.4294 71.2285C24.3958 71.4705 24.3455 71.7246 24.2783 71.9909C24.2447 72.2571 24.2615 72.6201 24.3287 73.08C24.3958 73.5398 24.3958 73.8908 24.3287 74.1328C24.2615 74.3506 24.3455 74.5322 24.5805 74.6774C24.8156 74.8226 25.2186 74.8468 25.7894 74.75C26.3603 74.629 26.8136 74.5927 27.1494 74.6411C28.0225 74.7621 28.7277 74.5564 29.2649 74.0239C29.3321 73.9513 29.8358 73.5762 30.776 72.8985C31.7499 72.1966 32.3207 71.7851 32.4886 71.6641C32.5894 70.4298 32.6061 67.6827 32.539 63.423C32.5054 59.139 32.5054 56.5493 32.539 55.6538C32.5726 54.7583 32.5558 53.8749 32.4886 53.0035C32.4215 52.108 32.4047 51.5756 32.4382 51.4061C32.7069 49.4457 32.6733 47.0738 32.3375 44.2904C32.5726 44.1694 32.8244 44.121 33.0931 44.1452C33.3617 44.1694 33.7311 44.2178 34.2012 44.2904C34.7049 44.3388 35.0743 44.3388 35.3093 44.2904C35.813 44.1694 36.0985 44.1936 36.1656 44.363C36.2664 44.5083 36.3167 44.6172 36.3167 44.6898C36.3167 44.7624 36.3167 44.8592 36.3167 44.9802C36.3167 45.1012 36.3167 45.2828 36.3167 45.5248C36.3167 45.7668 36.3671 46.3719 36.4678 47.34C36.6022 49.2521 36.6357 50.6195 36.5686 51.4424C36.3335 53.6691 36.2328 55.3512 36.2664 56.4888C36.2999 57.6263 36.2832 58.5944 36.216 59.3932C36.1824 60.1676 36.2496 62.237 36.4175 65.6012C36.6861 70.9259 36.7701 74.8105 36.6693 77.255C36.535 77.5455 36.2664 77.6907 35.8634 77.6907C35.494 77.6907 35.1079 77.6544 34.7049 77.5818C34.3355 77.4849 33.9829 77.5333 33.6471 77.727C33.5464 77.4849 33.2442 77.4486 32.7405 77.6181L32.4886 77.6544C32.5558 77.6302 32.5558 77.4849 32.4886 77.2187C32.4215 76.9283 32.4215 76.541 32.4886 76.057C32.5894 75.5729 32.6061 75.2099 32.539 74.9678C31.9681 75.0888 31.0447 75.6092 29.7686 76.5289C29.5 76.9888 29.0467 77.3034 28.4087 77.4728C27.7706 77.6423 27.2669 77.6665 26.8976 77.5455C26.5282 77.4244 26.1084 77.376 25.6383 77.4002C25.1346 77.4244 24.5973 77.4849 24.0265 77.5818C23.4892 77.6544 23.1702 77.6907 23.0694 77.6907L21.5583 77.7633C20.9539 77.7633 20.5677 77.6665 20.3998 77.4728C20.2991 77.3276 20.2655 77.1461 20.2991 76.9283C20.0976 76.6136 20.0808 76.0449 20.2487 75.222C20.4166 74.3991 20.4334 73.8303 20.2991 73.5156C20.1648 73.1768 20.148 72.6443 20.2487 71.9182C20.383 71.1679 20.383 70.6355 20.2487 70.3208C20.148 70.0062 20.148 68.2757 20.2487 65.1293C20.3495 61.9587 20.3662 60.1677 20.2991 59.7562C20.2655 59.3447 20.2823 58.8728 20.3495 58.3403C20.4166 57.7836 20.4166 57.348 20.3495 57.0334C20.4838 56.9607 20.5174 56.6219 20.4502 56.0168C20.383 55.3875 20.3495 55.0487 20.3495 55.0003C20.383 54.6372 20.5677 54.4194 20.9035 54.3468C21.4408 54.25 21.8941 54.2863 22.2635 54.4557C22.7672 54.3347 23.3213 54.2742 23.9257 54.2742L25.739 54.3831C26.0748 54.3831 26.2931 54.3105 26.3939 54.1653C26.5282 53.9959 26.5618 53.8143 26.4946 53.6207C26.2595 52.9914 26.2092 52.4832 26.3435 52.0959C26.5114 51.7087 26.4778 50.8132 26.2427 49.4094C26.2092 49.2158 26.2595 48.8769 26.3939 48.3929C26.5282 47.8846 26.545 47.5094 26.4442 47.2674C26.3435 47.0012 25.9909 46.8923 25.3865 46.9407C24.2447 47.0375 23.9761 47.7636 24.5805 49.1189C24.3455 49.4336 24.2783 49.9419 24.3791 50.6437C24.4798 51.3456 24.4798 51.8055 24.3791 52.0233C24.3119 52.2411 24.2951 52.3985 24.3287 52.4953C24.3958 52.5921 24.3791 52.6768 24.2783 52.7494ZM20.3495 44.2541L20.148 44.2178C20.2151 44.242 20.2823 44.2541 20.3495 44.2541Z" fill="#1D1D1D"/>
<path d="M20.2794 79.9053C20.3466 79.7116 20.3802 79.4333 20.3802 79.0703C20.3466 78.7072 20.3634 78.4652 20.4305 78.3442C20.4641 78.2231 20.5145 78.1626 20.5816 78.1626C20.6488 78.1626 20.7327 78.1747 20.8335 78.1989C20.9006 78.1989 21.035 78.1868 21.2364 78.1626C21.4043 78.1384 21.7905 78.1868 22.3949 78.3079C22.9658 78.4047 23.3352 78.4531 23.5031 78.4531C24.3426 78.3321 25.266 78.2473 26.2734 78.1989C26.307 78.2957 26.307 78.5257 26.2734 78.8887C26.2063 79.2276 26.2566 79.6511 26.4245 80.1594C26.5589 80.6677 26.6092 81.5027 26.5757 82.6644C27.4487 82.616 28.1539 82.6402 28.6912 82.737C29.1949 82.858 29.6818 82.858 30.1519 82.737C30.5885 82.6402 31.0082 82.6039 31.4112 82.6281C31.7806 82.6523 32.0324 82.6523 32.1667 82.6281C32.2339 82.5071 32.2842 82.3256 32.3178 82.0835C32.3514 81.8415 32.385 81.6721 32.4186 81.5753C32.4186 81.5027 32.4689 81.3211 32.5697 81.0307C32.6368 80.7403 32.62 80.4014 32.5193 80.0142C32.385 79.6269 32.3514 79.2155 32.4186 78.7798C32.3514 78.5862 32.385 78.4773 32.5193 78.4531C32.62 78.4047 32.8047 78.3926 33.0734 78.4168C33.9129 78.4894 34.6348 78.4047 35.2393 78.1626C35.2393 78.1626 35.3904 78.1747 35.6926 78.1989C35.9948 78.1989 36.2131 78.2231 36.3474 78.2715C36.4482 78.32 36.4482 78.5257 36.3474 78.8887C36.2131 79.2276 36.2299 79.6753 36.3978 80.232C36.5657 80.7887 36.5993 81.4179 36.4985 82.1198C36.3978 82.8459 36.3306 83.33 36.2971 83.572C36.2635 83.8141 36.2467 83.9835 36.2467 84.0803C36.2803 84.4191 36.4146 84.6975 36.6496 84.9153C36.4482 84.9153 36.0452 84.9395 35.4408 84.9879C34.702 85.0121 33.98 85 33.2749 84.9516C32.5697 84.9032 31.663 84.879 30.5549 84.879C29.4467 84.879 28.8087 84.8669 28.6408 84.8427C28.4393 84.8427 28.0364 84.8185 27.4319 84.7701C26.8275 84.7459 26.3574 84.758 26.0216 84.8064C25.6858 84.8548 25.1149 84.8427 24.309 84.7701C23.4695 84.6975 22.8651 84.6733 22.4957 84.6975C22.5628 83.8988 22.5461 83.2816 22.4453 82.8459C22.311 82.4345 22.2606 81.6116 22.2942 80.3772C22.0927 80.4498 21.8745 80.474 21.6394 80.4498C21.4043 80.4498 21.2029 80.4619 21.035 80.4861C20.7327 80.6798 20.5145 80.6798 20.3802 80.4861C20.2458 80.2925 20.2123 80.0989 20.2794 79.9053Z" fill="#1D1D1D"/>
<path d="M41.2837 44.0726L47.177 44.2178C47.8821 44 48.3355 44.0121 48.537 44.2541C48.772 44.4962 48.8224 44.8229 48.6881 45.2344C48.5873 45.6458 48.6041 46.0089 48.7384 46.3235C48.7049 46.7349 48.4362 46.9891 47.9325 47.0859C47.4624 47.1585 46.858 47.1706 46.1192 47.1222C45.3804 47.0496 44.8935 47.0254 44.6585 47.0496C44.5913 51.3819 44.5409 54.1411 44.5074 55.327C44.5074 56.4888 44.5074 58.7881 44.5074 62.2249C44.5074 65.6617 44.5074 68.07 44.5074 69.4495C44.6417 69.74 44.6753 71.3253 44.6081 74.2054C44.5409 77.0614 44.5074 78.6225 44.5074 78.8887C44.6753 79.2518 44.692 79.6995 44.5577 80.232C44.4234 80.7645 44.4234 81.2243 44.5577 81.6116C44.692 81.9988 45.0782 82.1077 45.7162 81.9383C48.2011 81.8173 50.3335 81.8415 52.1132 82.0109C52.7512 81.5511 52.9023 80.5466 52.5665 78.9976C52.4322 78.441 52.4322 77.8843 52.5665 77.3276C53.0367 76.5289 52.6505 76.1175 51.408 76.0933C51.1394 76.0933 50.7868 76.1054 50.3503 76.1296C49.4772 76.3474 48.856 76.2143 48.4866 75.7302C48.1508 75.222 48.2179 74.7258 48.6881 74.2417C48.453 73.5641 48.6713 73.201 49.3429 73.1526C49.6451 73.1526 49.9809 73.1647 50.3503 73.1889C51.5256 73.3099 52.2475 73.3583 52.5162 73.3341C53.6579 73.1647 54.3967 73.08 54.7325 73.08C56.2771 72.959 56.9152 73.2615 56.6465 73.9876C56.4115 75.6092 56.4282 77.1824 56.6969 78.7072C56.5961 79.6511 56.5794 80.4498 56.6465 81.1033C56.7473 81.781 56.7976 82.1924 56.7976 82.3377C56.6969 82.7491 56.6801 83.1727 56.7473 83.6083C56.8144 84.044 56.7305 84.3828 56.4954 84.6249C56.2603 84.8669 55.7902 84.8911 55.085 84.6975C54.3463 84.9637 53.4228 85.0363 52.3147 84.9153C51.2401 84.7943 50.535 84.7217 50.1992 84.6975C48.5202 84.8911 46.9251 84.9274 45.414 84.8064C43.0298 84.8548 41.4348 84.8306 40.6289 84.7338C40.6289 83.9351 40.5953 82.1077 40.5281 79.2518C40.4945 76.3958 40.5113 74.4838 40.5785 73.5156C40.6792 72.5475 40.6457 71.0106 40.4778 68.905C40.3434 66.7751 40.3602 64.5484 40.5281 62.2249C40.696 59.9014 40.7128 56.8639 40.5785 53.1125C40.4442 49.361 40.3938 47.0617 40.4274 46.2146C40.4945 45.3433 40.4945 44.6656 40.4274 44.1815C40.9982 44.1089 41.2837 44.0726 41.2837 44.0726Z" fill="#1D1D1D"/>
<path d="M65.2401 73.1526L68.5645 73.2978C69.2361 73.0558 69.8573 73.08 70.4282 73.3704C70.9991 73.6367 71.1166 74.0118 70.7808 74.4959C70.6465 74.6895 70.6129 74.9436 70.6801 75.2583C70.9151 76.0328 70.5961 76.3232 69.723 76.1296C69.3872 76.057 69.1186 76.0691 68.9171 76.1659C68.7156 76.2627 68.6149 76.4079 68.6149 76.6015L68.6653 77.2187C68.5645 77.848 68.5645 78.4531 68.6653 79.0339C68.7996 79.639 68.7828 80.2078 68.6149 80.7403C68.6149 80.7645 68.6485 80.8008 68.7156 80.8492C68.7828 80.8976 68.7996 80.9702 68.766 81.067C68.766 81.188 68.766 81.2727 68.766 81.3211C68.766 81.3695 68.7324 81.4542 68.6653 81.5753C68.5981 81.7205 68.5813 81.8294 68.6149 81.902C68.682 81.9746 68.8499 81.9504 69.1186 81.8294C69.4544 82.0472 69.9581 82.0956 70.6297 81.9746C71.3349 81.8778 71.8553 81.902 72.1911 82.0472C72.4598 81.7568 72.5605 81.2969 72.4934 80.6677C72.4598 80.0384 72.5102 79.1671 72.6445 78.0537C72.7788 76.9162 72.8628 76.2748 72.8963 76.1296C72.7956 75.0404 72.7788 71.5794 72.846 65.7465C72.9467 59.8893 72.8963 56.7429 72.6949 56.3073C72.762 55.9442 72.6613 55.7385 72.3926 55.6901C72.124 55.6417 71.7378 55.678 71.2341 55.799C70.7304 55.8958 70.3778 55.9321 70.1764 55.9079C70.0085 55.8837 69.1522 55.8716 67.6075 55.8716C66.0628 55.8716 65.0218 55.8716 64.4846 55.8716C63.9809 55.8474 63.4771 55.8595 62.9734 55.9079C61.6638 56.0289 60.9251 55.8958 60.7572 55.5086C60.6229 55.0971 60.5893 54.6615 60.6564 54.2016C60.7572 53.7417 60.7236 53.3787 60.5557 53.1125C60.7236 52.2895 60.7404 51.3214 60.6061 50.2081C60.7068 49.4094 60.7236 48.7559 60.6564 48.2476C60.5893 47.7152 60.5557 47.3642 60.5557 47.1948C60.7572 47.0012 60.774 46.4929 60.6061 45.67C60.4717 44.8471 60.4046 44.3388 60.4046 44.1452L60.6564 44.2178C60.9251 44.121 61.3952 44.0968 62.0668 44.1452C62.772 44.1694 63.2085 44.1694 63.3764 44.1452C63.5443 44.121 63.8633 44.1331 64.3334 44.1815C64.8036 44.2299 65.7606 44.2662 67.2045 44.2904C68.6485 44.3146 69.8741 44.2904 70.8815 44.2178C71.8889 44.121 72.5773 44.0726 72.9467 44.0726C73.3161 44.0726 73.6519 44.0847 73.9541 44.1089C74.2899 44.3025 74.6593 44.3509 75.0622 44.2541C76.1704 44.0363 76.758 44.1573 76.8252 44.6172C76.8588 44.9318 76.8252 45.5611 76.7244 46.505C76.6237 47.4489 76.6741 48.0782 76.8756 48.3929C76.7748 48.5381 76.7244 48.8043 76.7244 49.1916C76.7244 49.5546 76.6573 49.8208 76.523 49.9903C76.3886 50.1355 76.1032 50.1355 75.6667 49.9903C75.2301 49.8208 74.8104 49.8087 74.4074 49.954C74.0045 50.075 73.6183 50.1355 73.2489 50.1355C72.8795 50.1355 72.6445 49.9661 72.5437 49.6272C72.7788 49.2642 72.8627 48.8406 72.7956 48.3566C72.762 47.8483 72.7452 47.5579 72.7452 47.4852C72.6781 46.8802 71.7546 46.747 69.9749 47.0859C69.3368 47.2069 68.8499 47.2069 68.5141 47.0859C67.9433 47.1343 67.5403 47.1585 67.3053 47.1585L64.9882 46.9407C64.7868 47.1343 64.686 47.57 64.686 48.2476C64.7196 48.9011 64.6525 49.3731 64.4846 49.6635C64.7868 50.7769 64.77 51.7934 64.4342 52.7131C64.6692 52.7615 65.1058 52.7857 65.7438 52.7857C66.4154 52.7857 66.9863 52.822 67.4564 52.8946C67.9265 52.9672 68.7324 52.9793 69.8741 52.9309C71.0494 52.8825 71.9057 52.8825 72.443 52.9309C72.6781 52.8341 73.3497 52.7978 74.4578 52.822C75.5995 52.822 76.3047 52.8099 76.5733 52.7857C76.9763 54.4073 77.0938 55.6659 76.9259 56.5614C76.7916 57.4569 76.7077 59.381 76.6741 62.3338C76.6741 65.2624 76.7077 67.1623 76.7748 68.0336C76.842 68.8808 76.8756 69.51 76.8756 69.9215C76.8084 70.3571 76.758 71.5431 76.7244 73.4793C76.6909 75.3914 76.6573 77.0735 76.6237 78.5257C76.5901 79.9779 76.6405 80.9218 76.7748 81.3574C76.7748 81.6479 76.7412 81.9867 76.6741 82.374C76.6405 82.7612 76.6573 83.1606 76.7244 83.572C76.8252 83.9835 76.8252 84.3465 76.7244 84.6612C76.4894 84.879 76.0864 84.9637 75.5156 84.9153C74.9447 84.8669 74.122 84.7943 73.0474 84.6975C71.9729 84.6007 70.6129 84.6854 68.9675 84.9516C68.7996 84.9758 68.5981 84.9516 68.363 84.879C68.0944 84.8306 67.6914 84.8064 67.1542 84.8064C66.6169 84.8306 66.2811 84.8427 66.1468 84.8427C65.9789 84.8669 65.5087 84.9032 64.7364 84.9516C64.5349 84.9516 64.4678 84.7822 64.5349 84.4433C64.6021 84.1287 64.6189 83.7777 64.5853 83.3905C64.5853 82.9306 64.6021 82.3377 64.6357 81.6116C64.7028 80.8855 64.7364 80.1473 64.7364 79.397C64.7364 78.6709 64.7364 78.2352 64.7364 78.09C64.5013 77.5092 64.451 76.9162 64.5853 76.3111C64.7196 75.6818 64.7868 75.343 64.7868 75.2946C64.3502 74.0844 64.5013 73.3704 65.2401 73.1526Z" fill="#1D1D1D"/>
</svg>
