<svg width="363" height="47" viewBox="0 0 363 47" fill="none" xmlns="http://www.w3.org/2000/svg">
<path d="M23.664 46.768C19.0987 46.768 15.0453 45.7867 11.504 43.824C8.00533 41.8187 5.25333 39.088 3.248 35.632C1.24267 32.1333 0.24 28.1227 0.24 23.6C0.24 19.0773 1.24267 15.088 3.248 11.632C5.25333 8.13333 8.00533 5.40267 11.504 3.44C15.0453 1.43467 19.0987 0.431999 23.664 0.431999C26.3947 0.431999 28.912 0.837332 31.216 1.648C33.52 2.45867 35.5467 3.58933 37.296 5.04C39.088 6.448 40.5813 8.06933 41.776 9.904L34.608 14.384C33.8827 13.232 32.9227 12.208 31.728 11.312C30.576 10.416 29.296 9.712 27.888 9.2C26.48 8.688 25.072 8.432 23.664 8.432C20.848 8.432 18.352 9.09333 16.176 10.416C14 11.696 12.2933 13.4667 11.056 15.728C9.81867 17.9893 9.2 20.6133 9.2 23.6C9.2 26.544 9.79733 29.168 10.992 31.472C12.2293 33.776 13.9573 35.5893 16.176 36.912C18.3947 38.192 20.9547 38.832 23.856 38.832C26.1173 38.832 28.1227 38.384 29.872 37.488C31.664 36.592 33.072 35.3333 34.096 33.712C35.12 32.0907 35.632 30.2133 35.632 28.08L43.952 26.8C43.952 31.024 43.0773 34.6293 41.328 37.616C39.6213 40.6027 37.232 42.8853 34.16 44.464C31.1307 46 27.632 46.768 23.664 46.768ZM25.136 28.848V22H43.952V27.44L39.216 28.848H25.136ZM55.1625 29.168C55.1625 25.712 55.8238 22.8533 57.1465 20.592C58.5118 18.3307 60.2398 16.6453 62.3305 15.536C64.4638 14.4267 66.6825 13.872 68.9865 13.872V22.064C67.0238 22.064 65.1678 22.2987 63.4185 22.768C61.7118 23.2373 60.3252 24.0053 59.2585 25.072C58.1918 26.1387 57.6585 27.504 57.6585 29.168H55.1625ZM49.2105 46V14H57.6585V46H49.2105ZM88.5005 46.768C85.2578 46.768 82.3565 46.064 79.7965 44.656C77.2792 43.2053 75.2952 41.2213 73.8445 38.704C72.4365 36.1867 71.7325 33.2853 71.7325 30C71.7325 26.7147 72.4365 23.8133 73.8445 21.296C75.2525 18.7787 77.2152 16.816 79.7325 15.408C82.2498 13.9573 85.1298 13.232 88.3725 13.232C91.6578 13.232 94.5592 13.9573 97.0765 15.408C99.5938 16.816 101.557 18.7787 102.965 21.296C104.373 23.8133 105.076 26.7147 105.076 30C105.076 33.2853 104.373 36.1867 102.965 38.704C101.557 41.2213 99.5938 43.2053 97.0765 44.656C94.6018 46.064 91.7432 46.768 88.5005 46.768ZM88.5005 38.96C90.0792 38.96 91.4658 38.576 92.6605 37.808C93.8552 37.04 94.7725 35.9947 95.4125 34.672C96.0952 33.3067 96.4365 31.7493 96.4365 30C96.4365 28.2507 96.0952 26.7147 95.4125 25.392C94.7298 24.0267 93.7698 22.96 92.5325 22.192C91.3378 21.424 89.9512 21.04 88.3725 21.04C86.8365 21.04 85.4498 21.424 84.2125 22.192C83.0178 22.96 82.0792 24.0267 81.3965 25.392C80.7138 26.7147 80.3725 28.2507 80.3725 30C80.3725 31.7493 80.7138 33.3067 81.3965 34.672C82.0792 35.9947 83.0392 37.04 84.2765 37.808C85.5138 38.576 86.9218 38.96 88.5005 38.96ZM139.225 46L149.849 14H158.425L147.545 46H139.225ZM117.977 46L128.217 14H135.577L125.465 46H117.977ZM117.145 46L106.265 14H114.841L125.017 46H117.145ZM139.225 46L129.241 14H136.537L146.713 46H139.225ZM177.577 46V39.536C177.577 38.2987 177.961 36.9333 178.729 35.44C179.497 33.9467 180.563 32.4533 181.929 30.96C183.294 29.4667 184.894 28.08 186.729 26.8L193.513 21.936C194.451 21.296 195.326 20.5707 196.137 19.76C196.99 18.9493 197.673 18.0747 198.185 17.136C198.739 16.1547 199.017 15.216 199.017 14.32C199.017 13.2107 198.739 12.208 198.185 11.312C197.673 10.416 196.905 9.712 195.881 9.2C194.857 8.688 193.598 8.432 192.105 8.432C190.825 8.432 189.673 8.688 188.649 9.2C187.667 9.712 186.857 10.3947 186.217 11.248C185.577 12.1013 185.129 13.0187 184.873 14L175.849 12.464C176.275 10.3307 177.193 8.34667 178.601 6.512C180.009 4.67733 181.843 3.20533 184.105 2.096C186.409 0.943996 189.011 0.367996 191.913 0.367996C195.241 0.367996 198.099 0.965329 200.489 2.16C202.878 3.35467 204.713 4.99733 205.993 7.088C207.315 9.136 207.977 11.5253 207.977 14.256C207.977 17.0293 207.209 19.504 205.673 21.68C204.179 23.8133 202.11 25.8187 199.465 27.696L193.385 32.112C192.147 32.9653 191.081 33.904 190.185 34.928C189.289 35.952 188.606 37.0827 188.137 38.32H208.553V46H177.577ZM229.057 46V37.808L253.313 9.392H229.249V1.2H264.641V9.392L240.385 37.808H264.449V46H229.057ZM285.175 46.768C282.017 46.768 279.223 46.064 276.791 44.656C274.359 43.2053 272.439 41.2213 271.031 38.704C269.665 36.1867 268.983 33.2853 268.983 30C268.983 26.7147 269.687 23.8133 271.095 21.296C272.545 18.7787 274.508 16.816 276.983 15.408C279.5 13.9573 282.38 13.232 285.623 13.232C288.439 13.232 291.02 13.9787 293.367 15.472C295.756 16.9227 297.655 19.0773 299.062 21.936C300.513 24.752 301.239 28.1867 301.239 32.24H276.983L277.751 31.472C277.751 33.0507 278.135 34.4373 278.903 35.632C279.713 36.784 280.737 37.68 281.975 38.32C283.255 38.9173 284.62 39.216 286.071 39.216C287.82 39.216 289.249 38.8533 290.359 38.128C291.468 37.36 292.321 36.3787 292.919 35.184L300.471 38.128C299.575 39.92 298.401 41.4773 296.951 42.8C295.543 44.08 293.857 45.0613 291.895 45.744C289.932 46.4267 287.692 46.768 285.175 46.768ZM278.199 26.736L277.431 25.968H292.855L292.151 26.736C292.151 25.2 291.788 23.984 291.063 23.088C290.337 22.1493 289.441 21.4667 288.375 21.04C287.351 20.6133 286.348 20.4 285.367 20.4C284.385 20.4 283.34 20.6133 282.231 21.04C281.121 21.4667 280.161 22.1493 279.351 23.088C278.583 23.984 278.199 25.2 278.199 26.736ZM312.1 29.168C312.1 25.712 312.761 22.8533 314.084 20.592C315.449 18.3307 317.177 16.6453 319.268 15.536C321.401 14.4267 323.62 13.872 325.924 13.872V22.064C323.961 22.064 322.105 22.2987 320.356 22.768C318.649 23.2373 317.263 24.0053 316.196 25.072C315.129 26.1387 314.596 27.504 314.596 29.168H312.1ZM306.148 46V14H314.596V46H306.148ZM345.438 46.768C342.195 46.768 339.294 46.064 336.734 44.656C334.217 43.2053 332.233 41.2213 330.782 38.704C329.374 36.1867 328.67 33.2853 328.67 30C328.67 26.7147 329.374 23.8133 330.782 21.296C332.19 18.7787 334.153 16.816 336.67 15.408C339.187 13.9573 342.067 13.232 345.31 13.232C348.595 13.232 351.497 13.9573 354.014 15.408C356.531 16.816 358.494 18.7787 359.902 21.296C361.31 23.8133 362.014 26.7147 362.014 30C362.014 33.2853 361.31 36.1867 359.902 38.704C358.494 41.2213 356.531 43.2053 354.014 44.656C351.539 46.064 348.681 46.768 345.438 46.768ZM345.438 38.96C347.017 38.96 348.403 38.576 349.598 37.808C350.793 37.04 351.71 35.9947 352.35 34.672C353.033 33.3067 353.374 31.7493 353.374 30C353.374 28.2507 353.033 26.7147 352.35 25.392C351.667 24.0267 350.707 22.96 349.47 22.192C348.275 21.424 346.889 21.04 345.31 21.04C343.774 21.04 342.387 21.424 341.15 22.192C339.955 22.96 339.017 24.0267 338.334 25.392C337.651 26.7147 337.31 28.2507 337.31 30C337.31 31.7493 337.651 33.3067 338.334 34.672C339.017 35.9947 339.977 37.04 341.214 37.808C342.451 38.576 343.859 38.96 345.438 38.96Z" fill="white"/>
</svg>
