<svg width="37" height="36" viewBox="0 0 37 36" fill="none" xmlns="http://www.w3.org/2000/svg">
<path d="M18.3408 33.0045C10.0563 33.0045 3.34082 26.289 3.34082 18.0045C3.34082 9.72 10.0563 3.0045 18.3408 3.0045C26.6253 3.0045 33.3408 9.72 33.3408 18.0045C33.3408 26.289 26.6253 33.0045 18.3408 33.0045ZM16.8408 24.0045V27.0045H19.8408V24.0045H21.3408C22.0372 24.0045 22.7199 23.8106 23.3123 23.4444C23.9047 23.0783 24.3835 22.5544 24.6949 21.9316C25.0064 21.3087 25.1382 20.6113 25.0757 19.9177C25.0131 19.2241 24.7587 18.5616 24.3408 18.0045C24.7587 17.4474 25.0131 16.7849 25.0757 16.0913C25.1382 15.3977 25.0064 14.7003 24.6949 14.0774C24.3835 13.4546 23.9047 12.9307 23.3123 12.5646C22.7199 12.1984 22.0372 12.0045 21.3408 12.0045H19.8408V9.0045H16.8408V12.0045H12.3408V24.0045H16.8408ZM15.3408 19.5045H21.3408C21.5397 19.5045 21.7305 19.5835 21.8711 19.7242C22.0118 19.8648 22.0908 20.0556 22.0908 20.2545C22.0908 20.4534 22.0118 20.6442 21.8711 20.7848C21.7305 20.9255 21.5397 21.0045 21.3408 21.0045H15.3408V19.5045ZM15.3408 15.0045H21.3408C21.5397 15.0045 21.7305 15.0835 21.8711 15.2242C22.0118 15.3648 22.0908 15.5556 22.0908 15.7545C22.0908 15.9534 22.0118 16.1442 21.8711 16.2848C21.7305 16.4255 21.5397 16.5045 21.3408 16.5045H15.3408V15.0045Z" fill="#3265E9"/>
</svg>
