<svg width="37" height="36" viewBox="0 0 37 36" fill="none" xmlns="http://www.w3.org/2000/svg">
<path d="M16.9531 9C18.9302 9.00009 20.8583 9.61138 22.4694 10.7489C24.0804 11.8865 25.2946 13.4938 25.9431 15.3477L26.0594 15.7062L26.1276 15.9277H29.739C30.8242 15.928 31.8684 16.3392 32.6587 17.0773C33.449 17.8154 33.926 18.8249 33.9922 19.9L34 20.1569V21.6954C33.9996 22.3708 33.7434 23.0214 33.2823 23.5181C32.8212 24.0148 32.1889 24.3213 31.5107 24.3769L31.289 24.3846H28.7688L29.1423 25.2831C29.4006 25.9057 29.4144 26.6017 29.1811 27.2339C28.9479 27.8661 28.4844 28.3887 27.8821 28.6985L27.6698 28.7969C27.424 28.8965 27.1651 28.9607 26.901 28.9877L26.6359 29H23.8661C23.3926 28.9998 22.9275 28.8765 22.5169 28.6425C22.1062 28.4085 21.7645 28.0719 21.5256 27.6662L21.414 27.4554L20.5786 25.6969L20.6623 25.6862C18.4923 25.9723 16.2959 26.0062 14.1197 25.7877L13.3494 25.7L12.5201 27.4477C12.301 27.9099 11.954 28.3007 11.5195 28.5745C11.085 28.8483 10.5811 28.9937 10.0665 28.9938H7.27025C6.82494 28.9937 6.38652 28.8847 5.99371 28.6765C5.60089 28.4683 5.26576 28.1673 5.01789 27.8001C4.77003 27.4329 4.61706 27.0108 4.5725 26.571C4.52793 26.1312 4.59313 25.6873 4.76235 25.2785L5.4335 23.6631C4.69035 23.2194 4.07561 22.5923 3.64915 21.8428C3.2227 21.0933 2.99905 20.2469 3 19.3862C3.00039 19.1076 3.10229 18.8386 3.2869 18.6288C3.47151 18.4189 3.72636 18.2825 4.0044 18.2446L4.1625 18.2338H7.0765L7.84685 15.7062C8.43912 13.7667 9.64413 12.0676 11.2839 10.86C12.9237 9.65246 14.9113 9.00034 16.9531 9ZM27.4575 23.9123C26.2609 24.3892 25.0436 24.7815 23.8057 25.0892L22.9547 25.2877L23.5158 26.4723C23.5533 26.5521 23.6174 26.6168 23.6972 26.6554L23.7793 26.6831L23.8661 26.6938H26.6359C26.6907 26.6938 26.7449 26.6822 26.7948 26.6599C26.8448 26.6376 26.8894 26.605 26.9257 26.5642C26.9621 26.5235 26.9893 26.4756 27.0056 26.4237C27.0219 26.3718 27.0269 26.3171 27.0204 26.2631L26.994 26.1631L26.2531 24.3846H26.1865L26.8235 24.1569L27.4575 23.9123ZM6.45185 23.9123L7.05635 24.1462L7.65775 24.3631L6.91065 26.1569C6.88644 26.2154 6.87713 26.279 6.88356 26.3419C6.88999 26.4048 6.91197 26.4652 6.94753 26.5177C6.98309 26.5702 7.03115 26.6132 7.08744 26.6428C7.14373 26.6725 7.20652 26.6879 7.27025 26.6877H10.0665L10.1548 26.6769C10.2119 26.6639 10.2653 26.6381 10.311 26.6016C10.3566 26.5651 10.3933 26.5188 10.4183 26.4662L10.9748 25.2923L11.043 25.3077C9.47508 24.9749 7.93903 24.5085 6.45185 23.9138M6.13875 21.3077L6.3728 20.5385L5.58695 20.5415L5.6257 20.6215C5.76004 20.8779 5.93209 21.1067 6.13875 21.3077ZM26.8313 18.2338L28.003 22.0769L31.289 22.0785C31.3761 22.0784 31.4607 22.0492 31.529 21.9956C31.5973 21.942 31.6455 21.8672 31.6657 21.7831L31.6765 21.6938V20.1569C31.6764 19.6811 31.4985 19.2222 31.1773 18.869C30.8561 18.5158 30.4143 18.2933 29.9374 18.2446L29.739 18.2354L26.8313 18.2338Z" fill="#3265E9"/>
</svg>
