<svg width="37" height="36" viewBox="0 0 37 36" fill="none" xmlns="http://www.w3.org/2000/svg">
<path d="M11.5402 3.6C10.5855 3.6 9.80444 4.41 9.80444 5.4V7.2H8.06872C7.11408 7.2 6.33301 8.01 6.33301 9V27C6.33301 27.99 7.11408 28.8 8.06872 28.8H9.80444V30.6C9.80444 31.59 10.5855 32.4 11.5402 32.4C12.4948 32.4 13.2759 31.59 13.2759 30.6V28.8H15.0116C15.9662 28.8 16.7473 27.99 16.7473 27V9C16.7473 8.01 15.9662 7.2 15.0116 7.2H13.2759V5.4C13.2759 4.41 12.4948 3.6 11.5402 3.6ZM28.8973 10.8H27.1616V5.4C27.1616 4.41 26.3805 3.6 25.4259 3.6C24.4712 3.6 23.6902 4.41 23.6902 5.4V10.8H21.9544C20.9998 10.8 20.2187 11.61 20.2187 12.6V21.6C20.2187 22.59 20.9998 23.4 21.9544 23.4H23.6902V30.6C23.6902 31.59 24.4712 32.4 25.4259 32.4C26.3805 32.4 27.1616 31.59 27.1616 30.6V23.4H28.8973C29.8519 23.4 30.633 22.59 30.633 21.6V12.6C30.633 11.61 29.8519 10.8 28.8973 10.8Z" fill="#3265E9"/>
</svg>
