<svg width="37" height="36" viewBox="0 0 37 36" fill="none" xmlns="http://www.w3.org/2000/svg">
<path d="M30.3705 28.1566C30.3775 28.1461 30.3881 28.1355 30.3951 28.125C32.6979 25.3863 34.083 21.8566 34.083 18C34.083 14.1434 32.6979 10.6137 30.3986 7.875C30.3916 7.86445 30.3811 7.85742 30.374 7.84687C30.3354 7.80117 30.3002 7.75898 30.2615 7.7168C30.2475 7.69922 30.2334 7.68516 30.2193 7.66758L30.0752 7.50234L30.0717 7.49883C30.0189 7.43906 29.9627 7.3793 29.91 7.31953L29.9064 7.31602C29.7939 7.19648 29.6814 7.07695 29.5654 6.96094L29.5619 6.95742L29.3932 6.78867L29.3826 6.77813C29.3299 6.72539 29.2771 6.67617 29.2244 6.62695C29.2068 6.60938 29.1893 6.5918 29.1682 6.57422C29.133 6.53906 29.0979 6.50742 29.0627 6.47578C29.0521 6.46523 29.0381 6.45469 29.0275 6.44062C26.2221 3.83906 22.4639 2.25 18.333 2.25C14.2021 2.25 10.4439 3.83906 7.63496 6.44062C7.62441 6.45117 7.61035 6.46172 7.5998 6.47578C7.56465 6.50742 7.52949 6.54258 7.49434 6.57773C7.47676 6.59531 7.45918 6.61289 7.43809 6.63047C7.38535 6.67969 7.33262 6.73242 7.27988 6.78164L7.26934 6.79219L7.10059 6.96094L7.09707 6.96445C6.98105 7.08047 6.86855 7.2 6.75605 7.31953L6.75254 7.32305C6.69629 7.38281 6.64355 7.44258 6.59082 7.50234L6.5873 7.50586C6.53809 7.55859 6.48887 7.61484 6.44316 7.67109C6.4291 7.68867 6.41504 7.70273 6.40098 7.72031C6.3623 7.7625 6.32715 7.8082 6.28848 7.85039C6.28145 7.86094 6.2709 7.86797 6.26387 7.87852C3.96816 10.6137 2.58301 14.1434 2.58301 18C2.58301 21.8566 3.96816 25.3863 6.26738 28.125C6.27441 28.1355 6.28496 28.1461 6.29199 28.1566L6.40098 28.2867C6.41504 28.3043 6.4291 28.3184 6.44316 28.3359L6.5873 28.5012C6.5873 28.5047 6.59082 28.5047 6.59082 28.5082C6.64355 28.568 6.69629 28.6277 6.75254 28.684L6.75605 28.6875C6.86855 28.807 6.98105 28.9266 7.09355 29.0426L7.09707 29.0461C7.15332 29.1023 7.20605 29.1586 7.2623 29.2113L7.27285 29.2219C7.38887 29.3379 7.5084 29.4504 7.62793 29.5594C10.4439 32.1609 14.2021 33.75 18.333 33.75C22.4639 33.75 26.2221 32.1609 29.0311 29.5594C29.1508 29.4496 29.268 29.3371 29.3826 29.2219L29.3932 29.2113C29.4494 29.1551 29.5057 29.1023 29.5584 29.0461L29.5619 29.0426C29.6779 28.9266 29.7904 28.807 29.8994 28.6875L29.9029 28.684C29.9557 28.6242 30.0119 28.568 30.0646 28.5082C30.0646 28.5047 30.0682 28.5047 30.0682 28.5012C30.1174 28.4484 30.1666 28.3922 30.2123 28.3359C30.2264 28.3184 30.2404 28.3043 30.2545 28.2867C30.2942 28.2443 30.3329 28.201 30.3705 28.1566ZM30.5146 23.1434C30.0295 24.2895 29.3896 25.3512 28.6092 26.3145C27.7302 25.5548 26.7692 24.8956 25.7439 24.3492C26.1518 22.7004 26.4049 20.8898 26.4717 18.9844H31.5166C31.4111 20.4223 31.0736 21.818 30.5146 23.1434ZM31.5166 17.0156H26.4717C26.4049 15.1102 26.1518 13.2996 25.7439 11.6508C26.774 11.1023 27.7338 10.4414 28.6092 9.68555C30.3057 11.7737 31.3205 14.3323 31.5166 17.0156ZM23.4764 5.81836C24.8721 6.40898 26.1412 7.22461 27.2592 8.25117C26.6097 8.80416 25.9107 9.29608 25.1709 9.7207C24.6189 8.13867 23.9123 6.76406 23.0896 5.66367C23.2197 5.71289 23.3498 5.76562 23.4764 5.81836ZM20.2912 30.4488C19.9678 30.702 19.6443 30.8953 19.3174 31.0254V24.5039C20.7124 24.6012 22.0842 24.9119 23.385 25.425C23.0932 26.2898 22.7557 27.0879 22.3654 27.8086C21.7537 28.9477 21.0365 29.8582 20.2912 30.4488ZM22.3654 8.19141C22.7521 8.91563 23.0932 9.71367 23.385 10.575C22.0842 11.0881 20.7124 11.3988 19.3174 11.4961V4.97813C19.6408 5.1082 19.9678 5.29805 20.2912 5.55469C21.0365 6.1418 21.7537 7.05234 22.3654 8.19141ZM19.3174 22.5316V18.9844H24.5029C24.4467 20.5383 24.2533 22.0465 23.9299 23.4773L23.9193 23.5195C22.4439 22.96 20.8924 22.627 19.3174 22.5316ZM19.3174 17.0156V13.4684C20.9275 13.3699 22.4744 13.0289 23.9193 12.4805L23.9299 12.5227C24.2533 13.9535 24.4467 15.4582 24.5029 17.0156H19.3174ZM17.3486 18.9844V22.5316C15.7385 22.6301 14.1916 22.9711 12.7467 23.5195L12.7361 23.4773C12.4127 22.0465 12.2193 20.5418 12.1631 18.9844H17.3486ZM12.1631 17.0156C12.2193 15.4617 12.4127 13.9535 12.7361 12.5227L12.7467 12.4805C14.1916 13.0289 15.735 13.3699 17.3486 13.4684V17.0156H12.1631ZM17.3486 24.5039V31.0219C17.0252 30.8918 16.6982 30.702 16.3748 30.4453C15.6295 29.8582 14.9088 28.9441 14.2971 27.8051C13.9104 27.0809 13.5693 26.2828 13.2775 25.4215C14.5854 24.9082 15.9459 24.6023 17.3486 24.5039ZM17.3486 11.4961C15.9537 11.3988 14.5819 11.0881 13.2811 10.575C13.5729 9.71016 13.9104 8.91211 14.3006 8.19141C14.9123 7.05234 15.6295 6.13828 16.3783 5.55117C16.7018 5.29805 17.0252 5.10469 17.3521 4.97461V11.4961H17.3486ZM13.1896 5.81836C13.3197 5.76562 13.4463 5.71289 13.5764 5.66367C12.7537 6.76406 12.0471 8.13867 11.4951 9.7207C10.7568 9.29883 10.0572 8.80664 9.40684 8.25117C10.5248 7.22461 11.7939 6.40898 13.1896 5.81836ZM6.15137 12.8566C6.63652 11.7105 7.27637 10.6488 8.05684 9.68555C8.93223 10.4414 9.89199 11.1023 10.9221 11.6508C10.5143 13.2996 10.2611 15.1102 10.1943 17.0156H5.14941C5.25488 15.5777 5.59238 14.182 6.15137 12.8566ZM5.14941 18.9844H10.1943C10.2611 20.8898 10.5143 22.7004 10.9221 24.3492C9.89684 24.8956 8.93581 25.5548 8.05684 26.3145C6.3603 24.2263 5.34547 21.6677 5.14941 18.9844ZM13.1896 30.1816C11.7939 29.591 10.5248 28.7754 9.40684 27.7488C10.0572 27.1934 10.7568 26.7047 11.4951 26.2793C12.0471 27.8613 12.7537 29.2359 13.5764 30.3363C13.4463 30.2871 13.3162 30.2344 13.1896 30.1816ZM23.4764 30.1816C23.3463 30.2344 23.2197 30.2871 23.0896 30.3363C23.9123 29.2359 24.6189 27.8613 25.1709 26.2793C25.9092 26.7012 26.6088 27.1934 27.2592 27.7488C26.1474 28.7711 24.8677 29.5941 23.4764 30.1816Z" fill="#3265E9"/>
</svg>
