<svg width="37" height="36" viewBox="0 0 37 36" fill="none" xmlns="http://www.w3.org/2000/svg">
<path d="M18.333 3.375C15.4405 3.375 12.6129 4.23274 10.2078 5.83976C7.80273 7.44677 5.92821 9.73089 4.82128 12.4033C3.71434 15.0756 3.42472 18.0162 3.98903 20.8532C4.55334 23.6902 5.94623 26.2961 7.99158 28.3414C10.0369 30.3868 12.6428 31.7797 15.4798 32.344C18.3168 32.9083 21.2574 32.6187 23.9298 31.5117C26.6021 30.4048 28.8862 28.5303 30.4933 26.1252C32.1003 23.7201 32.958 20.8926 32.958 18C32.9539 14.1225 31.4118 10.4049 28.6699 7.66309C25.9281 4.92125 22.2105 3.37909 18.333 3.375ZM18.333 27C17.9993 27 17.673 26.901 17.3955 26.7156C17.118 26.5302 16.9017 26.2666 16.774 25.9583C16.6462 25.6499 16.6128 25.3106 16.6779 24.9833C16.7431 24.6559 16.9038 24.3553 17.1398 24.1193C17.3758 23.8833 17.6765 23.7225 18.0038 23.6574C18.3311 23.5923 18.6704 23.6257 18.9788 23.7535C19.2871 23.8812 19.5507 24.0975 19.7361 24.375C19.9215 24.6525 20.0205 24.9787 20.0205 25.3125C20.0205 25.7601 19.8427 26.1893 19.5263 26.5057C19.2098 26.8222 18.7806 27 18.333 27ZM19.458 20.1487V20.25C19.458 20.5484 19.3395 20.8345 19.1285 21.0455C18.9175 21.2565 18.6314 21.375 18.333 21.375C18.0346 21.375 17.7485 21.2565 17.5375 21.0455C17.3265 20.8345 17.208 20.5484 17.208 20.25V19.125C17.208 18.8266 17.3265 18.5405 17.5375 18.3295C17.7485 18.1185 18.0346 18 18.333 18C20.1935 18 21.708 16.7344 21.708 15.1875C21.708 13.6406 20.1935 12.375 18.333 12.375C16.4725 12.375 14.958 13.6406 14.958 15.1875V15.75C14.958 16.0484 14.8395 16.3345 14.6285 16.5455C14.4175 16.7565 14.1314 16.875 13.833 16.875C13.5346 16.875 13.2485 16.7565 13.0375 16.5455C12.8265 16.3345 12.708 16.0484 12.708 15.75V15.1875C12.708 12.3961 15.2308 10.125 18.333 10.125C21.4352 10.125 23.958 12.3961 23.958 15.1875C23.958 17.6316 22.023 19.6777 19.458 20.1487Z" fill="#3265E9"/>
</svg>
