<svg width="37" height="36" viewBox="0 0 37 36" fill="none" xmlns="http://www.w3.org/2000/svg">
<path fill-rule="evenodd" clip-rule="evenodd" d="M12.0779 4.03042C13.6655 3.35014 15.3671 3 17.0855 3C18.8039 3 20.5055 3.35014 22.0931 4.03042C23.6807 4.71071 25.1233 5.70782 26.3384 6.96482C27.5535 8.22183 28.5174 9.7141 29.175 11.3565C29.8326 12.9988 30.1711 14.7591 30.1711 16.5368C30.1711 18.3144 29.8326 20.0747 29.175 21.717C28.7442 22.7929 28.182 23.8043 27.5039 24.7274L32.4821 29.8773C33.1726 30.5916 33.1726 31.7499 32.4821 32.4642C31.7915 33.1786 30.6719 33.1786 29.9814 32.4642L25.0032 27.3144C22.7393 29.0943 19.9612 30.0735 17.0855 30.0735C13.615 30.0735 10.2867 28.6473 7.83266 26.1087C5.37865 23.57 4 20.1269 4 16.5368C4 12.9466 5.37865 9.50346 7.83266 6.96482C9.04777 5.70782 10.4903 4.71071 12.0779 4.03042ZM17.0855 6.6585C15.8315 6.6585 14.5898 6.91401 13.4313 7.41044C12.2728 7.90687 11.2201 8.63449 10.3334 9.55177C8.5426 11.4043 7.53655 13.9169 7.53655 16.5368C7.53655 19.1566 8.5426 21.6692 10.3334 23.5217C12.1242 25.3743 14.553 26.415 17.0855 26.415C19.6181 26.415 22.0469 25.3743 23.8377 23.5217C24.7244 22.6044 25.4277 21.5155 25.9076 20.317C26.3875 19.1185 26.6345 17.834 26.6345 16.5368C26.6345 15.2395 26.3875 13.955 25.9076 12.7565C25.4278 11.558 24.7244 10.4691 23.8377 9.55177C22.951 8.63449 21.8983 7.90687 20.7398 7.41044C19.5812 6.91401 18.3395 6.6585 17.0855 6.6585Z" fill="#3265E9"/>
</svg>
