<svg width="37" height="36" viewBox="0 0 37 36" fill="none" xmlns="http://www.w3.org/2000/svg">
<path d="M3.93262 24.1714C3.93262 23.6258 4.14935 23.1026 4.53514 22.7168C4.92093 22.331 5.44417 22.1143 5.98976 22.1143H10.104C10.6496 22.1143 11.1729 22.331 11.5587 22.7168C11.9445 23.1026 12.1612 23.6258 12.1612 24.1714V30.3429C12.1612 30.8884 11.9445 31.4117 11.5587 31.7975C11.1729 32.1833 10.6496 32.4 10.104 32.4H5.98976C5.44417 32.4 4.92093 32.1833 4.53514 31.7975C4.14935 31.4117 3.93262 30.8884 3.93262 30.3429V24.1714ZM14.2183 15.9429C14.2183 15.3973 14.4351 14.874 14.8209 14.4882C15.2066 14.1024 15.7299 13.8857 16.2755 13.8857H20.3898C20.9353 13.8857 21.4586 14.1024 21.8444 14.4882C22.2302 14.874 22.4469 15.3973 22.4469 15.9429V30.3429C22.4469 30.8884 22.2302 31.4117 21.8444 31.7975C21.4586 32.1833 20.9353 32.4 20.3898 32.4H16.2755C15.7299 32.4 15.2066 32.1833 14.8209 31.7975C14.4351 31.4117 14.2183 30.8884 14.2183 30.3429V15.9429ZM24.504 5.65714C24.504 5.11155 24.7208 4.58831 25.1066 4.20252C25.4924 3.81673 26.0156 3.6 26.5612 3.6H30.6755C31.2211 3.6 31.7443 3.81673 32.1301 4.20252C32.5159 4.58831 32.7326 5.11155 32.7326 5.65714V30.3429C32.7326 30.8884 32.5159 31.4117 32.1301 31.7975C31.7443 32.1833 31.2211 32.4 30.6755 32.4H26.5612C26.0156 32.4 25.4924 32.1833 25.1066 31.7975C24.7208 31.4117 24.504 30.8884 24.504 30.3429V5.65714Z" fill="#3265E9"/>
</svg>
