<svg width="440" height="440" viewBox="0 0 440 440" fill="none" xmlns="http://www.w3.org/2000/svg">
<path d="M155.462 174.416L155.462 301.066C155.462 310.718 163.159 318.515 172.686 318.515L380.966 318.515C390.47 318.515 398.191 310.718 398.191 301.066L398.191 174.416C398.191 164.788 390.494 156.967 380.966 156.967L172.686 156.967C163.159 156.967 155.462 164.788 155.462 174.416Z" fill="#1D1D1D"/>
<line x1="158.709" y1="190.656" x2="394.132" y2="190.656" stroke="#525252" stroke-width="12.177"/>
<line x1="158.709" y1="309.991" x2="394.132" y2="309.991" stroke="#525252" stroke-width="12.177"/>
<line x1="158.709" y1="261.283" x2="394.132" y2="261.283" stroke="#525252" stroke-width="12.177"/>
<path d="M155.462 170.771L155.462 304.306C155.462 313.714 163.043 321.357 172.427 321.357L380.977 321.357C390.338 321.357 397.942 313.737 397.942 304.306L397.942 170.771C397.942 161.363 390.361 153.72 380.977 153.72L172.427 153.72C163.043 153.72 155.462 161.363 155.462 170.771ZM380.839 158.621C387.726 158.621 393.32 164.243 393.32 171.166L393.32 303.888C393.32 310.81 387.726 316.432 380.839 316.432L172.565 316.432C165.678 316.432 160.084 310.81 160.084 303.888L160.084 262.379C160.084 261.241 160.986 260.335 162.118 260.335L165.262 260.335C167.365 260.335 169.098 258.616 169.098 256.478L169.098 218.575C169.098 216.461 167.388 214.719 165.262 214.719L162.118 214.719C160.986 214.719 160.084 213.813 160.084 212.674L160.084 171.166C160.084 164.243 165.678 158.621 172.565 158.621L380.839 158.621Z" fill="black"/>
<rect x="277.232" y="169.143" width="10.5534" height="2.43541" rx="1.2177" fill="#7799F2"/>
<rect x="273.985" y="256.818" width="10.5534" height="2.43541" rx="1.2177" fill="#7799F2"/>
<rect x="377.895" y="169.143" width="10.5534" height="2.43541" rx="1.2177" fill="#7799F2"/>
<rect x="296.715" y="169.143" width="6.49442" height="2.43541" rx="1.2177" fill="#7799F2"/>
<rect x="290.221" y="256.818" width="6.49442" height="2.43541" rx="1.2177" fill="#7799F2"/>
<rect x="317.822" y="174.825" width="6.49442" height="2.43541" rx="1.2177" fill="#7799F2"/>
<rect x="277.232" y="174.825" width="10.5534" height="2.43541" rx="1.2177" fill="#FC0317"/>
<rect x="273.985" y="262.5" width="10.5534" height="2.43541" rx="1.2177" fill="#FC0317"/>
<rect x="233.395" y="260.877" width="12.9888" height="4.05901" rx="2.02951" fill="#FC0317"/>
<rect x="186.31" y="257.629" width="40.5901" height="7.30622" rx="1.6236" fill="#7D7D7D"/>
<rect x="292.656" y="187.003" width="57.6379" height="7.30622" rx="1.6236" fill="#7D7D7D"/>
<rect x="175.757" y="187.003" width="52.7671" height="7.30622" rx="1.6236" fill="#7D7D7D"/>
<rect x="377.895" y="174.825" width="10.5534" height="2.43541" rx="1.2177" fill="#FC0317"/>
<rect x="296.715" y="174.825" width="6.49442" height="2.43541" rx="1.2177" fill="#FC0317"/>
<rect x="290.221" y="262.5" width="6.49442" height="2.43541" rx="1.2177" fill="#FC0317"/>
<rect x="349.482" y="174.825" width="6.49442" height="2.43541" rx="1.2177" fill="#FCE303"/>
<rect x="331.623" y="174.825" width="6.49442" height="2.43541" rx="1.2177" fill="#FC0317"/>
<rect x="265.055" y="169.143" width="6.49442" height="2.43541" rx="1.2177" fill="#C8C8C8"/>
<rect x="261.808" y="256.818" width="6.49442" height="2.43541" rx="1.2177" fill="#C8C8C8"/>
<rect x="233.395" y="256.818" width="6.49442" height="2.43541" rx="1.2177" fill="#C8C8C8"/>
<rect x="320.258" y="256.818" width="6.49442" height="2.43541" rx="1.2177" fill="#C8C8C8"/>
<rect x="366.53" y="256.818" width="6.49442" height="2.43541" rx="1.2177" fill="#C8C8C8"/>
<rect x="380.331" y="256.818" width="6.49442" height="2.43541" rx="1.2177" fill="#C8C8C8"/>
<rect x="329.187" y="256.818" width="13.8006" height="2.43541" rx="1.2177" fill="#FCE303"/>
<rect x="365.718" y="169.143" width="6.49442" height="2.43541" rx="1.2177" fill="#C8C8C8"/>
<rect x="303.209" y="208.921" width="10.5534" height="2.43541" rx="1.2177" fill="#7799F2"/>
<rect x="202.546" y="208.921" width="10.5534" height="2.43541" rx="1.2177" fill="#FCE303"/>
<rect x="220.406" y="208.921" width="6.49442" height="2.43541" rx="1.2177" fill="#FCE303"/>
<rect x="244.76" y="208.921" width="14.6124" height="2.43541" rx="1.2177" fill="#FCE303"/>
<rect x="333.246" y="208.921" width="16.236" height="2.43541" rx="1.2177" fill="#FCE303"/>
<rect x="282.914" y="208.921" width="10.5534" height="2.43541" rx="1.2177" fill="#FC0317"/>
<rect x="175.757" y="208.921" width="12.9888" height="2.43541" rx="1.2177" fill="#C8C8C8"/>
<rect x="365.718" y="208.921" width="6.49442" height="2.43541" rx="1.2177" fill="#C8C8C8"/>
<rect x="379.519" y="208.921" width="6.49442" height="2.43541" rx="1.2177" fill="#C8C8C8"/>
<rect x="303.209" y="244.64" width="10.5534" height="2.43541" rx="1.2177" fill="#7799F2"/>
<rect x="202.546" y="244.64" width="10.5534" height="2.43541" rx="1.2177" fill="#FCE303"/>
<rect x="220.406" y="244.64" width="6.49442" height="2.43541" rx="1.2177" fill="#FCE303"/>
<rect x="244.76" y="244.64" width="14.6124" height="2.43541" rx="1.2177" fill="#FCE303"/>
<rect x="333.246" y="244.64" width="16.236" height="2.43541" rx="1.2177" fill="#FCE303"/>
<rect x="282.914" y="244.64" width="10.5534" height="2.43541" rx="1.2177" fill="#FC0317"/>
<rect x="175.757" y="244.64" width="12.9888" height="2.43541" rx="1.2177" fill="#C8C8C8"/>
<rect x="365.718" y="244.64" width="6.49442" height="2.43541" rx="1.2177" fill="#C8C8C8"/>
<rect x="379.519" y="244.64" width="6.49442" height="2.43541" rx="1.2177" fill="#C8C8C8"/>
<rect x="303.209" y="226.78" width="10.5534" height="2.43541" rx="1.2177" fill="#7799F2"/>
<rect x="202.546" y="226.78" width="10.5534" height="2.43541" rx="1.2177" fill="#FC0317"/>
<rect x="220.406" y="226.78" width="6.49442" height="2.43541" rx="1.2177" fill="#FC0317"/>
<rect x="244.76" y="226.78" width="14.6124" height="2.43541" rx="1.2177" fill="#FC0317"/>
<rect x="333.246" y="226.78" width="16.236" height="2.43541" rx="1.2177" fill="#FC0317"/>
<rect x="282.914" y="226.78" width="10.5534" height="2.43541" rx="1.2177" fill="#FC0317"/>
<rect x="175.757" y="226.78" width="12.9888" height="2.43541" rx="1.2177" fill="#C8C8C8"/>
<rect x="365.718" y="226.78" width="6.49442" height="2.43541" rx="1.2177" fill="#C8C8C8"/>
<rect x="379.519" y="226.78" width="6.49442" height="2.43541" rx="1.2177" fill="#C8C8C8"/>
<rect x="303.209" y="235.711" width="10.5534" height="2.43541" rx="1.2177" fill="#7799F2"/>
<rect x="202.546" y="235.711" width="10.5534" height="2.43541" rx="1.2177" fill="#FC0317"/>
<rect x="220.406" y="235.711" width="6.49442" height="2.43541" rx="1.2177" fill="#FC0317"/>
<rect x="244.76" y="235.711" width="14.6124" height="2.43541" rx="1.2177" fill="#C8C8C8"/>
<rect x="333.246" y="235.711" width="16.236" height="2.43541" rx="1.2177" fill="#FC0317"/>
<rect x="282.914" y="235.711" width="10.5534" height="2.43541" rx="1.2177" fill="#FC0317"/>
<rect x="175.757" y="235.71" width="12.9888" height="2.43541" rx="1.2177" fill="#C8C8C8"/>
<rect x="365.718" y="235.711" width="6.49442" height="2.43541" rx="1.2177" fill="#C8C8C8"/>
<rect x="379.519" y="235.711" width="6.49442" height="2.43541" rx="1.2177" fill="#C8C8C8"/>
<rect x="303.209" y="217.851" width="10.5534" height="2.43541" rx="1.2177" fill="#7799F2"/>
<rect x="202.546" y="217.851" width="10.5534" height="2.43541" rx="1.2177" fill="#7799F2"/>
<rect x="220.406" y="217.851" width="6.49442" height="2.43541" rx="1.2177" fill="#7799F2"/>
<rect x="244.76" y="217.851" width="14.6124" height="2.43541" rx="1.2177" fill="#7799F2"/>
<rect x="333.246" y="217.851" width="16.236" height="2.43541" rx="1.2177" fill="#7799F2"/>
<rect x="329.187" y="262.5" width="16.236" height="2.43541" rx="1.2177" fill="#7799F2"/>
<rect x="282.914" y="217.851" width="10.5534" height="2.43541" rx="1.2177" fill="#7799F2"/>
<rect x="180.627" y="274.677" width="14.6124" height="2.43541" rx="1.2177" fill="#FCE303"/>
<rect x="269.114" y="274.677" width="16.236" height="2.43541" rx="1.2177" fill="#FCE303"/>
<rect x="239.077" y="274.677" width="10.5534" height="2.43541" rx="1.2177" fill="#7799F2"/>
<rect x="218.782" y="274.677" width="10.5534" height="2.43541" rx="1.2177" fill="#7799F2"/>
<rect x="180.627" y="281.172" width="14.6124" height="2.43541" rx="1.2177" fill="#FCE303"/>
<rect x="269.114" y="281.172" width="16.236" height="2.43541" rx="1.2177" fill="#FCE303"/>
<rect x="239.077" y="281.172" width="10.5534" height="2.43541" rx="1.2177" fill="#7799F2"/>
<rect x="218.782" y="281.172" width="10.5534" height="2.43541" rx="1.2177" fill="#7799F2"/>
<rect x="180.627" y="287.666" width="14.6124" height="2.43541" rx="1.2177" fill="#FCE303"/>
<rect x="269.114" y="287.666" width="16.236" height="2.43541" rx="1.2177" fill="#C8C8C8"/>
<rect x="307.268" y="274.677" width="16.236" height="2.43541" rx="1.2177" fill="#C8C8C8"/>
<rect x="342.176" y="274.677" width="3.24721" height="2.43541" rx="1.2177" fill="#C8C8C8"/>
<rect x="375.46" y="274.677" width="10.5534" height="2.43541" rx="1.2177" fill="#FF2574"/>
<rect x="307.268" y="287.666" width="16.236" height="2.43541" rx="1.2177" fill="#C8C8C8"/>
<rect x="342.176" y="287.666" width="3.24721" height="2.43541" rx="1.2177" fill="#C8C8C8"/>
<rect x="375.46" y="287.666" width="10.5534" height="2.43541" rx="1.2177" fill="#FF2574"/>
<rect x="239.077" y="287.666" width="10.5534" height="2.43541" rx="1.2177" fill="#FC0317"/>
<rect x="218.782" y="287.666" width="10.5534" height="2.43541" rx="1.2177" fill="#FC0317"/>
<rect x="180.627" y="294.161" width="14.6124" height="2.43541" rx="1.2177" fill="#FCE303"/>
<rect x="269.114" y="294.161" width="16.236" height="2.43541" rx="1.2177" fill="#C8C8C8"/>
<rect x="307.268" y="281.172" width="16.236" height="2.43541" rx="1.2177" fill="#C8C8C8"/>
<rect x="342.176" y="281.172" width="3.24721" height="2.43541" rx="1.2177" fill="#C8C8C8"/>
<rect x="375.46" y="281.172" width="10.5534" height="2.43541" rx="1.2177" fill="#FF2574"/>
<rect x="307.268" y="294.161" width="16.236" height="2.43541" rx="1.2177" fill="#C8C8C8"/>
<rect x="342.176" y="294.161" width="3.24721" height="2.43541" rx="1.2177" fill="#C8C8C8"/>
<rect x="375.46" y="294.161" width="10.5534" height="2.43541" rx="1.2177" fill="#FF2574"/>
<rect x="239.077" y="294.161" width="10.5534" height="2.43541" rx="1.2177" fill="#FC0317"/>
<rect x="218.782" y="294.161" width="10.5534" height="2.43541" rx="1.2177" fill="#FC0317"/>
<rect x="175.757" y="217.851" width="12.9888" height="2.43541" rx="1.2177" fill="#7799F2"/>
<rect x="365.718" y="217.851" width="6.49442" height="2.43541" rx="1.2177" fill="#7799F2"/>
<rect x="366.53" y="262.5" width="6.49442" height="2.43541" rx="1.2177" fill="#7799F2"/>
<rect x="380.331" y="262.5" width="6.49442" height="2.43541" rx="1.2177" fill="#7799F2"/>
<rect x="379.519" y="217.851" width="6.49442" height="2.43541" rx="1.2177" fill="#7799F2"/>
<rect x="379.519" y="201.615" width="6.49442" height="2.43541" rx="1.2177" fill="#C8C8C8"/>
<rect x="365.718" y="201.615" width="6.49442" height="2.43541" rx="1.2177" fill="#C8C8C8"/>
<rect x="333.246" y="201.615" width="6.49442" height="2.43541" rx="1.2177" fill="#C8C8C8"/>
<rect x="303.209" y="201.615" width="6.49442" height="2.43541" rx="1.2177" fill="#C8C8C8"/>
<rect x="282.914" y="201.615" width="6.49442" height="2.43541" rx="1.2177" fill="#C8C8C8"/>
<rect x="244.76" y="201.615" width="6.49442" height="2.43541" rx="1.2177" fill="#C8C8C8"/>
<rect x="220.406" y="201.615" width="6.49442" height="2.43541" rx="1.2177" fill="#C8C8C8"/>
<rect x="202.546" y="201.615" width="6.49442" height="2.43541" rx="1.2177" fill="#C8C8C8"/>
<rect x="175.757" y="201.615" width="12.9888" height="2.43541" rx="1.2177" fill="#C8C8C8"/>
<rect x="317.822" y="169.143" width="6.49442" height="2.43541" rx="1.2177" fill="#C8C8C8"/>
<rect x="349.482" y="169.143" width="6.49442" height="2.43541" rx="1.2177" fill="#C8C8C8"/>
<rect x="331.623" y="169.143" width="12.177" height="2.43541" rx="1.2177" fill="#4E7AEC"/>
<rect x="265.055" y="174.825" width="6.49442" height="2.43541" rx="1.2177" fill="#C8C8C8"/>
<rect x="261.808" y="262.5" width="6.49442" height="2.43541" rx="1.2177" fill="#C8C8C8"/>
<rect x="320.258" y="262.5" width="6.49442" height="2.43541" rx="1.2177" fill="#C8C8C8"/>
<rect x="365.718" y="174.825" width="6.49442" height="2.43541" rx="1.2177" fill="#C8C8C8"/>
<rect x="281.291" y="189.438" width="6.49442" height="2.43541" rx="1.2177" fill="#C8C8C8"/>
<rect x="269.114" y="189.438" width="6.49442" height="2.43541" rx="1.2177" fill="#C8C8C8"/>
<path d="M178.978 176.832C177.308 176.832 176.205 176.038 176.113 174.729L176.107 174.652H177.231L177.241 174.719C177.344 175.404 178.029 175.832 179.024 175.832C180.019 175.832 180.647 175.384 180.647 174.688V174.683C180.647 174.085 180.24 173.76 179.256 173.544L178.447 173.374C176.989 173.065 176.283 172.395 176.283 171.292V171.287C176.288 170.019 177.406 169.148 178.978 169.148C180.529 169.148 181.59 169.994 181.667 171.241L181.673 171.328H180.549L180.544 171.256C180.441 170.566 179.843 170.148 178.962 170.148C178.04 170.153 177.452 170.591 177.452 171.241V171.246C177.452 171.802 177.875 172.142 178.802 172.343L179.617 172.513C181.152 172.838 181.812 173.462 181.812 174.611V174.616C181.812 175.971 180.74 176.832 178.978 176.832ZM182.853 176.708V169.272H187.573V170.267H184.007V172.436H187.382V173.405H184.007V175.713H187.573V176.708H182.853ZM190.603 176.708V170.267H188.325V169.272H194.03V170.267H191.757V176.708H190.603Z" fill="white"/>
<path d="M205.627 176.52V170.712H205.603L203.81 171.949V170.94L205.618 169.656H206.669V176.52H205.627ZM207.81 177.899L208.2 175.464H209.228L208.533 177.899H207.81ZM212.857 176.634C211.454 176.634 210.16 175.659 210.16 173.19V173.181C210.16 170.893 211.183 169.542 212.9 169.542C214.122 169.542 215.04 170.241 215.259 171.264L215.274 171.321H214.203L214.189 171.273C213.994 170.759 213.547 170.436 212.89 170.436C211.711 170.436 211.23 171.573 211.188 172.933C211.183 172.995 211.183 173.057 211.183 173.119H211.207C211.478 172.5 212.172 172.015 213.105 172.015C214.417 172.015 215.364 172.971 215.364 174.27V174.279C215.364 175.649 214.303 176.634 212.857 176.634ZM211.392 174.284C211.392 175.098 212.03 175.74 212.843 175.74C213.656 175.74 214.303 175.107 214.303 174.308V174.298C214.303 173.471 213.694 172.881 212.857 172.881C212.025 172.881 211.392 173.466 211.392 174.279V174.284ZM218.884 176.634C217.366 176.634 216.291 175.821 216.291 174.66V174.65C216.291 173.785 216.915 173.1 217.809 172.905V172.881C217.043 172.662 216.544 172.091 216.544 171.364V171.354C216.544 170.308 217.519 169.542 218.884 169.542C220.249 169.542 221.229 170.308 221.229 171.354V171.364C221.229 172.091 220.729 172.662 219.964 172.881V172.905C220.858 173.1 221.476 173.785 221.476 174.65V174.66C221.476 175.821 220.406 176.634 218.884 176.634ZM218.884 172.524C219.65 172.524 220.173 172.082 220.173 171.459V171.449C220.173 170.821 219.645 170.384 218.884 170.384C218.123 170.384 217.6 170.821 217.6 171.449V171.459C217.6 172.082 218.123 172.524 218.884 172.524ZM218.884 175.782C219.759 175.782 220.382 175.283 220.382 174.589V174.579C220.382 173.88 219.764 173.376 218.884 173.376C218.004 173.376 217.386 173.88 217.386 174.579V174.589C217.386 175.283 218.009 175.782 218.884 175.782ZM224.896 176.634C223.379 176.634 222.304 175.821 222.304 174.66V174.65C222.304 173.785 222.927 173.1 223.821 172.905V172.881C223.055 172.662 222.556 172.091 222.556 171.364V171.354C222.556 170.308 223.531 169.542 224.896 169.542C226.261 169.542 227.241 170.308 227.241 171.354V171.364C227.241 172.091 226.742 172.662 225.976 172.881V172.905C226.87 173.1 227.489 173.785 227.489 174.65V174.66C227.489 175.821 226.418 176.634 224.896 176.634ZM224.896 172.524C225.662 172.524 226.185 172.082 226.185 171.459V171.449C226.185 170.821 225.657 170.384 224.896 170.384C224.135 170.384 223.612 170.821 223.612 171.449V171.459C223.612 172.082 224.135 172.524 224.896 172.524ZM224.896 175.782C225.772 175.782 226.395 175.283 226.395 174.589V174.579C226.395 173.88 225.776 173.376 224.896 173.376C224.016 173.376 223.398 173.88 223.398 174.579V174.589C223.398 175.283 224.021 175.782 224.896 175.782ZM228.873 176.591C228.521 176.591 228.245 176.315 228.245 175.968C228.245 175.616 228.521 175.345 228.873 175.345C229.22 175.345 229.496 175.616 229.496 175.968C229.496 176.315 229.22 176.591 228.873 176.591ZM232.949 176.634C231.308 176.634 230.328 175.269 230.328 173.09V173.081C230.328 170.902 231.308 169.542 232.949 169.542C234.586 169.542 235.57 170.902 235.57 173.081V173.09C235.57 175.269 234.586 176.634 232.949 176.634ZM232.949 175.744C233.924 175.744 234.495 174.736 234.495 173.09V173.081C234.495 171.435 233.924 170.436 232.949 170.436C231.969 170.436 231.403 171.435 231.403 173.081V173.09C231.403 174.736 231.969 175.744 232.949 175.744ZM239.028 176.634C237.387 176.634 236.407 175.269 236.407 173.09V173.081C236.407 170.902 237.387 169.542 239.028 169.542C240.665 169.542 241.649 170.902 241.649 173.081V173.09C241.649 175.269 240.665 176.634 239.028 176.634ZM239.028 175.744C240.003 175.744 240.574 174.736 240.574 173.09V173.081C240.574 171.435 240.003 170.436 239.028 170.436C238.048 170.436 237.482 171.435 237.482 173.081V173.09C237.482 174.736 238.048 175.744 239.028 175.744Z" fill="#7799F2"/>
<g clip-path="url(#clip0_1765_3843)">
<path d="M124.579 118H58.8606C49.4291 118 41.8095 125.581 41.8095 134.965V305.632C41.8095 314.993 49.4291 322.597 58.8606 322.597H124.579C133.988 322.597 141.63 315.016 141.63 305.632V134.965C141.63 125.581 133.988 118 124.579 118Z" fill="#989898"/>
<path d="M128.638 118H62.9194C53.5111 118 45.8683 125.581 45.8683 134.965V305.632C45.8683 314.993 53.4879 322.597 62.9194 322.597H128.638C138.046 322.597 145.689 315.016 145.689 305.632V134.965C145.689 125.581 138.046 118 128.638 118Z" fill="black"/>
<path d="M129.481 118H63.7621C54.3538 118 46.711 125.581 46.711 134.965V305.632C46.711 314.993 54.3306 322.597 63.7621 322.597H129.481C138.889 322.597 146.532 315.016 146.532 305.632V134.965C146.532 125.581 138.889 118 129.481 118ZM141.63 305.494C141.63 312.381 136.009 317.975 129.086 317.975H64.1802C57.2576 317.975 51.6358 312.381 51.6358 305.494V135.104C51.6358 128.216 57.2576 122.623 64.1802 122.623H73.2168C74.3551 122.623 75.2611 123.524 75.2611 124.657V127.8C75.2611 129.903 76.9802 131.637 79.1174 131.637H114.149C116.263 131.637 118.005 129.926 118.005 127.8V124.657C118.005 123.524 118.911 122.623 120.049 122.623H129.086C136.009 122.623 141.63 128.216 141.63 135.104V305.494Z" fill="black"/>
<path d="M141.604 305.358C141.604 312.246 135.983 317.84 129.06 317.84H64.1544C57.2317 317.84 51.61 312.246 51.61 305.358V134.969C51.61 128.081 57.2317 122.488 64.1544 122.488H73.191C74.3293 122.488 75.2353 123.389 75.2353 124.522V127.665C75.2353 129.768 76.9543 131.502 79.0915 131.502H114.123C116.237 131.502 117.979 129.791 117.979 127.665V124.522C117.979 123.389 118.885 122.488 120.023 122.488H129.06C135.983 122.488 141.604 128.081 141.604 134.969V305.358Z" fill="#222222"/>
<path d="M61.3251 149.659C59.6555 149.659 58.5527 148.866 58.46 147.557L58.4548 147.479H59.5782L59.5885 147.546C59.6916 148.232 60.3769 148.659 61.3715 148.659C62.366 148.659 62.9947 148.211 62.9947 147.515V147.51C62.9947 146.913 62.5876 146.588 61.6033 146.371L60.7943 146.201C59.336 145.892 58.63 145.222 58.63 144.12V144.114C58.6352 142.847 59.7534 141.976 61.3251 141.976C62.8761 141.976 63.9377 142.821 64.015 144.068L64.0201 144.156H62.8968L62.8916 144.083C62.7885 143.393 62.1908 142.976 61.3096 142.976C60.3872 142.981 59.7998 143.419 59.7998 144.068V144.073C59.7998 144.63 60.2223 144.97 61.1499 145.171L61.9641 145.341C63.4997 145.665 64.1593 146.289 64.1593 147.438V147.443C64.1593 148.799 63.0874 149.659 61.3251 149.659ZM65.2002 149.535V142.1H69.9204V143.094H66.3544V145.264H69.7297V146.232H66.3544V148.541H69.9204V149.535H65.2002ZM72.9503 149.535V143.094H70.6727V142.1H76.3771V143.094H74.1046V149.535H72.9503Z" fill="white"/>
<path d="M98.528 150.159V144.351H98.5042L96.711 145.588V144.58L98.5185 143.295H99.5697V150.159H98.528ZM100.711 151.539L101.101 149.103H102.129L101.434 151.539H100.711ZM105.758 150.273C104.355 150.273 103.061 149.298 103.061 146.83V146.82C103.061 144.532 104.084 143.181 105.801 143.181C107.023 143.181 107.941 143.88 108.16 144.903L108.175 144.96H107.104L107.09 144.913C106.895 144.399 106.448 144.075 105.791 144.075C104.612 144.075 104.131 145.212 104.089 146.573C104.084 146.634 104.084 146.696 104.084 146.758H104.108C104.379 146.14 105.073 145.655 106.005 145.655C107.318 145.655 108.265 146.611 108.265 147.909V147.919C108.265 149.289 107.204 150.273 105.758 150.273ZM104.293 147.924C104.293 148.737 104.93 149.379 105.744 149.379C106.557 149.379 107.204 148.746 107.204 147.947V147.938C107.204 147.11 106.595 146.52 105.758 146.52C104.926 146.52 104.293 147.105 104.293 147.919V147.924ZM111.785 150.273C110.267 150.273 109.192 149.46 109.192 148.299V148.29C109.192 147.424 109.816 146.739 110.71 146.544V146.52C109.944 146.302 109.445 145.731 109.445 145.003V144.993C109.445 143.947 110.42 143.181 111.785 143.181C113.15 143.181 114.13 143.947 114.13 144.993V145.003C114.13 145.731 113.63 146.302 112.865 146.52V146.544C113.759 146.739 114.377 147.424 114.377 148.29V148.299C114.377 149.46 113.307 150.273 111.785 150.273ZM111.785 146.164C112.551 146.164 113.074 145.721 113.074 145.098V145.089C113.074 144.461 112.546 144.023 111.785 144.023C111.024 144.023 110.501 144.461 110.501 145.089V145.098C110.501 145.721 111.024 146.164 111.785 146.164ZM111.785 149.422C112.66 149.422 113.283 148.922 113.283 148.228V148.218C113.283 147.519 112.665 147.015 111.785 147.015C110.905 147.015 110.286 147.519 110.286 148.218V148.228C110.286 148.922 110.91 149.422 111.785 149.422ZM117.797 150.273C116.28 150.273 115.205 149.46 115.205 148.299V148.29C115.205 147.424 115.828 146.739 116.722 146.544V146.52C115.956 146.302 115.457 145.731 115.457 145.003V144.993C115.457 143.947 116.432 143.181 117.797 143.181C119.162 143.181 120.142 143.947 120.142 144.993V145.003C120.142 145.731 119.643 146.302 118.877 146.52V146.544C119.771 146.739 120.39 147.424 120.39 148.29V148.299C120.39 149.46 119.319 150.273 117.797 150.273ZM117.797 146.164C118.563 146.164 119.086 145.721 119.086 145.098V145.089C119.086 144.461 118.558 144.023 117.797 144.023C117.036 144.023 116.513 144.461 116.513 145.089V145.098C116.513 145.721 117.036 146.164 117.797 146.164ZM117.797 149.422C118.672 149.422 119.296 148.922 119.296 148.228V148.218C119.296 147.519 118.677 147.015 117.797 147.015C116.917 147.015 116.299 147.519 116.299 148.218V148.228C116.299 148.922 116.922 149.422 117.797 149.422ZM121.774 150.231C121.422 150.231 121.146 149.955 121.146 149.607C121.146 149.255 121.422 148.984 121.774 148.984C122.121 148.984 122.397 149.255 122.397 149.607C122.397 149.955 122.121 150.231 121.774 150.231ZM125.85 150.273C124.209 150.273 123.229 148.908 123.229 146.73V146.72C123.229 144.542 124.209 143.181 125.85 143.181C127.487 143.181 128.471 144.542 128.471 146.72V146.73C128.471 148.908 127.487 150.273 125.85 150.273ZM125.85 149.384C126.825 149.384 127.396 148.375 127.396 146.73V146.72C127.396 145.074 126.825 144.075 125.85 144.075C124.87 144.075 124.304 145.074 124.304 146.72V146.73C124.304 148.375 124.87 149.384 125.85 149.384ZM131.929 150.273C130.288 150.273 129.308 148.908 129.308 146.73V146.72C129.308 144.542 130.288 143.181 131.929 143.181C133.566 143.181 134.55 144.542 134.55 146.72V146.73C134.55 148.908 133.566 150.273 131.929 150.273ZM131.929 149.384C132.904 149.384 133.475 148.375 133.475 146.73V146.72C133.475 145.074 132.904 144.075 131.929 144.075C130.949 144.075 130.383 145.074 130.383 146.72V146.73C130.383 148.375 130.949 149.384 131.929 149.384Z" fill="#7799F2"/>
<path d="M102.215 156.364V155.9H103.219V154.939H103.683V155.9H104.689V156.364H103.683V157.325H103.219V156.364H102.215ZM106.482 157.581C105.661 157.581 105.171 156.899 105.171 155.81V155.805C105.171 154.716 105.661 154.035 106.482 154.035C107.3 154.035 107.792 154.716 107.792 155.805V155.81C107.792 156.899 107.3 157.581 106.482 157.581ZM106.482 157.137C106.969 157.137 107.255 156.633 107.255 155.81V155.805C107.255 154.982 106.969 154.483 106.482 154.483C105.992 154.483 105.709 154.982 105.709 155.805V155.81C105.709 156.633 105.992 157.137 106.482 157.137ZM108.444 157.56C108.268 157.56 108.13 157.422 108.13 157.249C108.13 157.073 108.268 156.937 108.444 156.937C108.618 156.937 108.756 157.073 108.756 157.249C108.756 157.422 108.618 157.56 108.444 157.56ZM109.319 157.524L110.844 154.554V154.542H109.034V154.092H111.369V154.554L109.878 157.524H109.319ZM113.051 157.581C112.23 157.581 111.74 156.899 111.74 155.81V155.805C111.74 154.716 112.23 154.035 113.051 154.035C113.869 154.035 114.361 154.716 114.361 155.805V155.81C114.361 156.899 113.869 157.581 113.051 157.581ZM113.051 157.137C113.538 157.137 113.824 156.633 113.824 155.81V155.805C113.824 154.982 113.538 154.483 113.051 154.483C112.561 154.483 112.278 154.982 112.278 155.805V155.81C112.278 156.633 112.561 157.137 113.051 157.137ZM116.692 158.357C116.216 157.767 116.005 157.073 116.005 156.223C116.005 155.372 116.219 154.68 116.692 154.092H117.144C116.797 154.497 116.533 155.422 116.533 156.223C116.533 157.023 116.797 157.953 117.144 158.357H116.692ZM117.508 156.364V155.9H118.512V154.939H118.975V155.9H119.981V156.364H118.975V157.325H118.512V156.364H117.508ZM121.775 157.581C120.954 157.581 120.464 156.899 120.464 155.81V155.805C120.464 154.716 120.954 154.035 121.775 154.035C122.593 154.035 123.085 154.716 123.085 155.805V155.81C123.085 156.899 122.593 157.581 121.775 157.581ZM121.775 157.137C122.262 157.137 122.548 156.633 122.548 155.81V155.805C122.548 154.982 122.262 154.483 121.775 154.483C121.285 154.483 121.002 154.982 121.002 155.805V155.81C121.002 156.633 121.285 157.137 121.775 157.137ZM123.737 157.56C123.561 157.56 123.423 157.422 123.423 157.249C123.423 157.073 123.561 156.937 123.737 156.937C123.91 156.937 124.048 157.073 124.048 157.249C124.048 157.422 123.91 157.56 123.737 157.56ZM125.775 157.581C124.954 157.581 124.464 156.899 124.464 155.81V155.805C124.464 154.716 124.954 154.035 125.775 154.035C126.593 154.035 127.085 154.716 127.085 155.805V155.81C127.085 156.899 126.593 157.581 125.775 157.581ZM125.775 157.137C126.262 157.137 126.548 156.633 126.548 155.81V155.805C126.548 154.982 126.262 154.483 125.775 154.483C125.285 154.483 125.002 154.982 125.002 155.805V155.81C125.002 156.633 125.285 157.137 125.775 157.137ZM129.193 157.524V156.842H127.475V156.378L128.933 154.092H129.704V156.395H130.177V156.842H129.704V157.524H129.193ZM127.97 156.402H129.197V154.513H129.183L127.97 156.388V156.402ZM131.257 155.812C130.803 155.812 130.524 155.477 130.524 154.937V154.934C130.524 154.399 130.803 154.064 131.257 154.064C131.711 154.064 131.987 154.399 131.987 154.934V154.937C131.987 155.477 131.711 155.812 131.257 155.812ZM131.483 157.524H131.043L133.233 154.092H133.671L131.483 157.524ZM131.257 155.489C131.473 155.489 131.597 155.286 131.597 154.939V154.937C131.597 154.587 131.473 154.387 131.257 154.387C131.041 154.387 130.917 154.587 130.917 154.937V154.939C130.917 155.286 131.041 155.489 131.257 155.489ZM133.455 157.553C133 157.553 132.724 157.218 132.724 156.68V156.678C132.724 156.14 133 155.805 133.455 155.805C133.909 155.805 134.185 156.14 134.185 156.678V156.68C134.185 157.218 133.909 157.553 133.455 157.553ZM133.455 157.23C133.671 157.23 133.795 157.027 133.795 156.68V156.678C133.795 156.328 133.671 156.131 133.455 156.131C133.238 156.131 133.114 156.328 133.114 156.678V156.68C133.114 157.027 133.238 157.23 133.455 157.23ZM134.939 158.357H134.487C134.834 157.953 135.098 157.023 135.098 156.223C135.098 155.422 134.834 154.497 134.487 154.092H134.939C135.412 154.682 135.626 155.374 135.626 156.223C135.626 157.073 135.412 157.767 134.939 158.357Z" fill="#7799F2"/>
<rect x="58.1044" y="154.148" width="6.49442" height="2.43541" rx="1.2177" fill="#7799F2"/>
<rect x="70.2814" y="163.89" width="10.5534" height="2.43541" rx="1.2177" fill="#7799F2"/>
<rect x="89.7647" y="163.89" width="10.5534" height="2.43541" rx="1.2177" fill="#7799F2"/>
<rect x="70.2814" y="169.572" width="10.5534" height="2.43541" rx="1.2177" fill="#FC0317"/>
<rect x="89.7647" y="169.572" width="10.5534" height="2.43541" rx="1.2177" fill="#FC0317"/>
<rect x="58.1044" y="163.89" width="6.49442" height="2.43541" rx="1.2177" fill="#C8C8C8"/>
<rect x="101.942" y="241.823" width="10.5534" height="2.43541" rx="1.2177" fill="#7799F2"/>
<rect x="125.484" y="241.823" width="10.5534" height="2.43541" rx="1.2177" fill="#7799F2"/>
<rect x="58.1044" y="241.823" width="17.0478" height="2.43541" rx="1.2177" fill="#C8C8C8"/>
<rect x="97.8827" y="247.505" width="14.6124" height="2.43541" rx="1.2177" fill="#7799F2"/>
<rect x="125.484" y="247.505" width="10.5534" height="2.43541" rx="1.2177" fill="#7799F2"/>
<rect x="58.1044" y="247.505" width="21.1069" height="2.43541" rx="1.2177" fill="#C8C8C8"/>
<rect x="125.484" y="292.966" width="10.5534" height="2.43541" rx="1.2177" fill="#7799F2"/>
<rect x="58.1044" y="292.966" width="21.1069" height="2.43541" rx="1.2177" fill="#C8C8C8"/>
<rect x="105.189" y="163.89" width="6.49442" height="2.43541" rx="1.2177" fill="#C8C8C8"/>
<rect x="123.86" y="163.89" width="12.177" height="2.43541" rx="1.2177" fill="white"/>
<rect x="68.6578" y="225.586" width="4.87081" height="0.811802" rx="0.405901" transform="rotate(90 68.6578 225.586)" fill="#9EB8F9"/>
<rect x="70.2814" y="223.151" width="7.30622" height="0.811802" rx="0.405901" transform="rotate(90 70.2814 223.151)" fill="#9EB8F9"/>
<rect x="71.905" y="224.775" width="5.68262" height="0.811802" rx="0.405901" transform="rotate(90 71.905 224.775)" fill="#9EB8F9"/>
<rect x="78.3995" y="224.775" width="5.68262" height="0.811802" rx="0.405901" transform="rotate(90 78.3995 224.775)" fill="#9EB8F9"/>
<rect x="73.5286" y="221.528" width="8.92982" height="0.811802" rx="0.405901" transform="rotate(90 73.5286 221.528)" fill="#9EB8F9"/>
<rect x="75.1522" y="228.022" width="2.43541" height="0.811802" rx="0.405901" transform="rotate(90 75.1522 228.022)" fill="#9EB8F9"/>
<rect x="76.7759" y="225.586" width="4.87081" height="0.811802" rx="0.405901" transform="rotate(90 76.7759 225.586)" fill="#9EB8F9"/>
<rect width="4.87081" height="0.811802" rx="0.405901" transform="matrix(4.37114e-08 1 1 -4.37114e-08 88.9529 225.586)" fill="#9EB8F9"/>
<rect width="7.30622" height="0.811802" rx="0.405901" transform="matrix(4.37114e-08 1 1 -4.37114e-08 87.3293 223.151)" fill="#9EB8F9"/>
<rect width="5.68262" height="0.811802" rx="0.405901" transform="matrix(4.37114e-08 1 1 -4.37114e-08 85.7057 224.775)" fill="#9EB8F9"/>
<rect width="5.68262" height="0.811802" rx="0.405901" transform="matrix(4.37114e-08 1 1 -4.37114e-08 79.2112 224.775)" fill="#9EB8F9"/>
<rect width="8.92982" height="0.811802" rx="0.405901" transform="matrix(4.37114e-08 1 1 -4.37114e-08 84.0821 221.528)" fill="#9EB8F9"/>
<rect width="2.43541" height="0.811802" rx="0.405901" transform="matrix(4.37114e-08 1 1 -4.37114e-08 82.4585 228.022)" fill="#9EB8F9"/>
<rect width="4.87081" height="0.811802" rx="0.405901" transform="matrix(4.37114e-08 1 1 -4.37114e-08 80.8348 225.586)" fill="#9EB8F9"/>
<rect x="91.3883" y="225.586" width="4.87081" height="0.811802" rx="0.405901" transform="rotate(90 91.3883 225.586)" fill="#9EB8F9"/>
<rect x="93.0119" y="223.151" width="7.30622" height="0.811802" rx="0.405901" transform="rotate(90 93.0119 223.151)" fill="#9EB8F9"/>
<rect x="94.6355" y="224.775" width="5.68262" height="0.811802" rx="0.405901" transform="rotate(90 94.6355 224.775)" fill="#9EB8F9"/>
<rect x="101.13" y="224.775" width="5.68262" height="0.811802" rx="0.405901" transform="rotate(90 101.13 224.775)" fill="#9EB8F9"/>
<rect x="96.2591" y="221.528" width="8.92982" height="0.811802" rx="0.405901" transform="rotate(90 96.2591 221.528)" fill="#9EB8F9"/>
<rect x="97.8827" y="228.022" width="2.43541" height="0.811802" rx="0.405901" transform="rotate(90 97.8827 228.022)" fill="#9EB8F9"/>
<rect x="99.5063" y="225.586" width="4.87081" height="0.811802" rx="0.405901" transform="rotate(90 99.5063 225.586)" fill="#9EB8F9"/>
<rect x="112.495" y="224.775" width="5.68262" height="0.811802" rx="0.405901" transform="rotate(90 112.495 224.775)" fill="#9EB8F9"/>
<rect x="107.624" y="221.528" width="8.92982" height="0.811802" rx="0.405901" transform="rotate(90 107.624 221.528)" fill="#9EB8F9"/>
<rect x="109.248" y="228.022" width="2.43541" height="0.811802" rx="0.405901" transform="rotate(90 109.248 228.022)" fill="#9EB8F9"/>
<rect x="110.872" y="225.586" width="4.87081" height="0.811802" rx="0.405901" transform="rotate(90 110.872 225.586)" fill="#9EB8F9"/>
<rect width="4.87081" height="0.811802" rx="0.405901" transform="matrix(4.37114e-08 1 1 -4.37114e-08 123.049 225.586)" fill="#9EB8F9"/>
<rect width="7.30622" height="0.811802" rx="0.405901" transform="matrix(4.37114e-08 1 1 -4.37114e-08 121.425 223.151)" fill="#9EB8F9"/>
<rect width="5.68262" height="0.811802" rx="0.405901" transform="matrix(4.37114e-08 1 1 -4.37114e-08 119.801 224.775)" fill="#9EB8F9"/>
<rect width="5.68262" height="0.811802" rx="0.405901" transform="matrix(4.37114e-08 1 1 -4.37114e-08 113.307 224.775)" fill="#9EB8F9"/>
<rect width="8.92982" height="0.811802" rx="0.405901" transform="matrix(4.37114e-08 1 1 -4.37114e-08 118.178 221.528)" fill="#9EB8F9"/>
<rect width="2.43541" height="0.811802" rx="0.405901" transform="matrix(4.37114e-08 1 1 -4.37114e-08 116.554 228.022)" fill="#9EB8F9"/>
<rect width="4.87081" height="0.811802" rx="0.405901" transform="matrix(4.37114e-08 1 1 -4.37114e-08 114.931 225.586)" fill="#9EB8F9"/>
<rect x="125.484" y="225.586" width="4.87081" height="0.811802" rx="0.405901" transform="rotate(90 125.484 225.586)" fill="#9EB8F9"/>
<rect x="127.108" y="223.151" width="7.30622" height="0.811802" rx="0.405901" transform="rotate(90 127.108 223.151)" fill="#9EB8F9"/>
<rect x="128.731" y="224.775" width="5.68262" height="0.811802" rx="0.405901" transform="rotate(90 128.731 224.775)" fill="#9EB8F9"/>
<rect x="135.226" y="224.775" width="5.68262" height="0.811802" rx="0.405901" transform="rotate(90 135.226 224.775)" fill="#9EB8F9"/>
<rect x="130.355" y="221.528" width="8.92982" height="0.811802" rx="0.405901" transform="rotate(90 130.355 221.528)" fill="#9EB8F9"/>
<rect x="131.978" y="228.022" width="2.43541" height="0.811802" rx="0.405901" transform="rotate(90 131.978 228.022)" fill="#9EB8F9"/>
<rect x="133.602" y="225.586" width="4.87081" height="0.811802" rx="0.405901" transform="rotate(90 133.602 225.586)" fill="#9EB8F9"/>
<rect x="58.1044" y="169.572" width="6.49442" height="2.43541" rx="1.2177" fill="#C8C8C8"/>
<rect x="58.1044" y="184.996" width="6.49442" height="1.6236" rx="0.811802" fill="#C8C8C8"/>
<rect x="58.1044" y="190.841" width="6.49442" height="1.6236" rx="0.811802" fill="#C8C8C8"/>
<rect x="58.1044" y="196.686" width="6.49442" height="1.6236" rx="0.811802" fill="#C8C8C8"/>
<rect x="58.1044" y="202.531" width="6.49442" height="1.6236" rx="0.811802" fill="#C8C8C8"/>
<rect x="58.1044" y="208.376" width="6.49442" height="1.6236" rx="0.811802" fill="#C8C8C8"/>
<rect x="58.1044" y="214.221" width="6.49442" height="1.6236" rx="0.811802" fill="#C8C8C8"/>
<rect x="105.189" y="169.572" width="6.49442" height="2.43541" rx="1.2177" fill="#C8C8C8"/>
<rect x="118.99" y="169.572" width="17.0478" height="2.43541" rx="1.2177" fill="white"/>
<rect x="66.2224" y="154.148" width="6.49442" height="2.43541" rx="1.2177" fill="#FFFF13"/>
<rect x="74.3405" y="154.148" width="6.49442" height="2.43541" rx="1.2177" fill="#FC0317"/>
<g clip-path="url(#clip1_1765_3843)">
<path d="M67.846 208.41H69.4704H70.4786H71.4868H72.4357H74.2742L75.2231 200.926H76.172L77.0685 208.539L77.9576 204.73H79.0893H80.0863L81.1911 200.784H81.9994H83.0503L84.3241 194.738L85.2727 198.762L86.2837 194.738L87.1705 198.762L88.0621 194.738L89.0683 200.984H90.1359L92.1039 208.539H94.5289L95.8692 202.293L96.5498 205.033H98.1665L99.0179 202.293L99.9449 205.033H100.939L102.047 202.293H103.178H103.583H105.921H106.929H107.624" stroke="white" stroke-width="0.811802" stroke-linecap="round"/>
</g>
<path d="M67.846 216.657H67.0342V217.468H67.846V216.657ZM136.037 215.845H67.846V217.468H136.037V215.845ZM68.6578 216.657V184.996H67.0342V216.657H68.6578Z" fill="#F8F8F8" mask="url(#path-200-inside-1_1765_3843)"/>
<line x1="51.61" y1="235.937" x2="141.72" y2="235.937" stroke="#3C3C3C" stroke-width="0.405901"/>
<line x1="51.61" y1="262.118" x2="141.72" y2="262.118" stroke="#777777" stroke-width="4.87081"/>
<line x1="51.61" y1="277.542" x2="141.72" y2="277.542" stroke="#777777" stroke-width="3.24721"/>
<rect x="125.484" y="269.424" width="10.5534" height="2.43541" rx="1.2177" fill="#FC0317"/>
<rect x="58.1044" y="269.424" width="21.1069" height="2.43541" rx="1.2177" fill="#C8C8C8"/>
<rect x="122.237" y="284.848" width="13.8006" height="2.43541" rx="1.2177" fill="#FC0317"/>
<rect x="58.1044" y="284.848" width="15.4242" height="2.43541" rx="1.2177" fill="#C8C8C8"/>
<mask id="mask0_1765_3843" style="mask-type:alpha" maskUnits="userSpaceOnUse" x="51" y="122" width="91" height="196">
<path d="M141.604 305.358C141.604 312.246 135.983 317.84 129.06 317.84H64.1544C57.2317 317.84 51.61 312.246 51.61 305.358V134.969C51.61 128.081 57.2317 122.488 64.1544 122.488H73.191C74.3293 122.488 75.2353 123.389 75.2353 124.522V127.665C75.2353 129.768 76.9543 131.502 79.0915 131.502H114.123C116.237 131.502 117.979 129.791 117.979 127.665V124.522C117.979 123.389 118.885 122.488 120.023 122.488H129.06C135.983 122.488 141.604 128.081 141.604 134.969V305.358Z" fill="black"/>
</mask>
<g mask="url(#mask0_1765_3843)">
<line x1="51.61" y1="312.043" x2="141.72" y2="312.043" stroke="#525252" stroke-width="12.177"/>
</g>
<path d="M100.908 127.499H90.1751C89.5247 127.499 88.9904 126.968 88.9904 126.32C88.9904 125.673 89.5247 125.142 90.1751 125.142H100.908C101.558 125.142 102.092 125.673 102.092 126.32C102.092 126.968 101.558 127.499 100.908 127.499Z" fill="#808080"/>
<path d="M105.344 127.499C104.694 127.499 104.16 126.968 104.16 126.32C104.16 125.673 104.694 125.142 105.344 125.142C105.995 125.142 106.529 125.673 106.529 126.32C106.529 126.968 105.995 127.499 105.344 127.499Z" fill="#808080"/>
</g>
<path d="M163.192 231.523L163.192 242.256C163.192 242.906 162.66 243.44 162.013 243.44C161.366 243.44 160.834 242.906 160.834 242.256L160.834 231.523C160.834 230.873 161.366 230.339 162.013 230.339C162.66 230.339 163.192 230.873 163.192 231.523Z" fill="#454545"/>
<defs>
<clipPath id="clip0_1765_3843">
<rect width="104.722" height="204.574" fill="white" transform="translate(41.8095 118)"/>
</clipPath>
<clipPath id="clip1_1765_3843">
<path d="M67.846 184.996H136.037V216.657H67.846V184.996Z" fill="white"/>
</clipPath>
</defs>
</svg>
