<svg width="358" height="124" viewBox="0 0 358 124" fill="none" xmlns="http://www.w3.org/2000/svg">
<path d="M68.1525 74.76H26.5525V121H0.632501V2.6H75.9925V26.6H26.5525V51.4H68.1525V74.76ZM115.358 121H90.7175V0.359999H115.358V121ZM146.003 28.52C138.163 28.52 131.923 22.28 131.923 14.44C131.923 6.59999 138.163 0.519997 146.003 0.519997C153.683 0.519997 159.923 6.59999 159.923 14.44C159.923 22.28 153.683 28.52 146.003 28.52ZM133.843 121V41H158.483V121H133.843ZM201.608 121H176.968V41H200.168L201.768 49.32C206.728 42.44 215.848 38.44 226.248 38.44C245.288 38.44 256.328 50.6 256.328 71.56V121H231.688V77.48C231.688 67.4 226.088 60.84 217.608 60.84C207.848 60.84 201.608 67.24 201.608 77.16V121ZM306.319 121H281.679V61.48H266.479V41H281.679V16.2H306.319V41H321.519V61.48H306.319V121ZM343.109 123.08C334.949 123.08 328.389 116.52 328.389 108.68C328.389 100.68 334.949 94.12 343.109 94.12C350.949 94.12 357.829 100.68 357.829 108.68C357.829 116.52 350.949 123.08 343.109 123.08Z" fill="black"/>
</svg>
