<svg width="1010" height="858" viewBox="0 0 1010 858" fill="none" xmlns="http://www.w3.org/2000/svg">
<g clip-path="url(#clip0_1560_9910)">
<path d="M333.949 561.909C333.949 561.909 353.334 648.521 339.188 679.386C325.042 710.203 307.419 932.142 307.419 932.142H285.51L134.906 514.152C134.906 514.152 118.902 397.68 161.721 394.809C204.54 391.937 316.373 501.232 316.373 501.232L333.949 561.909Z" fill="#EC9776"/>
<path d="M265.553 461.658C265.553 461.658 340.474 459.983 348.856 479.65C357.239 499.318 372.909 544.825 365.05 559.42C357.239 574.015 345.475 577.413 332.615 572.34C319.755 567.268 310.229 534.154 311.372 525.732C312.515 517.31 283.985 497.643 276.698 490.896C269.411 484.149 265.553 461.658 265.553 461.658Z" fill="#FCB59F"/>
<path d="M258.266 410.217C258.266 410.217 248.74 449.552 258.266 454.05C267.792 458.548 310.277 478.789 334.854 469.219C359.478 459.648 364.479 444.766 358.335 440.986C352.191 437.206 294.036 410.791 285.081 410.217C276.175 409.691 258.266 410.217 258.266 410.217Z" fill="#FCB59F"/>
<g filter="url(#filter0_b_1560_9910)">
<path d="M523.96 340.527L187.615 406.143L197.383 455.377C198.372 460.361 203.197 463.612 208.188 462.658L526.017 401.863C531.014 400.907 534.299 396.093 533.369 391.092L523.96 340.527Z" fill="white" fill-opacity="0.6"/>
<path d="M523.96 340.527L187.615 406.143L197.383 455.377C198.372 460.361 203.197 463.612 208.188 462.658L526.017 401.863C531.014 400.907 534.299 396.093 533.369 391.092L523.96 340.527Z" stroke="#DCDCDC" stroke-width="2"/>
</g>
<path fill-rule="evenodd" clip-rule="evenodd" d="M524.203 340.569L186.823 405.998L158.996 257.909C157.9 252.166 161.663 246.615 167.426 245.515L484.304 185.412C490.019 184.312 495.544 188.092 496.64 193.882L524.203 340.569Z" fill="#4E7AEC"/>
<path d="M422.527 240.393L414.433 241.955L416.181 251.012L411.138 251.985L406.661 228.796L421.323 225.965L422.231 230.666L412.612 232.523L413.55 237.38L421.643 235.817L422.527 240.393Z" fill="#FBFBFB"/>
<path d="M433.459 247.676L428.665 248.602L424.103 224.973L428.897 224.047L433.459 247.676Z" fill="#FBFBFB"/>
<path d="M435.924 228.412C434.399 228.706 432.949 227.719 432.653 226.183C432.356 224.647 433.34 223.222 434.866 222.928C436.36 222.639 437.804 223.596 438.1 225.131C438.397 226.667 437.419 228.123 435.924 228.412ZM437.056 246.982L434.031 231.313L438.824 230.387L441.85 246.056L437.056 246.982Z" fill="#FBFBFB"/>
<path d="M450.24 244.436L445.446 245.362L442.421 229.693L446.935 228.822L447.561 230.391C448.265 228.857 449.889 227.731 451.912 227.341C455.616 226.625 458.224 228.592 459.017 232.698L460.886 242.381L456.092 243.307L454.447 234.783C454.065 232.808 452.728 231.734 451.078 232.052C449.179 232.419 448.207 233.907 448.582 235.85L450.24 244.436Z" fill="#FBFBFB"/>
<path d="M470.612 240.503L465.818 241.429L463.568 229.771L460.611 230.342L459.836 226.331L462.793 225.76L461.856 220.903L466.65 219.977L467.587 224.834L470.545 224.263L471.319 228.275L468.362 228.846L470.612 240.503Z" fill="#FBFBFB"/>
<path d="M477.849 239.529C476.261 239.835 474.737 238.797 474.44 237.261C474.138 235.694 475.166 234.163 476.754 233.857C478.279 233.562 479.866 234.589 480.168 236.155C480.465 237.691 479.374 239.234 477.849 239.529Z" fill="#FBFBFB"/>
<path d="M474.606 364.557L490.108 361.713L495.328 390.157L479.826 393.001L474.606 364.557Z" fill="#838486"/>
<path d="M478.2 378.599C477.14 372.82 478.857 367.206 482.332 363.139C478.888 361.278 474.831 360.516 470.697 361.275C460.904 363.072 454.465 372.617 456.3 382.617C458.135 392.618 467.543 399.255 477.337 397.458C481.471 396.699 484.993 394.547 487.552 391.583C482.868 389.066 479.261 384.378 478.2 378.599Z" fill="#636365"/>
<path d="M513.633 372.097C515.469 382.097 509.03 391.642 499.236 393.439C495.103 394.198 491.046 393.436 487.601 391.574C491.126 387.499 492.794 381.894 491.734 376.115C490.673 370.336 487.075 365.698 482.382 363.13C484.941 360.167 488.463 358.015 492.597 357.256C502.391 355.459 511.808 362.146 513.633 372.097Z" fill="#B0B1B2"/>
<path d="M477.42 397.912C481.545 397.156 485.075 395.046 487.679 392.138C491.146 393.932 495.195 394.651 499.32 393.894C509.373 392.049 515.968 382.256 514.088 372.013C512.218 361.822 502.568 354.957 492.514 356.802C488.389 357.558 484.859 359.668 482.254 362.575C478.787 360.782 474.738 360.063 470.614 360.82C460.56 362.665 453.966 372.458 455.846 382.701C457.725 392.943 467.367 399.757 477.42 397.912Z" stroke="url(#paint0_linear_1560_9910)" stroke-width="0.924435"/>
<path d="M474.606 364.557L490.108 361.713L495.328 390.157L479.826 393.001L474.606 364.557Z" fill="#838486"/>
<path d="M478.2 378.599C477.14 372.82 478.857 367.206 482.332 363.139C478.888 361.278 474.831 360.516 470.697 361.275C460.904 363.072 454.465 372.617 456.3 382.617C458.135 392.618 467.543 399.255 477.337 397.458C481.471 396.699 484.993 394.547 487.552 391.583C482.868 389.066 479.261 384.378 478.2 378.599Z" fill="#636365"/>
<path d="M513.633 372.097C515.469 382.097 509.03 391.642 499.236 393.439C495.103 394.198 491.046 393.436 487.601 391.574C491.126 387.499 492.794 381.894 491.734 376.115C490.673 370.336 487.075 365.698 482.382 363.13C484.941 360.167 488.463 358.015 492.597 357.256C502.391 355.459 511.808 362.146 513.633 372.097Z" fill="#B0B1B2"/>
<path d="M683.786 440.842C683.786 440.842 548.757 277.571 548.852 246.467C548.9 224.742 569.428 217.229 588.384 237.375C607.293 257.473 712.935 379.831 712.935 379.831L683.786 440.842Z" fill="#FCB59F"/>
<path d="M811.194 452.805C811.194 452.805 833.58 435.961 826.864 411.796C820.148 387.631 824.054 290.825 860.967 303.028C860.967 303.028 866.539 303.793 867.682 309.201C868.778 314.608 869.921 362.939 874.398 371.935C878.875 380.931 890.068 407.346 891.163 412.944C892.259 418.543 910.168 502.285 899.546 541.571C888.925 580.906 872.434 641.983 874.398 663C876.023 680.391 883.5 743 907.5 806C925.619 853.561 979.5 953.5 979.5 953.5C979.5 953.5 767.667 1032.33 762 978.5C749 855 748 799 702.123 743.221C640.062 708.384 599.815 630.289 604.292 590.428C608.77 550.567 580.859 514.63 580.859 514.63C580.859 514.63 551.805 512.956 543.375 495.537C534.992 478.119 537.23 444.958 560.712 437.11C560.712 437.11 542.803 421.366 545.613 400.598C548.423 379.831 562.95 363.513 599.863 369.16C636.776 374.758 811.194 452.805 811.194 452.805Z" fill="#FCB59F"/>
<path d="M698.741 740.78C698.741 740.78 648.587 645.028 673.545 643.353C698.503 641.63 707.076 618.039 707.076 618.039L608.055 622.585C608.102 622.537 625.154 696.469 698.741 740.78Z" fill="#EC9776"/>
<path d="M666.973 141.479L819.053 167.175C840.82 170.86 855.537 191.58 851.87 213.448L785.141 612.201C781.474 634.07 760.85 648.856 739.084 645.172L587.004 619.475C565.237 615.79 550.52 595.07 554.187 573.202L620.916 174.449C624.583 152.533 645.207 137.794 666.973 141.479Z" fill="#282828"/>
<path d="M609.58 172.535L542.851 571.288C539.184 593.156 553.901 613.876 575.668 617.561L727.748 643.257C749.514 646.942 770.138 632.156 773.805 610.287L840.534 211.534C844.202 189.666 829.484 168.946 807.717 165.261L655.637 139.564C633.823 135.88 613.199 150.618 609.58 172.535ZM620.868 174.736C623.583 158.61 638.729 147.747 654.78 150.475L675.689 154.016C678.309 154.447 680.071 156.935 679.642 159.567L678.404 166.936C677.594 171.865 680.881 176.554 685.834 177.368L766.899 191.054C771.805 191.867 776.473 188.565 777.282 183.589L778.521 176.219C778.949 173.587 781.426 171.817 784.046 172.248L804.955 175.789C821.006 178.516 831.818 193.733 829.103 209.859L762.47 608.038C759.755 624.164 744.609 635.027 728.558 632.299L578.382 606.937C562.331 604.21 551.52 588.993 554.234 572.867L620.868 174.736Z" fill="#071A2E"/>
<path d="M620.868 174.736C623.583 158.61 638.729 147.747 654.78 150.475L675.689 154.016C678.309 154.447 680.071 156.935 679.642 159.567L678.404 166.936C677.594 171.865 680.881 176.554 685.834 177.368L766.899 191.054C771.805 191.867 776.473 188.565 777.282 183.589L778.521 176.219C778.949 173.587 781.426 171.817 784.046 172.248L804.955 175.789C821.006 178.516 831.818 193.733 829.103 209.859L762.47 608.038C759.755 624.164 744.609 635.027 728.558 632.299L578.382 606.938C562.331 604.21 551.519 588.993 554.234 572.867L620.868 174.736Z" fill="#FBFBFB"/>
<path d="M602.481 384.169L608.003 391.53C608.431 392.101 609.316 391.992 609.594 391.335L623.317 358.86C623.334 358.819 623.353 358.78 623.376 358.743L629.359 348.794C629.409 348.711 629.472 348.636 629.545 348.572L635.197 343.662C635.666 343.254 636.396 343.417 636.648 343.986L642.403 356.978C642.722 357.697 643.736 357.715 644.08 357.007L659.861 324.499C660.015 324.18 660.338 323.978 660.692 323.978L664.934 323.978L672.459 323.978C672.674 323.978 672.883 323.903 673.048 323.766L684.737 314.107C685.235 313.696 685.991 313.909 686.2 314.521L697.378 347.162C697.525 347.593 697.966 347.852 698.415 347.772L711.214 345.488C711.536 345.431 711.804 345.207 711.918 344.9L718.993 325.863C719.271 325.117 720.298 325.046 720.674 325.748L727.596 338.643C727.795 339.013 728.218 339.203 728.626 339.105L738.632 336.71" stroke="#3541CA" stroke-width="5.54661" stroke-linecap="round"/>
<path d="M733.996 609.505L576.713 582.987C571.855 582.173 568.568 577.531 569.378 572.651L572.303 555.093C573.113 550.212 577.733 546.91 582.591 547.724L739.874 574.242C744.732 575.055 748.019 579.697 747.209 584.578L744.284 602.136C743.475 607.016 738.902 610.318 733.996 609.505Z" fill="#3265E9"/>
<path d="M717.65 172.822L743.18 177.128C744.513 177.368 745.752 176.459 745.99 175.119L746.085 174.449C746.323 173.109 745.418 171.865 744.085 171.625L718.555 167.319C717.222 167.079 715.983 167.989 715.745 169.329L715.65 169.998C715.459 171.386 716.364 172.63 717.65 172.822Z" fill="#F0F0F0"/>
<path d="M628.19 237.814L673.886 245.228C676.756 245.742 679.421 243.787 679.934 240.905L680.139 239.465C680.651 236.583 678.704 233.907 675.834 233.393L630.137 225.979C627.267 225.465 624.602 227.42 624.09 230.302L623.885 231.742C623.475 234.727 625.422 237.403 628.19 237.814Z" fill="#E3E3E3"/>
<path d="M707.411 171.099L708.077 171.195C709.411 171.434 710.649 170.525 710.887 169.185L710.983 168.515C711.221 167.175 710.316 165.931 708.982 165.692L708.316 165.596C706.982 165.357 705.744 166.266 705.505 167.606L705.41 168.276C705.22 169.616 706.125 170.908 707.411 171.099Z" fill="#F0F0F0"/>
<path d="M575.382 383.707L577.287 369.973C577.287 369.973 553.806 359.733 534.087 381.458C514.369 403.183 532.182 433.378 540.612 433.378C548.995 433.378 531.61 448.355 531.61 448.355C531.61 448.355 509.796 471.324 530.563 499.031C551.329 526.737 570.857 507.788 570.857 507.788C570.857 507.788 591.623 481.086 573.143 459.601C554.663 438.115 576.096 429.645 576.096 429.645C576.096 429.645 591.623 420.888 583.431 393.708C575.191 366.48 575.382 383.707 575.382 383.707Z" fill="#FCB59F"/>
<path d="M841.057 309.009C841.057 309.009 832.103 383.085 844.439 421.271C856.727 459.457 807.145 480.56 807.145 480.56L812.527 449.886C812.527 449.886 831.865 442.278 826.863 411.748C822.005 382.176 820.91 356.287 841.057 309.009Z" fill="#EC9776"/>
<path d="M197.824 540.423C197.824 540.423 209.732 464.003 205.302 403.374C200.777 342.697 210.684 324.178 223.544 324.178C236.404 324.178 266.601 309.009 269.935 432.325C269.935 432.325 273.841 512.381 312.42 565.737C351 619.092 316.898 719.103 316.898 719.103L301.228 932.189H141.908C141.908 932.189 165.389 839.308 159.816 800.021C154.244 760.687 104.471 620.815 78.1796 584.878C51.8882 548.94 60.271 520.277 60.271 520.277L102.185 400.072C102.185 400.072 119.522 348.966 169.294 348.392C175.153 348.344 176.391 351.263 176.391 351.263L186.584 402.656C186.584 402.656 185.345 409.978 179.916 409.02C179.916 409.02 184.964 440.459 173.772 448.355C162.579 456.203 138.526 483.191 144.718 498.935C150.91 514.678 197.824 540.423 197.824 540.423Z" fill="#FCB59F"/>
<path d="M215.685 333.893C215.685 333.893 208.636 384.807 224.306 395.287C239.976 405.767 219.21 407.25 219.21 407.25C219.21 407.25 197.396 371.313 215.685 333.893Z" fill="#EC9776"/>
</g>
<defs>
<filter id="filter0_b_1560_9910" x="161.438" y="314.352" width="398.088" height="174.472" filterUnits="userSpaceOnUse" color-interpolation-filters="sRGB">
<feFlood flood-opacity="0" result="BackgroundImageFix"/>
<feGaussianBlur in="BackgroundImageFix" stdDeviation="12.5"/>
<feComposite in2="SourceAlpha" operator="in" result="effect1_backgroundBlur_1560_9910"/>
<feBlend mode="normal" in="SourceGraphic" in2="effect1_backgroundBlur_1560_9910" result="shape"/>
</filter>
<linearGradient id="paint0_linear_1560_9910" x1="481.647" y1="359.265" x2="488.287" y2="395.449" gradientUnits="userSpaceOnUse">
<stop stop-color="white"/>
<stop offset="0.177083" stop-color="#79B3D2"/>
<stop offset="0.333333" stop-color="#BBA064"/>
<stop offset="0.484375" stop-color="white"/>
<stop offset="0.682292" stop-color="#B6678A"/>
<stop offset="0.84375" stop-color="white"/>
<stop offset="1" stop-color="#272727"/>
</linearGradient>
<clipPath id="clip0_1560_9910">
<rect width="1010" height="857.985" fill="white"/>
</clipPath>
</defs>
</svg>
